<svg id="_103766_full_user_icon" data-name="103766_full_user_icon" xmlns="http://www.w3.org/2000/svg" xmlns:xlink="http://www.w3.org/1999/xlink" width="24" height="24" viewBox="0 0 24 24">
  <defs>
    <linearGradient id="linear-gradient" x1="0.5" x2="0.5" y2="1" gradientUnits="objectBoundingBox">
      <stop offset="0" stop-color="#fe2d2f"/>
      <stop offset="1" stop-color="#cc0002"/>
    </linearGradient>
  </defs>
  <g id="background">
    <rect id="Rectangle_6222" data-name="Rectangle 6222" width="24" height="24" fill="none"/>
  </g>
  <g id="user_x5F_full" transform="translate(7.495)">
    <g id="Group_47671" data-name="Group 47671">
      <path id="Path_94949" data-name="Path 94949" d="M17.495,6h-6a1.468,1.468,0,0,0-1.5,1.5v6a1.318,1.318,0,0,0,1.5,1.5v8.993h6V14.989a1.318,1.318,0,0,0,1.5-1.5v-6A1.468,1.468,0,0,0,17.495,6Zm-3-1.5a2.248,2.248,0,1,0-2.248-2.248A2.248,2.248,0,0,0,14.5,4.5Z" transform="translate(-10)" fill="url(#linear-gradient)"/>
    </g>
  </g>
</svg>
