<svg xmlns="http://www.w3.org/2000/svg" xmlns:xlink="http://www.w3.org/1999/xlink" width="60" height="60" viewBox="0 0 60 60">
  <defs>
    <linearGradient id="linear-gradient" x1="0.5" x2="0.5" y2="1" gradientUnits="objectBoundingBox">
      <stop offset="0" stop-color="#041e39"/>
      <stop offset="1" stop-color="#57687a"/>
    </linearGradient>
  </defs>
  <g id="Group_48493" data-name="Group 48493" transform="translate(8425 4469)">
    <g id="_3669413_location_ic_on_icon" data-name="3669413_location_ic_on_icon" transform="translate(-8425 -4469)">
      <path id="Path_94545" data-name="Path 94545" d="M30,4C18.957,4,10,12.151,10,22.2,10,35.85,30,56,30,56S50,35.85,50,22.2C50,12.151,41.043,4,30,4Z" transform="translate(0 0)" fill="url(#linear-gradient)"/>
      <path id="Path_94546" data-name="Path 94546" d="M0,0H60V60H0Z" fill="none"/>
      <path id="_3671647_airplane_icon" data-name="3671647_airplane_icon" d="M7.56,10.8H2.52L.9,13.5H0v-9H.9L2.52,7.2H7.56L5.4,0H7.2l4.32,7.2H16.2a1.8,1.8,0,1,1,0,3.6H11.52L7.2,18H5.4Z" transform="translate(21 15)" fill="#fff"/>
    </g>
  </g>
</svg>
