<svg xmlns="http://www.w3.org/2000/svg" xmlns:xlink="http://www.w3.org/1999/xlink" width="1105" height="1105" viewBox="0 0 1105 1105">
  <defs>
    <clipPath id="clip-path">
      <rect id="Rectangle_6272" data-name="Rectangle 6272" width="441" height="442" transform="translate(0.147 -0.236)" fill="#fff" stroke="#707070" stroke-width="1"/>
    </clipPath>
  </defs>
  <g id="Group_48492" data-name="Group 48492" transform="translate(8425 4469)">
    <g id="_3669413_location_ic_on_icon" data-name="3669413_location_ic_on_icon" transform="translate(-8425 -4469)">
      <path id="Path_94545" data-name="Path 94545" d="M378.333,4C174.961,4,10,154.114,10,339.183c0,251.388,368.333,622.483,368.333,622.483s368.333-371.1,368.333-622.483C746.667,154.114,581.706,4,378.333,4Z" transform="translate(174.167 69.667)" fill="#c20a0c"/>
      <path id="Path_94546" data-name="Path 94546" d="M0,0H1105V1105H0Z" fill="none"/>
      <g id="Mask_Group_44798" data-name="Mask Group 44798" transform="translate(331.853 221.237)" clip-path="url(#clip-path)">
        <g id="Ambulance_car_rescue" transform="translate(5.726 82.261)">
          <path id="Path_95020" data-name="Path 95020" d="M166.13,184.137H155.87a4.722,4.722,0,0,0-4.717,4.717v14.9a1.377,1.377,0,0,1-1.375,1.375h-14.9a4.722,4.722,0,0,0-4.716,4.717v10.261a4.722,4.722,0,0,0,4.716,4.717h14.9a1.377,1.377,0,0,1,1.375,1.376v14.9a4.722,4.722,0,0,0,4.717,4.717h10.26a4.722,4.722,0,0,0,4.717-4.717V226.2a1.377,1.377,0,0,1,1.375-1.376h14.9a4.722,4.722,0,0,0,4.717-4.717V209.847a4.723,4.723,0,0,0-4.717-4.718h-14.9a1.376,1.376,0,0,1-1.375-1.374v-14.9A4.723,4.723,0,0,0,166.13,184.137Z" transform="translate(-24.688 -107.872)" fill="#fff"/>
          <path id="Path_95021" data-name="Path 95021" d="M366.46,146.858a5.21,5.21,0,0,0,5.21-5.21V129.12a5.21,5.21,0,1,0-10.42,0v12.528A5.21,5.21,0,0,0,366.46,146.858Z" transform="translate(-55.107 -99.945)" fill="#fff"/>
          <path id="Path_95022" data-name="Path 95022" d="M388.251,149.9a5.208,5.208,0,0,0,6.937-2.485l5.543-11.732a5.21,5.21,0,1,0-9.422-4.452l-5.543,11.732a5.21,5.21,0,0,0,2.485,6.937Z" transform="translate(-58.268 -100.515)" fill="#fff"/>
          <path id="Path_95023" data-name="Path 95023" d="M336.89,147.413a5.21,5.21,0,0,0,9.422-4.452l-5.544-11.732a5.21,5.21,0,1,0-9.421,4.452Z" transform="translate(-51.104 -100.515)" fill="#fff"/>
          <path id="Path_95024" data-name="Path 95024" d="M186.829,259.7a55.612,55.612,0,0,1-76.987-77.562,5.21,5.21,0,1,0-8.581-5.911,66.032,66.032,0,0,0,91.417,92.1,5.21,5.21,0,1,0-5.848-8.624Z" transform="translate(-19.354 -106.534)" fill="#fff"/>
          <path id="Path_95025" data-name="Path 95025" d="M159.731,143.62A65.7,65.7,0,0,0,122.812,154.9a5.21,5.21,0,1,0,5.834,8.635,55.613,55.613,0,0,1,77.715,76.411,5.21,5.21,0,0,0,8.732,5.687A66.034,66.034,0,0,0,159.731,143.62Z" transform="translate(-23.419 -102.539)" fill="#fff"/>
          <path id="Path_95026" data-name="Path 95026" d="M366.346,336.452a34.4,34.4,0,1,0,34.4,34.4,34.4,34.4,0,0,0-34.4-34.4Zm0,46.893a12.489,12.489,0,1,1,12.488-12.489,12.49,12.49,0,0,1-12.488,12.489Z" transform="translate(-51.248 -127.921)" fill="#fff"/>
          <path id="Path_95027" data-name="Path 95027" d="M116.842,336.452a34.4,34.4,0,1,0,34.4,34.4A34.4,34.4,0,0,0,116.842,336.452Zm0,46.893a12.489,12.489,0,1,1,12.489-12.489,12.489,12.489,0,0,1-12.489,12.489Z" transform="translate(-18.406 -127.921)" fill="#fff"/>
          <path id="Path_95028" data-name="Path 95028" d="M412.662,242.853c-.1-.005-.192-.015-.29-.015h-.184a30.629,30.629,0,0,1-28.638-20.415l-8.767-24.89a35.429,35.429,0,0,0-30.918-23.517,24.765,24.765,0,1,0-49.53-.089h-16V162.465c0-.014,0-.028,0-.042v-40.6a25.539,25.539,0,0,0-25.511-25.511H34.211A25.539,25.539,0,0,0,8.7,121.823V324.874a19.009,19.009,0,0,0,18.987,18.987H52.513a10.781,10.781,0,0,0,10.68-9.63,44.228,44.228,0,0,1,87.885,0,10.788,10.788,0,0,0,10.659,9.637l107.4.27h.026a10.748,10.748,0,0,0,10.668-9.67,44.228,44.228,0,0,1,87.958.186,10.772,10.772,0,0,0,10.674,9.735l40.667.064h.1A18.974,18.974,0,0,0,438.2,325.481v-56.82a26.043,26.043,0,0,0-25.534-25.808Zm-144.743,66v24.861l-106.157-.266c-.187,0-.307-.19-.328-.377a54.648,54.648,0,0,0-108.595-.005c-.02.182-.139.37-.325.37H27.687a8.576,8.576,0,0,1-8.567-8.566V121.823a15.108,15.108,0,0,1,15.09-15.09H252.826a15.108,15.108,0,0,1,15.09,15.09v57.314c0,.014,0,.028,0,.042Zm36.866-135.8a14.347,14.347,0,0,1,28.626,0Zm45.6,69.78a9.229,9.229,0,0,1-9.218-9.219V184.346h.273A24.985,24.985,0,0,1,364.956,201l8.765,24.884a40.843,40.843,0,0,0,11.385,16.956Zm77.392,46.167h-12.39a5.642,5.642,0,0,1-5.636-5.636V253.259h2.376a15.61,15.61,0,0,1,15.65,15.4Z" transform="translate(-8.7 -96.312)" fill="#fff"/>
        </g>
      </g>
    </g>
  </g>
</svg>
