<svg xmlns="http://www.w3.org/2000/svg" xmlns:xlink="http://www.w3.org/1999/xlink" width="1104.757" height="1104.758" viewBox="0 0 1104.757 1104.758">
  <defs>
    <clipPath id="clip-path">
      <rect id="Rectangle_6132" data-name="Rectangle 6132" width="442" height="442" transform="translate(-0.427 -0.127)" fill="#fff" stroke="#707070" stroke-width="1"/>
    </clipPath>
  </defs>
  <g id="Group_48490" data-name="Group 48490" transform="translate(8425 4469)">
    <g id="_3669413_location_ic_on_icon" data-name="3669413_location_ic_on_icon" transform="translate(-8425 -4469)">
      <path id="Path_94545" data-name="Path 94545" d="M378.252,4C174.924,4,10,154.081,10,339.11c0,251.332,368.252,622.346,368.252,622.346S746.5,590.442,746.5,339.11C746.5,154.081,581.58,4,378.252,4Z" transform="translate(174.126 69.65)" fill="#e1a25b"/>
      <path id="Path_94546" data-name="Path 94546" d="M0,0H1104.757V1104.757H0Z" fill="none"/>
    </g>
    <g id="Mask_Group_44734" data-name="Mask Group 44734" transform="translate(-8093.573 -4284.874)" clip-path="url(#clip-path)">
      <g id="_3671981_adventure_filled_tent_tourism_travel_icon" data-name="3671981_adventure_filled_tent_tourism_travel_icon" transform="translate(13.396 66.953)">
        <path id="Path_94547" data-name="Path 94547" d="M226.638,24.9c2.009,52.894,110.476,216.265,159.353,249.072V239.825a14.861,14.861,0,0,1,14.73-14.73c8.035,0,15.4,6.7,15.4,14.73v56.912a15.1,15.1,0,0,1-12.052,14.73H255.429c-7.365,0-12.721-4.687-14.73-11.382L209.23,206.348l-33.477,95.076a15.1,15.1,0,0,1-14.061,10.043H15.73A14.861,14.861,0,0,1,1,296.737V239.825a14.861,14.861,0,0,1,14.73-14.73,14.861,14.861,0,0,1,14.73,14.73v36.156c49.547-30.13,162.7-200.2,162.7-251.751A14.861,14.861,0,0,1,207.891,9.5h3.348a14.861,14.861,0,0,1,14.73,14.73l.67.67Z" transform="translate(-1 -9.5)" fill="#fff"/>
        <path id="Path_94548" data-name="Path 94548" d="M209.9,206.348l-33.477,95.076a15.1,15.1,0,0,1-14.061,10.043H15.73A14.861,14.861,0,0,1,1,296.737V239.825a14.861,14.861,0,0,1,14.73-14.73c8.035,0,15.4,6.7,15.4,14.73v36.156c49.547-30.13,162.7-200.2,162.7-251.751A14.861,14.861,0,0,1,208.56,9.5h0L209.9,206.348Z" transform="translate(-1 -9.5)" fill="#fff"/>
      </g>
    </g>
  </g>
</svg>
