<svg xmlns="http://www.w3.org/2000/svg" xmlns:xlink="http://www.w3.org/1999/xlink" width="1104.757" height="1104.758" viewBox="0 0 1104.757 1104.758">
  <defs>
    <clipPath id="clip-path">
      <rect id="Rectangle_6131" data-name="Rectangle 6131" width="442" height="442" transform="translate(-0.428 -0.127)" fill="#fff" stroke="#707070" stroke-width="1"/>
    </clipPath>
  </defs>
  <g id="Group_48489" data-name="Group 48489" transform="translate(8319 4475)">
    <g id="_3669413_location_ic_on_icon" data-name="3669413_location_ic_on_icon" transform="translate(-8319 -4475)">
      <path id="Path_94545" data-name="Path 94545" d="M378.252,4C174.924,4,10,154.081,10,339.11c0,251.332,368.252,622.346,368.252,622.346S746.5,590.442,746.5,339.11C746.5,154.081,581.58,4,378.252,4Z" transform="translate(174.126 69.65)" fill="#c20a0c"/>
      <path id="Path_94546" data-name="Path 94546" d="M0,0H1104.757V1104.757H0Z" fill="none"/>
    </g>
    <g id="Mask_Group_44733" data-name="Mask Group 44733" transform="translate(-7987.573 -4290.874)" clip-path="url(#clip-path)">
      <g id="_211779_moon_icon" data-name="211779_moon_icon" transform="translate(33.058 20.876)">
        <g id="Group_47336" data-name="Group 47336" transform="translate(0 0)">
          <path id="Path_94550" data-name="Path 94550" d="M487.578,443.869c-3.132.174-6.089.174-9.221.174A189.314,189.314,0,0,1,326.475,140.8a199.408,199.408,0,0,0-38.275,8C206.779,174.552,147.8,250.58,147.8,340.526c0,111,89.947,200.944,200.944,200.944a200.4,200.4,0,0,0,153.1-70.809,196.28,196.28,0,0,0,22.269-32.186A181.5,181.5,0,0,1,487.578,443.869Z" transform="translate(-147.8 -140.8)" fill="#fff"/>
        </g>
      </g>
    </g>
  </g>
</svg>
