<svg xmlns="http://www.w3.org/2000/svg" xmlns:xlink="http://www.w3.org/1999/xlink" width="434.657" height="474.651" viewBox="0 0 434.657 474.651">
  <defs>
    <linearGradient id="linear-gradient" x1="0.023" y1="1" x2="0.939" y2="0.347" gradientUnits="objectBoundingBox">
      <stop offset="0" stop-color="#9f9f9f"/>
      <stop offset="1" stop-color="#efefef"/>
    </linearGradient>
    <clipPath id="clip-path">
      <path id="Union_147" data-name="Union 147" d="M163.681,404.754a586.806,586.806,0,0,1-52.118-56.245c-14.61-17.8-34.338-43.024-50.617-74.722C26.342,206.405,10.067,146.441,5.969,130c-.033.783-.02,1.214-.02,1.214s-.365-1.872-.913-5.073c-.089-.385-.133-.583-.133-.583v-.2c-2.768-16.376-9.454-62.509-.068-78.765,4.633-8.024,13.1-12.721,19.475-15.909,8.334-4.173,36.2-12.342,36.2-12.342S121.547,4.447,167.239,1.183C257.718-5.28,372.481,16.85,372.481,16.85l-18.8,50.136A469.081,469.081,0,0,0,287.792,55.8c-27.088-2.722-88.768-4.7-139.523,0-34.21,3.165-63.75,12.487-72.31,14.832a197.1,197.1,0,0,0-22.177,7.382c.559,9.044,5.027,65.152,32.471,125.276,9.557,20.939,19.6,44.1,32.541,64.478,27.775,43.724,60.15,78.83,68.092,86.773a349.267,349.267,0,0,0,25.659,23.709c22.743-12.137,73.774-44.5,127.823-113.075,72.854-92.437,94-213.86,94-213.86s8.619,123.771-68.936,239.71C323.847,353.2,296,382.7,279.117,396.7l.038-.016s-39.5,40.159-58.067,40.159S185.521,425.727,163.681,404.754Z" transform="translate(0 0)" fill="url(#linear-gradient)"/>
    </clipPath>
    <linearGradient id="linear-gradient-2" x1="0.023" y1="1" x2="1.281" y2="0.035" gradientUnits="objectBoundingBox">
      <stop offset="0" stop-color="#039572"/>
      <stop offset="1" stop-color="#d5d5d5"/>
    </linearGradient>
    <linearGradient id="linear-gradient-3" x1="0.18" y1="0.469" x2="1.27" y2="0.935" xlink:href="#linear-gradient-2"/>
    <linearGradient id="linear-gradient-4" x1="1" y1="0.29" x2="-0.461" y2="0.566" xlink:href="#linear-gradient-2"/>
    <filter id="Path_94345" x="-9.004" y="31.806" width="390.478" height="149.21" filterUnits="userSpaceOnUse">
      <feOffset dy="3" input="SourceAlpha"/>
      <feGaussianBlur stdDeviation="3" result="blur"/>
      <feFlood flood-opacity="0.161"/>
      <feComposite operator="in" in2="blur"/>
      <feComposite in="SourceGraphic"/>
    </filter>
    <linearGradient id="linear-gradient-5" x1="0.217" y1="0.566" x2="0.565" y2="-0.133" xlink:href="#linear-gradient-2"/>
    <filter id="Path_94349" x="76.872" y="0" width="336.276" height="385.015" filterUnits="userSpaceOnUse">
      <feOffset dy="3" input="SourceAlpha"/>
      <feGaussianBlur stdDeviation="3" result="blur-2"/>
      <feFlood flood-opacity="0.161"/>
      <feComposite operator="in" in2="blur-2"/>
      <feComposite in="SourceGraphic"/>
    </filter>
  </defs>
  <g id="Group_47143" data-name="Group 47143" transform="translate(0 6)">
    <g id="Group_47097" data-name="Group 47097" transform="translate(0)">
      <g id="Group_47080" data-name="Group 47080" transform="translate(145.465 5.66)">
        <path id="Path_94332" data-name="Path 94332" d="M20.857,0C32.375,0,41.446,15.09,44.4,32.058S32.375,61.735,20.857,61.735,0,47.915,0,30.868,9.338,0,20.857,0Z" fill="#039572"/>
      </g>
      <g id="Mask_Group_724" data-name="Mask Group 724" transform="translate(0 31.806)" clip-path="url(#clip-path)">
        <g id="Group_47082" data-name="Group 47082" transform="translate(-69.101 0)">
          <path id="Path_94343" data-name="Path 94343" d="M-4203.271,6106.529s67.381-26.633,140.223-119.066,94.006-213.859,94.006-213.859,8.627,123.77-68.937,239.7S-4145.3,6131.6-4145.3,6131.6Z" transform="translate(4472.518 -5722.293)" fill="url(#linear-gradient-2)"/>
          <path id="Path_94344" data-name="Path 94344" d="M412.96,53.32s2.43,56.28-10.231,69.857-32.389,18.43-62.621,20.1a586.885,586.885,0,0,1-76.679-.244c-22.986-1.457-54.884-4.228-89.169-13.941C88.547,104.81,27.626,68.984,27.626,68.984L0,43.223,25.217,0S71.492,39.641,139.958,62.5c21.832,7.29,45.616,15.746,69.348,20.176,50.921,9.506,98.675,9.77,109.9,9.378,17.573-.614,49.728-1.948,70.774-12.278C406.446,71.7,412.96,53.32,412.96,53.32Z" transform="translate(105.614 58.301) rotate(47)" fill="url(#linear-gradient-3)"/>
          <g transform="matrix(1, 0, 0, 1, 69.1, -37.81)" filter="url(#Path_94345)">
            <path id="Path_94345-2" data-name="Path 94345" d="M-4315.459,5874.523s-12.617-64.723-1.117-84.633c4.633-8,13.1-12.711,19.469-15.906,8.334-4.164,36.2-12.336,36.2-12.336s61.047-13.9,106.732-17.152c90.479-6.465,205.236,15.676,205.236,15.676l-18.8,50.125a469.329,469.329,0,0,0-65.893-11.191c-27.086-2.719-88.762-4.687-139.516,0-34.205,3.164-63.74,12.5-72.312,14.844-22.318,6.109-38.541,13.68-51.652,24.563A47.652,47.652,0,0,0-4315.459,5874.523Z" transform="translate(4321.41 -5705.51)" fill="url(#linear-gradient-4)"/>
          </g>
        </g>
      </g>
      <g transform="matrix(1, 0, 0, 1, 0, -6)" filter="url(#Path_94349)">
        <path id="Path_94349-2" data-name="Path 94349" d="M-7683.133,6214.033s39.426,2.422,55.09,13.23,20.977,24.891,14.016,49.453c-10.18,35.973-28.484,88.367-56.711,134.367-46.879,76.414-120.406,128.191-120.406,128.191s-65.93-48.406-105.047-140.652c-18.34-43.254-35.586-108.809-32.812-165.1,1.063-21.617,1-34.59,6.668-43.543,8.453-13.32,25.164-14.867,37.238-16.508,19.59-2.672,32.172-.82,42.48,4.563,10.32,5.367,16.156,25.992,16.156,25.992s-12.594-38.961-32.035-21.59c-8.543,7.633-10.5,21.5-11.336,35.656a396.607,396.607,0,0,0,0,43.707c.969,12.941.8,43.785,21.121,99.43s60.547,97.738,60.547,97.738,36.1-19.441,81.3-100.707c24.578-44.2,36.57-90.578,36.129-116.41C-7671.094,6221.018-7683.133,6214.033-7683.133,6214.033Z" transform="translate(8015.17 -6166.26)" fill="url(#linear-gradient-5)"/>
      </g>
    </g>
  </g>
</svg>
