<svg xmlns="http://www.w3.org/2000/svg" xmlns:xlink="http://www.w3.org/1999/xlink" width="524.632" height="571.663" viewBox="0 0 524.632 571.663">
  <defs>
    <linearGradient id="linear-gradient" x1="0.023" y1="1" x2="0.939" y2="0.347" gradientUnits="objectBoundingBox">
      <stop offset="0" stop-color="#9f9f9f"/>
      <stop offset="1" stop-color="#efefef"/>
    </linearGradient>
    <clipPath id="clip-path">
      <path id="Union_147" data-name="Union 147" d="M197.564,488.539a708.278,708.278,0,0,1-62.906-67.887c-17.635-21.49-41.446-51.93-61.1-90.19C31.8,249.132,12.15,176.755,7.2,156.905c-.04.945-.024,1.465-.024,1.465s-.44-2.259-1.1-6.124c-.108-.465-.161-.7-.161-.7V151.3c-3.341-19.766-11.41-75.448-.083-95.07,5.592-9.685,15.809-15.354,23.506-19.2,10.059-5.037,43.7-14.9,43.7-14.9s73.668-16.765,128.818-20.7c109.209-7.8,247.728,18.911,247.728,18.911L426.893,80.852s-33.668-8.9-79.528-13.5c-32.7-3.286-107.144-5.668-168.4,0-41.291,3.82-76.947,15.072-87.279,17.9a237.9,237.9,0,0,0-26.768,8.911c.675,10.916,6.068,78.639,39.192,151.208,11.536,25.273,23.651,53.228,39.277,77.825,33.525,52.775,72.6,95.148,82.188,104.735a421.567,421.567,0,0,0,30.971,28.616c27.451-14.649,89.046-53.708,154.283-136.482C498.759,208.491,524.288,61.934,524.288,61.934s10.4,149.392-83.206,289.331c-50.2,75.043-83.809,110.659-104.187,127.554l.046-.02s-47.68,48.472-70.087,48.472S223.924,513.854,197.564,488.539Z" transform="translate(0 0)" fill="url(#linear-gradient)"/>
    </clipPath>
    <linearGradient id="linear-gradient-2" x1="0.023" y1="1" x2="1.281" y2="0.035" gradientUnits="objectBoundingBox">
      <stop offset="0" stop-color="#747474"/>
      <stop offset="1" stop-color="#d5d5d5"/>
    </linearGradient>
    <linearGradient id="linear-gradient-3" x1="0.18" y1="0.469" x2="1.27" y2="0.935" xlink:href="#linear-gradient-2"/>
    <linearGradient id="linear-gradient-4" x1="1" y1="0.29" x2="-0.461" y2="0.566" xlink:href="#linear-gradient-2"/>
    <filter id="Path_94345" x="-9.004" y="38.391" width="467.581" height="176.37" filterUnits="userSpaceOnUse">
      <feOffset dy="3" input="SourceAlpha"/>
      <feGaussianBlur stdDeviation="3" result="blur"/>
      <feFlood flood-opacity="0.161"/>
      <feComposite operator="in" in2="blur"/>
      <feComposite in="SourceGraphic"/>
    </filter>
    <linearGradient id="linear-gradient-5" x1="0.217" y1="0.566" x2="0.565" y2="-0.133" xlink:href="#linear-gradient-2"/>
    <filter id="Path_94349" x="94.648" y="0" width="402.161" height="460.983" filterUnits="userSpaceOnUse">
      <feOffset dy="3" input="SourceAlpha"/>
      <feGaussianBlur stdDeviation="3" result="blur-2"/>
      <feFlood flood-opacity="0.161"/>
      <feComposite operator="in" in2="blur-2"/>
      <feComposite in="SourceGraphic"/>
    </filter>
  </defs>
  <g id="Group_47142" data-name="Group 47142" transform="translate(0 6)">
    <g id="Group_47097" data-name="Group 47097" transform="translate(0)">
      <g id="Group_47080" data-name="Group 47080" transform="translate(175.576 6.831)">
        <path id="Path_94332" data-name="Path 94332" d="M25.174,0c13.9,0,24.851,18.214,28.413,38.694S39.077,74.515,25.174,74.515,0,57.834,0,37.257,11.271,0,25.174,0Z" fill="#747474"/>
      </g>
      <g id="Mask_Group_724" data-name="Mask Group 724" transform="translate(0 38.39)" clip-path="url(#clip-path)">
        <g id="Group_47082" data-name="Group 47082" transform="translate(-83.405 0)">
          <path id="Path_94343" data-name="Path 94343" d="M-4203.27,6175.444s81.327-32.145,169.248-143.71c87.934-111.585,113.466-258.132,113.466-258.132s10.412,149.391-83.21,289.323C-4097.371,6202.874-4133.3,6205.7-4133.3,6205.7Z" transform="translate(4528.251 -5711.67)" fill="url(#linear-gradient-2)"/>
          <path id="Path_94344" data-name="Path 94344" d="M498.443,64.358s2.933,67.93-12.348,84.317S447,170.921,410.511,172.935a708.369,708.369,0,0,1-92.552-.295c-27.744-1.759-66.245-5.1-107.627-16.826C106.877,126.506,33.344,83.264,33.344,83.264L0,52.17,30.438,0S86.291,47.847,168.93,75.442c26.351,8.8,55.059,19.005,83.7,24.352,61.461,11.474,119.1,11.793,132.65,11.32,21.21-.741,60.022-2.351,85.424-14.819C490.581,86.541,498.443,64.358,498.443,64.358Z" transform="translate(127.476 70.37) rotate(47)" fill="url(#linear-gradient-3)"/>
          <g transform="matrix(1, 0, 0, 1, 83.4, -44.39)" filter="url(#Path_94345)">
            <path id="Path_94345-2" data-name="Path 94345" d="M-4314.226,5901.683s-15.228-78.118-1.349-102.15c5.593-9.664,15.811-15.344,23.5-19.2,10.058-5.027,43.7-14.894,43.7-14.894s73.681-16.772,128.825-20.7c109.209-7.8,247.72,18.92,247.72,18.92l-22.688,60.5s-33.668-8.9-79.533-13.5c-32.693-3.283-107.135-5.657-168.4,0-41.285,3.817-76.935,15.083-87.28,17.912-26.939,7.377-46.521,16.516-62.344,29.648C-4315.021,5876.54-4314.226,5901.683-4314.226,5901.683Z" transform="translate(4321.41 -5698.92)" fill="url(#linear-gradient-4)"/>
          </g>
        </g>
      </g>
      <g transform="matrix(1, 0, 0, 1, 0, -6)" filter="url(#Path_94349)">
        <path id="Path_94349-2" data-name="Path 94349" d="M-7632.174,6222.684s47.588,2.92,66.492,15.966,25.317,30.044,16.919,59.689c-12.286,43.418-34.38,106.66-68.451,162.184-56.583,92.229-145.331,154.723-145.331,154.723s-79.575-58.423-126.792-169.763c-22.137-52.209-42.951-131.333-39.605-199.277,1.286-26.093,1.207-41.754,8.051-52.561,10.2-16.076,30.368-17.939,44.945-19.922,23.644-3.224,38.83-.992,51.275,5.507,12.457,6.476,19.5,31.369,19.5,31.369s-15.2-47.022-38.664-26.057c-10.309,9.213-12.679,25.954-13.684,43.039a479.678,479.678,0,0,0,0,52.751c1.167,15.625.962,52.854,25.5,120.015s73.08,117.97,73.08,117.97,43.568-23.466,98.123-121.554c29.669-53.355,44.143-109.33,43.608-140.506C-7617.641,6231.113-7632.174,6222.684-7632.174,6222.684Z" transform="translate(8032.95 -6166.26)" fill="url(#linear-gradient-5)"/>
      </g>
    </g>
  </g>
</svg>
