<svg xmlns="http://www.w3.org/2000/svg" xmlns:xlink="http://www.w3.org/1999/xlink" width="654.79" height="712" viewBox="0 0 654.79 712">
  <defs>
    <linearGradient id="linear-gradient" x1="0.023" y1="1" x2="0.939" y2="0.347" gradientUnits="objectBoundingBox">
      <stop offset="0" stop-color="#9f9f9f"/>
      <stop offset="1" stop-color="#efefef"/>
    </linearGradient>
    <clipPath id="clip-path">
      <path id="Union_147" data-name="Union 147" d="M246.578,609.742a884,884,0,0,1-78.512-84.73c-22.01-26.822-51.729-64.813-76.253-112.566C39.683,310.94,15.165,220.607,8.991,195.833c-.05,1.179-.03,1.828-.03,1.828s-.549-2.819-1.375-7.643c-.134-.581-.2-.878-.2-.878v-.3c-4.17-24.67-14.241-94.166-.1-118.656,6.979-12.087,19.731-19.163,29.338-23.967,12.555-6.287,54.54-18.593,54.54-18.593S183.1,6.7,251.937,1.781c136.3-9.735,309.188,23.6,309.188,23.6L532.8,100.911s-42.021-11.1-99.258-16.855c-40.807-4.1-133.725-7.074-210.184,0-51.535,4.768-96.037,18.812-108.932,22.344a296.926,296.926,0,0,0-33.409,11.121c.842,13.624,7.573,98.149,48.916,188.722,14.4,31.543,29.519,66.434,49.021,97.133C220.8,469.244,269.568,522.13,281.534,534.1c9.549,9.548,23.2,23.078,38.655,35.716,34.261-18.283,111.137-67.033,192.559-170.342C622.5,260.217,654.361,77.3,654.361,77.3s12.984,186.456-103.849,361.112c-62.652,93.66-104.6,138.113-130.036,159.2l.057-.024s-59.509,60.5-87.476,60.5S279.478,641.338,246.578,609.742Z" transform="translate(0 0)" fill="url(#linear-gradient)"/>
    </clipPath>
    <linearGradient id="linear-gradient-2" x1="0.023" y1="1" x2="1.281" y2="0.035" gradientUnits="objectBoundingBox">
      <stop offset="0" stop-color="#f70"/>
      <stop offset="1" stop-color="#d5d5d5"/>
    </linearGradient>
    <linearGradient id="linear-gradient-3" x1="0.18" y1="0.469" x2="1.27" y2="0.935" xlink:href="#linear-gradient-2"/>
    <linearGradient id="linear-gradient-4" x1="1" y1="0.29" x2="-0.461" y2="0.566" xlink:href="#linear-gradient-2"/>
    <filter id="Path_94345" x="-9.006" y="47.915" width="579.12" height="215.662" filterUnits="userSpaceOnUse">
      <feOffset dy="3" input="SourceAlpha"/>
      <feGaussianBlur stdDeviation="3" result="blur"/>
      <feFlood flood-opacity="0.161"/>
      <feComposite operator="in" in2="blur"/>
      <feComposite in="SourceGraphic"/>
    </filter>
    <linearGradient id="linear-gradient-5" x1="0.217" y1="0.566" x2="0.565" y2="-0.133" xlink:href="#linear-gradient-2"/>
    <filter id="Path_94349" x="120.363" y="0" width="497.463" height="570.886" filterUnits="userSpaceOnUse">
      <feOffset dy="3" input="SourceAlpha"/>
      <feGaussianBlur stdDeviation="3" result="blur-2"/>
      <feFlood flood-opacity="0.161"/>
      <feComposite operator="in" in2="blur-2"/>
      <feComposite in="SourceGraphic"/>
    </filter>
  </defs>
  <g id="Group_47141" data-name="Group 47141" transform="translate(0 6)">
    <g id="Group_47097" data-name="Group 47097" transform="translate(0)">
      <g id="Group_47080" data-name="Group 47080" transform="translate(219.136 8.526)">
        <path id="Path_94332" data-name="Path 94332" d="M31.419,0C48.772,0,62.436,22.732,66.882,48.294S48.772,93,31.419,93,0,72.182,0,46.5,14.067,0,31.419,0Z" fill="#f70"/>
      </g>
      <g id="Mask_Group_724" data-name="Mask Group 724" transform="translate(0 47.915)" clip-path="url(#clip-path)">
        <g id="Group_47082" data-name="Group 47082" transform="translate(-104.097 0)">
          <path id="Path_94343" data-name="Path 94343" d="M-4203.27,6275.137s101.5-40.121,211.238-179.363c109.75-139.27,141.617-322.172,141.617-322.172s12.992,186.453-103.855,361.1c-116.828,174.664-161.672,178.2-161.672,178.2Z" transform="translate(4608.876 -5696.305)" fill="url(#linear-gradient-2)"/>
          <path id="Path_94344" data-name="Path 94344" d="M622.1,80.324s3.661,84.783-15.412,105.236-48.792,27.764-94.336,30.279a884.111,884.111,0,0,1-115.513-.368c-34.627-2.195-82.68-6.369-134.329-21-129.122-36.579-220.9-90.549-220.9-90.549L0,65.113,37.989,0S107.7,59.718,210.84,94.159c32.888,10.982,68.719,23.72,104.47,30.394,76.71,14.321,148.649,14.719,165.56,14.128,26.473-.924,74.913-2.934,106.617-18.5C612.291,108.011,622.1,80.324,622.1,80.324Z" transform="translate(159.103 87.828) rotate(47)" fill="url(#linear-gradient-3)"/>
          <g transform="matrix(1, 0, 0, 1, 104.1, -53.91)" filter="url(#Path_94345)">
            <path id="Path_94345-2" data-name="Path 94345" d="M-4312.441,5940.977s-19.008-97.5-1.687-127.5c6.98-12.062,19.734-19.148,29.332-23.961,12.555-6.273,54.539-18.586,54.539-18.586S-4138.3,5750-4069.473,5745.1c136.3-9.742,309.18,23.613,309.18,23.613l-28.32,75.508s-42.02-11.1-99.266-16.855c-40.8-4.1-133.711-7.062-210.172,0-51.527,4.766-96.02,18.828-108.934,22.359-33.625,9.2-58.062,20.609-77.812,37C-4313.437,5909.594-4312.441,5940.977-4312.441,5940.977Z" transform="translate(4321.41 -5689.4)" fill="url(#linear-gradient-4)"/>
          </g>
        </g>
      </g>
      <g transform="matrix(1, 0, 0, 1, 0, -6)" filter="url(#Path_94349)">
        <path id="Path_94349-2" data-name="Path 94349" d="M-7558.461,6235.191s59.4,3.648,82.992,19.93,31.594,37.5,21.109,74.5c-15.328,54.191-42.906,133.125-85.43,202.422-70.625,115.109-181.383,193.109-181.383,193.109s-99.32-72.918-158.25-211.883c-27.633-65.16-53.609-163.914-49.43-248.715,1.6-32.566,1.5-52.113,10.039-65.6,12.734-20.066,37.906-22.395,56.1-24.867,29.508-4.023,48.461-1.238,63.992,6.871,15.547,8.082,24.344,39.152,24.344,39.152s-18.977-58.687-48.258-32.52c-12.875,11.5-15.828,32.395-17.086,53.715-1.508,25.52-.828,54.9,0,65.84,1.461,19.5,1.2,65.965,31.828,149.789s91.2,147.234,91.2,147.234,54.383-29.285,122.469-151.707c37.031-66.59,55.094-136.453,54.43-175.367C-7540.32,6245.711-7558.461,6235.191-7558.461,6235.191Z" transform="translate(8058.66 -6166.26)" fill="url(#linear-gradient-5)"/>
      </g>
    </g>
  </g>
</svg>
