<svg xmlns="http://www.w3.org/2000/svg" xmlns:xlink="http://www.w3.org/1999/xlink" width="337.106" height="369.471" viewBox="0 0 337.106 369.471">
  <defs>
    <linearGradient id="linear-gradient" x1="0.023" y1="1" x2="0.939" y2="0.347" gradientUnits="objectBoundingBox">
      <stop offset="0" stop-color="#ab0a0a"/>
      <stop offset="1" stop-color="#efefef"/>
    </linearGradient>
    <clipPath id="clip-path">
      <path id="Union_147" data-name="Union 147" d="M126.946,313.914a455.106,455.106,0,0,1-40.421-43.622c-11.331-13.809-26.632-33.368-39.257-57.952C20.43,160.082,7.807,113.575,4.629,100.821c-.026.607-.015.941-.015.941s-.283-1.452-.708-3.935c-.069-.3-.1-.452-.1-.452V97.22c-2.147-12.7-7.332-48.48-.053-61.088,3.593-6.223,10.158-9.866,15.1-12.339,6.463-3.237,28.079-9.572,28.079-9.572S94.268,3.449,129.7.917c70.173-5.012,159.18,12.151,159.18,12.151L274.3,51.952a363.8,363.8,0,0,0-51.1-8.678c-21.009-2.111-68.846-3.642-108.209,0-26.532,2.455-49.443,9.685-56.082,11.5a152.866,152.866,0,0,0-17.2,5.726c.433,7.014,3.9,50.53,25.183,97.16,7.412,16.239,15.2,34.2,25.237,50.007,21.542,33.911,46.65,61.138,52.81,67.3a270.881,270.881,0,0,0,19.9,18.388c17.639-9.413,57.217-34.51,99.135-87.7C320.481,133.968,336.885,39.8,336.885,39.8s6.684,95.993-53.465,185.912c-32.255,48.219-53.852,71.1-66.946,81.961l.03-.013S185.867,338.8,171.469,338.8,143.884,330.181,126.946,313.914Z" transform="translate(0 0)" fill="url(#linear-gradient)"/>
    </clipPath>
    <linearGradient id="linear-gradient-2" x1="0.023" y1="1" x2="1.281" y2="0.035" gradientUnits="objectBoundingBox">
      <stop offset="0" stop-color="#ab0a0a"/>
      <stop offset="1" stop-color="#d5d5d5"/>
    </linearGradient>
    <linearGradient id="linear-gradient-3" x1="0.18" y1="0.469" x2="1.27" y2="0.935" xlink:href="#linear-gradient-2"/>
    <linearGradient id="linear-gradient-4" x1="1" y1="0.29" x2="-0.461" y2="0.566" xlink:href="#linear-gradient-2"/>
    <filter id="Path_94345" x="-9.002" y="24.668" width="306.881" height="119.762" filterUnits="userSpaceOnUse">
      <feOffset dy="3" input="SourceAlpha"/>
      <feGaussianBlur stdDeviation="3" result="blur"/>
      <feFlood flood-opacity="0.161"/>
      <feComposite operator="in" in2="blur"/>
      <feComposite in="SourceGraphic"/>
    </filter>
    <linearGradient id="linear-gradient-5" x1="0.217" y1="0.566" x2="0.565" y2="-0.133" xlink:href="#linear-gradient-2"/>
    <filter id="Path_94349" x="57.6" y="0" width="264.844" height="302.643" filterUnits="userSpaceOnUse">
      <feOffset dy="3" input="SourceAlpha"/>
      <feGaussianBlur stdDeviation="3" result="blur-2"/>
      <feFlood flood-opacity="0.161"/>
      <feComposite operator="in" in2="blur-2"/>
      <feComposite in="SourceGraphic"/>
    </filter>
  </defs>
  <g id="Group_47144" data-name="Group 47144" transform="translate(0 6)">
    <g id="Group_47097" data-name="Group 47097" transform="translate(0)">
      <g id="Group_47080" data-name="Group 47080" transform="translate(112.818 4.39)">
        <path id="Path_94332" data-name="Path 94332" d="M16.176,0c8.934,0,15.968,11.7,18.257,24.863S25.109,47.88,16.176,47.88,0,37.162,0,23.94,7.242,0,16.176,0Z" fill="#ab0a0a"/>
      </g>
      <g id="Mask_Group_724" data-name="Mask Group 724" transform="translate(0 24.668)" clip-path="url(#clip-path)">
        <g id="Group_47082" data-name="Group 47082" transform="translate(-53.592 0)">
          <path id="Path_94343" data-name="Path 94343" d="M-4203.271,6031.811s52.258-20.656,108.752-92.342c56.5-71.7,72.908-165.865,72.908-165.865s6.691,95.992-53.467,185.906-83.234,91.742-83.234,91.742Z" transform="translate(4412.091 -5733.809)" fill="url(#linear-gradient-2)"/>
          <path id="Path_94344" data-name="Path 94344" d="M320.279,41.354S322.163,85,312.344,95.532s-25.12,14.294-48.567,15.588a455.167,455.167,0,0,1-59.47-.189c-17.827-1.13-42.566-3.279-69.157-10.812C68.675,81.287,21.426,53.5,21.426,53.5L0,33.522,19.558,0s35.889,30.745,88.989,48.476c16.932,5.654,35.379,12.212,53.785,15.648C201.824,71.5,238.861,71.7,247.567,71.4c13.629-.476,38.568-1.511,54.89-9.522C315.227,55.607,320.279,41.354,320.279,41.354Z" transform="translate(81.911 45.217) rotate(47)" fill="url(#linear-gradient-3)"/>
          <g transform="matrix(1, 0, 0, 1, 53.59, -30.67)" filter="url(#Path_94345)">
            <path id="Path_94345-2" data-name="Path 94345" d="M-4316.795,5845.076s-9.785-50.2-.867-65.637c3.594-6.211,10.16-9.859,15.1-12.338,6.463-3.229,28.078-9.568,28.078-9.568s47.344-10.777,82.777-13.3c70.172-5.016,159.174,12.156,159.174,12.156l-14.578,38.875a363.916,363.916,0,0,0-51.105-8.678c-21.006-2.109-68.84-3.637-108.2,0-26.529,2.453-49.436,9.693-56.084,11.51-17.311,4.738-29.891,10.611-40.059,19.051A36.958,36.958,0,0,0-4316.795,5845.076Z" transform="translate(4321.41 -5712.65)" fill="url(#linear-gradient-4)"/>
          </g>
        </g>
      </g>
      <g transform="matrix(1, 0, 0, 1, 0, -6)" filter="url(#Path_94349)">
        <path id="Path_94349-2" data-name="Path 94349" d="M-7738.379,6204.66s30.578,1.877,42.727,10.26,16.266,19.3,10.867,38.354c-7.891,27.9-22.09,68.535-43.98,104.213-36.359,59.262-93.383,99.418-93.383,99.418s-51.133-37.541-81.473-109.084c-14.223-33.545-27.6-84.387-25.449-128.047.828-16.766.777-26.828,5.172-33.771,6.555-10.33,19.516-11.529,28.883-12.8,15.191-2.07,24.949-.637,32.945,3.539s12.531,20.156,12.531,20.156-9.77-30.213-24.844-16.742c-6.629,5.92-8.148,16.678-8.8,27.654a309.788,309.788,0,0,0,0,33.9c.754,10.039.621,33.961,16.383,77.115s46.961,75.8,46.961,75.8,27.992-15.078,63.047-78.1c19.063-34.285,28.367-70.252,28.023-90.285C-7729.043,6210.076-7738.379,6204.66-7738.379,6204.66Z" transform="translate(7995.9 -6166.26)" fill="url(#linear-gradient-5)"/>
      </g>
    </g>
  </g>
</svg>
