<?xml version="1.0" standalone="no"?>
<!DOCTYPE svg PUBLIC "-//W3C//DTD SVG 20010904//EN"
 "http://www.w3.org/TR/2001/REC-SVG-20010904/DTD/svg10.dtd">
<svg version="1.0" xmlns="http://www.w3.org/2000/svg"
 width="512.000000pt" height="512.000000pt" viewBox="0 0 512.000000 512.000000"
 preserveAspectRatio="xMidYMid meet">
<metadata>
Created by potrace 1.14, written by Peter Selinger 2001-2017
</metadata>
<g transform="translate(0.000000,512.000000) scale(0.100000,-0.100000)"
fill="#000000" stroke="none">
<path d="M2455 5001 c-33 -10 -80 -32 -105 -49 -55 -37 -146 -131 -186 -192
-16 -25 -32 -47 -35 -50 -3 -3 -29 -49 -56 -102 l-51 -98 -25 20 c-14 11 -30
20 -36 20 -6 0 -11 4 -11 8 0 4 -21 19 -47 33 -25 13 -67 35 -92 48 -96 51
-239 92 -321 91 -129 -2 -248 -82 -306 -207 -49 -105 -68 -214 -69 -385 l0
-157 -90 5 c-49 4 -137 1 -195 -4 -214 -21 -344 -92 -411 -224 -32 -64 -37
-199 -11 -298 27 -102 94 -243 164 -345 15 -21 24 -42 20 -46 -4 -3 -42 -25
-86 -48 -43 -23 -104 -59 -135 -80 -84 -58 -194 -173 -227 -239 -27 -52 -29
-66 -29 -162 1 -95 3 -110 28 -157 60 -115 230 -255 416 -343 l43 -20 -18 -28
c-142 -217 -199 -372 -192 -527 3 -76 8 -98 33 -143 56 -103 138 -159 290
-198 75 -20 116 -24 245 -24 l155 0 0 -147 c0 -294 75 -477 228 -559 48 -26
60 -28 162 -27 139 1 213 26 407 136 31 18 65 40 75 49 11 10 24 18 29 18 5 0
27 -35 49 -77 91 -178 211 -319 324 -380 57 -31 68 -33 155 -33 83 0 100 3
147 28 71 36 181 141 239 227 59 89 120 200 120 220 0 19 34 20 50 0 6 -7 37
-29 68 -46 208 -118 280 -143 422 -143 94 0 110 2 155 26 101 53 160 140 201
297 21 80 24 116 24 252 l0 159 156 0 c124 0 172 4 237 20 157 40 253 104 305
204 38 74 43 208 12 309 -31 101 -93 239 -125 277 -7 8 -25 36 -40 62 l-27 48
44 20 c23 11 52 25 63 32 180 113 218 143 300 239 43 50 60 85 81 165 17 69
17 74 0 140 -10 38 -33 92 -51 119 -35 55 -163 185 -182 185 -6 0 -13 4 -15 9
-4 11 -76 56 -158 99 -36 19 -68 37 -72 41 -3 3 9 31 27 61 126 205 175 337
175 470 0 103 -25 172 -88 238 -53 56 -114 90 -221 123 -65 20 -97 23 -248 23
l-173 1 0 161 c0 174 -18 277 -66 380 -25 54 -90 129 -136 159 -85 53 -239 55
-378 3 -85 -32 -234 -108 -250 -128 -3 -4 -12 -9 -20 -13 -8 -4 -24 -14 -36
-22 -21 -15 -22 -13 -61 68 -71 148 -185 293 -283 359 -47 32 -156 69 -200 67
-14 0 -52 -9 -85 -18z m217 -84 c107 -52 215 -181 305 -362 l40 -80 -44 -35
c-75 -57 -120 -98 -278 -256 l-152 -152 -114 117 c-135 138 -224 221 -299 280
-30 24 -54 49 -52 55 2 6 19 42 38 79 107 210 207 321 334 369 65 25 152 19
222 -15z m-1067 -262 c54 -13 91 -27 175 -64 24 -10 38 -18 154 -91 63 -39 67
-51 36 -119 -11 -24 -20 -51 -20 -60 0 -9 -4 -21 -9 -26 -6 -6 -17 -35 -25
-65 -9 -30 -25 -86 -36 -125 -11 -38 -27 -101 -36 -140 -16 -77 -33 -135 -40
-135 -2 0 -21 6 -41 14 -39 14 -142 43 -248 70 -33 9 -120 27 -194 41 -74 14
-136 27 -139 29 -2 2 -4 80 -3 173 0 144 3 178 22 238 30 99 55 143 109 196
75 72 176 94 295 64z m2072 -3 c125 -41 212 -179 229 -362 9 -104 6 -292 -5
-303 -5 -5 -55 -17 -112 -28 -110 -20 -185 -36 -234 -49 -149 -41 -195 -55
-230 -66 -22 -7 -43 -9 -46 -6 -5 7 -12 31 -54 207 -25 106 -79 269 -116 353
-10 23 -19 46 -19 51 0 8 92 71 163 113 108 62 243 106 327 107 25 0 68 -8 97
-17z m-1591 -264 c80 -62 414 -389 414 -406 0 -7 -25 -38 -79 -97 -15 -16 -60
-74 -100 -127 l-73 -97 -36 16 c-20 8 -50 21 -67 29 -31 14 -53 22 -185 69
-41 15 -79 31 -83 35 -8 7 15 113 53 245 9 33 25 89 35 125 10 36 28 92 40
125 13 33 26 70 30 83 8 28 15 28 51 0z m1007 -115 c24 -76 52 -165 60 -198 9
-33 25 -94 36 -137 12 -42 21 -89 21 -105 0 -26 -5 -30 -52 -45 -50 -16 -147
-53 -213 -83 -16 -7 -47 -20 -67 -28 l-36 -16 -58 77 c-32 42 -68 88 -80 102
-72 82 -114 135 -114 143 0 11 318 330 385 385 28 23 55 42 61 42 6 0 32 -62
57 -137z m-1968 -355 c4 -3 11 -39 17 -80 15 -112 71 -354 104 -453 7 -22 14
-53 16 -69 3 -29 1 -30 -72 -48 -197 -50 -375 -106 -493 -156 -38 -16 -38 -16
-62 14 -13 16 -24 34 -25 40 0 5 -8 19 -18 30 -21 22 -92 166 -118 239 -24 68
-25 234 -1 288 51 117 192 188 402 206 86 6 239 0 250 -11z m3195 -5 c147 -28
241 -86 292 -184 20 -38 23 -58 22 -144 0 -88 -4 -110 -32 -183 -46 -118 -159
-305 -180 -299 -10 3 -48 17 -87 32 -139 52 -234 80 -438 131 -39 10 -71 24
-75 32 -3 8 3 36 12 61 29 77 88 323 107 446 19 127 16 124 101 127 106 4 182
-1 278 -19z m-1714 -55 c32 -40 63 -78 69 -84 26 -30 72 -88 88 -114 l17 -28
-37 -15 c-21 -8 -73 -31 -115 -51 -42 -20 -81 -36 -86 -36 -5 0 -60 24 -121
53 l-112 54 47 64 c26 35 54 72 63 81 9 9 21 23 26 30 25 31 98 118 100 118 2
0 29 -33 61 -72z m-1206 21 c93 -22 178 -45 313 -85 79 -24 88 -29 84 -48 -11
-52 -38 -209 -49 -291 l-13 -89 -115 -18 c-63 -10 -153 -25 -198 -34 -46 -8
-85 -14 -86 -12 -8 13 -70 230 -95 333 -20 81 -51 243 -51 264 0 16 95 6 210
-20z m2500 19 c0 -21 -41 -222 -60 -293 -42 -156 -84 -296 -91 -300 -4 -3 -42
2 -85 10 -44 9 -131 23 -194 33 l-114 17 -18 110 c-24 152 -37 235 -44 266 -6
25 -3 27 78 51 311 95 528 138 528 106z m-1899 -204 c63 -25 127 -52 143 -60
16 -8 35 -14 43 -14 7 0 13 -5 13 -11 0 -10 -77 -128 -90 -139 -3 -3 -16 -22
-29 -42 -19 -33 -28 -38 -59 -38 -19 0 -75 -5 -124 -11 -49 -7 -91 -9 -95 -6
-3 4 2 48 10 99 9 51 19 116 22 143 10 77 24 125 39 125 7 0 64 -21 127 -46z
m1232 32 c3 -7 8 -35 12 -62 3 -27 15 -102 27 -167 11 -65 18 -121 14 -124 -3
-3 -45 -1 -94 6 -49 6 -105 11 -125 11 -26 0 -39 6 -47 19 -5 11 -16 25 -22
33 -7 7 -37 48 -66 91 l-53 77 28 11 c15 6 41 16 58 24 75 34 232 93 246 94 9
1 19 -5 22 -13z m-859 -191 c47 -22 86 -42 86 -45 0 -3 -30 -22 -67 -42 -60
-32 -78 -36 -161 -41 -87 -4 -92 -3 -77 13 8 9 15 22 15 28 0 7 3 12 8 12 4 0
25 27 46 61 21 33 44 59 51 57 7 -2 51 -21 99 -43z m476 7 c13 -20 41 -60 62
-88 l37 -51 -96 5 c-87 4 -102 8 -159 41 -35 20 -64 38 -64 41 0 6 171 88 185
89 6 1 21 -16 35 -37z m-259 -112 l44 -20 -90 0 -90 1 40 18 c51 24 45 24 96
1z m-436 -111 c-16 -11 -39 -24 -50 -29 -11 -6 -31 -18 -45 -27 -22 -16 -21
-12 9 30 31 43 38 47 75 47 l41 0 -30 -21z m630 12 c3 -5 58 -40 123 -76 214
-122 216 -123 247 -182 11 -21 23 -40 26 -43 3 -3 17 -25 29 -50 12 -25 25
-47 29 -50 3 -3 17 -27 30 -55 14 -27 33 -62 43 -77 16 -23 18 -51 18 -250 l0
-223 -30 -55 c-16 -30 -36 -66 -42 -80 -39 -77 -134 -223 -157 -240 -14 -11
-31 -24 -38 -30 -7 -5 -15 -10 -18 -10 -3 0 -35 -18 -71 -40 -36 -22 -67 -40
-69 -40 -2 0 -34 -19 -71 -42 l-69 -43 -211 -3 c-207 -3 -212 -3 -257 21 -25
14 -59 34 -75 46 -17 11 -33 21 -36 21 -4 0 -36 18 -72 40 -36 22 -69 40 -74
40 -23 0 -104 98 -154 185 -31 55 -61 107 -66 115 -5 8 -23 42 -40 74 l-30 59
0 203 0 204 31 57 c18 32 42 76 55 98 12 22 34 61 48 86 73 135 93 153 305
270 61 34 114 65 117 70 7 12 471 12 479 0z m200 1 c19 -12 57 -72 47 -72 -5
0 -15 7 -22 15 -7 8 -16 15 -20 15 -4 0 -28 11 -51 25 l-44 25 40 0 c22 0 45
-4 50 -8z m-975 -7 c0 -11 -65 -112 -89 -138 -14 -16 -46 -41 -71 -55 -25 -15
-51 -32 -59 -40 -7 -7 -15 -12 -16 -10 -4 5 17 212 22 218 3 3 48 10 101 16
53 7 100 12 105 13 4 0 7 -1 7 -4z m1187 -11 c46 -3 87 -12 92 -18 7 -9 33
-207 27 -213 -2 -3 -140 89 -151 101 -14 15 -85 132 -85 141 0 3 8 4 18 1 9
-3 54 -8 99 -12z m-1481 -146 c-8 -136 -5 -128 -91 -188 -27 -19 -52 -37 -55
-40 -9 -9 -69 -50 -73 -50 -2 0 -16 28 -31 63 -15 34 -31 71 -36 82 -11 24
-36 92 -56 154 -16 52 -10 60 46 61 19 1 73 9 120 19 47 11 107 19 134 20 l49
1 -7 -122z m1826 102 c57 -11 117 -20 133 -20 55 0 59 -10 30 -86 -15 -38 -29
-78 -32 -89 -2 -11 -13 -38 -23 -60 -9 -22 -26 -59 -35 -82 -10 -24 -20 -43
-22 -43 -4 0 -86 57 -159 111 l-51 37 -6 79 c-4 43 -9 99 -13 126 l-7 47 41 0
c23 0 88 -9 144 -20z m-2239 -67 c9 -30 79 -219 116 -310 l21 -52 -34 -23
c-18 -13 -55 -42 -82 -64 -205 -173 -195 -166 -218 -147 -94 79 -284 279 -403
423 -10 14 -4 19 50 39 142 53 224 79 382 120 134 34 161 37 168 14z m2646
-15 c30 -10 62 -18 71 -18 15 0 277 -84 347 -111 l31 -13 -61 -75 c-66 -81
-311 -334 -353 -364 l-25 -19 -62 54 c-34 30 -82 69 -106 88 -25 19 -54 44
-66 55 -11 11 -34 29 -49 40 l-28 20 17 40 c30 69 84 215 120 323 6 16 88 7
164 -20z m-2126 -175 c-10 -15 -28 -45 -38 -66 l-20 -38 -3 37 c-3 33 1 42 35
70 44 37 53 36 26 -3z m1475 -1 c27 -20 32 -31 32 -65 l0 -40 -25 37 c-14 20
-25 41 -25 45 0 5 -10 21 -22 37 -24 30 -14 26 40 -14z m-2553 -122 c33 -40
120 -135 193 -209 72 -74 132 -136 132 -138 0 -2 -64 -68 -142 -147 -79 -79
-174 -184 -213 -234 -38 -50 -75 -91 -80 -92 -9 0 -76 33 -150 74 -94 52 -255
192 -255 222 0 7 -4 14 -10 16 -17 5 -50 110 -50 158 0 161 137 314 395 445
l70 35 25 -27 c14 -16 52 -62 85 -103z m3800 86 c241 -128 375 -282 375 -431
0 -46 -25 -131 -46 -156 -8 -8 -14 -20 -14 -26 0 -15 -136 -142 -190 -178 -60
-41 -209 -117 -219 -113 -4 2 -46 50 -92 108 -46 58 -143 163 -215 234 l-131
129 136 136 c75 75 165 172 199 216 104 131 99 126 124 116 13 -5 46 -21 73
-35z m-2855 -128 c-7 -82 -13 -106 -41 -157 -19 -34 -36 -61 -39 -61 -5 0 -44
81 -76 156 -7 16 -10 34 -6 40 11 16 163 124 169 120 1 -1 -2 -45 -7 -98z
m1874 -25 c4 -11 -13 -52 -67 -159 l-20 -41 -37 71 c-33 63 -38 81 -42 163
l-5 92 83 -57 c46 -31 85 -62 88 -69z m-2025 -204 c17 -36 31 -71 31 -77 0 -9
-97 -221 -106 -231 -3 -4 -113 80 -152 116 -15 14 -51 44 -79 65 -29 22 -53
45 -53 50 0 12 12 23 88 82 34 27 62 53 62 57 0 5 7 9 15 9 7 0 18 6 22 13 4
8 28 28 53 46 l45 32 22 -48 c12 -26 36 -78 52 -114z m2196 75 c50 -40 110
-90 134 -112 l44 -39 -29 -26 c-69 -61 -250 -207 -256 -207 -4 0 -17 21 -29
48 -11 26 -35 78 -53 116 -29 61 -31 73 -20 95 6 14 24 53 39 86 46 102 59
124 69 118 6 -4 52 -39 101 -79z m-313 -188 l-21 -41 0 80 0 80 21 -39 20 -39
-20 -41z m-1742 37 l-1 -58 -15 28 c-13 24 -13 34 -4 58 7 16 14 29 16 29 2 0
4 -26 4 -57z m-465 -118 c33 -27 62 -53 65 -56 3 -4 37 -30 75 -59 39 -29 73
-57 76 -63 6 -9 -4 -42 -35 -112 -8 -16 -23 -55 -34 -85 -67 -184 -65 -180
-93 -180 -15 0 -55 9 -90 19 -35 10 -81 22 -102 26 -41 7 -278 83 -340 110
l-38 16 18 29 c36 57 169 204 286 316 103 99 122 113 136 102 9 -7 43 -35 76
-63z m2893 -62 c145 -145 233 -242 264 -292 l19 -30 -36 -15 c-78 -33 -340
-116 -365 -116 -8 0 -44 -9 -78 -20 -80 -25 -121 -26 -128 -2 -23 69 -105 284
-114 297 -4 6 -10 22 -14 37 -5 24 -1 31 39 58 25 17 55 41 68 53 12 12 49 43
82 69 33 25 71 58 85 72 14 13 28 25 33 25 4 1 69 -61 145 -136z m-588 13 c0
-6 8 -24 18 -41 34 -55 33 -73 -2 -94 -17 -11 -44 -31 -59 -43 -15 -13 -40
-31 -56 -41 l-29 -17 5 88 c3 75 9 97 41 162 l37 76 23 -39 c12 -22 22 -44 22
-51z m-1872 20 c33 -64 37 -80 46 -194 7 -73 11 -74 -99 8 -76 56 -76 57 -44
130 11 25 28 62 37 82 9 21 19 38 22 38 3 0 20 -29 38 -64z m-115 -218 c18
-13 34 -26 37 -29 3 -3 28 -21 55 -39 86 -59 83 -52 91 -193 5 -90 4 -127 -4
-127 -6 0 -57 9 -114 19 -57 11 -127 22 -156 25 -73 9 -84 14 -77 40 22 76
123 326 132 326 2 0 18 -10 36 -22z m2082 -20 c10 -24 24 -58 32 -77 8 -18 19
-45 23 -60 5 -14 20 -57 34 -96 30 -80 29 -81 -54 -91 -30 -3 -106 -15 -168
-26 -63 -10 -116 -17 -119 -15 -4 5 15 228 23 254 1 6 29 30 61 52 32 22 76
54 98 70 22 16 43 30 46 30 3 1 14 -18 24 -41z m-308 -73 c-59 -49 -67 -55
-67 -50 0 3 8 17 17 31 29 44 53 88 61 109 5 15 8 8 10 -25 3 -38 -1 -48 -21
-65z m-1486 0 c34 -62 31 -62 -33 -6 -21 18 -28 33 -28 60 0 30 2 33 14 21 7
-8 28 -42 47 -75z m56 -146 c40 -28 85 -84 119 -150 15 -29 14 -30 -3 -25 -10
2 -59 8 -109 12 l-92 6 -6 92 c-4 50 -10 99 -12 109 -6 18 -4 18 28 1 18 -9
52 -30 75 -45z m1431 -29 c-14 -138 -3 -126 -120 -137 -57 -5 -104 -9 -105 -8
-2 1 14 30 36 66 37 62 102 122 166 153 16 8 30 14 31 13 1 -1 -3 -40 -8 -87z
m-2615 68 c25 -13 138 -55 182 -68 17 -4 50 -15 75 -24 25 -8 81 -24 125 -35
207 -52 190 -45 187 -77 -1 -16 -9 -49 -17 -74 -34 -108 -91 -354 -104 -449
-5 -40 -14 -78 -18 -82 -14 -14 -269 -11 -354 5 -137 24 -245 91 -292 180 -31
60 -30 226 2 311 44 116 162 325 184 325 5 0 18 -5 30 -12z m3747 3 c0 -5 6
-16 14 -24 26 -26 113 -185 146 -269 31 -75 34 -93 34 -188 1 -97 -1 -109 -26
-151 -54 -91 -149 -149 -288 -175 -81 -16 -338 -20 -351 -7 -5 5 -16 49 -24
98 -28 157 -75 359 -102 435 -9 25 -17 58 -17 74 -1 32 -20 24 189 78 128 32
285 84 360 118 45 21 65 24 65 11z m-1417 -178 c-36 -49 -42 -53 -83 -53 l-35
0 25 20 c14 11 29 20 33 20 4 0 25 11 45 25 20 14 38 25 40 25 2 0 -10 -17
-25 -37z m-933 7 c14 -11 30 -20 35 -20 6 0 21 -9 35 -20 l25 -20 -42 0 c-41
0 -53 9 -87 68 -11 18 5 14 34 -8z m-645 -39 c55 -11 143 -26 195 -33 l94 -14
13 -89 c13 -92 40 -253 49 -291 6 -23 -1 -27 -121 -62 -204 -59 -343 -92 -429
-100 l-59 -5 7 34 c4 19 13 70 21 114 22 127 113 465 125 465 3 0 50 -9 105
-19z m2342 -96 c50 -170 113 -442 113 -485 0 -30 -192 7 -485 92 -124 36 -127
38 -121 67 7 31 21 115 44 266 l18 110 94 13 c52 7 136 21 185 32 50 10 97 17
105 16 10 -1 26 -39 47 -111z m-1735 19 c7 -2 26 -27 43 -54 16 -28 33 -50 37
-50 4 0 8 -6 8 -14 0 -8 4 -16 8 -18 11 -5 52 -64 52 -76 0 -6 -22 -18 -50
-27 -27 -9 -52 -21 -55 -26 -4 -5 -13 -9 -21 -9 -8 0 -33 -8 -57 -18 -112 -49
-151 -62 -158 -51 -3 6 -12 43 -18 83 -6 39 -17 114 -26 167 -8 53 -15 100
-15 104 0 8 230 -2 252 -11z m1234 -21 c-4 -21 -14 -78 -22 -128 -30 -175 -34
-198 -37 -202 -3 -3 -76 25 -154 59 -24 10 -46 18 -50 18 -16 0 -133 55 -133
62 0 10 43 78 87 136 18 24 37 50 42 60 10 18 73 28 200 31 l73 1 -6 -37z
m-898 -31 c40 -20 71 -40 69 -45 -2 -8 -172 -87 -187 -87 -6 0 -33 36 -107
145 l-22 33 87 -5 c75 -4 97 -10 160 -41z m532 6 c-17 -24 -45 -64 -63 -90
-17 -27 -36 -48 -40 -48 -5 0 -39 14 -75 31 -37 17 -77 35 -89 40 -13 5 -23
12 -23 16 0 5 28 24 63 43 51 28 77 35 142 41 44 3 88 7 97 7 14 2 12 -6 -12
-40z m-290 28 c0 -2 -20 -11 -43 -20 -42 -16 -46 -16 -88 3 l-44 20 88 0 c48
1 87 -1 87 -3z m20 -164 c41 -19 88 -40 103 -47 l28 -12 -59 -79 c-33 -43 -69
-88 -79 -99 -10 -11 -36 -42 -58 -69 l-39 -48 -44 48 c-55 62 -195 244 -191
248 2 2 38 18 79 36 41 18 80 37 87 42 17 14 66 26 83 20 8 -3 49 -21 90 -40z
m-321 -192 c36 -47 89 -113 119 -147 l54 -63 -50 -57 c-112 -130 -375 -373
-402 -373 -5 0 -12 10 -15 23 -4 12 -17 49 -29 82 -35 93 -55 164 -116 403
-12 46 -19 86 -17 88 5 5 124 50 167 64 24 7 79 30 165 70 31 14 42 15 50 6 6
-6 39 -50 74 -96z m631 55 c14 -7 45 -20 70 -29 156 -54 175 -64 178 -86 2
-13 -5 -57 -16 -99 -11 -42 -28 -107 -38 -146 -9 -38 -32 -115 -51 -170 -19
-55 -39 -115 -44 -132 -6 -18 -15 -33 -21 -33 -28 0 -352 304 -428 403 l-22
28 35 42 c19 23 45 53 57 67 12 14 54 66 92 117 l70 92 46 -21 c26 -11 58 -26
72 -33z m-1137 -167 c17 -65 46 -181 58 -228 15 -65 37 -135 69 -220 50 -132
50 -133 -7 -166 -26 -15 -50 -31 -53 -35 -10 -12 -116 -67 -180 -92 -104 -41
-186 -53 -269 -37 -59 11 -78 20 -121 58 -65 57 -97 117 -130 241 -11 41 -17
367 -7 377 2 2 44 11 93 19 171 30 367 78 469 115 28 10 53 19 57 19 4 1 13
-23 21 -51z m1572 15 c106 -32 314 -81 395 -93 47 -7 92 -16 101 -21 23 -12
29 -151 14 -299 -30 -288 -165 -419 -394 -381 -114 19 -194 54 -339 148 -66
42 -82 57 -77 71 49 121 108 299 130 397 10 44 27 110 37 147 l19 66 32 -10
c18 -6 55 -17 82 -25z m-690 -333 c77 -78 181 -174 253 -230 28 -23 52 -46 52
-52 0 -5 -16 -41 -35 -79 -181 -360 -407 -478 -617 -321 -61 46 -89 75 -146
153 -46 63 -132 226 -132 249 0 8 28 35 62 59 33 25 138 122 232 217 l171 172
48 -51 c27 -29 77 -81 112 -117z"/>
<path d="M2390 3055 c0 -57 87 -96 134 -60 16 12 21 12 40 0 33 -24 74 -18
107 14 16 16 29 36 29 45 0 25 -21 29 -41 7 -21 -22 -83 -29 -94 -11 -3 6 -15
10 -26 10 -10 0 -19 -4 -19 -10 0 -19 -76 -11 -95 10 -24 27 -35 25 -35 -5z"/>
<path d="M2501 2955 l-34 -34 7 -253 c3 -139 9 -305 12 -368 l6 -115 -52 50
c-78 76 -139 172 -165 264 -29 106 -12 269 39 373 18 35 21 58 7 58 -19 0 -84
-102 -113 -178 -28 -70 -31 -89 -32 -197 l-1 -121 44 -88 c36 -70 59 -101 119
-157 41 -38 78 -69 83 -69 5 0 9 -4 9 -8 0 -10 -90 -32 -131 -32 -32 0 -39
-14 -12 -24 34 -13 129 -18 165 -8 34 9 38 8 64 -21 l27 -30 20 27 c19 26 21
27 96 21 80 -6 142 3 148 21 2 7 -19 14 -51 18 -30 3 -67 11 -82 16 l-28 11
30 18 c41 25 125 109 156 156 62 93 72 130 72 270 0 117 -3 137 -27 198 -38
97 -106 191 -124 173 -4 -4 3 -26 15 -49 37 -71 65 -202 59 -277 -6 -67 -39
-183 -58 -207 -7 -7 -19 -26 -28 -43 -20 -37 -121 -150 -134 -150 -6 0 -8 62
-3 168 3 92 9 253 13 358 l6 191 -37 36 c-20 20 -40 37 -44 37 -4 0 -22 -16
-41 -35z"/>
<path d="M2207 2928 c-71 -35 -156 -116 -187 -178 -79 -154 -63 -319 44 -465
37 -50 56 -69 84 -84 29 -15 28 -10 -9 68 -54 113 -73 253 -48 359 14 62 84
202 121 244 17 18 39 43 50 54 30 34 8 35 -55 2z"/>
<path d="M2810 2949 c0 -7 8 -19 18 -28 18 -17 63 -75 97 -126 98 -146 104
-361 15 -538 -16 -33 -28 -62 -26 -64 18 -18 113 84 149 160 56 119 66 189 42
289 -30 120 -112 225 -227 287 -62 34 -68 36 -68 20z"/>
</g>
</svg>
