<?xml version="1.0" standalone="no"?>
<!DOCTYPE svg PUBLIC "-//W3C//DTD SVG 20010904//EN"
 "http://www.w3.org/TR/2001/REC-SVG-20010904/DTD/svg10.dtd">
<svg version="1.0" xmlns="http://www.w3.org/2000/svg"
 width="688.000000pt" height="688.000000pt" viewBox="0 0 688.000000 688.000000"
 preserveAspectRatio="xMidYMid meet">
<metadata>
Created by potrace 1.14, written by Peter Selinger 2001-2017
</metadata>
<g transform="translate(0.000000,688.000000) scale(0.100000,-0.100000)"
fill="#000000" stroke="none">
<path d="M2418 6644 c-2 -2 -40 -6 -85 -8 -44 -3 -94 -8 -109 -10 -16 -3 -51
-8 -79 -12 -27 -3 -57 -7 -65 -8 -178 -27 -323 -101 -391 -199 -32 -46 -62
-113 -64 -142 -1 -5 -4 -19 -8 -30 -8 -26 -20 -128 -21 -183 -1 -34 -5 -44
-21 -47 -64 -15 -223 -48 -240 -51 -109 -17 -542 -156 -639 -205 -137 -70
-223 -143 -270 -230 -30 -54 -31 -58 -51 -174 -13 -77 -14 -417 -1 -505 2 -19
7 -60 11 -90 3 -30 8 -71 10 -90 2 -19 7 -57 11 -85 8 -65 39 -229 53 -280 7
-22 13 -47 16 -55 2 -8 14 -49 25 -90 12 -41 23 -79 24 -85 4 -16 54 -181 88
-285 56 -173 190 -540 247 -675 172 -408 320 -717 451 -946 44 -77 80 -144 80
-149 0 -6 5 -10 10 -10 6 0 10 -7 10 -15 0 -8 5 -15 10 -15 6 0 10 -4 10 -9 0
-8 56 -100 77 -126 5 -5 27 -40 51 -76 23 -36 67 -99 97 -140 30 -41 63 -85
73 -98 49 -70 305 -382 397 -486 30 -33 63 -71 75 -85 125 -145 493 -514 624
-625 26 -22 64 -55 84 -72 20 -18 40 -33 44 -33 4 0 13 -6 20 -13 46 -46 223
-143 308 -169 96 -30 123 -35 205 -33 71 1 89 5 160 39 44 22 83 44 87 50 4 6
8 8 8 4 0 -5 39 20 88 54 135 95 242 185 416 349 45 41 98 91 119 110 136 121
365 365 492 523 17 21 39 48 50 60 11 13 29 36 40 52 11 15 27 35 35 44 8 8
40 49 70 90 30 41 57 77 60 80 4 3 28 37 55 75 27 39 55 77 63 85 15 17 277
392 283 406 2 5 38 61 80 124 42 63 84 131 95 150 10 19 21 37 24 40 6 6 50
86 65 117 5 13 13 23 18 23 4 0 7 9 7 19 0 11 4 21 8 23 5 2 45 80 91 173 45
94 89 182 97 197 8 15 15 30 15 33 0 2 9 26 20 52 65 150 182 470 209 568 5
17 18 62 30 100 11 39 23 77 25 85 2 8 18 71 35 140 44 177 59 240 65 280 4
19 10 53 15 75 17 78 58 334 66 420 2 22 6 56 8 75 6 46 18 172 22 235 9 119
14 455 7 455 -4 0 -23 -67 -41 -148 -39 -176 -37 -166 -52 -222 -7 -25 -13
-49 -14 -55 -2 -5 -8 -30 -15 -55 -8 -25 -14 -50 -15 -57 -1 -7 -5 -16 -9 -19
-4 -4 -7 -14 -7 -23 0 -29 -180 -574 -220 -666 -5 -11 -23 -56 -40 -100 -17
-44 -37 -93 -45 -110 -8 -16 -28 -64 -45 -105 -57 -133 -112 -251 -201 -425
-87 -172 -97 -189 -171 -318 -22 -40 -53 -92 -67 -117 -14 -25 -29 -49 -33
-55 -5 -5 -38 -57 -75 -115 -38 -58 -71 -109 -76 -115 -8 -10 -72 -98 -105
-145 -25 -36 -210 -269 -246 -311 -17 -20 -53 -62 -81 -94 -211 -247 -520
-555 -745 -743 -14 -11 -36 -31 -50 -42 -14 -12 -52 -43 -85 -68 -33 -25 -62
-49 -65 -52 -7 -8 -144 -109 -205 -151 -27 -19 -52 -36 -55 -39 -11 -12 -124
-84 -150 -96 -8 -4 -17 -10 -20 -14 -6 -7 -131 -80 -178 -104 -27 -14 -35 -14
-46 -4 -8 7 -40 35 -73 63 -62 52 -361 349 -428 425 -63 71 -160 183 -181 209
-10 13 -24 28 -29 35 -15 15 -174 214 -205 256 -14 18 -43 56 -65 85 -22 29
-58 79 -80 110 -22 32 -44 63 -50 69 -5 7 -14 19 -20 28 -5 9 -47 71 -92 137
-46 66 -83 125 -83 131 0 5 -3 10 -7 10 -5 0 -13 10 -19 23 -6 12 -35 63 -64
112 -49 83 -190 358 -238 465 -11 25 -38 83 -60 130 -166 359 -294 697 -361
953 -11 43 -22 81 -25 86 -3 4 -8 23 -11 42 -3 19 -8 42 -11 51 -6 21 -7 27
-43 198 -27 132 -62 348 -75 475 -17 155 -17 155 -2 155 7 0 27 7 42 15 16 8
36 15 45 15 8 0 19 4 25 8 5 5 38 17 74 26 36 10 72 21 80 24 8 3 20 6 25 8 6
2 35 10 65 19 84 26 104 25 106 -5 5 -60 16 -157 20 -180 3 -14 7 -43 9 -65 8
-67 13 -99 19 -125 10 -42 17 -84 21 -115 1 -16 4 -30 5 -30 1 0 3 -11 5 -25
2 -14 9 -47 15 -75 6 -27 14 -68 17 -90 3 -22 9 -47 13 -55 4 -8 11 -35 15
-60 4 -25 13 -63 20 -85 7 -22 22 -78 35 -125 22 -85 32 -118 46 -155 4 -11 9
-31 11 -45 2 -13 8 -30 14 -36 5 -6 10 -23 11 -38 1 -14 6 -26 11 -26 4 0 6
-4 2 -9 -3 -5 -1 -12 5 -16 5 -3 10 -16 10 -28 0 -12 6 -33 13 -47 7 -14 19
-45 27 -70 8 -25 20 -56 27 -70 7 -14 13 -31 13 -37 0 -7 12 -38 26 -70 67
-148 74 -169 61 -183 -9 -8 -8 -10 4 -5 12 5 21 -5 35 -37 10 -24 18 -47 19
-53 0 -5 3 -12 6 -15 3 -3 19 -32 35 -65 16 -33 31 -62 34 -65 3 -3 16 -27 29
-55 14 -27 30 -57 37 -65 7 -8 13 -18 13 -23 0 -4 16 -35 36 -68 20 -34 37
-67 38 -73 1 -6 9 -16 17 -23 13 -10 12 -14 -5 -35 l-20 -23 21 18 c21 18 22
18 35 -12 8 -17 17 -31 21 -31 5 0 8 -7 8 -15 0 -8 3 -15 8 -15 11 0 32 -52
25 -63 -3 -6 -2 -7 4 -4 8 5 43 -25 43 -39 0 -3 11 -21 25 -41 13 -20 22 -40
19 -45 -3 -5 0 -7 8 -6 7 2 12 -5 12 -14 -1 -10 2 -15 7 -13 4 3 22 -16 40
-42 18 -27 36 -49 41 -51 4 -2 8 -10 8 -18 0 -8 5 -14 10 -14 6 0 10 -6 10
-13 0 -7 9 -18 20 -25 11 -7 20 -17 20 -22 0 -9 26 -43 58 -76 7 -8 10 -18 7
-24 -4 -6 -1 -9 7 -8 7 2 12 -4 10 -12 -2 -8 0 -12 4 -8 10 11 45 -32 37 -46
-3 -6 -3 -8 2 -4 4 4 16 -2 27 -15 95 -112 131 -152 284 -307 56 -58 117 -116
133 -130 17 -14 31 -30 31 -37 0 -7 4 -12 8 -10 5 1 34 -20 65 -47 31 -27 74
-62 96 -77 l39 -29 53 40 c29 21 57 36 62 33 6 -3 7 -1 4 4 -4 6 6 19 21 29
15 9 32 25 39 33 7 9 13 13 13 9 0 -3 13 6 28 20 16 15 51 45 77 67 27 22 59
49 71 60 41 37 64 55 69 55 3 0 19 16 36 35 17 19 37 35 43 35 7 0 19 11 26
25 7 14 15 23 18 20 2 -2 19 12 37 31 22 23 35 31 38 22 4 -8 6 -7 6 5 1 15
41 66 41 51 0 -3 12 8 26 25 14 17 30 28 35 25 5 -3 8 -1 7 3 -4 13 144 163
154 157 5 -3 8 -2 7 3 -3 19 2 34 10 28 5 -3 12 4 16 15 6 20 20 26 28 13 2
-5 2 -2 0 5 -1 8 17 34 42 59 25 24 45 49 45 54 0 5 7 9 15 9 8 0 15 6 15 14
0 8 8 21 18 28 9 7 39 40 67 73 27 33 58 69 68 80 11 11 26 30 34 42 8 13 20
20 26 16 6 -3 7 -1 3 5 -4 7 3 22 15 34 11 13 28 33 37 46 9 14 21 21 30 17
11 -4 12 -2 4 8 -9 10 -4 21 21 48 17 19 38 47 45 62 7 17 17 25 24 21 6 -4 8
-3 5 3 -3 5 7 24 23 41 16 18 27 32 24 32 -6 0 47 72 61 82 5 4 7 8 2 8 -11 0
44 80 55 80 5 0 7 4 4 8 -3 5 4 19 15 30 11 12 17 22 14 22 -3 0 5 15 19 33
15 19 26 39 26 44 0 6 7 14 16 17 8 3 13 10 9 16 -3 5 2 18 12 28 10 10 19 25
21 32 2 8 12 26 23 41 10 15 19 32 19 37 0 6 6 17 13 24 6 7 23 36 36 65 13
29 28 50 33 47 5 -3 7 -2 6 3 -4 13 24 83 34 83 4 0 8 9 8 20 0 11 5 20 11 20
5 0 8 4 5 9 -3 5 1 14 9 21 8 7 12 16 9 21 -3 5 0 9 6 9 6 0 9 4 6 8 -3 5 5
26 17 48 13 21 31 60 41 87 10 26 22 47 27 47 5 0 8 3 7 8 -3 13 14 62 21 62
4 0 8 6 8 13 0 6 21 62 47 122 26 61 49 119 52 129 2 11 8 24 14 30 5 5 10 18
10 28 0 10 4 18 10 18 5 0 7 7 4 15 -4 8 -2 15 3 15 5 0 9 9 10 20 1 10 9 35
18 54 9 19 18 41 19 50 1 8 5 19 9 22 4 4 7 16 7 26 0 10 5 18 12 18 6 0 9 3
5 6 -5 5 34 129 60 194 8 18 7 17 17 58 4 18 12 30 17 27 5 -4 6 1 3 10 -4 8
-2 28 4 43 6 15 20 61 33 102 12 41 27 81 33 89 9 12 8 13 -4 6 -13 -8 -13 -6
-2 7 20 25 45 171 47 273 2 97 -23 215 -52 248 -9 9 -13 17 -10 17 18 0 -133
156 -173 178 -75 44 -102 56 -180 83 -110 37 -252 67 -385 83 -16 2 -52 7 -80
10 -27 4 -84 9 -125 11 -71 4 -112 9 -170 20 -14 2 -50 7 -80 10 -30 3 -66 7
-80 9 -14 3 -52 7 -85 11 -33 3 -73 8 -90 10 -16 2 -57 7 -89 10 -33 3 -73 8
-90 10 -29 4 -103 10 -241 20 -33 3 -82 7 -110 10 -27 3 -93 8 -145 11 -52 3
-129 7 -170 10 -41 2 -214 7 -385 10 -170 3 -312 7 -314 10 -3 2 -6 14 -8 26
-2 12 -10 35 -18 51 -8 17 -15 35 -15 41 0 18 -84 152 -118 190 -38 42 -136
94 -212 111 -7 2 -102 17 -120 19 -8 1 -20 5 -25 8 -6 4 -17 3 -24 -2 -8 -4
-26 -4 -42 0 -15 5 -29 6 -31 4z m1000 -1204 c20 0 41 0 55 -1 6 0 23 0 37 1
36 2 428 -9 535 -15 50 -3 131 -7 180 -10 103 -6 178 -11 250 -19 28 -3 75 -8
105 -11 30 -3 69 -8 85 -10 17 -3 46 -7 65 -10 19 -2 46 -7 60 -9 14 -3 41 -7
60 -10 19 -3 46 -8 60 -11 14 -2 41 -7 60 -9 19 -3 46 -8 60 -11 14 -3 37 -7
52 -10 15 -2 38 -7 50 -11 13 -4 32 -7 43 -8 23 -1 27 -29 12 -85 -5 -18 -11
-42 -13 -52 -9 -41 -13 -56 -28 -119 -9 -36 -21 -76 -25 -90 -5 -14 -17 -50
-26 -80 -9 -30 -19 -62 -22 -70 -3 -8 -7 -20 -8 -26 -4 -18 -66 -185 -81 -219
-7 -16 -23 -55 -34 -85 -12 -30 -25 -59 -30 -65 -4 -5 -13 -27 -19 -47 -7 -21
-17 -38 -22 -38 -5 0 -8 -3 -7 -7 3 -15 -44 -114 -122 -258 -15 -27 -40 -74
-56 -102 -15 -29 -32 -53 -37 -53 -4 0 -6 -4 -3 -8 3 -5 -3 -18 -12 -28 -10
-10 -19 -22 -20 -27 -3 -16 -33 -66 -72 -125 -22 -34 -40 -64 -40 -67 0 -6
-11 -20 -37 -50 -7 -7 -13 -16 -13 -19 0 -7 -69 -114 -85 -133 -5 -6 -37 -50
-69 -97 -33 -47 -64 -86 -68 -86 -4 0 -8 -6 -8 -14 0 -8 -3 -16 -7 -18 -5 -1
-21 -21 -38 -43 -98 -131 -213 -257 -227 -249 -7 5 -8 2 -4 -5 13 -20 -250
-268 -281 -264 -8 0 -12 -2 -9 -5 8 -7 -24 -42 -37 -42 -6 0 -19 -8 -29 -17
-18 -16 -21 -14 -59 28 -23 24 -53 60 -67 79 -15 19 -32 40 -38 45 -29 27
-113 143 -107 149 3 3 2 6 -4 6 -18 0 -237 313 -226 324 4 3 2 6 -4 6 -9 0
-51 66 -124 195 -61 109 -201 399 -205 425 0 3 -5 16 -11 30 -10 21 -21 51
-28 70 -1 3 -5 12 -8 20 -21 48 -74 219 -69 224 3 3 1 6 -5 6 -6 0 -14 17 -19
38 -8 38 -10 46 -14 60 -1 4 -2 11 -1 16 1 4 -3 14 -10 22 -6 7 -8 18 -4 24 3
5 1 10 -6 10 -7 0 -10 3 -7 6 4 3 0 20 -7 39 -8 18 -11 35 -8 38 3 4 1 13 -5
20 -7 8 -14 29 -16 48 -3 19 -5 35 -5 37 -1 1 -1 5 -2 10 0 4 -5 13 -11 20 -6
6 -8 12 -5 12 3 0 0 19 -7 43 -7 23 -12 52 -11 65 1 12 -2 22 -6 22 -4 0 -9
19 -12 43 -2 23 -8 56 -11 72 -4 17 -9 44 -11 60 -2 17 -6 53 -10 80 -3 28 -8
66 -10 85 -2 19 -4 37 -5 40 -6 15 -4 36 5 42 6 5 6 8 -1 8 -6 0 -12 25 -13
58 -5 101 -7 122 -13 127 -22 23 33 68 61 50 6 -3 11 -3 11 2 0 4 17 8 38 9
20 0 82 4 137 8 156 11 266 16 453 20 96 3 175 6 177 8 2 2 27 2 57 0 29 -1
59 -3 66 -2z"/>
<path d="M4875 2691 c-3 -5 -2 -12 3 -15 5 -3 9 1 9 9 0 17 -3 19 -12 6z"/>
<path d="M4435 2080 c3 -5 8 -10 11 -10 2 0 4 5 4 10 0 6 -5 10 -11 10 -5 0
-7 -4 -4 -10z"/>
<path d="M3030 1856 c0 -2 8 -10 18 -17 15 -13 16 -12 3 4 -13 16 -21 21 -21
13z"/>
</g>
</svg>
