<svg xmlns="http://www.w3.org/2000/svg" xmlns:xlink="http://www.w3.org/1999/xlink" width="60" height="60" viewBox="0 0 60 60">
  <defs>
    <clipPath id="clip-path">
      <rect id="Rectangle_5965" data-name="Rectangle 5965" width="60" height="60" transform="translate(-13797 -6410)" fill="#fff" stroke="#707070" stroke-width="1"/>
    </clipPath>
  </defs>
  <g id="Mask_Group_44646" data-name="Mask Group 44646" transform="translate(13797 6410)" clip-path="url(#clip-path)">
    <g id="Group_46537" data-name="Group 46537" transform="translate(-13793.364 -6409.091)">
      <ellipse id="Ellipse_1283" data-name="Ellipse 1283" cx="24.091" cy="23.636" rx="24.091" ry="23.636" transform="translate(1.934 9.535)" fill="#f9e8d2"/>
      <g id="Group_46535" data-name="Group 46535" transform="translate(0 0)">
        <path id="Path_80481" data-name="Path 80481" d="M28.485,1015.72A25.985,25.985,0,1,1,54.47,989.735,26.008,26.008,0,0,1,28.485,1015.72Zm0-47.867a21.882,21.882,0,1,0,21.882,21.882A21.911,21.911,0,0,0,28.485,967.853Z" transform="translate(-2.5 -956.912)" fill="#e3d6b6"/>
        <path id="Path_80482" data-name="Path 80482" d="M13.3,985.029a2.066,2.066,0,0,1-2.051-2.052V969.3a2.051,2.051,0,0,1,4.1,0v13.676A2.066,2.066,0,0,1,13.3,985.029Z" transform="translate(12.684 -950.839)" fill="#e5c189"/>
        <path id="Path_80483" data-name="Path 80483" d="M26.713,965.353H10.3a2.052,2.052,0,0,1,0-4.1H26.713a2.052,2.052,0,0,1,0,4.1Z" transform="translate(7.478 -961.25)" fill="#e3d6b6"/>
      </g>
    </g>
  </g>
</svg>
