<svg xmlns="http://www.w3.org/2000/svg" xmlns:xlink="http://www.w3.org/1999/xlink" width="90" height="90" viewBox="0 0 90 90">
  <defs>
    <clipPath id="clip-path">
      <rect id="Rectangle_6141" data-name="Rectangle 6141" width="90" height="90" transform="translate(-5506 -14239)" fill="#fff" stroke="#707070" stroke-width="1"/>
    </clipPath>
    <linearGradient id="linear-gradient" x1="0.5" x2="0.5" y2="1" gradientUnits="objectBoundingBox">
      <stop offset="0" stop-color="#041e39"/>
      <stop offset="1" stop-color="#57687a"/>
    </linearGradient>
  </defs>
  <g id="Mask_Group_44740" data-name="Mask Group 44740" transform="translate(5506 14239)" clip-path="url(#clip-path)">
    <g id="_2526579_transportation_vehicle_icon" data-name="2526579_transportation_vehicle_icon" transform="translate(-5505.257 -14230.818)">
      <g id="Layer_3" transform="translate(0 0)">
        <g id="Group_47361" data-name="Group 47361">
          <path id="Path_94564" data-name="Path 94564" d="M50.26,49.314H77.312c14.132,0,15.989,8.963,16.15,10.417a4.136,4.136,0,0,1,4.118,4.118h0a4.136,4.136,0,0,1-4.118,4.118H21.27C9.238,67.967,9.4,57.954,9.4,49.314V42.692A1.275,1.275,0,0,1,10.692,41.4h3.069c.727,0,1.131.646,1.292,1.292l2.019,6.622Z" transform="translate(-9.4 -22.666)" fill="#bfdde7" fill-rule="evenodd"/>
          <path id="Path_94565" data-name="Path 94565" d="M106.818,55.4a11.585,11.585,0,0,1,3.553,4.684H102.7a2.138,2.138,0,0,1-2.1-2.1v-.646a1.965,1.965,0,0,1,1.938-1.938Z" transform="translate(-26.954 -25.36)" fill-rule="evenodd" fill="url(#linear-gradient)"/>
          <path id="Path_94566" data-name="Path 94566" d="M73.65,44.848,68.967,22.48c-.485-2.261-1.938-4.28-4.28-4.28H61.78a4.308,4.308,0,0,0-4.28,4.28V44.848H73.65Z" transform="translate(-18.658 -18.2)" fill="#7da6b8" fill-rule="evenodd"/>
          <path id="Path_94567" data-name="Path 94567" d="M26.4,55.4h.4a2.138,2.138,0,0,1,2.1,2.1v.4A2.138,2.138,0,0,1,26.8,60h-.4a2.138,2.138,0,0,1-2.1-2.1v-.4A2.036,2.036,0,0,1,26.4,55.4Z" transform="translate(-12.267 -25.36)" fill-rule="evenodd" fill="url(#linear-gradient)"/>
          <path id="Path_94568" data-name="Path 94568" d="M35.9,55.4h.4a2.138,2.138,0,0,1,2.1,2.1v.4A2.138,2.138,0,0,1,36.3,60h-.4a2.138,2.138,0,0,1-2.1-2.1v-.4A2.138,2.138,0,0,1,35.9,55.4Z" transform="translate(-14.097 -25.36)" fill-rule="evenodd" fill="url(#linear-gradient)"/>
          <path id="Path_94569" data-name="Path 94569" d="M45.4,55.4h.4a2.138,2.138,0,0,1,2.1,2.1v.4A2.138,2.138,0,0,1,45.8,60h-.4a2.138,2.138,0,0,1-2.1-2.1v-.4A2.138,2.138,0,0,1,45.4,55.4Z" transform="translate(-15.925 -25.36)" fill-rule="evenodd" fill="url(#linear-gradient)"/>
          <path id="Path_94570" data-name="Path 94570" d="M55,55.4h.4a2.138,2.138,0,0,1,2.1,2.1v.4A2.138,2.138,0,0,1,55.4,60H55a2.138,2.138,0,0,1-2.1-2.1v-.4A2.036,2.036,0,0,1,55,55.4Z" transform="translate(-17.772 -25.36)" fill-rule="evenodd" fill="url(#linear-gradient)"/>
          <path id="Path_94571" data-name="Path 94571" d="M64.5,55.4h.4A2.138,2.138,0,0,1,67,57.5v.4A2.138,2.138,0,0,1,64.9,60h-.4a2.138,2.138,0,0,1-2.1-2.1v-.4A2.036,2.036,0,0,1,64.5,55.4Z" transform="translate(-19.6 -25.36)" fill-rule="evenodd" fill="url(#linear-gradient)"/>
          <path id="Path_94572" data-name="Path 94572" d="M74,55.4h.4a2.138,2.138,0,0,1,2.1,2.1v.4A2.138,2.138,0,0,1,74.4,60H74a2.138,2.138,0,0,1-2.1-2.1v-.4A2.138,2.138,0,0,1,74,55.4Z" transform="translate(-21.43 -25.36)" fill-rule="evenodd" fill="url(#linear-gradient)"/>
          <path id="Path_94573" data-name="Path 94573" d="M83.5,55.4h.4A2.138,2.138,0,0,1,86,57.5v.4A2.138,2.138,0,0,1,83.9,60h-.4a2.138,2.138,0,0,1-2.1-2.1v-.4A2.138,2.138,0,0,1,83.5,55.4Z" transform="translate(-23.259 -25.36)" fill-rule="evenodd" fill="url(#linear-gradient)"/>
          <path id="Path_94574" data-name="Path 94574" d="M93.1,55.4h.4a2.138,2.138,0,0,1,2.1,2.1v.4A2.138,2.138,0,0,1,93.5,60h-.4A2.138,2.138,0,0,1,91,57.9v-.4A2.036,2.036,0,0,1,93.1,55.4Z" transform="translate(-25.105 -25.36)" fill-rule="evenodd" fill="url(#linear-gradient)"/>
          <path id="Path_94575" data-name="Path 94575" d="M61.8,64h8.963c2.342,0,4.764,1.938,4.28,4.28L69.066,96.7c-.484,2.261-1.938,4.28-4.28,4.28H61.879A4.308,4.308,0,0,1,57.6,96.7V68.28A4.188,4.188,0,0,1,61.8,64Z" transform="translate(-18.677 -27.016)" fill="#7da6b8" fill-rule="evenodd"/>
          <path id="Path_94576" data-name="Path 94576" d="M61.78,100.984V64a4.319,4.319,0,0,0-4.28,4.038V96.7A4.308,4.308,0,0,0,61.78,100.984Z" transform="translate(-18.658 -27.016)" fill="#175a76" fill-rule="evenodd"/>
          <path id="Path_94577" data-name="Path 94577" d="M21.848,73.28H48.819V69L12.4,69.081C14.1,71.665,17,73.28,21.848,73.28Z" transform="translate(-9.977 -27.978)" fill="#175a76" fill-rule="evenodd"/>
          <path id="Path_94578" data-name="Path 94578" d="M78.888,68.3,78,72.337h28.667a4.118,4.118,0,1,0,0-8.237l-3.876,3.876-23.9.081Z" transform="translate(-22.604 -27.035)" fill="#175a76" fill-rule="evenodd"/>
          <path id="Path_94579" data-name="Path 94579" d="M61.78,44.848V18.2a4.308,4.308,0,0,0-4.28,4.28V44.848h4.28Z" transform="translate(-18.658 -18.2)" fill="#175a76" fill-rule="evenodd"/>
        </g>
      </g>
    </g>
  </g>
</svg>
