<svg xmlns="http://www.w3.org/2000/svg" xmlns:xlink="http://www.w3.org/1999/xlink" width="30" height="30" viewBox="0 0 30 30">
  <defs>
    <clipPath id="clip-path">
      <rect id="Rectangle_4717" data-name="Rectangle 4717" width="30" height="30"/>
    </clipPath>
  </defs>
  <g id="Group_17343" data-name="Group 17343" transform="translate(-1198 -40)" fill="#a2a2a2">
    <g id="Mask_Group_505" data-name="Mask Group 505" transform="translate(1198 40)" clip-path="url(#clip-path)">
      <g id="bell" transform="translate(0.188 0)">
        <g id="Group_17314" data-name="Group 17314" transform="translate(0 0)">
          <path id="Path_78116" data-name="Path 78116" d="M32.682,21.023a3.2,3.2,0,0,0-.126-.517,3.287,3.287,0,0,0-3.646-2.129.953.953,0,0,1-1.089-.793l-.79-5.057a11.029,11.029,0,0,0-7.9-8.96A4.253,4.253,0,0,0,10.72,4.86,10.642,10.642,0,0,0,5.9,15.516L6.747,20.9a.96.96,0,0,1-.792,1.089,3.289,3.289,0,0,0-2.817,3.146A3.2,3.2,0,0,0,6.3,28.366h.033a3.282,3.282,0,0,0,.5-.038l3.283-.516a4.231,4.231,0,0,0,7.84-1.233l12.059-1.9A3.2,3.2,0,0,0,32.682,21.023ZM14.615,2.269a2.241,2.241,0,0,1,.336-.027,2.144,2.144,0,0,1,1.776.96h-.051a10.167,10.167,0,0,0-1.193.034,10.834,10.834,0,0,0-1.243.192c-.089.018-.176.044-.264.065-.336.079-.666.172-.989.282-.032.01-.065.015-.1.027A2.133,2.133,0,0,1,14.615,2.269ZM13.8,27.842a2.1,2.1,0,0,1-1.255-.414l2.987-.468A2.134,2.134,0,0,1,13.8,27.842ZM30.43,22.075a1.067,1.067,0,0,1-.747.5l-12.848,2.02-6.243.982-4.085.64a1.054,1.054,0,0,1-.862-.245,1.066,1.066,0,0,1-.374-.826,1.157,1.157,0,0,1,1.015-1.052,3.093,3.093,0,0,0,2.567-3.526l-.846-5.382a8.556,8.556,0,0,1,4.316-8.807.58.58,0,0,0,.054-.021,8.533,8.533,0,0,1,3.3-1,7.7,7.7,0,0,1,1.054-.02l.175.009a8.388,8.388,0,0,1,1.083.137h.034a8.864,8.864,0,0,1,6.895,7.371l.8,5.057a3.086,3.086,0,0,0,3.526,2.57,1.157,1.157,0,0,1,1.289.687A1.067,1.067,0,0,1,30.43,22.075Z" transform="translate(-3.137 0.001)"/>
        </g>
      </g>
    </g>
  </g>
</svg>
