<svg xmlns="http://www.w3.org/2000/svg" xmlns:xlink="http://www.w3.org/1999/xlink" width="24" height="24" viewBox="0 0 24 24">
  <defs>
    <clipPath id="clip-path">
      <rect id="Rectangle_5957" data-name="Rectangle 5957" width="24" height="24" transform="translate(-11029 -7018)" fill="#fff" stroke="#b2b2b2" stroke-width="1"/>
    </clipPath>
  </defs>
  <g id="Mask_Group_44638" data-name="Mask Group 44638" transform="translate(11029 7018)" clip-path="url(#clip-path)">
    <path id="Path_80424" data-name="Path 80424" d="M626.482,358.914a12.506,12.506,0,0,1,3.4-3.621h1.432m-3.088.228q.19-.038.382-.07a15.575,15.575,0,0,1,7.4,5.778m-2.28-5.936h.579q.459,0,.908.041a12.448,12.448,0,0,1,3.344,3.581m-9.107,2.313a15.42,15.42,0,0,1,7.185-5.667c.145.031.288.065.43.1m5.63,5.96.272,1.054a4.22,4.22,0,0,1-4.086,5.277H625.872a4.219,4.219,0,0,1-4.086-5.277l.272-1.053a8.444,8.444,0,0,1,8.175-6.33h4.291A8.444,8.444,0,0,1,642.7,361.621Z" transform="translate(-11649.151 -7368.06)" fill="none" stroke="#b2b2b2" stroke-linejoin="round" stroke-width="1.56"/>
  </g>
</svg>
