<svg xmlns="http://www.w3.org/2000/svg" xmlns:xlink="http://www.w3.org/1999/xlink" width="60" height="60" viewBox="0 0 60 60">
  <defs>
    <clipPath id="clip-path">
      <rect id="Rectangle_6050" data-name="Rectangle 6050" width="60" height="60" transform="translate(-13690 -6414)" fill="#fff" stroke="#707070" stroke-width="1"/>
    </clipPath>
  </defs>
  <g id="Group_46759" data-name="Group 46759" transform="translate(-1601 -1704)">
    <g id="Mask_Group_44711" data-name="Mask Group 44711" transform="translate(15291 8118)" clip-path="url(#clip-path)">
      <g id="Group_46714" data-name="Group 46714" transform="translate(-13689.091 -6413.091)">
        <path id="Path_80691" data-name="Path 80691" d="M11,0H42.629a11,11,0,0,1,11,11V41.139a11,11,0,0,1-11,11H11a11,11,0,0,1-11-11V11A11,11,0,0,1,11,0Z" transform="translate(1.701 2.355)" fill="#f9e8d2"/>
        <path id="Path_80692" data-name="Path 80692" d="M1147.2,59.023h-16.122c-14.591,0-20.825-6.234-20.825-20.825V22.075c0-14.591,6.234-20.825,20.825-20.825H1147.2c14.591,0,20.826,6.234,20.826,20.825V38.2C1168.023,52.788,1161.788,59.023,1147.2,59.023ZM1131.075,5.281c-12.388,0-16.795,4.407-16.795,16.794V38.2c0,12.388,4.406,16.794,16.795,16.794H1147.2c12.388,0,16.8-4.407,16.8-16.794V22.075c0-12.388-4.407-16.794-16.8-16.794Z" transform="translate(-1110.25 -1.25)" fill="#e3d6b6"/>
      </g>
    </g>
    <g id="Group_46715" data-name="Group 46715" transform="translate(1599.75 1701.75)">
      <path id="Path_80684" data-name="Path 80684" d="M18.555,30.451a2.057,2.057,0,0,1-1.47-.61,2.092,2.092,0,0,1,0-2.939L26.9,17.086a2.078,2.078,0,0,1,2.939,2.939l-9.816,9.816A2.127,2.127,0,0,1,18.555,30.451Z" transform="translate(29.388 31.389)" fill="#c90002"/>
      <path id="Path_80685" data-name="Path 80685" d="M28.371,30.451a2.057,2.057,0,0,1-1.47-.61l-9.816-9.816a2.078,2.078,0,0,1,2.939-2.939L29.841,26.9a2.092,2.092,0,0,1,0,2.939A2.179,2.179,0,0,1,28.371,30.451Z" transform="translate(29.388 31.389)" fill="#c90002"/>
      <path id="Path_80686" data-name="Path 80686" d="M8.33,22.228a2.1,2.1,0,0,1-2.08-2.08V11.83a2.08,2.08,0,1,1,4.159,0v8.319A2.1,2.1,0,0,1,8.33,22.228Z" transform="translate(8.96 15.261)" fill="#e5c189"/>
      <path id="Path_80687" data-name="Path 80687" d="M13.33,22.228a2.1,2.1,0,0,1-2.08-2.08V11.83a2.08,2.08,0,1,1,4.159,0v8.319A2.1,2.1,0,0,1,13.33,22.228Z" transform="translate(17.92 15.261)" fill="#e5c189"/>
      <path id="Path_80688" data-name="Path 80688" d="M18.33,22.228a2.1,2.1,0,0,1-2.08-2.08V11.83a2.08,2.08,0,1,1,4.159,0v8.319A2.1,2.1,0,0,1,18.33,22.228Z" transform="translate(26.881 15.261)" fill="#e5c189"/>
    </g>
  </g>
</svg>
