<svg xmlns="http://www.w3.org/2000/svg" xmlns:xlink="http://www.w3.org/1999/xlink" width="48" height="40" viewBox="0 0 48 40"><defs><clipPath id="a"><rect width="30" height="30" fill="#fff" stroke="#707070" stroke-width="1"/></clipPath><clipPath id="b"><rect width="40" height="40" transform="translate(2540 -243)" fill="#fff" stroke="#707070" stroke-width="1"/></clipPath><linearGradient id="c" x1="0.505" y1="0.529" x2="0.272" y2="-0.075" gradientUnits="objectBoundingBox"><stop offset="0" stop-color="#fff" stop-opacity="0"/><stop offset="1" stop-color="#fff"/></linearGradient></defs><g transform="translate(-556 -809)"><g transform="translate(556 809)" clip-path="url(#a)"><g transform="translate(1.139 1.214)"><g transform="translate(0 0)"><path d="M28,16.653a2.409,2.409,0,0,1-2.079,2.624A2.218,2.218,0,0,1,23.7,17.971l-1.135.1-.857.413a.647.647,0,0,0-.358.5,7.556,7.556,0,0,1-.432,1.669.644.644,0,0,0,.037.548l.305.546.849.569a1.526,1.526,0,1,1-.964,1.635l-.94-.631-.592-.072a.682.682,0,0,0-.554.187,7.66,7.66,0,0,1-1.677,1.212.673.673,0,0,0-.353.554l-.075,1.2.372,1.477a1.9,1.9,0,1,1-1.836.472l-.374-1.486-.577-.928a.846.846,0,0,0-.723-.4h0a7.654,7.654,0,0,1-1.479-.145.844.844,0,0,0-.779.245l-.763.805-.854,1.772A1.526,1.526,0,1,1,8.223,27.4l.86-1.784.169-1.2a.636.636,0,0,0-.227-.583A7.682,7.682,0,0,1,7.3,21.855a.634.634,0,0,0-.538-.3l-1.2-.012-1.309.412A2.134,2.134,0,1,1,3.6,20.17l1.389-.437,1.014-.723a.522.522,0,0,0,.216-.47q-.025-.306-.025-.618a7.566,7.566,0,0,1,.692-3.169.52.52,0,0,0-.005-.445l-.3-.614-.816-.616A1.526,1.526,0,1,1,6.823,11.5l.9.682.911.162a7.631,7.631,0,0,1,2.285-1.464l.214-1.3-.27-1.342A2.188,2.188,0,0,1,9.245,6.6,2.137,2.137,0,0,1,11.015,4.1a2.26,2.26,0,0,1,2.662,1.668A2.075,2.075,0,0,1,12.74,7.94l.255,1.266.626,1a.224.224,0,0,0,.19.1h0A7.561,7.561,0,0,1,17.733,11.4a.221.221,0,0,0,.207.012l.98-.454,1.145-1.238a1.525,1.525,0,1,1,1.391,1.287l-1.145,1.238-.372,1a.221.221,0,0,0,.029.207,7.573,7.573,0,0,1,1.06,2.051.65.65,0,0,0,.438.42l.931.261,1.209-.107a2.337,2.337,0,0,1,1.946-1.593A2.278,2.278,0,0,1,28,16.653Z" transform="translate(0 -4.053)"/></g><g transform="translate(8.174 8.232)"><circle cx="5.637" cy="5.637" r="5.637" fill="#474747"/></g><path d="M143.134,152.1a5.638,5.638,0,0,1,4.778-5.572,5.637,5.637,0,1,0,0,11.144A5.638,5.638,0,0,1,143.134,152.1Z" transform="translate(-133.242 -138.231)" fill="#333"/><g transform="translate(2.722 0.41)"><circle cx="1.605" cy="1.605" r="1.605"/><circle cx="1.06" cy="1.06" r="1.06" transform="translate(0.106 21.705)"/><circle cx="1.562" cy="1.562" r="1.562" transform="translate(19.072 22.945)"/><circle cx="1.456" cy="1.456" r="1.456" transform="translate(7.904 10.448)"/><circle cx="0.991" cy="0.991" r="0.991" transform="translate(9.537 15.435)"/><circle cx="0.832" cy="0.832" r="0.832" transform="translate(12.808 12.626)"/></g></g></g><g transform="translate(-1976 1052)" clip-path="url(#b)"><g transform="translate(2541.681 -241.319)"><path d="M.275,345.748a.937.937,0,0,1,0-1.325l10.881-10.881a.937.937,0,1,1,1.325,1.325L1.6,345.748a.937.937,0,0,1-1.325,0Z" transform="translate(0 -309.215)" fill="#045340"/><g transform="translate(6.767 20.71)"><path d="M99.053,295.781l-4.789-4.789a1.729,1.729,0,0,1,0-2.445l1.591-1.591,7.234,7.234-1.591,1.591A1.729,1.729,0,0,1,99.053,295.781Z" transform="translate(-93.758 -286.956)" fill="#57c5ab"/><path d="M125.123,294.187l-1.591,1.591a1.728,1.728,0,0,1-2.444,0l-3.582-3.582v-4.86l.383-.383Z" transform="translate(-115.792 -286.953)" fill="#57c5ab"/></g><g transform="translate(7.63 5.578)"><path d="M114.232,100.465l-8.078-8.078a1.462,1.462,0,0,1,0-2.067l12.6-12.6a1.462,1.462,0,0,1,2.067,0L128.9,85.8a1.462,1.462,0,0,1,0,2.067l-12.6,12.6a1.462,1.462,0,0,1-2.067,0Z" transform="translate(-105.726 -77.295)" fill="#57c5ab"/><path d="M136.481,184.1,129.4,177.02a.962.962,0,0,1,0-1.361l6.282-6.282a.962.962,0,0,1,1.361,0l7.078,7.078a.962.962,0,0,1,0,1.361l-6.282,6.282A.962.962,0,0,1,136.481,184.1Z" transform="translate(-127.432 -162.47)" fill="#fff"/><path d="M108.072,231.2l-1.918,1.918a1.462,1.462,0,0,0,0,2.067l8.078,8.078a1.461,1.461,0,0,0,2.067,0l1.918-1.918Z" transform="translate(-105.726 -220.093)" fill="#039572"/></g><path d="M270.591,127.8l-2.93-2.93,5.979-5.979,2.93,2.93Z" transform="translate(-248.344 -110.312)" fill="#045340"/><path d="M146.385,94.246l-13.463,13.463a1.7,1.7,0,0,0,0,2.4L139,116.193a1.462,1.462,0,0,0,2.067,0l12.6-12.6a1.461,1.461,0,0,0,0-2.067Z" transform="translate(-123.831 -88.451)" fill="url(#c)"/><g transform="translate(26.404 0)"><path d="M368.776,64.548l-2.93-2.93,3.262-3.262,2.93,2.93Z" transform="translate(-365.846 -54.144)" fill="#57c5ab"/><path d="M408.328,58.552v5.86l3.126-3.126-2.93-2.93Z" transform="translate(-405.262 -54.144)" fill="#57c5ab"/><path d="M381.345,9.567,373.957,2.18a.927.927,0,0,1,0-1.311l.6-.6a.927.927,0,0,1,1.311,0l7.387,7.387a.927.927,0,0,1,0,1.311l-.6.6A.927.927,0,0,1,381.345,9.567Z" transform="translate(-373.12 -0.001)" fill="#57c5ab"/></g><path d="M285.038,43.118l-11.28-11.28a1.415,1.415,0,0,1,0-2l.911-.911a1.415,1.415,0,0,1,2,0l11.28,11.28a1.415,1.415,0,0,1,0,2l-.911.911A1.415,1.415,0,0,1,285.038,43.118Z" transform="translate(-253.616 -26.453)" fill="#57c5ab"/></g></g></g></svg>