<svg xmlns="http://www.w3.org/2000/svg" xmlns:xlink="http://www.w3.org/1999/xlink" width="60" height="60" viewBox="0 0 60 60">
  <defs>
    <clipPath id="clip-path">
      <rect id="Rectangle_5955" data-name="Rectangle 5955" width="60" height="60" transform="translate(-12189 -7817)" fill="#fff" stroke="#707070" stroke-width="1"/>
    </clipPath>
  </defs>
  <g id="Mask_Group_44633" data-name="Mask Group 44633" transform="translate(12189 7817)" clip-path="url(#clip-path)">
    <path id="Path_80390" data-name="Path 80390" d="M157.48,43.162a34.1,34.1,0,0,1,9.277-9.884l.425,0,3.484,0m-8.428.621q.516-.1,1.041-.19c9.265,3.91,16.445,9.521,20.2,15.769m-6.22-16.2,1.579,0q1.255,0,2.479.114a34,34,0,0,1,9.128,9.774m-24.854,6.312c3.674-6.095,10.63-11.581,19.609-15.466.395.083.788.176,1.175.277M201.738,50.55l.743,2.875a11.519,11.519,0,0,1-11.152,14.4H155.812a11.52,11.52,0,0,1-11.152-14.4l.743-2.875a23.047,23.047,0,0,1,22.312-17.277h11.711A23.045,23.045,0,0,1,201.738,50.55Z" transform="translate(-12332.889 -7837.705)" fill="#e5c189" stroke="#cea96f" stroke-linejoin="round" stroke-width="1.56"/>
  </g>
</svg>
