<svg xmlns="http://www.w3.org/2000/svg" xmlns:xlink="http://www.w3.org/1999/xlink" width="71" height="71" viewBox="0 0 71 71">
  <defs>
    <clipPath id="clip-path">
      <rect id="Rectangle_6493" data-name="Rectangle 6493" width="71" height="71" transform="translate(409 -19594)" fill="#fff" stroke="#707070" stroke-width="1"/>
    </clipPath>
  </defs>
  <g id="Mask_Group_44816" data-name="Mask Group 44816" transform="translate(-409 19594)" clip-path="url(#clip-path)">
    <g id="Multicolor" transform="translate(390 -19613)">
      <g id="Group_48478" data-name="Group 48478">
        <g id="Group_48461" data-name="Group 48461">
          <path id="Path_96499" data-name="Path 96499" d="M79,31a8,8,0,0,0-8-8H39a8,8,0,0,0-8,8V81a2,2,0,0,0,2,2H77a2,2,0,0,0,2-2Z" fill="#175a76"/>
        </g>
        <g id="Group_48462" data-name="Group 48462">
          <path id="Path_96500" data-name="Path 96500" d="M76.2,24.926A7.963,7.963,0,0,0,71,23H39a8,8,0,0,0-8,8V70.124Z" fill="#28708e"/>
        </g>
        <g id="Group_48463" data-name="Group 48463">
          <path id="Path_96501" data-name="Path 96501" d="M31,83v2a2,2,0,0,0,2,2h8a2,2,0,0,0,2-2V83Z" fill="#3e3e3f"/>
        </g>
        <g id="Group_48464" data-name="Group 48464">
          <path id="Path_96502" data-name="Path 96502" d="M67,85a2,2,0,0,0,2,2h8a2,2,0,0,0,2-2V83H67Z" fill="#3e3e3f"/>
        </g>
        <g id="Group_48465" data-name="Group 48465">
          <path id="Path_96503" data-name="Path 96503" d="M81,74a4,4,0,0,0-4-4H68l-2.447-2.894A2,2,0,0,0,63.764,66H46.236a2,2,0,0,0-1.789,1.106L42,70H33a4,4,0,0,0-4,4v7a2,2,0,0,0,2,2H79a2,2,0,0,0,2-2Z" fill="#7da6b8"/>
        </g>
        <g id="Group_48466" data-name="Group 48466">
          <path id="Path_96504" data-name="Path 96504" d="M54,69H47a2,2,0,0,0-2,2v7a2,2,0,0,0,2,2h7Z" fill="#175a76"/>
        </g>
        <g id="Group_48467" data-name="Group 48467">
          <path id="Path_96505" data-name="Path 96505" d="M56,69h7a2,2,0,0,1,2,2v7a2,2,0,0,1-2,2H56Z" fill="#175a76"/>
        </g>
        <g id="Group_48468" data-name="Group 48468">
          <circle id="Ellipse_1390" data-name="Ellipse 1390" cx="3" cy="3" r="3" transform="translate(34 74)" fill="#707070"/>
        </g>
        <g id="Group_48469" data-name="Group 48469">
          <circle id="Ellipse_1391" data-name="Ellipse 1391" cx="3" cy="3" r="3" transform="translate(69 74)" fill="#707070"/>
        </g>
        <g id="Group_48470" data-name="Group 48470">
          <rect id="Rectangle_6491" data-name="Rectangle 6491" width="48" height="2" transform="translate(31 47)" fill="#e2e4e5"/>
        </g>
        <g id="Group_48471" data-name="Group 48471">
          <path id="Path_96506" data-name="Path 96506" d="M54.124,47H31v2H52.124Z" fill="#fff"/>
        </g>
        <g id="Group_48472" data-name="Group 48472">
          <path id="Path_96507" data-name="Path 96507" d="M75,49H57V61a2,2,0,0,0,2,2H73a2,2,0,0,0,2-2Z" fill="#8badbb"/>
        </g>
        <g id="Group_48473" data-name="Group 48473">
          <path id="Path_96508" data-name="Path 96508" d="M35,37a2,2,0,0,0,2,2H51a2,2,0,0,0,2-2V29a2,2,0,0,0-2-2H37a2,2,0,0,0-2,2Z" fill="#bfdde7"/>
        </g>
        <g id="Group_48474" data-name="Group 48474">
          <path id="Path_96509" data-name="Path 96509" d="M57,37a2,2,0,0,0,2,2H73a2,2,0,0,0,2-2V29a2,2,0,0,0-2-2H59a2,2,0,0,0-2,2Z" fill="#8badbb"/>
        </g>
        <g id="Group_48475" data-name="Group 48475">
          <path id="Path_96510" data-name="Path 96510" d="M73,27H59a2,2,0,0,0-2,2v8a2,2,0,0,0,2,2h3.124L73.9,27.223A1.977,1.977,0,0,0,73,27Z" fill="#bfdde7"/>
        </g>
        <g id="Group_48476" data-name="Group 48476">
          <path id="Path_96511" data-name="Path 96511" d="M72,74.044A2.986,2.986,0,0,0,69.742,79l4.214-4.214A2.976,2.976,0,0,0,72,74.044Z" fill="#b2b2b2"/>
        </g>
        <g id="Group_48477" data-name="Group 48477">
          <path id="Path_96512" data-name="Path 96512" d="M37,74a2.986,2.986,0,0,0-2.258,4.956l4.214-4.214A2.976,2.976,0,0,0,37,74Z" fill="#b2b2b2"/>
        </g>
        <path id="Path_96516" data-name="Path 96516" d="M0,0H18V8H0Z" transform="translate(35 49)" fill="rgba(255,255,255,0.5)"/>
        <path id="Path_96513" data-name="Path 96513" d="M35,61a2,2,0,0,0,2,2H51a2,2,0,0,0,2-2V59H35Z" fill="#8badbb"/>
        <path id="Path_96514" data-name="Path 96514" d="M44.124,57l8-8H35v8Z" fill="#bfdde7"/>
        <path id="Path_96515" data-name="Path 96515" d="M35,59v2a2,2,0,0,0,2,2h1.124l4-4Z" fill="#bfdde7"/>
      </g>
    </g>
  </g>
</svg>
