<svg xmlns="http://www.w3.org/2000/svg" width="21.495" height="21.508" viewBox="0 0 21.495 21.508">
  <g id="Group_47489" data-name="Group 47489" transform="translate(-1732.502 9790)">
    <g id="Group_47480" data-name="Group 47480" transform="translate(1604.25 -9791.252)">
      <path id="Path_94906" data-name="Path 94906" d="M139,22.76a5.09,5.09,0,0,1-3.02-.95l-1.59-1.19a.75.75,0,0,1,.9-1.2l1.59,1.19a3.823,3.823,0,0,0,4.25,0l4.3-3.21a4.134,4.134,0,0,0,1.42-2.84V7.12a.75.75,0,0,1,1.5,0v7.43a5.585,5.585,0,0,1-2.03,4.04l-4.3,3.21A5.031,5.031,0,0,1,139,22.76Z"/>
      <path id="Path_94907" data-name="Path 94907" d="M132.33,18.9a.76.76,0,0,1-.45-.15l-.2-.15a5.6,5.6,0,0,1-2.03-4.04V7.12a4.209,4.209,0,0,1,2.58-3.72l4.99-1.87a5.784,5.784,0,0,1,3.54,0l5,1.87a3.828,3.828,0,0,1,.61.3.748.748,0,1,1-.79,1.27,1.544,1.544,0,0,0-.34-.17l-5-1.87a4.227,4.227,0,0,0-2.49,0l-4.99,1.88a2.732,2.732,0,0,0-1.61,2.32v7.43a4.134,4.134,0,0,0,1.42,2.84l.2.15a.75.75,0,0,1,.15,1.05A.72.72,0,0,1,132.33,18.9Z"/>
      <path id="Path_94908" data-name="Path 94908" d="M129,22.75a.742.742,0,0,1-.53-.22.754.754,0,0,1,0-1.06l20-20a.75.75,0,0,1,1.06,1.06l-20,20A.742.742,0,0,1,129,22.75Z"/>
    </g>
  </g>
</svg>
