<svg xmlns="http://www.w3.org/2000/svg" xmlns:xlink="http://www.w3.org/1999/xlink" width="60" height="60" viewBox="0 0 60 60">
  <defs>
    <clipPath id="clip-path">
      <rect id="Rectangle_6160" data-name="Rectangle 6160" width="60" height="60" transform="translate(-5362 -14200)" fill="#fff" stroke="#707070" stroke-width="1"/>
    </clipPath>
    <linearGradient id="linear-gradient" x1="0.5" x2="0.5" y2="1" gradientUnits="objectBoundingBox">
      <stop offset="0" stop-color="#041e39"/>
      <stop offset="1" stop-color="#57687a"/>
    </linearGradient>
  </defs>
  <g id="Mask_Group_44757" data-name="Mask Group 44757" transform="translate(5362 14200)" clip-path="url(#clip-path)">
    <g id="_2526582_transportation_vehicle_icon" data-name="2526582_transportation_vehicle_icon" transform="translate(-5361.008 -14196.033)">
      <g id="Layer_3" transform="translate(0 0)">
        <g id="Group_47400" data-name="Group 47400">
          <path id="Path_94720" data-name="Path 94720" d="M28.461,68.646H73.206a3.723,3.723,0,0,0,3.729-3.729V53.8a3.723,3.723,0,0,0-3.729-3.729L70.343,27.9a3.241,3.241,0,0,0-3.2-3.2H34.587a3.241,3.241,0,0,0-3.2,3.2L28.528,50.069A3.723,3.723,0,0,0,24.8,53.8v11.12A3.667,3.667,0,0,0,28.461,68.646Z" transform="translate(-22.069 -24.7)" fill="#7da6b8" fill-rule="evenodd"/>
          <path id="Path_94721" data-name="Path 94721" d="M43.152,30.9H67.389a3.383,3.383,0,0,1,3.2,3.2l1.931,14.848a3.114,3.114,0,0,1-3.2,3.2H41.288a3.114,3.114,0,0,1-3.2-3.2L40.023,34.1A3.324,3.324,0,0,1,43.152,30.9Z" transform="translate(-26.506 -26.772)" fill="#bfdde7" fill-rule="evenodd"/>
          <path id="Path_94722" data-name="Path 94722" d="M43.152,30.9H67.389a3.383,3.383,0,0,1,3.2,3.2l1.931,14.848a3.114,3.114,0,0,1-3.2,3.2H41.288a3.114,3.114,0,0,1-3.2-3.2L40.023,34.1A3.324,3.324,0,0,1,43.152,30.9Z" transform="translate(-26.506 -26.772)" fill="none" stroke="#175a76" stroke-linecap="round" stroke-linejoin="round" stroke-miterlimit="2.613" stroke-width="3.207"/>
          <path id="Path_94723" data-name="Path 94723" d="M35.563,70.3h0a3.268,3.268,0,0,1,3.263,3.263h0a3.268,3.268,0,0,1-3.263,3.263h0A3.268,3.268,0,0,1,32.3,73.563h0A3.357,3.357,0,0,1,35.563,70.3Z" transform="translate(-24.576 -39.937)" fill="#f3bf06" fill-rule="evenodd"/>
          <path id="Path_94724" data-name="Path 94724" d="M35.563,70.3h0a3.268,3.268,0,0,1,3.263,3.263h0a3.268,3.268,0,0,1-3.263,3.263h0A3.268,3.268,0,0,1,32.3,73.563h0A3.357,3.357,0,0,1,35.563,70.3Z" transform="translate(-24.576 -39.937)" fill="none" stroke="#175a76" stroke-linecap="round" stroke-linejoin="round" stroke-miterlimit="2.613" stroke-width="2"/>
          <path id="Path_94725" data-name="Path 94725" d="M88.963,70.3h0a3.268,3.268,0,0,1,3.263,3.263h0a3.268,3.268,0,0,1-3.263,3.263h0A3.268,3.268,0,0,1,85.7,73.563h0A3.312,3.312,0,0,1,88.963,70.3Z" transform="translate(-42.42 -39.937)" fill="#f3bf06" fill-rule="evenodd"/>
          <path id="Path_94726" data-name="Path 94726" d="M88.963,70.3h0a3.268,3.268,0,0,1,3.263,3.263h0a3.268,3.268,0,0,1-3.263,3.263h0A3.268,3.268,0,0,1,85.7,73.563h0A3.312,3.312,0,0,1,88.963,70.3Z" transform="translate(-42.42 -39.937)" fill="none" stroke="#175a76" stroke-linecap="round" stroke-linejoin="round" stroke-miterlimit="2.613" stroke-width="2"/>
          <path id="Path_94727" data-name="Path 94727" d="M30.3,90.7H42.086v3.6a4.774,4.774,0,0,1-4.794,4.794h-2.2A4.774,4.774,0,0,1,30.3,94.3Z" transform="translate(-23.908 -46.754)" fill-rule="evenodd" fill="url(#linear-gradient)"/>
          <path id="Path_94728" data-name="Path 94728" d="M79.8,90.7H91.586v3.6a4.774,4.774,0,0,1-4.794,4.794h-2.2A4.774,4.774,0,0,1,79.8,94.3Z" transform="translate(-40.448 -46.754)" fill-rule="evenodd" fill="url(#linear-gradient)"/>
          <path id="Path_94729" data-name="Path 94729" d="M48.732,70.3H68.241a1.167,1.167,0,0,1,1.132,1.132h0a1.167,1.167,0,0,1-1.132,1.132H48.732A1.167,1.167,0,0,1,47.6,71.432h0A1.167,1.167,0,0,1,48.732,70.3Z" transform="translate(-29.689 -39.937)" fill-rule="evenodd" fill="url(#linear-gradient)"/>
          <path id="Path_94730" data-name="Path 94730" d="M48.732,76.7H68.241a1.167,1.167,0,0,1,1.132,1.132h0a1.167,1.167,0,0,1-1.132,1.132H48.732A1.167,1.167,0,0,1,47.6,77.832h0A1.122,1.122,0,0,1,48.732,76.7Z" transform="translate(-29.689 -42.076)" fill-rule="evenodd" fill="url(#linear-gradient)"/>
          <path id="Path_94731" data-name="Path 94731" d="M21.1,53.1v-.4a2.387,2.387,0,0,1,2.4-2.4h4.861l-.666,5.127H23.5A2.374,2.374,0,0,1,21.1,53.1Z" transform="translate(-20.834 -33.254)" fill="#175a76" stroke="#175a76" stroke-width="1" fill-rule="evenodd"/>
          <path id="Path_94732" data-name="Path 94732" d="M103.058,53.1v-.4a2.387,2.387,0,0,0-2.4-2.4H95.8l.666,5.127h4.195A2.374,2.374,0,0,0,103.058,53.1Z" transform="translate(-45.795 -33.254)" fill="#175a76" stroke="#175a76" stroke-width="1" fill-rule="evenodd"/>
          <path id="Path_94733" data-name="Path 94733" d="M22.564,85.1H76.5a1.864,1.864,0,1,1,0,3.729H22.564a1.864,1.864,0,1,1,0-3.729Z" transform="translate(-20.7 -44.883)" fill="#175a76" stroke="#175a76" stroke-width="1" fill-rule="evenodd"/>
        </g>
      </g>
    </g>
  </g>
</svg>
