<svg xmlns="http://www.w3.org/2000/svg" width="21.5" height="21.5" viewBox="0 0 21.5 21.5">
  <g id="Group_46638" data-name="Group 46638" transform="translate(-1766 -5591)">
    <g id="Group_46607" data-name="Group 46607" transform="translate(1764.75 5589.75)">
      <path id="Path_80528" data-name="Path 80528" d="M10.11,18.15H6.32a.755.755,0,0,1-.75-.75V12.28a1.9,1.9,0,0,1,1.89-1.89h2.65a.755.755,0,0,1,.75.75v6.25A.758.758,0,0,1,10.11,18.15Zm-3.04-1.5H9.36V11.9H7.46a.39.39,0,0,0-.39.39Z"/>
      <path id="Path_80529" data-name="Path 80529" d="M13.89,18.15H10.1a.755.755,0,0,1-.75-.75V7.74a1.9,1.9,0,0,1,1.89-1.89h1.52a1.9,1.9,0,0,1,1.89,1.89V17.4A.764.764,0,0,1,13.89,18.15Zm-3.03-1.5h2.29V7.74a.39.39,0,0,0-.39-.39H11.24a.39.39,0,0,0-.39.39v8.91Z"/>
      <path id="Path_80530" data-name="Path 80530" d="M17.68,18.15H13.89a.755.755,0,0,1-.75-.75V12.85a.755.755,0,0,1,.75-.75h2.65a1.9,1.9,0,0,1,1.89,1.89V17.4A.749.749,0,0,1,17.68,18.15Zm-3.04-1.5h2.29V13.99a.39.39,0,0,0-.39-.39h-1.9Z"/>
      <path id="Path_80531" data-name="Path 80531" d="M15,22.75H9c-5.43,0-7.75-2.32-7.75-7.75V9C1.25,3.57,3.57,1.25,9,1.25h6c5.43,0,7.75,2.32,7.75,7.75v6C22.75,20.43,20.43,22.75,15,22.75Zm-6-20C4.39,2.75,2.75,4.39,2.75,9v6c0,4.61,1.64,6.25,6.25,6.25h6c4.61,0,6.25-1.64,6.25-6.25V9c0-4.61-1.64-6.25-6.25-6.25Z"/>
    </g>
  </g>
</svg>
