<svg xmlns="http://www.w3.org/2000/svg" width="30" height="30" viewBox="0 0 30 30"><path d="M15,0A15,15,0,1,1,0,15,15,15,0,0,1,15,0Z" fill="#fff"/><g transform="translate(0 0)"><path d="M15,0A15,15,0,1,0,30,15,15,15,0,0,0,15,0Zm0,4.485a4.961,4.961,0,1,1-4.961,4.961A4.962,4.962,0,0,1,15,4.486Zm0,21.591a11.008,11.008,0,0,1-7.168-2.643,2.114,2.114,0,0,1-.742-1.607,5,5,0,0,1,5.028-5h5.773a5,5,0,0,1,5.02,5,2.109,2.109,0,0,1-.741,1.606A11,11,0,0,1,15,26.077Z" transform="translate(0 -0.001)" fill="#194654"/></g></svg>