<svg xmlns="http://www.w3.org/2000/svg" width="50" height="50" viewBox="0 0 50 50"><path d="M25,0A25,25,0,1,1,0,25,25,25,0,0,1,25,0Z" fill="#fff"/><g transform="translate(0 0)"><path d="M25,0A25,25,0,1,0,50,25,25,25,0,0,0,25,0Zm0,7.475a8.269,8.269,0,1,1-8.268,8.269A8.269,8.269,0,0,1,25,7.476Zm-.005,35.987a18.347,18.347,0,0,1-11.948-4.406,3.524,3.524,0,0,1-1.236-2.678,8.339,8.339,0,0,1,8.38-8.337h9.622a8.327,8.327,0,0,1,8.367,8.337,3.515,3.515,0,0,1-1.235,2.677A18.341,18.341,0,0,1,24.995,43.463Z" transform="translate(0 -0.001)" fill="#a2a2a2"/></g></svg>