<svg xmlns="http://www.w3.org/2000/svg" xmlns:xlink="http://www.w3.org/1999/xlink" width="24" height="24" viewBox="0 0 24 24">
  <defs>
    <clipPath id="clip-path">
      <rect id="Rectangle_5294" data-name="Rectangle 5294" width="24" height="24" transform="translate(0.208)" fill="#57687A" stroke="#57687A" stroke-width="1"/>
    </clipPath>
  </defs>
  <g id="Mask_Group_640" data-name="Mask Group 640" transform="translate(-0.208)" clip-path="url(#clip-path)">
    <g id="user_10_" data-name="user (10)" transform="translate(0.108 4.18)">
      <g id="Group_44379" data-name="Group 44379" transform="translate(8.348 0)">
        <g id="Group_44378" data-name="Group 44378">
          <path id="Path_78442" data-name="Path 78442" d="M174.318,85.333a3.652,3.652,0,1,0,3.652,3.652A3.656,3.656,0,0,0,174.318,85.333Zm0,6.261a2.609,2.609,0,1,1,2.609-2.609A2.612,2.612,0,0,1,174.318,91.594Z" transform="translate(-170.666 -85.333)" fill="#57687A" stroke="#57687A" stroke-width="0.3"/>
        </g>
      </g>
      <g id="Group_44381" data-name="Group 44381" transform="translate(16.696 4.174)">
        <g id="Group_44380" data-name="Group 44380" transform="translate(0 0)">
          <path id="Path_78443" data-name="Path 78443" d="M343.943,170.667a2.609,2.609,0,1,0,2.609,2.609A2.612,2.612,0,0,0,343.943,170.667Zm0,4.174a1.565,1.565,0,1,1,1.565-1.565A1.567,1.567,0,0,1,343.943,174.841Z" transform="translate(-341.334 -170.667)" fill="#57687A" stroke="#57687A" stroke-width="0.3"/>
        </g>
      </g>
      <g id="Group_44383" data-name="Group 44383" transform="translate(2.161 4.174)">
        <g id="Group_44382" data-name="Group 44382" transform="translate(0 0)">
          <path id="Path_78444" data-name="Path 78444" d="M46.791,170.667a2.609,2.609,0,1,0,2.609,2.609A2.612,2.612,0,0,0,46.791,170.667Zm0,4.174a1.565,1.565,0,1,1,1.565-1.565A1.567,1.567,0,0,1,46.791,174.841Z" transform="translate(-44.182 -170.667)" fill="#57687A" stroke="#57687A" stroke-width="0.3"/>
        </g>
      </g>
      <g id="Group_44385" data-name="Group 44385" transform="translate(5.217 8.348)">
        <g id="Group_44384" data-name="Group 44384">
          <path id="Path_78445" data-name="Path 78445" d="M113.449,256a6.79,6.79,0,0,0-6.783,6.783.522.522,0,1,0,1.044,0,5.739,5.739,0,0,1,11.478,0,.522.522,0,1,0,1.044,0A6.79,6.79,0,0,0,113.449,256Z" transform="translate(-106.666 -256)" fill="#57687A" stroke="#57687A" stroke-width="0.3"/>
        </g>
      </g>
      <g id="Group_44387" data-name="Group 44387" transform="translate(16.621 10.435)">
        <g id="Group_44386" data-name="Group 44386">
          <path id="Path_78446" data-name="Path 78446" d="M342.5,298.667a4.7,4.7,0,0,0-2.432.678.522.522,0,1,0,.542.892,3.653,3.653,0,0,1,5.543,3.125.522.522,0,1,0,1.044,0A4.7,4.7,0,0,0,342.5,298.667Z" transform="translate(-339.813 -298.667)" fill="#57687A" stroke="#57687A" stroke-width="0.3"/>
        </g>
      </g>
      <g id="Group_44389" data-name="Group 44389" transform="translate(0 10.435)">
        <g id="Group_44388" data-name="Group 44388">
          <path id="Path_78447" data-name="Path 78447" d="M7.127,299.344A4.7,4.7,0,0,0,0,303.363a.522.522,0,1,0,1.044,0,3.653,3.653,0,0,1,5.542-3.126.522.522,0,0,0,.542-.892Z" transform="translate(0 -298.667)" fill="#57687A" stroke="#57687A" stroke-width="0.3"/>
        </g>
      </g>
    </g>
  </g>
</svg>
