<svg xmlns="http://www.w3.org/2000/svg" xmlns:xlink="http://www.w3.org/1999/xlink" width="24" height="24" viewBox="0 0 24 24">
  <defs>
    <clipPath id="clip-path">
      <rect id="Rectangle_5097" data-name="Rectangle 5097" width="24" height="24" transform="translate(4982 -5262)" fill="#57687A" stroke="#57687A" stroke-width="1"/>
    </clipPath>
  </defs>
  <g id="Mask_Group_594" data-name="Mask Group 594" transform="translate(-4982 5262)" clip-path="url(#clip-path)">
    <g id="dashboard" transform="translate(4982.58 -5261.42)">
      <path id="Path_78172" data-name="Path 78172" d="M8.8,7.614H1.665A1.667,1.667,0,0,1,0,5.948V1.665A1.667,1.667,0,0,1,1.665,0H8.8a1.667,1.667,0,0,1,1.666,1.665V5.948A1.667,1.667,0,0,1,8.8,7.614ZM1.665,1.428a.238.238,0,0,0-.238.238V5.948a.238.238,0,0,0,.238.238H8.8a.238.238,0,0,0,.238-.238V1.665A.238.238,0,0,0,8.8,1.428Zm0,0" transform="translate(0 0)" fill="#57687A" stroke="#57687A" stroke-width="0"/>
      <path id="Path_78173" data-name="Path 78173" d="M8.8,226.656H1.665A1.667,1.667,0,0,1,0,224.99V215a1.667,1.667,0,0,1,1.665-1.666H8.8A1.667,1.667,0,0,1,10.468,215v9.993A1.667,1.667,0,0,1,8.8,226.656Zm-7.138-11.9a.238.238,0,0,0-.238.238v9.993a.238.238,0,0,0,.238.238H8.8a.238.238,0,0,0,.238-.238V215a.238.238,0,0,0-.238-.238Zm0,0" transform="translate(0 -203.815)" fill="#57687A" stroke="#57687A" stroke-width="0"/>
      <path id="Path_78174" data-name="Path 78174" d="M286.135,348.946H279a1.667,1.667,0,0,1-1.666-1.665V343A1.667,1.667,0,0,1,279,341.332h7.138A1.667,1.667,0,0,1,287.8,343v4.283A1.667,1.667,0,0,1,286.135,348.946ZM279,342.76a.238.238,0,0,0-.238.238v4.283a.238.238,0,0,0,.238.238h7.138a.238.238,0,0,0,.238-.238V343a.238.238,0,0,0-.238-.238Zm0,0" transform="translate(-264.96 -326.105)" fill="#57687A" stroke="#57687A" stroke-width="0"/>
      <path id="Path_78175" data-name="Path 78175" d="M286.135,13.324H279a1.667,1.667,0,0,1-1.666-1.666V1.665A1.667,1.667,0,0,1,279,0h7.138A1.667,1.667,0,0,1,287.8,1.665v9.993A1.667,1.667,0,0,1,286.135,13.324ZM279,1.428a.238.238,0,0,0-.238.238v9.993A.238.238,0,0,0,279,11.9h7.138a.238.238,0,0,0,.238-.238V1.665a.238.238,0,0,0-.238-.238Zm0,0" transform="translate(-264.96 0)" fill="#57687A" stroke="#57687A" stroke-width="0"/>
    </g>
  </g>
</svg>
