<svg xmlns="http://www.w3.org/2000/svg" xmlns:xlink="http://www.w3.org/1999/xlink" width="60" height="60" viewBox="0 0 60 60">
  <defs>
    <clipPath id="clip-path">
      <rect id="Rectangle_5818" data-name="Rectangle 5818" width="60" height="60" transform="translate(-775 -9939)" fill="#fff" stroke="#707070" stroke-width="1"/>
    </clipPath>
    <clipPath id="clip-path-2">
      <rect id="Rectangle_5476" data-name="Rectangle 5476" width="31" height="31" transform="translate(0.379)" fill="#bfdde7" stroke="#707070" stroke-width="1"/>
    </clipPath>
    <linearGradient id="linear-gradient" x1="0.5" x2="0.5" y2="1" gradientUnits="objectBoundingBox">
      <stop offset="0" stop-color="#041e39"/>
      <stop offset="1" stop-color="#57687a"/>
    </linearGradient>
  </defs>
  <g id="Group_45938" data-name="Group 45938" transform="translate(-1006 -1191)">
    <g id="Mask_Group_44582" data-name="Mask Group 44582" transform="translate(1781 11130)" clip-path="url(#clip-path)">
      <g id="Group_45886" data-name="Group 45886" transform="translate(-767.963 -9937.704)">
        <path id="Subtraction_32" data-name="Subtraction 32" d="M23,49.539a1.636,1.636,0,0,1-.672-.142l-2.247-.885L20,48.48C12.52,45.552,0,40.651,0,24.345V8.846A1.771,1.771,0,0,1,1.769,7.077a37.285,37.285,0,0,0,13.04-2.071L34.189,44.74a57.958,57.958,0,0,1-8.27,3.771l-2.246.885A1.642,1.642,0,0,1,23,49.539Zm13.985-6.627L17.824,3.626A12.545,12.545,0,0,0,21.55.743,1.774,1.774,0,0,1,22.992,0H23a1.772,1.772,0,0,1,1.451.76,8.233,8.233,0,0,0,1.433,1.375C28.216,3.974,33.69,7.06,44.143,7.077h.088A1.771,1.771,0,0,1,46,8.846v15.5a24.43,24.43,0,0,1-1.983,10.049,20.748,20.748,0,0,1-4.93,6.785,25.171,25.171,0,0,1-2.1,1.732Z" transform="translate(0 3.765)" fill="#7da6b8"/>
      </g>
    </g>
    <g id="Group_45893" data-name="Group 45893" transform="translate(-281 968)">
      <g id="Mask_Group_44507" data-name="Mask Group 44507" transform="translate(1301.621 236)" clip-path="url(#clip-path-2)">
        <g id="virus_1_" data-name="virus (1)" transform="translate(0.872 1.276)">
          <g id="XMLID_107_" transform="translate(0 0)">
            <g id="Group_44918" data-name="Group 44918">
              <path id="Path_79227" data-name="Path 79227" d="M29.439,17.3a2.532,2.532,0,0,1-2.186,2.759,2.331,2.331,0,0,1-2.337-1.373l-1.193.105-.9.435a.68.68,0,0,0-.376.522,7.943,7.943,0,0,1-.454,1.754.677.677,0,0,0,.039.576l.321.574.892.6a1.6,1.6,0,1,1-1.014,1.719l-.989-.663-.622-.076a.717.717,0,0,0-.582.2A8.053,8.053,0,0,1,18.274,25.7a.708.708,0,0,0-.371.582l-.079,1.26.391,1.553a1.993,1.993,0,1,1-1.93.5l-.393-1.562-.607-.976a.889.889,0,0,0-.76-.416h0a8.047,8.047,0,0,1-1.555-.152.888.888,0,0,0-.819.257l-.8.847-.9,1.863a1.6,1.6,0,1,1-1.8-.853l.9-1.875.177-1.259a.669.669,0,0,0-.239-.613A8.076,8.076,0,0,1,7.67,22.769.667.667,0,0,0,7.1,22.45l-1.257-.012-1.376.433A2.244,2.244,0,1,1,3.789,21l1.46-.459,1.067-.76a.549.549,0,0,0,.227-.494q-.026-.322-.027-.65A7.955,7.955,0,0,1,7.245,15.3a.547.547,0,0,0-.005-.467l-.316-.646-.857-.647a1.6,1.6,0,1,1,1.107-1.66l.95.717.958.171a8.023,8.023,0,0,1,2.4-1.539l.225-1.366-.284-1.411A2.3,2.3,0,0,1,9.719,6.734,2.247,2.247,0,0,1,11.581,4.1a2.376,2.376,0,0,1,2.8,1.753,2.182,2.182,0,0,1-.986,2.289l.268,1.331.658,1.05a.235.235,0,0,0,.2.11h0a7.949,7.949,0,0,1,4.123,1.147.232.232,0,0,0,.218.012l1.031-.478,1.2-1.3a1.6,1.6,0,1,1,1.463,1.353l-1.2,1.3-.391,1.051a.232.232,0,0,0,.03.218,7.962,7.962,0,0,1,1.115,2.156.683.683,0,0,0,.46.442l.978.274,1.271-.112a2.457,2.457,0,0,1,2.046-1.675A2.4,2.4,0,0,1,29.439,17.3Z" transform="translate(0 -4.053)" fill="#bfdde7"/>
            </g>
          </g>
          <g id="XMLID_8_" transform="translate(8.594 8.654)">
            <g id="Group_44919" data-name="Group 44919">
              <ellipse id="Ellipse_1151" data-name="Ellipse 1151" cx="5.926" cy="5.926" rx="5.926" ry="5.926" fill="#bfdde7"/>
            </g>
          </g>
          <path id="Path_79228" data-name="Path 79228" d="M143.222,152.389a5.928,5.928,0,0,1,5.023-5.858,5.926,5.926,0,1,0,0,11.716A5.928,5.928,0,0,1,143.222,152.389Z" transform="translate(-132.822 -137.809)" fill="#bfdde7"/>
          <g id="Group_44920" data-name="Group 44920" transform="translate(2.861 0.431)">
            <circle id="Ellipse_1152" data-name="Ellipse 1152" cx="1.688" cy="1.688" r="1.688" transform="translate(0)" fill="#bfdde7"/>
            <circle id="Ellipse_1153" data-name="Ellipse 1153" cx="1.115" cy="1.115" r="1.115" transform="translate(0.112 22.819)" fill="#bfdde7"/>
            <circle id="Ellipse_1154" data-name="Ellipse 1154" cx="1.642" cy="1.642" r="1.642" transform="translate(20.051 24.123)" fill="#bfdde7"/>
            <circle id="Ellipse_1155" data-name="Ellipse 1155" cx="1.531" cy="1.531" r="1.531" transform="translate(8.309 10.984)" fill="#bfdde7"/>
            <ellipse id="Ellipse_1156" data-name="Ellipse 1156" cx="1.042" cy="1.042" rx="1.042" ry="1.042" transform="translate(10.027 16.228)" fill="#bfdde7"/>
            <circle id="Ellipse_1157" data-name="Ellipse 1157" cx="0.875" cy="0.875" r="0.875" transform="translate(13.466 13.275)" fill="#bfdde7"/>
          </g>
        </g>
      </g>
      <rect id="Rectangle_5821" data-name="Rectangle 5821" width="3.315" height="62.778" rx="1.657" transform="matrix(0.899, -0.438, 0.438, 0.899, 1301.621, 225.749)" fill="url(#linear-gradient)"/>
    </g>
  </g>
</svg>
