<svg xmlns="http://www.w3.org/2000/svg" xmlns:xlink="http://www.w3.org/1999/xlink" width="60" height="60" viewBox="0 0 60 60">
  <defs>
    <clipPath id="clip-path">
      <rect id="Rectangle_5357" data-name="Rectangle 5357" width="60" height="60" transform="translate(-0.261)" fill="#fff" stroke="#707070" stroke-width="1"/>
    </clipPath>
  </defs>
  <g id="Mask_Group_650" data-name="Mask Group 650" transform="translate(0.261)" clip-path="url(#clip-path)">
    <g id="virus_1_" data-name="virus (1)" transform="translate(2.017 2.428)">
      <g id="XMLID_107_" transform="translate(0 0)">
        <g id="Group_44433" data-name="Group 44433">
          <path id="Path_78546" data-name="Path 78546" d="M56,29.253A4.817,4.817,0,0,1,51.845,34.5,4.435,4.435,0,0,1,47.4,31.889l-2.269.2-1.713.827a1.294,1.294,0,0,0-.716.993,15.111,15.111,0,0,1-.864,3.338,1.287,1.287,0,0,0,.074,1.1l.61,1.091,1.7,1.139a3.052,3.052,0,1,1-1.928,3.271l-1.881-1.261-1.184-.145a1.363,1.363,0,0,0-1.108.373,15.32,15.32,0,0,1-3.354,2.423,1.347,1.347,0,0,0-.706,1.108l-.15,2.4.745,2.954a3.791,3.791,0,1,1-3.672.943l-.748-2.971-1.155-1.857a1.691,1.691,0,0,0-1.445-.792h-.009a15.308,15.308,0,0,1-2.958-.289,1.689,1.689,0,0,0-1.558.489l-1.526,1.61-1.709,3.545a3.051,3.051,0,1,1-3.425-1.623l1.719-3.568.338-2.394a1.272,1.272,0,0,0-.454-1.166,15.364,15.364,0,0,1-3.457-3.962,1.269,1.269,0,0,0-1.076-.607l-2.391-.023-2.617.823a4.269,4.269,0,1,1-1.3-3.564l2.778-.874,2.029-1.446a1.044,1.044,0,0,0,.432-.94q-.05-.612-.051-1.236a15.133,15.133,0,0,1,1.385-6.339,1.041,1.041,0,0,0-.01-.889l-.6-1.229L11.539,22.1a3.051,3.051,0,1,1,2.106-3.158l1.808,1.364,1.822.325a15.262,15.262,0,0,1,4.57-2.928l.428-2.6-.54-2.684A4.375,4.375,0,0,1,18.49,9.153a4.275,4.275,0,0,1,3.541-5.016,4.519,4.519,0,0,1,5.324,3.335,4.15,4.15,0,0,1-1.875,4.354l.51,2.532,1.252,2a.448.448,0,0,0,.379.209h0a15.122,15.122,0,0,1,7.844,2.183.442.442,0,0,0,.414.023l1.961-.909,2.289-2.476a3.051,3.051,0,1,1,2.783,2.573l-2.289,2.476-.743,2a.442.442,0,0,0,.058.414,15.146,15.146,0,0,1,2.12,4.1,1.3,1.3,0,0,0,.875.84l1.861.521,2.418-.214a4.675,4.675,0,0,1,3.892-3.186,4.556,4.556,0,0,1,4.9,4.34Z" transform="translate(0 -4.053)"/>
        </g>
      </g>
      <g id="XMLID_8_" transform="translate(16.349 16.464)">
        <g id="Group_44434" data-name="Group 44434">
          <circle id="Ellipse_977" data-name="Ellipse 977" cx="11.274" cy="11.274" r="11.274" fill="#474747"/>
        </g>
      </g>
      <path id="Path_78547" data-name="Path 78547" d="M144.852,157.737a11.277,11.277,0,0,1,9.556-11.144,11.274,11.274,0,1,0,0,22.288A11.277,11.277,0,0,1,144.852,157.737Z" transform="translate(-125.067 -129.999)" fill="#333"/>
      <g id="Group_44435" data-name="Group 44435" transform="translate(5.443 0.82)">
        <circle id="Ellipse_978" data-name="Ellipse 978" cx="3.211" cy="3.211" r="3.211"/>
        <circle id="Ellipse_979" data-name="Ellipse 979" cx="2.121" cy="2.121" r="2.121" transform="translate(0.212 43.41)"/>
        <circle id="Ellipse_980" data-name="Ellipse 980" cx="3.123" cy="3.123" r="3.123" transform="translate(38.145 45.89)"/>
        <circle id="Ellipse_981" data-name="Ellipse 981" cx="2.912" cy="2.912" r="2.912" transform="translate(15.807 20.896)"/>
        <circle id="Ellipse_982" data-name="Ellipse 982" cx="1.982" cy="1.982" r="1.982" transform="translate(19.075 30.871)"/>
        <circle id="Ellipse_983" data-name="Ellipse 983" cx="1.664" cy="1.664" r="1.664" transform="translate(25.616 25.253)"/>
      </g>
    </g>
  </g>
</svg>
