<svg xmlns="http://www.w3.org/2000/svg" xmlns:xlink="http://www.w3.org/1999/xlink" width="60" height="60" viewBox="0 0 60 60">
  <defs>
    <clipPath id="clip-path">
      <rect id="Rectangle_5469" data-name="Rectangle 5469" width="60" height="60" fill="#fff" stroke="#707070" stroke-width="1"/>
    </clipPath>
    <clipPath id="clip-path-2">
      <rect id="Rectangle_5476" data-name="Rectangle 5476" width="30" height="30" transform="translate(0)" fill="#fff" stroke="#707070" stroke-width="1"/>
    </clipPath>
  </defs>
  <g id="Group_45853" data-name="Group 45853" transform="translate(-1307 -794)">
    <g id="Group_45852" data-name="Group 45852" transform="translate(39 587)">
      <g id="Mask_Group_44500" data-name="Mask Group 44500" transform="translate(1268 207)" clip-path="url(#clip-path)">
        <g id="pin_1_" data-name="pin (1)" transform="translate(5.738)">
          <path id="Path_79188" data-name="Path 79188" d="M90.385,7.1A24.232,24.232,0,1,0,63.1,46.24a8.049,8.049,0,0,1,3.7,3.484l5.113,9.435a1.529,1.529,0,0,0,2.689,0l5.113-9.435a8.151,8.151,0,0,1,3.744-3.507A24.245,24.245,0,0,0,90.385,7.1ZM73.241,40.881a16.64,16.64,0,1,1,16.64-16.64A16.64,16.64,0,0,1,73.241,40.881Z" transform="translate(-49 0)" fill="#ffc700"/>
          <g id="Group_44880" data-name="Group 44880" transform="translate(0 0.001)">
            <path id="Path_79189" data-name="Path 79189" d="M70.414,49.73a8.049,8.049,0,0,0-3.7-3.484A24.234,24.234,0,0,1,75.061.074,24.237,24.237,0,0,0,63.1,46.245a8.049,8.049,0,0,1,3.7,3.484l5.113,9.435a1.529,1.529,0,0,0,2.689,0l.465-.859Z" transform="translate(-49 -0.006)" fill="#f4b537"/>
            <path id="Path_79190" data-name="Path 79190" d="M271.453,98.092a16.825,16.825,0,0,0,1.81.1,16.64,16.64,0,0,0,0-33.28,16.826,16.826,0,0,0-1.81.1,16.64,16.64,0,0,1,0,33.083Z" transform="translate(-245.402 -57.31)" fill="#f4b537"/>
          </g>
          <path id="Path_79191" data-name="Path 79191" d="M203.211,155.96a.663.663,0,0,0-.663-.663H199.4a.663.663,0,0,0-.663.663v4.124a.663.663,0,0,0,.663.663h3.144a.663.663,0,0,0,.663-.663Z" transform="translate(-181.205 -137.11)" fill="#576574"/>
          <path id="Path_79192" data-name="Path 79192" d="M279.557,155.96a.663.663,0,0,0-.663-.663H275.75a.663.663,0,0,0-.663.663v4.124a.663.663,0,0,0,.663.663h3.144a.663.663,0,0,0,.663-.663Z" transform="translate(-248.61 -137.11)" fill="#576574"/>
          <path id="Path_79193" data-name="Path 79193" d="M164.375,201.839h-3.144a.663.663,0,0,0-.663.663v4.124a.663.663,0,0,0,.663.663h3.144a.663.663,0,0,0,.663-.663V202.5A.663.663,0,0,0,164.375,201.839Z" transform="translate(-147.502 -178.202)" fill="#576574"/>
          <path id="Path_79194" data-name="Path 79194" d="M317.067,201.839h-3.144a.663.663,0,0,0-.663.663v4.124a.663.663,0,0,0,.663.663h3.144a.663.663,0,0,0,.663-.663V202.5A.663.663,0,0,0,317.067,201.839Z" transform="translate(-282.313 -178.202)" fill="#576574"/>
          <path id="Path_79195" data-name="Path 79195" d="M240.721,201.839h-3.144a.663.663,0,0,0-.663.663v4.124a.663.663,0,0,0,.663.663h3.144a.663.663,0,0,0,.663-.663V202.5A.663.663,0,0,0,240.721,201.839Z" transform="translate(-214.908 -178.202)" fill="#576574"/>
          <path id="Path_79196" data-name="Path 79196" d="M201.6,160.084V155.96a.663.663,0,0,1,.663-.663H199.4a.663.663,0,0,0-.663.663v4.124a.663.663,0,0,0,.663.663h2.855A.663.663,0,0,1,201.6,160.084Z" transform="translate(-181.205 -137.11)" fill="#3e4b5a"/>
          <path id="Path_79197" data-name="Path 79197" d="M277.942,160.084V155.96a.663.663,0,0,1,.663-.663H275.75a.663.663,0,0,0-.663.663v4.124a.663.663,0,0,0,.663.663h2.855A.663.663,0,0,1,277.942,160.084Z" transform="translate(-248.61 -137.11)" fill="#3e4b5a"/>
          <path id="Path_79198" data-name="Path 79198" d="M163.422,206.626V202.5a.663.663,0,0,1,.663-.663H161.23a.663.663,0,0,0-.663.663v4.124a.663.663,0,0,0,.663.663h2.855A.663.663,0,0,1,163.422,206.626Z" transform="translate(-147.502 -178.202)" fill="#3e4b5a"/>
          <path id="Path_79199" data-name="Path 79199" d="M316.115,206.626V202.5a.663.663,0,0,1,.663-.663h-2.855a.663.663,0,0,0-.663.663v4.124a.663.663,0,0,0,.663.663h2.855A.663.663,0,0,1,316.115,206.626Z" transform="translate(-282.313 -178.202)" fill="#3e4b5a"/>
          <path id="Path_79200" data-name="Path 79200" d="M239.768,206.626V202.5a.663.663,0,0,1,.663-.663h-2.855a.663.663,0,0,0-.663.663v4.124a.663.663,0,0,0,.663.663h2.855A.663.663,0,0,1,239.768,206.626Z" transform="translate(-214.907 -178.202)" fill="#3e4b5a"/>
        </g>
      </g>
    </g>
    <g id="Group_45890" data-name="Group 45890" transform="translate(5 587)">
      <g id="Mask_Group_44507" data-name="Mask Group 44507" transform="translate(1302 237)" clip-path="url(#clip-path-2)">
        <g id="virus_1_" data-name="virus (1)" transform="translate(0.834 1.22)">
          <g id="XMLID_107_" transform="translate(0 0)">
            <g id="Group_44918" data-name="Group 44918">
              <path id="Path_79227" data-name="Path 79227" d="M28.145,16.718a2.421,2.421,0,0,1-2.09,2.638,2.229,2.229,0,0,1-2.235-1.313l-1.141.1-.861.415a.65.65,0,0,0-.36.5,7.594,7.594,0,0,1-.434,1.677.647.647,0,0,0,.037.551l.307.548.853.572a1.534,1.534,0,1,1-.969,1.644l-.945-.634-.595-.073a.685.685,0,0,0-.557.188,7.7,7.7,0,0,1-1.685,1.218.677.677,0,0,0-.355.557l-.076,1.205.374,1.484a1.905,1.905,0,1,1-1.845.474l-.376-1.493-.58-.933a.85.85,0,0,0-.726-.4h0A7.693,7.693,0,0,1,12.4,25.5a.849.849,0,0,0-.783.246l-.767.809-.859,1.781a1.534,1.534,0,1,1-1.722-.816l.864-1.793.17-1.2a.639.639,0,0,0-.228-.586,7.722,7.722,0,0,1-1.737-1.991.638.638,0,0,0-.541-.305l-1.2-.012-1.315.414a2.145,2.145,0,1,1-.652-1.791l1.4-.439,1.02-.727a.525.525,0,0,0,.217-.472q-.025-.308-.026-.621a7.605,7.605,0,0,1,.7-3.186.523.523,0,0,0-.005-.447l-.3-.618-.82-.619a1.534,1.534,0,1,1,1.059-1.587l.909.686.916.163a7.67,7.67,0,0,1,2.3-1.472l.215-1.306-.271-1.349a2.2,2.2,0,0,1-1.63-1.643A2.148,2.148,0,0,1,11.072,4.1a2.271,2.271,0,0,1,2.676,1.676,2.086,2.086,0,0,1-.942,2.188l.256,1.272.629,1a.225.225,0,0,0,.191.105h0a7.6,7.6,0,0,1,3.942,1.1.222.222,0,0,0,.208.012l.985-.457,1.15-1.245a1.533,1.533,0,1,1,1.4,1.293l-1.15,1.245-.374,1.005a.222.222,0,0,0,.029.208,7.612,7.612,0,0,1,1.066,2.061.653.653,0,0,0,.44.422l.935.262,1.215-.107a2.349,2.349,0,0,1,1.956-1.6,2.29,2.29,0,0,1,2.461,2.181Z" transform="translate(0 -4.053)" fill="#ab0a0a"/>
            </g>
          </g>
          <g id="XMLID_8_" transform="translate(8.216 8.274)">
            <g id="Group_44919" data-name="Group 44919">
              <ellipse id="Ellipse_1151" data-name="Ellipse 1151" cx="5.666" cy="5.666" rx="5.666" ry="5.666" fill="#dc3030"/>
            </g>
          </g>
          <path id="Path_79228" data-name="Path 79228" d="M143.143,152.129a5.667,5.667,0,0,1,4.8-5.6,5.666,5.666,0,1,0,0,11.2A5.667,5.667,0,0,1,143.143,152.129Z" transform="translate(-133.2 -138.189)" fill="#ce2424"/>
          <g id="Group_44920" data-name="Group 44920" transform="translate(2.735 0.412)">
            <circle id="Ellipse_1152" data-name="Ellipse 1152" cx="1.614" cy="1.614" r="1.614" transform="translate(0)" fill="#ab0a0a"/>
            <circle id="Ellipse_1153" data-name="Ellipse 1153" cx="1.066" cy="1.066" r="1.066" transform="translate(0.107 21.816)" fill="#ab0a0a"/>
            <circle id="Ellipse_1154" data-name="Ellipse 1154" cx="1.57" cy="1.57" r="1.57" transform="translate(19.17 23.063)" fill="#ab0a0a"/>
            <circle id="Ellipse_1155" data-name="Ellipse 1155" cx="1.463" cy="1.463" r="1.463" transform="translate(7.944 10.502)" fill="#ab0a0a"/>
            <ellipse id="Ellipse_1156" data-name="Ellipse 1156" cx="0.996" cy="0.996" rx="0.996" ry="0.996" transform="translate(9.586 15.515)" fill="#ab0a0a"/>
            <circle id="Ellipse_1157" data-name="Ellipse 1157" cx="0.836" cy="0.836" r="0.836" transform="translate(12.874 12.691)" fill="#ab0a0a"/>
          </g>
        </g>
      </g>
    </g>
  </g>
</svg>
