<svg xmlns="http://www.w3.org/2000/svg" xmlns:xlink="http://www.w3.org/1999/xlink" width="60" height="60" viewBox="0 0 60 60">
  <defs>
    <clipPath id="clip-path">
      <rect id="Rectangle_6118" data-name="Rectangle 6118" width="60" height="60" transform="translate(7971 -1026)" fill="#fff" stroke="#707070" stroke-width="1"/>
    </clipPath>
  </defs>
  <g id="Group_47686" data-name="Group 47686" transform="translate(7639 11590)">
    <g id="Group_47685" data-name="Group 47685" transform="translate(-7727 -11592)">
      <g id="Mask_Group_44721" data-name="Mask Group 44721" transform="translate(-7883 1028)" clip-path="url(#clip-path)">
        <g id="group_3_" data-name="group (3)" transform="translate(7971 -1021.446)">
          <path id="Path_80733" data-name="Path 80733" d="M326.893,273.162H320.8a8.693,8.693,0,0,0-8.68,8.663v9.552a5.234,5.234,0,0,0,5.218,5.208h13.013a5.211,5.211,0,0,0,5.191-5.208v-9.552A8.67,8.67,0,0,0,326.893,273.162Z" transform="translate(-275.546 -245.716)" fill="#076a59"/>
          <path id="Path_80734" data-name="Path 80734" d="M323.848,273.161H320.8a8.693,8.693,0,0,0-8.68,8.663v9.552a5.234,5.234,0,0,0,5.218,5.208h6.507V273.161Z" transform="translate(-275.546 -245.716)" fill="#07816c"/>
          <path id="Path_80735" data-name="Path 80735" d="M353.542,121.737a7.783,7.783,0,1,0,7.783,7.783A7.792,7.792,0,0,0,353.542,121.737Z" transform="translate(-305.24 -112.037)" fill="#076a59"/>
          <path id="Path_80736" data-name="Path 80736" d="M353.542,121.737a7.783,7.783,0,0,0,0,15.567Z" transform="translate(-305.24 -112.037)" fill="#07816c"/>
          <path id="Path_80737" data-name="Path 80737" d="M14.77,273.162H8.68A8.693,8.693,0,0,0,0,281.825v9.552a5.234,5.234,0,0,0,5.218,5.208H18.232a5.211,5.211,0,0,0,5.191-5.208v-9.552A8.67,8.67,0,0,0,14.77,273.162Z" transform="translate(0 -245.716)" fill="#07816c"/>
          <path id="Path_80738" data-name="Path 80738" d="M11.725,273.161H8.68A8.694,8.694,0,0,0,0,281.824v9.552a5.234,5.234,0,0,0,5.218,5.208h6.507S11.725,273.161,11.725,273.161Z" transform="translate(0 -245.716)" fill="#329282"/>
          <path id="Path_80739" data-name="Path 80739" d="M156.185,234.766h-10.6a8.664,8.664,0,0,0-8.654,8.654v17.522a1.731,1.731,0,0,0,1.731,1.731h24.445a1.731,1.731,0,0,0,1.731-1.731V243.42A8.664,8.664,0,0,0,156.185,234.766Z" transform="translate(-120.885 -211.82)" fill="#025e4e"/>
          <path id="Path_80740" data-name="Path 80740" d="M150.944,234.766h-5.358a8.664,8.664,0,0,0-8.654,8.654v17.522a1.731,1.731,0,0,0,1.731,1.731h12.281V234.766Z" transform="translate(-120.885 -211.82)" fill="#076a59"/>
          <path id="Path_80741" data-name="Path 80741" d="M177.6,38.96A10.407,10.407,0,1,0,188,49.367,10.419,10.419,0,0,0,177.6,38.96Z" transform="translate(-147.597 -38.96)" fill="#025e4e"/>
          <path id="Path_80742" data-name="Path 80742" d="M177.6,38.96a10.407,10.407,0,0,0,0,20.815Z" transform="translate(-147.597 -38.96)" fill="#076a59"/>
          <path id="Path_80743" data-name="Path 80743" d="M41.419,121.737A7.783,7.783,0,1,0,49.2,129.52,7.792,7.792,0,0,0,41.419,121.737Z" transform="translate(-29.694 -112.037)" fill="#07816c"/>
          <path id="Path_80744" data-name="Path 80744" d="M41.419,121.737a7.783,7.783,0,0,0,0,15.567Z" transform="translate(-29.694 -112.037)" fill="#329282"/>
        </g>
      </g>
    </g>
    <g id="_285647_globe_icon" data-name="285647_globe_icon" transform="translate(-7640.013 -12583.396)">
      <g id="Group_47315" data-name="Group 47315" transform="translate(1.013 1029.396)">
        <path id="Path_94540" data-name="Path 94540" d="M26.2,14.2a12,12,0,1,1-12-12A12,12,0,0,1,26.2,14.2Z" transform="translate(-2.2 -2.2)" fill="#3498db"/>
        <path id="Path_94541" data-name="Path 94541" d="M13,1a12.051,12.051,0,0,0-3.579.547c.1.152.123.16.239.342.582.914.662,1.005.818,1.025.093.012.343.03.58.034H11.5l.307-.751.308-.752L13.2,1.1c.109-.034.133-.036.238-.068C13.294,1.029,13.149,1,13,1Zm2.455.273a2.8,2.8,0,0,0,.409.717c.321.481.456.7.512.683a11.674,11.674,0,0,0,1.091-.786,11.909,11.909,0,0,0-1.978-.615S15.455,1.272,15.454,1.273Zm-8.9,1.605A12.115,12.115,0,0,0,3.8,5.27,12,12,0,0,0,1.17,11.043a6.19,6.19,0,0,1,.682-.035c1.032,0,.934-.045,1.3.479.2.292.208.291.511.307.361.019.357.007.171-.58a3.312,3.312,0,0,1-.136-.513c0-.071.2-.267.614-.615.683-.581.625-.483.511-1.059-.024-.119.03-.22.239-.444.249-.266.249-.256.511-.239h.273L5.875,7.9a3.747,3.747,0,0,1,.034-.478c.015-.015.7-.43,1.5-.888S8.9,5.686,8.943,5.645c.064-.063-.089-.281-.989-1.366-.579-.7-1.058-1.3-1.091-1.332-.006-.007-.241-.052-.307-.068Zm12.749.649c-.041-.035-.145.041-.34.239l-.273.307.2.239c.119.141.285.324.375.41.2.19.207.238.034.581a.7.7,0,0,0-.1.342c.021.057.147.069.545.068a2.8,2.8,0,0,0,.579-.034.813.813,0,0,0,.1-.376l.035-.376-.409-.307a1.264,1.264,0,0,1-.545-.683A1.819,1.819,0,0,0,19.306,3.528Zm-1.091.956a2.467,2.467,0,0,0-.477.82.89.89,0,0,0,.273.307,1.283,1.283,0,0,0,.307.2,2.261,2.261,0,0,0,.477-.512c.033-.06-.038-.188-.238-.444A1.724,1.724,0,0,0,18.215,4.484Zm3.512.307c.014.047.068.116.068.137a2.868,2.868,0,0,1-.511.512c-.428.385-.48.446-.716.478a1.179,1.179,0,0,0-.683.342,2.958,2.958,0,0,0-.443.41c-.011.035.086.178.205.307.249.27.268.354.1.649l-.137.2L19.2,7.8c-.233-.008-.543-.018-.683-.034-.317-.038-.308-.029-.034.717.406,1.1.442,1.2.512,1.2a12.837,12.837,0,0,0,.988-.888A11.422,11.422,0,0,1,21.011,7.9a1.186,1.186,0,0,1,.2.068c.164.059.191.04.478-.2L22,7.524l.307.2c.7.482.788.584.852.888.1.469.163.683.205.683a4.242,4.242,0,0,0,.545-.752c.052-.1-.012-.16-.409-.717a4.6,4.6,0,0,1-.443-.717c0-.033.055-.1.1-.137.063-.053.177.047.41.307a12.112,12.112,0,0,0-1.841-2.493Zm1.091,3.928c-.07,0-.309.352-.273.41a.491.491,0,0,0,.17.1.809.809,0,0,0,.205.068c.082,0,.1-.024.068-.171-.053-.249-.122-.411-.17-.41Zm-.921.41-.886.068-.887.1-1.636,1.4-1.6,1.366.035,1.366c.021.75.049,1.4.068,1.435a5.174,5.174,0,0,0,.545.547c.293.257.6.5.682.58.148.137.191.15,1.466.2l1.261.069.579.341c.308.2.565.4.58.41s-.074.094-.205.205l-.238.2.374.445c.207.245.478.591.614.751l.238.273v.956a11.895,11.895,0,0,0,1.739-9.735,1.313,1.313,0,0,0-.2-.137,1.594,1.594,0,0,0-.375.273,1.684,1.684,0,0,1-.375.273c-.034,0-.331-.094-.682-.205l-.648-.2V9.847a.532.532,0,0,0-.2-.512ZM4.579,11.417c-.025.016-.034.109-.034.239,0,.227-.005.248.239.376.3.156.351.183.307.068A2.315,2.315,0,0,0,4.579,11.417Zm-1.261.82a1.293,1.293,0,0,0-.136.649,4.583,4.583,0,0,0,.682.171,1.651,1.651,0,0,0,.648.069c.091-.071.191-.426.136-.479A7.47,7.47,0,0,0,3.318,12.237Zm-1.4.41-.375.205a2.266,2.266,0,0,1-.511.238.177.177,0,0,1-.034,0,12.076,12.076,0,0,0,.136,1.538l.239.137.375-.035h.375l.239.479a2.52,2.52,0,0,0,.307.547,3.662,3.662,0,0,0,.682.034H3.9v.445a1,1,0,0,1-.239.82,1.41,1.41,0,0,0-.239.512c0,.074.287.8.614,1.606l.58,1.435.58.307c.43.209.579.3.579.375,0,.026-.14.767-.2,1.162A11.864,11.864,0,0,0,9.386,24.5c1.253-1.344,2.446-2.648,2.625-2.835l.273-.273.068-.717c.052-.4.1-.776.1-.82a2.836,2.836,0,0,1,.375-.479,3.2,3.2,0,0,0,.34-.444c0-.019-.542-.391-1.193-.82l-1.193-.785h-.409c-.281,0-.426-.017-.477-.069a1.71,1.71,0,0,1-.136-.58,4,4,0,0,0-.1-.581,2.629,2.629,0,0,0-.614-.034,3.562,3.562,0,0,1-.682-.034,1.513,1.513,0,0,1-.1-.547,1.8,1.8,0,0,0-.1-.513,4.6,4.6,0,0,0-.852-.068A2.983,2.983,0,0,1,6.045,14.7L5.6,14.526l-.58.273-.614.239H3.761c-.74,0-.682.081-.784-.581a1.539,1.539,0,0,0-.1-.444,1.651,1.651,0,0,0-.341-.068l-.273-.035.034-.2a4.747,4.747,0,0,1,.034-.513l.034-.307-.2-.137-.239-.1Zm3.409.308a.643.643,0,0,0-.068.238l-.034.171,1.057.411c1.075.387,1.263.408,1.432.238.064-.064.053-.07-.1-.137-.1-.042-.626-.3-1.193-.547A4.21,4.21,0,0,0,5.329,12.955Z" transform="translate(-1 -1)" fill="#2ecc71"/>
      </g>
    </g>
  </g>
</svg>
