<svg xmlns="http://www.w3.org/2000/svg" xmlns:xlink="http://www.w3.org/1999/xlink" width="40" height="40" viewBox="0 0 40 40"><defs><clipPath id="a"><rect width="40" height="40" fill="#fff" stroke="#707070" stroke-width="1"/></clipPath></defs><g clip-path="url(#a)"><g transform="translate(0.087)"><g transform="translate(0 0)"><g transform="translate(2.38 2.362)"><path d="M52.747,42.662v-3.3H49.88a1.09,1.09,0,0,1-1.05-.8,8.992,8.992,0,0,0-.829-2,1.084,1.084,0,0,1,.186-1.3l2.027-2.027-2.334-2.334-2.027,2.027a1.084,1.084,0,0,1-1.3.186,8.994,8.994,0,0,0-2-.829,1.09,1.09,0,0,1-.8-1.05V28.382h-3.3v2.866a1.09,1.09,0,0,1-.8,1.05,8.99,8.99,0,0,0-2,.829,1.084,1.084,0,0,1-1.3-.186l-2.027-2.027-2.334,2.334,2.027,2.027a1.084,1.084,0,0,1,.186,1.3,8.992,8.992,0,0,0-.829,2,1.09,1.09,0,0,1-1.05.8H27.487v3.3h2.866a1.09,1.09,0,0,1,1.05.8,8.99,8.99,0,0,0,.829,2,1.084,1.084,0,0,1-.186,1.3l-2.027,2.027,2.334,2.334,2.027-2.027a1.084,1.084,0,0,1,1.3-.186,8.992,8.992,0,0,0,2,.829,1.09,1.09,0,0,1,.8,1.05v2.866h3.3V50.775a1.09,1.09,0,0,1,.8-1.05,8.99,8.99,0,0,0,2-.829,1.084,1.084,0,0,1,1.3.186l2.027,2.027,2.334-2.334-2.027-2.027a1.084,1.084,0,0,1-.186-1.3,8.992,8.992,0,0,0,.829-2,1.09,1.09,0,0,1,1.05-.8h2.866Z" transform="translate(-27.487 -28.382)" fill="#ab0a0a"/></g><g transform="translate(10.048 10.03)"><circle cx="4.962" cy="4.962" r="4.962" fill="#df3030"/></g><g transform="translate(12.647)"><circle cx="2.362" cy="2.362" r="2.362" fill="#df3030"/></g><g transform="translate(12.612 25.259)"><circle cx="2.362" cy="2.362" r="2.362" fill="#8659b9"/></g><g transform="translate(3.712 3.687)"><circle cx="2.362" cy="2.362" r="2.362" fill="#df3030"/></g><g transform="translate(21.548 21.573)"><circle cx="2.362" cy="2.362" r="2.362" fill="#8659b9"/></g><g transform="translate(0 12.612)"><circle cx="2.362" cy="2.362" r="2.362" fill="#df3030"/></g><g transform="translate(25.259 12.647)"><circle cx="2.362" cy="2.362" r="2.362" fill="#8659b9"/></g><g transform="translate(3.687 21.548)"><circle cx="2.362" cy="2.362" r="2.362" fill="#df3030"/></g><g transform="translate(21.573 3.712)"><circle cx="2.362" cy="2.362" r="2.362" fill="#df3030"/></g></g><g transform="translate(34.262 32.385)"><path d="M398.577,375.146l-1.442.572a2.232,2.232,0,0,0,.088,4.183l1.848.644a22.164,22.164,0,0,0,2.284-2.62Z" transform="translate(-395.726 -375.146)" fill="#46596d"/></g><g transform="translate(30.1 32.719)"><path d="M350.1,379l-2.449,2.449,4.846,4.846a22.2,22.2,0,0,0,2.666-2.232Z" transform="translate(-347.654 -378.998)" fill="#2e445a"/></g><g transform="translate(30.1 30.27)"><path d="M352.552,350.713l-4.9,4.9,2.028,2.028a13.132,13.132,0,0,0,4.985-4.81Z" transform="translate(-347.654 -350.713)" fill="#2e445a"/></g><g transform="translate(12.632 12.631)"><path d="M157.021,146.985a11.8,11.8,0,0,0-11.118,11.1,1.09,1.09,0,0,1,.727,1.028v2.866h3.3V159.11a1.09,1.09,0,0,1,.8-1.05,8.989,8.989,0,0,0,2-.829,1.084,1.084,0,0,1,1.3.186l2.027,2.027,2.334-2.334-2.027-2.027a1.084,1.084,0,0,1-.186-1.3,8.994,8.994,0,0,0,.829-2,1.09,1.09,0,0,1,1.05-.8h2.866v-3.3h-2.866a1.091,1.091,0,0,1-1.023-.711Z" transform="translate(-145.903 -146.985)" fill="#fa968c"/></g><g transform="translate(13.573 13.564)"><path d="M156.763,163.937a4.963,4.963,0,0,0,6.189-6.178A11.84,11.84,0,0,0,156.763,163.937Z" transform="translate(-156.763 -157.759)" fill="#fab9af"/></g><g transform="translate(12.612 12.647)"><g transform="translate(0 12.612)"><circle cx="2.362" cy="2.362" r="2.362" fill="#fa735f"/></g><g transform="translate(8.936 8.925)"><circle cx="2.362" cy="2.362" r="2.362" fill="#fa735f"/></g><g transform="translate(12.647)"><circle cx="2.362" cy="2.362" r="2.362" fill="#fa735f"/></g></g><g transform="translate(13.248 11.34)"><path d="M156.035,140.049a9.686,9.686,0,0,1,1.353-1.695,9.607,9.607,0,0,1,16.4,6.793,9.68,9.68,0,0,1-.248,2.182,2.207,2.207,0,0,1,1.6-.734A2.1,2.1,0,0,1,177,147.724a13.072,13.072,0,0,0-23.978-9.38,2.08,2.08,0,0,1,.9-.213A2.155,2.155,0,0,1,156.035,140.049Z" transform="translate(-153.019 -132.077)" fill="#7da6b8"/></g><g transform="translate(11.34 16.648)"><path d="M153.489,202.932a9.609,9.609,0,1,1-17.583-6.895,1.731,1.731,0,0,0-2.924-1.852,13.071,13.071,0,1,0,23.91,9.386,1.731,1.731,0,0,0-3.4-.638Z" transform="translate(-130.978 -193.381)" fill="#175a76"/></g></g></g></svg>