<svg xmlns="http://www.w3.org/2000/svg" width="30" height="30" viewBox="0 0 30 30"><g transform="translate(-3625.777 -853.717)"><g transform="translate(3625.777 853.717)"><path d="M136,76a15,15,0,1,0,15,15A15.017,15.017,0,0,0,136,76Zm0,26.667A11.667,11.667,0,1,1,147.667,91,11.68,11.68,0,0,1,136,102.667Z" transform="translate(-121 -76)" fill="#d6d2d2"/></g><g transform="translate(3634.243 871.516)"><path d="M211.674,226.463a8.9,8.9,0,0,1-12.579,0,1.779,1.779,0,1,1,2.516-2.516,5.344,5.344,0,0,0,7.547,0,1.779,1.779,0,0,1,2.516,2.516Z" transform="translate(-198.574 -223.426)" fill="#d6d2d2"/></g><g transform="translate(3634.181 864.039)"><g transform="translate(0 0)"><ellipse cx="2" cy="2" rx="2" ry="2" fill="#d6d2d2"/></g></g><g transform="translate(3644.018 864.039)"><g transform="translate(0 0)"><ellipse cx="2" cy="2" rx="2" ry="2" fill="#d6d2d2"/></g></g></g></svg>