<svg xmlns="http://www.w3.org/2000/svg" xmlns:xlink="http://www.w3.org/1999/xlink" width="24" height="24" viewBox="0 0 24 24">
  <defs>
    <clipPath id="clip-path">
      <rect id="Rectangle_5392" data-name="Rectangle 5392" width="24" height="24" fill="#7da6b8" stroke="#707070" stroke-width="1"/>
    </clipPath>
  </defs>
  <g id="Mask_Group_44459" data-name="Mask Group 44459" clip-path="url(#clip-path)">
    <g id="calendar_2_" data-name="calendar (2)" transform="translate(1.184 0.516)">
      <path id="Path_78829" data-name="Path 78829" d="M19.155,62.5H2.479A2.481,2.481,0,0,1,0,60.02V45.147a2.481,2.481,0,0,1,2.479-2.479H19.155a2.481,2.481,0,0,1,2.479,2.479V60.02A2.481,2.481,0,0,1,19.155,62.5ZM2.479,44.02a1.128,1.128,0,0,0-1.127,1.127V60.02a1.128,1.128,0,0,0,1.127,1.127H19.155a1.128,1.128,0,0,0,1.127-1.127V45.147a1.128,1.128,0,0,0-1.127-1.127Zm0,0" transform="translate(0 -40.865)" fill="#7da6b8"/>
      <path id="Path_78830" data-name="Path 78830" d="M20.958,172.02H.676a.676.676,0,1,1,0-1.352H20.958a.676.676,0,1,1,0,1.352Zm0,0" transform="translate(0 -163.457)" fill="#7da6b8"/>
      <path id="Path_78831" data-name="Path 78831" d="M107.344,5.408a.676.676,0,0,1-.676-.676V.676a.676.676,0,1,1,1.352,0V4.732A.676.676,0,0,1,107.344,5.408Zm0,0" transform="translate(-102.161)" fill="#7da6b8"/>
      <path id="Path_78832" data-name="Path 78832" d="M374.008,5.408a.676.676,0,0,1-.676-.676V.676a.676.676,0,1,1,1.352,0V4.732A.676.676,0,0,1,374.008,5.408Zm0,0" transform="translate(-357.557)" fill="#7da6b8"/>
    </g>
  </g>
</svg>
