<svg xmlns="http://www.w3.org/2000/svg" xmlns:xlink="http://www.w3.org/1999/xlink" width="24" height="24" viewBox="0 0 24 24">
  <defs>
    <clipPath id="clip-path">
      <rect id="Rectangle_6003" data-name="Rectangle 6003" width="24" height="24" fill="#fff" stroke="#707070" stroke-width="1"/>
    </clipPath>
  </defs>
  <g id="Mask_Group_44682" data-name="Mask Group 44682" clip-path="url(#clip-path)">
    <g id="Group_46604" data-name="Group 46604" transform="translate(1.592 3.413)">
      <path id="Path_80570" data-name="Path 80570" d="M13.771,16.979H5.687a6.06,6.06,0,0,1-1.334-.138,3.44,3.44,0,0,1-.736-.2C2.394,16.179.95,15.048.95,12.233V7.5C.95,4.489,2.679,2.76,5.687,2.76h8.084c2.538,0,4.176,1.214,4.617,3.421a6.533,6.533,0,0,1,.12,1.315v4.737C18.508,15.259,16.788,16.979,13.771,16.979ZM5.7,4.158c-2.263,0-3.357,1.094-3.357,3.357v4.737c0,1.646.579,2.658,1.766,3.109a3.172,3.172,0,0,0,.524.138,5.057,5.057,0,0,0,1.067.11H13.78c2.263,0,3.357-1.094,3.357-3.357V7.515a5.14,5.14,0,0,0-.092-1.039c-.313-1.564-1.38-2.318-3.265-2.318Z" transform="translate(-0.95 -2.76)" fill="#fff"/>
      <path id="Path_80571" data-name="Path 80571" d="M16.78,19.99H8.7a5.8,5.8,0,0,1-2.079-.34,3.941,3.941,0,0,1-2.538-3.1.68.68,0,0,1,.193-.625.671.671,0,0,1,.635-.175,4.947,4.947,0,0,0,1.03.1h8.084c2.263,0,3.357-1.094,3.357-3.357V7.757a5.14,5.14,0,0,0-.092-1.039.707.707,0,0,1,.184-.625.659.659,0,0,1,.625-.184C20.3,6.359,21.517,8,21.517,10.516v4.737C21.517,18.27,19.8,19.99,16.78,19.99ZM5.771,17.23a2.414,2.414,0,0,0,1.343,1.131,4.552,4.552,0,0,0,1.591.248H16.79c2.263,0,3.357-1.094,3.357-3.357V10.516a3.008,3.008,0,0,0-1.38-2.925v4.9c0,3.008-1.729,4.737-4.737,4.737H5.771Z" transform="translate(-1.2 -3.011)" fill="#fff"/>
      <path id="Path_80572" data-name="Path 80572" d="M10.228,13.346a3.118,3.118,0,1,1,3.118-3.118A3.121,3.121,0,0,1,10.228,13.346Zm0-4.856a1.738,1.738,0,1,0,1.738,1.738A1.743,1.743,0,0,0,10.228,8.49Z" transform="translate(-1.445 -3.109)" fill="#fff"/>
      <path id="Path_80573" data-name="Path 80573" d="M4.72,12.977a.7.7,0,0,1-.69-.69V8.24a.69.69,0,0,1,1.38,0v4.047A.689.689,0,0,1,4.72,12.977Z" transform="translate(-1.197 -3.144)" fill="#fff"/>
      <path id="Path_80574" data-name="Path 80574" d="M16.15,12.977a.7.7,0,0,1-.69-.69V8.24a.69.69,0,1,1,1.38,0v4.047A.689.689,0,0,1,16.15,12.977Z" transform="translate(-2.115 -3.144)" fill="#fff"/>
    </g>
  </g>
</svg>
