<svg xmlns="http://www.w3.org/2000/svg" xmlns:xlink="http://www.w3.org/1999/xlink" width="24" height="24" viewBox="0 0 24 24">
  <defs>
    <clipPath id="clip-path">
      <rect id="Rectangle_6171" data-name="Rectangle 6171" width="24" height="24" transform="translate(-2997 5349)" fill="#3a4e63" stroke="#3a4e63" stroke-width="2"/>
    </clipPath>
  </defs>
  <g id="Mask_Group_44766" data-name="Mask Group 44766" transform="translate(2997 -5349)" clip-path="url(#clip-path)">
    <g id="Page-1" transform="translate(-2995.909 5350.091)">
      <g id="_037---Waypoint-Flag" data-name="037---Waypoint-Flag" transform="translate(0 0)">
        <path id="Shape" d="M21.483,10.972a16.323,16.323,0,0,1-3.764-2.586A50,50,0,0,0,19,1.722c.065-.524-.227-.693-.317-.732a.575.575,0,0,0-.69.229c-1.99,2.381-4.716,2.109-7.6,1.82-2.909-.291-5.909-.586-8.134,1.968a1.243,1.243,0,0,0-1.3-.421L.908,4.6A1.243,1.243,0,0,0,.047,6.13l4.44,15.887a1.063,1.063,0,0,0,1.313.74l.388-.109h0a1.065,1.065,0,0,0,.739-1.313L5.553,16.414c2-2.575,4.793-2.3,7.745-2.007s6,.6,8.233-2.077h0a1.215,1.215,0,0,0,.248-.975A.535.535,0,0,0,21.483,10.972ZM6.2,21.788a.335.335,0,0,1-.2.16l-.389.108a.339.339,0,0,1-.417-.235L.747,5.934A.515.515,0,0,1,1.1,5.3l.05-.014a.508.508,0,0,1,.138-.019.516.516,0,0,1,.5.376l.039.141h0L4.1,13.922l2.126,7.609A.337.337,0,0,1,6.2,21.788Zm14.776-9.925c-1.99,2.38-4.717,2.108-7.6,1.82S7.53,13.1,5.314,15.558L3.327,8.45,2.577,5.763c2-2.574,4.793-2.3,7.747-2,2.805.28,5.7.57,7.9-1.713A48.7,48.7,0,0,1,17.016,8.2a.712.712,0,0,0,.212.722,17.36,17.36,0,0,0,3.846,2.666A.544.544,0,0,1,20.972,11.863Z" transform="translate(-0.001 -0.953)" fill="#3a4e63" stroke="#3a4e63" stroke-width="0.5"/>
      </g>
    </g>
  </g>
</svg>
