<svg xmlns="http://www.w3.org/2000/svg" xmlns:xlink="http://www.w3.org/1999/xlink" width="60" height="60" viewBox="0 0 60 60">
  <defs>
    <clipPath id="clip-path">
      <rect id="Rectangle_5952" data-name="Rectangle 5952" width="60" height="60" transform="translate(-12469 -7866)" fill="#fff" stroke="#707070" stroke-width="1"/>
    </clipPath>
  </defs>
  <g id="Mask_Group_44636" data-name="Mask Group 44636" transform="translate(12469 7866)" clip-path="url(#clip-path)">
    <g id="Group_46524" data-name="Group 46524" transform="translate(-12463.324 -7864.378)">
      <path id="Path_80422" data-name="Path 80422" d="M-11902.348-7712.833l4.764-6.08v-26.952l-3.75-1.013.609-5.167h43.871l1.824,2.837v3.344l-3.961.938.84,27.579s4.109,4.818,3.83,6.135-5.775-.911-5.775-.911h-3.951l-5.674,1.925-13.373.811-9.627-1.419-3.039-2.026-5.574,2.634Z" transform="translate(11902.891 7766.087)" fill="#f9e8d2"/>
      <path id="Path_80423" data-name="Path 80423" d="M-11893.5-7733.7c-1.3,1.273,2.279,7.313,2.279,7.313l3.176,2.159,4.078.419,4.2-.419,2.637-1.318,3.178-4.677.3-3.477h-3l-4.436,1.8.66-4.436-.9-5.216-2.637-2.4-2.52,3.117-.6,4.5,1.078,4.856-3.117-1.739Z" transform="translate(11908.206 7771.112)" fill="#d7c39b"/>
      <path id="Path_80399" data-name="Path 80399" d="M530.421,177.326l-.041-.4a8.81,8.81,0,0,0-9.98-7.417l-.066.618a8.557,8.557,0,0,0,.066,1.855,8.808,8.808,0,0,0,9.98,7.417l.041-.417m0-1.658-.032.441a8.657,8.657,0,0,0,.02,1.085l.013.133m0-1.658.026.22a8.756,8.756,0,0,1,0,1.239l-.026.2m0-1.658.008-.092a8.824,8.824,0,0,1,9.4-7.785l.622.065a8.809,8.809,0,0,1-9.357,9.954l-.623-.066-.049-.417M510.2,152.521h40.456v26.969l4.017,6.026a1.686,1.686,0,0,1-1.936,2.534l-5.454-1.817a45.383,45.383,0,0,1-33.712,0l-5.454,1.817a1.686,1.686,0,0,1-1.936-2.534l4.017-6.026Zm20.183,6.742a8.688,8.688,0,0,1,1.764,12.236,8.874,8.874,0,0,1-1.276,1.359l-.488.389a8.69,8.69,0,0,1-1.765-12.236A8.839,8.839,0,0,1,530.381,159.263Zm20.272-13.485a3.371,3.371,0,0,1,3.37,3.37v3.372h-47.2v-3.372a3.371,3.371,0,0,1,3.37-3.37Zm-20.229-13.485q11.616,6.24,15.227,13.486H515.2Q518.81,138.534,530.425,132.294Z" transform="translate(-505.897 -132.294)" fill="rgba(255,0,0,0)" stroke="#e3d6b6" stroke-linejoin="round" stroke-width="1.56"/>
    </g>
  </g>
</svg>
