<svg xmlns="http://www.w3.org/2000/svg" xmlns:xlink="http://www.w3.org/1999/xlink" width="61.192" height="60" viewBox="0 0 61.192 60">
  <defs>
    <clipPath id="clip-path">
      <rect id="Rectangle_6181" data-name="Rectangle 6181" width="60" height="60" fill="#fff" stroke="#707070" stroke-width="1"/>
    </clipPath>
  </defs>
  <g id="Group_47468" data-name="Group 47468" transform="translate(-852 11017)">
    <g id="Mask_Group_44772" data-name="Mask Group 44772" transform="translate(852 -11017)" clip-path="url(#clip-path)">
      <g id="Group_47467" data-name="Group 47467" transform="translate(5.676 1.622)">
        <path id="Path_94884" data-name="Path 94884" d="M-11902.348-7712.833l4.764-6.08v-26.952l-3.75-1.013.609-5.167h43.871l1.824,2.837v3.344l-3.961.938.84,27.579s4.109,4.818,3.83,6.135-5.775-.911-5.775-.911h-3.951l-5.674,1.925-13.373.811-9.627-1.419-3.039-2.026-5.574,2.634Z" transform="translate(11902.891 7766.087)" fill="#f9e8d2"/>
        <path id="Path_94885" data-name="Path 94885" d="M-11893.5-7733.7c-1.3,1.273,2.279,7.313,2.279,7.313l3.176,2.159,4.078.419,4.2-.419,2.637-1.318,3.178-4.677.3-3.477h-3l-4.436,1.8.66-4.436-.9-5.216-2.637-2.4-2.52,3.117-.6,4.5,1.078,4.856-3.117-1.739Z" transform="translate(11908.206 7771.112)" fill="#d7c39b"/>
        <path id="Path_94886" data-name="Path 94886" d="M530.421,177.326l-.041-.4a8.81,8.81,0,0,0-9.98-7.417l-.066.618a8.557,8.557,0,0,0,.066,1.855,8.808,8.808,0,0,0,9.98,7.417l.041-.417m0-1.658-.032.441a8.657,8.657,0,0,0,.02,1.085l.013.133m0-1.658.026.22a8.756,8.756,0,0,1,0,1.239l-.026.2m0-1.658.008-.092a8.824,8.824,0,0,1,9.4-7.785l.622.065a8.809,8.809,0,0,1-9.357,9.954l-.623-.066-.049-.417M510.2,152.521h40.456v26.969l4.017,6.026a1.686,1.686,0,0,1-1.936,2.534l-5.454-1.817a45.383,45.383,0,0,1-33.712,0l-5.454,1.817a1.686,1.686,0,0,1-1.936-2.534l4.017-6.026Zm20.183,6.742a8.688,8.688,0,0,1,1.764,12.236,8.874,8.874,0,0,1-1.276,1.359l-.488.389a8.69,8.69,0,0,1-1.765-12.236A8.839,8.839,0,0,1,530.381,159.263Zm20.272-13.485a3.371,3.371,0,0,1,3.37,3.37v3.372h-47.2v-3.372a3.371,3.371,0,0,1,3.37-3.37Zm-20.229-13.485q11.616,6.24,15.227,13.486H515.2Q518.81,138.534,530.425,132.294Z" transform="translate(-505.898 -132.294)" fill="rgba(255,0,0,0)" stroke="#e3d6b6" stroke-linejoin="round" stroke-width="1.56"/>
      </g>
    </g>
    <g id="Flat" transform="translate(891.141 -10992.358) rotate(14)">
      <g id="Group_47466" data-name="Group 47466" transform="translate(4 4)">
        <g id="Group_47451" data-name="Group 47451">
          <path id="Path_94868" data-name="Path 94868" d="M35.32,36.515l1.326.131-.131-1.326-4.78-4.78-1.2,1.2Z" transform="translate(-19.333 -19.333)" fill="#3f7d97"/>
          <g id="Group_47450" data-name="Group 47450" transform="translate(11.209 11.805)">
            <rect id="Rectangle_6180" data-name="Rectangle 6180" width="0.845" height="6.756" transform="translate(0 0.597) rotate(-45)" fill="#578498"/>
          </g>
          <circle id="Ellipse_1295" data-name="Ellipse 1295" cx="7.5" cy="7.5" r="7.5" fill="#7da6b8"/>
          <path id="Path_94869" data-name="Path 94869" d="M4,14.646a7.6,7.6,0,0,0,12.977,5.376L6.225,9.27A7.576,7.576,0,0,0,4,14.646Z" transform="translate(-4 -7.045)" fill="#175a76"/>
          <path id="Path_94887" data-name="Path 94887" d="M5.912,0A5.912,5.912,0,1,1,0,5.912,5.912,5.912,0,0,1,5.912,0Z" transform="translate(1.689 1.689)" fill="#bfdde7"/>
          <path id="Path_94870" data-name="Path 94870" d="M8,16.281a5.912,5.912,0,0,0,10.093,4.181L9.731,12.1A5.894,5.894,0,0,0,8,16.281Z" transform="translate(-6.311 -8.68)" fill="#afd3df"/>
          <path id="Path_94871" data-name="Path 94871" d="M48.682,48.688h0a1.692,1.692,0,0,0,0-2.39L43.9,41.522a.846.846,0,0,0-1.2,0l-1.2,1.2a.846.846,0,0,0,0,1.2l4.776,4.776A1.7,1.7,0,0,0,48.682,48.688Z" transform="translate(-25.529 -25.534)" fill="#4f6174"/>
          <path id="Path_94872" data-name="Path 94872" d="M41.522,43.87a.846.846,0,0,0,0,1.2L46.3,49.841a1.692,1.692,0,0,0,2.39,0L42.117,43.27Z" transform="translate(-25.534 -26.687)" fill="#152d46"/>
        </g>
      </g>
    </g>
  </g>
</svg>
