<svg xmlns="http://www.w3.org/2000/svg" xmlns:xlink="http://www.w3.org/1999/xlink" width="60" height="60" viewBox="0 0 60 60">
  <defs>
    <clipPath id="clip-path">
      <rect id="Rectangle_6448" data-name="Rectangle 6448" width="60" height="60" transform="translate(810 -19789)" fill="#fff" stroke="#707070" stroke-width="1"/>
    </clipPath>
    <linearGradient id="linear-gradient" x1="0.5" x2="0.5" y2="1" gradientUnits="objectBoundingBox">
      <stop offset="0" stop-color="#041e39"/>
      <stop offset="1" stop-color="#57687a"/>
    </linearGradient>
    <clipPath id="clip-path-2">
      <rect id="Rectangle_6450" data-name="Rectangle 6450" width="40" height="40" transform="translate(789 -20370)" fill="#d5d5d5" stroke="#707070" stroke-width="1"/>
    </clipPath>
  </defs>
  <g id="Group_48439" data-name="Group 48439" transform="translate(-990 19852)">
    <g id="Mask_Group_44809" data-name="Mask Group 44809" transform="translate(180 -63)" clip-path="url(#clip-path)">
      <g id="Group_48432" data-name="Group 48432" transform="translate(812.903 -19786.1)">
        <path id="Path_96405" data-name="Path 96405" d="M256.6,290.694a27.194,27.194,0,1,1,27.193,27.194A27.217,27.217,0,0,1,256.6,290.694Z" transform="translate(-256.6 -263.5)" fill="#7da6b8"/>
        <g id="Group_48431" data-name="Group 48431" transform="translate(0.097 8.516)">
          <path id="Path_96406" data-name="Path 96406" d="M294.9,314.681h0v.1h0v.1h0v.1h.29l.1-.1h.194l.194-.1h.1l.1-.1h0l.1-.1h.1l.1-.1v-.194h0l.1-.1h0a.756.756,0,0,1,.387-.387l.1-.1.387-.387.1-.194.1-.1.1-.1a1.015,1.015,0,0,0,.29-.387h.1l.1-.1h0v-.1h0v-.1h0l.1-.1.1-.1v-.1c0-.1,0-.1.1-.387v-.194h0v-.1h0v-.1h0v-.1h-.1l-.1.1v.194h0l-.1.1h0v-.1h0v.1h0l-.1.1h-.29v.1h0l-.1.1v.193h0l-.1.1h0l-.1.1h-.387l-.1.1-.1.1h0l-.1.1-.1.1h0v.194h0v.1h0v.1h0l-.1.1v.1l-.1.1-.1.1h0l-.1.1-.1.1-.1.1h0l-.1.1v.1h0v.1h0v.1l-.871.677Z" transform="translate(-257.932 -273.551)" fill="url(#linear-gradient)"/>
          <path id="Path_96407" data-name="Path 96407" d="M257.1,296.348h0v-.1h0v-.484h0v-.484h0v-.1h0V294.8h0a2.753,2.753,0,0,0,0,1.548Z" transform="translate(-256.709 -273.026)" fill="url(#linear-gradient)"/>
          <path id="Path_96408" data-name="Path 96408" d="M311.681,292.623v-.387h0v-.1h0v-1.161a26.66,26.66,0,0,0-1.065-7.452h0v.1h0v-.29h0v-.1h0v-.29h0v-.1h0v-.1l-.1-.194h0A35.632,35.632,0,0,0,308,277.042h0l-.1-.1h0l-.1-.1h0l.1.1h0v-.194h0v-.1h0l-.1-.1h0l-.1-.1h0l-.1-.1v-.194l-.1-.194h0v-.1l-.1-.1-.1-.1-.1-.1h0l-.1-.1h0a21.486,21.486,0,0,0-2.71-3.194h0v.1h-.1l-.1-.1h-.194v.1h0v.194h-.194c-.1,0-.1,0-.194.1v.1h0v.1h-.1v.1a.3.3,0,0,1-.194.1h.29l.1.1h-.1v.1h0v.1h-.29v.1l.1.1h.1l.1.1h-.1a.356.356,0,0,1-.29-.1h0l-.1-.1h0l-.1-.1h-.194c.1.194.29.29.387.484h0c-.1-.194-.29-.29-.387-.484h-.387l-.1.1h0l-.1-.1H302v-.1h-.194v.1h.1v.1h0v.1h-.1v.193h0v-.1h0v-.1h0v-.1h0v-.1h-.774v-.1h-.29v-.1h-.194v.1h0v.1l.1.1v.1h.1v.1h-.1v-.1h-.194v.1h0v.1h0l-.1.1h0l-.1.1a.1.1,0,0,1-.1.1h-.1v.194l-.1.1h0v.1h-.29c-.194,0-.194,0-.29.1h0v.1h.1v.1h0l.1.1h.29a.338.338,0,0,1-.194-.1H299.2v.194h.1l-.1.1h-.1a.1.1,0,0,1-.1.1h-.1l-.1-.1h-.1v-.1h0l-.1-.1h0l-.1-.1h-.1l.1.1h.194v.1h-.1v.1h0v.1h.484l.1.1v.194h0l.1.1.1.1h0l.1.1h.194a.1.1,0,0,0-.1.1h-.1l.1.1.1.1.1.1h0v.1h0v.1h0v.1h0v.1H299.2c.1,0,.1-.1.194-.1h0v-.1h0v-.29l-.1-.1h0v-.1h-.1c-.194,0-.194,0-.194-.1l-.1-.1h0l-.1-.1h0l-.1-.1h-.1l-.1-.1h0l-.1-.1h-.29v-.1h0l-.194-.194h-.29a.1.1,0,0,1,.1-.1h-.194v.1l.1.1h0v.1l.1.1h0v.1h0v.1h0v.194h.1l.1.1h.1v.1l.1.1h.1v.1h0l.1-.1h0l.1.1h.29v.194l-.194-.1h0a.1.1,0,0,1-.1-.1h-1.355l-.1-.1h-.387v.1h.387l.1.1h.1v.1h0l.1.1h0l-.1-.1h0l.1.1h-.194v.1h-.29v.1h-.1v-.1h-.29v.1h-.1l-.1.1-.1.1H296v.1h-.1v.194h-.484l.1-.1h.1l.1-.1h0l-.1-.1h0l-.1-.1-.1-.1h-.387v.1h.193l.1.1v.194h0c.1.1.29.1.29.194v.194h-.1l-.1-.1h-.194v.1h0l-.1.1h-.1v.1h0l-.1.1h.1l.193.194h0l-.1.1h-.581l-.1-.1h0v.1h0c.1.1.194.1.29.194h0l-.1-.1h-.29l-.1-.1v-.1h0v-.1l-.1-.1h-.387l-.1-.1h1.452l.1-.1v-.29h0l-.1-.1h-.677l-.1-.1-.1-.1-.387-.1h-.387v.1h0l-.1-.1h-.1v-.1H293.1l-.1.1h-.387l.1-.1h.1v-.1h-.484v.194h0v-.1h-.194v.194h-.1v-.1h0v.1l-.194.194h0l.1-.194.1-.1v-.1h0l-.1.1h0v.194h-.1v-.1h-.194l-.1.1h0v-.194h-.194v.194l-.1.1h0v.194h0v-.1h-.1l-.1.1v.1h0v.1h0v-.1h0l-.1.1h0v-.1h-.1l-.1.1h0v.194h0c-.1,0-.1.1-.194.1h-.1v.1h0l.193-.1h.29v.29h0l-.1.1h-.194l-.1.1h0v.193h0v.484h0v.1h-.194l-.1.1-.1.1h-.1v.1H290v-.1h0v.1h0v.193h0v.1h-.1v.1h-.194l-.1.1h0v.484h0v.194h0v.1h.1v.1h0v.1h0v.1h0v.194h0l.1.1H290l.194-.1h.194l.1-.1.1-.1.1-.1h0l.1-.1h0l.1-.1v0h0v.1h0v.194h0v.29h0l.1.1.1.194h0v.1h0v.1h-.1v.1h-.1l-.1.1h0v.1l.1.1h.193c-.1,0-.1,0-.193.1h.29l.1-.1h0v-.1h0l.1-.194h.29V281.4h0v-.1h.29l.1-.1v-.29h0l-.1.1v-.387h0v-.29h.1l.1-.1.1-.1h0v-.194h0v-.1h0l-.1-.1h0l-.1-.1h-.194v-.194h0v-.1h0v-.1h0v-.1h.1l.1-.1v-.1h.387l.1-.1h0l.1-.1h0v-.1l-.1-.1h0c.194-.194.194-.194.29-.194h.484l.1.1v.193h0l-.1-.1h0v.1h0l-.194.194-.1.1h0l-.1.1-.1.1-.1.1h-.1v.29h0l.1.1v.581h0v.1h0c0,.1,0,.1.1.194H293v.1c.193.1.29,0,.484.1h1.161l.1.1h-.1l-.1.1h-.29l-.1-.1h-.194l-.1.1h-.387v.1h-.1l-.1.1h0l-.1.1h-.1l.1.1h0v.1h.194V281.2h.1l.1.1.1.1h0v.194l.1.1v.1h-.194l-.1-.1h0l-.194-.1h-.1l-.193.194h0v.194h0v.29h0v.29l-.1.1h-.1v.194h-.194v-.1h-.194l-.194.1h-.1c-.1.1-.194.1-.29.194h-.484v-.1h0l-.1-.1-.1.1h-.194l-.1.1h0l-.1.1h-6.1l.1-.1h0v-.1h-.194v-.1h0l-.1-.1h0l.1-.1.1-.1h0v-.484h0v-.484h-.1l-.1.1-.1.1-.1.1H284.1l-.1.1-.1.1v.387h0v.29h0v.1h.1v.1h0v.1h0l-.1.1h-.387v.1h-.484l-.1.1-.1.1h0l-.1.1v.194l-.1.1v.1h-.1l-.1.1h-.194l-.1.1h-.1l-.1.1h-.194l-.1.1v.194l-.1.193-.1.1-.194.1h0v.1h-.484v.1l.1.1h0v.1h0v.1h-.387l-.1-.1h-.581v.1l.1.1v.1h0l.1.1h.387l.1.1h.29v.1h.1v.194h0l.1.1.1.1v.387l-.1.1v.387l-.1.194h0l-.1.1h-1.839l-.1.1h-.1l-.1.1h0v.1l.1.1h0v.677h0c0,.1,0,.1-.1.29l-.1.193-.1.1-.1.1h0l-.1.1v.194h0l.1.1h.1v.484h0v.1h.581c.1,0,.1.1.194.194v.1l.1.194.1.1.1.1h1.355l.1-.1.1-.1h.194v-.29h0v-.1l.1-.1h.1l.1-.1h.1v-.1l-.1-.1-.1-.1v-.194l.193-.194c.194-.194.194-.194.194-.29h0a.338.338,0,0,1,.193-.1c.1,0,.1,0,.194-.1h.1l.194-.1.1-.1.1-.1v-.193h0v-.194h0l.1-.1h.194a.356.356,0,0,1,.29.1h.387l.1-.1h.1l.1-.1.1-.1.1-.1v-.1l.1-.1h.29v.1l.1.1h.194v.1h0l.1.1h-.194l.1.1h.1v-.1h0v.1h0v.1h.1v.1h.1v.1h0l.1.1h.387v.1h.194v.1h0l.1.1h0v.1h.1v.194h0v.1h0v.194h0v.194h0l-.1.1h-.194l-.1.1h-.194l-.1-.1h0l-.1.1h0l-.1.1h0v.1h0l.1.1h.1l.1.1h.1l.1.1h.1v.1l.1.1h.194v-.1h0v-.1h0v-.1l.1-.1h0v-.29h.1v-.29h-.1v-.1h0v-.1h0l.1-.1v-.1h0l.1.1h.194l.194.194h0v-.194l-.1-.194h0l-.1-.1h-.484l-.194-.1-.1-.1h0l.1-.1h0l-.1-.1h-.387l-.1-.1-.1-.1h0l-.1-.1h0l-.1-.1v-.194l-.194-.193-.194-.1-.1-.1h0V287.3h0v-.194h0v-.1h.1l.1-.1h0v.1l.1.1v.1h0v.1h0l.1-.1h0l.1.1h.1v.1l.1.1h0v.194h.29l.1.1h0v.1l.1.1h.484l.1.1h.1c.1.1.194.1.29.194l.1.1.1.1h0v.194h0v.387l.1.1.1.1h0v.1l.1.1h.1l.1.1h0l.1.1v.194l.1.1h.581v.1h0v.1h.29v-.387h.194l.1-.1v-.1h-.194l-.1-.1h0l-.1-.1h-.1l-.1-.1v-.1l-.1-.1h0l-.1-.1h0l-.1-.1v-.1h0l.1.1h.194l.1-.1h0l.1-.1.1-.1h.484l.1.194h.1v.1h-.1v.194h0l-.1.1v.1l.1.1h.1l.1-.1h0v-.1l.1-.1v.29h-.1l-.1.1v.1h.1v-.194h.194v.1h-.1v.1h.194v.194h.1v.1h0v.1h0l-.1.1v.1h0l.194-.1v-.1h.1v.1h-.1l.871.387h.194v.1h0l-.1.1v.1h0l.1-.1v-.1h0V290.3h0l.1.1h.1v.1h0l.1.1h.387l.1-.1h0v-.29h.1l.1.1.1.1h.1l.1.1h.484v-.1l.1-.194.1-.1v-.1h.29l.1-.1h.1v.1h0l-.1.1h0v.1h0v.194h0v.1h0l.1.1v.194l.1.1h.1l-.1.1v.387l-.1.194v.774l-.1.1h-.581l-.1-.1h-.581l-.1.1h-.1l-.1.1-.1.1h-1.742l-.1-.1h-.29l-.1-.1h-.194v-.1h-.194v-.1l-.1-.1h-.484l-.1.1h0l-.1.1h0v.484l-.1.194-.1.1h-.29l-.194-.1h0a1.663,1.663,0,0,0-.774-.194l-.194-.1-.1-.194-.1-.194-.194-.1h-.194c-.1-.1-.1-.1-.29-.1h-.194a.582.582,0,0,1-.387-.1l-.1-.1h-.1v-.1h-.29l-.1-.1.1-.1.1-.1.1-.1v-.29h0v-.1h0l-.1-.194h0v-.1l.1-.1h0l.1-.1V290.4h-.1l-.1.1h0l-.1-.1v-.1l-.193-.1h-.1l-.1.1-.1.1-.29.1v-.1l-.1-.1h-.194l-.1.1h-.194v0h-1.549l-.194.1v.1h-.1l-.1.1H281v.1h0l-.1.1h-.29v-.1h-.581l-.1-.194h0l-.1-.1h-.1a.338.338,0,0,0-.1.194l-.1.194h0l-.1.194-.1.1-.1.1-.1.1h-.194l-.1.1-.194.1-.194.194h0l-.1.194-.1.194h-.1l-.1.1v.387h0v.1l-.1.194-.1.194v.1l-.1.1h0l-.1.1h0l-.194.1-.1.1h-.1l-.1.1-.194.1h-.1l-.1.1-.1.1v.194l-.1.193h-.1l-.194.1h0l-.1.1v.194l-.1.1v.1h0v.194l-.1.1-.1.1h-.1l-.1.1v.194l-.1.1h0l-.1.194v.193l-.194.1v.1l-.1.193v.387h0l.1-.1v-.1h0l.1.1h0v.387h0v.29l.1.194v.677l-.1.1-.1.1-.1.194v.29l-.1.194v.1l-.1.1v.194l.1.1h0v.29h0v.484l.1.194h.1v.1l.1.1h.194v.193h0l.1.1.1.1h0l.1.1v.1h0l.1.1.1.1h0l.1.1h.194v.1h0v.1l.1.1v.29h0v.1h.194v.1l.1.1v.29l.1.1h.1l.1.1.1.1h0l.1.1.1.1h0l.1.1h0c.1.1.29.194.387.29l.194.1h0c.1.194.1.194.29.29l.1.1h.1c.29-.1.29-.1.387-.194l.1-.1.194-.1h.677l.1.1.193.1h0l.1.1.194.1.1-.1.1-.1h.387l.1-.1h0l.194-.1h.194l.1-.1.1-.1h.1a.725.725,0,0,1,.484-.1h.581l.1.1.194.194.1.1.1.194.1.194h0l.1.1h.29l.1-.1h.774v.29h.194v.194h0v.387c0,.1,0,.194-.1.194l-.1.1v.193h.1v.29h0l-.1.1v.194l-.1.1h-.194v.1l.1.194h0v.1l.1.194.1.1.1.1.1.1.1.1.1.1.1.1.1.194.1.194h0l.1.1.1.1h0v.1h0l.1.1.1.1h0v.1l.1.194v.1l.1.194.1.1h0v.1h-.1v.677h0v.484l-.387.386v.1l-.1.1h-.1v.1l-.1.1h0l-.1.1v.1l-.1.1v.194h0v.29h0v.194h0v.29h0v.1h0v.1l.1.194h0l.1.1h0v.1l.1.1h0v.1h0l.1.1h0l.1.1.1.1.1.1h0v.1h0v.1h0v.387h0v.387h0v.194h0l.1.1.1.1h0l.194.194v.194c0,.1.1.1.1.194l.1.1h0v.1h0v.194h.194l.194-.1h1.355l.29-.1.194-.1.193-.1h0l.1-.1c.1-.1.1-.1.194-.1l.1-.1.1-.1.1-.1.1-.1h0l.1-.1a3.5,3.5,0,0,0,.484-.387l.1-.1v-.1l.1-.194h0l.1-.1.194-.1h0l.1-.1h.29l.1-.1h.1l.193-.1v-.1h0l.1-.1c0-.1,0-.1.1-.194h0v-.484h0v-.1h0v-.1l.1-.1h.194l.1-.1.1-.1h0l.1-.1h.1l.1-.1h.1l.1-.1.194-.1h0l.194-.1.1-.1.1-.1h.1l.1-.1h.1l.1-.1h.1l.1-.1.1-.1.1-.1.1-.194v-.1l.1-.1h0v-.387c0-.1.1-.29.1-.387v-.1h0l.1-.1h0l.1-.194-.1-.1h0c-.194-.1-.1-.1-.1-.194v-.194h0v-.1l.1-.1.1-.1h0v-.1h0l.1-.1h.1v-.1l-.1-.1-.1-.1h-.1v-.1h0c0-.1,0-.1.1-.194l.1-.194.1-.1h0l.1-.1.1-.1h0l.1-.1v-.194l.1-.1v-.1h0l.194-.1h.1l.1-.1.1-.1.1-.1.1-.1.1-.1.1-.1h0l.1-.1h0l.1-.1.1-.1.1-.1.194-.194.1-.1.194-.194h0c-.29,0-.677.1-.968.1.29,0,.677-.1.968-.1.871-.677.871-.677,1.064-.968a1.7,1.7,0,0,0,.387-.484l.1-.194.1-.194c.194-.29.194-.29.194-.387l.1-.194.1-.1.1-.194v-.29l.1-.1.194-.387h0l.1-.1v-.29l.1-.1h.1l-.1-.1h0v-.677h-.1l-.1.1h0v.1l-.194.1h-.194l-.1.1h-.194l-.1.1h-.387l-.1.1h0l-.1.1h-.29l-.1.1-.1.1c-.194.1-.194.1-.29.1l-.194-.1-.1-.194v-.1h0l-.1-.1h-.194l.1-.1h.1l.1-.1v-.194h0v-.194l-.1-.1h-.1l-.1-.1h0l-.1-.1-.1-.1a.208.208,0,0,1-.194-.194l-.1-.1h-.29l-.193-.1h-.1l-.1-.1a.582.582,0,0,1-.1-.387.582.582,0,0,0-.1-.387l-.1-.194-.193-.1-.1-.1-.1-.1h0l-.1-.1v-.194l-.1-.29v-.677l-.1-.194-.1-.193-.1-.1-.1-.1-.1-.1h0l-.193-.194v-.29h.1v-.1l-.194-.1-.1-.194-.1-.1-.194-.29-.1-.1-.1-.1-.1-.1-.1-.1-.1-.1-.1-.1v-.194l-.1-.194h0l-.1-.1-.1-.1-.1-.1v-.1l-.1-.194v-.1h0l.1.1h0l.1.1.1.1v.194h0l.1.1.1.1.1.1h.194a.581.581,0,0,1,.1-.387v-.1h0v.387h.29l.1.1.1.1.1.1a4.1,4.1,0,0,1,.484.677l.1.1h0l.1.194h0v.1l.1.1v.1l.194.1h0c.1.1.1.1.29.484l.194.194h0v.677l.1.1.1.1h0l.1.194.1.1.1.1.1.1.1.1.1.1.1.1v.193h0c.1.194.1.194.29.29l.1.1v.194a.355.355,0,0,1,.1.29v.774l.1.193v.194h0v.387h.29l.1-.1.1-.1.1-.1h0l.1-.1.1-.1h.1c.194-.1.194-.1.29-.1h.194l.194-.193h.1c.194-.1.194-.194.29-.29l.1-.1h.29l.1-.1.1-.1h0c.1,0,.1,0,.387-.29h.194v-.29l.1-.1.1-.1c.1,0,.1-.1.194-.1h.1l.1-.1h.387l.1-.1.1-.193v-.1l.1-.1.1-.1.1-.1v-.194l.1-.194.1-.1c.1,0,.1-.1.194-.1v-.484l.1-.29h0v.1h0V296.4c0-.1.1-.194.194-.387l.1-.194v-.194l.1-.1v-.1h-.194l-.1-.1c0-.1-.1-.1-.194-.194v-.194h-.387c-.194-.1-.194-.1-.29-.29-.1-.1-.1-.1-.193-.581v-.1l-.1.1h0l-.1.1-.1.194-.1.1-.1.1-.1.1-.1.1-.1.194h0a.355.355,0,0,0-.29.1h-.1l-.1.1h0v-.193l-.1-.1h-.1v-.387l-.1-.1v-.1h0l-.1-.1a.338.338,0,0,0-.193-.1.1.1,0,0,1-.1.1v.387h0v-.1l-.1-.1-.1-.1v-.29h0v-.1l-.194-.1-.1-.1h0l-.1-.1h0v-.1l-.1-.1-.1-.1h0l-.194-.387h0v-.1h0l.1-.1v-.1h.194l.1-.1h0l.1.1.1.1v.1l.1.1h0v.1l.1.1.1.1.1.1v.1l.1.1h.193c.1,0,.1.1.194.193l.1.1h.29l.1.1h.29l.1-.1.1-.1v-.1h0v.194h0v-.1l.1-.1v-.1h.193v.1l.1.194v.1l.1.1h.194l.1-.1h.1v.1h.871l.1-.1.1-.1c.1,0,.1-.1.194-.1h.29l.1-.1h.194c.1-.1.194-.1.29-.194h.194v.194h.194v.29h0l.1.1h.1v.1l.194.194h.1l.1-.1.1-.1v.1l-.1.194-.1.1h0l-.1.1v.1h.194l.1.1.1.1.1.1.1.1v.1l.1.1h0l.1-.1.1-.1.1-.1h0l.1-.29v-.194h0v-.194h0v.194h0v.194h0v.1h0l.1.194v.484h0v.29h0a1.646,1.646,0,0,1,.1.677v.29l.1.194h0c.1.29.1.581.194.774v.387c0,.29.194.484.194.774v.774c0,.1,0,.1.1.194l.1.1h0l.1-.194v-.194h0l.1-.1h0l.1-.1h0v-.194h0v-.29h0l.1-.1.1-.194h0v-.387a.356.356,0,0,1,.1-.29l.1-.29v-.387h0v-1.065h0l.1-.1v-.194h0l.1-.1.1-.194v-.194h0l.1-.194h0v-.29h0c.1-.1.1-.1.1-.29v-.29l.1-.194v-.194l.1-.1h0l.1-.193h0v-.581h0v-.1h0v-.194h0l.1.1h0v-.194h0v-.194h0v-.387h0v.1h0v-.194h0v.581c0,.1.1.1.1.193v.1h.1v.194h0v-.1h0v.581h0v-.1h0v1.355h.1v-.29h0v-.193h0v.484h0v.387h0v.484h0v.581h0v1.258a.582.582,0,0,1-.1.387v.1h0v-.29h0v.1h0v.194h0v.1c.1-.193.1-.387.194-.581h0v-.194h0v-.1h0v-2.032h0v.1h0v.194h0v.1h0c3.676-.677,3.87-1.838,3.967-2.9Z" transform="translate(-257.294 -272.3)" fill="url(#linear-gradient)"/>
          <path id="Path_96409" data-name="Path 96409" d="M270.023,315.145l-.1-.1-.1-.1h0l-.1-.1h0v-.194h0l.1.1h0v.1h0l.1.1h0v-.1h0l-.1-.1h0l-.1-.1h0l-.1-.1v-.1h0c0-.1,0-.1-.1-.194l-.1-.1-.193-.194a688713.331,688713.331,0,0,1-.194-.194v-.1l-.1-.1h0v-.1h0v-.194h.1l.1.1h.1l-.1-.1h0v-.1h.387v-.1h0l.1-.1-.1-.1-.1-.1v-.484h0v-.1l-.1-.1-.1-.194v-.193l-.1-.194v-.1a.478.478,0,0,1-.1-.29h0l-.1-.1-.1-.194c0-.1-.1-.194-.1-.29h0v-.1l-.1-.193h0l.1-.1h0c.1-.484.387-.968.194-1.452,0,0-.29-.871-.677-1.064h-.194l-.1-.1h0v-.1l-.1-.1h0l-.1-.1a7.915,7.915,0,0,0-.871-.774h-.29a.355.355,0,0,0-.29-.1l-.1-.1c-.1-.1-.194-.194-.29-.1h0l-.1-.1h0v-.194l-.1-.1h0v-.1h0l-.1-.1h0v.1l-.581-.484h-.1l-.1.194v.1l-.1.1h0v-.1h0v-.581l-.29-.1h0l-.1-.1h-.1v-.484l-.1-.194c-.1-.1-.1-.1-.194-.387v-.194l-.1-.193h0l-.1-.1h0v-.1l-.29-.484-.1-.1h0l-.1-.1-.1-.1h0a.356.356,0,0,0-.29-.1h-.29l-.1-.1-.1-.1h-.1v-.193h0v-.1l-.1-.194h0v-.1c0-.1,0-.1-.194-.387l-.1-.194-.1-.1h0v-.1l-.1-.1H261.6v-.1h0v-.1h0v-.1h0v-.1h0v-.1h0v-.1h0v-.1h.1v-.1h-.484v.1h-.1v-.1h0l-.1-.1h-.1a.1.1,0,0,1-.1-.1h0v-.194h0v-.1h0v-.1h0v-.1h0v-.194h0v.29h0v-.194h0v.1h0v-.1h0v-.194h0v-.1h0v-.1l-.1-.194h-.1l-.1.1v.1h0v.1h0v.194h0v.581h0v.194h0v.193h0v.194h0v-.194l-.1-.193v-.484h0v-.1h-.1v.1h0v-.29h0c.1.29.1.484.194.774h0v.1h.1v-.1h0v-.29h0v-.194h0l.1.1v.968l.1.194v.1h0v.29h0v.1h0v.1l.1.387v.1h0v.1h0v.1h0v.387h0v.1a27.445,27.445,0,0,0,11.71,14.032,14.828,14.828,0,0,1-2.613-1.161ZM258.8,299.081h0l-.1-.1h0v-.29h0v-.1h0v-.1h0v.1h0v.194h0v.1h0c.1,0,.1.1.1.194Z" transform="translate(-256.764 -273.145)" fill="url(#linear-gradient)"/>
          <path id="Path_96410" data-name="Path 96410" d="M308.6,276.7h0l.1.1h0l-.1-.1Z" transform="translate(-258.374 -272.442)" fill="url(#linear-gradient)"/>
          <path id="Path_96411" data-name="Path 96411" d="M257,287.132h0v.194h0v.194h0v.1h0v.1h0v.1h0v-.1h0v.1h0v-.29h0v-.1h0v-.1h0v.194h.1v.1h0v.1h0v.1h0V288h.1v.1h0v.194h0v.194h0v.194l-.1.193-.1.194v.1h0v.484h0v.1h0v.387h0v.29h.1v-.194a.356.356,0,0,0,.1-.29,2.68,2.68,0,0,0,.1-.871h0v-.29c.1-.774.1-.774.774-1.548l.1-.1h.194l.1-.1.1-.194h.193l.1-.1h.1c.1-.1.1-.1.1-.29h0v-.387h0v-.29h0v-.29h0l.1-.1h.1l-.1.1-.1.1-.1.194v.387h0l-.1.1h0v.1h0l.1-.1h0l.1-.1.1-.1h0v-.29h0v.1h0v.1h.1l.1-.1.1-.1h0v-.1l.1-.1h0v-.194h0v.1H260l.1-.1h0l.1-.1h0l.1-.1v-.1h0V285h0v-.1h0v-.1h0l.1-.1h0l.1-.1h.194l.1-.1h0v.1h0v.193h.484l.1-.1h.29v.194h.387v.1h-.1c-.1,0-.1,0-.193.1h-.194l-.1.1h0v.29h.29l.1-.1h.1l.1-.1.1-.1h0v.1h.484l.1-.1h.387l.1-.1h0l.1-.1h0v-.194h0l-.1.1-.1.1-.1.1h-.1v.194h0v-.1h-.1v-.1h0l-.1-.1h0v-.1h0v-.1h0v-.193l.1-.1h0v-.1h0l.1-.1h.1v.194h.387l.1-.1h0v-.1h0c0-.1,0-.1-.1-.1h0c-.677,0-.677,0-1.452.484h.1l.1-.1.194-.1h0l.1-.1.194-.1h0l.1-.1h.484l.1-.1.1-.1h.1c.1-.1.194-.1.677.1.193.1.193.1.29.1v.1h.1l.1-.1h.194l.1-.1h.581l.1-.1h0v-.194h0l.1-.1h0v-.1h0v-.29h0v-.194h-.387l.1-.1h.194v-.1h0v0h-.1v-.1h0v-.1h0v-.1h0v-.1h-.1v-.194h0l.1-.1.194-.1h0v-.1h0v-.194h0v-.1h0l.1-.1h0v-.194h0v-.194h0l.1-.1h0v-.1h-.1l-.1.1h-.1l-.194.1-.1.1-.1.1-.1.1h-.387l-.1.1h0v-.194h0v-.1h0v-.194h0l.1-.1.1-.1h0v-.194h.1v-.1h-.194l-.1-.1h.194v-.1h-.194l-.1-.1h-.1l-.1.1-.1.1h-.1l-.1.1h-.1l-.194.1v.1h0l-.1.1-.1.1v.1h0c-.1,0-.194.1-.29.1h-.1c-.194.1-.194.1-.194.484l-.1.194a2.231,2.231,0,0,1-.871.581h-.29l-.1.1h0l-.1.1h0v.1h0v.1l-.1.1h0l-.1.1v.1l-.1.1h-.1l-.194.1h0l-.1.1v.1h0l.1-.1h0l-.1.1h0v-.1h0v-.387h0v-.29h0v-.1h0l.1-.1v-.194h.194l.1-.1V282.2c-.1-.1-.1-.1-.194-.1h-.1l.1-.1h0v-.194h0v-.1h0v-.194h0v-.194h0v-.194h-.29l.1-.1v-.1l.1-.1h0l.1-.1h0v-.1h0v-.1l-.1-.1h.29l.1-.1h.871l.1-.1h.1l.1-.1v-.1h0v-.1h0v.1h0l.1.1h.194l.1-.1h.1l.1-.1h.581l-.1.1h0l-.1.1h-.194l-.1.1H263l-.1.1h.194l-.1.1-.1.1h.387l.1-.1h0v.1h0v.1h.29v-.1h.1v-.194h0v-.1h0l.1-.1v-.1h0l-.1.1h0l.1-.1v-.1h0v.1h0l-.1.1h0v.1h0v-.1h0v-4.258h0l.1-.1h.581l.1-.1v-.194h.29l.1-.1h.1v-.1h0v-.1h0v.29h0v-.1h.1l.1-.1h0v.193h0l-.1.1h0l-.1.1v.1h.194v.1h3.387v.1h.1v.194h-.1l-.1.1h-.1l-.29.1h0v.193h-.581l-.194.1v.1h0v.1a.1.1,0,0,1,.1.1h.1l.1-.1h0v.1h0v.29h0l-.1.1h0v.1h0v.1h0v.1c0,.1.1.1.194,0h0v.1h0v.1h.1l.1.1h0l.1-.1h0v-.484h0v-.1h0v.194h0v.1h0v.194h0v.1h0v.1h0l.1-.1h0v-.194h0l.1-.1h.1l.1-.1v-.1h.1v-.29h0v-.1h0v-.194h.1l.1-.1h0v.29h0v.1h.193l.1-.1h0v-.1h0l.1-.1h.29v-.194h-.1v-.193h0V276.2h0v-.1h0v-.194h.29v-.1h-.1v-.1h0v-.1h0v-.1h0v-.1h-.194v-.1h0v-.29h-.1l.1-.1h0v-.1H269v.1h0l-.1.1h0v.1h.1l-.1.1h-.193l.1-.1h0v-.1h0l.1-.1h0a.975.975,0,0,1-.29-.1h-.387v.1h-.1v.1h0v-.194h.29v-.194h.387c-.29-.1-.677,0-.677.1h-.1l-.1.1-.1.1h-.1l-.1.1h0v.194h0v-.1h-.1l-.1.1v.1h-.194l-.1.1-.1.1h-.1l.1-.1h-.1l-.1.1h0v-.1h.1l.1-.1h.1l.1-.1h-.1l-.1.1h0l-.1.1h-.1v-.1h0l.1-.1.1-.1h0v-.194h0v-.1h0l.1-.1v-.1h0v-.1h.194v-.1h0l.1.1h.1l-.1.1h0l-.1.1h-.1l-.1.1h0l-.1.1-.193.1h-.194l-.1.1h0v.1h-.29v.1h-.581v.193h.1l.1-.1h0l.1-.1h-.1v-.1h-.1l-.1.1h-.1l-.1-.1v-.29h.1v-.1h0v-.1h-.29v.1h-.193l-.1.1h.1c-.29-.1-.29-.1-.387-.194h0v-.1h.1l.1-.1h0v-.194h0v-.194h0v-.29h-.193c-.1,0-.1.1-.194.1h0l.1-.1.1-.1.1-.1.1-.1h0l-.1.1h-.194v-.1h0l.1-.1h.1c0-.1.1-.194.1-.29h0v-.1h0c-4.161,2.323-7.064,7.839-7.935,14.032Zm9.484-6.1h0Zm2.419-5.419Zm-1.258,1.645Zm1.258-2.9Zm-2.129.29h0c0,.1-.1.1,0,0Zm-.677.968h0l.1.1h0v-.194l-.1.1Zm-.1-.871Zm-.387-.581Zm-8.419,13.064h0v.1h0v-.1Z" transform="translate(-256.71 -272.326)" fill="url(#linear-gradient)"/>
          <path id="Path_96412" data-name="Path 96412" d="M256.8,291.893h0l-.1-.1v-.1h0v.968h0v-.484h0v-.1h0a.3.3,0,0,0,.1-.193Z" transform="translate(-256.7 -272.926)" fill="url(#linear-gradient)"/>
          <path id="Path_96413" data-name="Path 96413" d="M280.7,274.19h-.387v-.1h-.194V274h0v.1h-.29V274h-1.065a.1.1,0,0,0-.1.1h-.194l.1-.1h-.387v-.1h0v.1h0v-.1h-.677v.194h.193v.1h-.29v.1a.1.1,0,0,1,.1.1h-.194v-.1h-1.161v.1h0v-.1a3.434,3.434,0,0,0-.677.1v.1c.1,0,.194,0,.194.1h-.387a.44.44,0,0,0-.484,0H274.6v-.1h-.581v.1h.194v-.1h.194l-.1.1h.677v.1h-.1l-.1.1v.1l-.1.1v.1h.194a.1.1,0,0,0-.1.1v.1h.1l.1-.1h-.484l-.1.1h0l-.1.1h-.1l-.1.1h0v.1h.29l-.1.1h0v.1h0l-.1-.1h0l-.1-.1h-.1l-1.064.387h0v.1h0l-.1.1h0l-.1.1h0v.387h.387v.1h.194v.1h0v.1l-.1.1-.1.1h0v.1h-.1l-.1.1-.1.1h-.1v.1h0l-.1.1-.1.1h-.1l-.1.1h0l-.1.1h0v.1h0l-.1.1h0l-.1.1-.1.1h0l-.1.1h0v.1h0l-.1.1v.1h0v.1h0v.1h0v.1h0l-.1.1h0v.1h0v.1h0v.1h.1v.1h0v.194h0v.1h.1l.1-.1h0l.1-.1.1-.1.1-.1.1-.1.1-.1h.1l.1-.1h0l.1-.1v-.1l.1-.1h.194l.194-.1.1-.1c.1-.1.194-.1.194-.194l.1-.1v-.194h.1l.1-.1.1-.1h.194v.1h.484l.194-.1h0l.1-.1h.1l.1-.1c.1-.1.1-.1.193-.1h.1v-.193h0v.1h0v.1h.29a.873.873,0,0,0,.484-.1h.774c.1,0,.194-.1.29-.1h0c-.1,0-.1-.1-.194-.1h-.194v-.1h0v.1h0v.1h.1l.1-.1h.194l.1-.1.1-.1v-.29h0l-.29-.194v-.1h0v-.1h0v.1h0l-.1.1h0v.1h.1l.1.1h.1l.194-.194h-.1l-.1-.1h.194l.1-.1h-.1a.566.566,0,0,0,.387-.1h-.29c.1,0,.1,0,.1-.1v-.194h0v-.1h.29v.29h0l.1-.1v-.1h.1l.1-.1h0v-.1h.1l-.1-.1h0l.1-.1.1-.1h.387l1.839-1.355Zm-7.742-.29Z" transform="translate(-257.184 -272.351)" fill="url(#linear-gradient)"/>
        </g>
      </g>
    </g>
    <g id="Mask_Group_44811" data-name="Mask Group 44811" transform="translate(203 535)" clip-path="url(#clip-path-2)">
      <g id="Group_48437" data-name="Group 48437" transform="translate(800.656 -20369.51)">
        <path id="Path_96423" data-name="Path 96423" d="M396.9,597.1a4,4,0,1,1-4-4A4,4,0,0,1,396.9,597.1Z" transform="translate(-384.532 -593.1)" fill="#d5d5d5"/>
        <path id="Path_96424" data-name="Path 96424" d="M369.987,686.325l-2.209-5.644a4.484,4.484,0,0,0,1.546-3.386v-6.479a4.519,4.519,0,0,0-4.515-4.515h-6.331a4.519,4.519,0,0,0-4.515,4.515v6.479a4.484,4.484,0,0,0,1.546,3.386l-2.209,5.644h4.012V694.2a2.1,2.1,0,0,0,1.975,2.123,2.038,2.038,0,0,0,2.1-2.037v-7.963h.564V694.2a2.1,2.1,0,0,0,1.975,2.123,2.038,2.038,0,0,0,2.1-2.037v-7.963Zm-3.656-15.4h0a.278.278,0,0,1,.282.282v6.454l-.564-1.448v-5.006A.277.277,0,0,1,366.331,670.926Zm-9.583,6.6V671.22a.282.282,0,1,1,.564,0v4.859Z" transform="translate(-353.3 -657.318)" fill="#d5d5d5"/>
      </g>
    </g>
  </g>
</svg>
