<svg xmlns="http://www.w3.org/2000/svg" xmlns:xlink="http://www.w3.org/1999/xlink" width="60" height="60" viewBox="0 0 60 60">
  <defs>
    <clipPath id="clip-path">
      <rect id="Rectangle_5726" data-name="Rectangle 5726" width="60" height="60" transform="translate(-16314 -7807)" fill="#fff" stroke="#707070" stroke-width="1"/>
    </clipPath>
    <linearGradient id="linear-gradient" x1="0.5" x2="0.5" y2="1" gradientUnits="objectBoundingBox">
      <stop offset="0" stop-color="#041e39"/>
      <stop offset="1" stop-color="#57687a"/>
    </linearGradient>
  </defs>
  <g id="Mask_Group_44562" data-name="Mask Group 44562" transform="translate(16314 7807)" clip-path="url(#clip-path)">
    <g id="Education" transform="translate(-16314 -7803.727)">
      <path id="Path_79635" data-name="Path 79635" d="M28.373,39h0C17.674,39,9,34.191,9,26.5V14H47.746V26.5C47.746,32.962,39.072,39,28.373,39Z" transform="translate(2.249 3.497)" fill="url(#linear-gradient)"/>
      <path id="Path_79636" data-name="Path 79636" d="M57.708,12.487,34.122.955a9.4,9.4,0,0,0-8.249,0L2.286,12.487A4.075,4.075,0,0,0,2.474,19.9l3.151,1.352L26.3,30.1a9.4,9.4,0,0,0,7.392,0L54.37,21.248,57.521,19.9a4.075,4.075,0,0,0,.187-7.413Z" transform="translate(0 -0.001)" fill="#4d5f72"/>
      <path id="Path_79637" data-name="Path 79637" d="M43.9,44.934a1.25,1.25,0,0,1-1.25-1.25V21.638l-17.6-9.025A1.25,1.25,0,0,1,26.2,10.388L45.154,20.11V43.684A1.25,1.25,0,0,1,43.9,44.934Z" transform="translate(6.091 2.56)" fill="#ecf0f1"/>
      <path id="Path_79668" data-name="Path 79668" d="M5.455,0c3.012,0,5.455,1.954,5.455,4.364S8.467,8.727,5.455,8.727,0,6.774,0,4.364,2.442,0,5.455,0Z" transform="translate(25.091 9.359)" fill="#162e47"/>
      <path id="Path_79669" data-name="Path 79669" d="M5.455,0A5.455,5.455,0,1,1,0,5.455,5.455,5.455,0,0,1,5.455,0Z" transform="translate(44.728 43.177)" fill="#ffc700"/>
    </g>
  </g>
</svg>
