<svg xmlns="http://www.w3.org/2000/svg" xmlns:xlink="http://www.w3.org/1999/xlink" width="60" height="60" viewBox="0 0 60 60">
  <defs>
    <clipPath id="clip-path">
      <rect id="Rectangle_1" data-name="Rectangle 1" width="60" height="60" transform="translate(2540 -243)" fill="#fff" stroke="#707070" stroke-width="1"/>
    </clipPath>
    <linearGradient id="linear-gradient" x1="0.505" y1="0.529" x2="0.272" y2="-0.075" gradientUnits="objectBoundingBox">
      <stop offset="0" stop-color="#fff" stop-opacity="0"/>
      <stop offset="1" stop-color="#fff"/>
    </linearGradient>
  </defs>
  <g id="gray-vaccine-lg" transform="translate(-2540 243)" clip-path="url(#clip-path)">
    <g id="Group_4" data-name="Group 4" transform="translate(2542.522 -240.484)">
      <path id="Path_1" data-name="Path 1" d="M.412,351.988a1.405,1.405,0,0,1,0-1.987l16.321-16.322a1.405,1.405,0,1,1,1.988,1.988L2.4,351.988a1.405,1.405,0,0,1-1.987,0Z" transform="translate(-0.001 -297.183)" fill="#707070"/>
      <g id="Group_1" data-name="Group 1" transform="translate(10.149 31.07)">
        <path id="Path_2" data-name="Path 2" d="M101.7,300.194l-7.184-7.184a2.593,2.593,0,0,1,0-3.668l2.386-2.387,10.851,10.851-2.387,2.387A2.593,2.593,0,0,1,101.7,300.194Z" transform="translate(-93.758 -286.956)" fill="#b2b2b2"/>
        <path id="Path_3" data-name="Path 3" d="M128.932,297.8l-2.387,2.386a2.592,2.592,0,0,1-3.666,0l-5.373-5.373v-7.29l.574-.574Z" transform="translate(-114.935 -286.953)" fill="#b2b2b2"/>
      </g>
      <g id="Group_2" data-name="Group 2" transform="translate(11.444 8.368)">
        <path id="Path_4" data-name="Path 4" d="M118.485,112.051,106.368,99.934a2.193,2.193,0,0,1,0-3.1l18.9-18.9a2.193,2.193,0,0,1,3.1,0l12.118,12.12a2.193,2.193,0,0,1,0,3.1l-18.9,18.9a2.193,2.193,0,0,1-3.1,0Z" transform="translate(-105.726 -77.292)" fill="#b2b2b2"/>
        <path id="Path_5" data-name="Path 5" d="M140.163,191.6l-10.621-10.62a1.443,1.443,0,0,1,0-2.041l9.423-9.423a1.443,1.443,0,0,1,2.042,0l10.617,10.617a1.443,1.443,0,0,1,0,2.042L142.2,191.6A1.443,1.443,0,0,1,140.163,191.6Z" transform="translate(-126.589 -159.153)" fill="#fff"/>
        <path id="Path_6" data-name="Path 6" d="M109.245,231.2l-2.877,2.877a2.193,2.193,0,0,0,0,3.1l12.117,12.117a2.192,2.192,0,0,0,3.1,0l2.877-2.877Z" transform="translate(-105.726 -214.535)" fill="#d5d5d5"/>
      </g>
      <path id="Path_7" data-name="Path 7" d="M272.056,132.255l-4.395-4.4,8.969-8.968,4.395,4.395Z" transform="translate(-238.686 -106.017)" fill="#707070"/>
      <path id="Path_8" data-name="Path 8" d="M153.364,94.246,133.17,114.441a2.55,2.55,0,0,0,0,3.6l9.117,9.126a2.193,2.193,0,0,0,3.1,0l18.9-18.9a2.192,2.192,0,0,0,0-3.1Z" transform="translate(-119.534 -85.548)" fill="url(#linear-gradient)"/>
      <g id="Group_3" data-name="Group 3" transform="translate(39.605)">
        <path id="Path_9" data-name="Path 9" d="M370.241,67.644l-4.395-4.4,4.893-4.893,4.4,4.395Z" transform="translate(-365.846 -52.033)" fill="#b2b2b2"/>
        <path id="Path_10" data-name="Path 10" d="M408.328,58.65v8.79l4.689-4.689-4.4-4.395Z" transform="translate(-403.729 -52.033)" fill="#b2b2b2"/>
        <path id="Path_11" data-name="Path 11" d="M385.175,14.352,374.093,3.271a1.391,1.391,0,0,1,0-1.967l.9-.9a1.391,1.391,0,0,1,1.967,0l11.08,11.081a1.39,1.39,0,0,1,0,1.967l-.9.9A1.39,1.39,0,0,1,385.175,14.352Z" transform="translate(-372.837 0.003)" fill="#b2b2b2"/>
      </g>
      <path id="Path_12" data-name="Path 12" d="M290.885,50.42,273.965,33.5a2.123,2.123,0,0,1,0-3l1.367-1.367a2.123,2.123,0,0,1,3,0l16.92,16.92a2.123,2.123,0,0,1,0,3l-1.367,1.367a2.122,2.122,0,0,1-3,0Z" transform="translate(-243.753 -25.418)" fill="#b2b2b2"/>
    </g>
  </g>
</svg>
