<svg xmlns="http://www.w3.org/2000/svg" xmlns:xlink="http://www.w3.org/1999/xlink" width="60" height="60" viewBox="0 0 60 60">
  <defs>
    <clipPath id="clip-path">
      <rect id="Rectangle_6228" data-name="Rectangle 6228" width="60" height="60" transform="translate(-7917 -11560)" fill="#fff" stroke="#707070" stroke-width="1"/>
    </clipPath>
  </defs>
  <g id="Mask_Group_44787" data-name="Mask Group 44787" transform="translate(7917 11560)" clip-path="url(#clip-path)">
    <g id="Group_47693" data-name="Group 47693" transform="translate(-7916.247 -11551.009)">
      <path id="Subtraction_34" data-name="Subtraction 34" d="M18.8,34.655a2.313,2.313,0,0,1-2.234-1.716v-7.6a1.926,1.926,0,1,0-3.851,0v7.6a2.311,2.311,0,0,1-4.546-.592V25.125H4.55A1.978,1.978,0,0,1,2.777,23L5.77,11.408c-1.135,1.957-2.5,4.219-2.974,4.347a.737.737,0,0,1-.192.024,3.051,3.051,0,0,1-1.343-.542c-.57-.34-1.109-.661-1.254-1.2C-.1,13.63,1.036,11.8,2.476,9.488c.376-.6.764-1.228,1.154-1.865.917-1.5,1.663-2.776,2.263-3.8A29.274,29.274,0,0,1,7.831.725a2.241,2.241,0,0,1,2-.7c.106.043.7.218,1.547.455a12.565,12.565,0,0,0,3.251.5,12.652,12.652,0,0,0,3.257-.5C18.669.265,19.32.064,19.426.021h.024A2.28,2.28,0,0,1,19.775,0a2.09,2.09,0,0,1,1.641.725,29.285,29.285,0,0,1,1.932,3.086c.6,1.029,1.349,2.31,2.269,3.812.39.638.778,1.262,1.154,1.865,1.44,2.314,2.577,4.141,2.469,4.547-.145.541-.683.862-1.254,1.2a3.062,3.062,0,0,1-1.343.542.737.737,0,0,1-.192-.024c-.446-.121-1.662-2.115-2.539-3.6L26.943,23a1.978,1.978,0,0,1-1.772,2.13H21.109v7.218A2.314,2.314,0,0,1,18.8,34.655Z" transform="translate(0 14.107)" fill="#07816c"/>
      <ellipse id="Ellipse_1323" data-name="Ellipse 1323" cx="6.24" cy="6.24" rx="6.24" ry="6.24" transform="translate(8.552 0)" fill="#07816c"/>
    </g>
    <g id="Group_47694" data-name="Group 47694" transform="translate(-7886.807 -11551.009)">
      <path id="Subtraction_34-2" data-name="Subtraction 34" d="M18.8,34.655a2.313,2.313,0,0,1-2.234-1.716v-7.6a1.926,1.926,0,1,0-3.851,0v7.6a2.311,2.311,0,0,1-4.546-.592V25.125H4.55A1.978,1.978,0,0,1,2.777,23L5.77,11.408c-1.135,1.957-2.5,4.219-2.974,4.347a.737.737,0,0,1-.192.024,3.051,3.051,0,0,1-1.343-.542c-.57-.34-1.109-.661-1.254-1.2C-.1,13.63,1.036,11.8,2.476,9.488c.376-.6.764-1.228,1.154-1.865.917-1.5,1.663-2.776,2.263-3.8A29.274,29.274,0,0,1,7.831.725a2.241,2.241,0,0,1,2-.7c.106.043.7.218,1.547.455a12.565,12.565,0,0,0,3.251.5,12.652,12.652,0,0,0,3.257-.5C18.669.265,19.32.064,19.426.021h.024A2.28,2.28,0,0,1,19.775,0a2.09,2.09,0,0,1,1.641.725,29.285,29.285,0,0,1,1.932,3.086c.6,1.029,1.349,2.31,2.269,3.812.39.638.778,1.262,1.154,1.865,1.44,2.314,2.577,4.141,2.469,4.547-.145.541-.683.862-1.254,1.2a3.062,3.062,0,0,1-1.343.542.737.737,0,0,1-.192-.024c-.446-.121-1.662-2.115-2.539-3.6L26.943,23a1.978,1.978,0,0,1-1.772,2.13H21.109v7.218A2.314,2.314,0,0,1,18.8,34.655Z" transform="translate(0 14.107)" fill="#076a59"/>
      <ellipse id="Ellipse_1323-2" data-name="Ellipse 1323" cx="6.24" cy="6.24" rx="6.24" ry="6.24" transform="translate(8.552 0)" fill="#076a59"/>
    </g>
    <g id="Group_47688" data-name="Group 47688" transform="translate(-7904 -11558)">
      <path id="Subtraction_34-3" data-name="Subtraction 34" d="M21.493,39.623a2.644,2.644,0,0,1-2.554-1.963V28.111a2.2,2.2,0,1,0-4.4,0v9.546a2.643,2.643,0,0,1-5.2-.676V28.728H5.2a2.262,2.262,0,0,1-2.026-2.435L6.6,13.043c-1.3,2.237-2.858,4.824-3.4,4.972a.841.841,0,0,1-.22.028,3.489,3.489,0,0,1-1.534-.619C.789,17.034.173,16.666.008,16.049c-.125-.466,1.183-2.566,2.839-5.226.424-.681.863-1.386,1.3-2.106C5.2,7,6.052,5.543,6.738,4.369A33.65,33.65,0,0,1,8.953.829,2.388,2.388,0,0,1,10.829,0a2.45,2.45,0,0,1,.409.031c.123.049.82.253,1.775.521a14.365,14.365,0,0,0,3.717.566A14.454,14.454,0,0,0,20.453.553C21.369.3,22.094.072,22.211.024h.032A2.626,2.626,0,0,1,22.611,0a2.388,2.388,0,0,1,1.875.828A33.643,33.643,0,0,1,26.7,4.368C27.387,5.543,28.24,7,29.289,8.717c.445.728.889,1.44,1.318,2.13,1.648,2.647,2.949,4.738,2.825,5.2-.165.617-.781.985-1.434,1.374a3.489,3.489,0,0,1-1.534.619.842.842,0,0,1-.22-.028c-.511-.139-1.9-2.417-2.9-4.118l3.465,12.4a2.262,2.262,0,0,1-2.026,2.435H24.135v8.253A2.645,2.645,0,0,1,21.493,39.623Z" transform="translate(0 16.129)" fill="#025e4e"/>
      <circle id="Ellipse_1323-3" data-name="Ellipse 1323" cx="7.134" cy="7.134" r="7.134" transform="translate(9.778 0)" fill="#025e4e"/>
    </g>
  </g>
</svg>
