<svg xmlns="http://www.w3.org/2000/svg" xmlns:xlink="http://www.w3.org/1999/xlink" width="60" height="60" viewBox="0 0 60 60">
  <defs>
    <clipPath id="clip-path">
      <rect id="Rectangle_6139" data-name="Rectangle 6139" width="60" height="60" transform="translate(-5612 -14417.218)" fill="#fff" stroke="#707070" stroke-width="1"/>
    </clipPath>
  </defs>
  <g id="Mask_Group_44738" data-name="Mask Group 44738" transform="translate(5612 14417.218)" clip-path="url(#clip-path)">
    <path id="_8542186_passport_visa_travel_icon" data-name="8542186_passport_visa_travel_icon" d="M14.654,19.9h4.419a25.51,25.51,0,0,1,1.606-7.96A10.835,10.835,0,0,0,14.654,19.9Zm0,3.618a10.838,10.838,0,0,0,6.026,7.96,25.478,25.478,0,0,1-1.606-7.96Zm10.67,8.9c.869-.842,2.348-3.891,2.649-8.9h-5.3C22.975,28.518,24.454,31.568,25.323,32.411ZM22.675,19.9h5.3c-.3-5-1.779-8.054-2.649-8.9C24.454,11.843,22.975,14.893,22.675,19.9Zm7.293,11.578a10.835,10.835,0,0,0,6.026-7.96H31.574A25.478,25.478,0,0,1,29.968,31.475ZM47.029,0H7.235A7.235,7.235,0,0,0,0,7.235V50.647a7.235,7.235,0,0,0,7.235,7.235H47.029a3.618,3.618,0,0,0,3.618-3.618V3.618A3.618,3.618,0,0,0,47.029,0ZM37.985,47.029H12.662a1.809,1.809,0,0,1,0-3.618H37.985a1.809,1.809,0,0,1,0,3.618ZM25.323,36.176A14.471,14.471,0,1,1,39.794,21.706,14.471,14.471,0,0,1,25.323,36.176Zm4.644-24.239a25.478,25.478,0,0,1,1.606,7.96h4.419A10.835,10.835,0,0,0,29.968,11.937Z" transform="translate(-5607.365 -14416.117)" fill="#07816c"/>
  </g>
</svg>
