<svg xmlns="http://www.w3.org/2000/svg" xmlns:xlink="http://www.w3.org/1999/xlink" width="40" height="40" viewBox="0 0 40 40">
  <defs>
    <clipPath id="clip-path">
      <rect id="Rectangle_5379" data-name="Rectangle 5379" width="40" height="40" transform="translate(0.185)" fill="#fff" stroke="#707070" stroke-width="1"/>
    </clipPath>
  </defs>
  <g id="Mask_Group_44450" data-name="Mask Group 44450" transform="translate(-0.185)" clip-path="url(#clip-path)">
    <g id="store_3_" data-name="store (3)" transform="translate(0.409 0.532)">
      <path id="Path_78753" data-name="Path 78753" d="M78.664,7.169H49.341A1.141,1.141,0,0,1,48.2,6.028,6.034,6.034,0,0,1,54.227,0h19.55A6.024,6.024,0,0,1,79.8,6.028,1.141,1.141,0,0,1,78.664,7.169Z" transform="translate(-44.535 0)" fill="#b2b2b2"/>
      <path id="Path_78754" data-name="Path 78754" d="M265.774,0H256V7.169h14.662A1.141,1.141,0,0,0,271.8,6.028,6.024,6.024,0,0,0,265.774,0Z" transform="translate(-236.532)" fill="#707070"/>
      <path id="Path_78755" data-name="Path 78755" d="M78.664,241.876H49.341a1.141,1.141,0,0,1-1.141-1.141V226.074a1.141,1.141,0,0,1,1.141-1.141H78.664a1.141,1.141,0,0,1,1.141,1.141v14.662A1.141,1.141,0,0,1,78.664,241.876Z" transform="translate(-44.535 -207.828)" fill="#b2b2b2"/>
      <path id="Path_78756" data-name="Path 78756" d="M271.8,240.735V226.074a1.141,1.141,0,0,0-1.141-1.141H256v16.943h14.662A1.141,1.141,0,0,0,271.8,240.735Z" transform="translate(-236.532 -207.828)" fill="#707070"/>
      <path id="Path_78757" data-name="Path 78757" d="M55.531,424.9h-6.19a1.141,1.141,0,0,1-1.141-1.141v-6.028h7.331a1.141,1.141,0,0,1,1.141,1.141v4.887A1.141,1.141,0,0,1,55.531,424.9Z" transform="translate(-44.535 -385.966)" fill="#132b44"/>
      <path id="Path_78758" data-name="Path 78758" d="M359.731,424.9h-6.19a1.141,1.141,0,0,1-1.141-1.141v-4.887a1.141,1.141,0,0,1,1.141-1.141h7.331v6.028A1.141,1.141,0,0,1,359.731,424.9Z" transform="translate(-325.602 -385.966)" fill="#132b44"/>
      <path id="Path_78759" data-name="Path 78759" d="M11.389,65.408a1.141,1.141,0,0,0-1.141-1.141H4.806a1.141,1.141,0,0,0-1.02.631L.121,72.228a1.141,1.141,0,0,0,1.02,1.651h9.107a1.141,1.141,0,0,0,1.141-1.141Z" transform="translate(0 -59.38)" fill="#7da6b8"/>
      <path id="Path_78760" data-name="Path 78760" d="M362.242,65.408a1.141,1.141,0,0,1,1.141-1.141h5.442a1.14,1.14,0,0,1,1.02.631l3.665,7.331a1.141,1.141,0,0,1-1.02,1.651h-9.107a1.141,1.141,0,0,1-1.141-1.141Z" transform="translate(-334.695 -59.38)" fill="#175a76"/>
      <path id="Path_78761" data-name="Path 78761" d="M160.4,309.2H145.741a1.141,1.141,0,0,0-1.141,1.141v14.281h16.943V310.341A1.141,1.141,0,0,0,160.4,309.2Z" transform="translate(-133.604 -285.687)" fill="#e6e6e6"/>
      <path id="Path_78762" data-name="Path 78762" d="M264.471,310.341a1.141,1.141,0,0,0-1.141-1.141H256v15.422h8.471Z" transform="translate(-236.532 -285.687)" fill="#d7d7d7"/>
      <path id="Path_78763" data-name="Path 78763" d="M198.728,64.267h-7.787a1.141,1.141,0,0,0-1.141,1.141V71.6a1.141,1.141,0,0,0,1.141,1.141h7.787a1.141,1.141,0,0,0,1.141-1.141v-6.19A1.141,1.141,0,0,0,198.728,64.267Z" transform="translate(-175.367 -59.38)" fill="#7da6b8"/>
      <path id="Path_78764" data-name="Path 78764" d="M256,72.738h3.894a1.141,1.141,0,0,0,1.141-1.141v-6.19a1.141,1.141,0,0,0-1.141-1.141H256Z" transform="translate(-236.532 -59.38)" fill="#175a76"/>
      <path id="Path_78765" data-name="Path 78765" d="M297.49,73.879l-1.076-9.612h6.147l3.226,9.612Z" transform="translate(-273.873 -59.38)" fill="#d7d7d7"/>
      <path id="Path_78766" data-name="Path 78766" d="M100.628,73.879l1.076-9.612H95.556L92.33,73.879Z" transform="translate(-85.309 -59.38)" fill="#e6e6e6"/>
      <path id="Path_78767" data-name="Path 78767" d="M7.787,160.667H1.141A1.141,1.141,0,0,0,0,161.808v4.887a1.141,1.141,0,0,0,1.141,1.141H7.787a1.141,1.141,0,0,0,1.141-1.141v-4.887A1.141,1.141,0,0,0,7.787,160.667Z" transform="translate(0 -148.449)" fill="#bfdde7"/>
      <path id="Path_78768" data-name="Path 78768" d="M395.741,160.667h6.646a1.141,1.141,0,0,1,1.141,1.141v4.887a1.141,1.141,0,0,1-1.141,1.141h-6.646a1.141,1.141,0,0,1-1.141-1.141v-4.887A1.141,1.141,0,0,1,395.741,160.667Z" transform="translate(-364.592 -148.449)" fill="#7da6b8"/>
      <path id="Path_78769" data-name="Path 78769" d="M198.728,160.667h-7.787a1.141,1.141,0,0,0-1.141,1.141v4.887a1.141,1.141,0,0,0,1.141,1.141h7.787a1.141,1.141,0,0,0,1.141-1.141v-4.887A1.141,1.141,0,0,0,198.728,160.667Z" transform="translate(-175.367 -148.449)" fill="#bfdde7"/>
      <path id="Path_78770" data-name="Path 78770" d="M256,167.835h3.894a1.141,1.141,0,0,0,1.141-1.141v-4.887a1.141,1.141,0,0,0-1.141-1.141H256Z" transform="translate(-236.532 -148.448)" fill="#7da6b8"/>
      <path id="Path_78771" data-name="Path 78771" d="M102.4,160.667h7.787v7.169H102.4Z" transform="translate(-94.613 -148.449)" fill="#f5f5f5"/>
      <path id="Path_78772" data-name="Path 78772" d="M307.2,160.667h7.787v7.169H307.2Z" transform="translate(-283.839 -148.449)" fill="#e6e6e6"/>
    </g>
  </g>
</svg>
