<svg xmlns="http://www.w3.org/2000/svg" xmlns:xlink="http://www.w3.org/1999/xlink" width="24" height="24" viewBox="0 0 24 24">
  <defs>
    <clipPath id="clip-path">
      <rect id="Rectangle_5292" data-name="Rectangle 5292" width="24" height="24" transform="translate(0.198)" fill="#57687A" stroke="#707070" stroke-width="1"/>
    </clipPath>
  </defs>
  <g id="Mask_Group_642" data-name="Mask Group 642" transform="translate(-0.198)" clip-path="url(#clip-path)">
    <g id="store_1_" data-name="store (1)" transform="translate(0.103 1.508)">
      <g id="Group_44390" data-name="Group 44390" transform="translate(0 0)">
        <path id="Path_78448" data-name="Path 78448" d="M23.977,38.568l-1.5-6A.749.749,0,0,0,21.75,32H2.25a.749.749,0,0,0-.728.569l-1.5,6A.734.734,0,0,0,0,38.75,3.8,3.8,0,0,0,1.5,41.8V52.25a.75.75,0,0,0,.75.75h7.5a.75.75,0,0,0,.75-.75V47h3v5.25a.75.75,0,0,0,.75.75h7.5a.75.75,0,0,0,.75-.75V41.8A3.8,3.8,0,0,0,24,38.75.734.734,0,0,0,23.977,38.568ZM21,51.5H15V46.25a.75.75,0,0,0-.75-.75H9.75a.75.75,0,0,0-.75.75V51.5H3V42.44a3.327,3.327,0,0,0,.563.06,3.5,3.5,0,0,0,2.813-1.451,3.452,3.452,0,0,0,5.625,0,3.452,3.452,0,0,0,5.625,0A3.5,3.5,0,0,0,20.438,42.5,3.327,3.327,0,0,0,21,42.44ZM20.438,41a2.165,2.165,0,0,1-2.062-2.25.75.75,0,0,0-1.5,0A2.165,2.165,0,0,1,14.813,41a2.165,2.165,0,0,1-2.062-2.25.75.75,0,0,0-1.5,0A2.165,2.165,0,0,1,9.188,41a2.165,2.165,0,0,1-2.062-2.25.75.75,0,0,0-1.5,0A2.165,2.165,0,0,1,3.563,41,2.157,2.157,0,0,1,1.5,38.837L2.836,33.5H21.165L22.5,38.837A2.159,2.159,0,0,1,20.438,41Z" transform="translate(0 -32)" fill="#57687A"/>
      </g>
    </g>
  </g>
</svg>
