<svg xmlns="http://www.w3.org/2000/svg" xmlns:xlink="http://www.w3.org/1999/xlink" width="60" height="60" viewBox="0 0 60 60">
  <defs>
    <clipPath id="clip-path">
      <rect id="Rectangle_5894" data-name="Rectangle 5894" width="60" height="60" fill="#fff" stroke="#707070" stroke-width="1"/>
    </clipPath>
    <clipPath id="clip-path-2">
      <rect id="Rectangle_5476" data-name="Rectangle 5476" width="30" height="30" transform="translate(0)" fill="#fff" stroke="#707070" stroke-width="1"/>
    </clipPath>
  </defs>
  <g id="Mask_Group_44628" data-name="Mask Group 44628" clip-path="url(#clip-path)">
    <g id="store_3_" data-name="store (3)" transform="translate(0.336 0.798)">
      <path id="Path_80293" data-name="Path 80293" d="M93.9,10.753H49.911A1.711,1.711,0,0,1,48.2,9.042,9.051,9.051,0,0,1,57.24,0H86.565a9.036,9.036,0,0,1,9.042,9.042A1.711,1.711,0,0,1,93.9,10.753Z" transform="translate(-42.702 0)" fill="#b2b2b2"/>
      <path id="Path_80294" data-name="Path 80294" d="M270.662,0H256V10.753h21.992A1.711,1.711,0,0,0,279.7,9.042,9.036,9.036,0,0,0,270.662,0Z" transform="translate(-226.798)" fill="#707070"/>
      <path id="Path_80295" data-name="Path 80295" d="M93.9,250.347H49.911a1.711,1.711,0,0,1-1.711-1.711V226.644a1.711,1.711,0,0,1,1.711-1.711H93.9a1.711,1.711,0,0,1,1.711,1.711v21.992A1.711,1.711,0,0,1,93.9,250.347Z" transform="translate(-42.702 -199.275)" fill="#b2b2b2"/>
      <path id="Path_80296" data-name="Path 80296" d="M279.7,248.636V226.644a1.711,1.711,0,0,0-1.711-1.711H256v25.414h21.992A1.711,1.711,0,0,0,279.7,248.636Z" transform="translate(-226.798 -199.275)" fill="#707070"/>
      <path id="Path_80297" data-name="Path 80297" d="M59.2,428.486H49.911a1.711,1.711,0,0,1-1.711-1.711v-9.042h11a1.711,1.711,0,0,1,1.711,1.711v7.331A1.711,1.711,0,0,1,59.2,428.486Z" transform="translate(-42.702 -370.083)" fill="#132b44"/>
      <path id="Path_80298" data-name="Path 80298" d="M363.4,428.486h-9.285a1.711,1.711,0,0,1-1.711-1.711v-7.331a1.711,1.711,0,0,1,1.711-1.711h11v9.042A1.711,1.711,0,0,1,363.4,428.486Z" transform="translate(-312.202 -370.083)" fill="#132b44"/>
      <path id="Path_80299" data-name="Path 80299" d="M17.083,65.978a1.711,1.711,0,0,0-1.711-1.711H7.209a1.711,1.711,0,0,0-1.53.946l-5.5,11a1.711,1.711,0,0,0,1.53,2.476H15.372a1.711,1.711,0,0,0,1.711-1.711Z" transform="translate(0 -56.936)" fill="#7da6b8"/>
      <path id="Path_80300" data-name="Path 80300" d="M362.242,65.978a1.711,1.711,0,0,1,1.711-1.711h8.163a1.711,1.711,0,0,1,1.53.946l5.5,11a1.711,1.711,0,0,1-1.53,2.476H363.953a1.711,1.711,0,0,1-1.711-1.711Z" transform="translate(-320.922 -56.936)" fill="#175a76"/>
      <path id="Path_80301" data-name="Path 80301" d="M168.3,309.2H146.311a1.711,1.711,0,0,0-1.711,1.711v21.422h25.414V310.911A1.711,1.711,0,0,0,168.3,309.2Z" transform="translate(-128.106 -273.93)" fill="#e6e6e6"/>
      <path id="Path_80302" data-name="Path 80302" d="M268.707,310.911A1.711,1.711,0,0,0,267,309.2H256v23.133h12.707Z" transform="translate(-226.798 -273.93)" fill="#d7d7d7"/>
      <path id="Path_80303" data-name="Path 80303" d="M203.192,64.267H191.511a1.711,1.711,0,0,0-1.711,1.711v9.285a1.711,1.711,0,0,0,1.711,1.711h11.681a1.711,1.711,0,0,0,1.711-1.711V65.978A1.711,1.711,0,0,0,203.192,64.267Z" transform="translate(-168.15 -56.936)" fill="#7da6b8"/>
      <path id="Path_80304" data-name="Path 80304" d="M256,76.974h5.84a1.711,1.711,0,0,0,1.711-1.711V65.978a1.711,1.711,0,0,0-1.711-1.711H256Z" transform="translate(-226.798 -56.936)" fill="#175a76"/>
      <path id="Path_80305" data-name="Path 80305" d="M298.027,78.685l-1.613-14.418h9.22l4.84,14.418Z" transform="translate(-262.603 -56.936)" fill="#d7d7d7"/>
      <path id="Path_80306" data-name="Path 80306" d="M104.776,78.685l1.613-14.418H97.17L92.33,78.685Z" transform="translate(-81.798 -56.936)" fill="#e6e6e6"/>
      <path id="Path_80307" data-name="Path 80307" d="M11.681,160.667H1.711A1.711,1.711,0,0,0,0,162.378v7.331a1.711,1.711,0,0,0,1.711,1.711h9.97a1.711,1.711,0,0,0,1.711-1.711v-7.331A1.711,1.711,0,0,0,11.681,160.667Z" transform="translate(0 -142.34)" fill="#bfdde7"/>
      <path id="Path_80308" data-name="Path 80308" d="M396.311,160.667h9.97a1.711,1.711,0,0,1,1.711,1.711v7.331a1.711,1.711,0,0,1-1.711,1.711h-9.97a1.711,1.711,0,0,1-1.711-1.711v-7.331A1.711,1.711,0,0,1,396.311,160.667Z" transform="translate(-349.589 -142.34)" fill="#7da6b8"/>
      <path id="Path_80309" data-name="Path 80309" d="M203.192,160.667H191.511a1.711,1.711,0,0,0-1.711,1.711v7.331a1.711,1.711,0,0,0,1.711,1.711h11.681a1.711,1.711,0,0,0,1.711-1.711v-7.331A1.711,1.711,0,0,0,203.192,160.667Z" transform="translate(-168.15 -142.34)" fill="#bfdde7"/>
      <path id="Path_80310" data-name="Path 80310" d="M256,171.419h5.84a1.711,1.711,0,0,0,1.711-1.711v-7.331a1.711,1.711,0,0,0-1.711-1.711H256Z" transform="translate(-226.798 -142.339)" fill="#7da6b8"/>
      <path id="Path_80311" data-name="Path 80311" d="M102.4,160.667h11.681V171.42H102.4Z" transform="translate(-90.719 -142.34)" fill="#f5f5f5"/>
      <path id="Path_80312" data-name="Path 80312" d="M307.2,160.667h11.681V171.42H307.2Z" transform="translate(-272.158 -142.34)" fill="#e6e6e6"/>
    </g>
    <g id="Group_46221" data-name="Group 46221" transform="translate(-1302 -208)">
      <g id="Mask_Group_44507" data-name="Mask Group 44507" transform="translate(1302 237)" clip-path="url(#clip-path-2)">
        <g id="virus_1_" data-name="virus (1)" transform="translate(0.834 1.22)">
          <g id="XMLID_107_" transform="translate(0 0)">
            <g id="Group_44918" data-name="Group 44918">
              <path id="Path_79227" data-name="Path 79227" d="M28.145,16.718a2.421,2.421,0,0,1-2.09,2.638,2.229,2.229,0,0,1-2.235-1.313l-1.141.1-.861.415a.65.65,0,0,0-.36.5,7.594,7.594,0,0,1-.434,1.677.647.647,0,0,0,.037.551l.307.548.853.572a1.534,1.534,0,1,1-.969,1.644l-.945-.634-.595-.073a.685.685,0,0,0-.557.188,7.7,7.7,0,0,1-1.685,1.218.677.677,0,0,0-.355.557l-.076,1.205.374,1.484a1.905,1.905,0,1,1-1.845.474l-.376-1.493-.58-.933a.85.85,0,0,0-.726-.4h0A7.693,7.693,0,0,1,12.4,25.5a.849.849,0,0,0-.783.246l-.767.809-.859,1.781a1.534,1.534,0,1,1-1.722-.816l.864-1.793.17-1.2a.639.639,0,0,0-.228-.586,7.722,7.722,0,0,1-1.737-1.991.638.638,0,0,0-.541-.305l-1.2-.012-1.315.414a2.145,2.145,0,1,1-.652-1.791l1.4-.439,1.02-.727a.525.525,0,0,0,.217-.472q-.025-.308-.026-.621a7.605,7.605,0,0,1,.7-3.186.523.523,0,0,0-.005-.447l-.3-.618-.82-.619a1.534,1.534,0,1,1,1.059-1.587l.909.686.916.163a7.67,7.67,0,0,1,2.3-1.472l.215-1.306-.271-1.349a2.2,2.2,0,0,1-1.63-1.643A2.148,2.148,0,0,1,11.072,4.1a2.271,2.271,0,0,1,2.676,1.676,2.086,2.086,0,0,1-.942,2.188l.256,1.272.629,1a.225.225,0,0,0,.191.105h0a7.6,7.6,0,0,1,3.942,1.1.222.222,0,0,0,.208.012l.985-.457,1.15-1.245a1.533,1.533,0,1,1,1.4,1.293l-1.15,1.245-.374,1.005a.222.222,0,0,0,.029.208,7.612,7.612,0,0,1,1.066,2.061.653.653,0,0,0,.44.422l.935.262,1.215-.107a2.349,2.349,0,0,1,1.956-1.6,2.29,2.29,0,0,1,2.461,2.181Z" transform="translate(0 -4.053)" fill="#ab0a0a"/>
            </g>
          </g>
          <g id="XMLID_8_" transform="translate(8.216 8.274)">
            <g id="Group_44919" data-name="Group 44919">
              <ellipse id="Ellipse_1151" data-name="Ellipse 1151" cx="5.666" cy="5.666" rx="5.666" ry="5.666" fill="#dc3030"/>
            </g>
          </g>
          <path id="Path_79228" data-name="Path 79228" d="M143.143,152.129a5.667,5.667,0,0,1,4.8-5.6,5.666,5.666,0,1,0,0,11.2A5.667,5.667,0,0,1,143.143,152.129Z" transform="translate(-133.2 -138.189)" fill="#ce2424"/>
          <g id="Group_44920" data-name="Group 44920" transform="translate(2.735 0.412)">
            <circle id="Ellipse_1152" data-name="Ellipse 1152" cx="1.614" cy="1.614" r="1.614" transform="translate(0)" fill="#ab0a0a"/>
            <circle id="Ellipse_1153" data-name="Ellipse 1153" cx="1.066" cy="1.066" r="1.066" transform="translate(0.107 21.816)" fill="#ab0a0a"/>
            <circle id="Ellipse_1154" data-name="Ellipse 1154" cx="1.57" cy="1.57" r="1.57" transform="translate(19.17 23.063)" fill="#ab0a0a"/>
            <circle id="Ellipse_1155" data-name="Ellipse 1155" cx="1.463" cy="1.463" r="1.463" transform="translate(7.944 10.502)" fill="#ab0a0a"/>
            <ellipse id="Ellipse_1156" data-name="Ellipse 1156" cx="0.996" cy="0.996" rx="0.996" ry="0.996" transform="translate(9.586 15.515)" fill="#ab0a0a"/>
            <circle id="Ellipse_1157" data-name="Ellipse 1157" cx="0.836" cy="0.836" r="0.836" transform="translate(12.874 12.691)" fill="#ab0a0a"/>
          </g>
        </g>
      </g>
    </g>
  </g>
</svg>
