<svg xmlns="http://www.w3.org/2000/svg" xmlns:xlink="http://www.w3.org/1999/xlink" width="60" height="60" viewBox="0 0 60 60">
  <defs>
    <clipPath id="clip-path">
      <rect id="Rectangle_5562" data-name="Rectangle 5562" width="60" height="60" fill="#fff" stroke="#707070" stroke-width="1"/>
    </clipPath>
  </defs>
  <g id="Mask_Group_44541" data-name="Mask Group 44541" clip-path="url(#clip-path)">
    <g id="store_3_" data-name="store (3)" transform="translate(0.336 0.798)">
      <path id="Path_79441" data-name="Path 79441" d="M93.9,10.753H49.911A1.711,1.711,0,0,1,48.2,9.042,9.051,9.051,0,0,1,57.24,0H86.565a9.036,9.036,0,0,1,9.042,9.042A1.711,1.711,0,0,1,93.9,10.753Z" transform="translate(-42.702 0)" fill="#b2b2b2"/>
      <path id="Path_79442" data-name="Path 79442" d="M270.662,0H256V10.753h21.992A1.711,1.711,0,0,0,279.7,9.042,9.036,9.036,0,0,0,270.662,0Z" transform="translate(-226.798)" fill="#707070"/>
      <path id="Path_79443" data-name="Path 79443" d="M93.9,250.347H49.911a1.711,1.711,0,0,1-1.711-1.711V226.644a1.711,1.711,0,0,1,1.711-1.711H93.9a1.711,1.711,0,0,1,1.711,1.711v21.992A1.711,1.711,0,0,1,93.9,250.347Z" transform="translate(-42.702 -199.275)" fill="#b2b2b2"/>
      <path id="Path_79444" data-name="Path 79444" d="M279.7,248.636V226.644a1.711,1.711,0,0,0-1.711-1.711H256v25.414h21.992A1.711,1.711,0,0,0,279.7,248.636Z" transform="translate(-226.798 -199.275)" fill="#707070"/>
      <path id="Path_79445" data-name="Path 79445" d="M59.2,428.486H49.911a1.711,1.711,0,0,1-1.711-1.711v-9.042h11a1.711,1.711,0,0,1,1.711,1.711v7.331A1.711,1.711,0,0,1,59.2,428.486Z" transform="translate(-42.702 -370.083)" fill="#132b44"/>
      <path id="Path_79446" data-name="Path 79446" d="M363.4,428.486h-9.285a1.711,1.711,0,0,1-1.711-1.711v-7.331a1.711,1.711,0,0,1,1.711-1.711h11v9.042A1.711,1.711,0,0,1,363.4,428.486Z" transform="translate(-312.202 -370.083)" fill="#132b44"/>
      <path id="Path_79447" data-name="Path 79447" d="M17.083,65.978a1.711,1.711,0,0,0-1.711-1.711H7.209a1.711,1.711,0,0,0-1.53.946l-5.5,11a1.711,1.711,0,0,0,1.53,2.476H15.372a1.711,1.711,0,0,0,1.711-1.711Z" transform="translate(0 -56.936)" fill="#7da6b8"/>
      <path id="Path_79448" data-name="Path 79448" d="M362.242,65.978a1.711,1.711,0,0,1,1.711-1.711h8.163a1.711,1.711,0,0,1,1.53.946l5.5,11a1.711,1.711,0,0,1-1.53,2.476H363.953a1.711,1.711,0,0,1-1.711-1.711Z" transform="translate(-320.922 -56.936)" fill="#175a76"/>
      <path id="Path_79449" data-name="Path 79449" d="M168.3,309.2H146.311a1.711,1.711,0,0,0-1.711,1.711v21.422h25.414V310.911A1.711,1.711,0,0,0,168.3,309.2Z" transform="translate(-128.106 -273.93)" fill="#e6e6e6"/>
      <path id="Path_79450" data-name="Path 79450" d="M268.707,310.911A1.711,1.711,0,0,0,267,309.2H256v23.133h12.707Z" transform="translate(-226.798 -273.93)" fill="#d7d7d7"/>
      <path id="Path_79451" data-name="Path 79451" d="M203.192,64.267H191.511a1.711,1.711,0,0,0-1.711,1.711v9.285a1.711,1.711,0,0,0,1.711,1.711h11.681a1.711,1.711,0,0,0,1.711-1.711V65.978A1.711,1.711,0,0,0,203.192,64.267Z" transform="translate(-168.15 -56.936)" fill="#7da6b8"/>
      <path id="Path_79452" data-name="Path 79452" d="M256,76.974h5.84a1.711,1.711,0,0,0,1.711-1.711V65.978a1.711,1.711,0,0,0-1.711-1.711H256Z" transform="translate(-226.798 -56.936)" fill="#175a76"/>
      <path id="Path_79453" data-name="Path 79453" d="M298.027,78.685l-1.613-14.418h9.22l4.84,14.418Z" transform="translate(-262.603 -56.936)" fill="#d7d7d7"/>
      <path id="Path_79454" data-name="Path 79454" d="M104.776,78.685l1.613-14.418H97.17L92.33,78.685Z" transform="translate(-81.798 -56.936)" fill="#e6e6e6"/>
      <path id="Path_79455" data-name="Path 79455" d="M11.681,160.667H1.711A1.711,1.711,0,0,0,0,162.378v7.331a1.711,1.711,0,0,0,1.711,1.711h9.97a1.711,1.711,0,0,0,1.711-1.711v-7.331A1.711,1.711,0,0,0,11.681,160.667Z" transform="translate(0 -142.34)" fill="#bfdde7"/>
      <path id="Path_79456" data-name="Path 79456" d="M396.311,160.667h9.97a1.711,1.711,0,0,1,1.711,1.711v7.331a1.711,1.711,0,0,1-1.711,1.711h-9.97a1.711,1.711,0,0,1-1.711-1.711v-7.331A1.711,1.711,0,0,1,396.311,160.667Z" transform="translate(-349.589 -142.34)" fill="#7da6b8"/>
      <path id="Path_79457" data-name="Path 79457" d="M203.192,160.667H191.511a1.711,1.711,0,0,0-1.711,1.711v7.331a1.711,1.711,0,0,0,1.711,1.711h11.681a1.711,1.711,0,0,0,1.711-1.711v-7.331A1.711,1.711,0,0,0,203.192,160.667Z" transform="translate(-168.15 -142.34)" fill="#bfdde7"/>
      <path id="Path_79458" data-name="Path 79458" d="M256,171.419h5.84a1.711,1.711,0,0,0,1.711-1.711v-7.331a1.711,1.711,0,0,0-1.711-1.711H256Z" transform="translate(-226.798 -142.339)" fill="#7da6b8"/>
      <path id="Path_79459" data-name="Path 79459" d="M102.4,160.667h11.681V171.42H102.4Z" transform="translate(-90.719 -142.34)" fill="#f5f5f5"/>
      <path id="Path_79460" data-name="Path 79460" d="M307.2,160.667h11.681V171.42H307.2Z" transform="translate(-272.158 -142.34)" fill="#e6e6e6"/>
    </g>
  </g>
</svg>
