<svg xmlns="http://www.w3.org/2000/svg" xmlns:xlink="http://www.w3.org/1999/xlink" width="60" height="60" viewBox="0 0 60 60">
  <defs>
    <clipPath id="clip-path">
      <rect id="Rectangle_5820" data-name="Rectangle 5820" width="60" height="60" transform="translate(-737 -8719)" fill="#fff" stroke="#707070" stroke-width="1"/>
    </clipPath>
    <linearGradient id="linear-gradient" x1="0.5" y1="1" x2="0.5" gradientUnits="objectBoundingBox">
      <stop offset="0" stop-color="#041e39"/>
      <stop offset="1" stop-color="#57687a"/>
    </linearGradient>
  </defs>
  <g id="Mask_Group_44583" data-name="Mask Group 44583" transform="translate(737 8719)" clip-path="url(#clip-path)">
    <g id="Flat-Virus" transform="translate(-736.734 -8715.549)">
      <g id="covid-19_coronavirus_bacteria_virus_browse_browser_information" data-name="covid-19 coronavirus bacteria virus browse browser information" transform="translate(0 0)">
        <rect id="Rectangle_5819" data-name="Rectangle 5819" width="55.504" height="47.788" rx="4" fill="#175a76"/>
        <path id="Path_79889" data-name="Path 79889" d="M61.867,140.259v37.948a3.965,3.965,0,0,0,3.965,3.965h47.575a3.965,3.965,0,0,0,3.965-3.965V140.259Z" transform="translate(-57.902 -129.074)" fill="#bfdde7"/>
        <path id="Path_79890" data-name="Path 79890" d="M113.406,95.459H65.831a3.965,3.965,0,0,0-3.965,3.965v9.913H79.707a3.965,3.965,0,0,0,3.965-3.965v-.993h33.7V99.424a3.965,3.965,0,0,0-3.965-3.965Z" transform="translate(-57.902 -90.221)" fill="#7da6b8"/>
        <ellipse id="Ellipse_1277" data-name="Ellipse 1277" cx="1.982" cy="1.982" rx="1.982" ry="1.982" transform="translate(6.938 9.205)" fill="url(#linear-gradient)"/>
        <ellipse id="Ellipse_1278" data-name="Ellipse 1278" cx="1.982" cy="1.982" rx="1.982" ry="1.982" transform="translate(11.894 9.205)" fill="url(#linear-gradient)"/>
        <ellipse id="Ellipse_1279" data-name="Ellipse 1279" cx="1.982" cy="1.982" rx="1.982" ry="1.982" transform="translate(16.85 9.205)" fill="url(#linear-gradient)"/>
        <path id="Path_79891" data-name="Path 79891" d="M310.688,284.327H293.7a.664.664,0,0,1,0-1.327h16.991A.664.664,0,0,1,310.688,284.327Z" transform="translate(-258.387 -252.867)" fill="#fff"/>
        <path id="Path_79892" data-name="Path 79892" d="M310.688,252.327H293.7a.664.664,0,0,1,0-1.327h16.991A.664.664,0,0,1,310.688,252.327Z" transform="translate(-258.387 -225.115)" fill="#fff"/>
        <path id="Path_79893" data-name="Path 79893" d="M334.193,220.327h-8.5a.664.664,0,0,1,0-1.327h8.5A.664.664,0,0,1,334.193,220.327Z" transform="translate(-286.14 -197.363)" fill="#fff"/>
        <path id="Path_79894" data-name="Path 79894" d="M310.688,316.327H293.7a.664.664,0,0,1,0-1.327h16.991A.664.664,0,0,1,310.688,316.327Z" transform="translate(-258.387 -280.619)" fill="#fff"/>
        <path id="Path_79895" data-name="Path 79895" d="M310.688,348.327H293.7a.664.664,0,0,1,0-1.327h16.991A.664.664,0,0,1,310.688,348.327Z" transform="translate(-258.387 -308.372)" fill="#fff"/>
        <path id="Path_79896" data-name="Path 79896" d="M310.688,380.327H293.7a.664.664,0,0,1,0-1.327h16.991A.664.664,0,0,1,310.688,380.327Z" transform="translate(-258.387 -336.124)" fill="#fff"/>
        <path id="Path_79897" data-name="Path 79897" d="M310.688,412.327H293.7a.664.664,0,0,1,0-1.327h16.991A.664.664,0,0,1,310.688,412.327Z" transform="translate(-258.387 -363.876)" fill="#fff"/>
        <g id="virus_1_" data-name="virus (1)" transform="translate(8.341 24.454)">
          <g id="XMLID_107_" transform="translate(0 0)">
            <g id="Group_44914" data-name="Group 44914">
              <path id="Path_79225" data-name="Path 79225" d="M19.405,12.785A1.669,1.669,0,0,1,17.964,14.6a1.537,1.537,0,0,1-1.541-.905l-.786.069-.594.286a.448.448,0,0,0-.248.344,5.236,5.236,0,0,1-.3,1.156.446.446,0,0,0,.026.38l.212.378.588.395a1.057,1.057,0,1,1-.668,1.133L14,17.4l-.41-.05a.472.472,0,0,0-.384.129,5.308,5.308,0,0,1-1.162.84.467.467,0,0,0-.245.384l-.052.831.258,1.023a1.314,1.314,0,1,1-1.272.327l-.259-1.03-.4-.643a.586.586,0,0,0-.5-.274h0a5.3,5.3,0,0,1-1.025-.1.585.585,0,0,0-.54.169l-.529.558L6.886,20.8A1.057,1.057,0,1,1,5.7,20.233L6.294,19l.117-.83a.441.441,0,0,0-.157-.4,5.324,5.324,0,0,1-1.2-1.373.44.44,0,0,0-.373-.21l-.828-.008-.907.285a1.479,1.479,0,1,1-.45-1.235l.963-.3.7-.5a.362.362,0,0,0,.15-.326Q4.3,13.88,4.3,13.664a5.244,5.244,0,0,1,.48-2.2.361.361,0,0,0,0-.308l-.208-.426L4,10.307a1.057,1.057,0,1,1,.73-1.094l.627.473.631.113A5.288,5.288,0,0,1,7.57,8.783l.148-.9-.187-.93A1.516,1.516,0,0,1,6.407,5.82,1.481,1.481,0,0,1,7.634,4.082,1.566,1.566,0,0,1,9.478,5.238a1.438,1.438,0,0,1-.65,1.509l.177.877.434.692a.155.155,0,0,0,.131.073h0a5.24,5.24,0,0,1,2.718.756.153.153,0,0,0,.143.008l.679-.315.793-.858a1.057,1.057,0,1,1,.964.892l-.793.858-.258.693a.153.153,0,0,0,.02.143,5.248,5.248,0,0,1,.735,1.421.45.45,0,0,0,.3.291l.645.181.838-.074a1.62,1.62,0,0,1,1.349-1.1,1.579,1.579,0,0,1,1.7,1.5Z" transform="translate(0 -4.053)" fill="#039572"/>
            </g>
          </g>
          <g id="XMLID_8_" transform="translate(5.665 5.705)">
            <g id="Group_44915" data-name="Group 44915">
              <circle id="Ellipse_1144" data-name="Ellipse 1144" cx="3.907" cy="3.907" r="3.907" fill="#29b997"/>
            </g>
          </g>
          <path id="Path_79226" data-name="Path 79226" d="M142.607,150.37a3.907,3.907,0,0,1,3.311-3.861,3.906,3.906,0,1,0,0,7.723A3.908,3.908,0,0,1,142.607,150.37Z" transform="translate(-135.751 -140.758)" fill="#26aa8a"/>
          <g id="Group_44916" data-name="Group 44916" transform="translate(1.886 0.284)">
            <circle id="Ellipse_1145" data-name="Ellipse 1145" cx="1.112" cy="1.112" r="1.112" transform="translate(0)" fill="#039572"/>
            <circle id="Ellipse_1146" data-name="Ellipse 1146" cx="0.735" cy="0.735" r="0.735" transform="translate(0.074 15.042)" fill="#039572"/>
            <circle id="Ellipse_1147" data-name="Ellipse 1147" cx="1.082" cy="1.082" r="1.082" transform="translate(13.217 15.901)" fill="#039572"/>
            <circle id="Ellipse_1148" data-name="Ellipse 1148" cx="1.009" cy="1.009" r="1.009" transform="translate(5.477 7.241)" fill="#039572"/>
            <circle id="Ellipse_1149" data-name="Ellipse 1149" cx="0.687" cy="0.687" r="0.687" transform="translate(6.609 10.697)" fill="#039572"/>
            <circle id="Ellipse_1150" data-name="Ellipse 1150" cx="0.577" cy="0.577" r="0.577" transform="translate(8.876 8.75)" fill="#039572"/>
          </g>
        </g>
      </g>
    </g>
  </g>
</svg>
