<svg xmlns="http://www.w3.org/2000/svg" width="18" height="18" viewBox="0 0 18 18">
  <g id="information_12_" data-name="information (12)" transform="translate(0 0)">
    <path id="Union_20" data-name="Union 20" d="M0,9a9,9,0,1,1,9,9A8.995,8.995,0,0,1,0,9ZM1.406,9A7.594,7.594,0,1,0,9,1.406,7.589,7.589,0,0,0,1.406,9ZM8.3,12.766V8.238a.7.7,0,1,1,1.406,0v4.528a.7.7,0,1,1-1.406,0ZM8.051,5.725A.949.949,0,1,1,9,6.674.949.949,0,0,1,8.051,5.725Z" transform="translate(0 0)" fill="#052eb4"/>
  </g>
</svg>
