<svg xmlns="http://www.w3.org/2000/svg" xmlns:xlink="http://www.w3.org/1999/xlink" width="60" height="60" viewBox="0 0 60 60">
  <defs>
    <clipPath id="clip-path">
      <rect id="Rectangle_5699" data-name="Rectangle 5699" width="60" height="60" transform="translate(8046 -469)" fill="#fff" stroke="#707070" stroke-width="1"/>
    </clipPath>
    <linearGradient id="linear-gradient" x1="0.5" x2="0.5" y2="1" gradientUnits="objectBoundingBox">
      <stop offset="0" stop-color="#041e39"/>
      <stop offset="1" stop-color="#57687a"/>
    </linearGradient>
  </defs>
  <g id="Mask_Group_44552" data-name="Mask Group 44552" transform="translate(-8046 469)" clip-path="url(#clip-path)">
    <g id="_3383435_car_lot_park_parking_roadsign_icon" data-name="3383435_car_lot_park_parking_roadsign_icon" transform="translate(8046.58 -457.116)">
      <path id="Union_23" data-name="Union 23" d="M35.652,29.438H23.327a6.794,6.794,0,1,1-13.587,0H2.447a2.445,2.445,0,0,1-2.279-3.33l2.912-7.5a4.2,4.2,0,0,1,3.911-2.676H8.377v-.006h2.2a1.9,1.9,0,0,0,1.594-.859l.209-.314,4.714-7.1.823-1.222a4.2,4.2,0,0,1,3.48-1.852H37.584a4.2,4.2,0,0,1,3.48,1.852l5.683,8.438a2.408,2.408,0,0,0,2,1.062h3.243A4.2,4.2,0,0,1,55.9,18.613l2.912,7.5a2.445,2.445,0,0,1-2.279,3.33H49.239a6.794,6.794,0,1,1-13.587,0Zm3.727,0a3.067,3.067,0,1,0,3.067-3.067A3.067,3.067,0,0,0,39.379,29.438Zm-25.913,0a3.067,3.067,0,1,0,3.067-3.067A3.067,3.067,0,0,0,13.466,29.438ZM31.36,9.024v5.74a1.086,1.086,0,0,0,1.085,1.086h7.685a1.317,1.317,0,0,0,1.125-2L38.387,9.134a2.492,2.492,0,0,0-2.128-1.2H32.445A1.085,1.085,0,0,0,31.36,9.024Zm-10.768.11-2.869,4.714a1.317,1.317,0,0,0,1.125,2h7.685a1.086,1.086,0,0,0,1.086-1.086V9.024a1.085,1.085,0,0,0-1.086-1.085H22.72A2.492,2.492,0,0,0,20.592,9.134Zm6.08-4.965H24.792V1.879A1.878,1.878,0,0,1,26.671,0h5.636a1.878,1.878,0,0,1,1.879,1.879v2.29H26.671Z" transform="translate(0 0)" fill="url(#linear-gradient)"/>
    </g>
  </g>
</svg>
