<svg xmlns="http://www.w3.org/2000/svg" xmlns:xlink="http://www.w3.org/1999/xlink" width="24" height="24" viewBox="0 0 24 24">
  <defs>
    <clipPath id="clip-path">
      <rect id="Rectangle_6175" data-name="Rectangle 6175" width="24" height="24" transform="translate(2837 -11580)" fill="#3a4e63" stroke="#3a4e63" stroke-width="1"/>
    </clipPath>
  </defs>
  <g id="Mask_Group_44769" data-name="Mask Group 44769" transform="translate(-2837 11580)" clip-path="url(#clip-path)">
    <g id="Group_47443" data-name="Group 47443" transform="translate(-1 0)">
      <path id="Subtraction_33" data-name="Subtraction 33" d="M11.5,21.5H6.75C1.129,21.5,0,18.917,0,14.75v-6a7.9,7.9,0,0,1,1.18-4.8A5.235,5.235,0,0,1,5.041,2.083C5.31,0,6.9,0,7.75,0h4c.851,0,2.435,0,2.708,2.075a5.256,5.256,0,0,1,3.861,1.872A7.881,7.881,0,0,1,19.5,8.74V12.5H18V8.75c0-3.966-1.3-4.9-3.543-5.166C14.274,4.873,13.389,5.5,11.75,5.5h-4c-.823,0-2.355,0-2.685-1.919C2.808,3.846,1.5,4.776,1.5,8.75v6c0,3.7.729,5.25,5.25,5.25H11.5v1.5ZM7.75,1.5c-.985,0-1.249,0-1.25,1.24q0,.034,0,.068C6.508,4,6.771,4,7.75,4h4C12.954,4,13,3.771,13,2.8q0-.035,0-.07C13,1.5,12.733,1.5,11.75,1.5Zm2.38,14.2H5.75a.75.75,0,1,1,0-1.5h4.38a.75.75,0,0,1,0,1.5Zm2.62-4h-7a.75.75,0,0,1,0-1.5h7a.75.75,0,0,1,0,1.5Z" transform="translate(2839 -11580)" fill="#3a4e63"/>
      <g id="Group_47442" data-name="Group 47442" transform="translate(-9 4.5)">
        <path id="Path_94859" data-name="Path 94859" d="M2287.123,1642a3.873,3.873,0,1,1,3.873-3.873A3.878,3.878,0,0,1,2287.123,1642Zm0-7.18a3.306,3.306,0,1,0,3.306,3.306A3.31,3.31,0,0,0,2287.123,1634.817Z" transform="translate(577.743 -13204.255)" fill="#3a4e63" stroke="#3a4e63" stroke-width="1"/>
        <path id="Path_94860" data-name="Path 94860" d="M2302.291,1653.574a.28.28,0,0,1-.2-.083l-.756-.756a.283.283,0,0,1,.4-.4l.756.756a.285.285,0,0,1,0,.4A.28.28,0,0,1,2302.291,1653.574Z" transform="translate(566.544 -13215.454)" fill="#3a4e63" stroke="#3a4e63" stroke-width="1"/>
      </g>
    </g>
  </g>
</svg>
