<svg xmlns="http://www.w3.org/2000/svg" xmlns:xlink="http://www.w3.org/1999/xlink" width="24" height="24" viewBox="0 0 24 24">
    <defs>
        <linearGradient id="linear-gradient" x1="0.5" x2="0.5" y2="1" gradientUnits="objectBoundingBox">
            <stop offset="0" stop-color="#b2b2b2"/>
            <stop offset="1" stop-color="#b2b2b2"/>
        </linearGradient>
        <clipPath id="clip-path">
            <rect id="Rectangle_6201" data-name="Rectangle 6201" width="24" height="24" transform="translate(3926 -10570)" stroke="#707070" stroke-width="1" fill="url(#linear-gradient)"/>
        </clipPath>
    </defs>
    <g id="Mask_Group_44776" data-name="Mask Group 44776" transform="translate(-3926 10570)" clip-path="url(#clip-path)">
        <g id="Group_47544" data-name="Group 47544" transform="translate(3605.34 -10570.25)">
            <path id="Path_94917" data-name="Path 94917" d="M332,12.75A5.75,5.75,0,1,1,337.75,7,5.757,5.757,0,0,1,332,12.75Zm0-10A4.25,4.25,0,1,0,336.25,7,4.259,4.259,0,0,0,332,2.75Z" fill="url(#linear-gradient)"/>
            <path id="Path_94918" data-name="Path 94918" d="M323.41,22.75a.755.755,0,0,1-.75-.75c0-4.27,4.19-7.75,9.34-7.75a.75.75,0,0,1,0,1.5c-4.32,0-7.84,2.8-7.84,6.25A.755.755,0,0,1,323.41,22.75Z" fill="url(#linear-gradient)"/>
            <path id="Path_94919" data-name="Path 94919" d="M338.2,22.15a3.95,3.95,0,1,1,3.95-3.95A3.952,3.952,0,0,1,338.2,22.15Zm0-6.4a2.45,2.45,0,1,0,2.45,2.45A2.454,2.454,0,0,0,338.2,15.75Z" fill="url(#linear-gradient)"/>
            <path id="Path_94920" data-name="Path 94920" d="M342,22.75a.742.742,0,0,1-.53-.22l-1-1a.75.75,0,1,1,1.06-1.06l1,1a.755.755,0,0,1,0,1.06A.742.742,0,0,1,342,22.75Z" fill="url(#linear-gradient)"/>
        </g>
    </g>
</svg>
