<svg xmlns="http://www.w3.org/2000/svg" width="18.5" height="21.5" viewBox="0 0 18.5 21.5">
  <g id="Group_47488" data-name="Group 47488" transform="translate(-1607 9782)">
    <path id="Path_94910" data-name="Path 94910" d="M12,22.75a2.593,2.593,0,0,1-2.06-1.1L8.93,20.3a1.081,1.081,0,0,0-.79-.46,1.119,1.119,0,0,0-.84.37l-.57-.51.55.51c-1.44,1.54-2.55,1.42-3.08,1.21s-1.45-.9-1.45-3.12V7.04c0-4.44,1.28-5.79,5.47-5.79h7.56c4.19,0,5.47,1.35,5.47,5.79V18.3c0,2.21-.91,2.9-1.45,3.12s-1.63.33-3.08-1.21a1.017,1.017,0,0,0-.85-.37,1.1,1.1,0,0,0-.8.46l-1.01,1.35A2.593,2.593,0,0,1,12,22.75ZM8.08,18.33h.13a2.579,2.579,0,0,1,1.91,1.06l1.01,1.35a1.011,1.011,0,0,0,1.73,0l1.01-1.35a2.513,2.513,0,0,1,3.94-.21c.76.81,1.26.91,1.43.84.24-.1.5-.68.5-1.72V7.04c0-3.61-.63-4.29-3.97-4.29H8.22c-3.34,0-3.97.68-3.97,4.29V18.3c0,1.05.26,1.63.5,1.72.17.07.67-.03,1.43-.84A2.667,2.667,0,0,1,8.08,18.33Z" transform="translate(1604.25 -9783.25)"/>
    <path id="Path_94911" data-name="Path 94911" d="M16,7.75H8a.75.75,0,0,1,0-1.5h8a.75.75,0,0,1,0,1.5Z" transform="translate(1604.25 -9783.25)"/>
    <path id="Path_94912" data-name="Path 94912" d="M15,11.75H9a.75.75,0,0,1,0-1.5h6a.75.75,0,0,1,0,1.5Z" transform="translate(1604.25 -9783.25)"/>
  </g>
</svg>
