<svg xmlns="http://www.w3.org/2000/svg" width="18" height="18" viewBox="0 0 18 18">
  <g id="Group_47740" data-name="Group 47740" transform="translate(-1.25 -1.25)">
    <path id="Path_94993" data-name="Path 94993" d="M10.25,16.75a6.5,6.5,0,1,1,6.5-6.5A6.506,6.506,0,0,1,10.25,16.75Zm0-11.818a5.318,5.318,0,1,0,5.318,5.318A5.326,5.326,0,0,0,10.25,4.932Z" fill="#175a76"/>
    <path id="Path_94994" data-name="Path 94994" d="M12,15.75A3.75,3.75,0,1,1,15.75,12,3.751,3.751,0,0,1,12,15.75Zm0-6A2.25,2.25,0,1,0,14.25,12,2.253,2.253,0,0,0,12,9.75Z" transform="translate(-1.75 -1.75)" fill="#175a76"/>
    <path id="Path_94995" data-name="Path 94995" d="M12,4.75A.755.755,0,0,1,11.25,4V2a.75.75,0,0,1,1.5,0V4A.755.755,0,0,1,12,4.75Z" transform="translate(-1.75)" fill="#175a76"/>
    <path id="Path_94996" data-name="Path 94996" d="M4,12.75H2a.75.75,0,0,1,0-1.5H4a.75.75,0,0,1,0,1.5Z" transform="translate(0 -1.75)" fill="#175a76"/>
    <path id="Path_94997" data-name="Path 94997" d="M12,22.75a.755.755,0,0,1-.75-.75V20a.75.75,0,0,1,1.5,0v2A.755.755,0,0,1,12,22.75Z" transform="translate(-1.75 -3.5)" fill="#175a76"/>
    <path id="Path_94998" data-name="Path 94998" d="M22,12.75H20a.75.75,0,0,1,0-1.5h2a.75.75,0,0,1,0,1.5Z" transform="translate(-3.5 -1.75)" fill="#175a76"/>
  </g>
</svg>
