<svg xmlns="http://www.w3.org/2000/svg" xmlns:xlink="http://www.w3.org/1999/xlink" width="60" height="60" viewBox="0 0 60 60">
  <defs>
    <clipPath id="clip-path">
      <rect id="Rectangle_6497" data-name="Rectangle 6497" width="60" height="60" transform="translate(597 -16365)" fill="#003f5a" stroke="#707070" stroke-width="1"/>
    </clipPath>
    <clipPath id="clip-path-2">
      <rect id="Rectangle_6498" data-name="Rectangle 6498" width="30" height="30" transform="translate(390 -20350)" fill="#c20a0c" stroke="#707070" stroke-width="1"/>
    </clipPath>
  </defs>
  <g id="Group_48498" data-name="Group 48498" transform="translate(-1242 -5331)">
    <g id="Mask_Group_44820" data-name="Mask Group 44820" transform="translate(645 21696)" clip-path="url(#clip-path)">
      <path id="Union_147" data-name="Union 147" d="M53.911,54.259h-.036a.643.643,0,0,1-.294-.049c-.161-.079-.183-.211-.379-.22a1.623,1.623,0,0,0-.211,0c-.075.007-.232.071-.305.026s-.081-.187-.124-.249c-.063-.089-.089-.086-.212-.114-.172-.039-.4.018-.54-.079a2.647,2.647,0,0,1-.275-.251c-.088-.085-.076-.123-.14-.053s-.026.118-.141.175c-.09.044-.2.023-.284.074a1.268,1.268,0,0,1,.06.32c-.12.006-.308.013-.392-.085-.055-.064-.04-.161-.113-.194-.108-.05-.474,0-.525.108-.064-.083-.246-.1-.34-.119s-.17-.035-.259-.052a.742.742,0,0,0-.53.1c-.11.078-.145.071-.3.026a2.845,2.845,0,0,0-.473-.185.667.667,0,0,0-.415.065c-.022.02-.008.077-.034.093a.811.811,0,0,1-.31.018c-.047,0-.086,0-.107,0-.112,0-.173,0-.217-.036a1,1,0,0,0-.342-.593.673.673,0,0,1-.258-.347c-.073-.229-.1-.251-.306-.3l-.055-.012c-.221-.049-.677-.215-.726-.347,0-.01-.006-.021.009-.041a.205.205,0,0,1,.089-.03.3.3,0,0,0,.227-.132.348.348,0,0,0,.028-.194.48.48,0,0,1,0-.111.972.972,0,0,1,.09-.228.678.678,0,0,0,.093-.517.582.582,0,0,0-.086-.159.269.269,0,0,1-.071-.169.128.128,0,0,1,.038-.066.235.235,0,0,0,.068-.194.508.508,0,0,0-.123-.254c-.071-.091-.09-.115.026-.229.02-.02.04-.037.057-.051a.285.285,0,0,0,.122-.307.755.755,0,0,0-.221-.376c-.028-.032-.057-.063-.082-.1-.038-.048-.08-.1-.124-.146-.15-.171-.305-.347-.286-.54a1.8,1.8,0,0,1,.056-.247c.065-.24.138-.511.035-.674,0-.578.009-1.2.066-1.819a2.7,2.7,0,0,0-.059-1.017c-.014-.045-.029-.087-.042-.125-.072-.2-.092-.26.116-.387.044-.027.084-.049.12-.07a.522.522,0,0,0,.34-.443c.005-.035.015-.073.024-.113a.57.57,0,0,0-.026-.48.38.38,0,0,0-.249-.135.316.316,0,0,1-.163-.069l-.027-.027a.322.322,0,0,0,.052-.039,2.228,2.228,0,0,1,.48-.3,2.254,2.254,0,0,1,.234-.086c.265-.088.566-.187.663-.389a.773.773,0,0,0-.038-.546c-.012-.038-.023-.074-.032-.106a.522.522,0,0,1,.015-.289.979.979,0,0,0,.039-.277,1.951,1.951,0,0,0-.023-.232.951.951,0,0,1,0-.395,1.137,1.137,0,0,1,.108-.24.879.879,0,0,0,.14-.421,1.39,1.39,0,0,0-.2-.623l-.033-.064a1.471,1.471,0,0,0-.291-.436c-.034-.032-.064-.057-.089-.079-.092-.078-.1-.081-.066-.225.046-.22.075-.447.1-.667s.056-.433.1-.645.07-.4.1-.595c.017-.118.035-.236.054-.353a2.553,2.553,0,0,1,.139-.458,2.075,2.075,0,0,0,.161-.63,11.531,11.531,0,0,1,1.221-.361,1.607,1.607,0,0,1,.256-.029,1.423,1.423,0,0,0,.364-.054,1.471,1.471,0,0,0,.726-.495.985.985,0,0,0,.582.238,2.35,2.35,0,0,0,.366.778l.056.07a1.362,1.362,0,0,0,.374.372.29.29,0,0,0,.184.045.336.336,0,0,1,.088,0,4.416,4.416,0,0,0,.689.022l.071,0,.01-.071a.886.886,0,0,0-.14-.551,1.131,1.131,0,0,1-.13-.336,2.892,2.892,0,0,1,.006-.716,4.14,4.14,0,0,0,.024-.572c0-.064-.009-.132-.016-.2A1.623,1.623,0,0,1,51.74,32a1.313,1.313,0,0,1,.095-.228.818.818,0,0,0,.112-.468,1.847,1.847,0,0,0-.115-.464c-.012-.034-.023-.07-.035-.1.193-.01.389-.013.58,0,.41.018.841.245,1.258.143.09-.022.222-.121.309-.047s.049.272.045.378a1.189,1.189,0,0,0,.041.37c.05.179.171.331.221.509.069.25-.206.388-.144.611.025.09.072.125.054.222a1.424,1.424,0,0,1-.123.281,2.376,2.376,0,0,1-.443.611c-.258.286-.522.568-.755.876-.26.343-.532.689-.759,1.054-.087.14-.164.285-.247.427a2.957,2.957,0,0,0-.328.63,1.715,1.715,0,0,1,.62.659,2.81,2.81,0,0,0,.77.891c.167.113.292.1.311.309a.471.471,0,0,0,.079.261c.081.108.161.1.168.244s-.039.219.122.259c.1.025.15-.026.178.081.047.177-.118.263.064.4a.682.682,0,0,1,.225.231,2.839,2.839,0,0,0,.248.54,1.717,1.717,0,0,0,.389.267,1.122,1.122,0,0,0,.526.214,1.079,1.079,0,0,1,.474.152,1.943,1.943,0,0,0,.55.3,1.429,1.429,0,0,0,.289.018.705.705,0,0,1,.527.139c.117.107.192.39.356.419a.343.343,0,0,0,.166-.044,1.124,1.124,0,0,1,.456-.084,4.093,4.093,0,0,1-.1.672c-.054.312.146.572.21.869a3.407,3.407,0,0,1,.05,1.085c-.015.155-.037.666.116.773,0,.064.046.1.052.159.008.076-.061.1-.074.164-.045.218.177.141.3.122.084-.013.144.036.224.039a.862.862,0,0,0,.324-.087,1.6,1.6,0,0,1,.448-.225.393.393,0,0,0,.151.281c.061.04.207.037.243.094.049.076-.033.128-.061.187a.574.574,0,0,0-.045.177,1.3,1.3,0,0,0-.031.322,1.357,1.357,0,0,1,.033.3c-.024.15-.226.166-.237.339,0,.072.038.162.033.246a.406.406,0,0,1-.068.223c-.085.129-.179.3-.368.28-.119-.011-.176-.149-.29-.208a.317.317,0,0,0-.286-.018c-.055.032-.088.107-.138.147-.105.085-.244.077-.36.135-.066.033-.107.083-.17.117-.1.054-.18.048-.293.1-.081.04-.172,0-.254.041s-.118.138-.2.169a.283.283,0,0,1-.13.009.206.206,0,0,0-.175.039c-.089.081-.023.154-.026.247-.007.182-.281.2-.248.362.016.077.1.113.117.181.035.114-.068.152-.157.19a.653.653,0,0,1-.319.06c-.112-.011-.1-.029-.18-.113-.048-.053-.1-.132-.18-.037-.044.05-.009.151-.056.2s-.138.027-.195.04a.229.229,0,0,0-.209.185,1.641,1.641,0,0,0-.053.34c0,.126.005.253,0,.38a.505.505,0,0,1-.066.2.346.346,0,0,0,0,.25c.053.074.179.063.257.093.034.169-.168.245-.263.323s.01.272-.143.352c-.31-.235-.22.4-.235.551-.021.216-.048.426-.084.64a4.952,4.952,0,0,0-.026.816l-.043-.011c-.1-.02-.142.072-.2.128-.095.095-.142.077-.261.051s-.225-.021-.27.079c-.016.036.009.069-.022.107a.16.16,0,0,1-.131.043Zm-7.468-.526c-.1-.022-.13-.146-.22-.184-.18-.075-.4-.047-.587-.124-.116-.049-.185-.149-.291-.207s-.127-.1-.222-.076a3.1,3.1,0,0,1-.617.063.851.851,0,0,1-.243-.042c-.151-.04-.31-.079-.413.021-.08.078-.051.2-.176.244a.657.657,0,0,1-.451-.089.828.828,0,0,1-.354-.229c-.048-.06-.135-.222-.212-.212,0,.1-.243.185-.3.123-.034-.037,0-.1-.019-.149-.085-.236-.334-.122-.481-.054-.08.037-.088.068-.2.067a2.69,2.69,0,0,1-.339-.048.5.5,0,0,1-.3-.083c-.037-.033-.055-.1-.1-.119-.088-.047-.246-.008-.348-.052a.309.309,0,0,1-.19-.2c-.014-.056.007-.109-.013-.163-.036-.1-.1-.144-.118-.254-.03-.159-.166-.249-.19-.415a.288.288,0,0,1,.033-.2c.023-.039.078-.063.087-.11.027-.142-.154-.11-.238-.151-.305-.148-.29-.624-.366-.89a1.151,1.151,0,0,1,0-.485c.033-.3-.1-.422-.27-.633a.631.631,0,0,1-.1-.213,1.817,1.817,0,0,0-.056-.177c-.013-.029-.1-.13-.092-.155.021-.138.337-.144.378-.312a1.675,1.675,0,0,0-.261-.012.661.661,0,0,1-.479-.121c-.108-.091-.25-.11-.331-.231-.093-.138-.132-.349-.346-.276a1.925,1.925,0,0,1-.6.167c-.049,0-.1,0-.146-.006a1.17,1.17,0,0,0-.249,0,3.279,3.279,0,0,0-.425.112,5.447,5.447,0,0,1-.58.083.954.954,0,0,0-.547.4c-.055.081-.053.132-.147.153s-.213-.067-.3-.121a2.771,2.771,0,0,0-.326.265c-.138.168-.062.173-.048.343a.409.409,0,0,1-.246.419.431.431,0,0,1-.2.028c-.053-.016-.069-.08-.114-.1a.739.739,0,0,0-.5.083c-.079.083.014.242-.078.312-.049.037-.2.031-.251.038a2.605,2.605,0,0,0-.3.059c-.08.021-.2.012-.272.06s-.078.113-.122.165a.646.646,0,0,1-.119.1.663.663,0,0,1-.356.172,2.506,2.506,0,0,1-.244-.074,6.407,6.407,0,0,0-.7-.171,1.131,1.131,0,0,1-.3-.1,1.823,1.823,0,0,1-.349-.117c-.171-.1-.281-.274-.476-.346a1.172,1.172,0,0,0-.5-.033,1.986,1.986,0,0,0-.745.221c-.261-.18-.68-.214-.867-.482-.072-.1-.079-.26-.159-.364a.475.475,0,0,0-.293-.168c-.064-.013-.134,0-.2-.018s-.072-.034-.133-.082a1.152,1.152,0,0,0-.149-.081c-.12-.067-.206-.171-.345-.2-.255-.053-.5-.008-.672-.24a.826.826,0,0,0-.474-.31c-.222-.072-.827-.228-.779-.556a.471.471,0,0,1,.159-.038,3.06,3.06,0,0,0-.258-.492c-.125-.158-.316-.13-.523-.2a1.43,1.43,0,0,1-.428-.27c-.293-.215-.443-.415-.736-.663-.131-.111-.138-.235-.338-.222-.255.018-.489.182-.753.155a3.227,3.227,0,0,1-.709-.253,1.266,1.266,0,0,1-.395-.179,1.659,1.659,0,0,1-.4-.448c-.228-.389.1-.876-.3-1.2a1.366,1.366,0,0,1-.351-.5,1.269,1.269,0,0,1-.1-.514,2.03,2.03,0,0,0-.028-.262,1.309,1.309,0,0,0-.069-.233.838.838,0,0,1-.025-.129c-.015-.064-.1-.1-.154-.11a.2.2,0,0,0-.146.056c-.079.06-.169.155-.263.063a1.406,1.406,0,0,1-.165-.278c-.026-.044-.1-.185-.071-.237s.177-.069.231-.088c.088-.031.247-.049.3-.143a.125.125,0,0,0,.014-.1.249.249,0,0,0-.157-.18.513.513,0,0,0-.246.025,1.024,1.024,0,0,1-.188.007c-.157,0-.478-.043-.431-.27a.494.494,0,0,0,.007-.3c-.046-.165-.106-.334-.145-.5.13-.04.192-.087.185-.224a.373.373,0,0,0-.076-.229c-.049-.062-.1-.061-.166-.1-.119-.065-.167-.226-.219-.344a.385.385,0,0,0-.205-.222c-.105-.067-.267-.164-.284-.3s0-.25-.117-.351-.308-.1-.419-.215c-.064-.064-.053-.136-.043-.221a2.674,2.674,0,0,0,.041-.472,1,1,0,0,0-.045-.318c-.04-.083-.169-.1-.273-.117a.256.256,0,0,0,.055-.066.744.744,0,0,0,.054-.15c.037-.133.057-.169.129-.17a.5.5,0,0,1,.138.027c.03.008.06.017.088.022.064.013.128.023.192.033l.144.024a1.447,1.447,0,0,1,.524.164c.014.009.033.025.054.043a.88.88,0,0,0,.14.1.944.944,0,0,1,.01.211.592.592,0,0,0,.137.493.533.533,0,0,0,.446.121.553.553,0,0,1,.244.022,1.033,1.033,0,0,1,.273.21,1.255,1.255,0,0,0,.335.252,1.154,1.154,0,0,0,.373.08.6.6,0,0,1,.4.132.941.941,0,0,1,.185.428,1.552,1.552,0,0,0,.132.375,1.645,1.645,0,0,0,.386.428l.055.048a3.849,3.849,0,0,1,.556.684c.073.1.145.208.218.3a3.429,3.429,0,0,1,.489,1.07l.035.108a6.85,6.85,0,0,0,.375.933c.047.094.106.191.163.286a2.457,2.457,0,0,1,.235.453,1.432,1.432,0,0,1,.054.361,1.477,1.477,0,0,0,.077.448.49.49,0,0,0,.176.239,1.2,1.2,0,0,1,.091.081,1.467,1.467,0,0,1,.137.169,1.757,1.757,0,0,0,.149.186c.037.039.075.075.113.11a.958.958,0,0,1,.25.311,1.329,1.329,0,0,1,.074.346,1.383,1.383,0,0,0,.089.393.58.58,0,0,0,.466.323.851.851,0,0,1,.252.089.73.73,0,0,1,.214.274.755.755,0,0,0,.385.4.49.49,0,0,0,.274.261,1.116,1.116,0,0,1,.11.063,1.4,1.4,0,0,1,.142.116.951.951,0,0,0,.293.2l.038.014L26.4,47.6c.186-.111.3-.046.5.079a1.425,1.425,0,0,0,.262.141.742.742,0,0,0,.453-.01,1.019,1.019,0,0,1,.222-.037.781.781,0,0,1,.277.073,1.157,1.157,0,0,0,.244.079,1.3,1.3,0,0,0,.231.022.669.669,0,0,0,.71-.542,1.191,1.191,0,0,0,.023-.23.468.468,0,0,1,.085-.329,1.192,1.192,0,0,1,.515-.182,1.479,1.479,0,0,1,.378.057,1.894,1.894,0,0,0,.345.06c.169.008.215-.013.274-.083A.319.319,0,0,1,31,46.631a.677.677,0,0,1,.641.011c.074.025.149.05.225.069a1.064,1.064,0,0,0,.775-.031.552.552,0,0,0,.232-.261,1.063,1.063,0,0,1,.077-.128,1.081,1.081,0,0,1,.147-.152.989.989,0,0,0,.21-.237.943.943,0,0,0,.065-.148c.029-.081.036-.1.142-.129a1.193,1.193,0,0,1,.26-.03c.24-.011.539-.025.626-.428.049-.229-.119-.357-.254-.46s-.215-.172-.2-.284a.372.372,0,0,1,.079-.169.578.578,0,0,0,.1-.187.869.869,0,0,0,.007-.254c0-.035,0-.069,0-.1a1.633,1.633,0,0,1,.029-.247.831.831,0,0,0-.02-.54,2.234,2.234,0,0,0-.92-.685l-.154-.079-.036-.019c-.069-.035-.211-.108-.208-.17,0-.031.039-.057.095-.094a.293.293,0,0,0,.146-.162.531.531,0,0,0-.041-.241.9.9,0,0,1-.027-.1c0-.032-.007-.065-.01-.1s-.005-.064-.009-.1a1.565,1.565,0,0,1,.829.252.814.814,0,0,1,.143.168.736.736,0,0,0,.221.231.483.483,0,0,0,.469-.067l.084-.043a6.122,6.122,0,0,1,.886-.4l.031-.011a1.012,1.012,0,0,1,.255-.07c.05.017.073.169.045.3a.7.7,0,0,1-.086.187.88.88,0,0,0-.1.212.6.6,0,0,0,.078.436l.019.042a1.294,1.294,0,0,1,.1.506c.005.081.01.165.023.258a1.045,1.045,0,0,0,.359.619c.049.051.1.1.149.16a.89.89,0,0,0,.595.359.816.816,0,0,0,.594-.244,4.055,4.055,0,0,0,.373-.367.655.655,0,0,1,.305-.207l.1-.041.022-.01c.151-.067.151-.067.3.072a.869.869,0,0,1,.085.1.631.631,0,0,0,.194.19,1.912,1.912,0,0,1-.022.275.594.594,0,0,0,.323.723c.066.038.137.071.209.105a1.009,1.009,0,0,1,.43.3.394.394,0,0,1,.077.22c0,.034-.007.043-.017.051a.443.443,0,0,0-.075.072.329.329,0,0,0-.019.5.514.514,0,0,0,.126.082.2.2,0,0,1,.1.08.415.415,0,0,1,.038.224v.043a2.017,2.017,0,0,0,.1.535,1.931,1.931,0,0,1,.089.44,1.556,1.556,0,0,1-.016.249,2.12,2.12,0,0,0-.018.225c0,.022,0,.048,0,.075a.576.576,0,0,0,.053.36c.122.174.388.171.582.168.048,0,.092,0,.128,0a1.367,1.367,0,0,1,.872.59l.079.089.059-.1c.033-.057.064-.123.1-.189.076-.159.162-.34.267-.365a.243.243,0,0,1,.19.07c.036.028.08.059.127.093a1.841,1.841,0,0,1,.509.469c-.088-.018-.183,0-.241.165a.576.576,0,0,0,0,.277.586.586,0,0,1,.012.162c-.021.149-.056.3-.09.439a3.417,3.417,0,0,0-.11.64.352.352,0,0,0-.163.234.205.205,0,0,0,.082.192c.138.108.364.03.563-.04a1.149,1.149,0,0,1,.219-.063c.033,0,.08-.011.134-.021a.891.891,0,0,1,.3-.024c.044.023.059.079.079.169a.453.453,0,0,0,.111.248c.183.174.363.036.494-.065.153-.118.237-.166.341-.1a.517.517,0,0,1,.093.088.6.6,0,0,0,.149.13l.079.045.087.05a.5.5,0,0,1-.072.019.294.294,0,0,0-.19.094.208.208,0,0,0-.033.2c.1.279.842.453.85.455l.056.012c.13.027.13.027.181.187a.832.832,0,0,0,.313.423.787.787,0,0,1,.255.407c-.1.085-.183.222-.318.222A.218.218,0,0,1,46.443,53.733Zm-.978-2.214-.08-.046a.458.458,0,0,1-.106-.1.655.655,0,0,0-.126-.116c-.216-.142-.4,0-.538.105-.153.118-.2.141-.273.076a.325.325,0,0,1-.062-.16A.373.373,0,0,0,44.113,51a.732.732,0,0,0-.411.008c-.047.009-.088.016-.117.019a1.22,1.22,0,0,0-.261.072c-.135.047-.337.117-.4.066a.037.037,0,0,1-.018-.037A.2.2,0,0,1,43.016,51l.049-.022v-.054a3.036,3.036,0,0,1,.108-.653,4.635,4.635,0,0,0,.093-.455.715.715,0,0,0-.013-.212.443.443,0,0,1-.005-.2.175.175,0,0,1,.026-.055.361.361,0,0,1,.083.02l.075.023.114.031-.007-.118c-.016-.294-.366-.545-.621-.728-.046-.033-.088-.063-.123-.09a.4.4,0,0,0-.333-.1c-.184.044-.285.254-.381.457l-.034.071a1.373,1.373,0,0,0-.907-.555c-.04,0-.089,0-.141,0-.156,0-.37,0-.44-.1a.492.492,0,0,1-.023-.251c0-.03,0-.059,0-.084a1.913,1.913,0,0,1,.017-.207,1.74,1.74,0,0,0,.017-.276,2.093,2.093,0,0,0-.095-.479,1.861,1.861,0,0,1-.092-.49v-.041a.563.563,0,0,0-.063-.313.356.356,0,0,0-.168-.144.352.352,0,0,1-.088-.055c-.073-.067-.085-.118.036-.263a.28.28,0,0,1,.049-.047.2.2,0,0,0,.081-.167.546.546,0,0,0-.106-.335,1.15,1.15,0,0,0-.5-.353c-.068-.032-.135-.063-.2-.1-.288-.167-.271-.3-.239-.553a1.856,1.856,0,0,0,.021-.359l0-.059-.056-.017a.391.391,0,0,1-.166-.155,1.014,1.014,0,0,0-.1-.122c-.207-.2-.272-.2-.483-.1l-.022.009-.094.04a.815.815,0,0,0-.368.252,3.91,3.91,0,0,1-.358.352.662.662,0,0,1-.469.2.732.732,0,0,1-.477-.3c-.052-.061-.1-.115-.156-.168a.9.9,0,0,1-.313-.522c-.012-.089-.017-.169-.022-.246a1.45,1.45,0,0,0-.119-.567l-.02-.043a.449.449,0,0,1-.067-.32.738.738,0,0,1,.081-.17.829.829,0,0,0,.105-.236c.036-.166.025-.434-.158-.5a.707.707,0,0,0-.365.07l-.028.01a6.325,6.325,0,0,0-.911.407l-.085.044c-.133.07-.227.113-.308.068a.63.63,0,0,1-.164-.18.929.929,0,0,0-.179-.205,1.759,1.759,0,0,0-.965-.288v0a1.318,1.318,0,0,0-.229-.567c-.123-.166-.233-.342-.338-.512-.068-.11-.136-.22-.209-.328-.031-.046-.053-.085-.071-.118a.341.341,0,0,0-.326-.215.878.878,0,0,0-.212.01,1.08,1.08,0,0,1-.137.012c-.415,0-.548-.118-.592-.523a1.96,1.96,0,0,0-.117-.434,2.208,2.208,0,0,1-.1-.322A3.207,3.207,0,0,0,31,37.963a.818.818,0,0,1,.087-.01c.092-.006.114-.038.147-.113l.02-.045a1.009,1.009,0,0,0,.046-.279l0-.052a1.8,1.8,0,0,0-.055-.555,2.486,2.486,0,0,1-.055-.347,1.134,1.134,0,0,1,.021-.253,1.309,1.309,0,0,0,.023-.285l0-.051-.046-.022-.112-.05a.563.563,0,0,1-.259-.174,1,1,0,0,1-.139-.274,1.4,1.4,0,0,0-.132-.277l-.035-.052c-.115-.17-.122-.18-.033-.355l.025-.048a.94.94,0,0,0,.143-.562c0-.031,0-.063,0-.094-.008-.134-.01-.22.056-.286a.741.741,0,0,1,.315-.121,1.708,1.708,0,0,0,.17-.046,2.188,2.188,0,0,1,.447-.087,1.378,1.378,0,0,0,.732-.232c.168-.142.183-.137.432-.058l.119.038a.932.932,0,0,0,.647.048,2.647,2.647,0,0,1,.312-.062,1.329,1.329,0,0,0,.783-.3c.213-.235.133-.571.057-.9a.994.994,0,0,1-.034-.62c.057-.107.133-.124.273-.148.044-.007.089-.015.135-.027a1.266,1.266,0,0,0,.6-.337,4.068,4.068,0,0,1,.809-.618l.087-.055a1.067,1.067,0,0,0,.232-.218.649.649,0,0,1,.287-.227l.057-.019v-.061c0-.023,0-.046,0-.068,0-.115,0-.147.047-.171.083-.046.285.031.393.072l.06.022c.476.17,1.041.368,1.629.546.209.063.417.136.618.206.245.086.5.174.76.248a7.294,7.294,0,0,1,1.542.6c.327.174.757.4,1.178.573.176.074.352.159.523.241.224.108.455.22.692.309a1.606,1.606,0,0,0,.349.073.79.79,0,0,1,.454.149.773.773,0,0,1,.1.148,1.015,1.015,0,0,0,.146.2,2.806,2.806,0,0,1,.195.211c.064.079.134.156.2.234a3.916,3.916,0,0,1,.264.313,2.31,2.31,0,0,1,.209.382,2.207,2.207,0,0,0,.274.475l.019-.016a2.128,2.128,0,0,1-.144.525,2.706,2.706,0,0,0-.147.489c-.02.119-.037.238-.055.357-.028.193-.057.392-.1.585-.045.217-.074.441-.1.657s-.057.44-.1.654-.006.282.123.39c.024.02.051.043.083.073a1.325,1.325,0,0,1,.256.389l.033.065a1.264,1.264,0,0,1,.183.544.735.735,0,0,1-.119.342,1.283,1.283,0,0,0-.122.276,1.1,1.1,0,0,0-.005.463,1.835,1.835,0,0,1,.021.212.811.811,0,0,1-.034.231.683.683,0,0,0-.015.373c.009.034.021.073.034.115a.667.667,0,0,1,.047.421c-.066.136-.353.231-.563.3a2.163,2.163,0,0,0-.775.42.2.2,0,0,1-.061.036.123.123,0,0,0-.085.088c-.012.066.036.113.116.19a.473.473,0,0,0,.244.113c.075.017.119.029.15.07.059.08.026.218,0,.339-.011.045-.021.087-.027.126-.03.194-.087.226-.255.32-.038.021-.079.044-.125.072-.327.2-.265.371-.188.59.013.036.027.076.04.119a2.538,2.538,0,0,1,.052.95c-.059.637-.067,1.271-.067,1.862v.03l.019.024c.075.091,0,.356-.048.549a1.9,1.9,0,0,0-.061.274.933.933,0,0,0,.328.67c.042.047.082.093.118.139s.058.069.089.1a.609.609,0,0,1,.179.289c.013.086,0,.1-.064.151-.02.017-.043.036-.066.06-.224.22-.118.356-.041.455a.349.349,0,0,1,.088.171c0,.022,0,.03-.03.063a.288.288,0,0,0-.076.152.409.409,0,0,0,.1.289.458.458,0,0,1,.063.112.523.523,0,0,1-.083.393,1.127,1.127,0,0,0-.1.269.5.5,0,0,0-.007.114ZM33.727,50.261c-.078-.01-.183,0-.133-.111s.2-.094.248-.19c.019-.039-.01-.094.008-.13s.07-.054.094-.067a1.193,1.193,0,0,1,.426-.125c.11-.018.258,0,.336-.094.06-.069.095-.155.179-.2s.223-.029.218-.15c0-.088-.046-.181.01-.262a.627.627,0,0,1,.158-.136c.065-.05.021-.12.011-.189a1.851,1.851,0,0,1,.2.019.289.289,0,0,0,.212.008c.057-.033.068-.1.124-.122a.773.773,0,0,0,.2-.064c.13-.088.214-.189.386-.194a.783.783,0,0,1,.1.006.454.454,0,0,0,.166,0,.876.876,0,0,1,.111-.029.1.1,0,0,1,.1.027c.022.026.018.048-.007.078-.049.059-.152.04-.214.074a.3.3,0,0,0-.15.31,1.534,1.534,0,0,1,0,.192c-.012.092-.1.133-.177.165-.124.049-.26.054-.385.1-.056.02-.066.026-.087.08s-.027.1-.041.148-.022.136-.055.161-.121-.071-.157-.1a.641.641,0,0,0-.184-.128.4.4,0,0,0-.264.045c-.042.035-.04.1-.084.134s-.1.024-.139.049a1.053,1.053,0,0,0-.226.27c-.047.06-.1.113-.151.172-.034.042-.055.092-.107.112a.6.6,0,0,1-.23.007.717.717,0,0,0-.161-.023c-.05.01-.061.042-.092.083-.055.072-.089.09-.138.09A.944.944,0,0,1,33.727,50.261ZM28.4,47.76a1.006,1.006,0,0,1-.209-.069.9.9,0,0,0-.344-.086,1.16,1.16,0,0,0-.26.042.592.592,0,0,1-.353.016,1.279,1.279,0,0,1-.23-.125.589.589,0,0,0-.641-.1.979.979,0,0,1-.2-.154,1.578,1.578,0,0,0-.16-.13,1.3,1.3,0,0,0-.127-.073c-.113-.059-.178-.1-.2-.2l-.012-.051-.051-.012c-.16-.039-.24-.18-.325-.33a.857.857,0,0,0-.273-.336,1.01,1.01,0,0,0-.3-.109c-.156-.038-.28-.068-.35-.226a1.246,1.246,0,0,1-.075-.344,1.477,1.477,0,0,0-.086-.391,1.1,1.1,0,0,0-.289-.369c-.035-.034-.072-.068-.107-.105a1.62,1.62,0,0,1-.135-.168,1.617,1.617,0,0,0-.154-.189c-.04-.04-.073-.068-.1-.092a.328.328,0,0,1-.125-.17,1.325,1.325,0,0,1-.066-.4,1.572,1.572,0,0,0-.062-.4,2.556,2.556,0,0,0-.251-.487c-.058-.1-.113-.186-.157-.274a6.655,6.655,0,0,1-.365-.91l-.035-.108a3.608,3.608,0,0,0-.515-1.12c-.072-.1-.143-.2-.214-.3a3.965,3.965,0,0,0-.583-.715l-.056-.049a1.512,1.512,0,0,1-.35-.383,1.4,1.4,0,0,1-.116-.334,1.078,1.078,0,0,0-.228-.5.742.742,0,0,0-.5-.183,1.011,1.011,0,0,1-.32-.066,1.112,1.112,0,0,1-.287-.221,1.169,1.169,0,0,0-.323-.243.7.7,0,0,0-.321-.035c-.143.007-.235.008-.318-.073a.444.444,0,0,1-.085-.365,1.247,1.247,0,0,0-.005-.224l.028-.025.01-.01a.364.364,0,0,1,.191-.01l.049.005a1.152,1.152,0,0,0,.46-.037c.053-.017.106-.037.159-.056a2.744,2.744,0,0,1,.309-.1l.038-.009a.833.833,0,0,0,.454-.21,1,1,0,0,0,.242-.411.274.274,0,0,0-.038-.186c-.02-.04-.025-.053-.01-.077a.164.164,0,0,0,.057-.151.241.241,0,0,0-.057-.128.146.146,0,0,1-.024-.038.41.41,0,0,1-.006-.144.674.674,0,0,0,0-.163.49.49,0,0,0-.024-.078c-.007-.019-.019-.05-.026-.066a.273.273,0,0,1,.056.015.583.583,0,0,1,.149.1.8.8,0,0,0,.174.124.942.942,0,0,0,.244.066.818.818,0,0,1,.184.046.291.291,0,0,1,.064.048.413.413,0,0,0,.116.08.739.739,0,0,0,.334.052.33.33,0,0,0,.313-.347,1.11,1.11,0,0,1,.008-.15,1.1,1.1,0,0,0,.007-.2.278.278,0,0,0-.06-.144l.1-.033c.246-.075.374-.132.381-.5a1.216,1.216,0,0,0-.027-.242,1,1,0,0,1-.024-.21.545.545,0,0,1,.095-.282,1.206,1.206,0,0,0,.1-.2,1.088,1.088,0,0,0,.044-.308,1.359,1.359,0,0,1,.019-.2c.005-.026.014-.054.022-.083a.467.467,0,0,0-.006-.391.7.7,0,0,0-.378-.23c-.234-.084-.348-.142-.343-.286l.148-.019a3.512,3.512,0,0,0,.927-.2,1.581,1.581,0,0,0,.179-.1c.152-.091.407-.243.481-.149a.329.329,0,0,1,.022.182.378.378,0,0,0,.074.3.62.62,0,0,0,.4.094.989.989,0,0,1,.192.017,1.351,1.351,0,0,0,.544.065.5.5,0,0,0,.246-.092.663.663,0,0,1,.079-.046,1.342,1.342,0,0,1,.314-.077l.028,0c.044-.007.092-.019.14-.031a.746.746,0,0,1,.2-.035v-.014a2.374,2.374,0,0,1,1.3.884,1.833,1.833,0,0,0,.163.157.7.7,0,0,1,.253.336c.026.09.054.179.083.269.039.124.079.248.112.374a3.157,3.157,0,0,0,.23.568,2.349,2.349,0,0,1,.24.648,1.165,1.165,0,0,0,.53.762c.075.06.152.123.226.193a1.49,1.49,0,0,1,.37.679,1.4,1.4,0,0,1,.013.294,1.1,1.1,0,0,0,.064.487,1.377,1.377,0,0,0,.539.533l.1.067a4.087,4.087,0,0,0,.743.422,2,2,0,0,0,.111.4,1.8,1.8,0,0,1,.109.4c.054.492.26.675.762.675a1.518,1.518,0,0,0,.159-.013.772.772,0,0,1,.172-.01c.13.014.137.027.2.13.02.036.044.078.078.128.071.106.138.215.205.323.107.174.219.353.346.525a1.153,1.153,0,0,1,.2.5l.016.072a1.219,1.219,0,0,1,.023.175c0,.035.006.07.01.105a1.069,1.069,0,0,0,.033.129,1.3,1.3,0,0,1,.039.152c0,.014-.049.044-.074.06a.3.3,0,0,0-.171.227c-.01.173.184.273.3.332l.034.017.156.081a2.127,2.127,0,0,1,.851.62.762.762,0,0,1,0,.425,1.732,1.732,0,0,0-.032.274c0,.034,0,.072.005.112a.746.746,0,0,1,0,.2.449.449,0,0,1-.071.132.523.523,0,0,0-.108.249.5.5,0,0,0,.271.436c.139.105.216.171.191.288-.057.262-.207.282-.467.294a1.321,1.321,0,0,0-.3.036.315.315,0,0,0-.256.236.767.767,0,0,1-.054.123.855.855,0,0,1-.176.195,1.228,1.228,0,0,0-.17.177,1.212,1.212,0,0,0-.089.148.392.392,0,0,1-.163.192.911.911,0,0,1-.652.015c-.071-.018-.142-.042-.211-.065a.828.828,0,0,0-.79.009.492.492,0,0,0-.112.1c-.019.022-.024.028-.136.023a1.744,1.744,0,0,1-.314-.055,1.6,1.6,0,0,0-.425-.061,1.3,1.3,0,0,0-.625.227.6.6,0,0,0-.14.448,1.067,1.067,0,0,1-.019.2.494.494,0,0,1-.535.411A1.19,1.19,0,0,1,28.4,47.76ZM29.8,37.42l-.1-.069a1.252,1.252,0,0,1-.478-.46.955.955,0,0,1-.049-.415,1.567,1.567,0,0,0-.016-.33,1.664,1.664,0,0,0-.421-.771c-.079-.075-.159-.139-.237-.2a1.016,1.016,0,0,1-.469-.655,2.51,2.51,0,0,0-.255-.7,3.017,3.017,0,0,1-.219-.537c-.034-.129-.074-.256-.114-.382-.028-.088-.056-.176-.081-.265a.855.855,0,0,0-.3-.416,1.665,1.665,0,0,1-.149-.142,2.58,2.58,0,0,0-1.383-.939,2.8,2.8,0,0,0-.063-.567,1.9,1.9,0,0,1-.033-.774c.026-.119.063-.237.1-.362a2.509,2.509,0,0,0,.149-.714,1.358,1.358,0,0,0-.062-.355,1,1,0,0,1-.052-.317.429.429,0,0,1,.256-.317,2.189,2.189,0,0,1,.244-.089,1.245,1.245,0,0,0,.458-.23c.257-.2.326-.258.622-.159a1.328,1.328,0,0,1,.228.113,1.169,1.169,0,0,0,.346.151,1.4,1.4,0,0,0,.592-.082l.126-.035a6.584,6.584,0,0,0,.735-.227,2.612,2.612,0,0,0,.482-.263,2.316,2.316,0,0,1,.439-.24,2.727,2.727,0,0,1,.46-.108,1.95,1.95,0,0,0,.712-.22,1.367,1.367,0,0,0,.381-.5c.028-.051.054-.1.08-.14l.077-.123a2.913,2.913,0,0,0,.325-.62c.111-.338.169-.414.524-.453l.053-.006c.3-.032.53-.057.656-.432.013-.039.028-.081.043-.124a3.057,3.057,0,0,0,.136-.458,1.77,1.77,0,0,0-.044-.62c-.016-.085-.032-.168-.041-.247-.017-.149-.05-.307-.083-.46a1.532,1.532,0,0,1,.044-1.192c.078-.109.235-.12.4-.133a1.514,1.514,0,0,0,.237-.03,2.927,2.927,0,0,0,.342-.115,1.883,1.883,0,0,1,.408-.124l.048-.005.02-.043c.046-.1.082-.2.116-.288a1.374,1.374,0,0,1,.334-.582l.068-.064a2.672,2.672,0,0,0,.562-.66,1.84,1.84,0,0,0,.084-.167,1.252,1.252,0,0,0,.8-.29,1.893,1.893,0,0,1,.444-.242c.261-.086.526-.183.782-.276.188-.069.375-.136.557-.2a1.1,1.1,0,0,1,.619.006.89.89,0,0,1,.325.279,1.409,1.409,0,0,0,.253.249,1.245,1.245,0,0,0,.343.143c.168.052.327.1.37.21.069.175-.115.334-.309.482a2.2,2.2,0,0,1-.514.263,3.324,3.324,0,0,0-.4.183,1.3,1.3,0,0,0-.417.609c-.025.074-.043.149-.06.224a1.044,1.044,0,0,1-.163.416c-.026.035-.053.068-.078.1a.866.866,0,0,0-.239.493,1.459,1.459,0,0,0,.063.472,3.008,3.008,0,0,0,.148.426,1.583,1.583,0,0,1,.163.691,1.061,1.061,0,0,1-.02.141.708.708,0,0,0-.009.338.486.486,0,0,0,.631.226,1.013,1.013,0,0,0,.5-.327.551.551,0,0,0,.055-.107l.03.023a.885.885,0,0,1,.256.6c.006.038.012.076.019.113a1.01,1.01,0,0,0,.357.54.788.788,0,0,1,.285.412,1.772,1.772,0,0,1,.015.309.716.716,0,0,0,.26.665,4.149,4.149,0,0,0,.419.295,2.84,2.84,0,0,1,.533.406.432.432,0,0,0-.007.059,1.515,1.515,0,0,0,.012.157c.025.215.02.3-.135.341l-.046.013-.014.046c-.055.189.112.325.234.424a.729.729,0,0,1,.128.119.477.477,0,0,1,.063.241.946.946,0,0,0,.036.211c.011.035.026.071.042.107a.315.315,0,0,1,.038.254.774.774,0,0,1-.184.2,1.19,1.19,0,0,0-.184.185,1.562,1.562,0,0,0-.183.377c-.023.062-.046.124-.075.186a1.636,1.636,0,0,1-.123.209,1.3,1.3,0,0,0-.167.316c-.016.051-.028.1-.04.155a1.09,1.09,0,0,1-.063.211c-.01.021-.02.041-.03.061a1,1,0,0,0-.05.115c-.184-.064-.381-.125-.6-.187-.256-.072-.507-.16-.75-.245-.2-.071-.412-.144-.625-.208-.584-.177-1.147-.374-1.621-.543l-.057-.021c-.153-.058-.385-.146-.537-.062s-.136.208-.134.324v.006a.871.871,0,0,0-.3.254.929.929,0,0,1-.2.186l-.086.055a4.208,4.208,0,0,0-.84.643,1.1,1.1,0,0,1-.522.291c-.041.011-.082.017-.121.024a.47.47,0,0,0-.4.236,1.1,1.1,0,0,0,.018.74c.07.3.136.574-.017.742a1.224,1.224,0,0,1-.683.242,2.7,2.7,0,0,0-.334.067.768.768,0,0,1-.545-.047l-.12-.039c-.28-.09-.363-.1-.594.09a1.241,1.241,0,0,1-.643.194,2.357,2.357,0,0,0-.483.1,1.5,1.5,0,0,1-.152.041.835.835,0,0,0-.4.166.492.492,0,0,0-.106.418c0,.029,0,.058,0,.086a.781.781,0,0,1-.124.481l-.025.049a.4.4,0,0,0,.044.529l.034.051a1.253,1.253,0,0,1,.115.244,1.145,1.145,0,0,0,.165.32.721.721,0,0,0,.323.223l.059.026a1.419,1.419,0,0,1-.022.2,1.284,1.284,0,0,0-.022.29,2.6,2.6,0,0,0,.059.371,1.645,1.645,0,0,1,.053.5l0,.055a1.215,1.215,0,0,1-.031.221l-.021.048,0,.011c-.022,0-.054,0-.1.012a2.751,2.751,0,0,1-.434.043A3.877,3.877,0,0,1,29.8,37.42Zm-18.31-.2c-.061-.057-.174-.075-.219-.132-.026-.034-.014-.112-.041-.154a.574.574,0,0,0-.144-.124c-.1-.076-.144-.118-.084-.224s.111-.16.032-.267a1,1,0,0,0-.164-.166c-.034-.03-.083-.106-.13-.115s-.18.054-.182.119a.775.775,0,0,0-.057-.208,1.322,1.322,0,0,0-.185-.432c-.036-.038-.08-.042-.13-.076-.08-.055-.089-.133-.17-.172s-.169-.043-.25-.074c-.19-.071-.023-.187.029-.291.1-.2.013-.371.024-.58A1.789,1.789,0,0,0,9.764,34a2.382,2.382,0,0,1,.018-.354c0-.11-.04-.208-.041-.316a.268.268,0,0,0-.169.007.328.328,0,0,1-.136.016,1.16,1.16,0,0,0-.182-.008H9.127c-.123,0-.346,0-.309-.154.012-.049.052-.088.067-.136A1.962,1.962,0,0,0,8.9,32.21c-.029-.094-.083-.212-.028-.3.036-.057.1-.066.125-.132a2.014,2.014,0,0,0,.081-.457,1.181,1.181,0,0,1,.214-.476c.087-.125.182-.193.187-.348,0-.115.113-.168.073-.274a1.384,1.384,0,0,0-.311-.442.278.278,0,0,1-.083-.24c0-.113-.043-.088-.123-.137s-.066-.2-.142-.263c-.1-.08-.239-.028-.273-.237l.052-.009a.639.639,0,0,0,.418-.182.467.467,0,0,0,.056-.35.424.424,0,0,1,.031-.283,1.549,1.549,0,0,1,.263-.276,1.74,1.74,0,0,0,.271-.282,2.243,2.243,0,0,0,.4-1.066.807.807,0,0,1,.333-.525l.082-.078.058-.058c.086-.088.2-.21.3-.22a.563.563,0,0,1,.243.057.665.665,0,0,0,.4.061.847.847,0,0,0,.2-.076.4.4,0,0,1,.237-.059.439.439,0,0,1,.22.067c.025.019.027.025.033.039a.232.232,0,0,0,.046.074.61.61,0,0,0,.575.177.682.682,0,0,1,.3.02.962.962,0,0,1,.32.24,1.077,1.077,0,0,0,.42.3l.026.009a1.055,1.055,0,0,0,.383.075.606.606,0,0,0,.142-.03.293.293,0,0,1,.156-.02c.057.016.073.052.1.151a.439.439,0,0,0,.183.28.987.987,0,0,0,.36.094c.156.022.332.047.386.125a.143.143,0,0,1,.012.123c-.009.041-.019.082-.03.123a.178.178,0,0,0-.028.042l-.032.065.029.021a.962.962,0,0,0,.052.733,1.064,1.064,0,0,0,.185.229,1.08,1.08,0,0,1,.136.157.963.963,0,0,1,.089.214.819.819,0,0,0,.17.334.44.44,0,0,0,.161.092c.067.025.089.037.1.073a.306.306,0,0,1,.018.13c-.005.08.005.131.118.261a1.077,1.077,0,0,1,.171.3c.023.054.047.108.076.163a1.311,1.311,0,0,0,.444.45l.1.07c.033.025.088.073.084.114-.009.09-.231.2-.3.232a.514.514,0,0,0-.273.412.82.82,0,0,1-.085.248.673.673,0,0,1-.349.251.823.823,0,0,0-.41.3.778.778,0,0,0-.035.615.834.834,0,0,1,.019.447l-.023.063a.584.584,0,0,0,0,.564l.035.06.066-.022.089-.031a.687.687,0,0,1,.376-.065.579.579,0,0,1,.241.209,1.182,1.182,0,0,0,.21.213.933.933,0,0,0,.2.1c.107.042.2.079.243.175.033.071.028.08-.007.14a.8.8,0,0,0-.058.118.71.71,0,0,0-.028.391.639.639,0,0,0,.083.221.769.769,0,0,1,.053.112.9.9,0,0,1-.009.437c-.008.047-.016.1-.023.143-.075-.018-.151-.033-.223-.046l-.146-.024c-.061-.01-.123-.02-.185-.032-.024,0-.05-.012-.075-.019a.763.763,0,0,0-.187-.033c-.209,0-.258.179-.29.3a.616.616,0,0,1-.04.116.4.4,0,0,1-.113.086l-.033.021a.641.641,0,0,0-.476.057.8.8,0,0,0-.229.255c-.05.083-.112.161-.164.243a.235.235,0,0,1-.2.134c-.1,0-.18-.071-.277-.082s-.131-.03-.132-.151a.763.763,0,0,0-.008-.242c-.02-.048-.089-.081-.133-.111-.17-.12-.174.059-.339.1-.107.029-.063-.015-.126-.062s-.209-.033-.288-.046a.465.465,0,0,0-.09-.237c-.042.051-.026.106-.093.149a.286.286,0,0,1-.195.04c-.075-.02-.112-.1-.161-.152-.085-.1-.225-.184-.208-.326.073-.028.165-.006.241-.029.092-.029.077-.071.082-.158.084.02.307.224.344.062.011-.05-.025-.132-.022-.191.006-.106.023-.262-.087-.329-.068-.041-.223.009-.29.049a.173.173,0,0,0-.083.107c-.011.045.014.082-.023.12s-.117.034-.158.045c-.085.023-.168.055-.252.08s-.249.114-.193.227c.075.154.367.217.343.425-.014.12-.147.188-.175.306a.426.426,0,0,0,.016.173c.007.052-.01.2-.063.221s-.131-.021-.178-.025a3.253,3.253,0,0,0-.344.026.743.743,0,0,1-.151-.018.746.746,0,0,0-.152-.018c-.13,0-.086.087-.193.136a.159.159,0,0,1-.067.016C11.586,37.333,11.541,37.268,11.486,37.217Zm6.432-.847c-.026-.021-.05-.041-.068-.053a.908.908,0,0,0-.2-.095c.006-.051.014-.105.024-.162a1.033,1.033,0,0,0,0-.525.939.939,0,0,0-.064-.135.468.468,0,0,1-.064-.166.541.541,0,0,1,.018-.3.658.658,0,0,1,.047-.095.269.269,0,0,0,.014-.3.538.538,0,0,0-.334-.262.792.792,0,0,1-.167-.081,1.072,1.072,0,0,1-.178-.183.7.7,0,0,0-.329-.265.816.816,0,0,0-.477.07l-.013,0a.474.474,0,0,1,.043-.355L16.2,33.4a.97.97,0,0,0-.012-.541.646.646,0,0,1,.012-.487.681.681,0,0,1,.334-.232.828.828,0,0,0,.428-.32.85.85,0,0,0,.093-.243h.019a.06.06,0,0,1-.018.041.43.43,0,0,1,.135-.04.1.1,0,0,1,.042.015c.014.007.029.013.044.019a.523.523,0,0,1,.219.157.429.429,0,0,0,.341.186.563.563,0,0,0,.141-.036c.061-.022.13-.046.156-.023a.224.224,0,0,1,.024.032.341.341,0,0,0,.121.119l.031.022a.291.291,0,0,1,.056.07c.011.017.023.034.035.05a3.388,3.388,0,0,0,.262.3c.032.032.065.064.1.1a2.056,2.056,0,0,1,.178.185.566.566,0,0,1,.07.162c.04.123.09.277.243.321a.273.273,0,0,0,.3-.1c.063-.062.089-.083.139-.078l.058.009a.4.4,0,0,0,.292-.023.608.608,0,0,0,.117-.109.475.475,0,0,1,.079-.077.23.23,0,0,1,.152-.029h.01v.009c0,.077-.01.156-.009.241a.907.907,0,0,0,.4.676l.09.081c.088.083.173.166.258.25a1.478,1.478,0,0,0,.138.113l.062.048-.007,0,0,.057a.237.237,0,0,0,.055.153.123.123,0,0,1,.03.061.962.962,0,0,1-.006.172,1.252,1.252,0,0,0-.009.173.164.164,0,0,1-.164.172.58.58,0,0,1-.248-.041.282.282,0,0,1-.068-.05.423.423,0,0,0-.109-.076.956.956,0,0,0-.223-.058.8.8,0,0,1-.2-.052.661.661,0,0,1-.136-.1.718.718,0,0,0-.2-.134c-.048-.019-.166-.056-.236,0-.088.075-.044.194-.017.265a.311.311,0,0,1,.016.048.539.539,0,0,1,0,.122.55.55,0,0,0,.014.208.292.292,0,0,0,.05.088c.016.021.022.03.019.051a.19.19,0,0,0-.053.075.237.237,0,0,0,.027.2c.017.034.027.055.023.076a.844.844,0,0,1-.2.326.681.681,0,0,1-.369.163l-.038.009a2.879,2.879,0,0,0-.329.1c-.051.018-.1.037-.154.054a.993.993,0,0,1-.392.029l-.045,0a.5.5,0,0,0-.288.028.213.213,0,0,0-.051.04l0,0A.9.9,0,0,1,17.918,36.371Zm33.316-1.539a.481.481,0,0,0-.127,0c-.017,0-.024,0-.092-.03a1.432,1.432,0,0,1-.314-.325l-.058-.072a2.4,2.4,0,0,1-.353-.776l-.018-.057-.06,0a.887.887,0,0,1-.609-.255l-.064-.05-.053.061a1.362,1.362,0,0,1-.7.5,1.278,1.278,0,0,1-.322.046,1.77,1.77,0,0,0-.282.032,12.106,12.106,0,0,0-1.3.385l-.016.005a2.619,2.619,0,0,1-.187-.35,2.5,2.5,0,0,0-.225-.41,4.1,4.1,0,0,0-.275-.327c-.068-.075-.136-.15-.2-.227a3.033,3.033,0,0,0-.215-.232.881.881,0,0,1-.113-.159.909.909,0,0,0-.13-.181.921.921,0,0,0-.551-.2,1.454,1.454,0,0,1-.311-.064c-.23-.087-.458-.2-.678-.3-.172-.083-.351-.169-.531-.245-.415-.174-.84-.394-1.164-.566a6.607,6.607,0,0,0-.816-.366.808.808,0,0,1,.042-.1c.011-.022.022-.044.033-.067a1.234,1.234,0,0,0,.074-.244c.011-.047.021-.094.036-.141a1.162,1.162,0,0,1,.147-.274,1.8,1.8,0,0,0,.135-.232c.03-.066.055-.132.08-.2a1.412,1.412,0,0,1,.162-.338,1.086,1.086,0,0,1,.158-.155.845.845,0,0,0,.228-.256.467.467,0,0,0-.038-.389c-.013-.031-.026-.061-.036-.092a.8.8,0,0,1-.028-.174.633.633,0,0,0-.093-.322.821.821,0,0,0-.161-.154c-.1-.078-.17-.142-.18-.2.25-.1.222-.342.2-.506a1.311,1.311,0,0,1-.011-.138.51.51,0,0,1,.135-.3c.034-.047.07-.1.1-.152a.729.729,0,0,0,.119-.389,1.026,1.026,0,0,0-.005-.114.431.431,0,0,1,.005-.171.462.462,0,0,1,.174-.1,1.032,1.032,0,0,0,.119-.058.826.826,0,0,0,.243-.24c.027-.037.056-.075.093-.116a.994.994,0,0,1,.27-.192.948.948,0,0,0,.364-.295.784.784,0,0,0,.071-.141.3.3,0,0,1,.069-.118.407.407,0,0,1,.112-.063c.1-.045.251-.112.21-.319-.03-.15-.159-.205-.263-.249-.077-.033-.143-.061-.166-.115a.364.364,0,0,1-.03-.123c-.011-.114-.054-.155-.221-.207l-.051-.015c-.132-.036-.142-.052-.131-.109a.184.184,0,0,1,.048-.066.331.331,0,0,0,.088-.138.633.633,0,0,0-.035-.331.8.8,0,0,0-.047-.108.183.183,0,0,1-.032-.134.375.375,0,0,1,.046-.1.5.5,0,0,0,.069-.167.841.841,0,0,0-.034-.418.371.371,0,0,0-.054-.09c-.026-.035-.033-.047-.031-.064.006-.056.175-.144.342-.178a.608.608,0,0,1,.328.061.533.533,0,0,0,.458.029.489.489,0,0,0,.12-.1.2.2,0,0,1,.211-.087.858.858,0,0,0,.1,0,1.278,1.278,0,0,0,.482-.2c.288-.166.461-.25.661-.042.04.042.078.089.117.136a.758.758,0,0,0,.488.348,1.787,1.787,0,0,0,.426-.027,1.937,1.937,0,0,1,.33-.029.685.685,0,0,1,.213.056.888.888,0,0,0,.228.063.8.8,0,0,0,.275-.031c.035-.008.07-.016.105-.022l.176-.029a7.109,7.109,0,0,1,.809-.1c.1.305.276.561.151.881-.058.208.035.359.064.558.035.244.365.26.574.291a1.338,1.338,0,0,0,.144,0c.223,0,.573,0,.322.168-.062.043-.211.091-.246.166s.047.135.042.227c-.012.212-.262.457-.38.621-.1.133-.257.257-.241.435.011.12.075.166.144.261A5.062,5.062,0,0,1,50.37,26.2a5.812,5.812,0,0,0,.369.9.937.937,0,0,1,.182.644c-.021.149-.071.29-.1.436a1.585,1.585,0,0,0,0,.55c.02.146.073.283.084.429a4.237,4.237,0,0,1-.037.664c-.023.267.087.61.082.877.23,0,.447.057.677.043.016.052.033.1.05.153a1.691,1.691,0,0,1,.106.421.65.65,0,0,1-.095.38,1.485,1.485,0,0,0-.106.257,1.775,1.775,0,0,0-.018.635c.006.067.012.132.015.194a3.972,3.972,0,0,1-.024.548,3.061,3.061,0,0,0,0,.758,1.277,1.277,0,0,0,.147.387.856.856,0,0,1,.127.378l-.137,0A3.735,3.735,0,0,1,51.234,34.832Zm-29.855-.738a1.367,1.367,0,0,1-.122-.1c-.087-.085-.172-.17-.262-.254l-.092-.084c-.186-.166-.346-.31-.347-.549,0-.081,0-.157.009-.23a1.243,1.243,0,0,0-.085-.657,1.467,1.467,0,0,0-.077-.135.807.807,0,0,1-.1-.186.45.45,0,0,1,.055-.212l.019-.047a.846.846,0,0,0,.023-.569c-.006-.031-.015-.061-.023-.093a.522.522,0,0,1-.028-.161s0-.009,0-.012a.325.325,0,0,0,.04-.023c.073-.049.142-.1.156-.176a.245.245,0,0,0-.062-.182.4.4,0,0,0-.119-.093c-.023-.014-.062-.037-.071-.032a.24.24,0,0,1,.048-.029.221.221,0,0,0,.154-.207.3.3,0,0,0-.057-.151c-.026-.041-.031-.053-.025-.077a.408.408,0,0,1,.08-.135.507.507,0,0,0,.124-.263c.03-.271-.193-.4-.373-.506-.036-.021-.072-.042-.1-.064a1.042,1.042,0,0,0-.149-.077.557.557,0,0,1-.183-.111.774.774,0,0,1-.063-.079.6.6,0,0,0-.144-.154A.588.588,0,0,0,19.5,28.4c-.077-.032-.1-.044-.108-.1a.367.367,0,0,1,.039-.16l.01-.026a.53.53,0,0,0-.112-.667.59.59,0,0,0-.171-.1.39.39,0,0,1-.128-.071.151.151,0,0,1-.031-.1.5.5,0,0,0-.02-.107c-.063-.19-.179-.2-.325-.195a.5.5,0,0,0-.392.212l-.047.051a.394.394,0,0,1-.132.113.41.41,0,0,1-.134,0c-.032,0-.064,0-.093,0a.515.515,0,0,0-.3.1.678.678,0,0,1-.137.073c-.06.022-.062.022-.139-.028-.035-.022-.074-.043-.115-.065a.735.735,0,0,1-.187-.123.23.23,0,0,1-.028-.049.252.252,0,0,0-.108-.131.8.8,0,0,0-.577.1.42.42,0,0,0-.119.124.317.317,0,0,1-.057.067.386.386,0,0,1-.184.016c-.036,0-.074,0-.112,0l0-.015a.316.316,0,0,0-.038-.258c-.1-.14-.3-.169-.5-.2a.932.932,0,0,1-.295-.07.286.286,0,0,1-.109-.184.489.489,0,0,0-.085-.182l.015-.026a.346.346,0,0,1,.126-.155.529.529,0,0,1,.112-.044.527.527,0,0,0,.214-.108.465.465,0,0,0,.131-.328.338.338,0,0,1,.1-.255.691.691,0,0,1,.324-.127.771.771,0,0,0,.371-.151.427.427,0,0,0,.16-.454,1,1,0,0,1-.012-.189,1.289,1.289,0,0,1,.03-.2.766.766,0,0,0-.007-.463.7.7,0,0,1,.3-.112c.057-.012.113-.025.168-.043a1.462,1.462,0,0,0,.3-.149,1.247,1.247,0,0,1,.281-.139,2.159,2.159,0,0,1,.522-.067,2.67,2.67,0,0,0,.5-.056.961.961,0,0,0,.457-.225.314.314,0,0,1,.21-.075.773.773,0,0,0,.225-.046c.244-.092.288-.31.327-.5.009-.044.018-.088.029-.132a.75.75,0,0,1,.051-.121.66.66,0,0,0,.073-.2,2.49,2.49,0,0,0,.016-.264v-.034a1.176,1.176,0,0,0-.06-.457.909.909,0,0,0-.054-.107.285.285,0,0,1-.053-.148.934.934,0,0,1,.19-.433c.1-.131.233-.121.445-.094a1.746,1.746,0,0,0,.257.019,8.061,8.061,0,0,0,1.007-.082,1.233,1.233,0,0,0,.263-.08,1.412,1.412,0,0,1,.195-.065.688.688,0,0,1,.438.084,2.592,2.592,0,0,0,1.173.277c.093-.012.179-.026.259-.038a1.226,1.226,0,0,1,1.064.162l.03.02a1.19,1.19,0,0,0,1.195.285,5,5,0,0,1,1.4-.219c.174-.011.346-.022.512-.038a12.347,12.347,0,0,1,1.737-.009c.574.024,1.169.025,1.751.035.337.006.684.012,1.029.008a1.5,1.5,0,0,0,.182-.019c.292-.041.443-.034.483.1A1.8,1.8,0,0,0,33.2,22.2c.033.156.064.3.08.445.009.082.026.17.043.259a1.646,1.646,0,0,1,.043.559,2.942,2.942,0,0,1-.129.431c-.015.044-.031.086-.044.126-.091.272-.223.286-.512.317l-.053.006c-.429.047-.538.177-.667.569a2.78,2.78,0,0,1-.308.583l-.078.125c-.027.044-.055.094-.084.147a1.283,1.283,0,0,1-.323.436,1.834,1.834,0,0,1-.65.2,2.915,2.915,0,0,0-.489.115,2.479,2.479,0,0,0-.472.257,2.49,2.49,0,0,1-.451.247,6.452,6.452,0,0,1-.716.221l-.131.036a1.289,1.289,0,0,1-.512.078,1.027,1.027,0,0,1-.294-.132,1.479,1.479,0,0,0-.258-.126c-.384-.128-.517-.023-.792.195a1.059,1.059,0,0,1-.394.194,2.343,2.343,0,0,0-.263.1.6.6,0,0,0-.357.457,1.125,1.125,0,0,0,.057.376,1.242,1.242,0,0,1,.056.309,2.388,2.388,0,0,1-.142.665c-.039.123-.078.25-.106.376a2.053,2.053,0,0,0,.031.842,2.516,2.516,0,0,1,.058.563c-.037.008-.074.017-.111.026s-.085.022-.125.028l-.028,0a1.437,1.437,0,0,0-.36.091.814.814,0,0,0-.1.057.333.333,0,0,1-.171.066,1.191,1.191,0,0,1-.48-.059,1.061,1.061,0,0,0-.232-.023.633.633,0,0,1-.286-.046c-.027-.026-.024-.1-.022-.173a.435.435,0,0,0-.058-.293c-.166-.212-.476-.027-.7.108a1.551,1.551,0,0,1-.157.087,3.373,3.373,0,0,1-.882.192l-.214.028-.059.008-.012.059c-.073.353.226.461.445.54a.607.607,0,0,1,.291.16.338.338,0,0,1-.014.253c-.01.033-.019.066-.025.1a1.485,1.485,0,0,0-.022.224.978.978,0,0,1-.034.259,1.088,1.088,0,0,1-.087.177.707.707,0,0,0-.117.361,1.142,1.142,0,0,0,.027.246,1.064,1.064,0,0,1,.024.208c0,.265-.049.279-.26.343l-.054.017A1.71,1.71,0,0,0,21.379,34.094Zm-2.083-1c-.061-.018-.091-.095-.128-.21a.67.67,0,0,0-.1-.217,2.233,2.233,0,0,0-.192-.2c-.032-.03-.063-.061-.094-.092a3.2,3.2,0,0,1-.249-.289c-.01-.013-.019-.027-.028-.04a.421.421,0,0,0-.1-.111l-.039-.028a.282.282,0,0,1-.052-.041.232.232,0,0,1-.021-.03.324.324,0,0,0-.052-.065.31.31,0,0,0-.327-.012.455.455,0,0,1-.1.027c-.075.006-.141-.064-.206-.134a.694.694,0,0,0-.284-.2l-.028-.013a.242.242,0,0,0-.124-.031.653.653,0,0,0-.09.015.28.28,0,0,1,.157-.2c.2-.1.383-.206.4-.369a.3.3,0,0,0-.151-.267l-.1-.072a1.164,1.164,0,0,1-.393-.39c-.027-.051-.049-.1-.071-.152a1.233,1.233,0,0,0-.2-.342c-.079-.091-.078-.105-.076-.137a.475.475,0,0,0-.025-.191.288.288,0,0,0-.2-.182.288.288,0,0,1-.1-.055.711.711,0,0,1-.128-.266,1.1,1.1,0,0,0-.109-.254,1.236,1.236,0,0,0-.156-.182.927.927,0,0,1-.158-.192.875.875,0,0,1-.02-.672.758.758,0,0,1,.147,0,.442.442,0,0,0,.3-.053.464.464,0,0,0,.09-.1.273.273,0,0,1,.071-.078.69.69,0,0,1,.409-.087.192.192,0,0,1,.03.052.361.361,0,0,0,.056.092.847.847,0,0,0,.233.158c.036.019.071.038.1.058a.271.271,0,0,0,.291.043.841.841,0,0,0,.169-.09.356.356,0,0,1,.208-.077.748.748,0,0,1,.077,0,.524.524,0,0,0,.2-.012.514.514,0,0,0,.206-.162l.045-.049c.1-.107.14-.152.273-.157s.131,0,.156.078a.348.348,0,0,1,.012.071.3.3,0,0,0,.079.2.527.527,0,0,0,.185.11.448.448,0,0,1,.123.065c.158.139.146.27.066.477l-.01.025a.505.505,0,0,0-.05.241.281.281,0,0,0,.213.243.433.433,0,0,1,.077.037.479.479,0,0,1,.1.113.985.985,0,0,0,.077.1.712.712,0,0,0,.237.149.878.878,0,0,1,.125.064c.035.023.073.045.112.068.191.112.306.191.289.34a.352.352,0,0,1-.09.178.56.56,0,0,0-.109.194.248.248,0,0,0,.045.214.147.147,0,0,1,.03.068c0,.011-.008.019-.061.046s-.169.086-.131.22c.019.065.082.1.143.14a.377.377,0,0,1,.069.048.345.345,0,0,1,.031.05.424.424,0,0,1-.084.065.14.14,0,0,1-.034.018c-.076.029-.078.081-.081.161a.662.662,0,0,0,.035.206c.008.027.015.054.021.08a.678.678,0,0,1-.015.472l-.018.043a.545.545,0,0,0-.065.315.865.865,0,0,0,.118.239,1.2,1.2,0,0,1,.067.117.873.873,0,0,1,.077.395h-.013a.387.387,0,0,0-.252.058.607.607,0,0,0-.111.1.462.462,0,0,1-.083.08.3.3,0,0,1-.169,0l-.068-.011a.322.322,0,0,0-.278.126c-.045.045-.069.06-.1.06A.136.136,0,0,1,19.3,33.1ZM8.648,28.562c-.007-.166-.216-.114-.261-.27-.019-.065.019-.109.019-.167,0-.083-.055-.126-.113-.178-.13-.119-.254-.358-.454-.335-.016.1-.1.075-.185.072h-.08a.575.575,0,0,1-.227-.024c-.09-.041-.137-.139-.19-.211a7.51,7.51,0,0,1-.463-.608,1.566,1.566,0,0,0-.27-.3,1.246,1.246,0,0,0-.507-.342c-.084-.027-.146-.07-.227-.1a1.769,1.769,0,0,1-.28-.111c-.071-.045-.127-.11-.2-.151s-.184-.062-.27-.106a.687.687,0,0,0-.209-.093.619.619,0,0,0-.154,0c-.059.007-.169.076-.222.049a1.23,1.23,0,0,1-.142-.182c-.142-.18.115-.11.1-.274-.007-.087-.153-.1-.21-.141-.087-.059-.107-.115.008-.094a.477.477,0,0,0,.324-.043c.16-.06.1-.039.11-.168a.155.155,0,0,1,.1-.122c-.076-.121-.179-.211-.262-.324a1.529,1.529,0,0,0-.092-.151.713.713,0,0,1-.129-.143c-.056-.1-.106-.4-.226-.45-.057-.024-.164.039-.215.055a.743.743,0,0,1-.088-.272c.079-.022.2-.034.247-.109s-.037-.191-.128-.207c-.074-.013-.1.059-.15.09a.561.561,0,0,1-.37.022c-.008-.062.025-.107.024-.167a.2.2,0,0,0-.068-.137c.041-.019.083-.035.123-.05a.361.361,0,0,0,.306-.387,1.07,1.07,0,0,0-.023-.2.366.366,0,0,1,.014-.265.4.4,0,0,1,.059-.076.45.45,0,0,0,.1-.154.458.458,0,0,0,.009-.223.507.507,0,0,1-.007-.094c0-.064.029-.085.048-.1a.505.505,0,0,1,.391.065.821.821,0,0,1,.071.045.524.524,0,0,0,.18.09.466.466,0,0,0,.216-.016.448.448,0,0,1,.115-.018,1.314,1.314,0,0,1,.534.25l.066.043a1.942,1.942,0,0,1,.225.189c.212.194.453.415.7.345a.657.657,0,0,0,.159-.072.23.23,0,0,1,.183-.045.732.732,0,0,1,.19.077.872.872,0,0,0,.245.1,1.232,1.232,0,0,0,.35,0,.93.93,0,0,1,.341.011l.069.018.03-.064a.475.475,0,0,0-.077-.4c-.044-.087-.094-.186-.075-.235a.11.11,0,0,1,.069-.052.261.261,0,0,1,.065,0,.392.392,0,0,0,.1,0,.492.492,0,0,0,.107-.029.268.268,0,0,1,.09-.021.758.758,0,0,1,.278.088.354.354,0,0,1,.158.221A.1.1,0,0,1,8.554,22a.426.426,0,0,1-.074.051.5.5,0,0,0-.118.089.674.674,0,0,0-.106.145l-.029.047c-.11.174-.2.179-.453.193H7.757a2.963,2.963,0,0,0-.338.044,2.682,2.682,0,0,1-.318.042l-.042,0-.024.034a1.25,1.25,0,0,0-.075.132.81.81,0,0,1-.084.14.338.338,0,0,1-.085.061.374.374,0,0,0-.147.128c-.134.232.075.412.229.543A1.309,1.309,0,0,1,7,23.765c.019.023.035.038.047.05l.017.018a.286.286,0,0,1,.009.056.107.107,0,0,1-.011.046.2.2,0,0,0,.033.229c.125.152.335.127.52.106a.72.72,0,0,1,.266,0,.146.146,0,0,1,.088.072c.013.018.026.036.043.057a1,1,0,0,0,.157.142c.027.021.055.043.082.067a.85.85,0,0,1,.08.088.9.9,0,0,0,.128.133.591.591,0,0,0,.2.1.479.479,0,0,1,.141.06c.086.063.075.1.045.217a1.14,1.14,0,0,0-.03.138.907.907,0,0,0,.221.619c.032.047.063.094.091.141a7.218,7.218,0,0,1,.546,1.158c-.033.058-.066.116-.1.17a1.594,1.594,0,0,1-.246.254,1.707,1.707,0,0,0-.29.308.564.564,0,0,0-.06.4.337.337,0,0,1-.021.228.482.482,0,0,1-.293.115C8.659,28.671,8.65,28.6,8.648,28.562Zm.627-2.554c-.029-.05-.062-.1-.1-.149a.759.759,0,0,1-.194-.5.945.945,0,0,1,.026-.117.318.318,0,0,0-.109-.4.623.623,0,0,0-.191-.085.446.446,0,0,1-.148-.066.772.772,0,0,1-.1-.109.961.961,0,0,0-.1-.106c-.03-.027-.06-.05-.09-.074a.864.864,0,0,1-.132-.118c-.014-.017-.025-.032-.035-.046a.309.309,0,0,0-.172-.134.825.825,0,0,0-.34-.005c-.149.017-.3.035-.369-.045-.019-.023-.019-.023-.005-.06a.254.254,0,0,0,.021-.126.228.228,0,0,0-.074-.174c-.01-.01-.023-.023-.04-.043a1.383,1.383,0,0,0-.143-.134c-.18-.154-.246-.234-.192-.328a.249.249,0,0,1,.086-.066.471.471,0,0,0,.129-.1.926.926,0,0,0,.1-.172c.014-.027.028-.054.042-.079.1-.008.2-.025.294-.041a2.792,2.792,0,0,1,.319-.042h.017c.26-.014.431-.023.588-.272l.031-.052a.5.5,0,0,1,.082-.112.321.321,0,0,1,.081-.06.589.589,0,0,0,.1-.07.267.267,0,0,0,.1-.217.447.447,0,0,0-.151-.285,1.464,1.464,0,0,0,.006-.226c-.009-.251,0-.34.181-.351a.538.538,0,0,0,.387-.164.582.582,0,0,0,.126-.4c.253-.019.338.063.518.237.037.036.077.075.123.117s.066.063.1.1a1.584,1.584,0,0,0,.27.232.581.581,0,0,0,.228.073.631.631,0,0,1,.124.029,1.436,1.436,0,0,1,.357.228,1.212,1.212,0,0,0,.55.294.379.379,0,0,0,.423-.144.223.223,0,0,0,.036-.094c.005-.027.006-.031.019-.04a.446.446,0,0,1,.256,0,1.277,1.277,0,0,1,.373.145c.063.038.135.075.208.113a1.964,1.964,0,0,1,.376.23c0,.022,0,.045,0,.066a.342.342,0,0,1-.027.151.372.372,0,0,1-.128.113.454.454,0,0,0-.214.24c-.038.118-.047.338.309.489a.472.472,0,0,0,.1.027.2.2,0,0,1,.081.027.36.36,0,0,1,.082.1.47.47,0,0,0,.608.2.451.451,0,0,0,.251-.369c.024-.239.048-.289.266-.319a.455.455,0,0,1,.088,0,.41.41,0,0,0,.194-.019.146.146,0,0,0,.076-.11c0-.008,0-.021,0-.017a.155.155,0,0,1,.168-.022.3.3,0,0,1,.1.273c0,.046-.01.082-.015.112a.417.417,0,0,0,.073.351c.013.022.025.045.036.067.054.105.136.264.336.191a.421.421,0,0,0,.179-.141c.05-.059.079-.09.145-.1.127-.012.178.024.2.139a1.683,1.683,0,0,1,.019.374c-.008.007-.017.012-.024.02l-.044.046.032.055a.546.546,0,0,1,.018.407,1.49,1.49,0,0,0-.033.222,1.18,1.18,0,0,0,.013.219.265.265,0,0,1-.1.3.637.637,0,0,1-.294.112.843.843,0,0,0-.4.164.5.5,0,0,0-.157.366.309.309,0,0,1-.077.22.373.373,0,0,1-.15.071.672.672,0,0,0-.148.06.5.5,0,0,0-.188.22l-.012.021a.451.451,0,0,0-.238.023.472.472,0,0,1-.1.023.883.883,0,0,1-.32-.066l-.027-.009a.93.93,0,0,1-.353-.255,1.108,1.108,0,0,0-.379-.278.837.837,0,0,0-.379-.031.448.448,0,0,1-.435-.122.071.071,0,0,1-.015-.025.238.238,0,0,0-.087-.108.611.611,0,0,0-.309-.1.56.56,0,0,0-.327.076.691.691,0,0,1-.158.062.52.52,0,0,1-.3-.054.683.683,0,0,0-.323-.067.763.763,0,0,0-.406.271l-.054.055-.08.076a.961.961,0,0,0-.386.634,1.981,1.981,0,0,1-.166.608A7.2,7.2,0,0,0,9.275,26.008Zm32.341.076a3.932,3.932,0,0,1-.4-.282.552.552,0,0,1-.2-.532A1.915,1.915,0,0,0,41,24.932a.924.924,0,0,0-.336-.508.855.855,0,0,1-.307-.446c-.007-.036-.012-.073-.018-.11a1.042,1.042,0,0,0-.317-.708c-.067-.054-.128-.1-.193-.08a.154.154,0,0,0-.1.112.427.427,0,0,1-.043.089.849.849,0,0,1-.407.258c-.135.039-.369.042-.422-.116a.609.609,0,0,1,.015-.253A1.191,1.191,0,0,0,38.9,23a1.741,1.741,0,0,0-.176-.763,2.871,2.871,0,0,1-.143-.414,1.276,1.276,0,0,1-.055-.406.711.711,0,0,1,.2-.4c.027-.033.054-.068.082-.1A1.2,1.2,0,0,0,39,20.438c.016-.069.032-.139.056-.208a1.167,1.167,0,0,1,.34-.516,3.168,3.168,0,0,1,.377-.173,2.356,2.356,0,0,0,.553-.285c.17-.129.485-.37.364-.68-.073-.185-.279-.249-.479-.311a1.126,1.126,0,0,1-.3-.12,1.254,1.254,0,0,1-.221-.22A1.032,1.032,0,0,0,39.3,17.6a1.264,1.264,0,0,0-.737-.008c-.183.063-.37.132-.56.2-.255.093-.518.189-.777.274a2.016,2.016,0,0,0-.485.262,1.179,1.179,0,0,1-.64.264c.022-.063.043-.126.064-.191s.04-.126.064-.195a.994.994,0,0,1,.8-.667c.086-.019.167-.03.243-.041a.829.829,0,0,0,.681-.352,2.632,2.632,0,0,0,.185-.334,2.642,2.642,0,0,1,.163-.3,1.375,1.375,0,0,1,.117-.144,1.066,1.066,0,0,0,.185-.257.891.891,0,0,0-.13-.8.816.816,0,0,0-.479-.292l-.093-.03a.5.5,0,0,1-.349-.264c-.039-.055-.077-.106-.113-.154-.212-.282-.318-.423-.152-.766a1.8,1.8,0,0,0,.1-1.07,2.914,2.914,0,0,1-.028-.572l.01-.127-.1.034c0-.041-.011-.082-.017-.122a1.14,1.14,0,0,1-.021-.263c.013-.159.092-.192.236-.252.046-.019.095-.04.144-.066a1.149,1.149,0,0,0,.344-.247.522.522,0,0,0,.081-.164.348.348,0,0,1,.049-.1c.073-.064.115-.048.248.045.03.021.061.043.094.062a2.97,2.97,0,0,0,.36.173,2.408,2.408,0,0,1,.4.2c.056.037.11.077.164.117a1.514,1.514,0,0,0,.519.285,1.02,1.02,0,0,1,.507.228,1.252,1.252,0,0,0,.734.31.772.772,0,0,0,.374-.1c.178-.1.193-.323.2-.506.007-.1.015-.218.049-.246a.058.058,0,0,1,.042-.006l.082.011.014-.081c.016-.093-.061-.194-.189-.35a1.335,1.335,0,0,1-.1-.126c-.094-.158-.155-.186-.255-.19a.254.254,0,0,1-.138-.041.155.155,0,0,1-.087-.1c-.032-.148.152-.405.314-.633.224-.314.437-.611.3-.833a2.6,2.6,0,0,0-.157-.215c-.047-.06-.094-.12-.133-.179-.174-.265-.3-.425-.638-.41l-.209.012a2.418,2.418,0,0,1-.936-.061.819.819,0,0,1,.032-.168,1.164,1.164,0,0,0,.031-.138.771.771,0,0,0,0-.171.476.476,0,0,1,0-.179.815.815,0,0,1,.3-.206c.031.051.067.149.108.167s.1-.009.144-.041a.178.178,0,0,1,.129-.047c.08.017.148.113.219.152a1.127,1.127,0,0,0,.5.094c.125,0,.268-.005.307.089s-.049.278.023.347a.836.836,0,0,0,.162.015c.084.017.166.055.251.07a.5.5,0,0,1,.246.063c.133-.065.119-.289.291-.286a.577.577,0,0,1,.215.089.923.923,0,0,0,.2.039c.165.04.15.1.264-.031s.227-.049.366.044a.94.94,0,0,0,.307.176c.053.013.113,0,.167.021a3.289,3.289,0,0,1,.384.228c.08.038.048.036.136.012.126-.033.413-.192.541-.047.082.093-.039.305-.009.423s.124.211.164.318.01.228.045.334c.166.045.285.014.252.2-.021.12-.038.309.145.264.111-.028.179-.116.3-.139.084-.015.2-.1.278-.085a.51.51,0,0,0,.236.259c.1.052.2.108.3.162a.317.317,0,0,0,.2.017.227.227,0,0,1,.215.043,3.389,3.389,0,0,1,.331.579,3.161,3.161,0,0,0,.286.37,1.489,1.489,0,0,0,.4.36.257.257,0,0,1,.115-.009.511.511,0,0,0,.065,0,3.147,3.147,0,0,0,.427-.033c.076-.016.154-.027.23-.044a3.467,3.467,0,0,1,.533-.042,3.605,3.605,0,0,1,.486-.095c.026,0,.066,0,.11,0,.113,0,.258-.008.3.04.023.028.016.106.021.142.011.072.029.142.041.213a1.152,1.152,0,0,1,.028.509c-.042.146-.118.369.037.475.081.055.246.075.28.183.02.065-.063.176-.071.248a.931.931,0,0,1-.032.32c-.06.127-.2.194-.254.329s.09.167.2.169c.019,0,.041,0,.063,0a.241.241,0,0,1,.172.028,1.155,1.155,0,0,1,.108.2.377.377,0,0,1,.016.394.446.446,0,0,0-.04.369.625.625,0,0,0,.164.185c.062.054.1.063.1.149a.544.544,0,0,1-.079.3.762.762,0,0,0-.115.331.561.561,0,0,1-.127.349.488.488,0,0,0-.1.337.691.691,0,0,1,.015.158c-.009.047-.044.064-.029.121.025.1.16.136.186.233.06.227-.363.282-.335.527.021.185.185.31.127.511-.037.131-.162.19-.183.325s-.008.259-.031.388c-.037.208-.217.062-.282.192-.018.036.02.1-.012.137s-.081.02-.129.018a.492.492,0,0,0-.051,0c-.187.017-.269.02-.184.209a1.257,1.257,0,0,0,.2.271c.1.118.362.349.353.479-.266.074-.57.038-.842.1-.2.044-.172.216-.243.386a.669.669,0,0,0-.1.321.642.642,0,0,0,.028.12,7.768,7.768,0,0,0-.779.1l-.175.029c-.039.006-.078.015-.117.024a.65.65,0,0,1-.218.027.756.756,0,0,1-.185-.053.833.833,0,0,0-.268-.067,1.968,1.968,0,0,0-.361.031,1.667,1.667,0,0,1-.386.027c-.151-.014-.258-.146-.371-.286-.042-.051-.083-.1-.126-.147-.3-.315-.6-.141-.869.012a1.156,1.156,0,0,1-.415.175.736.736,0,0,1-.078,0,.466.466,0,0,0-.2.029.441.441,0,0,0-.139.113.381.381,0,0,1-.076.07c-.085.046-.176.015-.317-.038a.757.757,0,0,0-.422-.069c-.018,0-.453.094-.478.327a.249.249,0,0,0,.064.184.23.23,0,0,1,.031.049.679.679,0,0,1,.026.327.352.352,0,0,1-.049.112.522.522,0,0,0-.065.151.344.344,0,0,0,.046.247.639.639,0,0,1,.037.086.479.479,0,0,1,.032.233.2.2,0,0,1-.048.066.309.309,0,0,0-.09.149c-.044.225.149.278.252.307l.045.013c.08.025.1.037.1.035a.177.177,0,0,1,0,.025.532.532,0,0,0,.043.173.422.422,0,0,0,.257.205c.093.04.151.067.163.126s0,.08-.112.13a.549.549,0,0,0-.159.095.458.458,0,0,0-.11.177.609.609,0,0,1-.055.112.807.807,0,0,1-.3.239,1.136,1.136,0,0,0-.315.228c-.04.045-.071.087-.1.127a.673.673,0,0,1-.2.2.872.872,0,0,1-.1.047.522.522,0,0,0-.253.175.477.477,0,0,0-.027.271.82.82,0,0,1,0,.093.561.561,0,0,1-.1.309,1.635,1.635,0,0,1-.093.138,1.365,1.365,0,0,0-.1.162A3.476,3.476,0,0,0,41.616,26.084ZM16.34,23.422a.321.321,0,0,0-.385-.273.361.361,0,0,0-.26.156.263.263,0,0,1-.107.091c-.047.017-.06.016-.125-.109-.013-.025-.026-.05-.041-.075a.26.26,0,0,1-.051-.239c0-.032.011-.071.016-.12a.456.456,0,0,0-.177-.435.315.315,0,0,0-.351.024.182.182,0,0,0-.071.116v0a.467.467,0,0,1-.092,0,.579.579,0,0,0-.124,0c-.317.044-.383.181-.412.471a.282.282,0,0,1-.155.232.31.31,0,0,1-.306-.036.337.337,0,0,1-.085-.1.5.5,0,0,0-.127-.148.354.354,0,0,0-.147-.055.309.309,0,0,1-.064-.017c-.267-.113-.228-.235-.214-.281.021-.065.069-.1.145-.149a.515.515,0,0,0,.183-.172.481.481,0,0,0,.049-.228.446.446,0,0,1,.021-.142c.03-.075.075-.09.149-.115a.388.388,0,0,0,.232-.161.614.614,0,0,0,.019-.386c-.005-.034-.01-.064-.012-.088l0-.066a1.1,1.1,0,0,0-.133-.54.427.427,0,0,1-.091-.268l0-.034a.554.554,0,0,0-.131-.389.469.469,0,0,0-.083-.074.226.226,0,0,1-.062-.059.158.158,0,0,1,.01-.147c.04-.005.139.076.2.129a.766.766,0,0,0,.195.133c.087.032.2.061.26-.006s.026-.191-.028-.326c-.041-.1-.1-.26-.061-.307A.186.186,0,0,1,14,19.181a.192.192,0,0,0,.142-.24.362.362,0,0,0-.07-.148c-.049-.072-.049-.083-.025-.115s.029-.03.105-.008a.435.435,0,0,0,.146.023.391.391,0,0,0,.171-.066.28.28,0,0,1,.433.172.89.89,0,0,1,.028.17c.017.16.036.342.18.411a.26.26,0,0,0,.21.006.408.408,0,0,0,.221-.214.538.538,0,0,0-.007-.436,1.177,1.177,0,0,0-.645-.555,1.214,1.214,0,0,0-.118-.031.854.854,0,0,1-.258-.087s.006-.028.084-.084a.476.476,0,0,1,.112-.053.278.278,0,0,0,.216-.366.942.942,0,0,0-.1-.215.949.949,0,0,1-.144-.367.5.5,0,0,0,.16.236.2.2,0,0,0,.2.04.257.257,0,0,0,.128-.235.586.586,0,0,0-.031-.224.34.34,0,0,1-.018-.084s.011-.012.064-.023a.641.641,0,0,1,.161,0,.689.689,0,0,0,.237-.015.472.472,0,0,0,.25-.18c.014-.017.029-.035.046-.053a1.16,1.16,0,0,1,.579-.258,2.307,2.307,0,0,0,.4-.125,1.542,1.542,0,0,1,1.034-.111.765.765,0,0,1,.261.155.565.565,0,0,0,.558.161l.06-.018v-.1a.614.614,0,0,1,.014-.177.09.09,0,0,1,.034.009c.039.017.047.053.048.153a.268.268,0,0,0,.066.212.2.2,0,0,0,.161.039.231.231,0,0,0,.124-.065c.027-.023.04-.033.056-.034a.143.143,0,0,1,.142.092c.052.11-.009.233-.074.363a1.384,1.384,0,0,0-.079.18l-.013.04a1.454,1.454,0,0,1-.257.531.7.7,0,0,0-.126.554c0,.033.005.069.007.106a.732.732,0,0,1-.169.523c-.069.087-.149.089-.3.086-.051,0-.1,0-.16,0a.6.6,0,0,0-.492.212.336.336,0,0,0-.047.073c-.013.025-.015.028-.028.035a.471.471,0,0,1-.23-.028c-.159-.042-.357-.094-.457.07a.282.282,0,0,0,.051.319c.06.09.073.123.045.164a.3.3,0,0,1-.119.081.286.286,0,0,0-.2.347c.052.254.288.3.477.333a.566.566,0,0,1,.34.136.841.841,0,0,1,.128.316c.058.219.124.468.417.537a.939.939,0,0,0,.321.012.37.37,0,0,1,.383.127.443.443,0,0,0,.383.171c.035,0,.075,0,.122.008a.458.458,0,0,1,.275.195c0,.052-.006.108-.013.169a.548.548,0,0,1-.057.147.865.865,0,0,0-.063.153c-.012.047-.022.094-.031.141-.04.2-.072.321-.22.377a.6.6,0,0,1-.179.035.477.477,0,0,0-.3.113.789.789,0,0,1-.389.191,2.489,2.489,0,0,1-.466.051,2.323,2.323,0,0,0-.563.074,1.4,1.4,0,0,0-.32.156,1.3,1.3,0,0,1-.264.133c-.05.016-.1.027-.152.038a1.3,1.3,0,0,0-.23.067A1.619,1.619,0,0,0,16.34,23.422ZM2.966,22.365A.985.985,0,0,0,2.7,22.05a.6.6,0,0,1-.138-.192c-.074-.16-.247-.105-.4-.129-.017-.136.219-.077.269-.184.018-.04,0-.083.021-.125.034-.066.093-.075.149-.106a.532.532,0,0,0,.22-.235c.038-.1-.067-.115-.068-.2s.084-.114.124-.168.054-.272-.018-.32c-.031-.02-.081-.006-.13.008s-.1.029-.126.007-.021-.078-.028-.117c-.021-.11-.2-.252-.18-.358s.247-.106.325-.165c.053-.04.1-.157.164-.182.122-.049.124-.121.087-.237.075.056.108.162.2.2a.7.7,0,0,0,.192.008c.106,0,.144-.041.163-.149a.6.6,0,0,0-.033-.284,1.385,1.385,0,0,1-.087-.2c0-.037.043-.063.032-.1s-.081-.069-.114-.1a.309.309,0,0,1,.2-.23c.162-.074.069-.138.121-.284.028,0,.055,0,.08,0,.1,0,.173.007.24-.074a.415.415,0,0,0,.077-.3c0-.119.032-.112.081-.106a.118.118,0,0,0,.125-.042c.048-.061-.018-.2-.039-.257.2.058.27.4.529.363.009-.119-.017-.118.092-.175a.621.621,0,0,0,.1-.048.8.8,0,0,0,.166-.247c-.08-.112-.188-.146-.279-.235.1-.074.162-.081.095-.195-.033-.055-.074-.118-.109-.171-.071-.108-.218-.139-.224-.278a.127.127,0,0,1,0-.014l.11.076c.076.052.15.1.216.153a1.409,1.409,0,0,0,.2.124.735.735,0,0,1,.3.248,2.012,2.012,0,0,1,.182.356,2.412,2.412,0,0,0,.162.327.968.968,0,0,0,.4.36c.039.022.08.046.124.074a.355.355,0,0,0,.03.228c.007.016.014.035.023.058a.186.186,0,0,1,.014.11.756.756,0,0,0-.005.088.152.152,0,0,1-.007.046.167.167,0,0,0,.044.174.521.521,0,0,0,.551.064.405.405,0,0,0,.1-.069.188.188,0,0,1,.062-.042.359.359,0,0,1,.121.006.392.392,0,0,0,.23-.012.282.282,0,0,0,.147-.285.23.23,0,0,1,.015-.1.93.93,0,0,1,.32-.146c.043-.014.081-.027.109-.038s.061-.021.093-.031a.481.481,0,0,0,.349-.247.8.8,0,0,0,.044-.137c.013-.053.014-.058.142-.111a.437.437,0,0,1,.064-.02.266.266,0,0,0,.18-.117.278.278,0,0,0,.033-.189.192.192,0,0,1,0-.064c.013-.02.023-.026.027-.026.053,0,.168.158.206.21.018.025.034.047.047.062a1.889,1.889,0,0,0,.293.276,2.192,2.192,0,0,1,.221.2.34.34,0,0,0,.3.132h.038a1.129,1.129,0,0,0-.089.349c0,.03,0,.057,0,.081,0,.084,0,.112-.051.165a.5.5,0,0,1-.26.115.226.226,0,0,1-.043-.015.213.213,0,0,0-.144-.023.387.387,0,0,0-.153.1.433.433,0,0,1-.1.079l-.126.045.094.1c.048.048.1.092.151.136s.092.077.134.119a1.152,1.152,0,0,0,.169.128.736.736,0,0,1,.171.136.191.191,0,0,1,.014.1.209.209,0,0,0,.051.174.226.226,0,0,0,.182.04c.168-.019.211-.163.24-.259.034-.112.049-.132.1-.133.07,0,.12.055.142.165.037.187-.032.42-.109.451a.559.559,0,0,1-.38-.1c-.087-.058-.144-.093-.2-.086-.116.016-.2.155-.285.31a.865.865,0,0,0-.366-.017l-.079.01.005.08a.481.481,0,0,1-.081.357.372.372,0,0,1-.27.107c-.359.022-.349.314-.341.527,0,.036,0,.071,0,.107a.937.937,0,0,0-.3-.075.419.419,0,0,0-.145.032.348.348,0,0,1-.072.021.294.294,0,0,1-.056,0,.306.306,0,0,0-.146.007.27.27,0,0,0-.167.149.481.481,0,0,0,.082.373.881.881,0,0,1,.077.185,1.311,1.311,0,0,0-.3,0,1.081,1.081,0,0,1-.3,0,.739.739,0,0,1-.2-.079.869.869,0,0,0-.236-.093.391.391,0,0,0-.3.065.5.5,0,0,1-.12.056c-.154.044-.358-.142-.537-.307a2.054,2.054,0,0,0-.248-.207L5.414,21.6a1.4,1.4,0,0,0-.618-.278.531.531,0,0,0-.164.022.322.322,0,0,1-.14.015.391.391,0,0,1-.121-.065.915.915,0,0,0-.086-.054.655.655,0,0,0-.556-.063.268.268,0,0,0-.134.236.674.674,0,0,0,.009.126.31.31,0,0,1,0,.144.3.3,0,0,1-.068.1.554.554,0,0,0-.084.111.523.523,0,0,0-.031.377.931.931,0,0,1,.021.168c0,.158-.052.176-.192.225a1.416,1.416,0,0,0-.163.069A2.849,2.849,0,0,1,2.966,22.365Zm10.01-.746c-.07-.036-.139-.071-.2-.107a1.434,1.434,0,0,0-.429-.166.553.553,0,0,0-.388.029.212.212,0,0,0-.087.147.1.1,0,0,1-.007.026c-.051.071-.091.1-.259.075a1.074,1.074,0,0,1-.47-.259,1.585,1.585,0,0,0-.4-.253.793.793,0,0,0-.157-.037.426.426,0,0,1-.165-.049,1.463,1.463,0,0,1-.239-.208c-.036-.036-.071-.071-.106-.1s-.083-.078-.119-.113a1.569,1.569,0,0,0-.215-.186.678.678,0,0,1,.146-.211.994.994,0,0,1,.089.055.641.641,0,0,0,.1.059.62.62,0,0,0,.437.062c.181-.072.261-.4.213-.642a.327.327,0,0,0-.311-.3c-.186,0-.231.154-.261.254s-.047.133-.1.138c-.023,0-.037,0-.043,0s0-.031,0-.044a.334.334,0,0,0-.04-.2.753.753,0,0,0-.221-.188,1.059,1.059,0,0,1-.144-.107c-.045-.045-.095-.087-.145-.129L9.4,19.113l.051-.046A.488.488,0,0,1,9.525,19a.18.18,0,0,1,.035.013.268.268,0,0,0,.112.029h0a.659.659,0,0,0,.383-.167.343.343,0,0,0,.1-.286c0-.022,0-.046,0-.073a1,1,0,0,1,.08-.3c.012-.03.023-.06.033-.09a.251.251,0,0,1,.078-.091.871.871,0,0,0,.082-.065.755.755,0,0,1,.1-.074c0,.011.007.025.01.034s.009.03.014.044a.358.358,0,0,0,.188.234.225.225,0,0,0,.083.016.3.3,0,0,0,.138-.037.368.368,0,0,0,.169-.333c0-.029.005-.057.01-.083a.49.49,0,0,1,.05-.125.282.282,0,0,0-.01-.361.545.545,0,0,0-.227-.132.654.654,0,0,1-.12-.053c-.082-.05-.089-.089-.074-.219,0-.026.009-.052.014-.078a.312.312,0,0,0-.088-.355.636.636,0,0,0-.259-.086c-.152-.029-.229-.052-.226-.1a.745.745,0,0,1,.025-.129c.009-.036.018-.073.024-.108a.375.375,0,0,0-.027-.206.512.512,0,0,1-.024-.079c-.007-.036.005-.046.01-.051a.175.175,0,0,1,.153-.005c.024.009.036.028.061.074a.36.36,0,0,0,.1.126.265.265,0,0,0,.24.053.2.2,0,0,0,.131-.139c.005-.017.009-.03.011-.042a.125.125,0,0,1,.019-.048.19.19,0,0,1,.021-.025.223.223,0,0,0,.059-.1.407.407,0,0,0-.066-.238c-.01-.021-.022-.047-.034-.073a.282.282,0,0,0,.075.058.451.451,0,0,0,.214.034h.018a.313.313,0,0,0,.079.095c.107.245.392.277.6.3l.1.012a.488.488,0,0,1,.35.229.787.787,0,0,0,.538.313.339.339,0,0,0,.142-.03.32.32,0,0,0,.193-.255.512.512,0,0,0-.012-.185.52.52,0,0,1,.5.008l.031.015c.071.035.2.1.191.162a.121.121,0,0,1-.017.018.14.14,0,0,0-.009.219c.078.09.234.085.371.081a.824.824,0,0,1,.1,0,1.489,1.489,0,0,1,.4.109A.714.714,0,0,1,15,16.6a.156.156,0,0,0-.021.024.264.264,0,0,0,0,.22.434.434,0,0,1,.025.161.224.224,0,0,1-.024.093.135.135,0,0,1-.067-.049.307.307,0,0,1-.08-.226l.02-.127-.124.031a.269.269,0,0,0-.2.148c-.07.161.048.378.144.552a.969.969,0,0,1,.081.169c.026.119,0,.13-.11.171a.623.623,0,0,0-.152.075c-.044.031-.176.127-.151.251.028.139.227.186.386.224.04.009.076.018.1.026a1.007,1.007,0,0,1,.546.463.366.366,0,0,1,.006.3.242.242,0,0,1-.124.121.094.094,0,0,1-.076,0c-.058-.028-.073-.165-.084-.275a.974.974,0,0,0-.036-.208.474.474,0,0,0-.548-.321.394.394,0,0,0-.133.057.269.269,0,0,1-.1.043.257.257,0,0,1-.087-.016.237.237,0,0,0-.289.069.242.242,0,0,0,.02.315.235.235,0,0,1,.042.079.217.217,0,0,1,0,.037.223.223,0,0,1-.037.016.344.344,0,0,0-.145.091c-.114.127-.035.326.029.485.016.039.037.092.047.128a.533.533,0,0,1-.062-.019.722.722,0,0,1-.145-.1c-.105-.087-.215-.178-.326-.167a.182.182,0,0,0-.145.1.338.338,0,0,0,0,.3.348.348,0,0,0,.112.118.336.336,0,0,1,.054.046.389.389,0,0,1,.093.29l0,.034a.586.586,0,0,0,.115.347.941.941,0,0,1,.109.464l0,.067c0,.027.007.063.013.1a.6.6,0,0,1,0,.27.225.225,0,0,1-.142.09.368.368,0,0,0-.23.166A2.653,2.653,0,0,0,12.975,21.619Zm6.38-.115c-.05-.005-.093-.007-.131-.008a.279.279,0,0,1-.263-.115.532.532,0,0,0-.525-.182.785.785,0,0,1-.266-.007c-.185-.044-.231-.186-.292-.415a.974.974,0,0,0-.161-.381.7.7,0,0,0-.44-.2c-.2-.037-.314-.065-.341-.2-.019-.092.009-.11.109-.159a.431.431,0,0,0,.186-.14.3.3,0,0,0-.044-.353c-.052-.079-.065-.108-.048-.137.031-.052.131-.03.268.006a.52.52,0,0,0,.349.016.219.219,0,0,0,.1-.111.183.183,0,0,1,.024-.039.438.438,0,0,1,.376-.154c.049,0,.1,0,.143,0a.469.469,0,0,0,.434-.151.9.9,0,0,0,.205-.638c0-.039,0-.075-.007-.11a.542.542,0,0,1,.082-.423,4.645,4.645,0,0,1,.492.029c.169.018.346.05.517.081l.108.019.113.019a1.677,1.677,0,0,1,.41.1,2.105,2.105,0,0,1,.519.359c.093.079.189.161.3.235a2.379,2.379,0,0,0,.528.3c.039.014.078.025.116.037a.554.554,0,0,1,.258.125l.042-.041a.406.406,0,0,1,.1.293.821.821,0,0,1-.23.32,1.38,1.38,0,0,0-.212.258.7.7,0,0,0-.076.284c0,.034-.008.069-.015.1a.605.605,0,0,0-.147.016,1.572,1.572,0,0,0-.218.073,1.1,1.1,0,0,1-.227.07,7.9,7.9,0,0,1-.985.08,1.445,1.445,0,0,1-.23-.018.573.573,0,0,0-.6.161,1.094,1.094,0,0,0-.224.534.444.444,0,0,0,.075.234.71.71,0,0,1,.044.087.745.745,0,0,1,.046.256A.545.545,0,0,0,19.355,21.5Zm5.681-.83-.03-.02a1.391,1.391,0,0,0-1.187-.189c-.079.012-.164.026-.255.037a2.562,2.562,0,0,1-1.084-.264,1.71,1.71,0,0,0-.228-.084c.007-.039.012-.076.016-.112a.528.528,0,0,1,.055-.218,1.243,1.243,0,0,1,.186-.223.914.914,0,0,0,.274-.4.557.557,0,0,0-.127-.422,1.243,1.243,0,0,1-.069-.115c-.058-.117-.033-.147.058-.26l.05-.063.015-.019c.174-.224.371-.479.123-.8a1.179,1.179,0,0,0-.184-.175.617.617,0,0,1-.21-.238A.1.1,0,0,1,22.454,17a.408.408,0,0,0,.062-.147.641.641,0,0,0-.024-.229c-.015-.07-.049-.235-.024-.265,0,0,.024-.01.1.021a.857.857,0,0,1,.224.187,1.394,1.394,0,0,0,.161.149.647.647,0,0,0,.446.114,1.041,1.041,0,0,1,.231.013.622.622,0,0,1,.245.141,1.16,1.16,0,0,0,.194.132.681.681,0,0,0,.389.057c.036,0,.074,0,.116-.005.072,0,.144,0,.215,0a1.714,1.714,0,0,0,.584-.046l.073-.022a1.4,1.4,0,0,0,.718-.367.438.438,0,0,0,.049-.323.537.537,0,0,1,0-.177c.008-.039.018-.073.028-.105a.628.628,0,0,0,.032-.3,1.655,1.655,0,0,0-.088-.3c-.007-.018-.012-.036-.018-.054a2.3,2.3,0,0,0,.231-.1.936.936,0,0,1,.494-.132,1.414,1.414,0,0,1,.174.033.485.485,0,0,0,.6-.16.641.641,0,0,0,.071-.152.392.392,0,0,1,.083-.154.371.371,0,0,1,.19-.1.851.851,0,0,0,.15-.056.521.521,0,0,0,.312-.542,1.423,1.423,0,0,1,.03-.267.588.588,0,0,1,.224-.317A1.767,1.767,0,0,0,29,13.2l.075-.105.029-.04c.053-.076.057-.082.18-.088.056,0,.109,0,.16,0a1.783,1.783,0,0,0,.3-.019c.094-.016.193-.027.294-.038a2.031,2.031,0,0,0,.82-.2c.053-.032.106-.06.159-.089a1.364,1.364,0,0,0,.474-.356,1,1,0,0,1,1.31-.361c.445.224.792.193.953-.085a.564.564,0,0,0,.039-.336.729.729,0,0,1,0-.165.67.67,0,0,1,.078-.2c.016-.031.032-.063.047-.1a1.779,1.779,0,0,1,.182-.3,2.721,2.721,0,0,0,.15-.233.985.985,0,0,0,.1-.33.4.4,0,0,1,.281-.412.76.76,0,0,1,.091.152.618.618,0,0,0,.182.247.849.849,0,0,0,.3.133c.034.01.067.019.1.03,0,.026-.017.034-.069.057a.274.274,0,0,0-.151.119.55.55,0,0,0,.048.395c.013.035.025.067.031.091a1.315,1.315,0,0,1,.027.308.767.767,0,0,0,.165.57.651.651,0,0,0,.613.168.643.643,0,0,1,.439.06.74.74,0,0,1,.108.086.432.432,0,0,0,.29.132,1.39,1.39,0,0,0,.381-.014,3.658,3.658,0,0,0,.034.489,1.647,1.647,0,0,1-.087.976c-.211.436-.052.649.169.943.035.047.072.1.111.15a.651.651,0,0,0,.432.327l.1.032a.669.669,0,0,1,.388.224.726.726,0,0,1,.117.638.923.923,0,0,1-.157.214,1.541,1.541,0,0,0-.131.163,2.856,2.856,0,0,0-.174.317,2.472,2.472,0,0,1-.173.313.669.669,0,0,1-.564.279c-.079.011-.164.023-.255.043a1.166,1.166,0,0,0-.924.778c-.024.07-.045.136-.065.2a2.349,2.349,0,0,1-.2.493,2.512,2.512,0,0,1-.531.619l-.069.065a1.529,1.529,0,0,0-.377.647c-.028.076-.057.155-.092.234a2.357,2.357,0,0,0-.4.127,2.818,2.818,0,0,1-.321.108,1.333,1.333,0,0,1-.209.026.774.774,0,0,0-.464.136c-.133-.183-.43-.142-.621-.115a1.375,1.375,0,0,1-.16.017c-.342,0-.689,0-1.024-.008-.267,0-.533-.009-.8-.009-.314,0-.635-.013-.945-.026a12.472,12.472,0,0,0-1.761.01c-.164.017-.334.027-.506.038a5.119,5.119,0,0,0-1.445.229.857.857,0,0,1-.3.058A1.357,1.357,0,0,1,25.036,20.675ZM6.515,18.745c-.014-.017-.016-.023-.012-.02a.317.317,0,0,0,.014-.092.637.637,0,0,1,0-.071.349.349,0,0,0-.024-.187c-.009-.025-.018-.045-.025-.062a.242.242,0,0,1-.011-.19l.01-.055-.046-.031c-.065-.044-.124-.078-.18-.109a.81.81,0,0,1-.343-.3,2.25,2.25,0,0,1-.15-.3,2.179,2.179,0,0,0-.2-.385.9.9,0,0,0-.364-.3,1.261,1.261,0,0,1-.18-.11c-.068-.052-.145-.1-.223-.158-.059-.04-.117-.081-.175-.122a.178.178,0,0,0,0-.037c-.019-.106-.208-.281-.154-.386.04-.079.11-.049.132-.147a.626.626,0,0,0,0-.2c.019-.011.014-.028.041-.022.01-.052.022-.143.073-.159.016.113.141.039.209.03a.631.631,0,0,1,.112,0,.825.825,0,0,0,.1,0c.327-.024.346-.136.347-.416-.161-.011-.259.011-.358-.1-.047-.053-.1-.159-.161-.18s-.2.044-.251.063c-.154.054-.375.23-.55.166-.083-.03-.152-.088-.241-.119a.4.4,0,0,1-.113-.047c-.058-.047-.071-.113-.119-.168a.589.589,0,0,0-.212-.129c-.113-.053-.161-.18-.267-.223a.187.187,0,0,0-.06-.012l.04-.037c.021-.018.041-.036.057-.054a.43.43,0,0,0,.124-.223l.015-.059c.032-.132.048-.2.161-.249a.488.488,0,0,0,.322-.359l.01-.037c.04-.152.068-.239.185-.262a.62.62,0,0,1,.15,0,.457.457,0,0,0,.332-.063.408.408,0,0,0,.139-.282c.016-.092.028-.146.092-.186.124-.077.2-.04.325.022a.976.976,0,0,0,.69.09.782.782,0,0,0,.1-.044.428.428,0,0,1,.085-.035.5.5,0,0,1,.212.03.932.932,0,0,0,.2.041.785.785,0,0,0,.245-.034.987.987,0,0,1,.127-.027,1.916,1.916,0,0,1,.312-.006,1.226,1.226,0,0,0,.167-.007l.085-.007a.663.663,0,0,0,.233.334.875.875,0,0,0,.273.106A1.033,1.033,0,0,1,8,12.87a.568.568,0,0,0,.646-.114.6.6,0,0,0,.182-.226.306.306,0,0,0,.015-.078.334.334,0,0,0,0-.05.275.275,0,0,1,.076.042.367.367,0,0,0,.169.074.9.9,0,0,0,.164-.006.668.668,0,0,1,.141-.006.175.175,0,0,1,.1.04.8.8,0,0,0,.093.057,1.705,1.705,0,0,0,.669.153c.025,0,.058,0,.1,0a.654.654,0,0,1,.232.021c.028.027.031.135.033.2a.887.887,0,0,0,.011.139.371.371,0,0,0,.067.134.568.568,0,0,1,.037.059l-.03.023a.328.328,0,0,0-.1.092l-.012.02a.165.165,0,0,0-.016.165.407.407,0,0,0,.072.13c.033.044.05.069.047.107a1.168,1.168,0,0,1-.043.189l-.012.043a.41.41,0,0,1-.044.1.612.612,0,0,0-.055.117.781.781,0,0,0-.027.11.221.221,0,0,1-.006.029.306.306,0,0,1-.078.052c-.064.037-.15.1-.149.189a.2.2,0,0,0,.13.167.7.7,0,0,0,.147.054.433.433,0,0,1,.129.05.129.129,0,0,1,.034.051.318.318,0,0,0,.052.079.135.135,0,0,0-.053.051c-.044.082.006.187.059.3a.914.914,0,0,1,.054.126c0,.008-.005.012-.02.029a.371.371,0,0,0-.038.048.286.286,0,0,0-.04.1l-.009.033c-.007.022-.018.026-.022.027a.1.1,0,0,1-.085-.027.214.214,0,0,1-.05-.071.288.288,0,0,0-.151-.152.337.337,0,0,0-.323.034.214.214,0,0,0-.068.213.663.663,0,0,0,.031.105.212.212,0,0,1,.019.121c0,.03-.013.062-.021.093a.88.88,0,0,0-.03.16c-.014.205.2.247.364.277a.582.582,0,0,1,.188.054c.05.037.046.078.024.184-.006.031-.013.062-.016.093a.336.336,0,0,0,.155.385.824.824,0,0,0,.15.067.39.39,0,0,1,.162.089c.036.038.034.061-.019.166a.642.642,0,0,0-.066.171c-.006.031-.009.064-.012.1-.01.1-.019.167-.077.2a.1.1,0,0,1-.081.014c-.018-.007-.054-.034-.09-.133,0-.01-.006-.021-.009-.032a.219.219,0,0,0-.092-.147.161.161,0,0,0-.127-.009.525.525,0,0,0-.163.111.733.733,0,0,1-.063.051.405.405,0,0,0-.105.1.56.56,0,0,0-.12-.005c-.063,0-.092,0-.171-.079a2.4,2.4,0,0,0-.237-.211,1.733,1.733,0,0,1-.268-.251c-.011-.014-.025-.033-.041-.055-.087-.12-.2-.29-.349-.28a.2.2,0,0,0-.165.1.26.26,0,0,0-.027.17.149.149,0,0,1,0,.079c-.022.033-.035.036-.08.047a.575.575,0,0,0-.088.028c-.182.076-.216.117-.242.229a.623.623,0,0,1-.035.11c-.034.082-.114.111-.242.15-.037.011-.073.022-.106.035s-.061.022-.1.034a.788.788,0,0,0-.41.217.351.351,0,0,0-.042.187c0,.09-.009.115-.051.136a.3.3,0,0,1-.13,0,.461.461,0,0,0-.191,0,.327.327,0,0,0-.128.077.276.276,0,0,1-.059.043.469.469,0,0,1-.179.032A.228.228,0,0,1,6.515,18.745Zm15.747-.122c-.035-.01-.071-.021-.107-.033a2.242,2.242,0,0,1-.488-.28c-.1-.069-.192-.149-.282-.225a2.26,2.26,0,0,0-.562-.385,1.832,1.832,0,0,0-.451-.113l-.11-.018-.108-.02c-.174-.031-.354-.063-.529-.082-.149-.016-.268-.024-.394-.028a1.892,1.892,0,0,0,.178-.428l.013-.04a1.222,1.222,0,0,1,.07-.157.578.578,0,0,0,.08-.5c-.074-.059-.241-.2-.307-.2a.256.256,0,0,0-.16.074.172.172,0,0,1-.034.025l-.027,0a.364.364,0,0,1-.008-.086.3.3,0,0,0-.151-.306.192.192,0,0,0-.191,0c-.087.057-.1.177-.1.285a.449.449,0,0,1-.342-.145.916.916,0,0,0-.321-.185,1.377,1.377,0,0,0-.149-.032c-.013-.044-.033-.092-.053-.143a.773.773,0,0,1-.075-.252.262.262,0,0,1,.223-.258c.03-.006.066-.012.106-.018.2-.032.5-.08.577-.3a.316.316,0,0,0,0-.139.277.277,0,0,1,0-.062.29.29,0,0,1,.081-.054c.022-.012.043-.023.06-.035s.23-.157.242-.339a.211.211,0,0,0-.077-.177.234.234,0,0,0-.091-.043.157.157,0,0,1-.037-.014.137.137,0,0,1-.026-.036l-.019-.03-.021-.033a.385.385,0,0,0-.15-.15,1.054,1.054,0,0,0-.121-.052c-.162-.062-.2-.094-.186-.153.02-.085.117-.1.314-.086l.08,0a.756.756,0,0,1,.153.023.948.948,0,0,0,.178.027c.041,0,.085,0,.128,0a.844.844,0,0,1,.172,0c.071.025.159.048.256.071l.069.017a1.17,1.17,0,0,0,.154.027.481.481,0,0,1,.23.066.58.58,0,0,1,.1.1.694.694,0,0,0,.146.146.844.844,0,0,0,.4.13c.05.007.1.014.154.025.116.026.166.109.237.242a.955.955,0,0,0,.145.219.683.683,0,0,0,.552.149h.106a1.344,1.344,0,0,1,.51.252.011.011,0,0,0,0,.006,1.183,1.183,0,0,1,.167.267.633.633,0,0,0,.611.452,1.469,1.469,0,0,0,.335-.047.739.739,0,0,0,.514-.357c.018-.029.034-.06.051-.09.058-.107.108-.2.209-.23s.181.015.29.108a1.3,1.3,0,0,0,.115.091,1.1,1.1,0,0,0,.735.141c.053-.006.1-.016.143-.025a.268.268,0,0,1,.269.038,1.363,1.363,0,0,1,.107.094,1.589,1.589,0,0,0,.134.116c.015.048.03.1.047.143a1.469,1.469,0,0,1,.08.273.46.46,0,0,1-.027.227c-.011.036-.022.075-.031.119a.684.684,0,0,0,0,.233.277.277,0,0,1-.022.208,1.36,1.36,0,0,1-.624.3l-.074.022A1.538,1.538,0,0,1,24.8,17c-.074,0-.148-.006-.223,0-.044,0-.086,0-.125.006a.523.523,0,0,1-.3-.039,1.007,1.007,0,0,1-.165-.113.758.758,0,0,0-.318-.175,1.216,1.216,0,0,0-.268-.017.477.477,0,0,1-.342-.081,1.287,1.287,0,0,1-.139-.13.936.936,0,0,0-.284-.226.278.278,0,0,0-.275.008c-.105.089-.067.27-.034.431a.744.744,0,0,1,.024.16.241.241,0,0,1-.04.089.26.26,0,0,0-.03.258.746.746,0,0,0,.263.313,1.051,1.051,0,0,1,.158.149c.159.2.067.341-.123.587l-.015.019-.048.059a.354.354,0,0,0-.105.38A1.5,1.5,0,0,0,22.263,18.623ZM14.831,16.3a1.646,1.646,0,0,0-.441-.121.962.962,0,0,0-.128,0,.683.683,0,0,1-.225-.019.181.181,0,0,0,.052-.092c.04-.194-.17-.3-.283-.351l-.029-.014a.691.691,0,0,0-.629-.018.833.833,0,0,0-.353-.429c-.1-.065-.279-.185-.245-.26.014-.031.132-.02.2-.013a.51.51,0,0,0,.271-.02.383.383,0,0,0,.142-.147.5.5,0,0,1,.058-.079.288.288,0,0,1,.318-.063.355.355,0,0,1,.146.114.794.794,0,0,0,.133.123,1.048,1.048,0,0,0,.186.1l.118.049v-.127a.428.428,0,0,0-.032-.142.257.257,0,0,1-.02-.078.235.235,0,0,1,.039-.018.322.322,0,0,0,.087-.045.266.266,0,0,0,.054-.061c.013-.018.018-.024.026-.029a1.187,1.187,0,0,1,.31-.08c.067-.012.133-.023.19-.038l.036-.009a.215.215,0,0,0,.17-.123.778.778,0,0,0,.035-.445.5.5,0,0,0-.051-.144c-.023-.046-.026-.052,0-.108a.509.509,0,0,0,.074-.424.5.5,0,0,0-.228-.26l-.034-.024a.464.464,0,0,1-.039-.033.415.415,0,0,0-.1-.073.265.265,0,0,0-.094-.019l-.034,0c-.153-.074-.211-.308-.263-.515a2.15,2.15,0,0,0-.069-.239c-.04-.1-.066-.19-.019-.266a.384.384,0,0,1,.268-.153.276.276,0,0,1,.226.057,1,1,0,0,1,.114.153c.11.165.247.371.442.356a.284.284,0,0,0,.174-.087c.042-.037.056-.048.095-.04a.524.524,0,0,1,.224.135.767.767,0,0,0,.245.157,1.537,1.537,0,0,0,.689.066,2.274,2.274,0,0,0,.458-.16c.092-.04.179-.078.269-.107a.8.8,0,0,1,.4-.047.369.369,0,0,1,.1.061.671.671,0,0,0,.061.044l.007-.012a2.238,2.238,0,0,0,.605.484c.056.035.108.068.155.1.154.105.232.158.29.306a.611.611,0,0,1,.021.075.852.852,0,0,0,.033.111c-.031,0-.061,0-.089,0a.815.815,0,0,1-.146-.023.9.9,0,0,0-.187-.028l-.074,0c-.172-.008-.431-.02-.488.217-.053.22.162.3.29.352a.876.876,0,0,1,.1.043.22.22,0,0,1,.089.093l.037.057a.3.3,0,0,0,.061.077.254.254,0,0,0,.1.048l.028.009a.042.042,0,0,1,.018.037.394.394,0,0,1-.167.208c-.013.009-.029.017-.045.026a.326.326,0,0,0-.154.133.278.278,0,0,0-.011.155.25.25,0,0,1,0,.065c-.041.122-.282.161-.442.186-.044.007-.083.013-.115.02a.435.435,0,0,0-.358.421.86.86,0,0,0,.088.32l.025.062a1.815,1.815,0,0,0-.815.169,2.157,2.157,0,0,1-.366.115,1.277,1.277,0,0,0-.663.308c-.019.02-.035.04-.051.059a.308.308,0,0,1-.166.126.561.561,0,0,1-.18.008.8.8,0,0,0-.2.006A.812.812,0,0,0,14.831,16.3Zm-2.354-.4a.653.653,0,0,0-.461-.293l-.105-.013c-.24-.027-.415-.059-.472-.216l-.01-.029-.027-.016a.251.251,0,0,1-.076-.116.532.532,0,0,0-.069-.124.312.312,0,0,0-.254-.11.16.16,0,0,1-.1-.026.163.163,0,0,1-.022-.038.281.281,0,0,0-.089-.116.569.569,0,0,0-.182-.075.556.556,0,0,1-.112-.04.2.2,0,0,1-.032-.02.3.3,0,0,1,.054-.038c.123-.07.15-.1.167-.2a.624.624,0,0,1,.021-.088.45.45,0,0,1,.041-.085.57.57,0,0,0,.061-.135l.011-.041a1.244,1.244,0,0,0,.049-.224.314.314,0,0,0-.08-.22.262.262,0,0,1-.045-.076c0-.013-.007-.022,0-.027l.014-.023a.4.4,0,0,1,.051-.041.227.227,0,0,0,.1-.1.248.248,0,0,0-.061-.216.275.275,0,0,1-.04-.071.729.729,0,0,1-.008-.111.452.452,0,0,0-.085-.318.515.515,0,0,0-.352-.069c-.032,0-.061,0-.082,0a1.548,1.548,0,0,1-.6-.134.673.673,0,0,1-.075-.046.338.338,0,0,0-.183-.069.843.843,0,0,0-.175.005.765.765,0,0,1-.129.006c-.008-.032-.017-.063-.025-.1a1.976,1.976,0,0,0-.108-.352.5.5,0,0,0-.25-.221c-.1-.055-.164-.09-.176-.173-.006-.038.012-.068.044-.117a.382.382,0,0,0,.071-.165.331.331,0,0,0-.048-.2c-.007-.014-.014-.028-.021-.044-.084-.2.115-.344.241-.415a1.869,1.869,0,0,1,.22-.1,1.18,1.18,0,0,0,.42-.245.541.541,0,0,0,.1-.163c.029-.064.046-.1.082-.11a1.15,1.15,0,0,1,.316-.024h.172c.154,0,.31,0,.462.007a1.885,1.885,0,0,1,.239.03.842.842,0,0,0,.638-.064c.144-.1.171-.075.325.037l.054.039a.5.5,0,0,0,.413.051.349.349,0,0,0,.2-.141l.063-.027a.285.285,0,0,1,.146-.04.206.206,0,0,1,0,.052.229.229,0,0,0,.064.217.207.207,0,0,0,.131.056.149.149,0,0,0,.044-.007c.1-.031.126-.143.149-.234.006-.021.013-.052.008-.05.042-.036.145.034.2.09l.077.073.055-.09c.034-.056.08-.071.179-.058a.562.562,0,0,1,.025.053.342.342,0,0,0,.129.173.488.488,0,0,0,.2.056.59.59,0,0,1,.1.018.548.548,0,0,1,.423.491c.005.056.005.1.005.148a.656.656,0,0,0,.081.366.513.513,0,0,1,.049.225c0,.016,0,.032,0,.048a.512.512,0,0,0-.191-.01.546.546,0,0,0-.39.232.449.449,0,0,0,0,.417,2.064,2.064,0,0,1,.063.22c.061.243.129.519.354.627a.254.254,0,0,0,.094.02.259.259,0,0,1,.036,0,.306.306,0,0,1,.057.045.615.615,0,0,0,.054.045l.036.025c.075.052.14.1.162.17.034.109,0,.179-.067.3a.239.239,0,0,0,0,.255.342.342,0,0,1,.036.1.608.608,0,0,1-.016.331c-.018.031-.018.031-.061.041l-.041.01c-.053.014-.113.024-.176.035a1.288,1.288,0,0,0-.359.1.235.235,0,0,0-.088.083.121.121,0,0,1-.02.025.206.206,0,0,1-.042.019.27.27,0,0,0-.1.055.179.179,0,0,0-.046.172.708.708,0,0,1-.095-.091.5.5,0,0,0-.221-.161.455.455,0,0,0-.491.108.66.66,0,0,0-.079.1.242.242,0,0,1-.077.088.472.472,0,0,1-.176,0c-.137-.013-.307-.029-.372.112-.1.208.155.375.305.474a1,1,0,0,1,.086.061.8.8,0,0,1,.259.549.151.151,0,0,1-.1.124.167.167,0,0,1-.07.014A.634.634,0,0,1,12.477,15.9Zm10.142-.823a.929.929,0,0,0-.828-.626H21.68a.544.544,0,0,1-.424-.1.823.823,0,0,1-.118-.182.533.533,0,0,0-.351-.328c-.058-.013-.114-.021-.168-.028a.686.686,0,0,1-.326-.1.536.536,0,0,1-.11-.113.724.724,0,0,0-.125-.131.617.617,0,0,0-.312-.1,1,1,0,0,1-.131-.022l-.073-.018a1.5,1.5,0,0,1-.32-.1.308.308,0,0,1-.049-.128.761.761,0,0,0-.028-.1.782.782,0,0,0-.357-.388c-.044-.03-.1-.063-.155-.1a2.031,2.031,0,0,1-.572-.457c.024-.023.047-.048.071-.073s.066-.069.1-.1a.4.4,0,0,0,.178-.37l0-.066a.545.545,0,0,1,.263-.368l.012.009c.073.053.393.214.378.3-.011.061.048.075.1.094.12.048.246.082.366.13.137.055.23.15.365.211a2.013,2.013,0,0,0,.866.169.566.566,0,0,1,.31.048c.071.041.11.114.175.16a.55.55,0,0,0,.169.063c.316.1.518.428.856.428a3.532,3.532,0,0,0,.976-.131c.219-.063.444-.1.66-.174s.435-.076.644-.142a2.434,2.434,0,0,0,.462-.227.746.746,0,0,1,.37-.066c.472-.008.9-.241,1.369-.266a1.877,1.877,0,0,1,.52-.048c.056.012.059.016.09.066.021.034.033.125.059.15.066.063.272.029.359.025.071,0,.142-.012.213-.021l0,.014a.189.189,0,0,0,.057.2.667.667,0,0,0,.353.136,1.226,1.226,0,0,1,.124.025.719.719,0,0,1,.225.159l.041.037c.03.026.059.053.088.08.045.042.09.084.136.12a.772.772,0,0,1,.13.175.294.294,0,0,0-.178.143l-.027.038c-.029.039-.054.075-.077.108a1.6,1.6,0,0,1-.254.3.753.753,0,0,0-.274.4,1.575,1.575,0,0,0-.034.3c-.008.189-.013.293-.218.4a.7.7,0,0,1-.121.044.533.533,0,0,0-.266.148.549.549,0,0,0-.12.214.494.494,0,0,1-.052.114c-.1.155-.216.137-.418.09a1.544,1.544,0,0,0-.2-.037,1.081,1.081,0,0,0-.584.147,1.936,1.936,0,0,1-.229.094,1.2,1.2,0,0,1-.137-.116,1.551,1.551,0,0,0-.122-.106.43.43,0,0,0-.405-.068,1.251,1.251,0,0,1-.127.022.96.96,0,0,1-.62-.113,1.092,1.092,0,0,1-.1-.079.446.446,0,0,0-.451-.141.55.55,0,0,0-.309.311c-.015.028-.03.056-.047.083a.571.571,0,0,1-.408.279,1.293,1.293,0,0,1-.294.042C22.855,15.428,22.731,15.323,22.619,15.076Zm-11.567.1a.166.166,0,0,1-.028-.025.125.125,0,0,1,.1.041A.189.189,0,0,1,11.053,15.18ZM2.823,14.2c-.137-.026-.257-.15-.172-.278.037-.056.148-.1.169-.167s-.038-.139-.051-.193c-.029-.114.039-.262-.029-.362-.034-.051-.146-.071-.171-.125-.013-.028.01-.038.006-.066-.006-.052.01-.106,0-.163a1.561,1.561,0,0,1-.02-.328,1.2,1.2,0,0,0-.124.008c-.108.01-.245.019-.283-.022s0-.147,0-.2c-.014-.128-.1-.108-.188-.2-.055-.058-.075-.077-.032-.146.058-.093.163-.1.156-.231a1.16,1.16,0,0,0-.057-.257c-.027-.078-.09-.112-.149-.157-.088-.067-.146-.164-.225-.232-.055.09-.311.027-.283-.078.016-.06.123-.091.164-.129a.3.3,0,0,0,.1-.216,1.248,1.248,0,0,1,.018-.218c.016-.06.055-.115.033-.182-.038-.117-.081-.043-.116-.162l0,.011c0-.008,0-.015-.006-.021v0h0a.3.3,0,0,0-.035-.109c-.034-.055-.167-.119-.181-.172-.023-.091.141-.109.124-.214s-.165-.132-.1-.271c.029-.058.131-.047.161-.111.017-.035-.013-.08-.009-.122a.738.738,0,0,1-.305-.169c-.106-.087-.259-.1-.363-.183.164-.081.085-.155.106-.3.01-.065.031-.146.047-.208a1.182,1.182,0,0,0,.065-.2c.011-.134-.138-.16-.1-.293.029-.1.157-.171.075-.271-.1-.12-.257-.073-.386-.093-.152-.023-.15-.176-.184-.3C.444,6.922.341,6.908.208,6.9c-.079-.007-.214,0-.207-.108s.094-.1.153-.136c.125-.081.188-.283.254-.41.031-.059.051-.122.084-.18s.083-.25.144-.262c.109-.021.048-.173.067-.242.028-.1.132-.1.191-.167.03-.034.024-.051.07-.088s.047,0,.047-.061c0-.1-.118-.152-.2-.142C.694,5.112.63,5.243.5,5.171c-.1-.055-.1-.132-.023-.2.13-.119.116-.083.06-.233a.5.5,0,0,1,0-.232,1.274,1.274,0,0,1,.032-.329A.686.686,0,0,0,.61,4.022a.2.2,0,0,0-.045-.175C.522,3.8.444,3.785.418,3.723.345,3.545.629,3.49.6,3.363S.4,3.2.341,3.115a.248.248,0,0,1,.022-.361c.082-.062.075-.047.079-.148a.687.687,0,0,1,.026-.185.17.17,0,0,0,.088-.211.652.652,0,0,0-.147-.094,2.66,2.66,0,0,1-.273-.139c.041-.086.022-.172.06-.256S.3,1.578.275,1.5C.259,1.439.2,1.415.169,1.368s-.033-.185.053-.2a1.019,1.019,0,0,1,.149.025.43.43,0,0,0,.16-.01C.6,1.151.616,1.1.694,1.166c.051.042.063.135.131.153.047.012.124-.027.169-.037a.549.549,0,0,0,.224-.1c.073-.063.017-.156,0-.243A.208.208,0,0,1,1.278.7C1.3.684,1.321.7,1.343.671a.389.389,0,0,0,.04-.133c.03-.119,0-.149.109-.211A1.46,1.46,0,0,0,1.707.186C1.77.132,1.926-.029,2,0s.105.2.165.255.124.072.176.141a2.037,2.037,0,0,0,.232.237c.181.175.111.516.223.737a.745.745,0,0,0,.15.2c.069.064.25.169.235.275.061.059.038.177.041.256.059.007.1.041.165.049a.57.57,0,0,0,.13,0,.565.565,0,0,1,.13,0c.014.112.027.233.051.344s.086.152.161.232c.009.01.015.017.021.025a2.186,2.186,0,0,1-.2.235c-.048.051-.094.1-.133.147a.738.738,0,0,0-.056.746l.019.066c.067.237.055.27-.144.4-.05.031-.1.063-.161.1a1.49,1.49,0,0,0-.586.483.344.344,0,0,0,.08.495.757.757,0,0,1,.121.142,1.707,1.707,0,0,1,.137.47l.007.038a.613.613,0,0,1-.032.308.807.807,0,0,0-.043.242.479.479,0,0,0,.165.316c.073.079.117.132.113.2s-.05.1-.125.16a.4.4,0,0,0-.168.2.549.549,0,0,0,.14.445.825.825,0,0,1,.09.151.578.578,0,0,1-.026.475c-.015.041-.031.085-.046.133a.37.37,0,0,0,.028.337c.122.175.412.187.623.2h.022a.372.372,0,0,1,.332.184.823.823,0,0,0,.265.239.792.792,0,0,0,.441.076.444.444,0,0,1,.416.135,2.621,2.621,0,0,1,.362.578c.038.074.075.148.115.22.063.114.164.264.3.262s.229-.171.314-.348A.83.83,0,0,1,6.4,10.33a.246.246,0,0,1,.19-.041.523.523,0,0,0,.222-.023.535.535,0,0,0,.193-.13.286.286,0,0,1,.047-.04s.037.006.137.119a.551.551,0,0,1,.091.487c-.006.057-.013.115-.016.175a.878.878,0,0,0,.213.66.458.458,0,0,0,.314.116.628.628,0,0,0,.1-.008.9.9,0,0,0,.236-.08A.47.47,0,0,1,8.38,11.5a.269.269,0,0,0,0,.027.413.413,0,0,0,.265.3.354.354,0,0,1,.175.142,1.56,1.56,0,0,1,.085.272.172.172,0,0,0-.109,0,.2.2,0,0,0-.122.2.277.277,0,0,1,0,.035.434.434,0,0,1-.127.15c-.191.147-.309.171-.468.095a1.155,1.155,0,0,0-.207-.069.743.743,0,0,1-.222-.083.535.535,0,0,1-.183-.3L7.446,12.2l-.061,0a1.191,1.191,0,0,0-.168.007,1.02,1.02,0,0,1-.143.007,2.054,2.054,0,0,0-.34.007,1.156,1.156,0,0,0-.149.031.648.648,0,0,1-.193.029.8.8,0,0,1-.165-.034.623.623,0,0,0-.29-.033.528.528,0,0,0-.128.05.6.6,0,0,1-.079.035.842.842,0,0,1-.4-.012.874.874,0,0,1-.166-.068.443.443,0,0,0-.492-.014.388.388,0,0,0-.169.3.251.251,0,0,1-.076.177.33.33,0,0,1-.215.027.74.74,0,0,0-.195,0c-.228.044-.278.234-.318.386l-.01.036a.323.323,0,0,1-.227.248.442.442,0,0,0-.256.364L3.2,13.8a.269.269,0,0,1-.084.149c-.013.014-.029.028-.046.043a.379.379,0,0,0-.142.2.349.349,0,0,1-.068.008A.181.181,0,0,1,2.823,14.2Zm26.3-1.7c-.043-.034-.084-.072-.125-.111s-.061-.057-.093-.085l-.039-.035a.826.826,0,0,0-.293-.2,1.376,1.376,0,0,0-.141-.029.511.511,0,0,1-.278-.105.181.181,0,0,1,.005-.033c0-.013.006-.027.008-.041s0-.021,0-.032c.048-.007.1-.013.145-.018a1.528,1.528,0,0,1,.239-.016,2.5,2.5,0,0,1,.268.07c.137.024.223.02.3-.106a.444.444,0,0,0,0-.377,2.718,2.718,0,0,1-.218-.655,2.078,2.078,0,0,0-.1-.442c-.065-.184-.183-.368-.258-.549.349,0,.689.036,1.041.033a.427.427,0,0,0,.294-.09c.188-.131.488-.119.607-.347.068,0,.084-.042.134-.075s.108-.024.169.008.071.024.134-.014a.549.549,0,0,0,.128-.094A.31.31,0,0,0,31.12,9c.022-.076.1-.1.155-.15.025-.023.073-.074.058-.113-.021-.06-.16-.061-.209-.087.015-.064.056-.09.093-.142.016-.022.021-.056.039-.079a.506.506,0,0,1,.085-.072.407.407,0,0,0,.127-.2,1.065,1.065,0,0,1,.1-.179.81.81,0,0,1,.214-.189c.073-.054.135-.121.207-.177a.76.76,0,0,0,.125-.124c.029-.038.018-.052.069-.077a.153.153,0,0,1,.061-.019.484.484,0,0,1,.113,0,.53.53,0,0,0,.1,0,.377.377,0,0,0,.14-.036c.047-.032.065-.09.115-.123a1.252,1.252,0,0,0,.239-.163.874.874,0,0,0,.129-.2c.058-.1.2-.088.311-.1a2.506,2.506,0,0,0,.346-.076.656.656,0,0,1,.136-.009h.061a.47.47,0,0,0,.18-.044c.049-.021.145-.082.2-.054.033.016.059.086.08.113a.479.479,0,0,0,.125.109.278.278,0,0,0,.11.03,2.1,2.1,0,0,0,.27.007.962.962,0,0,1,.144.014.913.913,0,0,0,.152.014,1.536,1.536,0,0,0,.179-.017c0,.023,0,.044,0,.069a2.823,2.823,0,0,1-.043.68.348.348,0,0,1-.045.079.251.251,0,0,0-.065.212c.037.117.155.15.241.174a.36.36,0,0,1,.083.029.537.537,0,0,1,.192.522c-.038.134-.161.181-.358.241a1.549,1.549,0,0,0-.229.084.574.574,0,0,0-.285.32.549.549,0,0,1-.124.192.769.769,0,0,1-.174.1.8.8,0,0,0-.262.171.724.724,0,0,0-.141.38.851.851,0,0,1-.077.275c-.044.078-.093.149-.142.218a1.954,1.954,0,0,0-.2.33c-.013.03-.028.059-.043.087a.813.813,0,0,0-.094.252.864.864,0,0,0,0,.207.443.443,0,0,1-.017.236c-.15.26-.521.123-.729.018a1.169,1.169,0,0,0-1.523.41,1.214,1.214,0,0,1-.42.31c-.055.03-.11.059-.166.092a1.911,1.911,0,0,1-.751.182c-.1.011-.208.023-.3.039a1.625,1.625,0,0,1-.272.016l-.115,0A1.079,1.079,0,0,0,29.119,12.5Zm-13.109-.33a.63.63,0,0,1-.19-.126.669.669,0,0,0-.3-.172.258.258,0,0,0-.241.081c-.031.027-.048.042-.073.044-.1.011-.206-.159-.287-.28a1.3,1.3,0,0,0-.12-.161h0a.625.625,0,0,1-.028-.173.661.661,0,0,0-.071-.3.493.493,0,0,1-.06-.283c0-.049,0-.1-.006-.164a.756.756,0,0,0-.667-.663.356.356,0,0,1-.13-.033.194.194,0,0,1-.062-.095l-.016-.035V9.8c0-.034.008-.07.014-.108a1.6,1.6,0,0,0,.021-.255.409.409,0,0,0-.27-.347.663.663,0,0,1-.147-.1,1.245,1.245,0,0,1-.275-.641c-.011-.047-.021-.094-.033-.139L13.043,8.1a2.761,2.761,0,0,0-.313-.866.393.393,0,0,0-.093-.089.245.245,0,0,1-.055-.05c-.021-.072.084-.186.147-.254l.043-.047c.111-.129.209-.266.3-.4.07-.1.141-.195.216-.29a1.155,1.155,0,0,1,.082-.088c.094-.094.236-.237.069-.415a.521.521,0,0,1-.083-.108.73.73,0,0,1,.157-.016c.218,0,.322.02.323.258,0,.307.006.614.008.921,0,.242-.034.486-.017.728.016.222.191.4.283.595s.061.649.184.668a.606.606,0,0,0,.182.016.553.553,0,0,1,.254.061c.158.085.269.226.429.3a.8.8,0,0,0,.564.04.452.452,0,0,1,.383.077,2.216,2.216,0,0,0,.33.171,3.065,3.065,0,0,0,.328.09c.076.018.15.044.226.062s.143,0,.209.021c.12.03.162.2.256.278.256.219.22.518.3.821.038.14.075.128.218.169a2.109,2.109,0,0,1,.427.138,1.073,1.073,0,0,1,.133.086.654.654,0,0,0-.293.463l0,.068c-.007.143-.007.149-.121.251-.038.034-.075.072-.111.11s-.066.069-.1.1a.359.359,0,0,0-.09-.045.974.974,0,0,0-.5.048c-.1.032-.191.073-.283.113a2.118,2.118,0,0,1-.423.149.775.775,0,0,1-.147.012A1.538,1.538,0,0,1,16.009,12.172Zm20.813-.061a.268.268,0,0,1-.194-.088.915.915,0,0,0-.131-.1.8.8,0,0,0-.548-.086c-.188.018-.336.032-.472-.115a.618.618,0,0,1-.119-.456,1.462,1.462,0,0,0-.032-.348c-.007-.028-.02-.066-.036-.108-.026-.07-.079-.216-.057-.258.007-.014.038-.027.067-.04a.227.227,0,0,0,.157-.3l-.011-.04-.039-.016a1.491,1.491,0,0,0-.16-.052A.71.71,0,0,1,35,10a.459.459,0,0,1-.133-.186,1.012,1.012,0,0,0-.09-.158.525.525,0,0,0,.089-.063.709.709,0,0,0,.164-.246.409.409,0,0,1,.205-.239,1.4,1.4,0,0,1,.2-.074c.191-.058.407-.125.473-.358a.706.706,0,0,0-.258-.708.446.446,0,0,0-.135-.054c-.054-.015-.115-.032-.123-.052a.334.334,0,0,1,.042-.074.439.439,0,0,0,.069-.131,2.935,2.935,0,0,0,.048-.725c0-.032,0-.06,0-.09a1.192,1.192,0,0,1,.137-.009.29.29,0,0,0,0-.093.532.532,0,0,1,.027-.132.118.118,0,0,0,.006-.081c-.026-.06-.1-.048-.143-.085-.07-.064.131-.132.185-.156.083-.038.169-.065.252-.106a.542.542,0,0,1,.256-.049.268.268,0,0,1,.122.027c.039.022.072.079.112.1.076.033.177-.048.252-.075A.592.592,0,0,0,36.9,6.1a.586.586,0,0,1,.181-.085c.05,0,.109.09.15.121a.4.4,0,0,0,.2.1.463.463,0,0,0,.071-.008.238.238,0,0,1,.139.006c.063.03.1.142.165.17s.082-.04.1-.089a.647.647,0,0,1,.164-.315c.042-.035.069-.021.12-.027.068-.008.214-.091.288-.064.055.02.073.14.083.186a.9.9,0,0,0,.089.283,2.6,2.6,0,0,1,.2.266.268.268,0,0,1-.04.3c-.044.068-.163.18-.108.271s.268.11.332.128c.107.031.144.076.206.011.031-.033.025-.109.065-.15s.052-.038.116-.053c.146-.033.242.041.365.069l.075.015a.759.759,0,0,0-.3.24.492.492,0,0,0-.023.28.7.7,0,0,1,.006.132,1.015,1.015,0,0,1-.026.118.775.775,0,0,0-.036.282l.005.054.051.018A2.481,2.481,0,0,0,40.6,8.45l.206-.012c.251-.012.326.087.487.333.042.064.092.127.142.191a2.481,2.481,0,0,1,.147.2c.079.125-.118.4-.291.643-.2.281-.39.546-.342.768a.327.327,0,0,0,.169.216.421.421,0,0,0,.216.063c.038,0,.053,0,.115.107a1.389,1.389,0,0,0,.111.147c.034.042.088.107.122.157a.2.2,0,0,0-.048.029.506.506,0,0,0-.111.367c-.01.155-.021.315-.116.367-.271.147-.555.087-.921-.2a1.183,1.183,0,0,0-.571-.259,1.366,1.366,0,0,1-.459-.257c-.056-.041-.112-.083-.17-.121a2.584,2.584,0,0,0-.431-.218,2.784,2.784,0,0,1-.34-.163c-.029-.018-.057-.037-.084-.056-.117-.081-.278-.193-.458-.032a.407.407,0,0,0-.1.175.412.412,0,0,1-.051.112,1.015,1.015,0,0,1-.293.206c-.044.023-.088.042-.13.059a.439.439,0,0,0-.34.4,1.282,1.282,0,0,0,.023.3c.007.045.013.089.017.132a1.322,1.322,0,0,1-.166.011A.987.987,0,0,1,36.823,12.111Zm-29.229-.7a.706.706,0,0,1-.157-.525c0-.057.009-.111.015-.165a.709.709,0,0,0-.133-.619c-.108-.122-.183-.173-.258-.176a.235.235,0,0,0-.172.088.371.371,0,0,1-.134.093.376.376,0,0,1-.155.013.409.409,0,0,0-.3.076.87.87,0,0,0-.2.3c-.039.081-.121.251-.165.252,0,0-.05,0-.146-.174-.039-.071-.076-.143-.112-.215a2.748,2.748,0,0,0-.387-.614.607.607,0,0,0-.55-.192A.632.632,0,0,1,4.387,9.5a.662.662,0,0,1-.213-.2.534.534,0,0,0-.459-.248H3.693c-.166-.007-.416-.018-.49-.123A.21.21,0,0,1,3.2,8.746c.014-.045.029-.087.044-.127a.738.738,0,0,0,.025-.594.941.941,0,0,0-.108-.187c-.073-.107-.142-.209-.117-.3.011-.04.056-.074.107-.114a.387.387,0,0,0,.191-.285.435.435,0,0,0-.158-.323.336.336,0,0,1-.12-.2A.656.656,0,0,1,3.1,6.418a.768.768,0,0,0,.036-.389l-.007-.037a1.777,1.777,0,0,0-.16-.527.906.906,0,0,0-.147-.174c-.1-.1-.138-.135-.051-.289a1.374,1.374,0,0,1,.523-.419c.059-.034.116-.067.168-.1.28-.176.3-.3.217-.586l-.019-.066c-.067-.231-.12-.413.025-.59.036-.044.08-.09.125-.138s.1-.11.152-.169a.237.237,0,0,0,.144.123.4.4,0,0,0,.134.005.365.365,0,0,1,.151.01.935.935,0,0,1,.147.083c.059.035.109.08.167.111s.137.049.189.085a.172.172,0,0,1,.067.014,2.024,2.024,0,0,1,.3.09.291.291,0,0,0,.206.012c.064-.019.152-.055.216-.019s.093.118.155.161a.3.3,0,0,0,.2.057.181.181,0,0,0,.074-.052A.541.541,0,0,1,6.28,3.47c.1-.04.131.009.218.02a.5.5,0,0,0,.125-.005.291.291,0,0,1,.2.022c.064.038.128.144.205.145.183,0,.28-.269.39-.362.036-.031.084-.053.107-.1s.007-.089.038-.121.141-.047.184-.1c.025-.028.047-.066.07-.1a1.454,1.454,0,0,1,.162-.233.334.334,0,0,1,.19-.063,2.03,2.03,0,0,1,.352-.027A1.316,1.316,0,0,1,8.6,2.371a.551.551,0,0,1,.143.195.626.626,0,0,1,.039.271c-.01.025-.054.037-.119.052a.48.48,0,0,0-.142.049.588.588,0,0,0-.121.1c-.06.063-.089.09-.152.082-.024,0-.033-.012-.057-.05a.2.2,0,0,0-.125-.1.134.134,0,0,0-.106.016.255.255,0,0,0-.091.174.419.419,0,0,1-.021.074.216.216,0,0,1-.112.026.311.311,0,0,0-.227.085.356.356,0,0,0-.075.146c-.014.048-.021.069-.066.094-.02.011-.041.021-.061.031-.075.036-.161.077-.183.166a.251.251,0,0,0,.061.208.651.651,0,0,0,.4.2c.2.043.239.028.348-.127a.082.082,0,0,1,.055-.041c.063-.012.175.071.216.1a.481.481,0,0,0,.4.124.258.258,0,0,0,.242-.208.592.592,0,0,1,.03-.078.268.268,0,0,1,.079-.082A.331.331,0,0,0,9.1,3.663a.338.338,0,0,0-.047-.21c-.033-.067-.039-.088-.019-.125a.538.538,0,0,1,.353-.171c.023,0,.049-.005.075-.007a.385.385,0,0,0,.3-.112.326.326,0,0,0,.048-.246.334.334,0,0,1,0-.1c.015-.059.04-.074.2-.069.082,0,.082,0,.094.059s-.006.085-.047.136a.408.408,0,0,0-.091.161.59.59,0,0,0-.013.157.643.643,0,0,1,0,.091l-.007.043a.627.627,0,0,0,0,.289.863.863,0,0,0,.1.193.426.426,0,0,1,.092.255c0,.034-.018.045-.059.075a.355.355,0,0,0-.1.1.217.217,0,0,0,.018.266.187.187,0,0,1,.038.081c.006.057-.011.075-.016.082-.039.044-.157.046-.243.048l-.06,0a.668.668,0,0,0-.45.25L9.2,4.97a.652.652,0,0,0-.14.211.578.578,0,0,1-.091.151c-.044.048-.184.217-.132.364a.231.231,0,0,0,.207.142A.338.338,0,0,0,9.238,5.8a.236.236,0,0,1,.074-.023.233.233,0,0,0,.041.037.637.637,0,0,0,.787-.063c.021-.022.037-.042.051-.061.036-.046.043-.055.1-.057a.182.182,0,0,1,.136.041.174.174,0,0,1,.046.125.212.212,0,0,1-.045.124.562.562,0,0,0-.063.129.368.368,0,0,0,.04.309.68.68,0,0,1,.038.086.613.613,0,0,1,.018.235.4.4,0,0,0,.229.459.77.77,0,0,0,.2.054.329.329,0,0,1,.2.077c.071.083.074.118.072.129s-.02.026-.031.032A1.007,1.007,0,0,1,11,7.5a.289.289,0,0,0-.2.4c.007.029.013.063.019.1a.79.79,0,0,0,.075.259.584.584,0,0,0,.183.169.691.691,0,0,1,.11.086.865.865,0,0,1,.058.074.561.561,0,0,0,.2.192.37.37,0,0,0,.176.02c.053,0,.091,0,.1.012.031.04.022.07-.028.16a.318.318,0,0,0-.055.268.575.575,0,0,0,.341.293l.055.026a.324.324,0,0,1,.144.126c0,.009.01.027.017.046a.486.486,0,0,0,.055.122l-.018.007a.333.333,0,0,1-.264-.027L11.911,9.8c-.161-.118-.278-.2-.52-.041a.7.7,0,0,1-.515.037,2,2,0,0,0-.262-.032c-.155-.005-.312-.006-.467-.007H9.976a1.238,1.238,0,0,0-.373.033.324.324,0,0,0-.182.2.4.4,0,0,1-.068.115,1.037,1.037,0,0,1-.362.206,2.072,2.072,0,0,0-.239.11c-.3.169-.412.4-.313.631.008.019.017.036.026.054a.172.172,0,0,1,.03.1.243.243,0,0,1-.045.093c-.008.013-.017.026-.025.041a.605.605,0,0,0-.37.073.744.744,0,0,1-.192.067.452.452,0,0,1-.071.006A.284.284,0,0,1,7.594,11.409Zm5.26-1.455c-.008-.007-.008-.027,0-.068a.19.19,0,0,0-.138-.236.385.385,0,0,0-.246.051.85.85,0,0,1-.091.038c-.008-.018-.018-.046-.024-.063A.449.449,0,0,0,12.32,9.6a.494.494,0,0,0-.214-.192l-.059-.028c-.1-.048-.221-.1-.253-.2-.01-.03.009-.068.043-.128a.289.289,0,0,0,.015-.347.266.266,0,0,0-.247-.078.261.261,0,0,1-.1-.006.474.474,0,0,1-.129-.138,1.05,1.05,0,0,0-.07-.089.827.827,0,0,0-.138-.11.48.48,0,0,1-.133-.115.687.687,0,0,1-.054-.2c-.007-.041-.014-.079-.022-.111-.035-.139-.016-.148.108-.2a1.172,1.172,0,0,0,.151-.076.216.216,0,0,0,.11-.151.354.354,0,0,0-.111-.266.467.467,0,0,0-.3-.135.641.641,0,0,1-.158-.041c-.136-.063-.138-.136-.13-.3a.77.77,0,0,0-.027-.3.834.834,0,0,0-.047-.107.206.206,0,0,1-.03-.182.406.406,0,0,1,.046-.092.371.371,0,0,0,.071-.215.336.336,0,0,0-.1-.248.351.351,0,0,0-.261-.088.264.264,0,0,0-.227.122.574.574,0,0,1-.041.048.468.468,0,0,1-.562.043c-.011-.008-.012-.01-.014-.013A.123.123,0,0,0,9.321,5.6a.379.379,0,0,0-.152.039.188.188,0,0,1-.1.026C9.031,5.663,9,5.651,9,5.638a.284.284,0,0,1,.1-.192.738.738,0,0,0,.119-.192.494.494,0,0,1,.1-.161l.062-.061a.515.515,0,0,1,.338-.2l.056,0a.49.49,0,0,0,.367-.105.266.266,0,0,0,.059-.211.339.339,0,0,0-.066-.16C10.1,4.3,10.1,4.3,10.118,4.275a.205.205,0,0,1,.056-.051.263.263,0,0,0,.129-.192.563.563,0,0,0-.116-.365.731.731,0,0,1-.078-.154.474.474,0,0,1,0-.213l.007-.045a.826.826,0,0,0,.005-.116.472.472,0,0,1,.007-.112.257.257,0,0,1,.059-.1.3.3,0,0,0,.082-.28c-.038-.173-.138-.19-.256-.194s-.316-.009-.368.2a.452.452,0,0,0,0,.152c.006.062.007.1-.012.126s-.1.042-.177.047c-.031,0-.062,0-.089.008a.711.711,0,0,0-.476.256.276.276,0,0,0,.015.283.187.187,0,0,1,.031.108c-.007.042-.033.065-.084.106a.411.411,0,0,0-.127.142.791.791,0,0,0-.038.1c-.023.07-.027.081-.106.093a.318.318,0,0,1-.271-.093.483.483,0,0,0-.345-.132.255.255,0,0,0-.17.115.427.427,0,0,1-.056.071.487.487,0,0,1-.113-.017.532.532,0,0,1-.3-.131.151.151,0,0,1-.034-.065.319.319,0,0,1,.092-.055l.069-.035A.288.288,0,0,0,7.6,3.54a.2.2,0,0,1,.039-.082c.017-.02.054-.024.113-.028a.343.343,0,0,0,.211-.067A.3.3,0,0,0,8.038,3.2c0-.01.005-.023.009-.036l0,0a.239.239,0,0,0,.181.128.33.33,0,0,0,.3-.134.448.448,0,0,1,.085-.076A.378.378,0,0,1,8.7,3.056.3.3,0,0,0,8.941,2.9a.72.72,0,0,0-.037-.4.739.739,0,0,0-.213-.283.428.428,0,0,1,.225-.133c.2-.071.437-.08.514-.3a.414.414,0,0,1,.125-.229c.085-.078.071-.038.175-.027a.563.563,0,0,0,.471-.144,1.325,1.325,0,0,0,.358-.413c.034-.079.038-.131.122-.148a.7.7,0,0,1,.171,0,1.109,1.109,0,0,0,.112,0A.519.519,0,0,0,11.2.77c.07-.041.149-.174.228-.182.055-.005.126.068.167.1a.928.928,0,0,1,.217.247,1.639,1.639,0,0,0,.333.423c.1.083.239.186.264.321.03.163-.035.183-.137.26-.044.066-.04.195-.1.251-.084.086-.388.187-.394.32,0,.047.069.139.094.176a.772.772,0,0,0,.156.175c.052.042.135.066.182.11s.04.06.033.153a.289.289,0,0,1-.054.177.639.639,0,0,1-.082.089.333.333,0,0,1-.257.01.584.584,0,0,0-.147-.021c-.154.008-.086.185-.192.233s-.408-.03-.226.168c.087.1.165.115.23.229s.084.211.2.263a1.855,1.855,0,0,0,.464.153c.174.031.344.113.518.152,0,.09-.117.139-.154.218a.187.187,0,0,0,.051.223c.077.07.21.049.275.136.08.105.02.348.149.422.053.03.122-.005.18-.03a.64.64,0,0,0,.122.172c.046.049.051.062-.065.178a1.24,1.24,0,0,0-.094.1c-.077.1-.149.2-.221.3-.093.129-.19.263-.3.387l-.039.043c-.093.1-.233.253-.185.417a.283.283,0,0,0,.116.138.288.288,0,0,1,.055.048,2.651,2.651,0,0,1,.29.811l.027.11c.011.045.021.09.032.136a1.393,1.393,0,0,0,.321.724.8.8,0,0,0,.185.128c.118.066.18.1.183.2a1.474,1.474,0,0,1-.02.227l0,.024a.332.332,0,0,0-.271.066c-.137-.1-.27-.117-.364-.037a.252.252,0,0,0-.062.136.6.6,0,0,1-.036.108Z" transform="translate(597 -16362.095)" fill="#003f5a"/>
    </g>
    <g id="Mask_Group_44821" data-name="Mask Group 44821" transform="translate(852 25711)" clip-path="url(#clip-path-2)">
      <g id="Group_48494" data-name="Group 48494" transform="translate(399.202 -20349.908)">
        <path id="Path_96544" data-name="Path 96544" d="M644.835,284.1h-4.749a3.389,3.389,0,0,0-3.386,3.387v4.859a3.394,3.394,0,0,0,1.675,2.926.269.269,0,0,0,.4-.23V287.8a.208.208,0,0,1,.212-.212h0a.208.208,0,0,1,.212.212v17.236a1.572,1.572,0,0,0,1.482,1.592,1.528,1.528,0,0,0,1.574-1.528v-8.752a.208.208,0,0,1,.212-.212h0a.208.208,0,0,1,.212.212v8.687a1.572,1.572,0,0,0,1.482,1.592,1.529,1.529,0,0,0,1.574-1.528V287.8a.208.208,0,0,1,.212-.212h0a.208.208,0,0,1,.212.212v7.224a.266.266,0,0,0,.4.23,3.387,3.387,0,0,0,1.638-2.9V287.5A3.364,3.364,0,0,0,644.835,284.1Z" transform="translate(-636.7 -276.765)" fill="#c20a0c"/>
        <circle id="Ellipse_1392" data-name="Ellipse 1392" cx="3" cy="3" r="3" transform="translate(2.172 5.839) rotate(-76.714)" fill="#c20a0c"/>
      </g>
    </g>
  </g>
</svg>
