<svg xmlns="http://www.w3.org/2000/svg" xmlns:xlink="http://www.w3.org/1999/xlink" width="60" height="60" viewBox="0 0 60 60">
  <defs>
    <clipPath id="clip-path">
      <rect id="Rectangle_6238" data-name="Rectangle 6238" width="60" height="60" transform="translate(-7823 -11547)" fill="#fff" stroke="#707070" stroke-width="1"/>
    </clipPath>
  </defs>
  <g id="Group_47702" data-name="Group 47702" transform="translate(7761 11587)">
    <g id="Mask_Group_44788" data-name="Mask Group 44788" transform="translate(62 -40)" clip-path="url(#clip-path)">
      <g id="Group_47695" data-name="Group 47695" transform="translate(-7822.439 -11537.916)">
        <path id="Subtraction_35" data-name="Subtraction 35" d="M18.279,33.7a2.248,2.248,0,0,1-2.173-1.67V22.013a1.872,1.872,0,1,0-3.745,0V32.028a2.248,2.248,0,0,1-4.42-.576V8.534a.95.95,0,0,0-.454-.141.494.494,0,0,0-.362.148c-.1.1-.509.806-1.02,1.695C4.972,12.2,3.262,15.173,2.719,15.321a.718.718,0,0,1-.186.023,2.971,2.971,0,0,1-1.307-.526C.671,14.487.147,14.175.007,13.648c-.106-.4,1-2.181,2.41-4.44.363-.584.737-1.184,1.111-1.8.891-1.456,1.616-2.7,2.2-3.7A28.52,28.52,0,0,1,7.614.7,2.033,2.033,0,0,1,9.21,0a2.065,2.065,0,0,1,.351.027c.1.048.676.243,1.5.509a10.757,10.757,0,0,0,3.161.554A10.819,10.819,0,0,0,17.4.536C18.152.294,18.786.069,18.89.021h.023A2.181,2.181,0,0,1,19.23,0a2.029,2.029,0,0,1,1.594.7,28.509,28.509,0,0,1,1.885,3.012c.583,1,1.309,2.241,2.2,3.7.38.621.758,1.228,1.122,1.814,1.4,2.249,2.506,4.026,2.4,4.421-.141.525-.665.838-1.219,1.169a2.972,2.972,0,0,1-1.306.526.715.715,0,0,1-.186-.023c-.542-.148-2.252-3.115-3.383-5.079-.514-.892-.92-1.6-1.025-1.7a.493.493,0,0,0-.362-.148.916.916,0,0,0-.426.123V31.451A2.249,2.249,0,0,1,18.279,33.7Z" transform="translate(0 13.718)" fill="#07816c"/>
        <circle id="Ellipse_1324" data-name="Ellipse 1324" cx="6.067" cy="6.067" r="6.067" transform="translate(8.316 0)" fill="#07816c"/>
      </g>
      <g id="Group_47696" data-name="Group 47696" transform="translate(-7792.439 -11537.916)">
        <path id="Subtraction_36" data-name="Subtraction 36" d="M18.279,33.7a2.248,2.248,0,0,1-2.173-1.67V22.013a1.872,1.872,0,1,0-3.745,0V32.028a2.248,2.248,0,0,1-4.42-.576V8.534a.95.95,0,0,0-.454-.141.494.494,0,0,0-.362.148c-.1.1-.509.806-1.02,1.695C4.972,12.2,3.262,15.173,2.719,15.321a.718.718,0,0,1-.186.023,2.971,2.971,0,0,1-1.307-.526C.671,14.487.147,14.175.007,13.648c-.106-.4,1-2.181,2.41-4.44.363-.584.737-1.184,1.111-1.8.891-1.456,1.616-2.7,2.2-3.7A28.52,28.52,0,0,1,7.614.7,2.033,2.033,0,0,1,9.21,0a2.065,2.065,0,0,1,.351.027c.1.048.676.243,1.5.509a10.757,10.757,0,0,0,3.161.554A10.819,10.819,0,0,0,17.4.536C18.152.294,18.786.069,18.89.021h.023A2.181,2.181,0,0,1,19.23,0a2.029,2.029,0,0,1,1.594.7,28.509,28.509,0,0,1,1.885,3.012c.583,1,1.309,2.241,2.2,3.7.38.621.758,1.228,1.122,1.814,1.4,2.249,2.506,4.026,2.4,4.421-.141.525-.665.838-1.219,1.169a2.972,2.972,0,0,1-1.306.526.715.715,0,0,1-.186-.023c-.542-.148-2.252-3.115-3.383-5.079-.514-.892-.92-1.6-1.025-1.7a.493.493,0,0,0-.362-.148.916.916,0,0,0-.426.123V31.451A2.249,2.249,0,0,1,18.279,33.7Z" transform="translate(0 13.718)" fill="#076a59"/>
        <circle id="Ellipse_1325" data-name="Ellipse 1325" cx="6.067" cy="6.067" r="6.067" transform="translate(8.316 0)" fill="#076a59"/>
      </g>
      <g id="Group_47697" data-name="Group 47697" transform="translate(-7810 -11545.253)">
        <path id="Subtraction_37" data-name="Subtraction 37" d="M21.493,39.623a2.644,2.644,0,0,1-2.554-1.963V25.883a2.2,2.2,0,0,0-4.4,0V37.657a2.643,2.643,0,0,1-5.2-.676V10.034A1.091,1.091,0,0,0,8.8,9.869a.58.58,0,0,0-.426.174c-.123.123-.6.948-1.2,1.992C5.847,14.347,3.835,17.84,3.2,18.014a.841.841,0,0,1-.22.028,3.489,3.489,0,0,1-1.534-.619C.789,17.034.173,16.666.008,16.049c-.125-.466,1.183-2.566,2.839-5.226.424-.681.863-1.386,1.3-2.106C5.2,7,6.052,5.543,6.738,4.369A33.65,33.65,0,0,1,8.953.829a2.56,2.56,0,0,1,2.289-.8c.116.055.811.29,1.77.6a12.652,12.652,0,0,0,3.717.651A12.73,12.73,0,0,0,20.453.632C21.367.339,22.093.08,22.211.024h.031A2.622,2.622,0,0,1,22.611,0a2.388,2.388,0,0,1,1.875.828A33.643,33.643,0,0,1,26.7,4.368C27.387,5.543,28.24,7,29.289,8.717c.445.728.889,1.44,1.318,2.13,1.648,2.647,2.949,4.738,2.825,5.2-.165.617-.781.985-1.434,1.374a3.489,3.489,0,0,1-1.534.619.842.842,0,0,1-.22-.028c-.639-.174-2.651-3.668-3.983-5.979-.6-1.045-1.077-1.869-1.2-1.992a.581.581,0,0,0-.426-.173,1.081,1.081,0,0,0-.5.145V36.981A2.645,2.645,0,0,1,21.493,39.623Z" transform="translate(0 16.129)" fill="#025e4e"/>
        <circle id="Ellipse_1326" data-name="Ellipse 1326" cx="7.134" cy="7.134" r="7.134" transform="translate(9.778 0)" fill="#025e4e"/>
      </g>
    </g>
    <g id="_285647_globe_icon" data-name="285647_globe_icon" transform="translate(-7762.013 -12580.396)">
      <g id="Group_47315" data-name="Group 47315" transform="translate(1.013 1029.396)">
        <path id="Path_94540" data-name="Path 94540" d="M26.2,14.2a12,12,0,1,1-12-12A12,12,0,0,1,26.2,14.2Z" transform="translate(-2.2 -2.2)" fill="#3498db"/>
        <path id="Path_94541" data-name="Path 94541" d="M13,1a12.051,12.051,0,0,0-3.579.547c.1.152.123.16.239.342.582.914.662,1.005.818,1.025.093.012.343.03.58.034H11.5l.307-.751.308-.752L13.2,1.1c.109-.034.133-.036.238-.068C13.294,1.029,13.149,1,13,1Zm2.455.273a2.8,2.8,0,0,0,.409.717c.321.481.456.7.512.683a11.674,11.674,0,0,0,1.091-.786,11.909,11.909,0,0,0-1.978-.615S15.455,1.272,15.454,1.273Zm-8.9,1.605A12.115,12.115,0,0,0,3.8,5.27,12,12,0,0,0,1.17,11.043a6.19,6.19,0,0,1,.682-.035c1.032,0,.934-.045,1.3.479.2.292.208.291.511.307.361.019.357.007.171-.58a3.312,3.312,0,0,1-.136-.513c0-.071.2-.267.614-.615.683-.581.625-.483.511-1.059-.024-.119.03-.22.239-.444.249-.266.249-.256.511-.239h.273L5.875,7.9a3.747,3.747,0,0,1,.034-.478c.015-.015.7-.43,1.5-.888S8.9,5.686,8.943,5.645c.064-.063-.089-.281-.989-1.366-.579-.7-1.058-1.3-1.091-1.332-.006-.007-.241-.052-.307-.068Zm12.749.649c-.041-.035-.145.041-.34.239l-.273.307.2.239c.119.141.285.324.375.41.2.19.207.238.034.581a.7.7,0,0,0-.1.342c.021.057.147.069.545.068a2.8,2.8,0,0,0,.579-.034.813.813,0,0,0,.1-.376l.035-.376-.409-.307a1.264,1.264,0,0,1-.545-.683A1.819,1.819,0,0,0,19.306,3.528Zm-1.091.956a2.467,2.467,0,0,0-.477.82.89.89,0,0,0,.273.307,1.283,1.283,0,0,0,.307.2,2.261,2.261,0,0,0,.477-.512c.033-.06-.038-.188-.238-.444A1.724,1.724,0,0,0,18.215,4.484Zm3.512.307c.014.047.068.116.068.137a2.868,2.868,0,0,1-.511.512c-.428.385-.48.446-.716.478a1.179,1.179,0,0,0-.683.342,2.958,2.958,0,0,0-.443.41c-.011.035.086.178.205.307.249.27.268.354.1.649l-.137.2L19.2,7.8c-.233-.008-.543-.018-.683-.034-.317-.038-.308-.029-.034.717.406,1.1.442,1.2.512,1.2a12.837,12.837,0,0,0,.988-.888A11.422,11.422,0,0,1,21.011,7.9a1.186,1.186,0,0,1,.2.068c.164.059.191.04.478-.2L22,7.524l.307.2c.7.482.788.584.852.888.1.469.163.683.205.683a4.242,4.242,0,0,0,.545-.752c.052-.1-.012-.16-.409-.717a4.6,4.6,0,0,1-.443-.717c0-.033.055-.1.1-.137.063-.053.177.047.41.307a12.112,12.112,0,0,0-1.841-2.493Zm1.091,3.928c-.07,0-.309.352-.273.41a.491.491,0,0,0,.17.1.809.809,0,0,0,.205.068c.082,0,.1-.024.068-.171-.053-.249-.122-.411-.17-.41Zm-.921.41-.886.068-.887.1-1.636,1.4-1.6,1.366.035,1.366c.021.75.049,1.4.068,1.435a5.174,5.174,0,0,0,.545.547c.293.257.6.5.682.58.148.137.191.15,1.466.2l1.261.069.579.341c.308.2.565.4.58.41s-.074.094-.205.205l-.238.2.374.445c.207.245.478.591.614.751l.238.273v.956a11.895,11.895,0,0,0,1.739-9.735,1.313,1.313,0,0,0-.2-.137,1.594,1.594,0,0,0-.375.273,1.684,1.684,0,0,1-.375.273c-.034,0-.331-.094-.682-.205l-.648-.2V9.847a.532.532,0,0,0-.2-.512ZM4.579,11.417c-.025.016-.034.109-.034.239,0,.227-.005.248.239.376.3.156.351.183.307.068A2.315,2.315,0,0,0,4.579,11.417Zm-1.261.82a1.293,1.293,0,0,0-.136.649,4.583,4.583,0,0,0,.682.171,1.651,1.651,0,0,0,.648.069c.091-.071.191-.426.136-.479A7.47,7.47,0,0,0,3.318,12.237Zm-1.4.41-.375.205a2.266,2.266,0,0,1-.511.238.177.177,0,0,1-.034,0,12.076,12.076,0,0,0,.136,1.538l.239.137.375-.035h.375l.239.479a2.52,2.52,0,0,0,.307.547,3.662,3.662,0,0,0,.682.034H3.9v.445a1,1,0,0,1-.239.82,1.41,1.41,0,0,0-.239.512c0,.074.287.8.614,1.606l.58,1.435.58.307c.43.209.579.3.579.375,0,.026-.14.767-.2,1.162A11.864,11.864,0,0,0,9.386,24.5c1.253-1.344,2.446-2.648,2.625-2.835l.273-.273.068-.717c.052-.4.1-.776.1-.82a2.836,2.836,0,0,1,.375-.479,3.2,3.2,0,0,0,.34-.444c0-.019-.542-.391-1.193-.82l-1.193-.785h-.409c-.281,0-.426-.017-.477-.069a1.71,1.71,0,0,1-.136-.58,4,4,0,0,0-.1-.581,2.629,2.629,0,0,0-.614-.034,3.562,3.562,0,0,1-.682-.034,1.513,1.513,0,0,1-.1-.547,1.8,1.8,0,0,0-.1-.513,4.6,4.6,0,0,0-.852-.068A2.983,2.983,0,0,1,6.045,14.7L5.6,14.526l-.58.273-.614.239H3.761c-.74,0-.682.081-.784-.581a1.539,1.539,0,0,0-.1-.444,1.651,1.651,0,0,0-.341-.068l-.273-.035.034-.2a4.747,4.747,0,0,1,.034-.513l.034-.307-.2-.137-.239-.1Zm3.409.308a.643.643,0,0,0-.068.238l-.034.171,1.057.411c1.075.387,1.263.408,1.432.238.064-.064.053-.07-.1-.137-.1-.042-.626-.3-1.193-.547A4.21,4.21,0,0,0,5.329,12.955Z" transform="translate(-1 -1)" fill="#2ecc71"/>
      </g>
    </g>
  </g>
</svg>
