<svg xmlns="http://www.w3.org/2000/svg" xmlns:xlink="http://www.w3.org/1999/xlink" width="60" height="60" viewBox="0 0 60 60"><defs><clipPath id="a"><rect width="60" height="60" transform="translate(8744 -1026)" fill="#fff" stroke="#707070" stroke-width="1"/></clipPath></defs><g transform="translate(-8744 1026)" clip-path="url(#a)"><g transform="translate(8744 -1018.857)"><g transform="translate(0 0)"><path d="M325.4,273.162h-5.473a7.813,7.813,0,0,0-7.8,7.785v8.584a4.7,4.7,0,0,0,4.689,4.681h11.695a4.683,4.683,0,0,0,4.665-4.681v-8.584A7.792,7.792,0,0,0,325.4,273.162Z" transform="translate(-279.252 -248.497)" fill="#175a76"/><path d="M322.66,273.161h-2.737a7.813,7.813,0,0,0-7.8,7.785v8.584a4.7,4.7,0,0,0,4.689,4.681h5.847v-21.05Z" transform="translate(-279.252 -248.497)" fill="#7da6b8"/><path d="M352.754,121.737a6.995,6.995,0,1,0,6.995,6.995A7,7,0,0,0,352.754,121.737Z" transform="translate(-309.346 -113.019)" fill="#175a76"/><path d="M352.754,121.737a6.995,6.995,0,0,0,0,13.989Z" transform="translate(-309.346 -113.019)" fill="#7da6b8"/><path d="M13.273,273.162H7.8A7.813,7.813,0,0,0,0,280.947v8.584a4.7,4.7,0,0,0,4.689,4.681H16.384a4.683,4.683,0,0,0,4.665-4.681v-8.584A7.792,7.792,0,0,0,13.273,273.162Z" transform="translate(0 -248.497)" fill="#7da6b8"/><path d="M10.537,273.161H7.8A7.813,7.813,0,0,0,0,280.946v8.584a4.7,4.7,0,0,0,4.689,4.681h5.847S10.537,273.161,10.537,273.161Z" transform="translate(0 -248.496)" fill="#bfdde7"/><path d="M154.234,234.766h-9.525a7.786,7.786,0,0,0-7.777,7.777V258.29a1.555,1.555,0,0,0,1.555,1.555h21.968a1.555,1.555,0,0,0,1.555-1.555V242.543A7.786,7.786,0,0,0,154.234,234.766Z" transform="translate(-122.511 -214.145)" fill="#152d46"/><path d="M149.524,234.766h-4.815a7.786,7.786,0,0,0-7.777,7.777V258.29a1.555,1.555,0,0,0,1.555,1.555h11.037V234.766Z" transform="translate(-122.511 -214.145)" fill="#175a76"/><path d="M176.543,38.96a9.353,9.353,0,1,0,9.353,9.353A9.363,9.363,0,0,0,176.543,38.96Z" transform="translate(-149.583 -38.96)" fill="#152d46"/><path d="M176.543,38.96a9.353,9.353,0,0,0,0,18.706Z" transform="translate(-149.583 -38.96)" fill="#175a76"/><path d="M40.631,121.737a6.995,6.995,0,1,0,6.995,6.995A7,7,0,0,0,40.631,121.737Z" transform="translate(-30.094 -113.019)" fill="#7da6b8"/><path d="M40.631,121.737a6.995,6.995,0,0,0,0,13.989Z" transform="translate(-30.094 -113.019)" fill="#bfdde7"/></g><g transform="translate(41.175 31.857)"><g transform="translate(0.882 0.392)" fill="#fff"><path d="M 8.357975006103516 17.29440116882324 C 4.02507495880127 17.29440116882324 0.5000050067901611 13.52743053436279 0.5000050067901611 8.897200584411621 C 0.5000050067901611 4.266970634460449 4.02507495880127 0.5000005960464478 8.357975006103516 0.5000005960464478 C 12.69087505340576 0.5000005960464478 16.21595573425293 4.266970634460449 16.21595573425293 8.897200584411621 C 16.21595573425293 13.52743053436279 12.69087505340576 17.29440116882324 8.357975006103516 17.29440116882324 Z" stroke="none"/><path d="M 8.357975006103516 1 C 4.300774574279785 1 0.999995231628418 4.542670249938965 0.999995231628418 8.897200584411621 C 0.999995231628418 13.25172996520996 4.300774574279785 16.79440116882324 8.357975006103516 16.79440116882324 C 12.41517448425293 16.79440116882324 15.71594524383545 13.25172996520996 15.71594524383545 8.897200584411621 C 15.71594524383545 4.542670249938965 12.41517448425293 1 8.357975006103516 1 M 8.357975006103516 0 C 12.97395515441895 0 16.71594429016113 3.983410835266113 16.71594429016113 8.897200584411621 C 16.71594429016113 13.81099033355713 12.97395515441895 17.79440116882324 8.357975006103516 17.79440116882324 C 3.741994857788086 17.79440116882324 -5.7220458984375e-06 13.81099033355713 -5.7220458984375e-06 8.897200584411621 C -5.7220458984375e-06 3.983410835266113 3.741994857788086 0 8.357975006103516 0 Z" stroke="none" fill="#707070"/></g><path d="M9.228,0a9.228,9.228,0,1,0,9.228,9.228A9.238,9.238,0,0,0,9.228,0Zm4.037,10H10v3.268a.769.769,0,0,1-1.538,0V10H5.191a.769.769,0,0,1,0-1.538H8.459V5.191a.769.769,0,0,1,1.538,0V8.459h3.268a.769.769,0,0,1,0,1.538Zm0,0" transform="translate(0 0)" fill="#039572"/></g></g></g></svg>