<svg xmlns="http://www.w3.org/2000/svg" width="60" height="60" viewBox="0 0 247.849 220.312">
  <path id="_8665229_door_open_icon" data-name="8665229_door_open_icon" d="M240.964,192.769H220.31V48.836c0-11.725-9.251-21.3-20.654-21.3l-48.193,0V55.075h41.308V220.308h48.193a6.793,6.793,0,0,0,6.885-6.5V200.428C247.849,195.824,244.794,192.769,240.964,192.769ZM120.611.431,37.995,21.838c-6.54,1.615-10.456,7.316-10.456,13.822V192.769H6.885A6.793,6.793,0,0,0,0,199.267v13.382c0,4.6,3.066,7.659,6.885,7.659H137.694V14.254C137.694,5,129.3-1.828,120.611.431ZM99.828,123.922c-5.7,0-10.327-6.183-10.327-13.382,0-7.582,4.626-13.382,10.327-13.382s10.327,5.422,10.327,12.995S105.551,123.922,99.828,123.922Z" transform="translate(0 0.004)" fill="#c20a0c"/>
</svg>
