<svg xmlns="http://www.w3.org/2000/svg" xmlns:xlink="http://www.w3.org/1999/xlink" width="60" height="60" viewBox="0 0 60 60">
  <defs>
    <clipPath id="clip-path">
      <rect id="Rectangle_5953" data-name="Rectangle 5953" width="60" height="60" transform="translate(-12319 -7826)" fill="#fff" stroke="#707070" stroke-width="1"/>
    </clipPath>
    <linearGradient id="linear-gradient" x1="0.57" y1="0.294" x2="0.5" y2="1" gradientUnits="objectBoundingBox">
      <stop offset="0" stop-color="#fe2d2f"/>
      <stop offset="1" stop-color="#c9a369"/>
    </linearGradient>
  </defs>
  <g id="Mask_Group_44635" data-name="Mask Group 44635" transform="translate(12319 7826)" clip-path="url(#clip-path)">
    <g id="Group_46523" data-name="Group 46523" transform="translate(-12316.865 -7819.513)">
      <path id="Path_80421" data-name="Path 80421" d="M-11852.54-7824.466l-5.84,8.973-5.271-2.35-.285,5.271,4.417,5.769-1.283,7.55,7.834-.712,1.069-5.77,1.069-3.632,3.134-4.273-.927-5.058Z" transform="translate(11883.834 7843.46)" fill="url(#linear-gradient)"/>
      <g id="Group_46522" data-name="Group 46522" transform="translate(0 0.049)">
        <path id="Union_21" data-name="Union 21" d="M.544,46.3V38.247H0L.312,24.074,5.369,11.609l7.407-7.834L24.457,0,35.426.855l7.052,3.7,7.193,6.624L53.944,18.8l1.637,10.754v7.193l-.224.672V46.3Zm46.278-8.889V25.57l-2.777-8.9-7.052-5.983-8.4-2.636-8.9,2.067-6.411,5.271L8.717,24.074v13.34Z" transform="translate(0 0)" fill="#f2ddbc"/>
      </g>
      <path id="Path_80403" data-name="Path 80403" d="M263.633,278.682h55.452m-55.452,0v9.241h55.452v-9.241m-55.452,0v-9.243a27.727,27.727,0,0,1,27.727-27.727m27.725,36.97v-9.243a27.727,27.727,0,0,0-27.725-27.727m0,0v9.243m0,0a18.484,18.484,0,0,1,18.484,18.484v9.243H272.876v-9.243A18.484,18.484,0,0,1,291.36,250.955ZM317.911,267.9h-8.067m-36.968,0h-7.7m11.3-8.6-7.789-4.5m14.364-1.305-4.779-8.278m21.405,8.278,4.781-8.278m1.794,14.081,7.789-4.5m-19.164,4.585c.292.474.57.935,1.066,1.783,2.346,3.986,3.636,7.216,3.636,9.292a8.216,8.216,0,0,1-8.215,8.216,8.316,8.316,0,0,1-8.216-8.131c.005.276,0,.1,0-.085a11.464,11.464,0,0,1,1-4.067l5.01,2.89Z" transform="translate(-263.633 -241.712)" fill="none" stroke="#e5c189" stroke-linejoin="round" stroke-width="1.56"/>
    </g>
  </g>
</svg>
