<svg xmlns="http://www.w3.org/2000/svg" xmlns:xlink="http://www.w3.org/1999/xlink" width="40" height="40" viewBox="0 0 40 40">
  <defs>
    <clipPath id="clip-path">
      <rect id="Rectangle_5380" data-name="Rectangle 5380" width="40" height="40" transform="translate(0.237)" fill="#fff" stroke="#707070" stroke-width="1"/>
    </clipPath>
  </defs>
  <g id="Mask_Group_44449" data-name="Mask Group 44449" transform="translate(-0.237)" clip-path="url(#clip-path)">
    <g id="suitcase_2_" data-name="suitcase (2)" transform="translate(8.464)">
      <path id="Path_78773" data-name="Path 78773" d="M32,57v2a1.332,1.332,0,0,0,2.663,0V57Z" transform="translate(-14.689 -20.38)" fill="#666"/>
      <path id="Path_78774" data-name="Path 78774" d="M32.96,59.958a1.332,1.332,0,0,0,1.332-1.332V57H32v2a1.327,1.327,0,0,0,.223.737A1.325,1.325,0,0,0,32.96,59.958Z" transform="translate(-14.689 -20.38)" fill="#707070"/>
      <path id="Path_78775" data-name="Path 78775" d="M10,57v2a1.332,1.332,0,0,0,2.663,0V57Z" transform="translate(-7.337 -20.38)" fill="#666"/>
      <path id="Path_78776" data-name="Path 78776" d="M10.96,59.958a1.332,1.332,0,0,0,1.332-1.332V57H10v2a1.327,1.327,0,0,0,.223.737A1.325,1.325,0,0,0,10.96,59.958Z" transform="translate(-7.337 -20.38)" fill="#707070"/>
      <path id="Path_78777" data-name="Path 78777" d="M10,57v2a1.332,1.332,0,0,0,2.663,0V57Z" transform="translate(-7.337 -20.38)" fill="none"/>
      <path id="Path_78778" data-name="Path 78778" d="M28.638,33.311v7.324a3.329,3.329,0,0,1-3.329,3.329H9.329A3.329,3.329,0,0,1,6,40.635V19.329A3.329,3.329,0,0,1,9.329,16h15.98a3.329,3.329,0,0,1,3.329,3.329v.666" transform="translate(-6 -6.678)" fill="#666"/>
      <path id="Path_78779" data-name="Path 78779" d="M28.638,33.311v7.324a3.329,3.329,0,0,1-3.329,3.329H9.329A3.329,3.329,0,0,1,6,40.635V19.329A3.329,3.329,0,0,1,9.329,16h15.98a3.329,3.329,0,0,1,3.329,3.329v.666" transform="translate(-6 -6.678)" fill="#666"/>
      <path id="Path_78780" data-name="Path 78780" d="M9.329,16A3.329,3.329,0,0,0,6,19.329V40.635a3.324,3.324,0,0,0,.083.719A3.307,3.307,0,0,0,8,41.967h15.98a3.329,3.329,0,0,0,3.329-3.329V17.332a3.324,3.324,0,0,0-.083-.719A3.307,3.307,0,0,0,25.309,16Z" transform="translate(-6 -6.678)" fill="#707070"/>
      <path id="Path_78781" data-name="Path 78781" d="M27.311,38.658v6.658H10V32H27.311Z" transform="translate(-7.337 -12.025)" fill="#175a76"/>
      <path id="Path_78782" data-name="Path 78782" d="M10,43.985H24.648a1.332,1.332,0,0,0,1.332-1.332V32H10Z" transform="translate(-7.337 -12.025)" fill="#7da6b8"/>
      <path id="Path_78783" data-name="Path 78783" d="M23.653,35H13v1.332h1.332v1.332h1.332V36.332h7.99Z" transform="translate(-8.339 -13.028)" fill="#bfdde7"/>
      <path id="Path_78784" data-name="Path 78784" d="M10,23H27.311v3.329H10Z" transform="translate(-7.337 -9.018)" fill="#bfdde7"/>
      <path id="Path_78785" data-name="Path 78785" d="M28,6h2.663v6.658H28Z" transform="translate(-13.352 -3.337)" fill="#b2b2b2"/>
      <path id="Path_78786" data-name="Path 78786" d="M28,6h2v6.658H28Z" transform="translate(-13.352 -3.337)" fill="#d5d5d5"/>
      <path id="Path_78787" data-name="Path 78787" d="M13,6v6.658h2.663V6" transform="translate(-8.339 -3.337)" fill="#b2b2b2"/>
      <rect id="Rectangle_5377" data-name="Rectangle 5377" width="16.647" height="2.635" rx="1.317" transform="translate(2.614)" fill="#175a76"/>
      <path id="Path_78788" data-name="Path 78788" d="M11.332,2a1.316,1.316,0,0,0-1.255,1.759,1.318,1.318,0,0,0,.589.143H24.648A1.316,1.316,0,0,0,25.9,2.143,1.318,1.318,0,0,0,25.314,2Z" transform="translate(-7.337 -2)" fill="#7da6b8"/>
      <path id="Path_78797" data-name="Path 78797" d="M13,6h2v6.658H13Z" transform="translate(-8.339 -3.337)" fill="#d5d5d5"/>
    </g>
  </g>
</svg>
