<svg xmlns="http://www.w3.org/2000/svg" xmlns:xlink="http://www.w3.org/1999/xlink" width="24" height="24" viewBox="0 0 24 24">
  <defs>
    <clipPath id="clip-path">
      <rect id="Rectangle_5293" data-name="Rectangle 5293" width="24" height="24" transform="translate(-0.455)" fill="#57687A" stroke="#57687A" stroke-width="1"/>
    </clipPath>
  </defs>
  <g id="Mask_Group_641" data-name="Mask Group 641" transform="translate(0.455)" clip-path="url(#clip-path)">
    <g id="travel-case" transform="translate(0.152 0.259)">
      <g id="Group_44377" data-name="Group 44377" transform="translate(0 0)">
        <path id="Path_78436" data-name="Path 78436" d="M24.087,12.083h-1.77V10.845a1.262,1.262,0,0,0-1.26-1.26H14.9V6.728A1.22,1.22,0,0,0,13.68,5.509H12.326V1.694A1.7,1.7,0,0,0,10.632,0H6.783A1.7,1.7,0,0,0,5.089,1.694V5.509H3.735A1.22,1.22,0,0,0,2.516,6.728V11.3a.458.458,0,1,0,.916,0V6.728a.307.307,0,0,1,.3-.3H13.68a.307.307,0,0,1,.3.3V17.78H3.432V11.3a.458.458,0,1,0-.916,0v8.551a1.221,1.221,0,0,0,1.219,1.22h.108v.879a1.505,1.505,0,1,0,3.01,0v-.879h3.709v.879a1.507,1.507,0,0,0,1.5,1.506h12.02A1.654,1.654,0,0,0,25.738,21.8V13.736A1.654,1.654,0,0,0,24.087,12.083ZM11.41,5.509h-5.4V1.694A.779.779,0,0,1,6.783.916h3.848a.779.779,0,0,1,.778.778ZM14.9,10.5h6.157a.345.345,0,0,1,.344.344v1.238H14.9ZM5.937,21.947a.589.589,0,1,1-1.178,0v-.879H5.937Zm-2.2-1.8a.307.307,0,0,1-.3-.3V18.7H13.983v1.151a.307.307,0,0,1-.3.3Zm8.921,1.8a.589.589,0,1,1-1.178,0v-.879h1.178Zm10.071.59H13.452a1.5,1.5,0,0,0,.12-.59v-.879h.108a1.221,1.221,0,0,0,1.219-1.22V13h7.828v9.537Zm2.094-.736a.737.737,0,0,1-.735.736h-.443V13h.443a.737.737,0,0,1,.735.736Z" transform="translate(-2.516 0)" fill="#57687A" stroke="#57687A" stroke-width="0.3"/>
      </g>
    </g>
  </g>
</svg>
