<svg xmlns="http://www.w3.org/2000/svg" xmlns:xlink="http://www.w3.org/1999/xlink" width="60" height="60" viewBox="0 0 60 60">
  <defs>
    <clipPath id="clip-path">
      <rect id="Rectangle_6378" data-name="Rectangle 6378" width="60" height="60" transform="translate(506 -19072)" fill="#fff" stroke="#707070" stroke-width="1"/>
    </clipPath>
    <linearGradient id="linear-gradient" x1="0.5" x2="0.5" y2="1" gradientUnits="objectBoundingBox">
      <stop offset="0" stop-color="#041e39"/>
      <stop offset="1" stop-color="#57687a"/>
    </linearGradient>
  </defs>
  <g id="Mask_Group_44805" data-name="Mask Group 44805" transform="translate(-506 19072)" clip-path="url(#clip-path)">
    <g id="Group_48321" data-name="Group 48321" transform="translate(508.857 -19068.572)">
      <g id="Group_48320" data-name="Group 48320" transform="translate(0 0)">
        <path id="Path_96207" data-name="Path 96207" d="M157.808,54.133a1.219,1.219,0,0,1-.852,1.533l-30.838,12.1a1.219,1.219,0,0,1-1.533-.852L112.318,28.748a1.219,1.219,0,0,1,.852-1.533l30.838-12.1a1.219,1.219,0,0,1,1.533.852Z" transform="translate(-112.104 -15.075)" fill="#041220"/>
        <g id="Group_48317" data-name="Group 48317" transform="translate(25.024 6.624)">
          <path id="Path_96208" data-name="Path 96208" d="M127.438,49.012a.88.88,0,0,1-.511-1.193l9.2-28.282a.88.88,0,0,1,1.193-.511l18.4,5.963a.88.88,0,0,1,.511,1.193l-9.2,28.282a.88.88,0,0,1-1.193.511Z" transform="translate(-126.862 -18.962)" fill="#175a76"/>
          <rect id="Rectangle_6373" data-name="Rectangle 6373" width="11.074" height="12.948" transform="translate(11.169 14.101) rotate(-71.886)" fill="#fff"/>
          <path id="Union_146" data-name="Union 146" d="M-525.7,19071.146a2.861,2.861,0,0,1-1.729-1.686,9.716,9.716,0,0,1-6.446.666l2.723-8.18c2.49,1.244,4.343,2.945,4.894,4.5a2.289,2.289,0,0,1,2.094-.242,2.624,2.624,0,0,1,1.7,3.236,2.7,2.7,0,0,1-2.428,1.854A2.282,2.282,0,0,1-525.7,19071.146Z" transform="translate(545.293 -19057.285)" fill="#7da6b8"/>
          <rect id="Rectangle_6374" data-name="Rectangle 6374" width="13.8" height="1.363" transform="translate(15.977 32.158) rotate(-71.88)" fill="#fff"/>
          <rect id="Rectangle_6375" data-name="Rectangle 6375" width="7.496" height="1.363" transform="translate(15.351 25.367) rotate(-71.886)" fill="#fff"/>
          <rect id="Rectangle_6376" data-name="Rectangle 6376" width="9.711" height="1.363" transform="translate(11.902 26.683) rotate(-71.88)" fill="#fff"/>
          <rect id="Rectangle_6377" data-name="Rectangle 6377" width="13.971" height="1.363" transform="translate(8.144 29.683) rotate(-71.88)" fill="#fff"/>
          <path id="Path_96211" data-name="Path 96211" d="M127.938,48.141a.88.88,0,0,1-.511-1.193L136.115,20.2a.969.969,0,0,1,1.193-.681l1.874.681a.88.88,0,0,1,.511,1.193L131,48.141a.969.969,0,0,1-1.193.681Z" transform="translate(-126.511 -18.603)" fill="#7da6b8"/>
        </g>
        <path id="Path_96212" data-name="Path 96212" d="M133.6,22.6Z" transform="translate(-97.097 -9.779)" fill="#fff"/>
        <path id="Path_96213" data-name="Path 96213" d="M133.5,22.6h0Z" transform="translate(-97.167 -9.779)" fill="#fff"/>
        <path id="Path_96214" data-name="Path 96214" d="M156.174,55.733a1.219,1.219,0,0,1-.852,1.533l-29.3,9.541a1.219,1.219,0,0,1-1.533-.852L112.218,27.792a1.219,1.219,0,0,1,.852-1.533l29.3-9.541a1.219,1.219,0,0,1,1.533.852Z" transform="translate(-112.175 -13.949)" fill="url(#linear-gradient)"/>
        <path id="Path_96215" data-name="Path 96215" d="M136.515,27.206c-.341-.17-.511-.341-.852-.511a8.623,8.623,0,0,0-6.815-.852h-.341c-.17,0-.17,0-.341.17a8.766,8.766,0,0,0-4.941,4.6,2.878,2.878,0,0,0-.341.852,9.055,9.055,0,0,0,0,5.622,8.647,8.647,0,0,0,3.237,4.43c.341.17.511.341.852.511a8.623,8.623,0,0,0,6.815.852h.341c.17,0,.17,0,.341-.17a8.766,8.766,0,0,0,4.941-4.6,2.878,2.878,0,0,0,.341-.852,9.054,9.054,0,0,0,0-5.622A9.713,9.713,0,0,0,136.515,27.206Zm2.044,4.259-3.748,1.193a9.5,9.5,0,0,0-1.533-3.237c.852-.511,1.7-1.022,2.385-1.533h.17A7.237,7.237,0,0,1,138.56,31.466Zm-3.748,5.963a12.549,12.549,0,0,0-2.385.681c-.852.341-1.533.511-2.385.852a12.783,12.783,0,0,1-1.363-3.067l5.452-1.7A11,11,0,0,1,134.812,37.429Zm-.852,4.43h-.341c-.681,0-1.874-.681-2.9-2.215.681-.341,1.363-.511,2.044-.852a10.4,10.4,0,0,1,2.215-.511C134.982,40.155,134.641,41.518,133.96,41.859Zm-5.452-6.985a30.087,30.087,0,0,1-.682-3.407,12.55,12.55,0,0,0,2.385-.681c.852-.341,1.533-.511,2.385-.852A12.783,12.783,0,0,1,133.96,33Zm.17-7.837h.341c.681,0,1.874.681,2.9,2.215-.681.341-1.363.511-2.044.852a10.4,10.4,0,0,1-2.215.511Q127.656,27.547,128.678,27.036Zm6.133.341a10.6,10.6,0,0,1-2.044,1.363c-.17-.341-.511-.681-.681-1.022a7.871,7.871,0,0,0-1.193-1.193A7.766,7.766,0,0,1,134.812,27.377Zm-7.837.341a5.04,5.04,0,0,0-.341,1.7v1.193a12.069,12.069,0,0,1-2.385.17A11.756,11.756,0,0,1,126.975,27.718Zm-3.067,3.919h0a16.529,16.529,0,0,0,2.9-.17,26.449,26.449,0,0,0,.682,3.578l-3.748,1.193A7.105,7.105,0,0,1,123.908,31.636Zm0,5.622,3.748-1.193a9.5,9.5,0,0,0,1.533,3.237c-.852.511-1.7,1.022-2.385,1.533h-.17A9.957,9.957,0,0,1,123.908,37.258Zm3.919,4.089a10.6,10.6,0,0,1,2.044-1.363c.17.341.511.681.682,1.022a7.87,7.87,0,0,0,1.193,1.193A6.334,6.334,0,0,1,127.826,41.347Zm7.667-.341a5.04,5.04,0,0,0,.341-1.7V38.11a12.07,12.07,0,0,1,2.385-.17A6.013,6.013,0,0,1,135.493,41.007Zm3.237-3.919h0a16.53,16.53,0,0,0-2.9.17,26.449,26.449,0,0,0-.681-3.578l3.748-1.193A7.106,7.106,0,0,1,138.73,37.088Z" transform="translate(-104.953 -7.741)" fill="#bfdde7"/>
        <g id="Group_48318" data-name="Group 48318" transform="translate(10.498 20.147)">
          <path id="Path_96216" data-name="Path 96216" d="M129.69,43.085h-.341c-.682,0-1.874-.681-2.9-2.215.341-.17.852-.341,1.193-.511-.341-.17-.511-.511-.681-.681a2.422,2.422,0,0,1-1.022.341,12.784,12.784,0,0,1-1.363-3.067l.682-.17c0-.17-.17-.341-.17-.511s-.17-.341-.17-.511l-.682.17a30.088,30.088,0,0,1-.681-3.407c.341,0,.681-.17,1.022-.17,0-.341.17-.681.17-1.022a10.856,10.856,0,0,0-1.193.341q0-2.811,1.022-3.578h.341a1.252,1.252,0,0,1,1.022.341,5.306,5.306,0,0,1,1.193-1.533,11.5,11.5,0,0,0-2.385.341h-.341c-.17,0-.17,0-.341.17a8.766,8.766,0,0,0-4.941,4.6,2.878,2.878,0,0,0-.341.852,9.054,9.054,0,0,0,0,5.622,8.647,8.647,0,0,0,3.237,4.43c.341.17.511.341.852.511a8.623,8.623,0,0,0,6.815.852h.341c.17,0,.17,0,.341-.17a9.179,9.179,0,0,0,2.215-1.193,6.1,6.1,0,0,1-1.874-.681A12.551,12.551,0,0,1,129.69,43.085Zm-6.815-13.971a5.041,5.041,0,0,0-.341,1.7v1.193a12.07,12.07,0,0,1-2.385.17A6.013,6.013,0,0,1,122.875,29.115Zm-3.237,3.919h0a16.53,16.53,0,0,0,2.9-.17,26.448,26.448,0,0,0,.682,3.578l-3.748,1.193A7.061,7.061,0,0,1,119.638,33.033Zm3.067,9.2a7.547,7.547,0,0,1-2.9-3.578l3.748-1.193a9.5,9.5,0,0,0,1.533,3.237,7.146,7.146,0,0,0-2.385,1.533Zm.852.511a10.6,10.6,0,0,1,2.044-1.363c.17.341.511.681.681,1.022a7.871,7.871,0,0,0,1.193,1.193A7.766,7.766,0,0,1,123.556,42.745Z" transform="translate(-118.336 -26.9)" fill="#bfdde7"/>
        </g>
        <g id="Group_48319" data-name="Group 48319" transform="translate(3.621 7.258)">
          <path id="Path_96217" data-name="Path 96217" d="M114.3,24.075l3.407-1.022a3.484,3.484,0,0,1,1.874,0,1.767,1.767,0,0,1,1.022,1.363,1.954,1.954,0,0,1-.17,1.7,3.371,3.371,0,0,1-1.7,1.193l-1.193.341.852,2.385-2.044.681Zm3.067,2.215.511-.17c.341-.17.681-.341.681-.511.17-.17.17-.341,0-.681,0-.17-.17-.341-.341-.511a.761.761,0,0,0-.852,0l-.511.17Z" transform="translate(-114.3 -16.807)" fill="#bfdde7"/>
          <path id="Path_96218" data-name="Path 96218" d="M123.03,27.322,120.644,28V29.2l-2.044.681.341-7.5,2.215-.681,4.6,5.793-2.215.681Zm-.852-1.363-1.533-2.215V26.3Z" transform="translate(-111.274 -17.67)" fill="#bfdde7"/>
          <path id="Path_96219" data-name="Path 96219" d="M123.034,26.028l1.874-.681a2.352,2.352,0,0,0,.511.681,2.161,2.161,0,0,0,1.022.17c.341-.17.511-.17.682-.341a.319.319,0,0,0,0-.511.366.366,0,0,0-.341-.341c-.17-.17-.511-.17-1.193,0a4.3,4.3,0,0,1-2.215-.17,1.536,1.536,0,0,1-1.022-1.022,1.086,1.086,0,0,1,0-1.022,3.564,3.564,0,0,1,.681-1.022,6.13,6.13,0,0,1,1.533-.852,2.953,2.953,0,0,1,2.044-.17,2.279,2.279,0,0,1,1.363,1.193l-1.874.681q-.256-.511-.511-.511h-.681c-.17,0-.341.17-.511.341a.319.319,0,0,0,0,.511.167.167,0,0,0,.17.17h.852a3.906,3.906,0,0,1,2.044,0,1.03,1.03,0,0,1,1.022.511.937.937,0,0,1,.511.852,1.866,1.866,0,0,1,0,1.363,2.746,2.746,0,0,1-.681,1.193,6.129,6.129,0,0,1-1.533.852,4.6,4.6,0,0,1-2.556.17A8.906,8.906,0,0,1,123.034,26.028Z" transform="translate(-108.723 -18.419)" fill="#bfdde7"/>
          <path id="Path_96220" data-name="Path 96220" d="M126.934,24.728l1.874-.681a2.352,2.352,0,0,0,.511.681,2.161,2.161,0,0,0,1.022.17c.341-.17.511-.17.681-.341a.319.319,0,0,0,0-.511.366.366,0,0,0-.341-.341c-.17-.17-.511-.17-1.193,0a4.3,4.3,0,0,1-2.215-.17,1.536,1.536,0,0,1-1.022-1.022,1.086,1.086,0,0,1,0-1.022,3.564,3.564,0,0,1,.681-1.022,6.13,6.13,0,0,1,1.533-.852,2.953,2.953,0,0,1,2.044-.17,2.279,2.279,0,0,1,1.363,1.193L130,21.32q-.256-.511-.511-.511h-.681c-.17,0-.341.17-.511.341s-.17.341,0,.341a.167.167,0,0,0,.17.17h.852a3.906,3.906,0,0,1,2.044,0,1.03,1.03,0,0,1,1.022.511.937.937,0,0,1,.511.852,1.866,1.866,0,0,1,0,1.363,2.746,2.746,0,0,1-.681,1.193,6.129,6.129,0,0,1-1.533.852,4.6,4.6,0,0,1-2.556.17A5.754,5.754,0,0,1,126.934,24.728Z" transform="translate(-105.978 -19.334)" fill="#bfdde7"/>
        </g>
      </g>
    </g>
  </g>
</svg>
