<svg xmlns="http://www.w3.org/2000/svg" xmlns:xlink="http://www.w3.org/1999/xlink" width="40" height="40" viewBox="0 0 40 40"><defs><clipPath id="a"><rect width="40" height="40" fill="#fff" stroke="#707070" stroke-width="1"/></clipPath></defs><g clip-path="url(#a)"><g transform="translate(8.449 0.853)"><path d="M340.215,419.937a1.105,1.105,0,0,0-1.937.272l.713,5.071a18.887,18.887,0,0,0,1.854-.866Z" transform="translate(-320.353 -386.96)" fill="#bfdde7"/><path d="M335.078,395.908a1.021,1.021,0,0,1,1.07.586l-.376-2.675-1.937.272.376,2.675A1.021,1.021,0,0,1,335.078,395.908Z" transform="translate(-316.255 -363.29)" fill="#7da6b8"/><path d="M119.818,299.844a4.977,4.977,0,0,0-2.54-2.405,2.4,2.4,0,0,0-1.994.161,2.264,2.264,0,0,1-3.024-.715,4.042,4.042,0,0,0,3.524,1.819,4.339,4.339,0,0,1,2.249.725,5.343,5.343,0,0,1,.658.532,6.925,6.925,0,0,0,3.53,1.805A4.068,4.068,0,0,1,119.818,299.844Z" transform="translate(-111.856 -273.87)" fill="#fc9460"/><path d="M278.327,297.6a2.4,2.4,0,0,0-1.994-.161,4.977,4.977,0,0,0-2.54,2.405,4.061,4.061,0,0,1-2.39,1.919,6.927,6.927,0,0,0,3.517-1.8,5.343,5.343,0,0,1,.658-.532,4.34,4.34,0,0,1,2.249-.725,4.042,4.042,0,0,0,3.524-1.819,2.264,2.264,0,0,1-3.024.716Z" transform="translate(-258.662 -273.869)" fill="#fc9460"/><path d="M336.6,313.793a4.482,4.482,0,0,0-.556-1.755l-.013,0c-1.384.195-2.441.82-2.126,3.055a7.352,7.352,0,0,0,1.541,3.586.986.986,0,0,0,.718-.58A8.826,8.826,0,0,0,336.6,313.793Z" transform="translate(-316.266 -287.849)" fill="#f3f3f3"/><path d="M1.676,7.355A8.821,8.821,0,0,1,.068,3.334C-.276.891.727.228,2.052.042a2.035,2.035,0,0,1,2.328.981l-.078.01A2.187,2.187,0,0,0,2.41,2.182.845.845,0,0,1,2.789,3.8a.745.745,0,0,1-.255,1.321A6.473,6.473,0,0,0,3.8,7.459c.016.018.034.033.052.049a.985.985,0,0,1-.2.051l-1.069.15a1,1,0,0,1-.141.01A.986.986,0,0,1,1.676,7.355Z" transform="translate(15.465 23.284)" fill="#e2e2e2"/><path d="M259.5,26.61a8.1,8.1,0,0,1-3.027-5.542,67.437,67.437,0,0,0-1.319-7.428,4.77,4.77,0,0,0-1.98-2.942,5.821,5.821,0,0,0-.959.409,4.01,4.01,0,0,0-2.194,3.718V26.734a6.025,6.025,0,0,0,2.733,5.073,7.625,7.625,0,0,1,2.466,2.572,3.635,3.635,0,0,1,1.389-.874,2.4,2.4,0,0,1,1.994.161,2.239,2.239,0,0,0,3.281-1.3,4.329,4.329,0,0,0,.147-1.163,5.981,5.981,0,0,0-2.531-4.6Z" transform="translate(-238.943 -9.869)" fill="#ffc7ab"/><path d="M120.929,21.841a5.933,5.933,0,0,1-2.68-4.976V4.957A4.087,4.087,0,0,1,121.405.914a4.775,4.775,0,0,0-7.478,2.858,67.418,67.418,0,0,0-1.319,7.428,8.1,8.1,0,0,1-3.027,5.542,5.981,5.981,0,0,0-2.531,4.6A4.328,4.328,0,0,0,107.2,22.5a2.239,2.239,0,0,0,3.281,1.3,2.4,2.4,0,0,1,1.994-.161,4.977,4.977,0,0,1,2.54,2.405,4.115,4.115,0,0,0,7.168,0,6.66,6.66,0,0,1,1.236-1.612A7.8,7.8,0,0,0,120.929,21.841Z" transform="translate(-107.05 0)" fill="#ffaa7b"/></g></g></svg>