<svg xmlns="http://www.w3.org/2000/svg" xmlns:xlink="http://www.w3.org/1999/xlink" width="60" height="60" viewBox="0 0 60 60">
  <defs>
    <clipPath id="clip-path">
      <rect id="Rectangle_5383" data-name="Rectangle 5383" width="60" height="60" transform="translate(7971 -1026)" fill="#fff" stroke="#707070" stroke-width="1"/>
    </clipPath>
  </defs>
  <g id="Mask_Group_44457" data-name="Mask Group 44457" transform="translate(-7971 1026)" clip-path="url(#clip-path)">
    <g id="group_3_" data-name="group (3)" transform="translate(7971 -1021.446)">
      <path id="Path_78816" data-name="Path 78816" d="M326.893,273.162H320.8a8.693,8.693,0,0,0-8.68,8.663v9.552a5.234,5.234,0,0,0,5.218,5.208h13.013a5.211,5.211,0,0,0,5.191-5.208v-9.552A8.67,8.67,0,0,0,326.893,273.162Z" transform="translate(-275.546 -245.716)" fill="#175a76"/>
      <path id="Path_78817" data-name="Path 78817" d="M323.848,273.161H320.8a8.693,8.693,0,0,0-8.68,8.663v9.552a5.234,5.234,0,0,0,5.218,5.208h6.507V273.161Z" transform="translate(-275.546 -245.716)" fill="#7da6b8"/>
      <path id="Path_78818" data-name="Path 78818" d="M353.542,121.737a7.783,7.783,0,1,0,7.783,7.783A7.792,7.792,0,0,0,353.542,121.737Z" transform="translate(-305.24 -112.037)" fill="#175a76"/>
      <path id="Path_78819" data-name="Path 78819" d="M353.542,121.737a7.783,7.783,0,0,0,0,15.567Z" transform="translate(-305.24 -112.037)" fill="#7da6b8"/>
      <path id="Path_78820" data-name="Path 78820" d="M14.77,273.162H8.68A8.693,8.693,0,0,0,0,281.825v9.552a5.234,5.234,0,0,0,5.218,5.208H18.232a5.211,5.211,0,0,0,5.191-5.208v-9.552A8.67,8.67,0,0,0,14.77,273.162Z" transform="translate(0 -245.716)" fill="#7da6b8"/>
      <path id="Path_78821" data-name="Path 78821" d="M11.725,273.161H8.68A8.694,8.694,0,0,0,0,281.824v9.552a5.234,5.234,0,0,0,5.218,5.208h6.507S11.725,273.161,11.725,273.161Z" transform="translate(0 -245.716)" fill="#bfdde7"/>
      <path id="Path_78822" data-name="Path 78822" d="M156.185,234.766h-10.6a8.664,8.664,0,0,0-8.654,8.654v17.522a1.731,1.731,0,0,0,1.731,1.731h24.445a1.731,1.731,0,0,0,1.731-1.731V243.42A8.664,8.664,0,0,0,156.185,234.766Z" transform="translate(-120.885 -211.82)" fill="#152d46"/>
      <path id="Path_78823" data-name="Path 78823" d="M150.944,234.766h-5.358a8.664,8.664,0,0,0-8.654,8.654v17.522a1.731,1.731,0,0,0,1.731,1.731h12.281V234.766Z" transform="translate(-120.885 -211.82)" fill="#175a76"/>
      <path id="Path_78824" data-name="Path 78824" d="M177.6,38.96A10.407,10.407,0,1,0,188,49.367,10.419,10.419,0,0,0,177.6,38.96Z" transform="translate(-147.597 -38.96)" fill="#152d46"/>
      <path id="Path_78825" data-name="Path 78825" d="M177.6,38.96a10.407,10.407,0,0,0,0,20.815Z" transform="translate(-147.597 -38.96)" fill="#175a76"/>
      <path id="Path_78826" data-name="Path 78826" d="M41.419,121.737A7.783,7.783,0,1,0,49.2,129.52,7.792,7.792,0,0,0,41.419,121.737Z" transform="translate(-29.694 -112.037)" fill="#7da6b8"/>
      <path id="Path_78827" data-name="Path 78827" d="M41.419,121.737a7.783,7.783,0,0,0,0,15.567Z" transform="translate(-29.694 -112.037)" fill="#bfdde7"/>
    </g>
  </g>
</svg>
