<svg xmlns="http://www.w3.org/2000/svg" xmlns:xlink="http://www.w3.org/1999/xlink" width="60" height="60" viewBox="0 0 60 60">
  <defs>
    <clipPath id="clip-path">
      <rect id="Rectangle_6227" data-name="Rectangle 6227" width="60" height="60" transform="translate(-7823 -11547)" fill="#fff" stroke="#707070" stroke-width="1"/>
    </clipPath>
  </defs>
  <g id="Mask_Group_44786" data-name="Mask Group 44786" transform="translate(7823 11547)" clip-path="url(#clip-path)">
    <g id="Group_47691" data-name="Group 47691" transform="translate(-7822.439 -11537.916)">
      <path id="Subtraction_34" data-name="Subtraction 34" d="M18.279,33.7a2.248,2.248,0,0,1-2.173-1.67V22.013a1.872,1.872,0,1,0-3.745,0V32.028a2.248,2.248,0,0,1-4.42-.576V8.534a.95.95,0,0,0-.454-.141.494.494,0,0,0-.362.148c-.1.1-.509.806-1.02,1.695C4.972,12.2,3.262,15.173,2.719,15.321a.718.718,0,0,1-.186.023,2.971,2.971,0,0,1-1.307-.526C.671,14.487.147,14.175.007,13.648c-.106-.4,1-2.181,2.41-4.44.363-.584.737-1.184,1.111-1.8.891-1.456,1.616-2.7,2.2-3.7A28.52,28.52,0,0,1,7.614.7,2.033,2.033,0,0,1,9.21,0a2.065,2.065,0,0,1,.351.027c.1.048.676.243,1.5.509a10.757,10.757,0,0,0,3.161.554A10.819,10.819,0,0,0,17.4.536C18.152.294,18.786.069,18.89.021h.023A2.181,2.181,0,0,1,19.23,0a2.029,2.029,0,0,1,1.594.7,28.509,28.509,0,0,1,1.885,3.012c.583,1,1.309,2.241,2.2,3.7.38.621.758,1.228,1.122,1.814,1.4,2.249,2.506,4.026,2.4,4.421-.141.525-.665.838-1.219,1.169a2.972,2.972,0,0,1-1.306.526.715.715,0,0,1-.186-.023c-.542-.148-2.252-3.115-3.383-5.079-.514-.892-.92-1.6-1.025-1.7a.493.493,0,0,0-.362-.148.916.916,0,0,0-.426.123V31.451A2.249,2.249,0,0,1,18.279,33.7Z" transform="translate(0 13.718)" fill="#07816c"/>
      <circle id="Ellipse_1323" data-name="Ellipse 1323" cx="6.067" cy="6.067" r="6.067" transform="translate(8.316 0)" fill="#07816c"/>
    </g>
    <g id="Group_47692" data-name="Group 47692" transform="translate(-7792.439 -11537.916)">
      <path id="Subtraction_34-2" data-name="Subtraction 34" d="M18.279,33.7a2.248,2.248,0,0,1-2.173-1.67V22.013a1.872,1.872,0,1,0-3.745,0V32.028a2.248,2.248,0,0,1-4.42-.576V8.534a.95.95,0,0,0-.454-.141.494.494,0,0,0-.362.148c-.1.1-.509.806-1.02,1.695C4.972,12.2,3.262,15.173,2.719,15.321a.718.718,0,0,1-.186.023,2.971,2.971,0,0,1-1.307-.526C.671,14.487.147,14.175.007,13.648c-.106-.4,1-2.181,2.41-4.44.363-.584.737-1.184,1.111-1.8.891-1.456,1.616-2.7,2.2-3.7A28.52,28.52,0,0,1,7.614.7,2.033,2.033,0,0,1,9.21,0a2.065,2.065,0,0,1,.351.027c.1.048.676.243,1.5.509a10.757,10.757,0,0,0,3.161.554A10.819,10.819,0,0,0,17.4.536C18.152.294,18.786.069,18.89.021h.023A2.181,2.181,0,0,1,19.23,0a2.029,2.029,0,0,1,1.594.7,28.509,28.509,0,0,1,1.885,3.012c.583,1,1.309,2.241,2.2,3.7.38.621.758,1.228,1.122,1.814,1.4,2.249,2.506,4.026,2.4,4.421-.141.525-.665.838-1.219,1.169a2.972,2.972,0,0,1-1.306.526.715.715,0,0,1-.186-.023c-.542-.148-2.252-3.115-3.383-5.079-.514-.892-.92-1.6-1.025-1.7a.493.493,0,0,0-.362-.148.916.916,0,0,0-.426.123V31.451A2.249,2.249,0,0,1,18.279,33.7Z" transform="translate(0 13.718)" fill="#076a59"/>
      <circle id="Ellipse_1323-2" data-name="Ellipse 1323" cx="6.067" cy="6.067" r="6.067" transform="translate(8.316 0)" fill="#076a59"/>
    </g>
    <g id="Group_47687" data-name="Group 47687" transform="translate(-7810 -11545.253)">
      <path id="Subtraction_34-3" data-name="Subtraction 34" d="M21.493,39.623a2.644,2.644,0,0,1-2.554-1.963V25.883a2.2,2.2,0,0,0-4.4,0V37.657a2.643,2.643,0,0,1-5.2-.676V10.034A1.091,1.091,0,0,0,8.8,9.869a.58.58,0,0,0-.426.174c-.123.123-.6.948-1.2,1.992C5.847,14.347,3.835,17.84,3.2,18.014a.841.841,0,0,1-.22.028,3.489,3.489,0,0,1-1.534-.619C.789,17.034.173,16.666.008,16.049c-.125-.466,1.183-2.566,2.839-5.226.424-.681.863-1.386,1.3-2.106C5.2,7,6.052,5.543,6.738,4.369A33.65,33.65,0,0,1,8.953.829a2.56,2.56,0,0,1,2.289-.8c.116.055.811.29,1.77.6a12.652,12.652,0,0,0,3.717.651A12.73,12.73,0,0,0,20.453.632C21.367.339,22.093.08,22.211.024h.031A2.622,2.622,0,0,1,22.611,0a2.388,2.388,0,0,1,1.875.828A33.643,33.643,0,0,1,26.7,4.368C27.387,5.543,28.24,7,29.289,8.717c.445.728.889,1.44,1.318,2.13,1.648,2.647,2.949,4.738,2.825,5.2-.165.617-.781.985-1.434,1.374a3.489,3.489,0,0,1-1.534.619.842.842,0,0,1-.22-.028c-.639-.174-2.651-3.668-3.983-5.979-.6-1.045-1.077-1.869-1.2-1.992a.581.581,0,0,0-.426-.173,1.081,1.081,0,0,0-.5.145V36.981A2.645,2.645,0,0,1,21.493,39.623Z" transform="translate(0 16.129)" fill="#025e4e"/>
      <circle id="Ellipse_1323-3" data-name="Ellipse 1323" cx="7.134" cy="7.134" r="7.134" transform="translate(9.778 0)" fill="#025e4e"/>
    </g>
  </g>
</svg>
