<svg xmlns="http://www.w3.org/2000/svg" xmlns:xlink="http://www.w3.org/1999/xlink" width="40" height="40" viewBox="0 0 60 60">
  <defs>
    <clipPath id="clip-path">
      <rect id="Rectangle_5834" data-name="Rectangle 5834" width="60" height="60" transform="translate(7971 -1026)" fill="#fff" stroke="#707070" stroke-width="1"/>
    </clipPath>
    <clipPath id="clip-path-2">
      <rect id="Rectangle_5835" data-name="Rectangle 5835" width="40" height="40" transform="translate(2540 -243)" fill="#fff" stroke="#707070" stroke-width="1"/>
    </clipPath>
    <linearGradient id="linear-gradient" x1="0.505" y1="0.529" x2="0.272" y2="-0.075" gradientUnits="objectBoundingBox">
      <stop offset="0" stop-color="#fff" stop-opacity="0"/>
      <stop offset="1" stop-color="#fff"/>
    </linearGradient>
  </defs>
  <g id="Group_45934" data-name="Group 45934" transform="translate(-470 -437)">
    <g id="Mask_Group_44587" data-name="Mask Group 44587" transform="translate(-7501 1463)" clip-path="url(#clip-path)">
      <g id="group_3_" data-name="group (3)" transform="translate(7971 -1021.446)">
        <path id="Path_79949" data-name="Path 79949" d="M156.185,234.766h-10.6a8.664,8.664,0,0,0-8.654,8.654v17.522a1.731,1.731,0,0,0,1.731,1.731h24.445a1.731,1.731,0,0,0,1.731-1.731V243.42A8.664,8.664,0,0,0,156.185,234.766Z" transform="translate(-120.885 -211.82)" fill="#152d46"/>
        <path id="Path_79950" data-name="Path 79950" d="M150.944,234.766h-5.358a8.664,8.664,0,0,0-8.654,8.654v17.522a1.731,1.731,0,0,0,1.731,1.731h12.281V234.766Z" transform="translate(-120.885 -211.82)" fill="#175a76"/>
        <path id="Path_79951" data-name="Path 79951" d="M177.6,38.96A10.407,10.407,0,1,0,188,49.367,10.419,10.419,0,0,0,177.6,38.96Z" transform="translate(-147.597 -38.96)" fill="#152d46"/>
        <path id="Path_79952" data-name="Path 79952" d="M177.6,38.96a10.407,10.407,0,0,0,0,20.815Z" transform="translate(-147.597 -38.96)" fill="#175a76"/>
      </g>
    </g>
    <g id="Mask_Group_44588" data-name="Mask Group 44588" transform="translate(-2050 700)" clip-path="url(#clip-path-2)">
      <g id="vaccine_3_" data-name="vaccine (3)" transform="translate(2541.681 -241.319)">
        <path id="Path_79953" data-name="Path 79953" d="M.275,345.748a.937.937,0,0,1,0-1.325l10.881-10.881a.937.937,0,1,1,1.325,1.325L1.6,345.748a.937.937,0,0,1-1.325,0Z" transform="translate(0 -309.215)" fill="#707070"/>
        <g id="Group_45901" data-name="Group 45901" transform="translate(6.767 20.71)">
          <path id="Path_79954" data-name="Path 79954" d="M99.053,295.781l-4.789-4.789a1.729,1.729,0,0,1,0-2.445l1.591-1.591,7.234,7.234-1.591,1.591A1.729,1.729,0,0,1,99.053,295.781Z" transform="translate(-93.758 -286.956)" fill="#b2b2b2"/>
          <path id="Path_79955" data-name="Path 79955" d="M125.123,294.187l-1.591,1.591a1.728,1.728,0,0,1-2.444,0l-3.582-3.582v-4.86l.383-.383Z" transform="translate(-115.792 -286.953)" fill="#b2b2b2"/>
        </g>
        <g id="Group_45902" data-name="Group 45902" transform="translate(7.63 5.578)">
          <path id="Path_79956" data-name="Path 79956" d="M114.232,100.465l-8.078-8.078a1.461,1.461,0,0,1,0-2.067l12.6-12.6a1.462,1.462,0,0,1,2.067,0L128.9,85.8a1.462,1.462,0,0,1,0,2.067l-12.6,12.6a1.462,1.462,0,0,1-2.067,0Z" transform="translate(-105.726 -77.295)" fill="#b2b2b2"/>
          <path id="Path_79957" data-name="Path 79957" d="M136.481,184.1,129.4,177.02a.962.962,0,0,1,0-1.361l6.282-6.282a.962.962,0,0,1,1.361,0l7.078,7.078a.962.962,0,0,1,0,1.361l-6.282,6.282A.962.962,0,0,1,136.481,184.1Z" transform="translate(-127.432 -162.47)" fill="#fff"/>
          <path id="Path_79958" data-name="Path 79958" d="M108.072,231.2l-1.918,1.918a1.462,1.462,0,0,0,0,2.067l8.078,8.078a1.461,1.461,0,0,0,2.067,0l1.918-1.918Z" transform="translate(-105.726 -220.093)" fill="#d5d5d5"/>
        </g>
        <path id="Path_79959" data-name="Path 79959" d="M270.591,127.8l-2.93-2.93,5.979-5.979,2.93,2.93Z" transform="translate(-248.344 -110.312)" fill="#707070"/>
        <path id="Path_79960" data-name="Path 79960" d="M146.385,94.246l-13.463,13.463a1.7,1.7,0,0,0,0,2.4L139,116.193a1.462,1.462,0,0,0,2.067,0l12.6-12.6a1.461,1.461,0,0,0,0-2.067Z" transform="translate(-123.831 -88.451)" fill="url(#linear-gradient)"/>
        <g id="Group_45903" data-name="Group 45903" transform="translate(26.404 0)">
          <path id="Path_79961" data-name="Path 79961" d="M368.776,64.548l-2.93-2.93,3.262-3.262,2.93,2.93Z" transform="translate(-365.846 -54.144)" fill="#b2b2b2"/>
          <path id="Path_79962" data-name="Path 79962" d="M408.328,58.552v5.86l3.126-3.126-2.93-2.93Z" transform="translate(-405.262 -54.144)" fill="#b2b2b2"/>
          <path id="Path_79963" data-name="Path 79963" d="M381.345,9.567,373.957,2.18a.927.927,0,0,1,0-1.311l.6-.6a.927.927,0,0,1,1.311,0l7.387,7.387a.927.927,0,0,1,0,1.311l-.6.6A.927.927,0,0,1,381.345,9.567Z" transform="translate(-373.12 -0.001)" fill="#b2b2b2"/>
        </g>
        <path id="Path_79964" data-name="Path 79964" d="M285.038,43.118l-11.28-11.28a1.415,1.415,0,0,1,0-2l.911-.911a1.415,1.415,0,0,1,2,0l11.28,11.28a1.415,1.415,0,0,1,0,2l-.911.911A1.415,1.415,0,0,1,285.038,43.118Z" transform="translate(-253.616 -26.453)" fill="#b2b2b2"/>
      </g>
    </g>
  </g>
</svg>
