<svg xmlns="http://www.w3.org/2000/svg" xmlns:xlink="http://www.w3.org/1999/xlink" width="60" height="60" viewBox="0 0 60 60">
  <defs>
    <clipPath id="clip-path">
      <rect id="Rectangle_6118" data-name="Rectangle 6118" width="60" height="60" transform="translate(7971 -1026)" fill="#d5d5d5" stroke="#707070" stroke-width="1"/>
    </clipPath>
    <clipPath id="clip-path-2">
      <rect id="Rectangle_6447" data-name="Rectangle 6447" width="30" height="30" transform="translate(810 -19789)" fill="#fff" stroke="#707070" stroke-width="1"/>
    </clipPath>
    <linearGradient id="linear-gradient" x1="0.5" x2="0.5" y2="1" gradientUnits="objectBoundingBox">
      <stop offset="0" stop-color="#041e39"/>
      <stop offset="1" stop-color="#57687a"/>
    </linearGradient>
  </defs>
  <g id="Group_48441" data-name="Group 48441" transform="translate(-869 19871)">
    <g id="Group_48428" data-name="Group 48428" transform="translate(781 -19873)">
      <g id="Mask_Group_44721" data-name="Mask Group 44721" transform="translate(-7883 1028)" clip-path="url(#clip-path)">
        <g id="group_3_" data-name="group (3)" transform="translate(7971 -1021.446)">
          <path id="Path_80733" data-name="Path 80733" d="M326.893,273.162H320.8a8.693,8.693,0,0,0-8.68,8.663v9.552a5.234,5.234,0,0,0,5.218,5.208h13.013a5.211,5.211,0,0,0,5.191-5.208v-9.552A8.67,8.67,0,0,0,326.893,273.162Z" transform="translate(-275.546 -245.716)" fill="#d5d5d5"/>
          <path id="Path_80734" data-name="Path 80734" d="M323.848,273.161H320.8a8.693,8.693,0,0,0-8.68,8.663v9.552a5.234,5.234,0,0,0,5.218,5.208h6.507V273.161Z" transform="translate(-275.546 -245.716)" fill="#d5d5d5"/>
          <path id="Path_80735" data-name="Path 80735" d="M353.542,121.737a7.783,7.783,0,1,0,7.783,7.783A7.792,7.792,0,0,0,353.542,121.737Z" transform="translate(-305.24 -112.037)" fill="#d5d5d5"/>
          <path id="Path_80736" data-name="Path 80736" d="M353.542,121.737a7.783,7.783,0,0,0,0,15.567Z" transform="translate(-305.24 -112.037)" fill="#d5d5d5"/>
          <path id="Path_80737" data-name="Path 80737" d="M14.77,273.162H8.68A8.693,8.693,0,0,0,0,281.825v9.552a5.234,5.234,0,0,0,5.218,5.208H18.232a5.211,5.211,0,0,0,5.191-5.208v-9.552A8.67,8.67,0,0,0,14.77,273.162Z" transform="translate(0 -245.716)" fill="#d5d5d5"/>
          <path id="Path_80738" data-name="Path 80738" d="M11.725,273.161H8.68A8.694,8.694,0,0,0,0,281.824v9.552a5.234,5.234,0,0,0,5.218,5.208h6.507S11.725,273.161,11.725,273.161Z" transform="translate(0 -245.716)" fill="#d5d5d5"/>
          <path id="Path_80739" data-name="Path 80739" d="M156.185,234.766h-10.6a8.664,8.664,0,0,0-8.654,8.654v17.522a1.731,1.731,0,0,0,1.731,1.731h24.445a1.731,1.731,0,0,0,1.731-1.731V243.42A8.664,8.664,0,0,0,156.185,234.766Z" transform="translate(-120.885 -211.82)" fill="#d5d5d5"/>
          <path id="Path_80740" data-name="Path 80740" d="M150.944,234.766h-5.358a8.664,8.664,0,0,0-8.654,8.654v17.522a1.731,1.731,0,0,0,1.731,1.731h12.281V234.766Z" transform="translate(-120.885 -211.82)" fill="#d5d5d5"/>
          <path id="Path_80741" data-name="Path 80741" d="M177.6,38.96A10.407,10.407,0,1,0,188,49.367,10.419,10.419,0,0,0,177.6,38.96Z" transform="translate(-147.597 -38.96)" fill="#d5d5d5"/>
          <path id="Path_80742" data-name="Path 80742" d="M177.6,38.96a10.407,10.407,0,0,0,0,20.815Z" transform="translate(-147.597 -38.96)" fill="#d5d5d5"/>
          <path id="Path_80743" data-name="Path 80743" d="M41.419,121.737A7.783,7.783,0,1,0,49.2,129.52,7.792,7.792,0,0,0,41.419,121.737Z" transform="translate(-29.694 -112.037)" fill="#d5d5d5"/>
          <path id="Path_80744" data-name="Path 80744" d="M41.419,121.737a7.783,7.783,0,0,0,0,15.567Z" transform="translate(-29.694 -112.037)" fill="#d5d5d5"/>
        </g>
      </g>
    </g>
    <g id="Mask_Group_44808" data-name="Mask Group 44808" transform="translate(59 -52)" clip-path="url(#clip-path-2)">
      <g id="Group_48426" data-name="Group 48426" transform="translate(811.452 -19787.551)">
        <path id="Path_96268" data-name="Path 96268" d="M256.6,277.1a13.6,13.6,0,1,1,13.6,13.6A13.609,13.609,0,0,1,256.6,277.1Z" transform="translate(-256.6 -263.5)" fill="#7da6b8"/>
        <g id="Group_48353" data-name="Group 48353" transform="translate(0.048 4.258)">
          <path id="Path_96269" data-name="Path 96269" d="M294.9,312.89h0v.048h0v.048h0v.048h.145l.048-.048h.1l.1-.048h.048l.048-.048h0l.048-.048h.048l.048-.048v-.1h0l.048-.048h0a.378.378,0,0,1,.194-.194l.048-.048.194-.194.048-.1.048-.048.048-.048a.508.508,0,0,0,.145-.194h.048l.048-.048h0v-.048h0v-.048h0l.048-.048.048-.048v-.048c0-.048,0-.048.048-.194v-.1h0V311.2h0v-.048h0V311.1H296.5l-.048.048v.1h0l-.048.048h0v-.048h0v.048h0l-.048.048h-.145v.048h0l-.048.048v.1h0l-.048.048h0l-.048.048h-.194l-.048.048-.048.048h0l-.048.048-.048.048h0v.1h0v.048h0v.048h0l-.048.048v.048l-.048.048-.048.048h0l-.048.048-.048.048-.048.048h0l-.048.048v.048h0v.048h0v.048l-.435.339Z" transform="translate(-276.416 -292.326)" fill="url(#linear-gradient)"/>
          <path id="Path_96270" data-name="Path 96270" d="M257.04,295.574h0v-.048h0v-.242h0v-.242h0v-.048h0V294.8h0a1.377,1.377,0,0,0,0,.774Z" transform="translate(-256.847 -283.913)" fill="url(#linear-gradient)"/>
          <path id="Path_96271" data-name="Path 96271" d="M293.39,282.461v-.194h0v-.048h0v-.581a13.33,13.33,0,0,0-.532-3.726h0v.048h0v-.145h0v-.048h0v-.145h0v-.048h0v-.048l-.048-.1h0a17.814,17.814,0,0,0-1.258-2.758h0l-.048-.048h0l-.048-.048h0l.048.048h0v-.1h0v-.048h0l-.048-.048h0l-.048-.048h0l-.048-.048v-.1l-.048-.1h0v-.048l-.048-.048-.048-.048-.048-.048h0l-.048-.048h0a10.743,10.743,0,0,0-1.355-1.6h0v.048h-.048l-.048-.048h-.1v.048h0v.1h-.1c-.048,0-.048,0-.1.048v.048h0v.048h-.048v.048a.15.15,0,0,1-.1.048h.145l.048.048h-.048v.048h0v.048h-.145v.048l.048.048h.048l.048.048h-.048a.178.178,0,0,1-.145-.048h0l-.048-.048h0l-.048-.048h-.1c.048.1.145.145.194.242h0c-.048-.1-.145-.145-.194-.242h-.194l-.048.048h0l-.048-.048h-.145v-.048h-.1v.048h.048v.048h0v.048h-.048v.1h0v-.048h0v-.048h0v-.048h0v-.048h-.387v-.048h-.145v-.048h-.1v.048h0v.048l.048.048v.048h.048v.048h-.048v-.048h-.1v.048h0v.048h0l-.048.048h0l-.048.048a.047.047,0,0,1-.048.048h-.048v.1l-.048.048h0v.048h-.145c-.1,0-.1,0-.145.048h0v.048h.048v.048h0l.048.048h.145a.169.169,0,0,1-.1-.048h-.242v.1h.048l-.048.048H287.1a.047.047,0,0,1-.048.048H287l-.048-.048h-.048v-.048h0l-.048-.048h0l-.048-.048h-.048l.048.048h.1v.048h-.048v.048h0v.048h.242l.048.048v.1h0l.048.048.048.048h0l.048.048h.1a.047.047,0,0,0-.048.048h-.048l.048.048.048.048.048.048h0v.048h0v.048h0v.048h0v.048h-.29c.048,0,.048-.048.1-.048h0v-.048h0v-.145l-.048-.048h0v-.048h-.048c-.1,0-.1,0-.1-.048l-.048-.048h0l-.048-.048h0l-.048-.048h-.048l-.048-.048h0l-.048-.048h-.145V273.7h0l-.1-.1h-.145a.047.047,0,0,1,.048-.048h-.1v.048l.048.048h0v.048l.048.048h0v.048h0v.048h0v.1h.048l.048.048h.048v.048l.048.048h.048v.048h0l.048-.048h0l.048.048h.145v.1l-.1-.048h0a.047.047,0,0,1-.048-.048h-.677l-.048-.048h-.194v.048h.194l.048.048h.048v.048h0l.048.048h0l-.048-.048h0l.048.048h-.1v.048h-.145v.048h-.048v-.048h-.145v.048H285.7l-.048.048-.048.048h-.048v.048H285.5v.1h-.242l.048-.048h.048l.048-.048h0l-.048-.048h0l-.048-.048-.048-.048h-.194v.048h.1l.048.048v.1h0c.048.048.145.048.145.1v.1h-.048l-.048-.048h-.1v.048h0l-.048.048h-.048v.048h0l-.048.048h.048l.1.1h0l-.048.048h-.29l-.048-.048h0v.048h0c.048.048.1.048.145.1h0l-.048-.048h-.145l-.048-.048v-.048h0v-.048l-.048-.048h-.194l-.048-.048h.726l.048-.048v-.145h0l-.048-.048h-.339l-.048-.048-.048-.048-.194-.048h-.194v.048h0l-.048-.048H284.2v-.048h-.1l-.048.048h-.194l.048-.048h.048v-.048h-.242v.1h0v-.048h-.1v.1h-.048v-.048h0v.048l-.1.1h0l.048-.1.048-.048v-.048h0l-.048.048h0v.1h-.048v-.048h-.1l-.048.048h0v-.1h-.1v.1l-.048.048h0v.1h0v-.048h-.048l-.048.048v.048h0v.048h0v-.048h0l-.048.048h0v-.048h-.048l-.048.048h0v.1h0c-.048,0-.048.048-.1.048h-.048v.048h0l.1-.048h.145v.145h0l-.048.048h-.1l-.048.048h0v.1h0v.242h0v.048h-.1l-.048.048-.048.048H282.6v.048h-.048v-.048h0v.048h0v.1h0v.048H282.5v.048h-.1l-.048.048h0v.242h0v.1h0v.048h.048v.048h0v.048h0v.048h0v.1h0l.048.048h.1l.1-.048h.1l.048-.048.048-.048.048-.048h0l.048-.048h0l.048-.048v0h0v.048h0v.1h0v.145h0l.048.048.048.1h0v.048h0v.048h-.048v.048h-.048l-.048.048h0v.048l.048.048h.1c-.048,0-.048,0-.1.048h.145l.048-.048h0v-.048h0l.048-.1h.145v-.1h0V276.8h.145l.048-.048v-.145h0l-.048.048v-.194h0v-.145h.048l.048-.048.048-.048h0v-.1h0v-.048h0l-.048-.048h0l-.048-.048h-.1v-.1h0v-.048h0v-.048h0v-.048h.048l.048-.048v-.048h.194l.048-.048h0l.048-.048h0v-.048l-.048-.048h0c.1-.1.1-.1.145-.1h.242l.048.048v.1h0l-.048-.048h0v.048h0l-.1.1-.048.048h0l-.048.048-.048.048-.048.048h-.048v.145h0l.048.048v.29h0v.048h0c0,.048,0,.048.048.1h.1v.048c.1.048.145,0,.242.048h.581l.048.048h-.048l-.048.048h-.145l-.048-.048h-.1l-.048.048h-.194v.048h-.048l-.048.048h0l-.048.048H284.1l.048.048h0v.048h.1v-.1h.048l.048.048.048.048h0v.1l.048.048v.048h-.1l-.048-.048h0l-.1-.048h-.048l-.1.1h0v.1h0v.145h0v.145l-.048.048h-.048v.1h-.1v-.048h-.1l-.1.048h-.048c-.048.048-.1.048-.145.1h-.242v-.048h0l-.048-.048-.048.048h-.1l-.048.048h0l-.048.048H279.89l.048-.048h0v-.048h-.1v-.048h0l-.048-.048h0l.048-.048.048-.048h0v-.242h0v-.242h-.048l-.048.048-.048.048-.048.048h-.1l-.048.048-.048.048v.194h0v.145h0v.048h.048v.048h0v.048h0l-.048.048h-.194v.048h-.242l-.048.048-.048.048h0l-.048.048v.1l-.048.048v.048h-.048l-.048.048h-.1l-.048.048h-.048l-.048.048h-.1l-.048.048v.1l-.048.1-.048.048-.1.048h0v.048h-.242v.048l.048.048h0v.048h0v.048h-.194l-.048-.048h-.29v.048l.048.048v.048h0l.048.048h.194l.048.048h.145v.048H278v.1h0l.048.048.048.048v.194l-.048.048v.194l-.048.1h0l-.048.048h-.919l-.048.048h-.048l-.048.048h0v.048l.048.048h0v.339h0c0,.048,0,.048-.048.145l-.048.1-.048.048-.048.048h0l-.048.048v.1h0l.048.048h.048v.242h0v.048h.29c.048,0,.048.048.1.1v.048l.048.1.048.048.048.048H278l.048-.048.048-.048h.1V281.3h0v-.048l.048-.048h.048l.048-.048h.048v-.048l-.048-.048-.048-.048v-.1l.1-.1c.1-.1.1-.1.1-.145h0a.169.169,0,0,1,.1-.048c.048,0,.048,0,.1-.048h.048l.1-.048.048-.048.048-.048v-.1h0v-.1h0l.048-.048h.1a.178.178,0,0,1,.145.048h.194l.048-.048h.048l.048-.048.048-.048.048-.048v-.048l.048-.048h.145v.048l.048.048h.1v.048h0l.048.048h-.1l.048.048h.048v-.048h0v.048h0v.048h.048v.048h.048v.048h0l.048.048h.194v.048h.1v.048h0l.048.048h0v.048h.048v.1h0v.048h0v.1h0v.1h0l-.048.048h-.1l-.048.048h-.1l-.048-.048h0l-.048.048h0l-.048.048h0v.048h0l.048.048h.048l.048.048h.048l.048.048h.048v.048l.048.048h.1V281.3h0v-.048h0V281.2l.048-.048h0v-.145h.048v-.145h-.048v-.048h0v-.048h0l.048-.048v-.048h0l.048.048h.1l.1.1h0v-.1l-.048-.1h0l-.048-.048h-.242l-.1-.048-.048-.048h0l.048-.048h0l-.048-.048h-.194l-.048-.048-.048-.048h0l-.048-.048h0l-.048-.048v-.1l-.1-.1-.1-.048-.048-.048h0v-.1h0v-.1h0v-.048h.048l.048-.048h0v.048l.048.048v.048h0v.048h0l.048-.048h0l.048.048h.048v.048l.048.048h0v.1h.145l.048.048h0v.048l.048.048h.242l.048.048h.048c.048.048.1.048.145.1l.048.048.048.048h0v.1h0v.194l.048.048.048.048h0v.048l.048.048h.048l.048.048h0l.048.048v.1l.048.048h.29v.048h0v.048h.145v-.194h.1l.048-.048v-.048h-.1l-.048-.048h0l-.048-.048h-.048l-.048-.048v-.048l-.048-.048h0l-.048-.048h0l-.048-.048v-.048h0l.048.048h.1l.048-.048h0l.048-.048.048-.048h.242l.048.1h.048v.048h-.048v.1h0l-.048.048v.048l.048.048h.048l.048-.048h0v-.048l.048-.048v.145h-.048l-.048.048v.048h.048v-.1h.1v.048h-.048v.048h.1v.1h.048v.048h0v.048h0l-.048.048v.048h0l.1-.048v-.048h.048v.048h-.048l.435.193h.1v.048h0l-.048.048v.048h0l.048-.048V281.4h0v-.1h0l.048.048h.048v.048h0l.048.048h.194l.048-.048h0v-.145h.048l.048.048.048.048h.048l.048.048h.242v-.048l.048-.1.048-.048v-.048H284l.048-.048h.048v.048h0l-.048.048h0v.048h0v.1h0v.048h0l.048.048v.1l.048.048h.048l-.048.048v.194l-.048.1v.387l-.048.048h-.29l-.048-.048h-.29l-.048.048h-.048l-.048.048-.048.048h-.871l-.048-.048h-.145l-.048-.048h-.1v-.048h-.1v-.048l-.048-.048h-.242l-.048.048h0l-.048.048h0v.242l-.048.1-.048.048h-.145l-.1-.048h0a.832.832,0,0,0-.387-.1l-.1-.048-.048-.1-.048-.1-.1-.048h-.1c-.048-.048-.048-.048-.145-.048h-.1a.291.291,0,0,1-.194-.048l-.048-.048h-.048v-.048h-.145l-.048-.048.048-.048.048-.048.048-.048v-.145h0v-.048h0l-.048-.1h0v-.048l.048-.048h0l.048-.048v-.1h-.048l-.048.048h0l-.048-.048V281.3l-.1-.048H279.6l-.048.048-.048.048-.145.048v-.048l-.048-.048h-.1l-.048.048h-.1v0h-.774l-.1.048v.048h-.048l-.048.048h-.048v.048h0l-.048.048h-.145v-.048h-.29l-.048-.1h0l-.048-.048h-.048a.169.169,0,0,0-.048.1l-.048.1h0l-.048.1-.048.048-.048.048-.048.048h-.1l-.048.048-.1.048-.1.1h0l-.048.1-.048.1h-.048l-.048.048v.194h0v.048l-.048.1-.048.1v.048l-.048.048h0l-.048.048h0l-.1.048-.048.048h-.048l-.048.048-.1.048h-.048l-.048.048-.048.048v.1l-.048.1h-.048l-.1.048h0l-.048.048v.1l-.048.048v.048h0v.1l-.048.048-.048.048h-.048l-.048.048v.1l-.048.048h0l-.048.1v.1l-.1.048v.048l-.048.1v.194h0l.048-.048v-.048h0l.048.048h0v.194h0v.145l.048.1v.339l-.048.048-.048.048-.048.1v.145l-.048.1v.048l-.048.048v.1l.048.048h0v.145h0v.242l.048.1h.048v.048l.048.048h.1v.1h0l.048.048.048.048h0l.048.048v.048h0l.048.048.048.048h0l.048.048h.1v.048h0v.048l.048.048v.145h0v.048h.1v.048l.048.048v.145l.048.048h.048l.048.048.048.048h0l.048.048.048.048h0l.048.048h0c.048.048.145.1.194.145l.1.048h0c.048.1.048.1.145.145l.048.048h.048c.145-.048.145-.048.194-.1l.048-.048.1-.048h.339l.048.048.1.048h0l.048.048.1.048.048-.048.048-.048h.194l.048-.048h0l.1-.048h.1l.048-.048.048-.048h.048a.362.362,0,0,1,.242-.048h.29l.048.048.1.1.048.048.048.1.048.1h0l.048.048h.145l.048-.048h.387v.145h.1v.1h0v.194c0,.048,0,.1-.048.1l-.048.048v.1h.048v.145h0l-.048.048v.1l-.048.048h-.1v.048l.048.1h0v.048l.048.1.048.048.048.048.048.048.048.048.048.048.048.048.048.1.048.1h0l.048.048.048.048h0v.048h0l.048.048.048.048h0v.048l.048.1v.048l.048.1.048.048h0v.048h-.048v.339h0v.242l-.193.193v.048l-.048.048h-.048v.048l-.048.048h0l-.048.048v.048l-.048.048v.1h0v.145h0v.1h0v.145h0v.048h0v.048l.048.1h0l.048.048h0v.048l.048.048h0v.048h0l.048.048h0l.048.048.048.048.048.048h0v.048h0v.048h0v.194h0v.194h0v.1h0l.048.048.048.048h0l.1.1v.1c0,.048.048.048.048.1l.048.048h0v.048h0v.1h.1l.1-.048h.677l.145-.048.1-.048.1-.048h0l.048-.048c.048-.048.048-.048.1-.048l.048-.048.048-.048.048-.048.048-.048h0l.048-.048a1.746,1.746,0,0,0,.242-.194l.048-.048v-.048l.048-.1h0l.048-.048.1-.048h0l.048-.048h.145l.048-.048h.048l.1-.048v-.048h0l.048-.048c0-.048,0-.048.048-.1h0v-.242h0v-.048h0v-.048l.048-.048h.1l.048-.048.048-.048h0l.048-.048h.048l.048-.048h.048l.048-.048.1-.048h0l.1-.048.048-.048.048-.048h.048l.048-.048h.048l.048-.048h.048l.048-.048.048-.048.048-.048.048-.1v-.048l.048-.048h0v-.194c0-.048.048-.145.048-.194v-.048h0l.048-.048h0l.048-.1-.048-.048h0c-.1-.048-.048-.048-.048-.1v-.1h0v-.048l.048-.048.048-.048h0v-.048h0l.048-.048h.048v-.048l-.048-.048-.048-.048h-.048V290.2h0c0-.048,0-.048.048-.1l.048-.1.048-.048h0l.048-.048.048-.048h0l.048-.048v-.1l.048-.048v-.048h0l.1-.048h.048l.048-.048.048-.048.048-.048.048-.048.048-.048.048-.048h0l.048-.048h0l.048-.048.048-.048.048-.048.1-.1.048-.048.1-.1h0c-.145,0-.339.048-.484.048.145,0,.339-.048.484-.048.435-.339.435-.339.532-.484a.849.849,0,0,0,.194-.242l.048-.1.048-.1c.1-.145.1-.145.1-.194l.048-.1.048-.048.048-.1v-.145L287,287.3l.1-.194h0l.048-.048v-.145l.048-.048h.048l-.048-.048h0v-.339h-.048l-.048.048h0v.048l-.1.048h-.1l-.048.048h-.1l-.048.048h-.194l-.048.048h0l-.048.048h-.145l-.048.048-.048.048c-.1.048-.1.048-.145.048l-.1-.048-.048-.1v-.048h0l-.048-.048h-.1l.048-.048h.048l.048-.048v-.1h0v-.1l-.048-.048h-.048l-.048-.048h0l-.048-.048-.048-.048a.1.1,0,0,1-.1-.1l-.048-.048h-.145l-.1-.048h-.048l-.048-.048a.291.291,0,0,1-.048-.194.291.291,0,0,0-.048-.194l-.048-.1-.1-.048-.048-.048-.048-.048h0l-.048-.048v-.1l-.048-.145v-.339l-.048-.1-.048-.1-.048-.048-.048-.048-.048-.048h0l-.1-.1v-.145h.048v-.048l-.1-.048-.048-.1-.048-.048-.1-.145-.048-.048-.048-.048-.048-.048-.048-.048-.048-.048-.048-.048v-.1l-.048-.1h0l-.048-.048-.048-.048-.048-.048v-.048l-.048-.1v-.048h0l.048.048h0l.048.048.048.048v.1h0l.048.048.048.048.048.048h.1a.291.291,0,0,1,.048-.194v-.048h0v.194h.145l.048.048.048.048.048.048a2.05,2.05,0,0,1,.242.339l.048.048h0l.048.1h0v.048l.048.048v.048l.1.048h0c.048.048.048.048.145.242l.1.1h0v.339l.048.048.048.048h0l.048.1.048.048.048.048.048.048.048.048.048.048.048.048v.1h0c.048.1.048.1.145.145l.048.048v.1a.178.178,0,0,1,.048.145v.387l.048.1v.1h0v.194h.145l.048-.048.048-.048.048-.048h0l.048-.048.048-.048h.048c.1-.048.1-.048.145-.048h.1l.1-.1h.048c.1-.048.1-.1.145-.145l.048-.048h.145l.048-.048.048-.048h0c.048,0,.048,0,.194-.145h.1v-.145l.048-.048.048-.048c.048,0,.048-.048.1-.048h.048l.048-.048h.194l.048-.048.048-.1v-.048l.048-.048.048-.048.048-.048v-.1l.048-.1.048-.048c.048,0,.048-.048.1-.048v-.242l.048-.145h0v.048h0v-.1c0-.048.048-.1.1-.194l.048-.1v-.1l.048-.048v-.048h-.1l-.048-.048c0-.048-.048-.048-.1-.1v-.1h-.194c-.1-.048-.1-.048-.145-.145-.048-.048-.048-.048-.1-.29v-.048l-.048.048h0l-.048.048-.048.1-.048.048-.048.048-.048.048-.048.048-.048.1h0a.178.178,0,0,0-.145.048h-.048l-.048.048h0v-.1l-.048-.048H287.1v-.194l-.048-.048v-.048h0l-.048-.048a.169.169,0,0,0-.1-.048.047.047,0,0,1-.048.048v.194h0v-.048l-.048-.048-.048-.048v-.145h0v-.048l-.1-.048-.048-.048h0l-.048-.048h0V282.9l-.048-.048-.048-.048h0l-.1-.194h0v-.048h0l.048-.048v-.048h.1l.048-.048h0l.048.048.048.048v.048l.048.048h0v.048l.048.048.048.048.048.048v.048l.048.048h.1c.048,0,.048.048.1.1l.048.048h.145l.048.048h.145l.048-.048.048-.048v-.048h0v.1h0v-.048l.048-.048V282.9h.1v.048l.048.1v.048l.048.048h.1l.048-.048h.048v.048h.436l.048-.048.048-.048c.048,0,.048-.048.1-.048h.145l.048-.048h.1c.048-.048.1-.048.145-.1h.1v.1h.1v.145h0l.048.048h.048v.048l.1.1h.048l.048-.048.048-.048v.048l-.048.1-.048.048h0l-.048.048v.048h.1l.048.048.048.048.048.048.048.048v.048l.048.048h0l.048-.048.048-.048.048-.048h0l.048-.145v-.1h0v-.1h0v.1h0v.1h0v.048h0l.048.1v.242h0v.145h0a.823.823,0,0,1,.048.339v.145l.048.1h0c.048.145.048.29.1.387v.194c0,.145.1.242.1.387v.387c0,.048,0,.048.048.1l.048.048h0l.048-.1v-.1h0l.048-.048h0l.048-.048h0v-.1h0v-.145h0l.048-.048.048-.1h0v-.194a.178.178,0,0,1,.048-.145l.048-.145v-.194h0V284.2h0l.048-.048v-.1h0l.048-.048.048-.1v-.1h0l.048-.1h0v-.145h0c.048-.048.048-.048.048-.145v-.145l.048-.1v-.1l.048-.048h0l.048-.1h0v-.29h0v-.048h0v-.1h0l.048.048h0v-.1h0v-.1h0v-.194h0v.048h0v-.1h0v.29c0,.048.048.048.048.1v.048h.048v.1h0v-.048h0v.29h0v-.048h0v.677h.048v-.145h0v-.1h0v.242h0v.194h0v.242h0v.29h0v.629a.291.291,0,0,1-.048.194v.048h0v-.145h0v.048h0v.1h0v.048c.048-.1.048-.194.1-.29h0v-.1h0v-.048h0v-1.016h0v.048h0v.1h0v.048h0c1.838-.338,1.935-.919,1.983-1.451Z" transform="translate(-266.196 -272.3)" fill="url(#linear-gradient)"/>
          <path id="Path_96272" data-name="Path 96272" d="M264.361,306.822l-.048-.048-.048-.048h0l-.048-.048h0v-.1h0l.048.048h0v.048h0l.048.048h0v-.048h0l-.048-.048h0l-.048-.048h0l-.048-.048v-.048h0c0-.048,0-.048-.048-.1l-.048-.048-.1-.1a108.663,108.663,0,0,0-.1-.1V306.1l-.048-.048h0V306h0v-.1h.048l.048.048h.048l-.048-.048h0v-.048h.194v-.048h0l.048-.048-.048-.048-.048-.048v-.242h0v-.048l-.048-.048-.048-.1v-.1l-.048-.1v-.048a.239.239,0,0,1-.048-.145h0l-.048-.048-.048-.1c0-.048-.048-.1-.048-.145h0V304.5l-.048-.1h0l.048-.048h0c.048-.242.194-.484.1-.726,0,0-.145-.435-.339-.532h-.1l-.048-.048h0V303l-.048-.048h0l-.048-.048a3.961,3.961,0,0,0-.435-.387h-.145a.178.178,0,0,0-.145-.048l-.048-.048c-.048-.048-.1-.1-.145-.048h0l-.048-.048h0v-.1l-.048-.048h0v-.048h0l-.048-.048h0v.048l-.29-.242h-.048l-.048.1v.048l-.048.048h0v-.048h0v-.29l-.145-.048h0l-.048-.048h-.048V301.4l-.048-.1c-.048-.048-.048-.048-.1-.194v-.1l-.048-.1h0l-.048-.048h0v-.048l-.145-.242-.048-.048h0l-.048-.048-.048-.048h0a.178.178,0,0,0-.145-.048h-.145l-.048-.048-.048-.048h-.048v-.1h0v-.048l-.048-.1h0V300c0-.048,0-.048-.1-.194l-.048-.1-.048-.048h0v-.048l-.048-.048h-.1v-.048h0v-.048h0v-.048h0v-.048h0v-.048h0v-.048h0v-.048h.048v-.048h-.242v.048h-.048v-.048h0l-.048-.048h-.048a.047.047,0,0,1-.048-.048h0v-.1h0v-.048h0v-.048h0v-.048h0v-.1h0v.145h0v-.1h0v.048h0v-.048h0v-.1h0v-.048h0V298.6l-.048-.1h-.048l-.048.048v.048h0v.048h0v.1h0v.29h0v.1h0v.1h0v.1h0v-.1l-.048-.1v-.242h0v-.048h-.048v.048h0v-.145h0c.048.145.048.242.1.387h0v.048h.048v-.048h0v-.145h0v-.1h0l.048.048v.484l.048.1v.048h0v.145h0v.048h0v.048l.048.194v.048h0v.048h0v.048h0v.194h0v.048a13.723,13.723,0,0,0,5.855,7.016,7.419,7.419,0,0,1-1.306-.58Zm-5.613-8.032h0l-.048-.048h0V298.6h0v-.048h0V298.5h0v.048h0v.1h0v.048h0c.048,0,.048.048.048.1Z" transform="translate(-257.732 -285.822)" fill="url(#linear-gradient)"/>
          <path id="Path_96273" data-name="Path 96273" d="M308.6,276.7h0l.048.048h0l-.048-.048Z" transform="translate(-283.487 -274.571)" fill="url(#linear-gradient)"/>
          <path id="Path_96274" data-name="Path 96274" d="M257,280.116h0v.1h0v.1h0v.048h0v.048h0v.048h0v-.048h0v.048h0v-.145h0v-.048h0v-.048h0v.1h.048v.048h0v.048h0v.048h0v.1h.048v.048h0v.1h0v.1h0v.1l-.048.1-.048.1v.048h0v.242h0v.048h0v.194h0v.145h.048v-.1a.178.178,0,0,0,.048-.145,1.34,1.34,0,0,0,.048-.435h0v-.145c.048-.387.048-.387.387-.774l.048-.048h.1l.048-.048.048-.1h.1l.048-.048h.048c.048-.048.048-.048.048-.145h0v-.194h0v-.145h0v-.145h0l.048-.048h.048l-.048.048-.048.048-.048.1v.194h0l-.048.048h0v.048h0l.048-.048h0l.048-.048.048-.048h0v-.145h0v.048h0v.048h.048l.048-.048.048-.048h0v-.048l.048-.048h0v-.1h0v.048h.242l.048-.048h0l.048-.048h0l.048-.048V279.1h0v-.048h0V279h0v-.048h0l.048-.048h0l.048-.048h.1l.048-.048h0v.048h0v.1h.242l.048-.048h.145v.1h.194v.048h-.048c-.048,0-.048,0-.1.048h-.1l-.048.048h0v.145h.145l.048-.048h.048l.048-.048.048-.048h0v.048h.242l.048-.048h.194l.048-.048h0l.048-.048h0v-.1h0L260.1,279l-.048.048L260,279.1h-.048v.1h0v-.048H259.9V279.1h0l-.048-.048h0V279h0v-.048h0v-.1l.048-.048h0v-.048h0l.048-.048H260v.1h.194l.048-.048h0v-.048h0c0-.048,0-.048-.048-.048h0c-.339,0-.339,0-.726.242h.048l.048-.048.1-.048h0l.048-.048.1-.048h0l.048-.048h.242l.048-.048.048-.048h.048c.048-.048.1-.048.339.048.1.048.1.048.145.048v.048h.048l.048-.048h.1l.048-.048h.29l.048-.048h0v-.1h0l.048-.048h0v-.048h0v-.145h0v-.1h-.194l.048-.048h.1v-.048h0v0h-.048v-.048h0v-.048h0v-.048h0v-.048h-.048v-.1h0l.048-.048.1-.048h0V277.6h0v-.1h0v-.048h0l.048-.048h0v-.1h0v-.1h0l.048-.048h0v-.048H261.4l-.048.048h-.048l-.1.048-.048.048-.048.048-.048.048h-.194l-.048.048h0v-.1h0v-.048h0v-.1h0l.048-.048.048-.048h0v-.1h.048v-.048h-.1l-.048-.048h.1v-.048h-.1l-.048-.048h-.048l-.048.048-.048.048h-.048l-.048.048h-.048l-.1.048v.048h0l-.048.048-.048.048v.048h0c-.048,0-.1.048-.145.048H260.1c-.1.048-.1.048-.1.242l-.048.1a1.115,1.115,0,0,1-.435.29h-.145l-.048.048h0l-.048.048h0v.048h0v.048l-.048.048h0l-.048.048v.048l-.048.048h-.048l-.1.048h0l-.048.048v.048h0l.048-.048h0l-.048.048h0v-.048h0v-.194h0v-.145h0v-.048h0l.048-.048v-.1h.1l.048-.048v-.1c-.048-.048-.048-.048-.1-.048h-.048l.048-.048h0v-.1h0v-.048h0v-.1h0v-.1h0v-.1h-.145l.048-.048v-.048l.048-.048h0l.048-.048h0v-.048h0v-.048l-.048-.048h.145l.048-.048h.436l.048-.048h.048l.048-.048v-.048h0v-.048h0v.048h0l.048.048h.1l.048-.048H260l.048-.048h.29l-.048.048h0l-.048.048h-.1l-.048.048H260l-.048.048h.1l-.048.048-.048.048h.194l.048-.048h0v.048h0v.048h.145v-.048h.048v-.1h0v-.048h0l.048-.048v-.048h0l-.048.048h0l.048-.048v-.048h0v.048h0l-.048.048h0v.048h0v-.048h0V274.5h0l.048-.048h.29l.048-.048v-.1h.145l.048-.048h.048v-.048h0v-.048h0v.145h0v-.048h.048l.048-.048h0v.1h0l-.048.048h0l-.048.048v.048h.1v.048h1.693v.048h.048v.1h-.048l-.048.048h-.048l-.145.048h0v.1h-.29l-.1.048v.048h0v.048a.047.047,0,0,1,.048.048h.048l.048-.048h0v.048h0v.145h0l-.048.048h0v.048h0v.048h0v.048c0,.048.048.048.1,0h0v.048h0v.048h.048l.048.048h0l.048-.048h0v-.242h0v-.048h0v.1h0v.048h0v.1h0v.048h0v.048h0l.048-.048h0v-.1h0l.048-.048h.048l.048-.048v-.048h.048v-.145h0v-.048h0v-.1h.048l.048-.048h0v.145h0v.048h.1l.048-.048h0v-.048h0l.048-.048h.145v-.1h-.048v-.1h0v-.1h0V274.6h0v-.1h.145v-.048h-.048v-.048h0v-.048h0v-.048h0v-.048h-.1v-.048h0v-.145H263.1l.048-.048h0v-.048H263v.048h0l-.048.048h0v.048H263l-.048.048h-.1l.048-.048h0v-.048h0l.048-.048h0a.488.488,0,0,1-.145-.048h-.194v.048h-.048v.048h0v-.1h.145v-.1h.194c-.145-.048-.339,0-.339.048h-.048l-.048.048-.048.048h-.048l-.048.048h0v.1h0v-.048h-.048l-.048.048v.048h-.1l-.048.048-.048.048h-.048l.048-.048h-.048l-.048.048h0v-.048h.048l.048-.048h.048l.048-.048h-.048l-.048.048h0l-.048.048h-.048v-.048h0l.048-.048.048-.048h0v-.1h0v-.048h0l.048-.048v-.048h0v-.048h.1v-.048h0l.048.048h.048l-.048.048h0l-.048.048h-.048l-.048.048h0l-.048.048-.1.048h-.1l-.048.048h0v.048h-.145v.048h-.29v.1h.048l.048-.048h0l.048-.048h-.048v-.048H261.4l-.048.048h-.048l-.048-.048v-.145h.048v-.048h0v-.048h-.145v.048h-.1l-.048.048h.048c-.145-.048-.145-.048-.194-.1h0v-.048h.048l.048-.048h0v-.1h0v-.1h0v-.145h-.1c-.048,0-.048.048-.1.048h0l.048-.048.048-.048.048-.048.048-.048h0l-.048.048h-.1v-.048h0l.048-.048h.048c0-.048.048-.1.048-.145h0V273.1h0c-2.081,1.161-3.532,3.919-3.968,7.016Zm4.742-3.048h0Zm1.21-2.71Zm-.629.823Zm.629-1.452Zm-1.065.145h0c0,.048-.048.048,0,0Zm-.339.484h0l.048.048h0v-.1l-.048.048Zm-.048-.435Zm-.194-.29Zm-4.21,6.532h0v.048h0v-.048Z" transform="translate(-256.855 -272.713)" fill="url(#linear-gradient)"/>
          <path id="Path_96275" data-name="Path 96275" d="M256.748,291.8h0l-.048-.048V291.7h0v.484h0v-.242h0v-.048h0a.15.15,0,0,0,.048-.1Z" transform="translate(-256.7 -282.313)" fill="url(#linear-gradient)"/>
          <path id="Path_96276" data-name="Path 96276" d="M276.2,274.045h-.194V274h-.1v-.048h0V274h-.145v-.048h-.532a.047.047,0,0,0-.048.048h-.1l.048-.048h-.194V273.9h0v.048h0V273.9H274.6v.1h.1v.048h-.145v.048a.047.047,0,0,1,.048.048h-.1v-.048h-.581v.048h0v-.048a1.716,1.716,0,0,0-.339.048v.048c.048,0,.1,0,.1.048h-.194a.22.22,0,0,0-.242,0h-.1v-.048h-.29v.048h.1v-.048h.1l-.048.048h.339v.048H273.3l-.048.048v.048l-.048.048v.048h.1a.047.047,0,0,0-.048.048v.048h.048l.048-.048H273.1l-.048.048h0l-.048.048h-.048l-.048.048h0v.048h.145l-.048.048h0v.048h0l-.048-.048h0l-.048-.048h-.048l-.532.193h0v.048h0l-.048.048h0l-.048.048h0v.194h.194v.048h.1v.048h0v.048l-.048.048-.048.048h0v.048h-.048l-.048.048-.048.048h-.048v.048h0l-.048.048-.048.048h-.048l-.048.048h0l-.048.048h0v.048h0l-.048.048h0l-.048.048-.048.048h0l-.048.048h0v.048h0l-.048.048v.048h0v.048h0v.048h0v.048h0l-.048.048h0v.048h0v.048h0v.048h.048v.048h0v.1h0v.048h.048l.048-.048h0l.048-.048.048-.048.048-.048.048-.048.048-.048h.048l.048-.048h0l.048-.048v-.048l.048-.048h.1l.1-.048.048-.048c.048-.048.1-.048.1-.1l.048-.048v-.1h.048l.048-.048.048-.048h.1v.048h.242l.1-.048h0l.048-.048h.048l.048-.048c.048-.048.048-.048.1-.048h.048v-.1h0v.048h0v.048h.145a.437.437,0,0,0,.242-.048h.387c.048,0,.1-.048.145-.048h0c-.048,0-.048-.048-.1-.048h-.1v-.048h0v.048h0v.048h.048l.048-.048h.1l.048-.048.048-.048v-.145h0l-.145-.1v-.048h0v-.048h0v.048h0l-.048.048h0v.048h.048l.048.048h.048l.1-.1h-.048l-.048-.048h.1l.048-.048H274.6a.283.283,0,0,0,.194-.048h-.145c.048,0,.048,0,.048-.048v-.1h0v-.048h.145v.145h0l.048-.048v-.048h.048l.048-.048h0v-.048h.048l-.048-.048h0l.048-.048.048-.048h.194l.919-.677Zm-3.871-.145Z" transform="translate(-264.442 -273.126)" fill="url(#linear-gradient)"/>
        </g>
      </g>
    </g>
  </g>
</svg>
