<svg xmlns="http://www.w3.org/2000/svg" xmlns:xlink="http://www.w3.org/1999/xlink" width="60" height="60" viewBox="0 0 60 60">
  <defs>
    <clipPath id="clip-path">
      <rect id="Rectangle_6285" data-name="Rectangle 6285" width="60" height="60" transform="translate(922 -21404)" fill="#fff" stroke="#707070" stroke-width="1"/>
    </clipPath>
    <linearGradient id="linear-gradient" x1="0.5" x2="0.5" y2="1" gradientUnits="objectBoundingBox">
      <stop offset="0" stop-color="#041e39"/>
      <stop offset="1" stop-color="#57687a"/>
    </linearGradient>
    <linearGradient id="linear-gradient-4" x1="0.727" y1="-2.871" x2="0.282" y2="3.712" xlink:href="#linear-gradient"/>
  </defs>
  <g id="Mask_Group_44801" data-name="Mask Group 44801" transform="translate(-922 21404)" clip-path="url(#clip-path)">
    <g id="Illustration" transform="translate(932.196 -21402.584)">
      <g id="Group_47872" data-name="Group 47872" transform="translate(0 0)">
        <g id="Group_47871" data-name="Group 47871">
          <path id="Path_95051" data-name="Path 95051" d="M1158.1,755.8a3.6,3.6,0,0,1,3.6-3.6h30.6a3.17,3.17,0,0,1,3.167,3.008l2.258,44.363a2.338,2.338,0,0,1-2.291,2.457l-35.072.638a2.22,2.22,0,0,1-2.26-2.219Z" transform="translate(-1158.1 -745.482)" fill="#175a76"/>
          <path id="Path_95052" data-name="Path 95052" d="M1209.4,2479.771h0l-3.925-.051a2.42,2.42,0,0,1-2.38-2.411v-5.926a.084.084,0,0,1,.168,0v5.926a2.253,2.253,0,0,0,2.214,2.243l3.925.05a.084.084,0,0,1,0,.168Z" transform="translate(-1202.021 -2423.34)" fill="#91b3fa"/>
          <path id="Path_95053" data-name="Path 95053" d="M1203.184,2355.927a.085.085,0,0,1-.084-.084v-.959a.084.084,0,0,1,.168,0v.959A.082.082,0,0,1,1203.184,2355.927Z" transform="translate(-1202.02 -2309.635)" fill="#91b3fa"/>
          <g id="Group_47870" data-name="Group 47870" transform="translate(2.507 6.349)">
            <path id="Path_95054" data-name="Path 95054" d="M1262.6,737.863a1.047,1.047,0,0,1,1.185-1.044c4.179.566,18.547,2.32,30.427,1.408a.967.967,0,0,1,1.041.912l2.368,44.562a1.114,1.114,0,0,1-1.046,1.171c-5,.3-25.574,1.439-32.915.669a.882.882,0,0,1-.789-.871Z" transform="translate(-1262.599 -736.81)" fill="#7da6b8"/>
            <path id="Path_95055" data-name="Path 95055" d="M1283.1,786.13a1.006,1.006,0,0,1,1.142-1c4.021.545,17.849,2.231,29.283,1.355a.932.932,0,0,1,1,.878l2.279,42.883a1.069,1.069,0,0,1-1.005,1.125c-4.808.286-24.612,1.384-31.675.645a.849.849,0,0,1-.758-.84Z" transform="translate(-1282.607 -783.959)" fill="#bfdde7"/>
            <path id="Path_95056" data-name="Path 95056" d="M1438.272,938.636l.427,9.193a.584.584,0,0,0,.566.557c1.7.048,7.008.178,10,.022a.655.655,0,0,0,.619-.631,59.012,59.012,0,0,0-.211-8.84.737.737,0,0,0-.7-.6l-10.064-.35A.623.623,0,0,0,1438.272,938.636Z" transform="translate(-1434.057 -933.159)" fill="#fff" opacity="0.78"/>
            <g id="Group_47859" data-name="Group 47859" transform="translate(18.082 5.455)" opacity="0.6">
              <path id="Path_95057" data-name="Path 95057" d="M2027.627,965.019a.327.327,0,0,0,.35-.31.355.355,0,0,0-.367-.314l-11.036-.2a.234.234,0,0,0-.24.331l.053.149a.541.541,0,0,0,.477.338h10.762Z" transform="translate(-2016.316 -964.199)" fill="#fff"/>
            </g>
            <g id="Group_47860" data-name="Group 47860" transform="translate(18.082 7.17)" opacity="0.6">
              <path id="Path_95058" data-name="Path 95058" d="M2016.575,1035.7a.234.234,0,0,0-.24.331l.053.149a.541.541,0,0,0,.477.338h10.762a.327.327,0,0,0,.35-.309.355.355,0,0,0-.367-.314Z" transform="translate(-2016.316 -1035.699)" fill="#fff"/>
            </g>
            <g id="Group_47861" data-name="Group 47861" transform="translate(18.082 8.91)" opacity="0.6">
              <path id="Path_95059" data-name="Path 95059" d="M2016.575,1108.2a.234.234,0,0,0-.24.331l.053.149a.541.541,0,0,0,.477.338h10.762a.327.327,0,0,0,.35-.31.355.355,0,0,0-.367-.314Z" transform="translate(-2016.316 -1108.199)" fill="#fff"/>
            </g>
            <g id="Group_47862" data-name="Group 47862" transform="translate(4.371 17.29)" opacity="0.6">
              <path id="Path_95060" data-name="Path 95060" d="M1470.906,1458.324a.312.312,0,0,0,.338-.309.371.371,0,0,0-.379-.312l-25.854-.2c-.2,0-.259.122-.134.278l.211.266a.845.845,0,0,0,.583.281Z" transform="translate(-1444.812 -1457.499)" fill="#fff"/>
            </g>
            <g id="Group_47863" data-name="Group 47863" transform="translate(4.371 19.49)" opacity="0.6">
              <path id="Path_95061" data-name="Path 95061" d="M1445.011,1549.2c-.2,0-.259.122-.134.278l.211.266a.845.845,0,0,0,.583.281h25.238a.312.312,0,0,0,.338-.309.37.37,0,0,0-.379-.312Z" transform="translate(-1444.812 -1549.198)" fill="#fff"/>
            </g>
            <g id="Group_47869" data-name="Group 47869" transform="translate(4.616 23.635)">
              <path id="Path_95062" data-name="Path 95062" d="M1465.983,1894.588h0l-2.183-.022a.589.589,0,0,1-.6-.5l-.192-1.83a.4.4,0,0,1,.094-.3.482.482,0,0,1,.333-.166h0c.185-.012.444-.034.717-.058.578-.048,1.3-.11,1.7-.115a.611.611,0,0,1,.612.427,9.217,9.217,0,0,1,.082,2.063A.535.535,0,0,1,1465.983,1894.588Zm-2.538-2.646a.3.3,0,0,0-.216.106.225.225,0,0,0-.055.173l.192,1.83a.42.42,0,0,0,.434.348l2.183.022h0a.372.372,0,0,0,.391-.333,9.071,9.071,0,0,0-.077-2.015.455.455,0,0,0-.446-.3c-.4,0-1.113.065-1.687.115l-.724.06Z" transform="translate(-1462.809 -1887.53)" fill="#fff"/>
              <path id="Path_95063" data-name="Path 95063" d="M1479.738,1908.038c.458-.031,1.454-.132,1.927-.139a.421.421,0,0,1,.422.293,7.374,7.374,0,0,1,.062,1.629.362.362,0,0,1-.384.331l-1.744-.017a.4.4,0,0,1-.413-.338l-.154-1.463A.287.287,0,0,1,1479.738,1908.038Z" transform="translate(-1478.867 -1903.439)" fill="#fff" opacity="0.6"/>
              <g id="Group_47864" data-name="Group 47864" transform="translate(5.072 5.16)" opacity="0.6">
                <path id="Path_95064" data-name="Path 95064" d="M1666.456,1937.781a.539.539,0,0,0,.528.4l20.19-.173a.41.41,0,0,0,0-.82l-20.19-.091A.544.544,0,0,0,1666.456,1937.781Z" transform="translate(-1666.438 -1937.1)" fill="#fff"/>
              </g>
              <path id="Path_95065" data-name="Path 95065" d="M1465.983,2089.589h0l-2.183-.022a.589.589,0,0,1-.6-.5l-.192-1.831a.4.4,0,0,1,.094-.3.481.481,0,0,1,.333-.166h0c.185-.012.444-.034.717-.058.578-.048,1.3-.11,1.7-.115h.01a.607.607,0,0,1,.6.427,9.217,9.217,0,0,1,.082,2.063A.536.536,0,0,1,1465.983,2089.589Zm-2.538-2.649a.3.3,0,0,0-.216.106.225.225,0,0,0-.055.173l.192,1.831a.42.42,0,0,0,.434.348l2.183.021h0a.372.372,0,0,0,.391-.333,9.072,9.072,0,0,0-.077-2.015.451.451,0,0,0-.446-.3c-.4,0-1.113.065-1.687.115-.281.026-.54.048-.724.06Z" transform="translate(-1462.809 -2077.853)" fill="#fff"/>
              <path id="Path_95066" data-name="Path 95066" d="M1479.738,2103.038c.458-.031,1.454-.132,1.927-.139a.42.42,0,0,1,.422.293,7.373,7.373,0,0,1,.062,1.629.363.363,0,0,1-.384.331l-1.744-.017a.4.4,0,0,1-.413-.338l-.154-1.464A.287.287,0,0,1,1479.738,2103.038Z" transform="translate(-1478.867 -2093.76)" fill="#fff" opacity="0.6"/>
              <g id="Group_47865" data-name="Group 47865" transform="translate(5.072 9.838)" opacity="0.6">
                <path id="Path_95067" data-name="Path 95067" d="M1666.456,2132.781a.539.539,0,0,0,.528.4l20.19-.173a.41.41,0,0,0,0-.82l-20.19-.091A.543.543,0,0,0,1666.456,2132.781Z" transform="translate(-1666.438 -2132.1)" fill="#fff"/>
              </g>
              <path id="Path_95068" data-name="Path 95068" d="M1465.983,2284.49h0l-2.183-.022a.589.589,0,0,1-.6-.5l-.192-1.83a.4.4,0,0,1,.094-.3.482.482,0,0,1,.333-.166h0c.185-.012.444-.033.717-.057.578-.048,1.3-.11,1.7-.115h.01a.607.607,0,0,1,.6.427,9.217,9.217,0,0,1,.082,2.063A.535.535,0,0,1,1465.983,2284.49Zm-2.538-2.646a.3.3,0,0,0-.216.105.228.228,0,0,0-.055.175l.192,1.83a.42.42,0,0,0,.434.348l2.183.022h0a.372.372,0,0,0,.391-.333,9.071,9.071,0,0,0-.077-2.015.451.451,0,0,0-.446-.3c-.4,0-1.113.065-1.687.115l-.724.058Z" transform="translate(-1462.809 -2268.078)" fill="#fff"/>
              <path id="Path_95069" data-name="Path 95069" d="M1479.738,2297.938c.458-.031,1.454-.132,1.927-.139a.42.42,0,0,1,.422.292,7.376,7.376,0,0,1,.062,1.629.363.363,0,0,1-.384.331l-1.744-.017a.4.4,0,0,1-.413-.338l-.154-1.463A.287.287,0,0,1,1479.738,2297.938Z" transform="translate(-1478.867 -2283.985)" fill="#fff" opacity="0.6"/>
              <g id="Group_47866" data-name="Group 47866" transform="translate(5.072 14.514)" opacity="0.6">
                <path id="Path_95070" data-name="Path 95070" d="M1666.456,2327.681a.54.54,0,0,0,.528.4l20.19-.173a.41.41,0,0,0,0-.821l-20.19-.091A.544.544,0,0,0,1666.456,2327.681Z" transform="translate(-1666.438 -2327)" fill="#fff"/>
              </g>
              <path id="Path_95071" data-name="Path 95071" d="M1465.983,2479.389h0l-2.183-.021a.589.589,0,0,1-.6-.5l-.192-1.83a.4.4,0,0,1,.094-.3.482.482,0,0,1,.333-.166h0c.185-.012.444-.033.717-.058.578-.048,1.3-.11,1.7-.115h.01a.607.607,0,0,1,.6.427,9.217,9.217,0,0,1,.082,2.063A.535.535,0,0,1,1465.983,2479.389Zm-2.538-2.646a.3.3,0,0,0-.216.105.225.225,0,0,0-.055.173l.192,1.83a.42.42,0,0,0,.434.348l2.183.022h0a.372.372,0,0,0,.391-.333,9.074,9.074,0,0,0-.077-2.015.451.451,0,0,0-.446-.3c-.4,0-1.113.065-1.687.115-.281.024-.54.048-.724.06Z" transform="translate(-1462.809 -2458.302)" fill="#fff"/>
              <path id="Path_95072" data-name="Path 95072" d="M1479.738,2492.938c.458-.031,1.454-.132,1.927-.139a.421.421,0,0,1,.422.293,7.374,7.374,0,0,1,.062,1.629.362.362,0,0,1-.384.331l-1.744-.017a.4.4,0,0,1-.413-.338l-.154-1.463A.285.285,0,0,1,1479.738,2492.938Z" transform="translate(-1478.867 -2474.307)" fill="#fff" opacity="0.6"/>
              <g id="Group_47867" data-name="Group 47867" transform="translate(5.072 19.192)" opacity="0.6">
                <path id="Path_95073" data-name="Path 95073" d="M1666.456,2522.681h0a.539.539,0,0,0,.528.4l20.19-.173a.41.41,0,0,0,0-.821l-20.19-.091A.543.543,0,0,0,1666.456,2522.681Z" transform="translate(-1666.438 -2522)" fill="#fff"/>
              </g>
              <path id="Path_95074" data-name="Path 95074" d="M1457.983,1724.989h0l-2.183-.022a.589.589,0,0,1-.6-.5l-.192-1.83a.4.4,0,0,1,.094-.3.482.482,0,0,1,.333-.166h0c.185-.012.444-.034.717-.058.578-.048,1.3-.11,1.7-.115h.01a.607.607,0,0,1,.6.427,9.21,9.21,0,0,1,.082,2.063A.536.536,0,0,1,1457.983,1724.989Zm-2.538-2.649a.3.3,0,0,0-.216.106.228.228,0,0,0-.055.175l.192,1.83a.42.42,0,0,0,.434.348l2.183.021h0a.372.372,0,0,0,.391-.333,9.08,9.08,0,0,0-.077-2.015.451.451,0,0,0-.446-.3c-.4,0-1.113.065-1.687.115-.281.024-.54.046-.724.057Z" transform="translate(-1455.001 -1722)" fill="#fff"/>
              <path id="Path_95075" data-name="Path 95075" d="M1471.651,1738.438c.458-.031,1.454-.132,1.927-.139a.42.42,0,0,1,.422.293,7.38,7.38,0,0,1,.062,1.629.363.363,0,0,1-.384.331l-1.744-.017a.4.4,0,0,1-.413-.338l-.154-1.463A.29.29,0,0,1,1471.651,1738.438Z" transform="translate(-1470.975 -1737.907)" fill="#fff" opacity="0.6"/>
              <g id="Group_47868" data-name="Group 47868" transform="translate(4.881 1.092)" opacity="0.6">
                <path id="Path_95076" data-name="Path 95076" d="M1658.456,1768.181h0a.54.54,0,0,0,.528.4l20.19-.173a.41.41,0,0,0,0-.82l-20.19-.091A.544.544,0,0,0,1658.456,1768.181Z" transform="translate(-1658.438 -1767.5)" fill="#fff"/>
              </g>
            </g>
          </g>
          <path id="Union_145" data-name="Union 145" d="M0,6.778v-1.6A.977.977,0,0,1,1.01,4.2L4.7,4.329,4.448,1.534A1.352,1.352,0,0,1,5.407.116,3.105,3.105,0,0,1,8.149.67c1.567,1.091.9,2.883.41,3.791l3.488.12a.95.95,0,0,1,.917.893l.091,1.538Zm5.755-4.4a.866.866,0,1,0,.866-.866A.867.867,0,0,0,5.755,2.374Z" transform="translate(12.648 0)" fill="#102842"/>
          <path id="Path_95079" data-name="Path 95079" d="M1888.5,494.561a.086.086,0,0,1-.084-.077l-.046-.506a.084.084,0,0,1,.077-.091.082.082,0,0,1,.091.077l.046.506a.084.084,0,0,1-.077.091Zm-.091-1a.085.085,0,0,1-.084-.077l-.036-.384a1.289,1.289,0,0,1,.914-1.351,2.612,2.612,0,0,1,1.269-.053.083.083,0,1,1-.034.163,2.454,2.454,0,0,0-1.187.048,1.122,1.122,0,0,0-.794,1.176l.036.384a.083.083,0,0,1-.077.091A.009.009,0,0,1,1888.406,493.565Z" transform="translate(-1870.763 -491.179)" fill="url(#linear-gradient)"/>
          <path id="Path_95080" data-name="Path 95080" d="M1834.159,665.568h-.475a.084.084,0,0,1,0-.168h.475a.084.084,0,0,1,0,.168Z" transform="translate(-1817.394 -660.764)" fill="url(#linear-gradient)"/>
          <path id="Path_95081" data-name="Path 95081" d="M1706.784,667.039a.085.085,0,0,1-.084-.084v-.648a.908.908,0,0,1,.907-.907h1.746a.084.084,0,0,1,0,.168h-1.746a.739.739,0,0,0-.739.739v.648A.083.083,0,0,1,1706.784,667.039Z" transform="translate(-1693.539 -660.764)" fill="url(#linear-gradient)"/>
          <path id="Path_95082" data-name="Path 95082" d="M1496.006,731.291a1.041,1.041,0,0,1,1.039-.991h19.3a1.426,1.426,0,0,1,1.406,1.183l.017.094a1.225,1.225,0,0,1-1.207,1.435h-19.8a.8.8,0,0,1-.8-.835Z" transform="translate(-1487.856 -724.107)" fill="url(#linear-gradient-4)"/>
        </g>
      </g>
    </g>
  </g>
</svg>
