<svg xmlns="http://www.w3.org/2000/svg" width="21" height="23" viewBox="0 0 21 23">
  <g id="Group_47684" data-name="Group 47684" transform="translate(-1689 9292)">
    <g id="Rectangle_6190" data-name="Rectangle 6190" transform="translate(1689 -9292)" fill="none" stroke="#fff" stroke-width="1">
      <rect width="13" height="23" rx="3" stroke="none"/>
      <rect x="0.5" y="0.5" width="12" height="22" rx="2.5" fill="none"/>
    </g>
    <g id="Rectangle_6191" data-name="Rectangle 6191" transform="translate(1689 -9292)" fill="none" stroke="#fff" stroke-width="1">
      <rect width="13" height="10" rx="3" stroke="none"/>
      <rect x="0.5" y="0.5" width="12" height="9" rx="2.5" fill="none"/>
    </g>
    <g id="Rectangle_6192" data-name="Rectangle 6192" transform="translate(1701 -9287.637)" fill="none" stroke="#fff" stroke-width="1">
      <path d="M0,0H6A3,3,0,0,1,9,3V9a3,3,0,0,1-3,3H0a0,0,0,0,1,0,0V0A0,0,0,0,1,0,0Z" stroke="none"/>
      <path d="M1,.5H6A2.5,2.5,0,0,1,8.5,3V9A2.5,2.5,0,0,1,6,11.5H1A.5.5,0,0,1,.5,11V1A.5.5,0,0,1,1,.5Z" fill="none"/>
    </g>
    <path id="Path_94913" data-name="Path 94913" d="M1823-9418.545h8.545" transform="translate(-121.817 134.15)" fill="none" stroke="#fff" stroke-width="1"/>
    <path id="Path_94914" data-name="Path 94914" d="M1823-9418.545h8.545" transform="translate(-121.817 136.782)" fill="none" stroke="#fff" stroke-width="1"/>
    <g id="Group_47484" data-name="Group 47484" transform="translate(0 -1)">
      <circle id="Ellipse_1297" data-name="Ellipse 1297" cx="0.5" cy="0.5" r="0.5" transform="translate(1692 -9280)" fill="#fff"/>
      <circle id="Ellipse_1306" data-name="Ellipse 1306" cx="0.5" cy="0.5" r="0.5" transform="translate(1692 -9274)" fill="#fff"/>
      <circle id="Ellipse_1302" data-name="Ellipse 1302" cx="0.5" cy="0.5" r="0.5" transform="translate(1692 -9277)" fill="#fff"/>
      <circle id="Ellipse_1305" data-name="Ellipse 1305" cx="0.5" cy="0.5" r="0.5" transform="translate(1692 -9271)" fill="#fff"/>
      <circle id="Ellipse_1298" data-name="Ellipse 1298" cx="0.5" cy="0.5" r="0.5" transform="translate(1695 -9280)" fill="#fff"/>
      <circle id="Ellipse_1307" data-name="Ellipse 1307" cx="0.5" cy="0.5" r="0.5" transform="translate(1695 -9274)" fill="#fff"/>
      <circle id="Ellipse_1301" data-name="Ellipse 1301" cx="0.5" cy="0.5" r="0.5" transform="translate(1695 -9277)" fill="#fff"/>
      <circle id="Ellipse_1304" data-name="Ellipse 1304" cx="0.5" cy="0.5" r="0.5" transform="translate(1695 -9271)" fill="#fff"/>
      <circle id="Ellipse_1299" data-name="Ellipse 1299" cx="0.5" cy="0.5" r="0.5" transform="translate(1698 -9280)" fill="#fff"/>
      <circle id="Ellipse_1308" data-name="Ellipse 1308" cx="0.5" cy="0.5" r="0.5" transform="translate(1698 -9274)" fill="#fff"/>
      <circle id="Ellipse_1300" data-name="Ellipse 1300" cx="0.5" cy="0.5" r="0.5" transform="translate(1698 -9277)" fill="#fff"/>
      <circle id="Ellipse_1303" data-name="Ellipse 1303" cx="0.5" cy="0.5" r="0.5" transform="translate(1698 -9271)" fill="#fff"/>
    </g>
  </g>
</svg>
