<svg xmlns="http://www.w3.org/2000/svg" width="46" height="48" viewBox="0 0 46 48">
  <g id="Group_46543" data-name="Group 46543" transform="translate(11122 6710)">
    <path id="Path_80427" data-name="Path 80427" d="M36.5,55.5H19.4a6.018,6.018,0,0,1-6-6v-35a6.018,6.018,0,0,1,6-6H36.5a6.018,6.018,0,0,1,6,6v35A6.018,6.018,0,0,1,36.5,55.5Z" transform="translate(-11131 -6718)" fill="#dcdbdb"/>
    <path id="Path_80428" data-name="Path 80428" d="M36.5,56H19.4a6.487,6.487,0,0,1-6.5-6.5v-35A6.487,6.487,0,0,1,19.4,8H36.5A6.487,6.487,0,0,1,43,14.5v35A6.487,6.487,0,0,1,36.5,56ZM19.4,9a5.549,5.549,0,0,0-5.5,5.5v35A5.549,5.549,0,0,0,19.4,55H36.5A5.549,5.549,0,0,0,42,49.5v-35A5.549,5.549,0,0,0,36.5,9Z" transform="translate(-11131 -6718)" fill="#c8c5c5"/>
    <path id="Path_80429" data-name="Path 80429" d="M33.5,55.5h-18a6.018,6.018,0,0,1-6-6v-35a6.018,6.018,0,0,1,6-6h18a6.018,6.018,0,0,1,6,6v35A6.018,6.018,0,0,1,33.5,55.5Z" transform="translate(-11131 -6718)" fill="#e5e5e5"/>
    <path id="Path_80430" data-name="Path 80430" d="M33.5,56h-18A6.487,6.487,0,0,1,9,49.5v-35A6.487,6.487,0,0,1,15.5,8h18A6.487,6.487,0,0,1,40,14.5v35A6.487,6.487,0,0,1,33.5,56ZM15.5,9A5.549,5.549,0,0,0,10,14.5v35A5.549,5.549,0,0,0,15.5,55h18A5.549,5.549,0,0,0,39,49.5v-35A5.549,5.549,0,0,0,33.5,9Z" transform="translate(-11131 -6718)" fill="#c8c5c5"/>
    <path id="Path_80431" data-name="Path 80431" d="M33.5,40h-2A2.476,2.476,0,0,1,29,37.5h0A2.476,2.476,0,0,1,31.5,35h2A2.476,2.476,0,0,1,36,37.5h0A2.476,2.476,0,0,1,33.5,40Z" transform="translate(-11131 -6718)" fill="#afafaf"/>
    <path id="Path_80432" data-name="Path 80432" d="M33.6,40H31.3a2.433,2.433,0,0,1-2.4-2.4v-.3a2.433,2.433,0,0,1,2.4-2.4h2.3A2.433,2.433,0,0,1,36,37.3v.3A2.433,2.433,0,0,1,33.6,40Zm-2.2-4A1.367,1.367,0,0,0,30,37.4v.3a1.367,1.367,0,0,0,1.4,1.4h2.3a1.367,1.367,0,0,0,1.4-1.4v-.3A1.367,1.367,0,0,0,33.7,36Z" transform="translate(-11131 -6718)" fill="#c8c5c5"/>
    <path id="Path_80433" data-name="Path 80433" d="M34,37.5A1.538,1.538,0,0,0,32.5,36H31.4A1.367,1.367,0,0,0,30,37.4v.3a1.367,1.367,0,0,0,1.4,1.4h1.1A1.708,1.708,0,0,0,34,37.5Z" transform="translate(-11131 -6718)" fill="#d8d4d4"/>
    <path id="Path_80434" data-name="Path 80434" d="M25.5,40h-2A2.476,2.476,0,0,1,21,37.5h0A2.476,2.476,0,0,1,23.5,35h2A2.476,2.476,0,0,1,28,37.5h0A2.476,2.476,0,0,1,25.5,40Z" transform="translate(-11131 -6718)" fill="#afafaf"/>
    <path id="Path_80435" data-name="Path 80435" d="M25.6,40H23.3a2.433,2.433,0,0,1-2.4-2.4v-.3a2.433,2.433,0,0,1,2.4-2.4h2.3A2.433,2.433,0,0,1,28,37.3v.3A2.433,2.433,0,0,1,25.6,40Zm-2.2-4A1.367,1.367,0,0,0,22,37.4v.3a1.367,1.367,0,0,0,1.4,1.4h2.3a1.367,1.367,0,0,0,1.4-1.4v-.3A1.367,1.367,0,0,0,25.7,36Z" transform="translate(-11131 -6718)" fill="#c8c5c5"/>
    <path id="Path_80436" data-name="Path 80436" d="M26,37.5A1.538,1.538,0,0,0,24.5,36H23.4A1.367,1.367,0,0,0,22,37.4v.3a1.367,1.367,0,0,0,1.4,1.4h1.1A1.708,1.708,0,0,0,26,37.5Z" transform="translate(-11131 -6718)" fill="#d8d4d4"/>
    <path id="Path_80437" data-name="Path 80437" d="M17.5,40h-2A2.476,2.476,0,0,1,13,37.5h0A2.476,2.476,0,0,1,15.5,35h2A2.476,2.476,0,0,1,20,37.5h0A2.476,2.476,0,0,1,17.5,40Z" transform="translate(-11131 -6718)" fill="#afafaf"/>
    <path id="Path_80438" data-name="Path 80438" d="M17.6,40H15.3a2.433,2.433,0,0,1-2.4-2.4v-.3a2.433,2.433,0,0,1,2.4-2.4h2.3A2.433,2.433,0,0,1,20,37.3v.3A2.433,2.433,0,0,1,17.6,40Zm-2.2-4A1.367,1.367,0,0,0,14,37.4v.3a1.367,1.367,0,0,0,1.4,1.4h2.3a1.367,1.367,0,0,0,1.4-1.4v-.3A1.367,1.367,0,0,0,17.7,36Z" transform="translate(-11131 -6718)" fill="#c8c5c5"/>
    <path id="Path_80439" data-name="Path 80439" d="M18,37.5A1.538,1.538,0,0,0,16.5,36H15.4A1.367,1.367,0,0,0,14,37.4v.3a1.367,1.367,0,0,0,1.4,1.4h1.1A1.708,1.708,0,0,0,18,37.5Z" transform="translate(-11131 -6718)" fill="#d8d4d4"/>
    <path id="Path_80440" data-name="Path 80440" d="M25.5,46h-2A2.476,2.476,0,0,1,21,43.5h0A2.476,2.476,0,0,1,23.5,41h2A2.476,2.476,0,0,1,28,43.5h0A2.54,2.54,0,0,1,25.5,46Z" transform="translate(-11131 -6718)" fill="#afafaf"/>
    <path id="Path_80441" data-name="Path 80441" d="M25.6,46H23.3a2.433,2.433,0,0,1-2.4-2.4v-.3a2.433,2.433,0,0,1,2.4-2.4h2.3A2.433,2.433,0,0,1,28,43.3v.3A2.433,2.433,0,0,1,25.6,46Zm-2.2-4A1.367,1.367,0,0,0,22,43.4v.3a1.367,1.367,0,0,0,1.4,1.4h2.3a1.367,1.367,0,0,0,1.4-1.4v-.3A1.367,1.367,0,0,0,25.7,42Z" transform="translate(-11131 -6718)" fill="#c8c5c5"/>
    <path id="Path_80442" data-name="Path 80442" d="M26,43.5A1.538,1.538,0,0,0,24.5,42H23.4A1.367,1.367,0,0,0,22,43.4v.3a1.367,1.367,0,0,0,1.4,1.4h1.1A1.708,1.708,0,0,0,26,43.5Z" transform="translate(-11131 -6718)" fill="#d8d4d4"/>
    <path id="Path_80443" data-name="Path 80443" d="M17.5,46h-2A2.476,2.476,0,0,1,13,43.5h0A2.476,2.476,0,0,1,15.5,41h2A2.476,2.476,0,0,1,20,43.5h0A2.54,2.54,0,0,1,17.5,46Z" transform="translate(-11131 -6718)" fill="#afafaf"/>
    <path id="Path_80444" data-name="Path 80444" d="M17.6,46H15.3a2.433,2.433,0,0,1-2.4-2.4v-.3a2.433,2.433,0,0,1,2.4-2.4h2.3A2.433,2.433,0,0,1,20,43.3v.3A2.433,2.433,0,0,1,17.6,46Zm-2.2-4A1.367,1.367,0,0,0,14,43.4v.3a1.367,1.367,0,0,0,1.4,1.4h2.3a1.367,1.367,0,0,0,1.4-1.4v-.3A1.367,1.367,0,0,0,17.7,42Z" transform="translate(-11131 -6718)" fill="#c8c5c5"/>
    <path id="Path_80445" data-name="Path 80445" d="M18,43.5A1.538,1.538,0,0,0,16.5,42H15.4A1.367,1.367,0,0,0,14,43.4v.3a1.367,1.367,0,0,0,1.4,1.4h1.1A1.708,1.708,0,0,0,18,43.5Z" transform="translate(-11131 -6718)" fill="#d8d4d4"/>
    <path id="Path_80446" data-name="Path 80446" d="M25.5,52h-2A2.476,2.476,0,0,1,21,49.5h0A2.476,2.476,0,0,1,23.5,47h2A2.476,2.476,0,0,1,28,49.5h0A2.476,2.476,0,0,1,25.5,52Z" transform="translate(-11131 -6718)" fill="#afafaf"/>
    <path id="Path_80447" data-name="Path 80447" d="M25.6,52H23.3a2.433,2.433,0,0,1-2.4-2.4v-.3a2.433,2.433,0,0,1,2.4-2.4h2.3A2.433,2.433,0,0,1,28,49.3v.3A2.433,2.433,0,0,1,25.6,52Zm-2.2-4A1.367,1.367,0,0,0,22,49.4v.3a1.367,1.367,0,0,0,1.4,1.4h2.3a1.367,1.367,0,0,0,1.4-1.4v-.3A1.367,1.367,0,0,0,25.7,48Z" transform="translate(-11131 -6718)" fill="#c8c5c5"/>
    <path id="Path_80448" data-name="Path 80448" d="M26,49.5A1.538,1.538,0,0,0,24.5,48H23.4A1.367,1.367,0,0,0,22,49.4v.3a1.367,1.367,0,0,0,1.4,1.4h1.1A1.708,1.708,0,0,0,26,49.5Z" transform="translate(-11131 -6718)" fill="#d8d4d4"/>
    <path id="Path_80449" data-name="Path 80449" d="M33.5,32A1.538,1.538,0,0,0,35,30.5v-16A1.538,1.538,0,0,0,33.5,13h-18A1.538,1.538,0,0,0,14,14.5v16A1.538,1.538,0,0,0,15.5,32Z" transform="translate(-11131 -6718)" fill="#8a8a8a"/>
    <path id="Path_80450" data-name="Path 80450" d="M17.5,52h-2A2.476,2.476,0,0,1,13,49.5h0A2.476,2.476,0,0,1,15.5,47h2A2.476,2.476,0,0,1,20,49.5h0A2.476,2.476,0,0,1,17.5,52Z" transform="translate(-11131 -6718)" fill="#afafaf"/>
    <path id="Path_80451" data-name="Path 80451" d="M17.6,52H15.3a2.433,2.433,0,0,1-2.4-2.4v-.3a2.433,2.433,0,0,1,2.4-2.4h2.3A2.433,2.433,0,0,1,20,49.3v.3A2.433,2.433,0,0,1,17.6,52Zm-2.2-4A1.367,1.367,0,0,0,14,49.4v.3a1.367,1.367,0,0,0,1.4,1.4h2.3a1.367,1.367,0,0,0,1.4-1.4v-.3A1.367,1.367,0,0,0,17.7,48Z" transform="translate(-11131 -6718)" fill="#c8c5c5"/>
    <path id="Path_80452" data-name="Path 80452" d="M18,49.5A1.538,1.538,0,0,0,16.5,48H15.4A1.367,1.367,0,0,0,14,49.4v.3a1.367,1.367,0,0,0,1.4,1.4h1.1A1.708,1.708,0,0,0,18,49.5Z" transform="translate(-11131 -6718)" fill="#d8d4d4"/>
    <path id="Path_80453" data-name="Path 80453" d="M15,30V15a2.006,2.006,0,0,1,2-2H33.5a2.006,2.006,0,0,1,2,2V30a2.006,2.006,0,0,1-2,2H17A2.006,2.006,0,0,1,15,30Z" transform="translate(-11131 -6718)" fill="#afafaf"/>
    <path id="Path_80454" data-name="Path 80454" d="M33.5,33h-18A2.476,2.476,0,0,1,13,30.5v-16A2.476,2.476,0,0,1,15.5,12h18A2.476,2.476,0,0,1,36,14.5v16A2.476,2.476,0,0,1,33.5,33Zm-18-20A1.538,1.538,0,0,0,14,14.5v16A1.538,1.538,0,0,0,15.5,32h18A1.538,1.538,0,0,0,35,30.5v-16A1.538,1.538,0,0,0,33.5,13Z" transform="translate(-11131 -6718)" fill="#c8c5c5"/>
    <path id="Path_80455" data-name="Path 80455" d="M16,22V17a2.006,2.006,0,0,1,2-2" transform="translate(-11131 -6718)" fill="#d8d4d4" stroke="#d8d4d4" stroke-linecap="round" stroke-miterlimit="10" stroke-width="2" opacity="0.5"/>
    <line id="Line_5" data-name="Line 5" y1="1" transform="translate(-11115 -6690)" fill="none" stroke="#d8d4d4" stroke-linecap="round" stroke-miterlimit="10" stroke-width="2" opacity="0.5"/>
    <path id="Path_80456" data-name="Path 80456" d="M33,28a2.006,2.006,0,0,1-2,2" transform="translate(-11131 -6718)" fill="#d8d4d4" stroke="#d8d4d4" stroke-linecap="round" stroke-miterlimit="10" stroke-width="2" opacity="0.5"/>
    <path id="Path_80457" data-name="Path 80457" d="M54,24.5A2.476,2.476,0,0,0,51.5,22H42V43h9.5A2.476,2.476,0,0,0,54,40.5Z" transform="translate(-11131 -6718)" fill="#afafaf"/>
    <circle id="Ellipse_1281" data-name="Ellipse 1281" cx="2" cy="2" r="2" transform="translate(-11084 -6694)" fill="#d8d4d4" stroke="#d8d4d4" stroke-width="1" opacity="0.5"/>
    <path id="Path_80458" data-name="Path 80458" d="M51.5,44H41V21H51.5A3.543,3.543,0,0,1,55,24.5v16A3.543,3.543,0,0,1,51.5,44ZM42,43h9.5A2.476,2.476,0,0,0,54,40.5v-16A2.476,2.476,0,0,0,51.5,22H42Z" transform="translate(-11131 -6718)" fill="#c8c5c5"/>
    <path id="Path_80459" data-name="Path 80459" d="M51.5,22h-1A2.476,2.476,0,0,1,53,24.5v16A2.476,2.476,0,0,1,50.5,43h1A2.476,2.476,0,0,0,54,40.5v-16A2.476,2.476,0,0,0,51.5,22Z" transform="translate(-11131 -6718)" fill="#8a8a8a"/>
    <path id="Path_80460" data-name="Path 80460" d="M33.6,52H31.3a2.433,2.433,0,0,1-2.4-2.4V43.3a2.433,2.433,0,0,1,2.4-2.4h2.3A2.433,2.433,0,0,1,36,43.3v6.3A2.433,2.433,0,0,1,33.6,52ZM31.4,42A1.367,1.367,0,0,0,30,43.4v6.3a1.367,1.367,0,0,0,1.4,1.4h2.3a1.367,1.367,0,0,0,1.4-1.4V43.4A1.367,1.367,0,0,0,33.7,42Z" transform="translate(-11131 -6718)" fill="#c8c5c5"/>
    <path id="Path_80461" data-name="Path 80461" d="M33.6,42H31.4A1.367,1.367,0,0,0,30,43.4v6.3a1.367,1.367,0,0,0,1.4,1.4h2.2A1.367,1.367,0,0,0,35,49.7V43.4A1.367,1.367,0,0,0,33.6,42Z" transform="translate(-11131 -6718)" fill="#d8d4d4"/>
    <path id="Path_80462" data-name="Path 80462" d="M33.7,42H32.6a1.441,1.441,0,0,1,1.542,1.4v6.3A1.441,1.441,0,0,1,32.6,51.1h1.1a1.441,1.441,0,0,0,1.542-1.4V43.4A1.441,1.441,0,0,0,33.7,42Z" transform="translate(-11131 -6718)" fill="#afafaf"/>
    <path id="Path_80463" data-name="Path 80463" d="M50.5,41a.472.472,0,0,1-.5-.5v-10a.5.5,0,0,1,1,0v10A.472.472,0,0,1,50.5,41Z" transform="translate(-11131 -6718)" fill="#8a8a8a"/>
    <path id="Path_80464" data-name="Path 80464" d="M47.5,41a.472.472,0,0,1-.5-.5v-10a.5.5,0,0,1,1,0v10A.472.472,0,0,1,47.5,41Z" transform="translate(-11131 -6718)" fill="#8a8a8a"/>
    <path id="Path_80465" data-name="Path 80465" d="M44.5,41a.472.472,0,0,1-.5-.5v-16a.5.5,0,0,1,1,0v16A.472.472,0,0,1,44.5,41Z" transform="translate(-11131 -6718)" fill="#8a8a8a"/>
  </g>
</svg>
