<svg xmlns="http://www.w3.org/2000/svg" xmlns:xlink="http://www.w3.org/1999/xlink" width="60" height="60" viewBox="0 0 60 60">
  <defs>
    <clipPath id="clip-path">
      <rect id="Rectangle_5700" data-name="Rectangle 5700" width="60" height="60" transform="translate(7507 -468)" fill="#fff" stroke="#707070" stroke-width="1"/>
    </clipPath>
  </defs>
  <g id="Mask_Group_44553" data-name="Mask Group 44553" transform="translate(-7507 468)" clip-path="url(#clip-path)">
    <g id="_3383435_car_lot_park_parking_roadsign_icon" data-name="3383435_car_lot_park_parking_roadsign_icon" transform="translate(7507.58 -456.116)">
      <path id="Union_24" data-name="Union 24" d="M35.652,29.438H23.327a6.794,6.794,0,1,1-13.588,0H2.447a2.445,2.445,0,0,1-2.279-3.33L3.08,18.613a4.2,4.2,0,0,1,3.911-2.676H8.377v-.006h2.2a1.9,1.9,0,0,0,1.594-.86l.209-.314,4.714-7.1.823-1.222a4.2,4.2,0,0,1,3.48-1.852h16.19a4.2,4.2,0,0,1,3.48,1.852l5.683,8.438a2.408,2.408,0,0,0,2,1.062h3.244A4.2,4.2,0,0,1,55.9,18.613l2.912,7.495a2.445,2.445,0,0,1-2.279,3.33H49.24a6.794,6.794,0,0,1-13.588,0Zm3.727,0a3.067,3.067,0,1,0,3.067-3.067A3.067,3.067,0,0,0,39.379,29.438Zm-25.913,0a3.067,3.067,0,1,0,3.067-3.067A3.067,3.067,0,0,0,13.466,29.438ZM31.36,9.024v5.74a1.086,1.086,0,0,0,1.086,1.086h7.685a1.317,1.317,0,0,0,1.125-2L38.387,9.134a2.492,2.492,0,0,0-2.128-1.2H32.446A1.086,1.086,0,0,0,31.36,9.024Zm-10.768.11-2.869,4.714a1.318,1.318,0,0,0,1.126,2h7.685a1.086,1.086,0,0,0,1.086-1.086V9.024a1.085,1.085,0,0,0-1.086-1.086H22.719A2.492,2.492,0,0,0,20.592,9.134Zm6.08-4.965H24.793V1.879A1.878,1.878,0,0,1,26.671,0h5.636a1.878,1.878,0,0,1,1.879,1.879v2.29H26.671Z" transform="translate(0 0)" fill="#ab0a0a"/>
    </g>
  </g>
</svg>
