<svg xmlns="http://www.w3.org/2000/svg" xmlns:xlink="http://www.w3.org/1999/xlink" width="148" height="148.028" viewBox="0 0 148 148.028">
  <defs>
    <clipPath id="clip-path">
      <rect id="Rectangle_5897" data-name="Rectangle 5897" width="148" height="148" transform="translate(0 0.044)" fill="#fff" stroke="#707070" stroke-width="1"/>
    </clipPath>
  </defs>
  <g id="Group_47381" data-name="Group 47381" transform="translate(0 -1.044)">
    <g id="Group_46238" data-name="Group 46238" transform="translate(0 1)">
      <g id="Mask_Group_44630" data-name="Mask Group 44630" clip-path="url(#clip-path)">
        <g id="group_3_" data-name="group (3)" transform="translate(0 11.232)">
          <path id="Path_80333" data-name="Path 80333" d="M348.556,273.162H333.533a21.444,21.444,0,0,0-21.41,21.368v23.562a12.911,12.911,0,0,0,12.872,12.847h32.1A12.854,12.854,0,0,0,369.9,318.092V294.53A21.387,21.387,0,0,0,348.556,273.162Z" transform="translate(-221.9 -205.463)" fill="#175a76"/>
          <path id="Path_80334" data-name="Path 80334" d="M341.045,273.161h-7.512a21.444,21.444,0,0,0-21.41,21.368v23.562a12.911,12.911,0,0,0,12.872,12.847h16.05V273.161Z" transform="translate(-221.9 -205.462)" fill="#7da6b8"/>
          <path id="Path_80335" data-name="Path 80335" d="M364.958,121.737a19.2,19.2,0,1,0,19.2,19.2A19.22,19.22,0,0,0,364.958,121.737Z" transform="translate(-245.813 -97.809)" fill="#175a76"/>
          <path id="Path_80336" data-name="Path 80336" d="M364.958,121.737a19.2,19.2,0,0,0,0,38.4Z" transform="translate(-245.813 -97.809)" fill="#7da6b8"/>
          <path id="Path_80337" data-name="Path 80337" d="M36.433,273.162H21.41A21.444,21.444,0,0,0,0,294.53v23.561a12.911,12.911,0,0,0,12.872,12.847h32.1a12.854,12.854,0,0,0,12.805-12.847V294.53A21.387,21.387,0,0,0,36.433,273.162Z" transform="translate(0 -205.463)" fill="#7da6b8"/>
          <path id="Path_80338" data-name="Path 80338" d="M28.922,273.161H21.41A21.444,21.444,0,0,0,0,294.529v23.562a12.911,12.911,0,0,0,12.872,12.847h16.05S28.922,273.161,28.922,273.161Z" transform="translate(0 -205.462)" fill="#bfdde7"/>
          <path id="Path_80339" data-name="Path 80339" d="M184.422,234.766H158.278a21.37,21.37,0,0,0-21.346,21.346v43.221A4.269,4.269,0,0,0,141.2,303.6h60.3a4.269,4.269,0,0,0,4.269-4.269V256.112A21.37,21.37,0,0,0,184.422,234.766Z" transform="translate(-97.35 -178.166)" fill="#152d46"/>
          <path id="Path_80340" data-name="Path 80340" d="M171.494,234.766H158.278a21.37,21.37,0,0,0-21.346,21.346v43.221A4.269,4.269,0,0,0,141.2,303.6h30.293V234.766Z" transform="translate(-97.35 -178.166)" fill="#175a76"/>
          <path id="Path_80341" data-name="Path 80341" d="M192.862,38.96a25.672,25.672,0,1,0,25.672,25.672A25.7,25.7,0,0,0,192.862,38.96Z" transform="translate(-118.862 -38.96)" fill="#152d46"/>
          <path id="Path_80342" data-name="Path 80342" d="M192.862,38.96a25.672,25.672,0,0,0,0,51.343Z" transform="translate(-118.862 -38.96)" fill="#175a76"/>
          <path id="Path_80343" data-name="Path 80343" d="M52.835,121.737a19.2,19.2,0,1,0,19.2,19.2A19.22,19.22,0,0,0,52.835,121.737Z" transform="translate(-23.913 -97.809)" fill="#7da6b8"/>
          <path id="Path_80344" data-name="Path 80344" d="M52.835,121.737a19.2,19.2,0,0,0,0,38.4Z" transform="translate(-23.913 -97.809)" fill="#bfdde7"/>
        </g>
      </g>
    </g>
    <g id="virus_1_" data-name="virus (1)" transform="translate(0 75.15)">
      <g id="XMLID_107_" transform="translate(0 0)">
        <g id="Group_44914" data-name="Group 44914">
          <path id="Path_79225" data-name="Path 79225" d="M75.16,37.873a6.465,6.465,0,0,1-5.581,7.044,5.952,5.952,0,0,1-5.967-3.506l-3.046.268-2.3,1.109a1.736,1.736,0,0,0-.96,1.333A20.28,20.28,0,0,1,56.147,48.6a1.728,1.728,0,0,0,.1,1.471l.819,1.465,2.278,1.528a4.1,4.1,0,1,1-2.588,4.389L54.231,55.76l-1.589-.194a1.829,1.829,0,0,0-1.486.5,20.56,20.56,0,0,1-4.5,3.252,1.807,1.807,0,0,0-.948,1.486l-.2,3.218,1,3.964a5.088,5.088,0,1,1-4.928,1.266l-1-3.987-1.55-2.492a2.27,2.27,0,0,0-1.939-1.063h-.012a20.545,20.545,0,0,1-3.97-.388,2.266,2.266,0,0,0-2.091.656l-2.048,2.161L26.668,68.9a4.1,4.1,0,1,1-4.6-2.178l2.307-4.788.453-3.213a1.707,1.707,0,0,0-.61-1.565,20.619,20.619,0,0,1-4.639-5.317,1.7,1.7,0,0,0-1.444-.815l-3.209-.031-3.513,1.1a5.729,5.729,0,1,1-1.742-4.783L13.4,46.139,16.126,44.2a1.4,1.4,0,0,0,.58-1.261q-.067-.822-.068-1.659A20.309,20.309,0,0,1,18.5,32.772a1.4,1.4,0,0,0-.014-1.193l-.807-1.649-2.189-1.652a4.1,4.1,0,1,1,2.827-4.239l2.427,1.831,2.445.436a20.482,20.482,0,0,1,6.133-3.93l.574-3.488-.725-3.6A5.872,5.872,0,0,1,24.814,10.9a5.737,5.737,0,0,1,4.752-6.732,6.065,6.065,0,0,1,7.145,4.476,5.57,5.57,0,0,1-2.517,5.843l.684,3.4,1.68,2.681a.6.6,0,0,0,.509.281h0A20.3,20.3,0,0,1,47.6,23.774a.593.593,0,0,0,.555.031l2.631-1.219,3.072-3.323a4.095,4.095,0,1,1,3.735,3.454L54.52,26.039l-1,2.684a.593.593,0,0,0,.078.555,20.327,20.327,0,0,1,2.845,5.5,1.745,1.745,0,0,0,1.174,1.128l2.5.7,3.246-.287a6.274,6.274,0,0,1,5.224-4.276,6.114,6.114,0,0,1,6.572,5.824Z" transform="translate(0 -4.053)" fill="#039572"/>
        </g>
      </g>
      <g id="XMLID_8_" transform="translate(20.764 20.876)">
        <g id="Group_44915" data-name="Group 44915">
          <circle id="Ellipse_1144" data-name="Ellipse 1144" cx="16.336" cy="16.336" r="16.336" fill="#29b997"/>
        </g>
      </g>
      <path id="Path_79226" data-name="Path 79226" d="M146.4,162.8a16.339,16.339,0,0,1,13.846-16.147,16.335,16.335,0,1,0,0,32.294A16.34,16.34,0,0,1,146.4,162.8Z" transform="translate(-120.003 -125.587)" fill="#26aa8a"/>
      <g id="Group_44916" data-name="Group 44916" transform="translate(7.887 1.189)">
        <circle id="Ellipse_1145" data-name="Ellipse 1145" cx="4.652" cy="4.652" r="4.652" transform="translate(0)" fill="#039572"/>
        <circle id="Ellipse_1146" data-name="Ellipse 1146" cx="3.073" cy="3.073" r="3.073" transform="translate(0.308 57.011)" fill="#039572"/>
        <circle id="Ellipse_1147" data-name="Ellipse 1147" cx="4.526" cy="4.526" r="4.526" transform="translate(49.282 60.605)" fill="#039572"/>
        <circle id="Ellipse_1148" data-name="Ellipse 1148" cx="4.219" cy="4.219" r="4.219" transform="translate(20.45 27.621)" fill="#039572"/>
        <circle id="Ellipse_1149" data-name="Ellipse 1149" cx="2.872" cy="2.872" r="2.872" transform="translate(24.813 40.958)" fill="#039572"/>
        <circle id="Ellipse_1150" data-name="Ellipse 1150" cx="2.412" cy="2.412" r="2.412" transform="translate(33.381 33.544)" fill="#039572"/>
      </g>
    </g>
  </g>
</svg>
