<svg xmlns="http://www.w3.org/2000/svg" xmlns:xlink="http://www.w3.org/1999/xlink" width="60" height="60" viewBox="0 0 60 60">
  <defs>
    <clipPath id="clip-path">
      <rect id="Rectangle_5728" data-name="Rectangle 5728" width="60" height="60" transform="translate(1496 1315)" fill="#fff" stroke="#707070" stroke-width="1"/>
    </clipPath>
  </defs>
  <g id="Mask_Group_44564" data-name="Mask Group 44564" transform="translate(-1496 -1315)" clip-path="url(#clip-path)">
    <g id="artworks" transform="translate(1500.975 1316.171)">
      <path id="Path_79670" data-name="Path 79670" d="M58.541,25.631c0-.1-.1-.2-.1-.3s0-.1-.1-.2-.1-.3-.2-.4v-.1c-.1-.1-.1-.2-.2-.3a.772.772,0,0,0-.4-.4h0L45.79,12.088h0l-.4-.4a3.254,3.254,0,0,0-1.878-.593H22.561A3.333,3.333,0,0,0,19.2,14.461v42.7a3.333,3.333,0,0,0,3.361,3.361h32.62a3.333,3.333,0,0,0,3.361-3.361V25.631Z" transform="translate(-8.524 -3.093)" fill="#175a76"/>
      <path id="Path_79671" data-name="Path 79671" d="M19.2,57.5a3.333,3.333,0,0,0,3.361,3.361h25.6V40.7H19.2Z" transform="translate(-8.524 -3.434)" fill="#112a43"/>
      <g id="Group_45649" data-name="Group 45649" transform="translate(0 0)">
        <path id="Path_79672" data-name="Path 79672" d="M8.4,6.361v42.7a3.333,3.333,0,0,0,3.361,3.361h32.62a3.333,3.333,0,0,0,3.361-3.361V18.124a3.452,3.452,0,0,0-.988-2.372L34.99,3.988A3.452,3.452,0,0,0,32.618,3H11.761A3.333,3.333,0,0,0,8.4,6.361Z" transform="translate(-8.4 -3)" fill="#bfdde7"/>
        <path id="Path_79673" data-name="Path 79673" d="M45.378,15.5H34.9a3.55,3.55,0,0,0,.692.988l5.931,5.931,5.931,5.931a1.773,1.773,0,0,0,.692.494V18.268a3.727,3.727,0,0,0-.692-2.076A3.727,3.727,0,0,0,45.378,15.5Z" transform="translate(-8.705 -3.144)" fill="#7da6b8"/>
        <path id="Path_79674" data-name="Path 79674" d="M11.8,52.6H44.42a3.333,3.333,0,0,0,3.361-3.361V18.3" transform="translate(-8.439 -3.176)" fill="none" stroke="#263047" stroke-linecap="round" stroke-miterlimit="10" stroke-width="0.5"/>
        <path id="Path_79675" data-name="Path 79675" d="M47.05,15.754,41.119,9.823,35.188,3.892A3.55,3.55,0,0,0,34.2,3.2V13.678a2.974,2.974,0,0,0,2.965,2.965H47.643A2.334,2.334,0,0,0,47.05,15.754Z" transform="translate(-8.697 -3.002)" fill="#112a43"/>
      </g>
      <g id="Group_45659" data-name="Group 45659" transform="translate(5.733 5.832)">
        <g id="Group_45658" data-name="Group 45658">
          <circle id="Ellipse_1275" data-name="Ellipse 1275" cx="4.349" cy="4.349" r="4.349" transform="translate(2.669 3.262)" fill="#112a43"/>
          <g id="Group_45650" data-name="Group 45650" transform="translate(5.733)">
            <path id="Path_79676" data-name="Path 79676" d="M22.67,9.691c0-.494-.593-.791-1.285-.791s-1.285.4-1.285.791a.363.363,0,0,0,.1.3,3.473,3.473,0,0,1,.494,1.977v1.68h1.384v-1.68a3.473,3.473,0,0,1,.494-1.977C22.571,9.888,22.67,9.79,22.67,9.691Z" transform="translate(-20.001 -8.9)" fill="#112a43"/>
            <path id="Path_79677" data-name="Path 79677" d="M20,23.554c0,.494.593.791,1.285.791s1.285-.4,1.285-.791a.363.363,0,0,0-.1-.3,3.473,3.473,0,0,1-.494-1.977V19.6H20.593v1.68a3.473,3.473,0,0,1-.494,1.977C20.1,23.356,20,23.455,20,23.554Z" transform="translate(-20 -9.023)" fill="#112a43"/>
          </g>
          <g id="Group_45651" data-name="Group 45651" transform="translate(2.989 1.359)">
            <path id="Path_79678" data-name="Path 79678" d="M18.881,10.5a.767.767,0,0,0-1.087,0c-.494.3-.692.692-.494.988,0,.1.1.1.2.2a2.382,2.382,0,0,1,.988.988l.593.988.89-.494-.593-.988a3.218,3.218,0,0,1-.4-1.384C18.881,10.6,18.881,10.6,18.881,10.5Z" transform="translate(-17.223 -10.275)" fill="#112a43"/>
            <path id="Path_79679" data-name="Path 79679" d="M23.787,22.763a.767.767,0,0,0,1.087,0c.494-.3.692-.692.494-.988,0-.1-.1-.1-.2-.2a2.382,2.382,0,0,1-.988-.988L23.59,19.6l-.89.494.593.988a3.218,3.218,0,0,1,.4,1.384C23.688,22.565,23.787,22.664,23.787,22.763Z" transform="translate(-17.286 -10.382)" fill="#112a43"/>
          </g>
          <g id="Group_45652" data-name="Group 45652" transform="translate(0 6.623)">
            <path id="Path_79680" data-name="Path 79680" d="M14.793,15.7c-.3,0-.593.4-.593.89s.3.89.593.89c.1,0,.2,0,.2-.1a2.269,2.269,0,0,1,1.384-.4h1.186V16H16.375a2.269,2.269,0,0,1-1.384-.4C14.991,15.7,14.892,15.7,14.793,15.7Z" transform="translate(-14.2 -15.6)" fill="#112a43"/>
            <path id="Path_79681" data-name="Path 79681" d="M27.868,17.579c.3,0,.593-.4.593-.89s-.3-.89-.593-.89c-.1,0-.2,0-.2.1a2.269,2.269,0,0,1-1.384.4H25.1v.988h1.186a2.269,2.269,0,0,1,1.384.4C27.67,17.579,27.769,17.579,27.868,17.579Z" transform="translate(-14.326 -15.602)" fill="#112a43"/>
          </g>
          <g id="Group_45653" data-name="Group 45653" transform="translate(2.903 1.296)">
            <path id="Path_79682" data-name="Path 79682" d="M17.2,21.775c-.2.3.1.692.494.988.494.3.988.2,1.087,0,0-.1.1-.1,0-.2a2.269,2.269,0,0,1,.4-1.384l.593-.988-.791-.593-.593.988a2.382,2.382,0,0,1-.988.988C17.3,21.676,17.3,21.775,17.2,21.775Z" transform="translate(-17.136 -10.319)" fill="#112a43"/>
            <path id="Path_79683" data-name="Path 79683" d="M25.37,11.386c.2-.3-.1-.692-.494-.988-.494-.3-.988-.2-1.087,0,0,.1-.1.1,0,.2a2.269,2.269,0,0,1-.4,1.384l-.593.988.89.494.593-.988a2.382,2.382,0,0,1,.988-.988C25.271,11.584,25.37,11.485,25.37,11.386Z" transform="translate(-17.202 -10.211)" fill="#112a43"/>
          </g>
          <g id="Group_45654" data-name="Group 45654" transform="translate(0.144 3.003)">
            <path id="Path_79684" data-name="Path 79684" d="M15.981,12c-.4-.2-.988.1-1.384.692a1.177,1.177,0,0,0,.1,1.582.363.363,0,0,0,.3.1,3.473,3.473,0,0,1,1.977.494l1.483.791.692-1.186-1.483-.791A3.123,3.123,0,0,1,16.277,12.3Z" transform="translate(-14.345 -11.938)" fill="#112a43"/>
            <path id="Path_79685" data-name="Path 79685" d="M26.663,21.257c.4.2.988-.1,1.384-.692a1.177,1.177,0,0,0-.1-1.582.363.363,0,0,0-.3-.1,3.473,3.473,0,0,1-1.977-.494L24.192,17.6,23.5,18.786l1.483.791a3.123,3.123,0,0,1,1.384,1.384C26.564,21.06,26.564,21.159,26.663,21.257Z" transform="translate(-14.451 -12.004)" fill="#112a43"/>
          </g>
          <g id="Group_45655" data-name="Group 45655" transform="translate(0.085 2.963)">
            <path id="Path_79686" data-name="Path 79686" d="M14.6,18.985c-.4.2-.4.89-.1,1.582.4.593.988.988,1.384.692.1-.1.2-.1.2-.2a3.716,3.716,0,0,1,1.384-1.384l1.483-.791L18.254,17.7l-1.483.791a3.473,3.473,0,0,1-1.977.494C14.794,18.886,14.7,18.886,14.6,18.985Z" transform="translate(-14.286 -11.965)" fill="#112a43"/>
            <path id="Path_79687" data-name="Path 79687" d="M27.949,14.272c.4-.2.4-.89.1-1.582-.4-.593-.988-.988-1.384-.692-.1.1-.2.1-.2.2a3.716,3.716,0,0,1-1.384,1.384l-1.483.791.692,1.186,1.483-.791a3.473,3.473,0,0,1,1.977-.494C27.752,14.371,27.85,14.272,27.949,14.272Z" transform="translate(-14.393 -11.898)" fill="#112a43"/>
          </g>
          <g id="Group_45656" data-name="Group 45656" transform="translate(5.832 4.745)">
            <path id="Path_79688" data-name="Path 79688" d="M20.594,14.985,20.1,13.9a2.507,2.507,0,0,1,1.186-.2v1.186C21.088,14.787,20.891,14.886,20.594,14.985Z" transform="translate(-20.1 -13.7)" fill="#7da6b8"/>
          </g>
          <g id="Group_45657" data-name="Group 45657" transform="translate(4.053 5.437)">
            <path id="Path_79689" data-name="Path 79689" d="M19.486,16.575H18.3a3.067,3.067,0,0,1,.89-2.175l.89.89A1.74,1.74,0,0,0,19.486,16.575Z" transform="translate(-18.3 -14.4)" fill="#7da6b8"/>
          </g>
        </g>
      </g>
      <g id="Group_45661" data-name="Group 45661" transform="translate(6.722 26.368)">
        <path id="Path_79690" data-name="Path 79690" d="M19.945,36.824H16.88a1.666,1.666,0,0,1-1.68-1.68V31.98a1.666,1.666,0,0,1,1.68-1.68h3.064a1.666,1.666,0,0,1,1.68,1.68v3.064A1.634,1.634,0,0,1,19.945,36.824Z" transform="translate(-15.2 -29.682)" fill="#7da6b8"/>
        <path id="Path_79691" data-name="Path 79691" d="M40.421,32.782H25.891a.78.78,0,0,1-.791-.791h0a.78.78,0,0,1,.791-.791H40.421a.78.78,0,0,1,.791.791h0A.78.78,0,0,1,40.421,32.782Z" transform="translate(-15.314 -29.693)" fill="#fff"/>
        <path id="Path_79692" data-name="Path 79692" d="M33.107,36.082H25.891a.78.78,0,0,1-.791-.791h0a.78.78,0,0,1,.791-.791h7.216a.78.78,0,0,1,.791.791h0A.727.727,0,0,1,33.107,36.082Z" transform="translate(-15.314 -29.731)" fill="#fff"/>
        <g id="Group_45660" data-name="Group 45660" transform="translate(0.865)">
          <path id="Path_79693" data-name="Path 79693" d="M17.894,35.037l-.3-.3a.9.9,0,0,1,0-1.186L21.255,29.9a.9.9,0,0,1,1.186,0l.3.3a.9.9,0,0,1,0,1.186L19.08,35.037A.9.9,0,0,1,17.894,35.037Z" transform="translate(-16.09 -29.675)" fill="#fff"/>
          <path id="Path_79694" data-name="Path 79694" d="M16.3,32.294l.3-.3a.9.9,0,0,1,1.186,0l1.582,1.582a.9.9,0,0,1,0,1.186l-.3.3a.9.9,0,0,1-1.186,0L16.3,33.48A.9.9,0,0,1,16.3,32.294Z" transform="translate(-16.075 -29.699)" fill="#fff"/>
        </g>
      </g>
      <g id="Group_45663" data-name="Group 45663" transform="translate(6.722 36.351)">
        <path id="Path_79695" data-name="Path 79695" d="M19.945,46.925H16.88a1.666,1.666,0,0,1-1.68-1.68V42.18a1.666,1.666,0,0,1,1.68-1.68h3.064a1.666,1.666,0,0,1,1.68,1.68v3.064A1.607,1.607,0,0,1,19.945,46.925Z" transform="translate(-15.2 -39.783)" fill="#7da6b8"/>
        <path id="Path_79696" data-name="Path 79696" d="M40.421,42.882H25.891a.78.78,0,0,1-.791-.791h0a.78.78,0,0,1,.791-.791H40.421a.78.78,0,0,1,.791.791h0A.78.78,0,0,1,40.421,42.882Z" transform="translate(-15.314 -39.793)" fill="#fff"/>
        <path id="Path_79697" data-name="Path 79697" d="M33.107,46.182H25.891a.78.78,0,0,1-.791-.791h0a.78.78,0,0,1,.791-.791h7.216a.78.78,0,0,1,.791.791h0A.78.78,0,0,1,33.107,46.182Z" transform="translate(-15.314 -39.831)" fill="#fff"/>
        <g id="Group_45662" data-name="Group 45662" transform="translate(0.865)">
          <path id="Path_79698" data-name="Path 79698" d="M17.894,45.137l-.3-.3a.9.9,0,0,1,0-1.186L21.255,40a.9.9,0,0,1,1.186,0l.3.3a.9.9,0,0,1,0,1.186L19.08,45.137A.9.9,0,0,1,17.894,45.137Z" transform="translate(-16.09 -39.775)" fill="#fff"/>
          <path id="Path_79699" data-name="Path 79699" d="M16.3,42.394l.3-.3a.9.9,0,0,1,1.186,0l1.582,1.582a.9.9,0,0,1,0,1.186l-.3.3a.9.9,0,0,1-1.186,0L16.3,43.58A.9.9,0,0,1,16.3,42.394Z" transform="translate(-16.075 -39.799)" fill="#fff"/>
        </g>
      </g>
    </g>
  </g>
</svg>
