<svg xmlns="http://www.w3.org/2000/svg" xmlns:xlink="http://www.w3.org/1999/xlink" width="60" height="60" viewBox="0 0 60 60"><defs><clipPath id="a"><rect width="60" height="60" transform="translate(2540 -243)" fill="#fff" stroke="#707070" stroke-width="1"/></clipPath><linearGradient id="b" x1="0.505" y1="0.529" x2="0.272" y2="-0.075" gradientUnits="objectBoundingBox"><stop offset="0" stop-color="#fff" stop-opacity="0"/><stop offset="1" stop-color="#fff"/></linearGradient></defs><g transform="translate(-2540 243)" clip-path="url(#a)"><g transform="translate(2542.521 -240.479)"><path d="M.412,351.988a1.405,1.405,0,0,1,0-1.987l16.322-16.322a1.405,1.405,0,1,1,1.987,1.987L2.4,351.988a1.405,1.405,0,0,1-1.987,0Z" transform="translate(0 -297.189)" fill="#52116a"/><g transform="translate(10.15 31.065)"><path d="M101.7,300.193l-7.184-7.184a2.593,2.593,0,0,1,0-3.667l2.386-2.386,10.851,10.851-2.386,2.386A2.593,2.593,0,0,1,101.7,300.193Z" transform="translate(-93.758 -286.956)" fill="#883ba4"/><path d="M128.932,297.8l-2.386,2.386a2.592,2.592,0,0,1-3.667,0l-5.373-5.373v-7.289l.575-.575Z" transform="translate(-114.935 -286.953)" fill="#883ba4"/></g><g transform="translate(11.446 8.368)"><path d="M118.485,112.051,106.368,99.934a2.192,2.192,0,0,1,0-3.1l18.9-18.9a2.192,2.192,0,0,1,3.1,0l12.117,12.117a2.192,2.192,0,0,1,0,3.1l-18.9,18.9a2.192,2.192,0,0,1-3.1,0Z" transform="translate(-105.726 -77.295)" fill="#883ba4"/><path d="M140.161,191.6l-10.618-10.618a1.444,1.444,0,0,1,0-2.041l9.422-9.422a1.444,1.444,0,0,1,2.041,0l10.618,10.618a1.444,1.444,0,0,1,0,2.041L142.2,191.6A1.443,1.443,0,0,1,140.161,191.6Z" transform="translate(-126.588 -159.158)" fill="#fff"/><path d="M109.245,231.2l-2.877,2.877a2.192,2.192,0,0,0,0,3.1L118.485,249.3a2.192,2.192,0,0,0,3.1,0l2.877-2.877Z" transform="translate(-105.726 -214.54)" fill="#cb88e3"/></g><path d="M272.056,132.257l-4.395-4.395,8.969-8.969,4.395,4.395Z" transform="translate(-238.685 -106.022)" fill="#52116a"/><path d="M153.365,94.246l-20.195,20.195a2.548,2.548,0,0,0,0,3.6l9.123,9.123a2.192,2.192,0,0,0,3.1,0l18.9-18.9a2.192,2.192,0,0,0,0-3.1Z" transform="translate(-119.702 -85.408)" fill="url(#b)"/><g transform="translate(39.605 0)"><path d="M370.241,67.644l-4.4-4.4,4.893-4.893,4.4,4.4Z" transform="translate(-365.846 -52.039)" fill="#cb88e3"/><path d="M408.328,58.65v8.79l4.689-4.689-4.4-4.4Z" transform="translate(-403.729 -52.039)" fill="#cb88e3"/><path d="M385.174,14.35,374.093,3.269a1.39,1.39,0,0,1,0-1.966l.9-.9a1.39,1.39,0,0,1,1.966,0l11.081,11.081a1.39,1.39,0,0,1,0,1.966l-.9.9A1.39,1.39,0,0,1,385.174,14.35Z" transform="translate(-372.837 -0.001)" fill="#cb88e3"/></g><path d="M290.886,50.422,273.965,33.5a2.123,2.123,0,0,1,0-3l1.367-1.367a2.123,2.123,0,0,1,3,0l16.921,16.921a2.123,2.123,0,0,1,0,3l-1.367,1.367A2.123,2.123,0,0,1,290.886,50.422Z" transform="translate(-243.752 -25.424)" fill="#883ba4"/></g></g></svg>