<svg xmlns="http://www.w3.org/2000/svg" xmlns:xlink="http://www.w3.org/1999/xlink" width="107" height="107" viewBox="0 0 107 107">
  <defs>
    <clipPath id="clip-path">
      <rect id="Rectangle_6145" data-name="Rectangle 6145" width="107" height="107" transform="translate(-5634 -14200)" fill="#fff" stroke="#707070" stroke-width="1"/>
    </clipPath>
    <linearGradient id="linear-gradient" x1="0.5" x2="0.5" y2="1" gradientUnits="objectBoundingBox">
      <stop offset="0" stop-color="#041e39"/>
      <stop offset="1" stop-color="#57687a"/>
    </linearGradient>
  </defs>
  <g id="Mask_Group_44743" data-name="Mask Group 44743" transform="translate(5634 14200)" clip-path="url(#clip-path)">
    <g id="_2526576_transportation_vehicle_icon" data-name="2526576_transportation_vehicle_icon" transform="translate(-5620.735 -14198.232)">
      <g id="Layer_3" transform="translate(0 0)">
        <g id="Group_47363" data-name="Group 47363">
          <path id="Path_94594" data-name="Path 94594" d="M46.224,19.7H79.487a8.118,8.118,0,0,1,8.124,8.124V74.468a8.118,8.118,0,0,1-8.124,8.124H46.224A8.118,8.118,0,0,1,38.1,74.468V27.824A8.118,8.118,0,0,1,46.224,19.7Z" transform="translate(-22.329 -10.333)" fill="#7da6b8" fill-rule="evenodd"/>
          <path id="Path_94595" data-name="Path 94595" d="M42.576,28.2H83.2a2.672,2.672,0,0,1,2.676,2.676V65A2.672,2.672,0,0,1,83.2,67.675H42.576A2.672,2.672,0,0,1,39.9,65V30.876A2.672,2.672,0,0,1,42.576,28.2Z" transform="translate(-22.409 -10.709)" fill="#bfdde7" fill-rule="evenodd"/>
          <path id="Path_94596" data-name="Path 94596" d="M83.228,29.567H42.51a1.212,1.212,0,0,0-.86.382,1.423,1.423,0,0,0-.382.86V64.933a.932.932,0,0,0,.382.86h0a1.424,1.424,0,0,0,.86.382H83.132a.932.932,0,0,0,.86-.382,1.423,1.423,0,0,0,.382-.86V30.81a.932.932,0,0,0-.382-.86h0C83.9,29.663,83.515,29.567,83.228,29.567ZM42.51,26.7H83.132A3.815,3.815,0,0,1,86,27.943h0a4.144,4.144,0,0,1,1.243,2.867V64.933A3.815,3.815,0,0,1,86,67.8a4.144,4.144,0,0,1-2.867,1.243H42.51A3.815,3.815,0,0,1,39.643,67.8h0A4.144,4.144,0,0,1,38.4,64.933V30.81a3.815,3.815,0,0,1,1.243-2.867A3.973,3.973,0,0,1,42.51,26.7Z" transform="translate(-22.342 -10.642)" fill="#175a76"/>
          <path id="Path_94597" data-name="Path 94597" d="M48.884,72.6h0a4.691,4.691,0,0,1,4.684,4.684h0a4.691,4.691,0,0,1-4.684,4.684h0A4.691,4.691,0,0,1,44.2,77.284h0A4.691,4.691,0,0,1,48.884,72.6Z" transform="translate(-22.598 -12.67)" fill="#f3bf06" fill-rule="evenodd"/>
          <path id="Path_94598" data-name="Path 94598" d="M48.884,72.6h0a4.691,4.691,0,0,1,4.684,4.684h0a4.691,4.691,0,0,1-4.684,4.684h0A4.691,4.691,0,0,1,44.2,77.284h0A4.691,4.691,0,0,1,48.884,72.6Z" transform="translate(-22.598 -12.67)" fill="none" stroke="#175a76" stroke-linecap="round" stroke-linejoin="round" stroke-miterlimit="2.613" stroke-width="2"/>
          <path id="Path_94599" data-name="Path 94599" d="M78.684,72.6h0a4.691,4.691,0,0,1,4.684,4.684h0a4.691,4.691,0,0,1-4.684,4.684h0A4.691,4.691,0,0,1,74,77.284h0A4.819,4.819,0,0,1,78.684,72.6Z" transform="translate(-23.915 -12.67)" fill="#f3bf06" fill-rule="evenodd"/>
          <path id="Path_94600" data-name="Path 94600" d="M78.684,72.6h0a4.691,4.691,0,0,1,4.684,4.684h0a4.691,4.691,0,0,1-4.684,4.684h0A4.691,4.691,0,0,1,74,77.284h0A4.819,4.819,0,0,1,78.684,72.6Z" transform="translate(-23.915 -12.67)" fill="none" stroke="#175a76" stroke-linecap="round" stroke-linejoin="round" stroke-miterlimit="2.613" stroke-width="2"/>
          <path id="Path_94601" data-name="Path 94601" d="M76.56,91.072H47.694l-21.41,22.844H97.97ZM47.12,88.3H77.229a1.583,1.583,0,0,1,1.147.478l23.991,25.616a1.389,1.389,0,0,1-.1,2.007,1.369,1.369,0,0,1-.956.382H23.034A1.47,1.47,0,0,1,21.6,115.35a1.535,1.535,0,0,1,.478-1.051L46.069,88.682A1.437,1.437,0,0,1,47.12,88.3Z" transform="translate(-21.6 -13.364)" fill="#175a76"/>
          <path id="Path_94602" data-name="Path 94602" d="M91.858,107.439l-8.7-9.271H41.677l-8.7,9.271ZM84.88,95.873l11.279,12.043a1.389,1.389,0,0,1-.1,2.007,1.369,1.369,0,0,1-.956.382H29.634a1.47,1.47,0,0,1-1.434-1.434,1.535,1.535,0,0,1,.478-1.051L39.957,95.778a1.535,1.535,0,0,1,1.051-.478H83.829A1.609,1.609,0,0,1,84.88,95.873Z" transform="translate(-21.892 -13.673)" fill="#175a76"/>
          <rect id="Rectangle_6144" data-name="Rectangle 6144" width="2.867" height="7.933" transform="translate(39.093 1.434)" fill="#175a76"/>
          <path id="Path_94603" data-name="Path 94603" d="M51.134,12.767a1.434,1.434,0,0,1,0-2.867H75.6a1.434,1.434,0,0,1,0,2.867Z" transform="translate(-22.841 -9.9)" fill="#175a76"/>
          <path id="Path_94604" data-name="Path 94604" d="M46.6,85.4v2.581a1.625,1.625,0,0,0,3.25,0V85.4Z" transform="translate(-22.705 -13.236)" fill-rule="evenodd" fill="url(#linear-gradient)"/>
          <path id="Path_94605" data-name="Path 94605" d="M78.1,85.4v2.581a1.675,1.675,0,0,0,1.625,1.625h0a1.675,1.675,0,0,0,1.625-1.625V85.4Z" transform="translate(-24.096 -13.236)" fill-rule="evenodd" fill="url(#linear-gradient)"/>
        </g>
      </g>
    </g>
  </g>
</svg>
