<svg xmlns="http://www.w3.org/2000/svg" xmlns:xlink="http://www.w3.org/1999/xlink" width="60" height="60" viewBox="0 0 60 60">
  <defs>
    <clipPath id="clip-path">
      <rect id="Rectangle_6162" data-name="Rectangle 6162" width="60" height="60" transform="translate(-5634 -14200)" fill="#fff" stroke="#707070" stroke-width="1"/>
    </clipPath>
    <linearGradient id="linear-gradient" x1="0.5" x2="0.5" y2="1" gradientUnits="objectBoundingBox">
      <stop offset="0" stop-color="#041e39"/>
      <stop offset="1" stop-color="#57687a"/>
    </linearGradient>
  </defs>
  <g id="Mask_Group_44758" data-name="Mask Group 44758" transform="translate(5634 14200)" clip-path="url(#clip-path)">
    <g id="_2526576_transportation_vehicle_icon" data-name="2526576_transportation_vehicle_icon" transform="translate(-5626.562 -14199.009)">
      <g id="Layer_3" transform="translate(0 0)">
        <g id="Group_47401" data-name="Group 47401">
          <path id="Path_94734" data-name="Path 94734" d="M42.656,19.7H61.308a4.552,4.552,0,0,1,4.556,4.556V50.411a4.552,4.552,0,0,1-4.556,4.556H42.656A4.552,4.552,0,0,1,38.1,50.411V24.256A4.552,4.552,0,0,1,42.656,19.7Z" transform="translate(-29.256 -14.447)" fill="#7da6b8" fill-rule="evenodd"/>
          <path id="Path_94735" data-name="Path 94735" d="M41.4,28.2H64.18a1.5,1.5,0,0,1,1.5,1.5V48.835a1.5,1.5,0,0,1-1.5,1.5H41.4a1.5,1.5,0,0,1-1.5-1.5V29.7A1.5,1.5,0,0,1,41.4,28.2Z" transform="translate(-30.092 -18.392)" fill="#bfdde7" fill-rule="evenodd"/>
          <path id="Path_94736" data-name="Path 94736" d="M63.537,28.308H40.7a.679.679,0,0,0-.482.214.8.8,0,0,0-.214.482V48.139a.522.522,0,0,0,.214.482h0a.8.8,0,0,0,.482.214H63.484a.522.522,0,0,0,.482-.214.8.8,0,0,0,.214-.482V29a.522.522,0,0,0-.214-.482h0C63.912,28.362,63.7,28.308,63.537,28.308ZM40.7,26.7H63.484a2.139,2.139,0,0,1,1.608.7h0a2.324,2.324,0,0,1,.7,1.608V48.139a2.139,2.139,0,0,1-.7,1.608,2.324,2.324,0,0,1-1.608.7H40.7a2.139,2.139,0,0,1-1.608-.7h0a2.324,2.324,0,0,1-.7-1.608V29a2.139,2.139,0,0,1,.7-1.608A2.228,2.228,0,0,1,40.7,26.7Z" transform="translate(-29.396 -17.696)" fill="#175a76"/>
          <path id="Path_94737" data-name="Path 94737" d="M46.826,72.6h0a2.631,2.631,0,0,1,2.626,2.626h0a2.631,2.631,0,0,1-2.626,2.626h0A2.631,2.631,0,0,1,44.2,75.226h0A2.631,2.631,0,0,1,46.826,72.6Z" transform="translate(-32.087 -38.994)" fill="#f3bf06" fill-rule="evenodd"/>
          <path id="Path_94738" data-name="Path 94738" d="M46.826,72.6h0a2.631,2.631,0,0,1,2.626,2.626h0a2.631,2.631,0,0,1-2.626,2.626h0A2.631,2.631,0,0,1,44.2,75.226h0A2.631,2.631,0,0,1,46.826,72.6Z" transform="translate(-32.087 -38.994)" fill="none" stroke="#175a76" stroke-linecap="round" stroke-linejoin="round" stroke-miterlimit="2.613" stroke-width="2"/>
          <path id="Path_94739" data-name="Path 94739" d="M76.626,72.6h0a2.631,2.631,0,0,1,2.626,2.626h0a2.631,2.631,0,0,1-2.626,2.626h0A2.631,2.631,0,0,1,74,75.226h0A2.7,2.7,0,0,1,76.626,72.6Z" transform="translate(-45.915 -38.994)" fill="#f3bf06" fill-rule="evenodd"/>
          <path id="Path_94740" data-name="Path 94740" d="M76.626,72.6h0a2.631,2.631,0,0,1,2.626,2.626h0a2.631,2.631,0,0,1-2.626,2.626h0A2.631,2.631,0,0,1,74,75.226h0A2.7,2.7,0,0,1,76.626,72.6Z" transform="translate(-45.915 -38.994)" fill="none" stroke="#175a76" stroke-linecap="round" stroke-linejoin="round" stroke-miterlimit="2.613" stroke-width="2"/>
          <path id="Path_94741" data-name="Path 94741" d="M52.418,89.854H36.232l-12.006,12.81h40.2ZM35.91,88.3H52.794a.888.888,0,0,1,.643.268L66.89,102.932a.779.779,0,0,1-.054,1.126.768.768,0,0,1-.536.214H22.4a.824.824,0,0,1-.8-.8.861.861,0,0,1,.268-.59L35.321,88.514a.806.806,0,0,1,.59-.214Z" transform="translate(-21.6 -46.28)" fill="#175a76"/>
          <path id="Path_94742" data-name="Path 94742" d="M63.9,102.107l-4.877-5.2H35.757l-4.877,5.2Zm-3.913-6.485,6.324,6.753a.779.779,0,0,1-.054,1.126.768.768,0,0,1-.536.214H29a.824.824,0,0,1-.8-.8.861.861,0,0,1,.268-.59l6.324-6.753a.861.861,0,0,1,.59-.268H59.394A.9.9,0,0,1,59.983,95.622Z" transform="translate(-24.663 -49.528)" fill="#175a76"/>
          <rect id="Rectangle_6161" data-name="Rectangle 6161" width="1.608" height="4.449" transform="translate(21.921 0.804)" fill="#175a76"/>
          <path id="Path_94743" data-name="Path 94743" d="M50.5,11.508a.8.8,0,0,1,0-1.608H64.225a.8.8,0,0,1,0,1.608Z" transform="translate(-34.639 -9.9)" fill="#175a76"/>
          <path id="Path_94744" data-name="Path 94744" d="M46.6,85.4v1.447a.911.911,0,0,0,1.822,0V85.4Z" transform="translate(-33.201 -44.934)" fill-rule="evenodd" fill="url(#linear-gradient)"/>
          <path id="Path_94745" data-name="Path 94745" d="M78.1,85.4v1.447a.939.939,0,0,0,.911.911h0a.939.939,0,0,0,.911-.911V85.4Z" transform="translate(-47.818 -44.934)" fill-rule="evenodd" fill="url(#linear-gradient)"/>
        </g>
      </g>
    </g>
  </g>
</svg>
