<svg xmlns="http://www.w3.org/2000/svg" xmlns:xlink="http://www.w3.org/1999/xlink" width="40" height="40" viewBox="0 0 40 40"><defs><clipPath id="a"><rect width="40" height="40" fill="#fff" stroke="#707070" stroke-width="1"/></clipPath></defs><g clip-path="url(#a)"><g transform="translate(1.148 0.766)"><g transform="translate(0 0)"><path d="M129.987,93.259H117.061a2.981,2.981,0,0,1-2.981-2.981V57.722a2.981,2.981,0,0,1,2.981-2.981h12.926a2.981,2.981,0,0,1,2.981,2.981V90.278A2.981,2.981,0,0,1,129.987,93.259Z" transform="translate(-114.08 -54.741)" fill="#e8f6fc"/><path d="M222.215,57.726V90.282a2.981,2.981,0,0,1-2.981,2.981h-6.463V54.745h6.463a2.981,2.981,0,0,1,2.981,2.981Z" transform="translate(-203.327 -54.745)" fill="#bfdde7"/><g transform="translate(7.292 4.232)"><g transform="translate(0 23.784)"><path d="M194.585,349.659v1.966a2.152,2.152,0,1,1-4.3,0v-1.966a2.152,2.152,0,0,1,4.3,0Z" transform="translate(-190.281 -347.507)" fill="#fff"/></g><path d="M194.585,101.119V112.3l-.364,1.435.364,1.435v2.165a2.152,2.152,0,0,1-4.3,0v-2.165l.384-1.435-.384-1.435V101.119a2.152,2.152,0,1,1,4.3,0Z" transform="translate(-190.281 -98.967)" fill="#fff"/><g transform="translate(0 13.328)"><path d="M190.281,238.246h4.3v2.871h-4.3Z" transform="translate(-190.281 -238.246)" fill="#df3030"/></g></g><g transform="translate(9.444 28.016)"><path d="M214.923,349.657v1.967a2.152,2.152,0,0,1-2.152,2.152V347.5a2.153,2.153,0,0,1,2.152,2.152Z" transform="translate(-212.771 -347.505)" fill="#e8f6fc"/></g><g transform="translate(9.444 4.232)"><path d="M214.923,112.293l-.364,1.435.364,1.435v2.165a2.152,2.152,0,0,1-2.152,2.152V98.965a2.153,2.153,0,0,1,2.152,2.152Z" transform="translate(-212.771 -98.965)" fill="#e8f6fc"/></g><g transform="translate(9.444 17.56)"><path d="M212.771,238.245h2.152v2.871h-2.152Z" transform="translate(-212.771 -238.245)" fill="#ab0a0a"/></g><g transform="translate(12.882 6.877)"><ellipse cx="8.758" cy="8.757" rx="8.758" ry="8.757" transform="translate(0 12.383) rotate(-45)" fill="#fff"/><path d="M386.928,173.238A8.758,8.758,0,0,1,378.17,182V164.48A8.758,8.758,0,0,1,386.928,173.238Z" transform="translate(-365.781 -160.856)" fill="#d8f1fb"/><g transform="translate(2.092 2.084)"><path d="M280.86,168.985a10.3,10.3,0,1,1,10.3-10.3A10.309,10.309,0,0,1,280.86,168.985Zm0-17.515a7.217,7.217,0,1,0,7.217,7.217A7.225,7.225,0,0,0,280.86,151.47Z" transform="translate(-270.562 -148.39)" fill="#7da6b8"/></g><g transform="translate(12.389 2.084)"><path d="M378.17,148.39v3.08a7.217,7.217,0,1,1,0,14.434v3.08a10.3,10.3,0,0,0,0-20.6Z" transform="translate(-378.17 -148.39)" fill="#175a76"/></g><g transform="translate(10.954 8.04)"><path d="M368.539,216.405h-5.367v-5.777h2.871v2.906h2.5Z" transform="translate(-363.172 -210.628)" fill="#7da6b8"/></g><g transform="translate(12.389 8.04)"><path d="M382.1,213.536v2.871H378.17V210.63h1.435v2.906Z" transform="translate(-378.17 -210.63)" fill="#175a76"/></g></g></g></g></g></svg>