<svg xmlns="http://www.w3.org/2000/svg" xmlns:xlink="http://www.w3.org/1999/xlink" width="24" height="24" viewBox="0 0 24 24">
  <defs>
    <clipPath id="clip-path">
      <rect id="Rectangle_5746" data-name="Rectangle 5746" width="24" height="24" fill="#fff" stroke="#ababab" stroke-width="1.2"/>
    </clipPath>
  </defs>
  <g id="Mask_Group_44571" data-name="Mask Group 44571" clip-path="url(#clip-path)">
    <g id="_7830542_human_resources_search_employees_icon" data-name="7830542_human_resources_search_employees_icon" transform="translate(1.412 1.412)">
      <path id="Path_79764" data-name="Path 79764" d="M.749,22.252a7.367,7.367,0,0,1,.608-2.908c.439-.859,2.27-1.455,4.57-2.289.622-.225.519-1.814.244-2.111a4.442,4.442,0,0,1-1.194-3.483,2.988,2.988,0,0,1,2.562-3.2" transform="translate(-0.749 -1.254)" fill="none" stroke="#ababab" stroke-linecap="round" stroke-linejoin="round" stroke-width="1.5"/>
      <path id="Path_79765" data-name="Path 79765" d="M11.307,13.094a3.917,3.917,0,0,1-1.093,2.169c-.275.3-.374,1.886.245,2.111,2.3.834,4.131,1.43,4.569,2.289a7.5,7.5,0,0,1,.622,2.908" transform="translate(-1.361 -1.573)" fill="none" stroke="#ababab" stroke-linecap="round" stroke-linejoin="round" stroke-width="1.5"/>
      <path id="Path_79766" data-name="Path 79766" d="M19.226,22.6h2.211v-.763c0-2.7-1.868-3.139-3.742-3.829-.621-.231-.519-1.853-.244-2.155a4.066,4.066,0,0,0,1.121-2.382" transform="translate(-1.839 -1.598)" fill="none" stroke="#ababab" stroke-linecap="round" stroke-linejoin="round" stroke-width="1.5"/>
      <circle id="Ellipse_1276" data-name="Ellipse 1276" cx="4.903" cy="4.903" r="4.903" transform="translate(9.105)" fill="none" stroke="#ababab" stroke-linecap="round" stroke-linejoin="round" stroke-width="1.5"/>
      <line id="Line_4" data-name="Line 4" x1="3.537" y1="3.537" transform="translate(17.474 8.369)" fill="none" stroke="#ababab" stroke-linecap="round" stroke-linejoin="round" stroke-width="1.2"/>
    </g>
  </g>
</svg>
