<svg xmlns="http://www.w3.org/2000/svg" xmlns:xlink="http://www.w3.org/1999/xlink" width="48" height="40" viewBox="0 0 48 40"><defs><clipPath id="a"><rect width="30" height="30" fill="#fff" stroke="#707070" stroke-width="1"/></clipPath><clipPath id="b"><rect width="40" height="40" transform="translate(2540 -243)" fill="#fff" stroke="#707070" stroke-width="1"/></clipPath><linearGradient id="c" x1="0.505" y1="0.529" x2="0.272" y2="-0.075" gradientUnits="objectBoundingBox"><stop offset="0" stop-color="#fff" stop-opacity="0"/><stop offset="1" stop-color="#fff"/></linearGradient></defs><g transform="translate(-1223 -809)"><g transform="translate(1223 809)" clip-path="url(#a)"><g transform="translate(0.834 1.22)"><g transform="translate(0 0)"><path d="M28.145,16.718a2.421,2.421,0,0,1-2.09,2.638,2.229,2.229,0,0,1-2.235-1.313l-1.141.1-.861.415a.65.65,0,0,0-.36.5,7.6,7.6,0,0,1-.434,1.677.647.647,0,0,0,.037.551l.307.548.853.572a1.534,1.534,0,1,1-.969,1.644l-.945-.634-.595-.073a.685.685,0,0,0-.557.188,7.7,7.7,0,0,1-1.685,1.218.677.677,0,0,0-.355.557l-.076,1.205.374,1.484a1.905,1.905,0,1,1-1.845.474l-.376-1.493-.58-.933a.85.85,0,0,0-.726-.4h0A7.693,7.693,0,0,1,12.4,25.5a.849.849,0,0,0-.783.246l-.767.809-.859,1.781a1.534,1.534,0,1,1-1.722-.816l.864-1.793.17-1.2a.639.639,0,0,0-.228-.586,7.721,7.721,0,0,1-1.737-1.991.638.638,0,0,0-.541-.305l-1.2-.012-1.315.414a2.145,2.145,0,1,1-.652-1.791l1.4-.439,1.02-.727a.525.525,0,0,0,.217-.472q-.025-.308-.026-.621a7.605,7.605,0,0,1,.7-3.186.523.523,0,0,0-.005-.447l-.3-.618-.82-.619a1.534,1.534,0,1,1,1.059-1.587l.909.686.916.163a7.67,7.67,0,0,1,2.3-1.472l.215-1.306-.271-1.349a2.2,2.2,0,0,1-1.63-1.643A2.148,2.148,0,0,1,11.072,4.1a2.271,2.271,0,0,1,2.676,1.676,2.086,2.086,0,0,1-.942,2.188l.256,1.272.629,1a.225.225,0,0,0,.191.105h0a7.6,7.6,0,0,1,3.942,1.1.222.222,0,0,0,.208.012l.985-.457,1.15-1.245a1.533,1.533,0,1,1,1.4,1.293l-1.15,1.245-.374,1.005a.222.222,0,0,0,.029.208,7.612,7.612,0,0,1,1.066,2.061.653.653,0,0,0,.44.422l.935.262,1.215-.107a2.349,2.349,0,0,1,1.956-1.6,2.29,2.29,0,0,1,2.461,2.181Z" transform="translate(0 -4.053)" fill="#ab0a0a"/></g><g transform="translate(8.216 8.274)"><circle cx="5.666" cy="5.666" r="5.666" fill="#dc3030"/></g><path d="M143.143,152.129a5.667,5.667,0,0,1,4.8-5.6,5.666,5.666,0,1,0,0,11.2A5.667,5.667,0,0,1,143.143,152.129Z" transform="translate(-133.2 -138.189)" fill="#ce2424"/><g transform="translate(2.735 0.412)"><circle cx="1.614" cy="1.614" r="1.614" fill="#ab0a0a"/><circle cx="1.066" cy="1.066" r="1.066" transform="translate(0.107 21.816)" fill="#ab0a0a"/><circle cx="1.57" cy="1.57" r="1.57" transform="translate(19.17 23.063)" fill="#ab0a0a"/><circle cx="1.463" cy="1.463" r="1.463" transform="translate(7.944 10.502)" fill="#ab0a0a"/><circle cx="0.996" cy="0.996" r="0.996" transform="translate(9.586 15.515)" fill="#ab0a0a"/><circle cx="0.836" cy="0.836" r="0.836" transform="translate(12.874 12.691)" fill="#ab0a0a"/></g></g></g><g transform="translate(-1309 1052)" clip-path="url(#b)"><g transform="translate(2541.681 -241.319)"><path d="M.275,345.748a.937.937,0,0,1,0-1.325l10.881-10.881a.937.937,0,1,1,1.325,1.325L1.6,345.748a.937.937,0,0,1-1.325,0Z" transform="translate(0 -309.215)" fill="#045340"/><g transform="translate(6.767 20.71)"><path d="M99.053,295.781l-4.789-4.789a1.729,1.729,0,0,1,0-2.445l1.591-1.591,7.234,7.234-1.591,1.591A1.729,1.729,0,0,1,99.053,295.781Z" transform="translate(-93.758 -286.956)" fill="#57c5ab"/><path d="M125.123,294.187l-1.591,1.591a1.728,1.728,0,0,1-2.444,0l-3.582-3.582v-4.86l.383-.383Z" transform="translate(-115.792 -286.953)" fill="#57c5ab"/></g><g transform="translate(7.63 5.578)"><path d="M114.232,100.465l-8.078-8.078a1.462,1.462,0,0,1,0-2.067l12.6-12.6a1.462,1.462,0,0,1,2.067,0L128.9,85.8a1.462,1.462,0,0,1,0,2.067l-12.6,12.6a1.462,1.462,0,0,1-2.067,0Z" transform="translate(-105.726 -77.295)" fill="#57c5ab"/><path d="M136.481,184.1,129.4,177.02a.962.962,0,0,1,0-1.361l6.282-6.282a.962.962,0,0,1,1.361,0l7.078,7.078a.962.962,0,0,1,0,1.361l-6.282,6.282A.962.962,0,0,1,136.481,184.1Z" transform="translate(-127.432 -162.47)" fill="#fff"/><path d="M108.072,231.2l-1.918,1.918a1.462,1.462,0,0,0,0,2.067l8.078,8.078a1.461,1.461,0,0,0,2.067,0l1.918-1.918Z" transform="translate(-105.726 -220.093)" fill="#039572"/></g><path d="M270.591,127.8l-2.93-2.93,5.979-5.979,2.93,2.93Z" transform="translate(-248.344 -110.312)" fill="#045340"/><path d="M146.385,94.246l-13.463,13.463a1.7,1.7,0,0,0,0,2.4L139,116.193a1.462,1.462,0,0,0,2.067,0l12.6-12.6a1.461,1.461,0,0,0,0-2.067Z" transform="translate(-123.831 -88.451)" fill="url(#c)"/><g transform="translate(26.404 0)"><path d="M368.776,64.548l-2.93-2.93,3.262-3.262,2.93,2.93Z" transform="translate(-365.846 -54.144)" fill="#57c5ab"/><path d="M408.328,58.552v5.86l3.126-3.126-2.93-2.93Z" transform="translate(-405.262 -54.144)" fill="#57c5ab"/><path d="M381.345,9.567,373.957,2.18a.927.927,0,0,1,0-1.311l.6-.6a.927.927,0,0,1,1.311,0l7.387,7.387a.927.927,0,0,1,0,1.311l-.6.6A.927.927,0,0,1,381.345,9.567Z" transform="translate(-373.12 -0.001)" fill="#57c5ab"/></g><path d="M285.038,43.118l-11.28-11.28a1.415,1.415,0,0,1,0-2l.911-.911a1.415,1.415,0,0,1,2,0l11.28,11.28a1.415,1.415,0,0,1,0,2l-.911.911A1.415,1.415,0,0,1,285.038,43.118Z" transform="translate(-253.616 -26.453)" fill="#57c5ab"/></g></g></g></svg>