<svg xmlns="http://www.w3.org/2000/svg" xmlns:xlink="http://www.w3.org/1999/xlink" width="60" height="60" viewBox="0 0 60 60">
  <defs>
    <clipPath id="clip-path">
      <rect id="Rectangle_6135" data-name="Rectangle 6135" width="60" height="60" transform="translate(-12274 -7911)" fill="#fff" stroke="#707070" stroke-width="1"/>
    </clipPath>
  </defs>
  <g id="Mask_Group_44736" data-name="Mask Group 44736" transform="translate(12274 7911)" clip-path="url(#clip-path)">
    <path id="Path_94552" data-name="Path 94552" d="M301.015,364.69,264.6,401.1m16.872-16.872.628-.507a11.361,11.361,0,0,0-.628-17.665l-.628.507a11.356,11.356,0,0,0,.628,17.665Zm0,0,.505.628a11.356,11.356,0,0,0,17.665-.628l-.505-.628a11.356,11.356,0,0,0-17.665.628Zm9.085-9.085.628-.507a11.356,11.356,0,0,0-.628-17.665l-.628.507a11.356,11.356,0,0,0,.628,17.665Zm0,0,.507.626a11.357,11.357,0,0,0,17.665-.626l-.507-.628a11.356,11.356,0,0,0-17.665.628Zm9.085-9.087.628-.505a11.356,11.356,0,0,0-.628-17.665l-.626.505a11.357,11.357,0,0,0,.626,17.665Zm0,0,.507.628a11.356,11.356,0,0,0,17.665-.628l-.507-.626a11.357,11.357,0,0,0-17.665.626Zm-27.472,27.472.628-.505a11.356,11.356,0,0,0-.628-17.665l-.628.505a11.361,11.361,0,0,0,.628,17.665Zm0,0,.507.628a11.356,11.356,0,0,0,17.665-.628l-.507-.626a11.357,11.357,0,0,0-17.665.626Zm36.341-33.126a11.338,11.338,0,0,1-2.411.087l-.8-.087a11.358,11.358,0,0,1,12.85-12.85A11.358,11.358,0,0,1,308.513,360.406Z" transform="translate(-12535.763 -8255.604)" fill="#efd5d6" stroke="#cf9192" stroke-width="1.56"/>
  </g>
</svg>
