<svg xmlns="http://www.w3.org/2000/svg" xmlns:xlink="http://www.w3.org/1999/xlink" width="24" height="24" viewBox="0 0 24 24">
  <defs>
    <clipPath id="clip-path">
      <rect id="Rectangle_5803" data-name="Rectangle 5803" width="24" height="24" transform="translate(5525 -14159)" fill="#b2b2b2" stroke="#b2b2b2" stroke-width="1"/>
    </clipPath>
  </defs>
  <g id="Mask_Group_44577" data-name="Mask Group 44577" transform="translate(-5525 14159)" clip-path="url(#clip-path)">
    <g id="People" transform="translate(5527.286 -14158.238)">
      <g id="Icon-4">
        <path id="notepad" d="M12,17.524h3.81a.381.381,0,0,0,0-.762H12a.381.381,0,1,0,0,.762Zm0-2.286h6.1a.381.381,0,1,0,0-.762H12a.381.381,0,0,0,0,.762Zm-.381-2.667a.381.381,0,0,0,.381.381h6.857a.381.381,0,1,0,0-.762H12a.381.381,0,0,0-.381.381Zm.381-1.9h5.333a.381.381,0,1,0,0-.762H12a.381.381,0,0,0,0,.762Zm0-2.286h6.1a.381.381,0,1,0,0-.762H12a.381.381,0,0,0,0,.762ZM9.714,16.762H8.952a.381.381,0,1,0,0,.762h.762a.381.381,0,1,0,0-.762Zm0-2.286H8.952a.381.381,0,1,0,0,.762h.762a.381.381,0,0,0,0-.762Zm0-2.286H8.952a.381.381,0,1,0,0,.762h.762a.381.381,0,0,0,0-.762Zm0-2.286H8.952a.381.381,0,1,0,0,.762h.762a.381.381,0,0,0,0-.762ZM8.952,8.381h.762a.381.381,0,0,0,0-.762H8.952a.381.381,0,1,0,0,.762ZM10.1,3.81h7.619V2.286H15.771a.381.381,0,0,1-.373-.305,1.524,1.524,0,0,0-2.987,0,.381.381,0,0,1-.373.305H10.1Zm-.762.381V1.9a.381.381,0,0,1,.381-.381H11.75a2.286,2.286,0,0,1,4.31,0H18.1a.381.381,0,0,1,.381.381V4.19a.381.381,0,0,1-.381.381H9.714a.381.381,0,0,1-.381-.381ZM13.9,1.524a.762.762,0,1,0,.762.762.763.763,0,0,0-.762-.762Zm5.714,19.81a.38.38,0,0,0,.269-.112l2.286-2.286a.38.38,0,0,0,.112-.269V3.429a.381.381,0,0,0-.381-.381H19.619a.381.381,0,0,0,0,.762h1.9v14.7L19.35,20.683a.381.381,0,0,0,.269.65ZM8.19,3.048H5.9a.381.381,0,0,0-.381.381V19.81a1.525,1.525,0,0,0,1.524,1.524H18.1a.381.381,0,0,0,.381-.381V18.667a.407.407,0,0,1,.381-.381h1.524a.381.381,0,0,0,0-.762H18.857a1.173,1.173,0,0,0-1.143,1.143v1.9H7.048a.763.763,0,0,1-.762-.762v-16h1.9a.381.381,0,0,0,0-.762Zm15.619.381V20.952a2.007,2.007,0,0,1-1.9,1.9H5.9a2.007,2.007,0,0,1-1.9-1.9V3.429a2.007,2.007,0,0,1,1.9-1.9H8.19a.381.381,0,0,1,0,.762H5.9A1.256,1.256,0,0,0,4.762,3.429V20.952A1.256,1.256,0,0,0,5.9,22.1h16a1.256,1.256,0,0,0,1.143-1.143V3.429A1.256,1.256,0,0,0,21.9,2.286H19.619a.381.381,0,0,1,0-.762H21.9a2.007,2.007,0,0,1,1.9,1.9Z" transform="translate(-4)" fill="#b2b2b2" stroke="#b2b2b2" stroke-width="0.2" fill-rule="evenodd"/>
      </g>
    </g>
  </g>
</svg>
