<svg xmlns="http://www.w3.org/2000/svg" xmlns:xlink="http://www.w3.org/1999/xlink" width="24" height="24" viewBox="0 0 24 24">
  <defs>
    <clipPath id="clip-path">
      <rect id="Rectangle_6217" data-name="Rectangle 6217" width="24" height="24" transform="translate(7127 -8742)" fill="#175a76" stroke="#707070" stroke-width="1"/>
    </clipPath>
  </defs>
  <g id="Mask_Group_44784" data-name="Mask Group 44784" transform="translate(-7127 8742)" clip-path="url(#clip-path)">
    <g id="Group_47627" data-name="Group 47627" transform="translate(7126.482 -8743.277)">
      <path id="Path_94943" data-name="Path 94943" d="M10.5,16.145a1.645,1.645,0,1,1,1.645,1.645A1.645,1.645,0,0,1,10.5,16.145Z" transform="translate(0.579 1.182)" fill="#175a76"/>
      <path id="Path_94944" data-name="Path 94944" d="M7.922,11.4,7.576,8.288a5.439,5.439,0,0,1,0-1.2L7.6,6.862a5.154,5.154,0,0,1,10.246,0l.025.225a5.445,5.445,0,0,1,0,1.2L17.526,11.4l.753.06a2.59,2.59,0,0,1,2.35,2.163,22.91,22.91,0,0,1,0,7.4,2.59,2.59,0,0,1-2.35,2.163l-1.641.131a49.191,49.191,0,0,1-7.828,0l-1.641-.131a2.59,2.59,0,0,1-2.35-2.163,22.912,22.912,0,0,1,0-7.4,2.59,2.59,0,0,1,2.35-2.163Zm4.392-7.456a3.509,3.509,0,0,1,3.9,3.1l.025.225a3.8,3.8,0,0,1,0,.838l-.352,3.17a49.176,49.176,0,0,0-6.321,0l-.352-3.17a3.794,3.794,0,0,1,0-.838l.025-.225A3.509,3.509,0,0,1,12.314,3.946Zm4.193,9.024a47.561,47.561,0,0,0-7.566,0L7.3,13.1a.945.945,0,0,0-.857.789,21.266,21.266,0,0,0,0,6.873.945.945,0,0,0,.857.789l1.641.131a47.536,47.536,0,0,0,7.566,0l1.641-.131A.945.945,0,0,0,19,20.764a21.266,21.266,0,0,0,0-6.873.945.945,0,0,0-.857-.789Z" transform="translate(0)" fill="#175a76" fill-rule="evenodd"/>
    </g>
  </g>
</svg>
