<svg xmlns="http://www.w3.org/2000/svg" xmlns:xlink="http://www.w3.org/1999/xlink" width="60" height="60" viewBox="0 0 60 60">
  <defs>
    <clipPath id="clip-path">
      <rect id="Rectangle_5360" data-name="Rectangle 5360" width="60" height="60" transform="translate(2924 -215)" fill="#fff" stroke="#707070" stroke-width="1"/>
    </clipPath>
  </defs>
  <g id="Mask_Group_653" data-name="Mask Group 653" transform="translate(-2924 215)" clip-path="url(#clip-path)">
    <g id="Group_44457" data-name="Group 44457" transform="translate(2931.083 -213.333)">
      <g id="shield" transform="translate(0)">
        <path id="Path_78548" data-name="Path 78548" d="M70.968,56.538A32.537,32.537,0,0,1,48,25.439V7.067A7.067,7.067,0,0,0,55.067,0h31.8a7.067,7.067,0,0,0,7.067,7.067V25.439A32.537,32.537,0,0,1,70.968,56.538Z" transform="translate(-48 0)" fill="#039572"/>
        <path id="Path_78549" data-name="Path 78549" d="M99.435,81.287A28.85,28.85,0,0,1,80,53.906V38.463A10.651,10.651,0,0,0,86.463,32h25.943a10.651,10.651,0,0,0,6.463,6.463V53.906A28.85,28.85,0,0,1,99.435,81.287Z" transform="translate(-76.466 -28.466)" fill="#fff"/>
      </g>
      <g id="virus_1_" data-name="virus (1)" transform="translate(6.824 10.007)">
        <g id="XMLID_107_" transform="translate(0 0)">
          <g id="Group_44454" data-name="Group 44454">
            <path id="Path_78597" data-name="Path 78597" d="M32.9,18.856a2.83,2.83,0,0,1-2.443,3.083A2.605,2.605,0,0,1,27.842,20.4l-1.333.117-1.006.486a.76.76,0,0,0-.42.583,8.877,8.877,0,0,1-.507,1.961.756.756,0,0,0,.043.644l.359.641,1,.669a1.793,1.793,0,1,1-1.133,1.921l-1.1-.741-.7-.085a.8.8,0,0,0-.651.219,9,9,0,0,1-1.97,1.423.791.791,0,0,0-.415.651L19.917,30.3l.437,1.735a2.227,2.227,0,1,1-2.157.554l-.439-1.745-.678-1.091a.994.994,0,0,0-.849-.465h-.005a8.992,8.992,0,0,1-1.738-.17.992.992,0,0,0-.915.287l-.9.946-1,2.082a1.792,1.792,0,1,1-2.012-.953l1.01-2.1.2-1.406a.747.747,0,0,0-.267-.685,9.025,9.025,0,0,1-2.03-2.327.745.745,0,0,0-.632-.357l-1.4-.014L5,25.081a2.507,2.507,0,1,1-.763-2.094l1.632-.513,1.192-.85a.613.613,0,0,0,.254-.552q-.03-.36-.03-.726A8.889,8.889,0,0,1,8.1,16.623.611.611,0,0,0,8.09,16.1l-.353-.722-.958-.723A1.792,1.792,0,1,1,8.016,12.8l1.062.8,1.07.191a8.965,8.965,0,0,1,2.684-1.72l.251-1.527-.317-1.577a2.57,2.57,0,0,1-1.906-1.92A2.511,2.511,0,0,1,12.941,4.1a2.655,2.655,0,0,1,3.127,1.959,2.438,2.438,0,0,1-1.1,2.557l.3,1.487L16,11.28a.263.263,0,0,0,.223.123h0a8.883,8.883,0,0,1,4.608,1.282.259.259,0,0,0,.243.014l1.152-.534,1.345-1.455a1.792,1.792,0,1,1,1.635,1.512l-1.345,1.455-.437,1.175a.26.26,0,0,0,.034.243A8.9,8.9,0,0,1,24.706,17.5.764.764,0,0,0,25.22,18l1.093.306,1.421-.126a2.746,2.746,0,0,1,2.286-1.872A2.676,2.676,0,0,1,32.9,18.856Z" transform="translate(0 -4.053)" fill="#039572"/>
          </g>
        </g>
        <g id="XMLID_8_" transform="translate(9.603 9.671)">
          <g id="Group_44455" data-name="Group 44455">
            <circle id="Ellipse_987" data-name="Ellipse 987" cx="6.623" cy="6.623" r="6.623" fill="#29b997"/>
          </g>
        </g>
        <path id="Path_78598" data-name="Path 78598" d="M143.435,153.086a6.624,6.624,0,0,1,5.613-6.546,6.622,6.622,0,1,0,0,13.092A6.624,6.624,0,0,1,143.435,153.086Z" transform="translate(-131.813 -136.792)" fill="#26aa8a"/>
        <g id="Group_44456" data-name="Group 44456" transform="translate(3.197 0.482)">
          <circle id="Ellipse_988" data-name="Ellipse 988" cx="1.886" cy="1.886" r="1.886" fill="#039572"/>
          <circle id="Ellipse_989" data-name="Ellipse 989" cx="1.246" cy="1.246" r="1.246" transform="translate(0.125 25.499)" fill="#039572"/>
          <circle id="Ellipse_990" data-name="Ellipse 990" cx="1.835" cy="1.835" r="1.835" transform="translate(22.407 26.957)" fill="#039572"/>
          <circle id="Ellipse_991" data-name="Ellipse 991" cx="1.711" cy="1.711" r="1.711" transform="translate(9.285 12.275)" fill="#039572"/>
          <circle id="Ellipse_992" data-name="Ellipse 992" cx="1.164" cy="1.164" r="1.164" transform="translate(11.205 18.134)" fill="#039572"/>
          <circle id="Ellipse_993" data-name="Ellipse 993" cx="0.978" cy="0.978" r="0.978" transform="translate(15.047 14.834)" fill="#039572"/>
        </g>
      </g>
    </g>
  </g>
</svg>
