<svg xmlns="http://www.w3.org/2000/svg" xmlns:xlink="http://www.w3.org/1999/xlink" width="60" height="60" viewBox="0 0 60 60">
  <defs>
    <clipPath id="clip-path">
      <rect id="Rectangle_5491" data-name="Rectangle 5491" width="60" height="60" fill="#ab0a0a" stroke="#707070" stroke-width="1"/>
    </clipPath>
    <clipPath id="clip-path-2">
      <rect id="Rectangle_5490" data-name="Rectangle 5490" width="56.719" height="3.235" transform="translate(0 0)" fill="#ab0a0a" stroke="#707070" stroke-width="1"/>
    </clipPath>
  </defs>
  <g id="Mask_Group_44516" data-name="Mask Group 44516" clip-path="url(#clip-path)">
    <g id="Group_44956" data-name="Group 44956" transform="translate(0.861 1.51)">
      <g id="qr-code_5_" data-name="qr-code (5)" transform="translate(0.539 0)">
        <path id="Path_79309" data-name="Path 79309" d="M3.707,12.117A1.618,1.618,0,0,0,5.325,10.5V5.324H10.5a1.617,1.617,0,0,0,0-3.235H3.707A1.618,1.618,0,0,0,2.09,3.706V10.5A1.618,1.618,0,0,0,3.707,12.117Z" transform="translate(-1.865 -2.089)" fill="#ab0a0a"/>
        <path id="Path_79310" data-name="Path 79310" d="M422.711,5.324h5.176V10.5a1.617,1.617,0,1,0,3.235,0V3.706A1.618,1.618,0,0,0,429.5,2.089h-6.793a1.617,1.617,0,1,0,0,3.235Z" transform="translate(-375.686 -2.089)" fill="#ab0a0a"/>
        <path id="Path_79311" data-name="Path 79311" d="M10.5,427.882H5.325v-5.176a1.617,1.617,0,0,0-3.235,0V429.5a1.617,1.617,0,0,0,1.617,1.617H10.5a1.617,1.617,0,1,0,0-3.235Z" transform="translate(-1.865 -375.908)" fill="#ab0a0a"/>
        <path id="Path_79312" data-name="Path 79312" d="M429.5,421.089a1.617,1.617,0,0,0-1.617,1.617v5.176h-5.176a1.617,1.617,0,1,0,0,3.235H429.5a1.618,1.618,0,0,0,1.617-1.617v-6.793A1.618,1.618,0,0,0,429.5,421.089Z" transform="translate(-375.686 -375.908)" fill="#ab0a0a"/>
        <rect id="Rectangle_5487" data-name="Rectangle 5487" width="3.558" height="3.558" transform="translate(10.577 40.652)" fill="#ab0a0a"/>
        <path id="Path_79313" data-name="Path 79313" d="M93.672,68.485v-18.2a1.7,1.7,0,0,0-1.693-1.693H50.172a1.7,1.7,0,0,0-1.693,1.693v18.2h23.25V65.358a1.617,1.617,0,1,1,3.235,0v3.127ZM50.594,52.957a1.618,1.618,0,0,1,1.617-1.617H59a1.618,1.618,0,0,1,1.617,1.617V59.75A1.618,1.618,0,0,1,59,61.368H52.211a1.618,1.618,0,0,1-1.617-1.617ZM64.18,66.328H52.211a1.617,1.617,0,0,1,0-3.235H64.18a1.617,1.617,0,1,1,0,3.235ZM70.219,66a1.617,1.617,0,0,1-3.235,0V63.74a1.617,1.617,0,1,1,3.235,0Zm1.833-7.656a1.617,1.617,0,1,1-3.235,0v-1.51H65.151v.755a1.617,1.617,0,0,1-3.235,0V52.957a1.617,1.617,0,0,1,3.235,0V53.6h3.666v-.647a1.617,1.617,0,1,1,3.235,0Zm9.489-5.392a1.618,1.618,0,0,1,1.617-1.617h6.793a1.618,1.618,0,0,1,1.617,1.617V59.75a1.618,1.618,0,0,1-1.617,1.617H83.159a1.617,1.617,0,0,1-1.617-1.617Zm0,10.244h8.087a1.617,1.617,0,0,1,0,3.235H81.541a1.617,1.617,0,1,1,0-3.235Zm-6.793-1.725V52.957a1.617,1.617,0,0,1,3.235,0v8.519a1.617,1.617,0,1,1-3.235,0Z" transform="translate(-43.251 -43.576)" fill="#ab0a0a"/>
        <rect id="Rectangle_5488" data-name="Rectangle 5488" width="3.558" height="3.558" transform="translate(41.525 10.999)" fill="#ab0a0a"/>
        <rect id="Rectangle_5489" data-name="Rectangle 5489" width="3.558" height="3.558" transform="translate(10.577 10.999)" fill="#ab0a0a"/>
        <path id="Path_79314" data-name="Path 79314" d="M1.617,266.324h3.61v17.124a1.7,1.7,0,0,0,1.693,1.693H48.728a1.7,1.7,0,0,0,1.693-1.693V266.324h3.622a1.617,1.617,0,1,0,0-3.235H1.617a1.617,1.617,0,1,0,0,3.235Zm12.626,0v3.019a1.617,1.617,0,0,1-3.235,0v-3.019Zm3.127,14.449a1.618,1.618,0,0,1-1.617,1.618H8.96a1.618,1.618,0,0,1-1.617-1.618V273.98a1.618,1.618,0,0,1,1.617-1.617h6.793a1.618,1.618,0,0,1,1.617,1.617Zm4.637-3.45a1.617,1.617,0,0,1-3.235,0v-4.745a1.617,1.617,0,1,1,3.235,0Zm2.157-.863a1.618,1.618,0,0,1,1.617-1.618h1.4a1.617,1.617,0,0,1,0,3.235h-1.4A1.618,1.618,0,0,1,24.164,276.46Zm10.028,4.313a1.618,1.618,0,0,1-1.617,1.618H27.722a1.617,1.617,0,0,1,0-3.235h3.235V272.47a1.617,1.617,0,0,1,3.235,0Zm1.078-7.764a1.618,1.618,0,0,1,1.617-1.617h1.4a1.618,1.618,0,0,1,0,3.235h-1.4A1.618,1.618,0,0,1,35.27,273.009Zm12.185,7.764a1.617,1.617,0,1,1-3.235,0v-1.617H38.829a1.617,1.617,0,1,1,0-3.235H44.22v-4.852a1.617,1.617,0,1,1,3.235,0Zm-6.47-11.861a1.617,1.617,0,0,1-3.235,0v-2.588h3.235Zm-9.273-1.294a1.618,1.618,0,0,1-1.617,1.618H19.958a1.616,1.616,0,0,1-.968-2.912H31.712Z" transform="translate(0 -234.945)" fill="#ab0a0a"/>
      </g>
      <g id="Mask_Group_44515" data-name="Mask Group 44515" transform="translate(0 28.144)" clip-path="url(#clip-path-2)">
        <path id="Path_79315" data-name="Path 79315" d="M1.617,266.324h3.61v17.124a1.7,1.7,0,0,0,1.693,1.693H48.728a1.7,1.7,0,0,0,1.693-1.693V266.324h3.622a1.617,1.617,0,1,0,0-3.235H1.617a1.617,1.617,0,1,0,0,3.235Zm12.626,0v3.019a1.617,1.617,0,0,1-3.235,0v-3.019Zm3.127,14.449a1.618,1.618,0,0,1-1.617,1.618H8.96a1.618,1.618,0,0,1-1.617-1.618V273.98a1.618,1.618,0,0,1,1.617-1.617h6.793a1.618,1.618,0,0,1,1.617,1.617Zm4.637-3.45a1.617,1.617,0,0,1-3.235,0v-4.745a1.617,1.617,0,1,1,3.235,0Zm2.157-.863a1.618,1.618,0,0,1,1.617-1.618h1.4a1.617,1.617,0,0,1,0,3.235h-1.4A1.618,1.618,0,0,1,24.164,276.46Zm10.028,4.313a1.618,1.618,0,0,1-1.617,1.618H27.722a1.617,1.617,0,0,1,0-3.235h3.235V272.47a1.617,1.617,0,0,1,3.235,0Zm1.078-7.764a1.618,1.618,0,0,1,1.617-1.617h1.4a1.618,1.618,0,0,1,0,3.235h-1.4A1.618,1.618,0,0,1,35.27,273.009Zm12.185,7.764a1.617,1.617,0,1,1-3.235,0v-1.617H38.829a1.617,1.617,0,1,1,0-3.235H44.22v-4.852a1.617,1.617,0,1,1,3.235,0Zm-6.47-11.861a1.617,1.617,0,0,1-3.235,0v-2.588h3.235Zm-9.273-1.294a1.618,1.618,0,0,1-1.617,1.618H19.958a1.616,1.616,0,0,1-.968-2.912H31.712Z" transform="translate(0.539 -263.089)" fill="#ab0a0a"/>
      </g>
    </g>
  </g>
</svg>
