<svg xmlns="http://www.w3.org/2000/svg" xmlns:xlink="http://www.w3.org/1999/xlink" width="40" height="40" viewBox="0 0 40 40">
  <defs>
    <clipPath id="clip-path">
      <rect id="Rectangle_5432" data-name="Rectangle 5432" width="40" height="40" transform="translate(9989 -1560)" fill="#039572" stroke="#707070" stroke-width="1"/>
    </clipPath>
    <clipPath id="clip-path-2">
      <rect id="Rectangle_5431" data-name="Rectangle 5431" width="38.891" height="2.218" transform="translate(0 0)" fill="#039572" stroke="#707070" stroke-width="1"/>
    </clipPath>
  </defs>
  <g id="Mask_Group_44478" data-name="Mask Group 44478" transform="translate(-9989 1560)" clip-path="url(#clip-path)">
    <g id="Group_44808" data-name="Group 44808" transform="translate(9989.591 -1558.965)">
      <g id="qr-code_5_" data-name="qr-code (5)" transform="translate(0.37 0)">
        <path id="Path_79045" data-name="Path 79045" d="M3.2,8.965A1.109,1.109,0,0,0,4.308,7.856V4.307H7.857a1.109,1.109,0,1,0,0-2.218H3.2A1.109,1.109,0,0,0,2.09,3.2V7.856A1.109,1.109,0,0,0,3.2,8.965Z" transform="translate(-1.935 -2.089)" fill="#039572"/>
        <path id="Path_79046" data-name="Path 79046" d="M422.2,4.307h3.549V7.856a1.109,1.109,0,1,0,2.218,0V3.2a1.109,1.109,0,0,0-1.109-1.109H422.2a1.109,1.109,0,1,0,0,2.218Z" transform="translate(-389.959 -2.089)" fill="#039572"/>
        <path id="Path_79047" data-name="Path 79047" d="M7.857,425.747H4.308V422.2a1.109,1.109,0,1,0-2.218,0v4.658A1.109,1.109,0,0,0,3.2,427.965H7.857a1.109,1.109,0,0,0,0-2.218Z" transform="translate(-1.935 -390.109)" fill="#039572"/>
        <path id="Path_79048" data-name="Path 79048" d="M426.86,421.089a1.109,1.109,0,0,0-1.109,1.109v3.549H422.2a1.109,1.109,0,0,0,0,2.218h4.658a1.109,1.109,0,0,0,1.109-1.109V422.2A1.109,1.109,0,0,0,426.86,421.089Z" transform="translate(-389.959 -390.109)" fill="#039572"/>
        <rect id="Rectangle_5428" data-name="Rectangle 5428" width="2.44" height="2.44" transform="translate(7.252 27.874)" fill="#039572"/>
        <path id="Path_79049" data-name="Path 79049" d="M79.467,62.231V49.751a1.164,1.164,0,0,0-1.161-1.161H49.64a1.164,1.164,0,0,0-1.161,1.161v12.48H64.421V60.087a1.109,1.109,0,1,1,2.218,0v2.144ZM49.929,51.584a1.109,1.109,0,0,1,1.109-1.109H55.7a1.109,1.109,0,0,1,1.109,1.109v4.658A1.109,1.109,0,0,1,55.7,57.351H51.038a1.109,1.109,0,0,1-1.109-1.109Zm9.316,9.168H51.038a1.109,1.109,0,0,1,0-2.218h8.207a1.109,1.109,0,0,1,0,2.218Zm4.14-.222a1.109,1.109,0,0,1-2.218,0V58.978a1.109,1.109,0,1,1,2.218,0Zm1.257-5.249a1.109,1.109,0,0,1-2.218,0V54.246H59.91v.518a1.109,1.109,0,0,1-2.218,0V51.584a1.109,1.109,0,0,1,2.218,0v.444h2.514v-.444a1.109,1.109,0,1,1,2.218,0Zm6.506-3.7a1.109,1.109,0,0,1,1.109-1.109h4.658a1.109,1.109,0,0,1,1.109,1.109v4.658a1.109,1.109,0,0,1-1.109,1.109H72.258a1.109,1.109,0,0,1-1.109-1.109Zm0,7.024h5.545a1.109,1.109,0,0,1,0,2.218H71.149a1.109,1.109,0,0,1,0-2.218Zm-4.658-1.183V51.584a1.109,1.109,0,0,1,2.218,0v5.841a1.109,1.109,0,0,1-2.218,0Z" transform="translate(-44.895 -45.152)" fill="#039572"/>
        <rect id="Rectangle_5429" data-name="Rectangle 5429" width="2.44" height="2.44" transform="translate(28.472 7.542)" fill="#039572"/>
        <rect id="Rectangle_5430" data-name="Rectangle 5430" width="2.44" height="2.44" transform="translate(7.252 7.542)" fill="#039572"/>
        <path id="Path_79050" data-name="Path 79050" d="M1.109,265.307H3.584v11.741a1.164,1.164,0,0,0,1.161,1.161H33.411a1.164,1.164,0,0,0,1.161-1.161V265.307h2.483a1.109,1.109,0,0,0,0-2.218H1.109a1.109,1.109,0,0,0,0,2.218Zm8.657,0v2.07a1.109,1.109,0,0,1-2.218,0v-2.07Zm2.144,9.908a1.109,1.109,0,0,1-1.109,1.109H6.143a1.109,1.109,0,0,1-1.109-1.109v-4.658a1.109,1.109,0,0,1,1.109-1.109H10.8a1.109,1.109,0,0,1,1.109,1.109Zm3.179-2.366a1.109,1.109,0,0,1-2.218,0V269.6a1.109,1.109,0,1,1,2.218,0Zm1.479-.592a1.109,1.109,0,0,1,1.109-1.109h.961a1.109,1.109,0,0,1,0,2.218h-.961A1.109,1.109,0,0,1,16.569,272.257Zm6.876,2.958a1.109,1.109,0,0,1-1.109,1.109H19.008a1.109,1.109,0,0,1,0-2.218h2.218v-4.584a1.109,1.109,0,0,1,2.218,0Zm.739-5.323a1.109,1.109,0,0,1,1.109-1.109h.961a1.109,1.109,0,0,1,0,2.218h-.961A1.109,1.109,0,0,1,24.184,269.891Zm8.355,5.323a1.109,1.109,0,1,1-2.218,0v-1.109h-3.7a1.109,1.109,0,1,1,0-2.218h3.7V268.56a1.109,1.109,0,0,1,2.218,0ZM28.1,267.082a1.109,1.109,0,0,1-2.218,0v-1.775H28.1Zm-6.359-.887a1.109,1.109,0,0,1-1.109,1.109h-6.95a1.108,1.108,0,0,1-.663-2h8.723Z" transform="translate(0 -243.791)" fill="#039572"/>
      </g>
      <g id="Mask_Group_44477" data-name="Mask Group 44477" transform="translate(0 19.298)" clip-path="url(#clip-path-2)">
        <path id="Path_79051" data-name="Path 79051" d="M1.109,265.307H3.584v11.741a1.164,1.164,0,0,0,1.161,1.161H33.411a1.164,1.164,0,0,0,1.161-1.161V265.307h2.483a1.109,1.109,0,0,0,0-2.218H1.109a1.109,1.109,0,0,0,0,2.218Zm8.657,0v2.07a1.109,1.109,0,0,1-2.218,0v-2.07Zm2.144,9.908a1.109,1.109,0,0,1-1.109,1.109H6.143a1.109,1.109,0,0,1-1.109-1.109v-4.658a1.109,1.109,0,0,1,1.109-1.109H10.8a1.109,1.109,0,0,1,1.109,1.109Zm3.179-2.366a1.109,1.109,0,0,1-2.218,0V269.6a1.109,1.109,0,1,1,2.218,0Zm1.479-.592a1.109,1.109,0,0,1,1.109-1.109h.961a1.109,1.109,0,0,1,0,2.218h-.961A1.109,1.109,0,0,1,16.569,272.257Zm6.876,2.958a1.109,1.109,0,0,1-1.109,1.109H19.008a1.109,1.109,0,0,1,0-2.218h2.218v-4.584a1.109,1.109,0,0,1,2.218,0Zm.739-5.323a1.109,1.109,0,0,1,1.109-1.109h.961a1.109,1.109,0,0,1,0,2.218h-.961A1.109,1.109,0,0,1,24.184,269.891Zm8.355,5.323a1.109,1.109,0,1,1-2.218,0v-1.109h-3.7a1.109,1.109,0,1,1,0-2.218h3.7V268.56a1.109,1.109,0,0,1,2.218,0ZM28.1,267.082a1.109,1.109,0,0,1-2.218,0v-1.775H28.1Zm-6.359-.887a1.109,1.109,0,0,1-1.109,1.109h-6.95a1.108,1.108,0,0,1-.663-2h8.723Z" transform="translate(0.37 -263.089)" fill="#039572"/>
      </g>
    </g>
  </g>
</svg>
