<svg xmlns="http://www.w3.org/2000/svg" xmlns:xlink="http://www.w3.org/1999/xlink" width="30" height="30" viewBox="0 0 30 30"><defs><clipPath id="a"><rect width="30" height="30" fill="#fff" stroke="#707070" stroke-width="1"/></clipPath></defs><g transform="translate(-105 -1001)"><g transform="translate(105 1001)" clip-path="url(#a)"><g transform="translate(-0.206 13.111) rotate(-50)"><g transform="translate(0)"><path d="M25.723,11.48a2.723,2.723,0,0,0-1.264-1.264L3.911.273A2.723,2.723,0,0,0,.2,3.736l3.573,8.931L.2,21.6a2.724,2.724,0,0,0,3.716,3.465l20.548-9.946A2.723,2.723,0,0,0,25.723,11.48ZM3.12,23.428a.908.908,0,0,1-1.238-1.155l3.479-8.7H23.482ZM5.361,11.76l-3.479-8.7a.885.885,0,0,1,.224-1A.88.88,0,0,1,3.12,1.91l20.361,9.85H5.361Z" fill="#fff"/></g></g></g></g></svg>