<svg id="_9043878_api_icon" data-name="9043878_api_icon" xmlns="http://www.w3.org/2000/svg" xmlns:xlink="http://www.w3.org/1999/xlink" width="24" height="24" viewBox="0 0 24 24"  >
    <defs>
        <linearGradient id="linear-gradient" x1="0.5" x2="0.5" y2="1" gradientUnits="objectBoundingBox">
            <stop offset="0" stop-color="#b2b2b2"/>
            <stop offset="1" stop-color="#b2b2b2"/>
        </linearGradient>
    </defs>
    <path id="Path_80225" data-name="Path 80225" d="M19.143,16.286a2.757,2.757,0,0,0-1.429.407l-2.207-2.214a4.286,4.286,0,0,0,0-4.957l2.207-2.214a2.757,2.757,0,0,0,1.429.407,2.857,2.857,0,1,0-2.857-2.857,2.757,2.757,0,0,0,.407,1.429L14.479,8.493a4.286,4.286,0,0,0-4.957,0L7.307,6.286a2.757,2.757,0,0,0,.407-1.429A2.857,2.857,0,1,0,4.857,7.714a2.757,2.757,0,0,0,1.429-.407L8.493,9.521a4.286,4.286,0,0,0,0,4.957L6.286,16.693a2.757,2.757,0,0,0-1.429-.407,2.857,2.857,0,1,0,2.857,2.857,2.757,2.757,0,0,0-.407-1.429l2.214-2.207a4.286,4.286,0,0,0,4.957,0l2.214,2.207a2.757,2.757,0,0,0-.407,1.429,2.857,2.857,0,1,0,2.857-2.857Zm0-12.857a1.429,1.429,0,1,1-1.429,1.429A1.429,1.429,0,0,1,19.143,3.429ZM3.429,4.857A1.429,1.429,0,1,1,4.857,6.286,1.429,1.429,0,0,1,3.429,4.857ZM4.857,20.571a1.429,1.429,0,1,1,1.429-1.429A1.429,1.429,0,0,1,4.857,20.571ZM12,14.857A2.857,2.857,0,1,1,14.857,12,2.857,2.857,0,0,1,12,14.857Zm7.143,5.714a1.429,1.429,0,1,1,1.429-1.429A1.429,1.429,0,0,1,19.143,20.571Z" fill="url(#linear-gradient)"/>
    <rect id="Rectangle_5885" data-name="Rectangle 5885" width="24" height="24" fill="none"/>
</svg>
