<svg xmlns="http://www.w3.org/2000/svg" xmlns:xlink="http://www.w3.org/1999/xlink" width="60" height="60" viewBox="0 0 60 60">
  <defs>
    <clipPath id="clip-path">
      <rect id="Rectangle_5355" data-name="Rectangle 5355" width="60" height="60" transform="translate(0.447)" fill="#fff" stroke="#707070" stroke-width="1"/>
    </clipPath>
  </defs>
  <g id="Mask_Group_648" data-name="Mask Group 648" transform="translate(-0.447)" clip-path="url(#clip-path)">
    <g id="virus_1_" data-name="virus (1)" transform="translate(2.114 2.44)">
      <g id="XMLID_107_" transform="translate(0 0)">
        <g id="Group_44433" data-name="Group 44433">
          <path id="Path_78546" data-name="Path 78546" d="M56.291,29.382a4.842,4.842,0,0,1-4.18,5.276,4.458,4.458,0,0,1-4.469-2.626l-2.281.2-1.722.831a1.3,1.3,0,0,0-.719,1,15.189,15.189,0,0,1-.868,3.355,1.294,1.294,0,0,0,.074,1.1l.614,1.1,1.706,1.145a3.067,3.067,0,1,1-1.938,3.287l-1.891-1.268-1.19-.145a1.37,1.37,0,0,0-1.113.375,15.4,15.4,0,0,1-3.371,2.436,1.354,1.354,0,0,0-.71,1.113l-.151,2.41.748,2.969a3.81,3.81,0,1,1-3.691.948L30.387,49.9l-1.161-1.866a1.7,1.7,0,0,0-1.453-.8h-.009a15.387,15.387,0,0,1-2.974-.291,1.7,1.7,0,0,0-1.566.492l-1.534,1.619-1.717,3.563a3.067,3.067,0,1,1-3.443-1.631L18.258,47.4,18.6,45a1.279,1.279,0,0,0-.457-1.172,15.443,15.443,0,0,1-3.474-3.982,1.275,1.275,0,0,0-1.082-.61l-2.4-.023-2.631.827a4.291,4.291,0,1,1-1.3-3.582l2.792-.878,2.039-1.454a1.05,1.05,0,0,0,.435-.945q-.051-.615-.051-1.242a15.211,15.211,0,0,1,1.392-6.371,1.046,1.046,0,0,0-.01-.894l-.6-1.235L11.6,22.2a3.067,3.067,0,1,1,2.117-3.175l1.817,1.371,1.831.327a15.34,15.34,0,0,1,4.593-2.943l.43-2.612-.543-2.7A4.4,4.4,0,0,1,18.585,9.18a4.3,4.3,0,0,1,3.559-5.042A4.543,4.543,0,0,1,27.5,7.49a4.171,4.171,0,0,1-1.885,4.376l.512,2.545,1.258,2.008a.45.45,0,0,0,.381.21h0a15.2,15.2,0,0,1,7.884,2.194.444.444,0,0,0,.416.023l1.971-.913,2.3-2.489a3.067,3.067,0,1,1,2.8,2.587l-2.3,2.489-.747,2.01a.444.444,0,0,0,.058.416,15.223,15.223,0,0,1,2.131,4.123,1.307,1.307,0,0,0,.88.845l1.871.524,2.431-.215a4.7,4.7,0,0,1,3.912-3.2,4.579,4.579,0,0,1,4.922,4.362Z" transform="translate(0 -4.053)" fill="#ab0a0a"/>
        </g>
      </g>
      <g id="XMLID_8_" transform="translate(16.433 16.548)">
        <g id="Group_44434" data-name="Group 44434">
          <circle id="Ellipse_977" data-name="Ellipse 977" cx="11.332" cy="11.332" r="11.332" fill="#dc3030"/>
        </g>
      </g>
      <path id="Path_78547" data-name="Path 78547" d="M144.87,157.795a11.335,11.335,0,0,1,9.6-11.2,11.332,11.332,0,1,0,0,22.4A11.335,11.335,0,0,1,144.87,157.795Z" transform="translate(-124.983 -129.915)" fill="#ce2424"/>
      <g id="Group_44435" data-name="Group 44435" transform="translate(5.471 0.825)">
        <circle id="Ellipse_978" data-name="Ellipse 978" cx="3.227" cy="3.227" r="3.227" fill="#ab0a0a"/>
        <circle id="Ellipse_979" data-name="Ellipse 979" cx="2.131" cy="2.131" r="2.131" transform="translate(0.213 43.633)" fill="#ab0a0a"/>
        <circle id="Ellipse_980" data-name="Ellipse 980" cx="3.14" cy="3.14" r="3.14" transform="translate(38.341 46.126)" fill="#ab0a0a"/>
        <circle id="Ellipse_981" data-name="Ellipse 981" cx="2.927" cy="2.927" r="2.927" transform="translate(15.888 21.003)" fill="#ab0a0a"/>
        <circle id="Ellipse_982" data-name="Ellipse 982" cx="1.992" cy="1.992" r="1.992" transform="translate(19.173 31.029)" fill="#ab0a0a"/>
        <circle id="Ellipse_983" data-name="Ellipse 983" cx="1.673" cy="1.673" r="1.673" transform="translate(25.748 25.382)" fill="#ab0a0a"/>
      </g>
    </g>
  </g>
</svg>
