<svg xmlns="http://www.w3.org/2000/svg" xmlns:xlink="http://www.w3.org/1999/xlink" width="71" height="71" viewBox="0 0 71 71">
  <defs>
    <clipPath id="clip-path">
      <rect id="Rectangle_6490" data-name="Rectangle 6490" width="71" height="71" transform="translate(582 -19586)" fill="#fff" stroke="#707070" stroke-width="1"/>
    </clipPath>
  </defs>
  <g id="Mask_Group_44815" data-name="Mask Group 44815" transform="translate(-582 19586)" clip-path="url(#clip-path)">
    <g id="Layer_27" data-name="Layer 27" transform="translate(586 -19579)">
      <path id="Path_96480" data-name="Path 96480" d="M19,2H45a1,1,0,0,1,1,1v7H18V3A1,1,0,0,1,19,2Z" fill="#4d4d4d"/>
      <path id="Path_96481" data-name="Path 96481" d="M42,2H19a1,1,0,0,0-1,1v7H43V3A1,1,0,0,0,42,2Z" fill="#707070"/>
      <path id="Path_96482" data-name="Path 96482" d="M54,20h4a2,2,0,0,1,2,2v2a2,2,0,0,1-2,2H54" fill="#ffc700"/>
      <path id="Path_96483" data-name="Path 96483" d="M10,20H6a2,2,0,0,0-2,2v2a2,2,0,0,0,2,2h4" fill="#ffc700"/>
      <path id="Path_96484" data-name="Path 96484" d="M8,30l3.68-18.39a2,2,0,0,1,2-1.61H50.36a2,2,0,0,1,2,1.61L56,30" fill="#d8a900"/>
      <path id="Path_96485" data-name="Path 96485" d="M47.36,10H13.64a2,2,0,0,0-2,1.61L8,30H53L49.32,11.61A2,2,0,0,0,47.36,10Z" fill="#ffc700"/>
      <path id="Path_96486" data-name="Path 96486" d="M56,30,52.8,14H11.2L8,30Z" fill="#7da6b8"/>
      <path id="Path_96487" data-name="Path 96487" d="M11.2,14,8,30H53L49.8,14Z" fill="#bfdde7"/>
      <path id="Path_96488" data-name="Path 96488" d="M4,42V32a2,2,0,0,1,2-2H58a2,2,0,0,1,2,2V42" fill="#d8a900"/>
      <path id="Path_96489" data-name="Path 96489" d="M55,30H6a2,2,0,0,0-2,2V42H57V32A2,2,0,0,0,55,30Z" fill="#ffc700"/>
      <rect id="Rectangle_6473" data-name="Rectangle 6473" width="8" height="4" rx="2" transform="translate(48 34)" fill="#993839"/>
      <path id="Path_96490" data-name="Path 96490" d="M53,36a2,2,0,0,0-2-2H50a2,2,0,0,0,0,4h1A2,2,0,0,0,53,36Z" fill="#cc4b4c"/>
      <rect id="Rectangle_6474" data-name="Rectangle 6474" width="8" height="4" rx="2" transform="translate(8 34)" fill="#993839"/>
      <path id="Path_96491" data-name="Path 96491" d="M13,36a2,2,0,0,0-2-2H10a2,2,0,0,0,0,4h1A2,2,0,0,0,13,36Z" fill="#cc4b4c"/>
      <rect id="Rectangle_6475" data-name="Rectangle 6475" width="24" height="8" transform="translate(20 34)" fill="#b2b2b2"/>
      <path id="Path_96492" data-name="Path 96492" d="M20,48v2a2,2,0,0,0,2,2H42a2,2,0,0,0,2-2V48" fill="#707070"/>
      <path id="Path_96493" data-name="Path 96493" d="M41,50V48H20v2a2,2,0,0,0,2,2H39A2,2,0,0,0,41,50Z" fill="#b2b2b2"/>
      <path id="Path_96494" data-name="Path 96494" d="M48,48v6a2,2,0,0,0,2,2h6a2,2,0,0,0,2-2V48" fill="#4d4d4d"/>
      <path id="Path_96495" data-name="Path 96495" d="M55,54V48H48v6a2,2,0,0,0,2,2h3A2,2,0,0,0,55,54Z" fill="#666"/>
      <path id="Path_96496" data-name="Path 96496" d="M6,48v6a2,2,0,0,0,2,2h6a2,2,0,0,0,2-2V48" fill="#4d4d4d"/>
      <path id="Path_96497" data-name="Path 96497" d="M13,54V48H6v6a2,2,0,0,0,2,2h3A2,2,0,0,0,13,54Z" fill="#666"/>
      <path id="Path_96498" data-name="Path 96498" d="M0,0H60V6H0Z" transform="translate(2 42)" fill="#4d4d4d"/>
      <rect id="Rectangle_6478" data-name="Rectangle 6478" width="57" height="6" transform="translate(2 42)" fill="#707070"/>
      <rect id="Rectangle_6479" data-name="Rectangle 6479" width="18" height="2" transform="translate(23 37)" fill="#707070"/>
      <rect id="Rectangle_6480" data-name="Rectangle 6480" width="22" height="2" transform="translate(21 5)" fill="#3a3a3a"/>
      <rect id="Rectangle_6481" data-name="Rectangle 6481" width="2" height="16" transform="translate(31 14)" fill="#7da6b8"/>
      <rect id="Rectangle_6482" data-name="Rectangle 6482" width="8.49" height="2" transform="translate(35.298 24.29) rotate(-45)" fill="#fff" opacity="0.34"/>
      <rect id="Rectangle_6483" data-name="Rectangle 6483" width="8.49" height="2" transform="translate(43.295 24.293) rotate(-45)" fill="#fff" opacity="0.34"/>
      <rect id="Rectangle_6484" data-name="Rectangle 6484" width="8.49" height="2" transform="translate(13.292 24.287) rotate(-45)" fill="#fff" opacity="0.34"/>
      <rect id="Rectangle_6485" data-name="Rectangle 6485" width="8.49" height="2" transform="translate(21.299 24.29) rotate(-45)" fill="#fff" opacity="0.34"/>
      <rect id="Rectangle_6486" data-name="Rectangle 6486" width="3" height="2" transform="translate(6 51)" fill="#3a3a3a"/>
      <rect id="Rectangle_6487" data-name="Rectangle 6487" width="3" height="2" transform="translate(13 51)" fill="#3a3a3a"/>
      <rect id="Rectangle_6488" data-name="Rectangle 6488" width="3" height="2" transform="translate(48 51)" fill="#3a3a3a"/>
      <rect id="Rectangle_6489" data-name="Rectangle 6489" width="3" height="2" transform="translate(55 51)" fill="#3a3a3a"/>
    </g>
  </g>
</svg>
