<svg xmlns="http://www.w3.org/2000/svg" xmlns:xlink="http://www.w3.org/1999/xlink" width="60" height="60" viewBox="0 0 60 60">
  <defs>
    <clipPath id="clip-path">
      <rect id="Rectangle_5954" data-name="Rectangle 5954" width="60" height="60" transform="translate(-12395 -7755)" fill="#fff" stroke="#707070" stroke-width="1"/>
    </clipPath>
  </defs>
  <g id="Mask_Group_44637" data-name="Mask Group 44637" transform="translate(12395 7755)" clip-path="url(#clip-path)">
    <path id="Path_80406" data-name="Path 80406" d="M642.332,276.719a6.181,6.181,0,1,1-6.181,6.181A6.182,6.182,0,0,1,642.332,276.719Zm0,0V255.086m12.362-6.181h9.271m-9.271,6.181h9.271m-9.271,6.181h9.271m-9.271,6.181h9.271m-21.633-27.815a6.182,6.182,0,0,1,6.181,6.181l0,26.379a12.363,12.363,0,1,1-12.366,0V245.814A6.181,6.181,0,0,1,642.332,239.633Z" transform="translate(-13011.591 -7992.606)" fill="#f9e8d2" stroke="#e5c189" stroke-linejoin="round" stroke-width="1.56"/>
  </g>
</svg>
