<svg xmlns="http://www.w3.org/2000/svg" xmlns:xlink="http://www.w3.org/1999/xlink" width="30" height="30" viewBox="0 0 30 30">
  <defs>
    <clipPath id="clip-path">
      <rect id="Rectangle_4666" data-name="Rectangle 4666" width="30" height="30"/>
    </clipPath>
  </defs>
  <g id="Group_17344" data-name="Group 17344" transform="translate(-1273 -40)" fill="#a2a2a2">
    <g id="Group_17342" data-name="Group 17342" transform="translate(1273 40)">
      <g id="Mask_Group_498" data-name="Mask Group 498" clip-path="url(#clip-path)">
        <g id="headphones_1_" data-name="headphones (1)" transform="translate(2.364 0.619)">
          <g id="Group_16488" data-name="Group 16488" transform="translate(0)">
            <path id="Path_76572" data-name="Path 76572" d="M43.664,0A12.679,12.679,0,0,0,31,12.664v6.867a2.536,2.536,0,0,0,2.533,2.533h.989a2.533,2.533,0,0,0,4.92-.844V14.353a2.533,2.533,0,0,0-4.92-.844h-.989a2.521,2.521,0,0,0-.844.145v-.989a10.976,10.976,0,1,1,21.951,0v.989a2.521,2.521,0,0,0-.844-.145h-.989a2.533,2.533,0,0,0-4.92.844V21.22a2.533,2.533,0,0,0,3.268,2.424,2.537,2.537,0,0,1-2.424,1.8H46.052a2.533,2.533,0,1,0,0,1.689H48.73a4.226,4.226,0,0,0,4.221-4.221v-.844H53.8a2.536,2.536,0,0,0,2.533-2.533V12.664A12.679,12.679,0,0,0,43.664,0Zm-7.6,14.353a.844.844,0,1,1,1.689,0V21.22a.844.844,0,1,1-1.689,0Zm-2.533.844h.844v5.178h-.844a.845.845,0,0,1-.844-.844v-3.49A.845.845,0,0,1,33.533,15.2ZM43.664,27.129a.844.844,0,1,1,.844-.844A.845.845,0,0,1,43.664,27.129Zm7.6-5.91a.844.844,0,1,1-1.689,0V14.353a.844.844,0,1,1,1.689,0Zm3.377-1.689a.845.845,0,0,1-.844.844h-.844V15.2H53.8a.845.845,0,0,1,.844.844Z" transform="translate(-31)"/>
          </g>
        </g>
      </g>
    </g>
  </g>
</svg>
