<svg xmlns="http://www.w3.org/2000/svg" xmlns:xlink="http://www.w3.org/1999/xlink" width="60" height="60" viewBox="0 0 60 60">
  <defs>
    <clipPath id="clip-path">
      <rect id="Rectangle_5949" data-name="Rectangle 5949" width="60" height="60" transform="translate(-7962 3053)" fill="#fff" stroke="#707070" stroke-width="1"/>
    </clipPath>
    <linearGradient id="linear-gradient" x1="0.5" x2="0.5" y2="1" gradientUnits="objectBoundingBox">
      <stop offset="0" stop-color="#041e39"/>
      <stop offset="1" stop-color="#57687a"/>
    </linearGradient>
  </defs>
  <g id="Mask_Group_44632" data-name="Mask Group 44632" transform="translate(7962 -3053)" clip-path="url(#clip-path)">
    <g id="Group_46425" data-name="Group 46425" transform="translate(-7961.277 3058.06)">
      <g id="icons" transform="translate(0 26.7)">
        <g id="Layer_3" data-name="Layer 3" transform="translate(0 0)">
          <rect id="Rectangle_5943" data-name="Rectangle 5943" width="25.301" height="20.964" rx="5" fill="#175a76"/>
          <rect id="Rectangle_5944" data-name="Rectangle 5944" width="25.301" height="22.41" rx="5" transform="translate(0 1.446)" fill="#bfdde7"/>
          <rect id="Rectangle_5945" data-name="Rectangle 5945" width="25.301" height="20.964" rx="5" transform="translate(0 2.892)" fill="#7da6b8"/>
          <path id="Path_80384" data-name="Path 80384" d="M31.642,23.73a2.892,2.892,0,1,0,0,5.783h6.289V23.73Z" transform="translate(-12.63 -11.997)" fill="#bfdde7"/>
          <path id="Path_80385" data-name="Path 80385" d="M31.642,22h6.687a.672.672,0,0,1,.672.672v4.439a.672.672,0,0,1-.672.672H31.642a2.892,2.892,0,0,1-2.892-2.892h0A2.892,2.892,0,0,1,31.642,22Z" transform="translate(-12.63 -11.518)" fill="#175a76"/>
          <circle id="Ellipse_1281" data-name="Ellipse 1281" cx="1.251" cy="1.251" r="1.251" transform="translate(17.704 12.123)" fill="#7da6b8"/>
        </g>
      </g>
      <g id="icons-2" data-name="icons" transform="translate(31.861)">
        <g id="Layer_3-2" data-name="Layer 3" transform="translate(0 0)">
          <rect id="Rectangle_5946" data-name="Rectangle 5946" width="25.301" height="20.964" rx="5" fill="#175a76"/>
          <rect id="Rectangle_5947" data-name="Rectangle 5947" width="25.301" height="22.41" rx="5" transform="translate(0 1.446)" fill="#bfdde7"/>
          <rect id="Rectangle_5948" data-name="Rectangle 5948" width="25.301" height="20.964" rx="5" transform="translate(0 2.892)" fill="#7da6b8"/>
          <path id="Path_80386" data-name="Path 80386" d="M31.642,23.73a2.892,2.892,0,1,0,0,5.783h6.289V23.73Z" transform="translate(-12.63 -11.997)" fill="#bfdde7"/>
          <path id="Path_80387" data-name="Path 80387" d="M31.642,22h6.687a.672.672,0,0,1,.672.672v4.439a.672.672,0,0,1-.672.672H31.642a2.892,2.892,0,0,1-2.892-2.892h0A2.892,2.892,0,0,1,31.642,22Z" transform="translate(-12.63 -11.518)" fill="#175a76"/>
          <circle id="Ellipse_1282" data-name="Ellipse 1282" cx="1.251" cy="1.251" r="1.251" transform="translate(17.704 12.123)" fill="#7da6b8"/>
        </g>
      </g>
      <path id="Path_80388" data-name="Path 80388" d="M349.813,277a1.763,1.763,0,0,0-1.762,1.762v9.988h-5.288a1.763,1.763,0,1,0,0,3.525h7.05a1.763,1.763,0,0,0,1.763-1.763v-11.75A1.763,1.763,0,0,0,349.813,277Z" transform="translate(-301.241 -245.963)" fill="url(#linear-gradient)"/>
      <path id="Path_80389" data-name="Path 80389" d="M342.763,292.275a1.763,1.763,0,0,0,1.762-1.763v-9.988h5.288a1.763,1.763,0,1,0,0-3.525h-7.05A1.763,1.763,0,0,0,341,278.763v11.75A1.763,1.763,0,0,0,342.763,292.275Z" transform="translate(-333.048 -272.71)" fill="url(#linear-gradient)"/>
    </g>
  </g>
</svg>
