<svg xmlns="http://www.w3.org/2000/svg" xmlns:xlink="http://www.w3.org/1999/xlink" width="60" height="60" viewBox="0 0 60 60"><defs><clipPath id="a"><rect width="60" height="60" transform="translate(9989 -1560)" fill="#fff" stroke="#707070" stroke-width="1"/></clipPath><linearGradient id="b" x1="0.586" y1="1" x2="0.575" gradientUnits="objectBoundingBox"><stop offset="0" stop-color="#041e39"/><stop offset="1" stop-color="#57687a"/></linearGradient><linearGradient id="c" x1="0.5" y1="0" x2="0.5" y2="1" xlink:href="#b"/><clipPath id="d"><rect width="58.336" height="3.327" transform="translate(0 0)" fill="#fff" stroke="#707070" stroke-width="1"/></clipPath></defs><g transform="translate(-9989 1560)" clip-path="url(#a)"><g transform="translate(9989.887 -1558.447)"><g transform="translate(0.555 0)"><path d="M3.754,12.4A1.664,1.664,0,0,0,5.417,10.74V5.416H10.74a1.664,1.664,0,1,0,0-3.327H3.754A1.664,1.664,0,0,0,2.09,3.753V10.74A1.664,1.664,0,0,0,3.754,12.4Z" transform="translate(-1.858 -2.089)" fill="#506274"/><path d="M422.757,5.416h5.323V10.74a1.664,1.664,0,1,0,3.327,0V3.753a1.664,1.664,0,0,0-1.664-1.664h-6.987a1.664,1.664,0,0,0,0,3.327Z" transform="translate(-374.391 -2.089)" fill="#506274"/><path d="M10.74,428.076H5.417v-5.323a1.664,1.664,0,1,0-3.327,0v6.987A1.664,1.664,0,0,0,3.754,431.4H10.74a1.664,1.664,0,0,0,0-3.327Z" transform="translate(-1.858 -374.619)" fill="#506274"/><path d="M429.743,421.089a1.664,1.664,0,0,0-1.663,1.664v5.323h-5.323a1.664,1.664,0,0,0,0,3.327h6.987a1.664,1.664,0,0,0,1.664-1.664v-6.987A1.664,1.664,0,0,0,429.743,421.089Z" transform="translate(-374.391 -374.619)" fill="#506274"/><rect width="3.66" height="3.66" transform="translate(10.879 41.812)" fill="#394e63"/><path d="M94.961,69.052V50.331A1.746,1.746,0,0,0,93.22,48.59h-43a1.746,1.746,0,0,0-1.741,1.741V69.052H72.391V65.836a1.664,1.664,0,0,1,3.327,0v3.216ZM50.654,53.082a1.664,1.664,0,0,1,1.664-1.664H59.3a1.664,1.664,0,0,1,1.664,1.664v6.987A1.664,1.664,0,0,1,59.3,61.732H52.317a1.664,1.664,0,0,1-1.664-1.664ZM64.628,66.834H52.317a1.664,1.664,0,0,1,0-3.327H64.628a1.664,1.664,0,1,1,0,3.327Zm6.211-.333a1.664,1.664,0,0,1-3.327,0V64.172a1.664,1.664,0,1,1,3.327,0Zm1.885-7.874a1.664,1.664,0,0,1-3.327,0V57.074H65.626v.776a1.664,1.664,0,0,1-3.327,0V53.082a1.664,1.664,0,0,1,3.327,0v.665H69.4v-.665a1.664,1.664,0,1,1,3.327,0Zm9.76-5.545a1.664,1.664,0,0,1,1.664-1.664h6.987A1.664,1.664,0,0,1,92.8,53.082v6.987a1.664,1.664,0,0,1-1.664,1.664H84.147a1.664,1.664,0,0,1-1.664-1.664Zm0,10.536H90.8a1.664,1.664,0,1,1,0,3.327H82.484a1.664,1.664,0,1,1,0-3.327ZM75.5,61.843V53.082a1.664,1.664,0,0,1,3.327,0v8.762a1.664,1.664,0,0,1-3.327,0Z" transform="translate(-43.102 -43.433)" fill="url(#b)"/><rect width="3.66" height="3.66" transform="translate(42.709 11.312)" fill="#394e63"/><rect width="3.66" height="3.66" transform="translate(10.879 11.312)" fill="#394e63"/><path d="M1.664,266.416H5.377v17.612a1.746,1.746,0,0,0,1.741,1.741h43a1.746,1.746,0,0,0,1.741-1.741V266.416h3.725a1.664,1.664,0,0,0,0-3.327H1.664a1.664,1.664,0,0,0,0,3.327Zm12.986,0v3.105a1.664,1.664,0,0,1-3.327,0v-3.105Zm3.216,14.861a1.664,1.664,0,0,1-1.664,1.664H9.215a1.664,1.664,0,0,1-1.664-1.664v-6.987a1.664,1.664,0,0,1,1.664-1.664H16.2a1.664,1.664,0,0,1,1.664,1.664Zm4.769-3.549a1.664,1.664,0,0,1-3.327,0v-4.88a1.664,1.664,0,0,1,3.327,0Zm2.218-.887a1.664,1.664,0,0,1,1.664-1.664h1.442a1.664,1.664,0,0,1,0,3.327H26.516A1.664,1.664,0,0,1,24.853,276.841Zm10.314,4.436a1.664,1.664,0,0,1-1.664,1.664H28.513a1.664,1.664,0,0,1,0-3.327H31.84v-6.876a1.664,1.664,0,0,1,3.327,0Zm1.109-7.985a1.664,1.664,0,0,1,1.664-1.664h1.442a1.664,1.664,0,0,1,0,3.327H37.94A1.664,1.664,0,0,1,36.276,273.292Zm12.532,7.985a1.664,1.664,0,0,1-3.327,0v-1.664H39.936a1.664,1.664,0,1,1,0-3.327h5.545V271.3a1.664,1.664,0,0,1,3.327,0Zm-6.654-12.2a1.664,1.664,0,0,1-3.327,0v-2.662h3.327Zm-9.538-1.331a1.664,1.664,0,0,1-1.664,1.664H20.527a1.662,1.662,0,0,1-1-2.994H32.616Z" transform="translate(0 -234.143)" fill="url(#c)"/></g><g transform="translate(0 28.946)" clip-path="url(#d)"><path d="M1.664,266.416H5.377v17.612a1.746,1.746,0,0,0,1.741,1.741h43a1.746,1.746,0,0,0,1.741-1.741V266.416h3.725a1.664,1.664,0,0,0,0-3.327H1.664a1.664,1.664,0,0,0,0,3.327Zm12.986,0v3.105a1.664,1.664,0,0,1-3.327,0v-3.105Zm3.216,14.861a1.664,1.664,0,0,1-1.664,1.664H9.215a1.664,1.664,0,0,1-1.664-1.664v-6.987a1.664,1.664,0,0,1,1.664-1.664H16.2a1.664,1.664,0,0,1,1.664,1.664Zm4.769-3.549a1.664,1.664,0,0,1-3.327,0v-4.88a1.664,1.664,0,0,1,3.327,0Zm2.218-.887a1.664,1.664,0,0,1,1.664-1.664h1.442a1.664,1.664,0,0,1,0,3.327H26.516A1.664,1.664,0,0,1,24.853,276.841Zm10.314,4.436a1.664,1.664,0,0,1-1.664,1.664H28.513a1.664,1.664,0,0,1,0-3.327H31.84v-6.876a1.664,1.664,0,0,1,3.327,0Zm1.109-7.985a1.664,1.664,0,0,1,1.664-1.664h1.442a1.664,1.664,0,0,1,0,3.327H37.94A1.664,1.664,0,0,1,36.276,273.292Zm12.532,7.985a1.664,1.664,0,0,1-3.327,0v-1.664H39.936a1.664,1.664,0,1,1,0-3.327h5.545V271.3a1.664,1.664,0,0,1,3.327,0Zm-6.654-12.2a1.664,1.664,0,0,1-3.327,0v-2.662h3.327Zm-9.538-1.331a1.664,1.664,0,0,1-1.664,1.664H20.527a1.662,1.662,0,0,1-1-2.994H32.616Z" transform="translate(0.555 -263.089)" fill="#039572"/></g></g></g></svg>