<svg xmlns="http://www.w3.org/2000/svg" xmlns:xlink="http://www.w3.org/1999/xlink" width="60" height="60" viewBox="0 0 60 60">
  <defs>
    <clipPath id="clip-path">
      <rect id="Rectangle_5950" data-name="Rectangle 5950" width="60" height="60" transform="translate(-7693 2783)" fill="#fff" stroke="#707070" stroke-width="1"/>
    </clipPath>
  </defs>
  <g id="Mask_Group_44633" data-name="Mask Group 44633" transform="translate(7693 -2783)" clip-path="url(#clip-path)">
    <g id="Group_46426" data-name="Group 46426" transform="translate(-7691.331 2789.677)">
      <path id="_8541850_hand_holding_icon" data-name="8541850_hand_holding_icon" d="M55.512,320.8a3.251,3.251,0,0,0-4.183,0l-9.074,7.257a6.252,6.252,0,0,1-3.928,1.375H26.71a1.571,1.571,0,0,1,0-3.142H34.4a3.269,3.269,0,0,0,3.27-2.612,3.146,3.146,0,0,0-3.1-3.673H18.854a11.558,11.558,0,0,0-7.277,2.583l-4.566,3.7H1.571A1.576,1.576,0,0,0,0,327.856v9.427a1.576,1.576,0,0,0,1.571,1.571H36.609a6.292,6.292,0,0,0,3.928-1.375L55.385,325.6A3.141,3.141,0,0,0,55.512,320.8Z" transform="translate(0 -292.248)" fill="#ffe4cf"/>
      <g id="_9043944_api_1_icon" data-name="9043944_api_1_icon" transform="translate(15.417)">
        <path id="Path_80390" data-name="Path 80390" d="M7.206,9H3.735A1.735,1.735,0,0,0,2,10.735V21.147H3.735V16.809H7.206v4.338H8.941V10.735A1.735,1.735,0,0,0,7.206,9ZM3.735,15.074V10.735H7.206v4.338Z" transform="translate(-0.265 -1.166)" fill="#175a76"/>
        <path id="Path_80391" data-name="Path 80391" d="M22,10.735h2.6v8.677H22v1.735h6.941V19.412h-2.6V10.735h2.6V9H22Z" transform="translate(-2.911 -1.166)" fill="#175a76"/>
        <path id="Path_80392" data-name="Path 80392" d="M13.735,21.147H12V9h5.206a1.735,1.735,0,0,1,1.735,1.735v4.338a1.735,1.735,0,0,1-1.735,1.735H13.735Zm0-6.074h3.471V10.735H13.735Z" transform="translate(-1.588 -1.166)" fill="#175a76"/>
        <rect id="_Transparent_Rectangle_" data-name="&lt;Transparent Rectangle&gt;" width="27.791" height="27.791" transform="translate(0 0)" fill="none"/>
      </g>
    </g>
  </g>
</svg>
