<svg xmlns="http://www.w3.org/2000/svg" xmlns:xlink="http://www.w3.org/1999/xlink" width="60" height="60" viewBox="0 0 60 60">
  <defs>
    <clipPath id="clip-path">
      <rect id="Rectangle_5963" data-name="Rectangle 5963" width="60" height="60" transform="translate(-13936 -7071)" fill="#fff" stroke="#707070" stroke-width="1"/>
    </clipPath>
  </defs>
  <g id="Group_46534" data-name="Group 46534" transform="translate(13207 7045)">
    <path id="Path_80479" data-name="Path 80479" d="M-13169.4-7034.751h-23.037l-5.993,2.154-3.277,6.648.375,11.331,1.779,9.083,4.775,2.9h13.859l14.8.468,4.026-2.9,1.967-5.337v-11.331l-.656-7.491-3.09-3.371Z" fill="#f9e8d2"/>
    <ellipse id="Ellipse_1282" data-name="Ellipse 1282" cx="6.5" cy="6" rx="6.5" ry="6" transform="translate(-13187 -7024)" fill="#e5c189"/>
    <path id="Path_80480" data-name="Path 80480" d="M-13157.98-7026.417l-2.247,1.217v8.053l-.375,5.993-1.686,5.432-3.09,2.809-8.054,1.311-14.515-.843h-6.742l1.967,4.027,6.648,3.839h22.568l4.494-1.124,4.4-2.154,1.686-7.866v-15.264l-1.686-3.184Z" fill="#f2dec3"/>
    <g id="Mask_Group_44644" data-name="Mask Group 44644" transform="translate(729 26)" clip-path="url(#clip-path)">
      <g id="Group_46533" data-name="Group 46533" transform="translate(-13931.962 -7062.346)">
        <path id="Path_80474" data-name="Path 80474" d="M33.461,38.815h-20.5a15.366,15.366,0,0,1-3.382-.35,8.723,8.723,0,0,1-1.866-.513C4.612,36.786.95,33.918.95,26.781V14.771C.95,7.144,5.335,2.76,12.961,2.76h20.5c6.437,0,10.588,3.078,11.708,8.676a16.565,16.565,0,0,1,.3,3.335V26.781C45.471,34.454,41.11,38.815,33.461,38.815ZM12.984,6.3c-5.737,0-8.512,2.775-8.512,8.512V26.828c0,4.175,1.469,6.74,4.478,7.883a8.042,8.042,0,0,0,1.329.35,12.823,12.823,0,0,0,2.705.28h20.5c5.737,0,8.512-2.775,8.512-8.512V14.817a13.033,13.033,0,0,0-.233-2.635C40.97,8.217,38.265,6.3,33.484,6.3Z" transform="translate(-0.95 -2.76)" fill="#e3d6b6"/>
        <path id="Path_80475" data-name="Path 80475" d="M36.307,41.642h-20.5a14.7,14.7,0,0,1-5.271-.863A9.994,9.994,0,0,1,4.1,32.92a1.724,1.724,0,0,1,.49-1.586A1.7,1.7,0,0,1,6.2,30.891a12.544,12.544,0,0,0,2.612.257h20.5c5.737,0,8.512-2.775,8.512-8.512V10.624a13.033,13.033,0,0,0-.233-2.635A1.793,1.793,0,0,1,38.056,6.4a1.672,1.672,0,0,1,1.586-.466c5.6,1.143,8.676,5.294,8.676,11.684V29.631C48.318,37.281,43.956,41.642,36.307,41.642Zm-27.916-7a6.122,6.122,0,0,0,3.4,2.869,11.543,11.543,0,0,0,4.035.63h20.5c5.737,0,8.512-2.775,8.512-8.512V17.62c0-3.685-1.143-6.134-3.5-7.416V22.635c0,7.626-4.384,12.011-12.011,12.011H8.391Z" transform="translate(3.2 1.41)" fill="#e3d6b6"/>
        <path id="Path_80476" data-name="Path 80476" d="M15.016,22.922a7.906,7.906,0,1,1,7.906-7.906A7.913,7.913,0,0,1,15.016,22.922Zm0-12.314a4.408,4.408,0,1,0,4.408,4.408A4.419,4.419,0,0,0,15.016,10.608Z" transform="translate(7.256 3.035)" fill="#e3d6b6"/>
        <path id="Path_80477" data-name="Path 80477" d="M5.779,21.31A1.762,1.762,0,0,1,4.03,19.561V9.3a1.749,1.749,0,0,1,3.5,0V19.561A1.747,1.747,0,0,1,5.779,21.31Z" transform="translate(3.153 3.621)" fill="#e3d6b6"/>
        <path id="Path_80478" data-name="Path 80478" d="M17.209,21.31a1.762,1.762,0,0,1-1.749-1.749V9.3a1.749,1.749,0,1,1,3.5,0V19.561A1.747,1.747,0,0,1,17.209,21.31Z" transform="translate(18.379 3.621)" fill="#e3d6b6"/>
      </g>
    </g>
  </g>
</svg>
