<svg xmlns="http://www.w3.org/2000/svg" xmlns:xlink="http://www.w3.org/1999/xlink" width="40" height="40" viewBox="0 0 40 40">
  <defs>
    <clipPath id="clip-path">
      <rect id="Rectangle_5378" data-name="Rectangle 5378" width="40" height="40" fill="#fff" stroke="#707070" stroke-width="1"/>
    </clipPath>
  </defs>
  <g id="Mask_Group_44451" data-name="Mask Group 44451" clip-path="url(#clip-path)">
    <g id="pin_1_" data-name="pin (1)" transform="translate(3.828)">
      <path id="Path_78721" data-name="Path 78721" d="M76.609,4.735a16.165,16.165,0,1,0-18.2,26.112,5.369,5.369,0,0,1,2.465,2.324l3.411,6.294a1.02,1.02,0,0,0,1.794,0l3.411-6.294a5.438,5.438,0,0,1,2.5-2.339,16.174,16.174,0,0,0,4.625-26.1ZM65.171,27.273a11.1,11.1,0,1,1,11.1-11.1A11.1,11.1,0,0,1,65.171,27.273Z" transform="translate(-49 0)" fill="#ffc700"/>
      <g id="Group_44640" data-name="Group 44640" transform="translate(0 0)">
        <path id="Path_78722" data-name="Path 78722" d="M63.285,33.177a5.369,5.369,0,0,0-2.465-2.324A16.167,16.167,0,0,1,66.386.051a16.169,16.169,0,0,0-7.98,30.8,5.369,5.369,0,0,1,2.465,2.324l3.411,6.294a1.02,1.02,0,0,0,1.794,0l.31-.573Z" transform="translate(-49 -0.006)" fill="#f4b537"/>
        <path id="Path_78723" data-name="Path 78723" d="M271.453,87.047a11.225,11.225,0,0,0,1.207.066,11.1,11.1,0,1,0,0-22.2,11.224,11.224,0,0,0-1.207.066,11.1,11.1,0,0,1,0,22.07Z" transform="translate(-254.074 -59.84)" fill="#f4b537"/>
      </g>
      <path id="Path_78724" data-name="Path 78724" d="M201.723,155.74a.443.443,0,0,0-.442-.443h-2.1a.442.442,0,0,0-.442.443v2.751a.442.442,0,0,0,.442.442h2.1a.442.442,0,0,0,.442-.442Z" transform="translate(-187.042 -143.164)" fill="#576574"/>
      <path id="Path_78725" data-name="Path 78725" d="M278.069,155.74a.443.443,0,0,0-.442-.443h-2.1a.442.442,0,0,0-.442.443v2.751a.442.442,0,0,0,.442.442h2.1a.442.442,0,0,0,.442-.442Z" transform="translate(-257.424 -143.164)" fill="#576574"/>
      <path id="Path_78726" data-name="Path 78726" d="M163.108,201.839h-2.1a.442.442,0,0,0-.442.443v2.751a.443.443,0,0,0,.442.443h2.1a.442.442,0,0,0,.442-.443v-2.751A.442.442,0,0,0,163.108,201.839Z" transform="translate(-151.852 -186.07)" fill="#576574"/>
      <path id="Path_78727" data-name="Path 78727" d="M315.8,201.839h-2.1a.442.442,0,0,0-.442.443v2.751a.443.443,0,0,0,.442.443h2.1a.442.442,0,0,0,.442-.443v-2.751A.442.442,0,0,0,315.8,201.839Z" transform="translate(-292.615 -186.07)" fill="#576574"/>
      <path id="Path_78728" data-name="Path 78728" d="M239.454,201.839h-2.1a.442.442,0,0,0-.442.443v2.751a.442.442,0,0,0,.442.443h2.1a.442.442,0,0,0,.442-.443v-2.751A.442.442,0,0,0,239.454,201.839Z" transform="translate(-222.233 -186.07)" fill="#576574"/>
      <path id="Path_78729" data-name="Path 78729" d="M200.646,158.491V155.74a.443.443,0,0,1,.443-.443h-1.9a.442.442,0,0,0-.442.443v2.751a.442.442,0,0,0,.442.442h1.9A.442.442,0,0,1,200.646,158.491Z" transform="translate(-187.042 -143.164)" fill="#3e4b5a"/>
      <path id="Path_78730" data-name="Path 78730" d="M276.992,158.491V155.74a.443.443,0,0,1,.442-.443h-1.9a.442.442,0,0,0-.442.443v2.751a.442.442,0,0,0,.442.442h1.9A.442.442,0,0,1,276.992,158.491Z" transform="translate(-257.424 -143.164)" fill="#3e4b5a"/>
      <path id="Path_78731" data-name="Path 78731" d="M162.472,205.033v-2.751a.442.442,0,0,1,.443-.442h-1.9a.443.443,0,0,0-.443.442v2.751a.442.442,0,0,0,.443.442h1.9A.443.443,0,0,1,162.472,205.033Z" transform="translate(-151.851 -186.07)" fill="#3e4b5a"/>
      <path id="Path_78732" data-name="Path 78732" d="M315.165,205.033v-2.751a.442.442,0,0,1,.443-.442h-1.9a.442.442,0,0,0-.442.442v2.751a.442.442,0,0,0,.442.442h1.9A.442.442,0,0,1,315.165,205.033Z" transform="translate(-292.615 -186.07)" fill="#3e4b5a"/>
      <path id="Path_78733" data-name="Path 78733" d="M238.818,205.033v-2.751a.442.442,0,0,1,.442-.442h-1.9a.442.442,0,0,0-.442.442v2.751a.442.442,0,0,0,.442.442h1.9A.442.442,0,0,1,238.818,205.033Z" transform="translate(-222.232 -186.07)" fill="#3e4b5a"/>
    </g>
  </g>
</svg>
