<svg xmlns="http://www.w3.org/2000/svg" xmlns:xlink="http://www.w3.org/1999/xlink" width="24" height="24" viewBox="0 0 24 24">
  <defs>
    <clipPath id="clip-path">
      <rect id="Rectangle_5295" data-name="Rectangle 5295" width="24" height="24" transform="translate(0.396)" fill="#b2b2b2" stroke="#b2b2b2" stroke-width="1"/>
    </clipPath>
  </defs>
  <g id="Mask_Group_639" data-name="Mask Group 639" transform="translate(-0.396)" clip-path="url(#clip-path)">
    <g id="taxi_3_" data-name="taxi (3)" transform="translate(1.396 6)">
      <g id="Group_44373" data-name="Group 44373" transform="translate(0 0)">
        <g id="Group_44372" data-name="Group 44372">
          <path id="Path_78428" data-name="Path 78428" d="M21.895,122.768c-.822-.753-2.246-.775-5.033-.776a6.859,6.859,0,0,0-1.456-1.558,8.047,8.047,0,0,0-3.076-1.483v-1.224a.474.474,0,0,0-.474-.474h-3.8a.474.474,0,0,0-.474.474v1.224A8.066,8.066,0,0,0,4.5,120.432a6.887,6.887,0,0,0-1.461,1.557H2.487a.991.991,0,0,0-.231,0H1.422a.473.473,0,0,0-.335.139l-.949.948a.474.474,0,0,0-.139.335v3.33a.476.476,0,0,0,.152.348,3.934,3.934,0,0,0,2.209,1.063h.677a2.37,2.37,0,0,0,4.354,0h7.974a2.37,2.37,0,0,0,4.354,0h2.565a.474.474,0,0,0,.474-.474C22.76,124.938,22.76,123.561,21.895,122.768Zm-7.114-1.62a6.307,6.307,0,0,1,.888.841H9.484v-2.359c.154-.007.312-.011.474-.011A7.633,7.633,0,0,1,14.78,121.148ZM8.531,118.2h2.851v.567a10.534,10.534,0,0,0-2.851,0V118.2Zm0,1.525v2.265h-4.3A7.006,7.006,0,0,1,8.535,119.725Zm-6.916,3.213H1.9l-.752.474Zm3.6,5.7a1.422,1.422,0,1,1,1.422-1.423A1.423,1.423,0,0,1,5.216,128.638Zm12.327,0a1.422,1.422,0,1,1,1.422-1.423A1.424,1.424,0,0,1,17.543,128.638Zm2.371-1.433h0a2.371,2.371,0,0,0-4.741,0H7.586a2.371,2.371,0,0,0-4.741,0H2.362a2.82,2.82,0,0,1-1.413-.682v-2.163c1.684,0,1.9-.212,1.9-1.423H16.557l.04,0c2.537,0,3.976,0,4.592.472h-.806a.474.474,0,1,0,0,.948h1.285a16.712,16.712,0,0,1,.143,2.845Z" transform="translate(0 -117.252)" fill="#b2b2b2" stroke="#b2b2b2" stroke-width="0.3"/>
        </g>
      </g>
    </g>
  </g>
</svg>
