<svg xmlns="http://www.w3.org/2000/svg" width="21.51" height="20" viewBox="0 0 21.51 20">
  <g id="Group_47685" data-name="Group 47685" transform="translate(-52.24 -2.75)">
    <path id="Path_94901" data-name="Path 94901" d="M58.17,22.75a4.124,4.124,0,0,1-4.33-3.86V16.85a.75.75,0,1,1,1.5,0c0,1.25,1.21,2.19,2.83,2.19S61,18.1,61,16.85a.75.75,0,1,1,1.5,0v2.04A4.117,4.117,0,0,1,58.17,22.75ZM55.6,19.87a3.083,3.083,0,0,0,5.14,0,5.2,5.2,0,0,1-5.14,0Z" fill="#fff"/>
    <path id="Path_94902" data-name="Path 94902" d="M58.17,17.8a4.458,4.458,0,0,1-3.84-1.94,3.348,3.348,0,0,1-.49-1.75,3.629,3.629,0,0,1,1.3-2.76,4.828,4.828,0,0,1,6.04-.01,3.675,3.675,0,0,1,1.31,2.77A3.348,3.348,0,0,1,62,15.86,4.427,4.427,0,0,1,58.17,17.8Zm0-6.05a3.086,3.086,0,0,0-2.04.73,2.15,2.15,0,0,0-.79,1.63,1.844,1.844,0,0,0,.27.97,3.277,3.277,0,0,0,5.11.01,1.819,1.819,0,0,0,.27-.97,2.186,2.186,0,0,0-.79-1.64A3.041,3.041,0,0,0,58.17,11.75Z" fill="#fff"/>
    <path id="Path_94903" data-name="Path 94903" d="M58.17,20.55c-2.47,0-4.33-1.59-4.33-3.69V14.11a4.117,4.117,0,0,1,4.33-3.86,4.623,4.623,0,0,1,3.02,1.09,3.675,3.675,0,0,1,1.31,2.77v2.75C62.5,18.96,60.64,20.55,58.17,20.55Zm0-8.8a2.631,2.631,0,0,0-2.83,2.36v2.75c0,1.25,1.21,2.19,2.83,2.19S61,18.11,61,16.86V14.11a2.186,2.186,0,0,0-.79-1.64A3.132,3.132,0,0,0,58.17,11.75Z" fill="#fff"/>
    <path id="Path_94904" data-name="Path 94904" d="M70.04,14.8a2.879,2.879,0,0,1-2.91-2.56,2.745,2.745,0,0,1,.82-2.23,2.71,2.71,0,0,1,1.96-.81H72a1.775,1.775,0,0,1,1.75,1.77v2.06a1.77,1.77,0,0,1-1.72,1.77Zm1.93-4.1H69.92a1.229,1.229,0,0,0-.9.37,1.259,1.259,0,0,0-.39,1.04,1.386,1.386,0,0,0,1.41,1.19H72a.265.265,0,0,0,.25-.27V10.97A.278.278,0,0,0,71.97,10.7Z" fill="#fff"/>
    <path id="Path_94905" data-name="Path 94905" d="M67,21.25H64.5a.75.75,0,0,1,0-1.5H67a3.984,3.984,0,0,0,4.25-4.25v-.7H70.04a2.879,2.879,0,0,1-2.91-2.56,2.745,2.745,0,0,1,.82-2.23,2.71,2.71,0,0,1,1.96-.81h1.33V8.5a3.927,3.927,0,0,0-3.59-4.21,3.827,3.827,0,0,0-.66-.04h-9a5.364,5.364,0,0,0-.7.05,3.925,3.925,0,0,0-3.55,4.2v2a.75.75,0,0,1-1.5,0v-2a5.4,5.4,0,0,1,4.85-5.68,6.205,6.205,0,0,1,.9-.07h9a5.691,5.691,0,0,1,.87.06A5.39,5.39,0,0,1,72.74,8.5V9.95a.755.755,0,0,1-.75.75H69.91a1.229,1.229,0,0,0-.9.37,1.259,1.259,0,0,0-.39,1.04,1.386,1.386,0,0,0,1.41,1.19H72a.755.755,0,0,1,.75.75V15.5A5.443,5.443,0,0,1,67,21.25Z" fill="#fff"/>
  </g>
</svg>
