<svg xmlns="http://www.w3.org/2000/svg" xmlns:xlink="http://www.w3.org/1999/xlink" width="18" height="18" viewBox="0 0 18 18">
  <defs>
    <clipPath id="clip-path">
      <rect id="Rectangle_6205" data-name="Rectangle 6205" width="18" height="18" transform="translate(11097 498)" fill="#ab0a0a" stroke="#ab0a0a" stroke-width="0.5"/>
    </clipPath>
  </defs>
  <g id="Mask_Group_44779" data-name="Mask Group 44779" transform="translate(-11097 -498)" clip-path="url(#clip-path)">
    <g id="delete_1_" data-name="delete (1)" transform="translate(11098.918 498.286)">
      <path id="Path_94930" data-name="Path 94930" d="M222.806,154.7a.408.408,0,0,0-.408.408v7.714a.408.408,0,1,0,.816,0v-7.714A.408.408,0,0,0,222.806,154.7Zm0,0" transform="translate(-213.647 -148.397)" fill="#ab0a0a" stroke="#ab0a0a" stroke-width="0.5"/>
      <path id="Path_94931" data-name="Path 94931" d="M1.156,5.187V15.243a2.252,2.252,0,0,0,.6,1.553,2.01,2.01,0,0,0,1.458.631h7.723a2.01,2.01,0,0,0,1.458-.631,2.252,2.252,0,0,0,.6-1.553V5.187a1.559,1.559,0,0,0-.4-3.066H10.5v-.51A1.6,1.6,0,0,0,8.887,0H5.262A1.6,1.6,0,0,0,3.646,1.611v.51H1.556a1.559,1.559,0,0,0-.4,3.066Zm9.78,11.424H3.213a1.293,1.293,0,0,1-1.241-1.367V5.223h10.2v10.02a1.293,1.293,0,0,1-1.241,1.367Zm-6.474-15a.786.786,0,0,1,.8-.8H8.887a.786.786,0,0,1,.8.8v.51H4.462ZM1.556,2.937H12.593a.735.735,0,0,1,0,1.469H1.556a.735.735,0,1,1,0-1.469Zm0,0" transform="translate(0.003 0.002)" fill="#ab0a0a" stroke="#ab0a0a" stroke-width="0.5"/>
      <path id="Path_94932" data-name="Path 94932" d="M163.806,154.7a.408.408,0,0,0-.408.408v7.714a.408.408,0,0,0,.816,0v-7.714A.408.408,0,0,0,163.806,154.7Zm0,0" transform="translate(-159.014 -148.397)" fill="#ab0a0a" stroke="#ab0a0a" stroke-width="0.5"/>
    </g>
  </g>
</svg>
