<svg xmlns="http://www.w3.org/2000/svg" xmlns:xlink="http://www.w3.org/1999/xlink" width="60" height="60" viewBox="0 0 60 60">
  <defs>
    <clipPath id="clip-path">
      <rect id="Rectangle_6248" data-name="Rectangle 6248" width="60" height="60" transform="translate(-7917 -11560)" fill="#fff" stroke="#707070" stroke-width="1"/>
    </clipPath>
  </defs>
  <g id="Group_47701" data-name="Group 47701" transform="translate(7855 11587)">
    <g id="Mask_Group_44789" data-name="Mask Group 44789" transform="translate(62 -27)" clip-path="url(#clip-path)">
      <g id="Group_47698" data-name="Group 47698" transform="translate(-7916.247 -11551.009)">
        <path id="Subtraction_38" data-name="Subtraction 38" d="M18.8,34.655a2.313,2.313,0,0,1-2.234-1.716v-7.6a1.926,1.926,0,1,0-3.851,0v7.6a2.311,2.311,0,0,1-4.546-.592V25.125H4.55A1.978,1.978,0,0,1,2.777,23L5.77,11.408c-1.135,1.957-2.5,4.219-2.974,4.347a.737.737,0,0,1-.192.024,3.051,3.051,0,0,1-1.343-.542c-.57-.34-1.109-.661-1.254-1.2C-.1,13.63,1.036,11.8,2.476,9.488c.376-.6.764-1.228,1.154-1.865.917-1.5,1.663-2.776,2.263-3.8A29.274,29.274,0,0,1,7.831.725a2.241,2.241,0,0,1,2-.7c.106.043.7.218,1.547.455a12.565,12.565,0,0,0,3.251.5,12.652,12.652,0,0,0,3.257-.5C18.669.265,19.32.064,19.426.021h.024A2.28,2.28,0,0,1,19.775,0a2.09,2.09,0,0,1,1.641.725,29.285,29.285,0,0,1,1.932,3.086c.6,1.029,1.349,2.31,2.269,3.812.39.638.778,1.262,1.154,1.865,1.44,2.314,2.577,4.141,2.469,4.547-.145.541-.683.862-1.254,1.2a3.062,3.062,0,0,1-1.343.542.737.737,0,0,1-.192-.024c-.446-.121-1.662-2.115-2.539-3.6L26.943,23a1.978,1.978,0,0,1-1.772,2.13H21.109v7.218A2.314,2.314,0,0,1,18.8,34.655Z" transform="translate(0 14.107)" fill="#07816c"/>
        <ellipse id="Ellipse_1327" data-name="Ellipse 1327" cx="6.24" cy="6.24" rx="6.24" ry="6.24" transform="translate(8.552 0)" fill="#07816c"/>
      </g>
      <g id="Group_47699" data-name="Group 47699" transform="translate(-7886.807 -11551.009)">
        <path id="Subtraction_39" data-name="Subtraction 39" d="M18.8,34.655a2.313,2.313,0,0,1-2.234-1.716v-7.6a1.926,1.926,0,1,0-3.851,0v7.6a2.311,2.311,0,0,1-4.546-.592V25.125H4.55A1.978,1.978,0,0,1,2.777,23L5.77,11.408c-1.135,1.957-2.5,4.219-2.974,4.347a.737.737,0,0,1-.192.024,3.051,3.051,0,0,1-1.343-.542c-.57-.34-1.109-.661-1.254-1.2C-.1,13.63,1.036,11.8,2.476,9.488c.376-.6.764-1.228,1.154-1.865.917-1.5,1.663-2.776,2.263-3.8A29.274,29.274,0,0,1,7.831.725a2.241,2.241,0,0,1,2-.7c.106.043.7.218,1.547.455a12.565,12.565,0,0,0,3.251.5,12.652,12.652,0,0,0,3.257-.5C18.669.265,19.32.064,19.426.021h.024A2.28,2.28,0,0,1,19.775,0a2.09,2.09,0,0,1,1.641.725,29.285,29.285,0,0,1,1.932,3.086c.6,1.029,1.349,2.31,2.269,3.812.39.638.778,1.262,1.154,1.865,1.44,2.314,2.577,4.141,2.469,4.547-.145.541-.683.862-1.254,1.2a3.062,3.062,0,0,1-1.343.542.737.737,0,0,1-.192-.024c-.446-.121-1.662-2.115-2.539-3.6L26.943,23a1.978,1.978,0,0,1-1.772,2.13H21.109v7.218A2.314,2.314,0,0,1,18.8,34.655Z" transform="translate(0 14.107)" fill="#076a59"/>
        <ellipse id="Ellipse_1328" data-name="Ellipse 1328" cx="6.24" cy="6.24" rx="6.24" ry="6.24" transform="translate(8.552 0)" fill="#076a59"/>
      </g>
      <g id="Group_47700" data-name="Group 47700" transform="translate(-7904 -11558)">
        <path id="Subtraction_40" data-name="Subtraction 40" d="M21.493,39.623a2.644,2.644,0,0,1-2.554-1.963V28.111a2.2,2.2,0,1,0-4.4,0v9.546a2.643,2.643,0,0,1-5.2-.676V28.728H5.2a2.262,2.262,0,0,1-2.026-2.435L6.6,13.043c-1.3,2.237-2.858,4.824-3.4,4.972a.841.841,0,0,1-.22.028,3.489,3.489,0,0,1-1.534-.619C.789,17.034.173,16.666.008,16.049c-.125-.466,1.183-2.566,2.839-5.226.424-.681.863-1.386,1.3-2.106C5.2,7,6.052,5.543,6.738,4.369A33.65,33.65,0,0,1,8.953.829,2.388,2.388,0,0,1,10.829,0a2.45,2.45,0,0,1,.409.031c.123.049.82.253,1.775.521a14.365,14.365,0,0,0,3.717.566A14.454,14.454,0,0,0,20.453.553C21.369.3,22.094.072,22.211.024h.032A2.626,2.626,0,0,1,22.611,0a2.388,2.388,0,0,1,1.875.828A33.643,33.643,0,0,1,26.7,4.368C27.387,5.543,28.24,7,29.289,8.717c.445.728.889,1.44,1.318,2.13,1.648,2.647,2.949,4.738,2.825,5.2-.165.617-.781.985-1.434,1.374a3.489,3.489,0,0,1-1.534.619.842.842,0,0,1-.22-.028c-.511-.139-1.9-2.417-2.9-4.118l3.465,12.4a2.262,2.262,0,0,1-2.026,2.435H24.135v8.253A2.645,2.645,0,0,1,21.493,39.623Z" transform="translate(0 16.129)" fill="#025e4e"/>
        <circle id="Ellipse_1329" data-name="Ellipse 1329" cx="7.134" cy="7.134" r="7.134" transform="translate(9.778 0)" fill="#025e4e"/>
      </g>
    </g>
    <g id="_285647_globe_icon" data-name="285647_globe_icon" transform="translate(-7856.013 -12580.396)">
      <g id="Group_47315" data-name="Group 47315" transform="translate(1.013 1029.396)">
        <path id="Path_94540" data-name="Path 94540" d="M26.2,14.2a12,12,0,1,1-12-12A12,12,0,0,1,26.2,14.2Z" transform="translate(-2.2 -2.2)" fill="#3498db"/>
        <path id="Path_94541" data-name="Path 94541" d="M13,1a12.051,12.051,0,0,0-3.579.547c.1.152.123.16.239.342.582.914.662,1.005.818,1.025.093.012.343.03.58.034H11.5l.307-.751.308-.752L13.2,1.1c.109-.034.133-.036.238-.068C13.294,1.029,13.149,1,13,1Zm2.455.273a2.8,2.8,0,0,0,.409.717c.321.481.456.7.512.683a11.674,11.674,0,0,0,1.091-.786,11.909,11.909,0,0,0-1.978-.615S15.455,1.272,15.454,1.273Zm-8.9,1.605A12.115,12.115,0,0,0,3.8,5.27,12,12,0,0,0,1.17,11.043a6.19,6.19,0,0,1,.682-.035c1.032,0,.934-.045,1.3.479.2.292.208.291.511.307.361.019.357.007.171-.58a3.312,3.312,0,0,1-.136-.513c0-.071.2-.267.614-.615.683-.581.625-.483.511-1.059-.024-.119.03-.22.239-.444.249-.266.249-.256.511-.239h.273L5.875,7.9a3.747,3.747,0,0,1,.034-.478c.015-.015.7-.43,1.5-.888S8.9,5.686,8.943,5.645c.064-.063-.089-.281-.989-1.366-.579-.7-1.058-1.3-1.091-1.332-.006-.007-.241-.052-.307-.068Zm12.749.649c-.041-.035-.145.041-.34.239l-.273.307.2.239c.119.141.285.324.375.41.2.19.207.238.034.581a.7.7,0,0,0-.1.342c.021.057.147.069.545.068a2.8,2.8,0,0,0,.579-.034.813.813,0,0,0,.1-.376l.035-.376-.409-.307a1.264,1.264,0,0,1-.545-.683A1.819,1.819,0,0,0,19.306,3.528Zm-1.091.956a2.467,2.467,0,0,0-.477.82.89.89,0,0,0,.273.307,1.283,1.283,0,0,0,.307.2,2.261,2.261,0,0,0,.477-.512c.033-.06-.038-.188-.238-.444A1.724,1.724,0,0,0,18.215,4.484Zm3.512.307c.014.047.068.116.068.137a2.868,2.868,0,0,1-.511.512c-.428.385-.48.446-.716.478a1.179,1.179,0,0,0-.683.342,2.958,2.958,0,0,0-.443.41c-.011.035.086.178.205.307.249.27.268.354.1.649l-.137.2L19.2,7.8c-.233-.008-.543-.018-.683-.034-.317-.038-.308-.029-.034.717.406,1.1.442,1.2.512,1.2a12.837,12.837,0,0,0,.988-.888A11.422,11.422,0,0,1,21.011,7.9a1.186,1.186,0,0,1,.2.068c.164.059.191.04.478-.2L22,7.524l.307.2c.7.482.788.584.852.888.1.469.163.683.205.683a4.242,4.242,0,0,0,.545-.752c.052-.1-.012-.16-.409-.717a4.6,4.6,0,0,1-.443-.717c0-.033.055-.1.1-.137.063-.053.177.047.41.307a12.112,12.112,0,0,0-1.841-2.493Zm1.091,3.928c-.07,0-.309.352-.273.41a.491.491,0,0,0,.17.1.809.809,0,0,0,.205.068c.082,0,.1-.024.068-.171-.053-.249-.122-.411-.17-.41Zm-.921.41-.886.068-.887.1-1.636,1.4-1.6,1.366.035,1.366c.021.75.049,1.4.068,1.435a5.174,5.174,0,0,0,.545.547c.293.257.6.5.682.58.148.137.191.15,1.466.2l1.261.069.579.341c.308.2.565.4.58.41s-.074.094-.205.205l-.238.2.374.445c.207.245.478.591.614.751l.238.273v.956a11.895,11.895,0,0,0,1.739-9.735,1.313,1.313,0,0,0-.2-.137,1.594,1.594,0,0,0-.375.273,1.684,1.684,0,0,1-.375.273c-.034,0-.331-.094-.682-.205l-.648-.2V9.847a.532.532,0,0,0-.2-.512ZM4.579,11.417c-.025.016-.034.109-.034.239,0,.227-.005.248.239.376.3.156.351.183.307.068A2.315,2.315,0,0,0,4.579,11.417Zm-1.261.82a1.293,1.293,0,0,0-.136.649,4.583,4.583,0,0,0,.682.171,1.651,1.651,0,0,0,.648.069c.091-.071.191-.426.136-.479A7.47,7.47,0,0,0,3.318,12.237Zm-1.4.41-.375.205a2.266,2.266,0,0,1-.511.238.177.177,0,0,1-.034,0,12.076,12.076,0,0,0,.136,1.538l.239.137.375-.035h.375l.239.479a2.52,2.52,0,0,0,.307.547,3.662,3.662,0,0,0,.682.034H3.9v.445a1,1,0,0,1-.239.82,1.41,1.41,0,0,0-.239.512c0,.074.287.8.614,1.606l.58,1.435.58.307c.43.209.579.3.579.375,0,.026-.14.767-.2,1.162A11.864,11.864,0,0,0,9.386,24.5c1.253-1.344,2.446-2.648,2.625-2.835l.273-.273.068-.717c.052-.4.1-.776.1-.82a2.836,2.836,0,0,1,.375-.479,3.2,3.2,0,0,0,.34-.444c0-.019-.542-.391-1.193-.82l-1.193-.785h-.409c-.281,0-.426-.017-.477-.069a1.71,1.71,0,0,1-.136-.58,4,4,0,0,0-.1-.581,2.629,2.629,0,0,0-.614-.034,3.562,3.562,0,0,1-.682-.034,1.513,1.513,0,0,1-.1-.547,1.8,1.8,0,0,0-.1-.513,4.6,4.6,0,0,0-.852-.068A2.983,2.983,0,0,1,6.045,14.7L5.6,14.526l-.58.273-.614.239H3.761c-.74,0-.682.081-.784-.581a1.539,1.539,0,0,0-.1-.444,1.651,1.651,0,0,0-.341-.068l-.273-.035.034-.2a4.747,4.747,0,0,1,.034-.513l.034-.307-.2-.137-.239-.1Zm3.409.308a.643.643,0,0,0-.068.238l-.034.171,1.057.411c1.075.387,1.263.408,1.432.238.064-.064.053-.07-.1-.137-.1-.042-.626-.3-1.193-.547A4.21,4.21,0,0,0,5.329,12.955Z" transform="translate(-1 -1)" fill="#2ecc71"/>
      </g>
    </g>
  </g>
</svg>
