<svg xmlns="http://www.w3.org/2000/svg" xmlns:xlink="http://www.w3.org/1999/xlink" width="60" height="60" viewBox="0 0 60 60">
  <defs>
    <clipPath id="clip-path">
      <rect id="Rectangle_5818" data-name="Rectangle 5818" width="60" height="60" transform="translate(-775 -9939)" fill="#fff" stroke="#707070" stroke-width="1"/>
    </clipPath>
    <clipPath id="clip-path-2">
      <rect id="Rectangle_6042" data-name="Rectangle 6042" width="29" height="29" transform="translate(-12274 -7911.884)" fill="#fff" stroke="#707070" stroke-width="1"/>
    </clipPath>
  </defs>
  <g id="Group_46673" data-name="Group 46673" transform="translate(-732 -709)">
    <g id="Mask_Group_44582" data-name="Mask Group 44582" transform="translate(1507 10648)" clip-path="url(#clip-path)">
      <g id="Group_45886" data-name="Group 45886" transform="translate(-767.963 -9937.704)">
        <path id="Subtraction_32" data-name="Subtraction 32" d="M23,49.539a1.636,1.636,0,0,1-.672-.142l-2.247-.885L20,48.48C12.52,45.552,0,40.651,0,24.345V8.846A1.771,1.771,0,0,1,1.769,7.077c7.759,0,12.724-1.722,15.523-3.167A13.176,13.176,0,0,0,21.55.743,1.774,1.774,0,0,1,22.992,0H23a1.772,1.772,0,0,1,1.451.76,8.233,8.233,0,0,0,1.433,1.375C28.216,3.974,33.69,7.06,44.143,7.077h.088A1.771,1.771,0,0,1,46,8.846v15.5a24.43,24.43,0,0,1-1.983,10.049,20.748,20.748,0,0,1-4.93,6.785C34.945,45,29.728,47.03,25.919,48.512l-2.246.885A1.642,1.642,0,0,1,23,49.539Z" transform="translate(0 3.765)" fill="#f9e8d2" stroke="#e3d6b6" stroke-width="1"/>
      </g>
    </g>
    <g id="Mask_Group_44706" data-name="Mask Group 44706" transform="translate(13022 8635.885)" clip-path="url(#clip-path-2)">
      <path id="Path_80672" data-name="Path 80672" d="M281.635,355.51,264.6,372.544m7.892-7.892.294-.237a5.314,5.314,0,0,0-.294-8.263l-.294.237a5.312,5.312,0,0,0,.294,8.263Zm0,0,.236.294a5.312,5.312,0,0,0,8.263-.294l-.236-.294a5.312,5.312,0,0,0-8.263.294Zm4.25-4.25.294-.237a5.312,5.312,0,0,0-.294-8.263l-.294.237a5.312,5.312,0,0,0,.294,8.263Zm0,0,.237.293a5.313,5.313,0,0,0,8.263-.293l-.237-.294a5.312,5.312,0,0,0-8.263.294Zm4.25-4.251.294-.236a5.312,5.312,0,0,0-.294-8.263l-.293.236a5.313,5.313,0,0,0,.293,8.263Zm0,0,.237.294a5.312,5.312,0,0,0,8.264-.294l-.237-.293a5.312,5.312,0,0,0-8.263.293ZM268.142,369l.294-.236a5.312,5.312,0,0,0-.294-8.263l-.294.236a5.314,5.314,0,0,0,.294,8.263Zm0,0,.237.294a5.312,5.312,0,0,0,8.263-.294l-.237-.293a5.312,5.312,0,0,0-8.264.293Zm17-15.5a5.3,5.3,0,0,1-1.128.04l-.375-.04a5.313,5.313,0,0,1,6.011-6.011A5.313,5.313,0,0,1,285.142,353.507Z" transform="translate(-12537.273 -8257.065)" fill="#d7c39b" stroke="#e3d6b6" stroke-width="1"/>
    </g>
  </g>
</svg>
