<svg xmlns="http://www.w3.org/2000/svg" xmlns:xlink="http://www.w3.org/1999/xlink" width="60" height="60" viewBox="0 0 60 60">
  <defs>
    <clipPath id="clip-path">
      <rect id="Rectangle_6288" data-name="Rectangle 6288" width="60" height="60" transform="translate(789 -20370)" fill="#fff" stroke="#707070" stroke-width="1"/>
    </clipPath>
  </defs>
  <g id="Mask_Group_44803" data-name="Mask Group 44803" transform="translate(-789 20370)" clip-path="url(#clip-path)">
    <g id="Group_47877" data-name="Group 47877" transform="translate(806.485 -20369.264)">
      <path id="Path_95088" data-name="Path 95088" d="M400.9,599.1a6,6,0,1,1-6-6A6,6,0,0,1,400.9,599.1Z" transform="translate(-382.348 -593.1)" fill="#175a76"/>
      <path id="Path_95089" data-name="Path 95089" d="M378.331,696.337l-3.313-8.466a6.726,6.726,0,0,0,2.319-5.08v-9.718a6.779,6.779,0,0,0-6.773-6.773h-9.5a6.779,6.779,0,0,0-6.773,6.773v9.718a6.726,6.726,0,0,0,2.319,5.08l-3.313,8.466h6.018v11.816a3.144,3.144,0,0,0,2.963,3.184,3.057,3.057,0,0,0,3.147-3.055V696.337h.847v11.816a3.144,3.144,0,0,0,2.963,3.184,3.057,3.057,0,0,0,3.147-3.055V696.337Zm-5.485-23.1h0a.416.416,0,0,1,.423.423v9.681l-.847-2.172v-7.509A.416.416,0,0,1,372.846,673.239Zm-14.374,9.9v-9.46a.423.423,0,1,1,.847,0v7.288Z" transform="translate(-353.3 -652.828)" fill="#175a76"/>
    </g>
  </g>
</svg>
