<svg xmlns="http://www.w3.org/2000/svg" xmlns:xlink="http://www.w3.org/1999/xlink" width="267" height="80" viewBox="0 0 267 80"><defs><linearGradient id="a" x1="-0.49" y1="0.622" x2="0.9" y2="0.167" gradientUnits="objectBoundingBox"><stop offset="0" stop-color="#fff"/><stop offset="0.473" stop-color="#fff" stop-opacity="0.18"/><stop offset="1" stop-color="#fff" stop-opacity="0"/></linearGradient></defs><path d="M260.33,89l.168-.3-2.6-4.6L255.234,89h-1.079l3.245-5.9h.051l.05-.1-3.4-5.7L245,83h.3l-.159.094.159.106h-.334l-.168.1,9.138,5.7h-1.356L244,83.7l-3,1.4v3.5l.694.4H239.88l-2.38-1.5-2.47,1.5H233.1l.7-.4V85.1L231,83.7,222.42,89h-1.2l9.075-5.6-.332-.2H229.9l.036-.019L229.8,83.1h.3l.2-.1-9.4-5.7-3.3,5.9,3.189,5.8h-1.043L216.9,84l-2.8,4.9.058.1h-.86l-2.8-4.9L207.749,89h-.736l3.088-5.5-.5-.3h.6V83L207,77.3c-1.966,1.278-6.44,3.905-9.634,5.8h.434l-.4.3,9.171,5.6h-1.49L196.5,83.7l-3.1,1.4h-.1v3.3l1.024.6H192.53L190,87.5v-.9l.4.1,2.3,1.3V85a.519.519,0,0,1,.2-.4l3.193-1.453L192.9,81.6a.518.518,0,0,1-.2-.4V78.3l-2.4,1.4-.3.1V79l2.7-1.6V65.1a.429.429,0,0,1,.4-.4h6.6L197,59.9h-7v-.8h6.6L190,47.4v-1l2.6-4.6L190,37.1V35.7l6.5-11.3H190v-.8h7l2.7-4.8h-6.6a.432.432,0,0,1-.4-.4V9h.7v8.7H200l3.2-5.6L197.963,9h1.49l4.448,2.6c.2.2.3.4.2.6L201,17.7h5.5L211.557,9h.971L207.5,17.7H220L215.05,9h.929l4.822,8.6h5.6l-3.1-5.5a.48.48,0,0,1,.2-.6L227.865,9h1.768L224.3,12l3.2,5.6h6.4V9h.8v9.1a.432.432,0,0,1-.4.4H228l2.7,4.8h13.5l2.7-4.8h-6.3a.432.432,0,0,1-.4-.4V9h.8v8.7h6.3l3.2-5.6L245.045,9h1.832l4.322,2.5a.478.478,0,0,1,.2.6l-3.1,5.5h5.5L258.641,9h1L254.7,17.7h12.6L262.363,9h.587c.128,0,.256,0,.383.007L268.3,17.7h4.566q.051.4.072.8H268.8l2.8,4.8h1.351V24H271.9l1.051,1.831v1.729L271,24.1h-6.7V35.5l8.65-5.206v.884L264.3,36.4v3.1l2.6,1.5,6.052-3.654v.97L267.7,41.5l5.252,3.032v.959L266.9,42l-2.6,1.6v3.1l8.65,4.9v.99L264.4,47.7V58.8H271l1.95-3.351v1.31L271.8,58.8h1.151v.8H271.5l-2.8,4.7h4.251v.9H268.3l-6.8,12,2.7,4.7,3.6-5.7a.491.491,0,0,1,.35-.166.585.585,0,0,1,.251.067l4.549,2.7V79q0,.466-.042.92L268.3,77.3l-3.736,5.8h.136l-.1.3,2.822,4.548q-.34.17-.694.315L264.1,84.1l-2.6,4.7.115.2ZM234.8,81.3a.518.518,0,0,1-.2.4l-3,1.451,2.9,1.45a.513.513,0,0,1,.2.4v3.3l2.6-1.6a.3.3,0,0,1,.4,0l2.4,1.5V84.9a.516.516,0,0,1,.2-.4l2.6-1.2-.7-.3h1.1l-2.8-1.4a.52.52,0,0,1-.2-.4V78.1l-2.5,1.4a.3.3,0,0,1-.4,0L234.8,78ZM211,83.2l2.9,5.1,3-5.1h-.1V83l-2.9-5ZM260.9,88l2.742-4.8H263.6l.1-.2-2.6-4.7-2.8,4.9h-.142Zm-9.5-17.1a.478.478,0,0,1-.2.6l-10.2,6v3.3l3,1.5,9.9-6.1a.368.368,0,0,1,.3-.1c.1,0,.2.1.3.2l3.3,5.6,2.7-4.7-6.7-12h-5.6Zm-30.6,5.3L231,82.3l2.8-1.4V77.4l-10.3-6a.608.608,0,0,1-.1-.6l3.1-5.5h-5.6l-6.7,11.8L217,82l3.2-5.6c.1-.1.2-.2.3-.2a.218.218,0,0,1,.148-.075A.229.229,0,0,1,220.8,76.2Zm-16.7-5.5a.476.476,0,0,1-.2.6l-10.6,6.2v3.1l3.1,1.6c3.5-2,8.7-5.2,10.2-6.1h.4c.2,0,.2.1.3.2l3.1,5.5,2.8-4.9-6.8-11.8h-5.5ZM228,64.4h6.3a.434.434,0,0,1,.4.4V76.9l2.8,1.7,2.7-1.6V64.8a.434.434,0,0,1,.4-.4h6.2l-2.7-4.8H230.7ZM193.4,76.6l9.8-5.7L200,65.2h-6.6Zm47.6-.1,9.4-5.5-3.2-5.8H241Zm20-.1,6.3-11.2H254.7Zm-36.6-5.6,9.5,5.6V65.2h-6.3Zm-10.6,5.3L220,65.2H207.5Zm40.5-11.7h13.5l2.7-4.8h-6.6a.457.457,0,0,1-.4-.5v-12l-2.8-1.6L258.3,47V59.2a.429.429,0,0,1-.4.4h-6.3Zm-6.6,0h5.6l-2.7-4.8H245Zm-26.2,0h5.6l2.7-4.8h-5.6Zm-14.6,0h13.5l2.7-4.8h-6.2a.429.429,0,0,1-.4-.4V47.3l-3-1.8-2.6,1.6h-.1V59.2a.428.428,0,0,1-.4.4h-6.3Zm-6.4,0H206l-2.8-4.8h-5.4Zm37.4-17.3L244.5,59h5.6L247,53.5c-.1-.1-.1-.1-.1-.2a.51.51,0,0,1,.2-.4l10.2-6.2v-3l-2.6-1.6-10.5,6h-.3c-.1,0-.1-.1-.2-.2l-3.2-5.3ZM248,53.3l3.1,5.5h6.3V47.6Zm-16.8,5.5h12.5l-6.2-11.1Zm-13.8,0h6.2l3.2-5.5-9.4-5.5Zm-16.9-5.5,3.2,5.5h6.4V47.6Zm-9.8-6.7,6.8,12.2h5.4l-3.1-5.5a.378.378,0,0,1,.1-.6l10.3-6.1V43.3l-2.7-1.5-10.7,6.3h-.3c-.2,0-.2-.1-.3-.2l-3.1-5.6Zm26.6-3.4v3.5l10.2,6c.2.1.3.4.1.5l-3.1,5.5h5.6l6.8-11.9-2.6-4.7-3,5.3a.481.481,0,0,1-.6.2l-10.6-5.9Zm23.8-1.8,3.2,5.7,9.7-5.6-9.7-5.8Zm-47.6,0,3.2,5.7,9.9-5.8-9.9-5.5Zm27.6-.2,9.8,5.5,3.1-5.5-3.1-5.5Zm-7.4,3.6,2.8,1.6V43.1a.514.514,0,0,1,.2-.4l2.5-1.4-2.5-1.4a.527.527,0,0,1-.2-.4V36.4L213.7,38a.3.3,0,0,1-.4,0l-2.4-1.4v2.8a.509.509,0,0,1-.2.4l-2.5,1.4,2.5,1.4a.511.511,0,0,1,.2.4v3.2l2.4-1.4a.3.3,0,0,1,.4,0Zm47.2,0,2.6,1.5V43.4a.52.52,0,0,1,.2-.4l2.4-1.5-2.4-1.4a.756.756,0,0,1-.2-.4V36.9l-2.2,1.3a.3.3,0,0,1-.4,0l-2.6-1.6v3.2a.514.514,0,0,1-.2.4l-2.4,1.4,2.4,1.4a.749.749,0,0,1,.2.4v2.7l2.2-1.3a.294.294,0,0,1,.2-.075A.29.29,0,0,1,260.9,44.8Zm-26-3.6,2.6,4.7,2.6-4.5-2.7-4.7Zm9.5-6.3,10.5,6.2,2.6-1.5V36.2l-10.2-6.1a.711.711,0,0,1-.3-.6l3.1-5.4h-5.5L237.9,36l2.7,4.7,3.2-5.6c.1-.1.2-.2.3-.2a.186.186,0,0,1,.3,0Zm-16.7-5.4a.659.659,0,0,1-.2.7L217.4,36v3.3l2.8,1.5,10.6-5.9a.48.48,0,0,1,.6.2l3,5.4,2.5-4.5-6.7-11.9h-5.6Zm-31,5.3,10.7,6,2.7-1.6V36.1l-10.3-6a.482.482,0,0,1-.2-.6l3.2-5.4h-5.5l-6.9,12,2.5,4.5,3.2-5.6a.489.489,0,0,1,.423-.239A.426.426,0,0,1,196.7,34.8Zm54.9-11.5h6.3a.43.43,0,0,1,.4.4v12l2.8,1.7,2.4-1.4V23.7a.353.353,0,0,1,.4-.4h6.6l-2.7-4.8H254.3Zm-47.4,0h6.3a.367.367,0,0,1,.3.1c.1.1.1.2.2.3v12l2.6,1.5,3-1.7V23.7a.43.43,0,0,1,.4-.4h6.2l-2.7-4.8H207ZM248,29.6l9.4,5.6V24.1h-6.3Zm-10.6,5.5,6.3-11H231.2Zm-36.9-5.6,9.6,5.6V24h-6.4ZM217.4,35l9.3-5.4-3.1-5.5h-6.2Zm27.7-11.7h5.5l2.7-4.8h-5.5Zm-21,0h5.6L227,18.5h-5.6Zm-26.2,0h5.4l2.8-4.8h-5.5ZM185.417,89l.883-.5v-3l-2.7-1.8L174.794,89H173.53l9.27-5.6-.4-.3h2.7l-.6.3,2.5,1.7c.1,0,.2.2.2.3v2.7l2.3-1.3c.1-.1.1-.1.2-.1h.2v1.1l-.3-.2L187.1,89h-1.682ZM172.2,89,169.1,84.1l-2.6,4.7.115.2h-1.285l.168-.3-2.6-4.6L160.234,89h-1.079l3.245-5.9h.051l.049-.1-3.4-5.7L150,83h.3l-.158.094.158.106h-.334l-.167.1,9.138,5.7h-1.356L149,83.7l-3,1.4v3.5l.694.4H144.88l-2.38-1.5-2.47,1.5H138.1l.7-.4V85.1L136,83.7,127.419,89h-1.194l9.074-5.6-.334-.2H134.9l.036-.019L134.8,83.1h.3l.2-.1-9.4-5.7-3.3,5.9L125.79,89h-1.044L121.9,84l-2.8,4.9.058.1H118.3l-2.8-4.9-2.75,4.9h-.738l3.089-5.5-.5-.3h.6V83L112,77.3c-1.965,1.278-6.44,3.905-9.632,5.8h.432l-.4.3L111.57,89h-1.49L101.5,83.7l-3.1,1.4h-.1v3.3l1.024.6H97.53L95,87.5v-.9l.4.1L97.7,88V85a.519.519,0,0,1,.2-.4l3.193-1.453L97.9,81.6a.518.518,0,0,1-.2-.4V78.3l-2.4,1.4-.3.1V79l2.7-1.6V65.1a.428.428,0,0,1,.4-.4h6.6L102,59.9H95v-.8h6.6L95,47.4v-1l2.6-4.6L95,37.1V35.7l6.5-11.3H95v-.8h7l2.7-4.8H98.1a.431.431,0,0,1-.4-.4V9h.7v8.7H105l3.2-5.6L102.963,9h1.49l4.447,2.6c.2.2.3.4.2.6L106,17.7h5.5L116.557,9h.972l-5.03,8.7H125L120.051,9h.93l4.82,8.6h5.6l-3.1-5.5a.481.481,0,0,1,.2-.6L132.864,9h1.768L129.3,12l3.2,5.6h6.4V9h.8v9.1a.43.43,0,0,1-.4.4H133l2.7,4.8h13.5l2.7-4.8h-6.3a.432.432,0,0,1-.4-.4V9h.8v8.7h6.3l3.2-5.6L150.046,9h1.832l4.322,2.5a.481.481,0,0,1,.2.6l-3.1,5.5h5.5L163.642,9h.995L159.7,17.7h12.6L167.362,9h.967l4.969,8.7h5.3l-3.2-5.5c-.1-.1-.1-.1-.1-.2v-.1c0-.2.1-.2.2-.3l4.6-2.6h1.729L176.3,12.1l3.2,5.6h6.8V9h.8v9a.429.429,0,0,1-.4.4H180l2.8,4.8h7.1V24h-6.6l6.4,11,.2-.4v2.6l-.3-.5-2.8,4.7,2.8,4.3.3-.4v2.6l-.3-.5-6.5,11.4h6.8v.8h-7.2L180,64.3h6.7a.431.431,0,0,1,.4.4V77l2.5,1.5.2-.1v1h-.2c-.1,0-.1-.1-.2-.1L187.1,78v2.8a.519.519,0,0,1-.2.4l-2.6,1.6.2.2h-2.2l.5-.3-9.5-5.4-3.734,5.8h.134l-.1.3,3.475,5.6Zm-32.4-7.7a.518.518,0,0,1-.2.4l-3,1.451,2.9,1.45a.519.519,0,0,1,.2.4v3.3l2.6-1.6a.306.306,0,0,1,.4,0l2.4,1.5V84.9a.514.514,0,0,1,.2-.4l2.6-1.2-.7-.3h1.1l-2.8-1.4a.518.518,0,0,1-.2-.4V78.1l-2.5,1.4a.3.3,0,0,1-.4,0L139.8,78ZM116,83.2l2.9,5.1,3-5.1h-.1V83l-2.9-5ZM165.9,88l2.742-4.8H168.6l.1-.2-2.6-4.7-2.8,4.9h-.142Zm-9.5-17.1a.481.481,0,0,1-.2.6l-10.2,6v3.3l3,1.5,9.9-6.1a.369.369,0,0,1,.3-.1c.1,0,.2.1.3.2l3.3,5.6,2.7-4.7-6.7-12h-5.6Zm-30.6,5.3L136,82.3l2.8-1.4V77.4l-10.3-6a.614.614,0,0,1-.1-.6l3.1-5.5h-5.6l-6.7,11.8L122,82l3.2-5.6c.1-.1.2-.2.3-.2a.226.226,0,0,1,.151-.075A.222.222,0,0,1,125.8,76.2Zm47.6-.1,10.3,6.1,2.7-1.6v-3l-10.8-6.2a.48.48,0,0,1-.2-.6l3.2-5.6h-5.3l-6.8,12,2.7,4.7,3.6-5.7a.492.492,0,0,1,.351-.166A.57.57,0,0,1,173.4,76.1Zm-64.3-5.4a.476.476,0,0,1-.2.6L98.3,77.5v3.1l3.1,1.6c3.5-2,8.7-5.2,10.2-6.1h.4c.2,0,.2.1.3.2l3.1,5.5,2.8-4.9-6.8-11.8h-5.5ZM133,64.4h6.3a.432.432,0,0,1,.4.4V76.9l2.8,1.7,2.7-1.6V64.8a.434.434,0,0,1,.4-.4h6.2l-2.7-4.8H135.7Zm43.3,6.5,10,5.7V65.2h-6.8ZM98.4,76.6l9.8-5.7L105,65.2H98.4Zm47.6-.1,9.4-5.5-3.2-5.8H146Zm20-.1,6.3-11.2H159.7Zm-36.6-5.6,9.5,5.6V65.2h-6.3Zm-10.6,5.3L125,65.2H112.5Zm40.5-11.7h13.5l2.7-4.8h-6.6a.457.457,0,0,1-.4-.5v-12l-2.8-1.6L163.3,47V59.2a.429.429,0,0,1-.4.4h-6.3Zm-6.6,0h5.6l-2.7-4.8H150Zm-26.2,0h5.6l2.7-4.8h-5.6Zm-14.6,0h13.5l2.7-4.8h-6.2a.429.429,0,0,1-.4-.4V47.3l-3-1.8-2.6,1.6h-.1V59.2a.43.43,0,0,1-.4.4h-6.3Zm-6.4,0H111l-2.8-4.8h-5.4Zm68.2-.1H179l2.7-4.7h-5.2ZM142.9,47.1,149.5,59h5.6L152,53.5c-.1-.1-.1-.1-.1-.2a.508.508,0,0,1,.2-.4l10.2-6.2v-3l-2.6-1.6-10.5,6h-.3c-.1,0-.1-.1-.2-.2l-3.2-5.3Zm26.4-3.5v3.1l10.6,6a.332.332,0,0,1,0,.6l-3.1,5.5h5.3l7-12.3-2.8-4.3-3.4,5.7a.666.666,0,0,1-.6.1l-10.4-6Zm.1,15.2H176l3.2-5.5-9.8-5.6ZM153,53.3l3.1,5.5h6.3V47.6Zm-16.8,5.5h12.5l-6.2-11.1Zm-13.8,0h6.2l3.2-5.5-9.4-5.5Zm-16.9-5.5,3.2,5.5h6.4V47.6Zm-9.8-6.7,6.8,12.2h5.4l-3.1-5.5a.377.377,0,0,1,.1-.6l10.3-6.1V43.3l-2.7-1.5-10.7,6.3h-.3c-.2,0-.2-.1-.3-.2l-3.1-5.6Zm26.6-3.4v3.5l10.2,6c.2.1.3.4.1.5l-3.1,5.5h5.6l6.8-11.9-2.6-4.7-3,5.3a.482.482,0,0,1-.6.2l-10.6-5.9Zm50.4-1.7,9.7,5.6,3.4-5.6-3.7-5.7Zm-26.6-.1,3.2,5.7,9.7-5.6-9.7-5.8Zm-47.6,0,3.2,5.7,9.9-5.8-9.9-5.5Zm27.6-.2,9.8,5.5,3.1-5.5-3.1-5.5Zm-7.4,3.6,2.8,1.6V43.1a.512.512,0,0,1,.2-.4l2.5-1.4-2.5-1.4a.525.525,0,0,1-.2-.4V36.4L118.7,38a.307.307,0,0,1-.4,0l-2.4-1.4v2.8a.513.513,0,0,1-.2.4l-2.5,1.4,2.5,1.4a.515.515,0,0,1,.2.4v3.2l2.4-1.4a.308.308,0,0,1,.4,0Zm47.2,0,2.6,1.5V43.4a.52.52,0,0,1,.2-.4l2.4-1.5-2.4-1.4a.756.756,0,0,1-.2-.4V36.9l-2.2,1.3a.3.3,0,0,1-.4,0l-2.6-1.6v3.2a.516.516,0,0,1-.2.4l-2.4,1.4,2.4,1.4a.756.756,0,0,1,.2.4v2.7l2.2-1.3a.29.29,0,0,1,.2-.075A.284.284,0,0,1,165.9,44.8Zm-26-3.6,2.6,4.7,2.6-4.5-2.7-4.7Zm9.5-6.3,10.5,6.2,2.6-1.5V36.2l-10.2-6.1a.708.708,0,0,1-.3-.6l3.1-5.4h-5.5L142.9,36l2.7,4.7,3.2-5.6c.1-.1.2-.2.3-.2a.211.211,0,0,1,.149-.076A.218.218,0,0,1,149.4,34.9ZM180,29.4a.376.376,0,0,1-.1.6l-10.6,6.4v3.1l2.6,1.5L182,34.9a.376.376,0,0,1,.6.1l3.7,5.5,2.8-4.7L182.2,24h-5.3Zm-47.3.1a.664.664,0,0,1-.2.7L122.4,36v3.3l2.8,1.5,10.6-5.9a.481.481,0,0,1,.6.2l3,5.4,2.5-4.5-6.7-11.9h-5.6Zm-31,5.3,10.7,6,2.7-1.6V36.1l-10.3-6a.48.48,0,0,1-.2-.6l3.2-5.4h-5.5l-6.9,12,2.5,4.5,3.2-5.6a.484.484,0,0,1,.426-.239A.409.409,0,0,1,101.7,34.8Zm54.9-11.5h6.3a.429.429,0,0,1,.4.4v12l2.8,1.7,2.4-1.4V23.7a.353.353,0,0,1,.4-.4h6.6l-2.7-4.8H159.3Zm-47.4,0h6.3a.369.369,0,0,1,.3.1c.1.1.1.2.2.3v12l2.6,1.5,3-1.7V23.7a.428.428,0,0,1,.4-.4h6.2l-2.7-4.8H112Zm60.1,12.2,9.8-5.9L176,24.1h-6.7ZM153,29.6l9.4,5.6V24.1h-6.3Zm-10.6,5.5,6.3-11H136.2Zm-36.9-5.6,9.6,5.6V24h-6.4ZM122.4,35l9.3-5.4-3.1-5.5h-6.2Zm54.2-11.7h5.3l-2.8-4.8h-5.3Zm-26.5,0h5.5l2.7-4.8h-5.5Zm-21,0h5.6L132,18.5h-5.6Zm-26.2,0h5.4l2.8-4.8h-5.5ZM90.417,89l.883-.5v-3l-2.7-1.8L79.8,89H78.531L87.8,83.4l-.4-.3h2.7l-.6.3L92,85.1c.1,0,.2.2.2.3v2.7l2.3-1.3c.1-.1.1-.1.2-.1h.2v1.1l-.3-.2L92.1,89H90.417ZM77.2,89l-3.1-4.9-2.6,4.7.115.2H70.332l.168-.3-2.6-4.6L65.234,89h-1.08L67.4,83.1h.049L67.5,83l-3.4-5.7L55,83h.3l-.158.094.158.106h-.334l-.166.1L63.937,89H62.579L54,83.7l-3,1.4v3.5l.694.4H49.881L47.5,87.5,45.03,89H43.1l.7-.4V85.1L41,83.7,32.42,89H31.226L40.3,83.4l-.334-.2H39.9l.036-.019L39.8,83.1h.3l.2-.1-9.4-5.7-3.3,5.9L30.79,89H29.745L26.9,84l-2.8,4.9.058.1H23.3l-2.8-4.9L17.748,89h-.736L20.1,83.5l-.5-.3h.6V83L17,77.3c-1.966,1.278-6.442,3.905-9.636,5.8H7.8l-.4.3L16.571,89H15.95q-.475,0-.94-.044L7.466,84.3a9.953,9.953,0,0,1-1-2.131c3.5-2,8.649-5.172,10.139-6.066H17c.2,0,.2.1.3.2l3.1,5.5,2.8-4.9L16.4,65.1H10.9l3.2,5.6a.476.476,0,0,1-.2.6L5.95,75.951v-.833L13.2,70.9,10,65.2H5.95v-.5H9.7L7,59.9H5.95v-.8H6.6L5.95,57.947V56.019L7.5,58.8h5.4L9.8,53.3a.378.378,0,0,1,.1-.6l10.3-6.1V43.3l-2.7-1.5L6.8,48.1H6.5c-.2,0-.2-.1-.3-.2l-.248-.449V45.764L6.7,47.1l9.9-5.8L6.7,35.8,5.95,37.114V35.265L6.1,35a.482.482,0,0,1,.423-.239A.417.417,0,0,1,6.7,34.8l10.7,6,2.7-1.6V36.1l-10.3-6a.48.48,0,0,1-.2-.6l3.2-5.4H7.3L5.95,26.447V25.356L6.5,24.4H5.95v-.8H7l2.7-4.8H5.952a10.066,10.066,0,0,1,.082-1.1H10l3.2-5.6-2.609-1.544q.373-.237.767-.441L13.9,11.6c.2.2.3.4.2.6L11,17.7h5.5L21.557,9h.971L17.5,17.7H30L25.05,9h.931l4.82,8.6h5.6l-3.1-5.5a.478.478,0,0,1,.2-.6L37.865,9h1.767L34.3,12l3.2,5.6h6.4V9h.8v9.1a.428.428,0,0,1-.4.4H38l2.7,4.8H54.2l2.7-4.8H50.6a.43.43,0,0,1-.4-.4V9H51v8.7h6.3l3.2-5.6L55.045,9h1.832L61.2,11.5a.479.479,0,0,1,.2.6l-3.1,5.5h5.5L68.643,9h.995L64.7,17.7H77.3L72.363,9h.966L78.3,17.7h5.3l-3.2-5.5c-.1-.1-.1-.1-.1-.2v-.1c0-.2.1-.2.2-.3L85.105,9h1.73L81.3,12.1l3.2,5.6h6.8V9h.8v9a.429.429,0,0,1-.4.4H85l2.8,4.8h7.1V24H88.3l6.4,11,.2-.4v2.6l-.3-.5-2.8,4.7,2.8,4.3.3-.4v2.6l-.3-.5L88.1,58.8h6.8v.8H87.7L85,64.3h6.7a.431.431,0,0,1,.4.4V77l2.5,1.5.2-.1v1h-.2c-.1,0-.1-.1-.2-.1L92.1,78v2.8a.521.521,0,0,1-.2.4l-2.6,1.6.2.2H87.3l.5-.3-9.5-5.4-3.738,5.8H74.7l-.1.3L78.075,89ZM44.8,81.3a.522.522,0,0,1-.2.4l-3,1.451,2.9,1.45a.518.518,0,0,1,.2.4v3.3l2.6-1.6a.3.3,0,0,1,.4,0l2.4,1.5V84.9a.516.516,0,0,1,.2-.4l2.6-1.2-.7-.3h1.1l-2.8-1.4a.515.515,0,0,1-.2-.4V78.1l-2.5,1.4a.3.3,0,0,1-.4,0L44.8,78ZM21,83.2l2.9,5.1,3-5.1h-.1V83l-2.9-5ZM70.9,88l2.742-4.8H73.6l.1-.2-2.6-4.7-2.8,4.9h-.143ZM61.4,70.9a.479.479,0,0,1-.2.6L51,77.5v3.3l3,1.5,9.9-6.1a.36.36,0,0,1,.3-.1c.1,0,.2.1.3.2l3.3,5.6,2.7-4.7-6.7-12H58.2ZM30.8,76.2,41,82.3l2.8-1.4V77.4l-10.3-6a.614.614,0,0,1-.1-.6l3.1-5.5H30.9L24.2,77.1,27,82l3.2-5.6c.1-.1.2-.2.3-.2a.218.218,0,0,1,.148-.075A.224.224,0,0,1,30.8,76.2Zm47.6-.1,10.3,6.1,2.7-1.6v-3L80.6,71.4a.48.48,0,0,1-.2-.6l3.2-5.6H78.3l-6.8,12,2.7,4.7,3.6-5.7a.492.492,0,0,1,.351-.166A.591.591,0,0,1,78.4,76.1ZM38,64.4h6.3a.431.431,0,0,1,.4.4V76.9l2.8,1.7L50.2,77V64.8a.432.432,0,0,1,.4-.4h6.2l-2.7-4.8H40.7Zm43.3,6.5,10,5.7V65.2H84.5ZM51,76.5,60.4,71l-3.2-5.8H51Zm20-.1,6.3-11.2H64.7ZM34.4,70.8l9.5,5.6V65.2H37.6ZM23.8,76.1,30,65.2H17.5ZM64.3,64.4H77.8l2.7-4.8H73.9a.457.457,0,0,1-.4-.5v-12l-2.8-1.6L68.3,47V59.2a.43.43,0,0,1-.4.4H61.6Zm-6.6,0h5.6l-2.7-4.8H55Zm-26.2,0h5.6l2.7-4.8H34.2Zm-14.6,0H30.4l2.7-4.8H26.9a.43.43,0,0,1-.4-.4V47.3l-3-1.8-2.6,1.6h-.1V59.2a.431.431,0,0,1-.4.4H14.1Zm-6.4,0H16l-2.8-4.8H7.8Zm68.2-.1H84l2.7-4.7H81.5ZM47.9,47.1,54.5,59h5.6L57,53.5c-.1-.1-.1-.1-.1-.2a.5.5,0,0,1,.2-.4l10.2-6.2v-3l-2.6-1.6-10.5,6h-.3c-.1,0-.1-.1-.2-.2l-3.2-5.3Zm26.4-3.5v3.1l10.6,6a.333.333,0,0,1,0,.6l-3.1,5.5h5.3l7-12.3-2.8-4.3-3.4,5.7a.659.659,0,0,1-.6.1L76.9,42Zm.1,15.2H81l3.2-5.5-9.8-5.6ZM58,53.3l3.1,5.5h6.3V47.6ZM41.2,58.8H53.7L47.5,47.7Zm-13.8,0h6.2l3.2-5.5-9.4-5.5ZM10.5,53.3l3.2,5.5h6.4V47.6ZM27.3,43.2v3.5l10.2,6c.2.1.3.4.1.5l-3.1,5.5h5.6l6.8-11.9-2.6-4.7-3,5.3a.48.48,0,0,1-.6.2L30.1,41.7Zm50.4-1.7,9.7,5.6,3.4-5.6-3.7-5.7Zm-26.6-.1,3.2,5.7L64,41.5l-9.7-5.8Zm-20-.2,9.8,5.5L44,41.2l-3.1-5.5Zm-7.4,3.6,2.8,1.6V43.1a.512.512,0,0,1,.2-.4l2.5-1.4-2.5-1.4a.525.525,0,0,1-.2-.4V36.4L23.7,38a.3.3,0,0,1-.4,0l-2.4-1.4v2.8a.509.509,0,0,1-.2.4l-2.5,1.4,2.5,1.4a.511.511,0,0,1,.2.4v3.2l2.4-1.4a.29.29,0,0,1,.2-.075A.28.28,0,0,1,23.7,44.8Zm47.2,0,2.6,1.5V43.4a.52.52,0,0,1,.2-.4l2.4-1.5-2.4-1.4a.756.756,0,0,1-.2-.4V36.9l-2.2,1.3a.3.3,0,0,1-.4,0l-2.6-1.6v3.2a.519.519,0,0,1-.2.4l-2.4,1.4L68.1,43a.762.762,0,0,1,.2.4v2.7l2.2-1.3a.3.3,0,0,1,.4,0Zm-26-3.6,2.6,4.7,2.6-4.5-2.7-4.7Zm9.5-6.3,10.5,6.2,2.6-1.5V36.2L57.3,30.1a.714.714,0,0,1-.3-.6l3.1-5.4H54.6L47.9,36l2.7,4.7,3.2-5.6c.1-.1.2-.2.3-.2a.188.188,0,0,1,.3,0ZM85,29.4a.379.379,0,0,1-.1.6L74.3,36.4v3.1L76.9,41,87,34.9a.377.377,0,0,1,.6.1l3.7,5.5,2.8-4.7L87.2,24H81.9Zm-47.3.1a.662.662,0,0,1-.2.7L27.4,36v3.3l2.8,1.5,10.6-5.9a.478.478,0,0,1,.6.2l3,5.4L46.9,36,40.2,24.1H34.6Zm23.9-6.2h6.3a.43.43,0,0,1,.4.4v12l2.8,1.7L73.5,36V23.7a.353.353,0,0,1,.4-.4h6.6l-2.7-4.8H64.3Zm-47.4,0h6.3a.37.37,0,0,1,.3.1c.1.1.1.2.2.3v12l2.6,1.5,3-1.7V23.7a.43.43,0,0,1,.4-.4h6.2l-2.7-4.8H17ZM74.3,35.5l9.8-5.9L81,24.1H74.3ZM58,29.6l9.4,5.6V24.1H61.1ZM47.4,35.1l6.3-11H41.2ZM10.5,29.5l9.6,5.6V24H13.7ZM27.4,35l9.3-5.4-3.1-5.5H27.4ZM81.6,23.3h5.3l-2.8-4.8H78.8Zm-26.5,0h5.5l2.7-4.8H57.8Zm-21,0h5.6L37,18.5H31.4Zm-26.2,0h5.4l2.8-4.8H10.6ZM270.6,71.4a.478.478,0,0,1-.2-.6l2.55-4.461V67.96L271.3,70.9l1.651.941v.907Zm.032-58.8a9.993,9.993,0,0,1,1.688,2.9Z" transform="translate(-5.95 -9)" fill="url(#a)"/></svg>