<svg xmlns="http://www.w3.org/2000/svg" xmlns:xlink="http://www.w3.org/1999/xlink" width="404" height="116" viewBox="0 0 404 116"><defs><linearGradient id="a" x1="0.983" y1="0.615" x2="0" y2="0.667" gradientUnits="objectBoundingBox"><stop offset="0" stop-color="#fff" stop-opacity="0"/><stop offset="0.489" stop-color="#fff" stop-opacity="0.471"/><stop offset="1" stop-color="#fff" stop-opacity="0"/></linearGradient></defs><g transform="translate(-1212 -716)"><path d="M471.9,141.1h-3.4l6.1-10.7.3.5v-2.6l-.3.4-2.8-4.3,2.8-4.7.3.5v-2.6l-.2.4-6.4-11h6.6v-.8h-7.1l-2.8-4.8h6.7a.429.429,0,0,0,.4-.4V89l2.5-1.4.3.2V86.7h-.2c-.1,0-.1,0-.2.1l-2.3,1.3V85.4c0-.1-.1-.3-.2-.3l-2.5-1.7.6-.3h-2.7l.4.3-9.6,5.8-3.6-5.8.1-.3h-.134l3.734-5.8,9.5,5.4-.5.3h2.2l-.2-.2,2.6-1.6a.526.526,0,0,0,.2-.4V78l2.3,1.3a.134.134,0,0,1,.1.051.128.128,0,0,0,.1.049h.2v-1l-.2.1L472.1,77V64.7a.434.434,0,0,0-.4-.4H465l2.7-4.7h7.2v-.8h-6.8l6.5-11.4.3.5V45.3l-.3.4-2.8-4.3,2.8-4.7.3.5V34.6l-.2.4-5.76-9.9H471.9a9.973,9.973,0,0,1,7.346,3.215L475,35.7v1.4l2.6,4.7L475,46.4v1l6.6,11.7H475v.8h6.9v4.8h-3.8a.428.428,0,0,0-.4.4V77.4L475,79v.8l.3-.1,2.4-1.4v2.9a.521.521,0,0,0,.2.4l3.194,1.548L477.9,84.6a.526.526,0,0,0-.2.4v3l-2.3-1.3-.4-.1v.9l2.7,1.6v12.3a.427.427,0,0,0,.4.4h3.8v4.8H475v.8h6.5L475,118.7v1.4l2.6,4.7-2.6,4.6v1l4.233,7.5a9.973,9.973,0,0,1-7.332,3.2Zm-4.4,0h-5.3l2.708-4.8a.365.365,0,0,0,.188-.322.342.342,0,0,0-.188-.277l-10.6-6v-3.1l2.6-1.6,10.4,6a.386.386,0,0,0,.177.042,1.006,1.006,0,0,0,.415-.135l.009,0,3.4-5.7,2.8,4.3-6.6,11.6Zm-6.089,0H454.4V130.7l9.8,5.6-2.792,4.8Zm-7.907,0h-5.2V130l2.4-1.5,2.8,1.6v11Zm-6.1,0h-6.693L438,136.3l9.4-5.7v10.5Zm-7.805,0H434l-6.1-11,2.6-4.5,3.2,5.3a.532.532,0,0,1,.085.109c.033.052.056.089.117.089h.3l10.5-6,2.6,1.6v3l-10.2,6.2a.526.526,0,0,0-.2.4c0,.1,0,.1.1.2l2.592,4.6Zm-6.286,0H421.6l5.9-10.4,5.806,10.4Zm-12.865,0h-5.605l2.764-4.9a.193.193,0,0,0,.107-.181.384.384,0,0,0-.207-.32l-10.2-6v-3.5l2.8-1.5,10.6,5.9a.4.4,0,0,0,.176.039.48.48,0,0,0,.425-.242l3-5.3,2.6,4.7-6.459,11.3Zm-6.436,0H407.4V130.8l9.4,5.5-2.793,4.8Zm-7.505,0h-5.7v-11h.1l2.6-1.6,3,1.8v10.8Zm-6.4,0h-6.8l-2.8-4.8,9.6-5.7v10.5Zm-7.593,0h-5.4l-6.41-11.5,2.4-4.3,3.1,5.6a.6.6,0,0,1,.063.076.242.242,0,0,0,.239.122h.3l10.7-6.3,2.7,1.5v3.3l-10.3,6.1a.391.391,0,0,0-.2.285.355.355,0,0,0,.1.315l2.7,4.8Zm-6.469,0H373.5l6.1-10.7.3.5v-2.6l-.3.4-2.8-4.3,2.8-4.7.3.5v-2.6l-.2.4-6.4-11h6.6v-.8h-7.1l-2.8-4.8h6.7a.429.429,0,0,0,.4-.4V89l2.5-1.4.3.2V86.7h-.2c-.1,0-.1,0-.2.1l-2.3,1.3V85.4c0-.1-.1-.3-.2-.3l-2.5-1.7.6-.3h-2.7l.4.3-9.6,5.8-3.6-5.8.1-.3h-.136l3.738-5.8,9.5,5.4-.5.3h2.2l-.2-.2,2.6-1.6a.521.521,0,0,0,.2-.4V78l2.3,1.3a.133.133,0,0,1,.1.05.131.131,0,0,0,.1.05h.2v-1l-.2.1L377.1,77V64.7a.429.429,0,0,0-.4-.4H370l2.7-4.7h7.2v-.8h-6.8l6.5-11.4.3.5V45.3l-.3.4-2.8-4.3,2.8-4.7.3.5V34.6l-.2.4-5.759-9.9H386.1L380,35.7v1.4l2.6,4.7L380,46.4v1l6.6,11.7H380v.8h7l2.7,4.8h-6.6a.428.428,0,0,0-.4.4V77.4L380,79v.8l.3-.1,2.4-1.4v2.9a.515.515,0,0,0,.2.4l3.193,1.548L382.9,84.6a.513.513,0,0,0-.2.4v3l-2.3-1.3-.4-.1v.9l2.7,1.6v12.3a.432.432,0,0,0,.4.4h6.6l-2.7,4.8h-7v.8h6.5L380,118.7v1.4l2.6,4.7-2.6,4.6v1l6.035,10.7Zm-13.538,0h-5.3l2.707-4.8a.366.366,0,0,0,.188-.323.341.341,0,0,0-.187-.276l-10.6-6v-3.1l2.6-1.6,10.4,6a.386.386,0,0,0,.177.042,1,1,0,0,0,.418-.136l.005,0,3.4-5.7,2.8,4.3-6.6,11.6Zm-6.091,0H359.4V130.7l9.8,5.6-2.792,4.8Zm-7.907,0h-5.2V130l2.4-1.5,2.8,1.6v11Zm-6.1,0h-6.694L343,136.3l9.4-5.7v10.5Zm-7.807,0H339l-6.1-11,2.6-4.5,3.2,5.3a.531.531,0,0,1,.082.108c.033.052.056.09.117.09h.3l10.5-6,2.6,1.6v3l-10.2,6.2a.513.513,0,0,0-.2.4c0,.1,0,.1.1.2l2.594,4.6Zm-6.283,0H326.6l5.9-10.4,5.811,10.4Zm-12.867,0h-5.605l2.761-4.9a.194.194,0,0,0,.109-.183.382.382,0,0,0-.209-.319l-10.2-6v-3.5l2.8-1.5,10.6,5.9a.389.389,0,0,0,.175.039.48.48,0,0,0,.425-.242l3-5.3,2.6,4.7-6.455,11.3Zm-6.436,0H312.4V130.8l9.4,5.5-2.792,4.8Zm-7.509,0h-5.7v-11h.1l2.6-1.6,3,1.8v10.8Zm-6.4,0h-6.807l-2.794-4.8,9.6-5.7v10.5Zm-7.594,0h-5.4L285.7,129.6l2.4-4.3,3.1,5.6a.6.6,0,0,1,.065.077.241.241,0,0,0,.237.121h.3l10.7-6.3,2.7,1.5v3.3l-10.3,6.1a.389.389,0,0,0-.2.282.359.359,0,0,0,.1.318l2.707,4.8Zm-6.468,0H278.5l6.1-10.7.3.5v-2.6l-.3.4-2.8-4.3,2.8-4.7.3.5v-2.6l-.2.4-6.4-11h6.6v-.8h-7.1l-2.8-4.8h6.7a.429.429,0,0,0,.4-.4V89l2.5-1.4.3.2V86.7h-.2c-.1,0-.1,0-.2.1l-2.3,1.3V85.4c0-.1-.1-.3-.2-.3l-2.5-1.7.6-.3h-2.7l.4.3-9.6,5.8-3.6-5.8.1-.3h-.136l3.736-5.8,9.5,5.4-.5.3h2.2l-.2-.2,2.6-1.6a.521.521,0,0,0,.2-.4V78l2.3,1.3a.129.129,0,0,1,.1.05.133.133,0,0,0,.1.05h.2v-1l-.2.1L282.1,77V64.7a.429.429,0,0,0-.4-.4H275l2.7-4.7h7.2v-.8h-6.8l6.5-11.4.3.5V45.3l-.3.4-2.8-4.3,2.8-4.7.3.5V34.6l-.2.4-5.76-9.9H291.1L285,35.7v1.4l2.6,4.7L285,46.4v1l6.6,11.7H285v.8h7l2.7,4.8h-6.6a.428.428,0,0,0-.4.4V77.4L285,79v.8l.3-.1,2.4-1.4v2.9a.514.514,0,0,0,.2.4l3.2,1.548L287.9,84.6a.518.518,0,0,0-.2.4v3l-2.3-1.3-.4-.1v.9l2.7,1.6v12.3a.427.427,0,0,0,.4.4h6.6l-2.7,4.8h-7v.8h6.5L285,118.7v1.4l2.6,4.7-2.6,4.6v1l6.038,10.7Zm-13.539,0h-5.3l2.706-4.8a.365.365,0,0,0,.189-.323.341.341,0,0,0-.189-.277l-10.6-6v-3.1l2.6-1.6,10.4,6a.383.383,0,0,0,.176.042,1,1,0,0,0,.412-.134l.011-.005,3.4-5.7,2.8,4.3-6.6,11.6Zm-6.091,0H264.4V130.7l9.8,5.6-2.792,4.8Zm-7.906,0h-5.2V130l2.4-1.5,2.8,1.6v11Zm-6.1,0h-6.694l-2.7-4.8,9.4-5.7v10.5Zm-7.807,0H244l-6.1-11,2.6-4.5,3.2,5.3a.532.532,0,0,1,.082.108c.033.052.056.09.117.09h.3l10.5-6,2.6,1.6v3l-10.2,6.2a.521.521,0,0,0-.2.4c0,.1,0,.1.1.2l2.592,4.6Zm-6.283,0H231.6l5.9-10.4,5.809,10.4Zm-12.867,0h-5.605l2.764-4.9a.193.193,0,0,0,.109-.182.383.383,0,0,0-.211-.319l-10.2-6v-3.5l2.8-1.5,10.6,5.9a.391.391,0,0,0,.175.039.48.48,0,0,0,.424-.242l3-5.3,2.6,4.7-6.458,11.3Zm-6.437,0H217.4V130.8l9.4,5.5-2.793,4.8Zm-7.505,0h-5.7v-11h.1l2.6-1.6,3,1.8v10.8Zm-6.4,0h-6.807l-2.8-4.8,9.6-5.7v10.5Zm-7.6,0h-5.394L190.7,129.6l2.4-4.3,3.1,5.6a.61.61,0,0,1,.065.077.239.239,0,0,0,.235.121h.3l10.7-6.3,2.7,1.5v3.3l-10.3,6.1a.392.392,0,0,0-.2.285.355.355,0,0,0,.1.314l2.7,4.8Zm-6.467,0H183.5l6.1-10.7.3.5v-2.6l-.3.4-2.8-4.3,2.8-4.7.3.5v-2.6l-.2.4-6.4-11h6.6v-.8h-7.1l-2.8-4.8h6.7a.428.428,0,0,0,.4-.4V89l2.5-1.4.3.2V86.7h-.2c-.1,0-.1,0-.2.1l-2.3,1.3V85.4c0-.1-.1-.3-.2-.3l-2.5-1.7.6-.3h-2.7l.4.3-9.6,5.8-3.6-5.8.1-.3h-.134l3.734-5.8,9.5,5.4-.5.3h2.2l-.2-.2,2.6-1.6a.521.521,0,0,0,.2-.4V78l2.3,1.3a.133.133,0,0,1,.1.051.127.127,0,0,0,.1.049h.2v-1l-.2.1L187.1,77V64.7a.434.434,0,0,0-.4-.4H180l2.7-4.7h7.2v-.8h-6.8l6.5-11.4.3.5V45.3l-.3.4-2.8-4.3,2.8-4.7.3.5V34.6l-.2.4-5.76-9.9H196.1L190,35.7v1.4l2.6,4.7L190,46.4v1l6.6,11.7H190v.8h7l2.7,4.8h-6.6a.428.428,0,0,0-.4.4V77.4L190,79v.8l.3-.1,2.4-1.4v2.9a.517.517,0,0,0,.2.4l3.193,1.548L192.9,84.6a.521.521,0,0,0-.2.4v3l-2.3-1.3-.4-.1v.9l2.7,1.6v12.3a.426.426,0,0,0,.4.4h6.6l-2.7,4.8h-7v.8h6.5L190,118.7v1.4l2.6,4.7-2.6,4.6v1l6.037,10.7Zm-13.539,0h-5.3l2.705-4.8a.365.365,0,0,0,.189-.323.341.341,0,0,0-.189-.277l-10.6-6v-3.1l2.6-1.6,10.4,6a.388.388,0,0,0,.177.042,1,1,0,0,0,.413-.133l.012-.006,3.4-5.7,2.8,4.3-6.6,11.6Zm-6.093,0H169.4V130.7l9.8,5.6-2.795,4.8Zm-7.906,0h-5.2V130l2.4-1.5,2.8,1.6v11Zm-6.1,0h-6.694L153,136.3l9.4-5.7v10.5Zm-7.807,0H149l-6.1-11,2.6-4.5,3.2,5.3a.528.528,0,0,1,.084.109c.033.052.056.089.117.089h.3l10.5-6,2.6,1.6v3l-10.2,6.2a.517.517,0,0,0-.2.4c0,.1,0,.1.1.2l2.594,4.6Zm-6.285,0H136.6l5.9-10.4,5.807,10.4Zm-12.865,0h-5.605l2.764-4.9a.193.193,0,0,0,.108-.181.384.384,0,0,0-.208-.32l-10.2-6v-3.5l2.8-1.5,10.6,5.9a.4.4,0,0,0,.176.039.479.479,0,0,0,.425-.242l3-5.3,2.6,4.7-6.455,11.3Zm-6.436,0H122.4V130.8l9.4,5.5-2.792,4.8Zm-7.506,0h-5.7v-11h.1l2.6-1.6,3,1.8v10.8Zm-6.4,0h-6.807l-2.8-4.8,9.6-5.7v10.5Zm-7.594,0h-5.4L95.7,129.6l2.4-4.3,3.1,5.6a.6.6,0,0,1,.063.076.241.241,0,0,0,.238.122h.3l10.7-6.3,2.7,1.5v3.3l-10.3,6.1a.39.39,0,0,0-.2.284.356.356,0,0,0,.1.315l2.707,4.8Zm-6.472,0H88.5l6.1-10.7.3.5v-2.6l-.3.4-2.8-4.3,2.8-4.7.3.5v-2.6l-.2.4-6.4-11h6.6v-.8H87.8L85,101.4h6.7a.429.429,0,0,0,.4-.4V89l2.5-1.4.3.2V86.7h-.2c-.1,0-.1,0-.2.1l-2.3,1.3V85.4c0-.1-.1-.3-.2-.3l-2.5-1.7.6-.3H87.4l.4.3-9.6,5.8-.3-.482v-10.8l.4-.621,9.5,5.4-.5.3h2.2l-.2-.2,2.6-1.6a.525.525,0,0,0,.2-.4V78l2.3,1.3a.134.134,0,0,1,.1.05.131.131,0,0,0,.1.05h.2v-1l-.2.1L92.1,77V64.7a.429.429,0,0,0-.4-.4H85l2.7-4.7h7.2v-.8H88.1l6.5-11.4.3.5V45.3l-.3.4-2.8-4.3,2.8-4.7.3.5V34.6l-.2.4-5.759-9.9H101.1L95,35.7v1.4l2.6,4.7L95,46.4v1l6.6,11.7H95v.8h7l2.7,4.8H98.1a.427.427,0,0,0-.4.4V77.4L95,79v.8l.3-.1,2.4-1.4v2.9a.517.517,0,0,0,.2.4l3.193,1.548L97.9,84.6a.521.521,0,0,0-.2.4v3l-2.3-1.3-.4-.1v.9l2.7,1.6v12.3a.425.425,0,0,0,.4.4h6.6l-2.7,4.8H95v.8h6.5L95,118.7v1.4l2.6,4.7L95,129.4v1l6.035,10.7ZM87.5,141.092h0a10.007,10.007,0,0,1-4.565-1.309L84.9,136.3a.366.366,0,0,0,.187-.322.342.342,0,0,0-.187-.277l-6.979-3.95c-.014-.218-.021-.436-.021-.65v-5.522L87.3,131a.388.388,0,0,0,.177.042,1,1,0,0,0,.417-.136l.005,0,3.4-5.7,2.8,4.3-6.6,11.592Zm-5.127-1.657h0a10.036,10.036,0,0,1-4.332-6.654L84.2,136.3l-1.824,3.135Zm397.515-2.32h0L475.7,129.6l2.4-4.3,3.1,5.6a.6.6,0,0,1,.064.077.239.239,0,0,0,.235.121h.3l.1-.059v.06a9.913,9.913,0,0,1-2.01,6.014ZM481.7,130.1h0l-3.2-5.7,3.2-5.6.2.11v11.072l-.2.116Zm-95,0h0l-3.2-5.7,3.2-5.6,9.9,5.5-9.9,5.8Zm-95,0h0l-3.2-5.7,3.2-5.6,9.9,5.5-9.9,5.8Zm-95,0h0l-3.2-5.7,3.2-5.6,9.9,5.5-9.9,5.8Zm-95,0h0l-3.2-5.7,3.2-5.6,9.9,5.5-9.9,5.8Zm365.7,0h0l-9.7-5.6,9.4-5.7,3.7,5.7-3.4,5.6Zm-33.1,0h0l-3.2-5.7,3.2-5.7,9.7,5.8-9.7,5.6Zm-61.9,0h0l-9.7-5.6,9.4-5.7,3.7,5.7-3.4,5.6Zm-33.1,0h0l-3.2-5.7,3.2-5.7,9.7,5.8-9.7,5.6Zm-61.9,0h0l-9.7-5.6,9.4-5.7,3.7,5.7-3.4,5.6Zm-33.1,0h0l-3.2-5.7,3.2-5.7,9.7,5.8-9.7,5.6Zm-61.9,0h0l-9.7-5.6,9.4-5.7,3.7,5.7-3.4,5.6Zm-33.1,0h0l-3.2-5.7,3.2-5.7,9.7,5.8-9.7,5.6Zm-61.9,0h0l-9.5-5.483v-.235l9.2-5.58,3.7,5.7-3.4,5.6Zm333.5-.4h0l-9.8-5.5,9.8-5.5,3.1,5.5-3.1,5.5Zm-95,0h0l-9.8-5.5,9.8-5.5,3.1,5.5-3.1,5.5Zm-95,0h0l-9.8-5.5,9.8-5.5,3.1,5.5-3.1,5.5Zm-95,0h0l-9.8-5.5,9.8-5.5,3.1,5.5-3.1,5.5Zm270.6-.3h0l-2.8-1.6a.307.307,0,0,0-.4,0l-2.4,1.4V126a.529.529,0,0,0-.2-.4l-2.5-1.4,2.5-1.4a.515.515,0,0,0,.2-.4v-2.8l2.4,1.4a.306.306,0,0,0,.4,0l2.8-1.6v3.1a.521.521,0,0,0,.191.393l.006.007,2.5,1.4-2.5,1.4,0,0a.522.522,0,0,0-.193.4v3.3Zm-95,0h0l-2.8-1.6a.27.27,0,0,0-.2-.075.279.279,0,0,0-.2.075l-2.4,1.4V126a.529.529,0,0,0-.2-.4l-2.5-1.4,2.5-1.4a.518.518,0,0,0,.2-.4v-2.8l2.4,1.4a.286.286,0,0,0,.2.075.282.282,0,0,0,.2-.075l2.8-1.6v3.1a.517.517,0,0,0,.192.392l.008.008,2.5,1.4-2.5,1.4-.005.005a.519.519,0,0,0-.195.4v3.3Zm-95,0h0l-2.8-1.6a.3.3,0,0,0-.4,0l-2.4,1.4V126a.526.526,0,0,0-.2-.4l-2.5-1.4,2.5-1.4a.512.512,0,0,0,.2-.4v-2.8l2.4,1.4a.278.278,0,0,0,.2.075.283.283,0,0,0,.2-.075l2.8-1.6v3.1a.519.519,0,0,0,.192.393l.007.007,2.5,1.4-2.5,1.4,0,0a.521.521,0,0,0-.195.4v3.3Zm-95,0h0l-2.8-1.6a.308.308,0,0,0-.4,0l-2.4,1.4V126a.529.529,0,0,0-.2-.4l-2.5-1.4,2.5-1.4a.518.518,0,0,0,.2-.4v-2.8l2.4,1.4a.307.307,0,0,0,.4,0l2.8-1.6v3.1a.512.512,0,0,0,.195.394l.005.005,2.5,1.4-2.5,1.4a.527.527,0,0,0-.2.4v3.3Zm332-.1h0l-2.6-1.5a.282.282,0,0,0-.2-.075.275.275,0,0,0-.2.075l-2.2,1.3v-2.7a.762.762,0,0,0-.2-.4l-2.4-1.4,2.4-1.4a.522.522,0,0,0,.2-.4v-3.2l2.6,1.6a.274.274,0,0,0,.2.075.281.281,0,0,0,.2-.075l2.2-1.3v2.8a.769.769,0,0,0,.2.4l2.4,1.4-2.4,1.5a.523.523,0,0,0-.2.4v2.9Zm-95,0h0l-2.6-1.5a.306.306,0,0,0-.4,0l-2.2,1.3v-2.7a.756.756,0,0,0-.2-.4l-2.4-1.4,2.4-1.4a.518.518,0,0,0,.2-.4v-3.2l2.6,1.6a.3.3,0,0,0,.4,0l2.2-1.3v2.8a.766.766,0,0,0,.2.4l2.4,1.4-2.4,1.5a.522.522,0,0,0-.2.4v2.9Zm-95,0h0l-2.6-1.5a.28.28,0,0,0-.2-.075.285.285,0,0,0-.2.075l-2.2,1.3v-2.7a.756.756,0,0,0-.2-.4l-2.4-1.4,2.4-1.4a.518.518,0,0,0,.2-.4v-3.2l2.6,1.6a.3.3,0,0,0,.4,0l2.2-1.3v2.8a.765.765,0,0,0,.2.4l2.4,1.4-2.4,1.5a.52.52,0,0,0-.2.4v2.9Zm-95,0h0l-2.6-1.5a.273.273,0,0,0-.2-.075.28.28,0,0,0-.2.075l-2.2,1.3v-2.7a.762.762,0,0,0-.2-.4l-2.4-1.4,2.4-1.4a.522.522,0,0,0,.2-.4v-3.2l2.6,1.6a.3.3,0,0,0,.4,0l2.2-1.3v2.8a.765.765,0,0,0,.2.4l2.4,1.4-2.4,1.5a.52.52,0,0,0-.2.4v2.9Zm259-.4v0l-2.6-4.7,2.5-4.5,2.7,4.7-2.6,4.5Zm-190,0v0l-2.6-4.7,2.5-4.5,2.7,4.7-2.6,4.5Zm-95,0v0l-2.6-4.7,2.5-4.5,2.7,4.7-2.6,4.5Zm190,0v0l-2.6-4.7,2.5-4.5,2.7,4.7-2.6,4.5Zm112.4-4.8h0l-10.5-6.2a.214.214,0,0,0-.151-.076.206.206,0,0,0-.148.076c-.1,0-.195.1-.289.19l-.01.01-3.2,5.6-2.7-4.7,6.7-11.9h5.5l-3.1,5.4a.72.72,0,0,0,.3.6l10.2,6.1v3.4l-2.6,1.5Zm-95,0h0l-10.5-6.2a.221.221,0,0,0-.152-.076.217.217,0,0,0-.151.076c-.094,0-.186.09-.282.185l-.015.015-3.2,5.6-2.7-4.7,6.7-11.9h5.5l-3.1,5.4a.722.722,0,0,0,.3.6l10.2,6.1v3.4l-2.6,1.5Zm-95,0h0l-10.5-6.2a.185.185,0,0,0-.3,0c-.1,0-.195.1-.289.19l-.01.01-3.2,5.6-2.7-4.7,6.7-11.9h5.5l-3.1,5.4a.72.72,0,0,0,.3.6l10.2,6.1v3.4l-2.6,1.5Zm-95,0h0l-10.5-6.2a.216.216,0,0,0-.15-.076.209.209,0,0,0-.149.076c-.1,0-.195.1-.289.19l-.01.01-3.2,5.6-2.7-4.7,6.7-11.9h5.5l-3.1,5.4a.718.718,0,0,0,.3.6l10.2,6.1v3.4l-2.6,1.5Zm297-.1h0l-2.6-1.5v-3.1l10.6-6.4a.391.391,0,0,0,.2-.285.352.352,0,0,0-.1-.312l-3.1-5.4h5.3l6.9,11.8-2.8,4.7-3.7-5.5a.393.393,0,0,0-.345-.211.35.35,0,0,0-.254.109L456.9,124Zm-95,0h0l-2.6-1.5v-3.1l10.6-6.4a.39.39,0,0,0,.2-.284.354.354,0,0,0-.1-.314l-3.1-5.4h5.3l6.9,11.8-2.8,4.7-3.7-5.5a.4.4,0,0,0-.346-.211.357.357,0,0,0-.256.109L361.9,124Zm-95,0h0l-2.6-1.5v-3.1l10.6-6.4a.39.39,0,0,0,.2-.285.352.352,0,0,0-.1-.313l-3.1-5.4h5.3l6.9,11.8-2.8,4.7-3.7-5.5a.39.39,0,0,0-.344-.211.355.355,0,0,0-.255.109L266.9,124Zm-95,0h0l-2.6-1.5v-3.1l10.6-6.4a.39.39,0,0,0,.2-.285.352.352,0,0,0-.1-.313l-3.1-5.4h5.3l6.9,11.8-2.8,4.7-3.7-5.5a.392.392,0,0,0-.345-.211.355.355,0,0,0-.256.109L171.9,124Zm238.3-.2h0l-2.8-1.5V119l10.1-5.8a.669.669,0,0,0,.2-.7l-3.1-5.4h5.6l6.7,11.9-2.5,4.5-3-5.4a.481.481,0,0,0-.424-.239.4.4,0,0,0-.178.039l-10.6,5.9Zm-12.8,0h0l-10.7-6a.369.369,0,0,0-.174-.04.477.477,0,0,0-.425.242l-3.2,5.6-2.5-4.5,6.9-12h5.5l-3.2,5.4a.48.48,0,0,0,.2.6l10.3,6v3.1l-2.7,1.6Zm-82.2,0h0l-2.8-1.5V119l10.1-5.8a.666.666,0,0,0,.2-.7l-3.1-5.4h5.6l6.7,11.9-2.5,4.5-3-5.4a.48.48,0,0,0-.423-.239.4.4,0,0,0-.176.039l-10.6,5.9Zm-12.8,0h0l-10.7-6a.373.373,0,0,0-.175-.04.483.483,0,0,0-.426.242l-3.2,5.6-2.5-4.5,6.9-12h5.5l-3.2,5.4a.487.487,0,0,0,.2.6l10.3,6v3.1l-2.7,1.6Zm-82.2,0h0l-2.8-1.5V119l10.1-5.8a.662.662,0,0,0,.2-.7l-3.1-5.4h5.6l6.7,11.9-2.5,4.5-3-5.4a.483.483,0,0,0-.425-.239.391.391,0,0,0-.176.039l-10.6,5.9Zm-12.8,0h0l-10.7-6a.391.391,0,0,0-.179-.04.482.482,0,0,0-.423.242l-3.2,5.6-2.5-4.5,6.9-12h5.5l-3.2,5.4a.482.482,0,0,0,.2.6l10.3,6v3.1l-2.7,1.6Zm-82.2,0h0l-2.8-1.5V119l10.1-5.8a.668.668,0,0,0,.2-.7l-3.1-5.4h5.6l6.7,11.9-2.5,4.5-3-5.4a.483.483,0,0,0-.425-.239.4.4,0,0,0-.177.039l-10.6,5.9Zm-12.8,0h0l-10.7-6a.376.376,0,0,0-.175-.04.48.48,0,0,0-.426.242l-3.2,5.6-2.5-4.5,6.9-12h5.5l-3.2,5.4a.479.479,0,0,0,.2.6l10.3,6v3.1l-2.7,1.6Zm365.5-.2v0l-2.5-4.5,6.5-11.307v10.12l-.2-.112a.4.4,0,0,0-.179-.04.482.482,0,0,0-.423.242l-3.2,5.6Zm-386.6-.1h0L87.6,118a.393.393,0,0,0-.346-.211A.356.356,0,0,0,87,117.9l-9.1,5.5v-6.169l7-4.228a.391.391,0,0,0,.2-.285.354.354,0,0,0-.1-.313L81.9,107h5.3l6.9,11.8-2.8,4.7Zm359.8-3.1h0l-2.8-1.7v-12a.433.433,0,0,0-.4-.4h-6.3l2.7-4.8h13.5l2.7,4.8h-6.6a.355.355,0,0,0-.4.4V119l-2.4,1.4Zm-95,0h0l-2.8-1.7v-12a.428.428,0,0,0-.4-.4h-6.3l2.7-4.8h13.5l2.7,4.8h-6.6a.356.356,0,0,0-.4.4V119l-2.4,1.4Zm-95,0h0l-2.8-1.7v-12a.428.428,0,0,0-.4-.4h-6.3l2.7-4.8h13.5l2.7,4.8h-6.6a.355.355,0,0,0-.4.4V119l-2.4,1.4Zm-95,0h0l-2.8-1.7v-12a.433.433,0,0,0-.4-.4h-6.3l2.7-4.8h13.5l2.7,4.8h-6.6a.355.355,0,0,0-.4.4V119l-2.4,1.4Zm237.5-.2h0l-2.6-1.5v-12a.546.546,0,0,1-.1-.151.526.526,0,0,0-.1-.151.367.367,0,0,0-.3-.1h-6.3l2.8-4.8h13.5l2.7,4.8H407a.428.428,0,0,0-.4.4v11.8l-3,1.7Zm-95,0h0l-2.6-1.5v-12a.545.545,0,0,1-.1-.151.527.527,0,0,0-.1-.151.367.367,0,0,0-.3-.1h-6.3l2.8-4.8h13.5l2.7,4.8H312a.429.429,0,0,0-.4.4v11.8l-3,1.7Zm-95,0h0l-2.6-1.5v-12a.545.545,0,0,1-.1-.151.526.526,0,0,0-.1-.151.365.365,0,0,0-.3-.1h-6.3l2.8-4.8h13.5l2.7,4.8H217a.429.429,0,0,0-.4.4v11.8l-3,1.7Zm-95,0h0l-2.6-1.5v-12a.545.545,0,0,1-.1-.151.526.526,0,0,0-.1-.151.365.365,0,0,0-.3-.1h-6.3l2.8-4.8h13.5l2.7,4.8H122a.428.428,0,0,0-.4.4v11.8l-3,1.7Zm335.7-1.7V107.1H461l3.1,5.5-9.8,5.9Zm-95,0V107.1H366l3.1,5.5-9.8,5.9Zm-95,0V107.1H271l3.1,5.5-9.8,5.9Zm-95,0V107.1H176l3.1,5.5-9.8,5.9Zm278.1-.3h0l-9.4-5.6,3.1-5.5h6.3v11.1Zm-95,0h0l-9.4-5.6,3.1-5.5h6.3v11.1Zm-95,0h0l-9.4-5.6,3.1-5.5h6.3v11.1Zm-95,0h0l-9.4-5.6,3.1-5.5h6.3v11.1Zm237.7-.1h0l-9.6-5.6,3.2-5.5h6.4v11.1Zm-95,0h0l-9.6-5.6,3.2-5.5h6.4v11.1Zm-95,0h0l-9.6-5.6,3.2-5.5h6.4v11.1Zm-95,0h0l-9.6-5.6,3.2-5.5h6.4v11.1Zm312.3,0h0l-6.2-11h12.5l-6.3,11Zm-95,0h0l-6.2-11h12.5l-6.3,11Zm-95,0h0l-6.2-11h12.5l-6.3,11Zm-95,0h0l-6.2-11h12.5l-6.3,11Zm265-.1V107.1h6.2l3.1,5.5-9.3,5.4Zm-95,0V107.1h6.2l3.1,5.5-9.3,5.4Zm-95,0V107.1h6.2l3.1,5.5-9.3,5.4Zm-95,0V107.1h6.2l3.1,5.5-9.3,5.4Zm-44.5-1.671V107.1H81l3.1,5.5-6.2,3.731Zm389-10.032h-5.3l-2.8-4.8h5.3l2.8,4.8Zm-26.3,0h-5.5l2.7-4.8h5.5l-2.7,4.8Zm-6.4,0H420.7l-2.7-4.8h6.3a.426.426,0,0,0,.4-.4V89.2l2.8-1.7,2.7,1.7v11.9a.431.431,0,0,0,.4.4h6.3l-2.7,4.8Zm-14.5,0h-5.6l-2.7-4.8H417l2.7,4.8Zm-26.4,0h-5.4l2.7-4.8h5.5l-2.8,4.8Zm-21.4,0h-5.3l-2.8-4.8h5.3l2.8,4.8Zm-26.3,0h-5.5l2.7-4.8h5.5l-2.7,4.8Zm-6.4,0H325.7l-2.7-4.8h6.3a.425.425,0,0,0,.4-.4V89.2l2.8-1.7,2.7,1.7v11.9a.424.424,0,0,0,.4.4h6.3l-2.7,4.8Zm-14.5,0h-5.6l-2.7-4.8H322l2.7,4.8Zm-26.4,0h-5.4l2.7-4.8h5.5l-2.8,4.8Zm-21.4,0h-5.3l-2.8-4.8h5.3l2.8,4.8Zm-26.3,0h-5.5l2.7-4.8h5.5l-2.7,4.8Zm-6.4,0H230.7l-2.7-4.8h6.3a.431.431,0,0,0,.4-.4V89.2l2.8-1.7,2.7,1.7v11.9a.432.432,0,0,0,.4.4h6.3l-2.7,4.8Zm-14.5,0h-5.6l-2.7-4.8H227l2.7,4.8Zm-26.4,0h-5.4l2.7-4.8h5.5l-2.8,4.8Zm-21.4,0h-5.3l-2.8-4.8h5.3l2.8,4.8Zm-26.3,0h-5.5l2.7-4.8h5.5l-2.7,4.8Zm-6.4,0H135.7l-2.7-4.8h6.3a.427.427,0,0,0,.4-.4V89.2l2.8-1.7,2.7,1.7v11.9a.431.431,0,0,0,.4.4h6.3l-2.7,4.8Zm-14.5,0h-5.6l-2.7-4.8H132l2.7,4.8Zm-26.4,0h-5.4l2.7-4.8h5.5l-2.8,4.8Zm-21.4,0H81.6l-2.8-4.8h5.3l2.8,4.8Zm-6.4,0H77.9v-4.621l2.6,4.62Zm401.4-5.6h-3.5V89.4l3.5,2.035V100.7Zm-10.6,0h-6.8l-3.2-5.6,10-5.6v11.2Zm-7.7,0h-5.3l-6.8-11.9,2.6-4.7,3.6,5.7a.39.39,0,0,0,.343.211.352.352,0,0,0,.254-.109l10.3-6.2,2.7,1.8v3l-10.8,6.1a.621.621,0,0,1-.08.067.24.24,0,0,0-.121.235V95c0,.1,0,.1.1.2l3.2,5.5Zm-6.3,0H444.7L451,89.6l6.3,11.1Zm-20,0H431v-11l9.5,5.4-3.2,5.6Zm-27.3,0H397.5l6.3-10.9,6.2,10.9Zm-13.5,0H391l3.1-5.5c.09-.178.028-.369-.2-.6l-10.6-6.2V85.1h.1l3.1-1.4L396.7,90a.217.217,0,0,0,.15.075A.219.219,0,0,0,397,90c.1,0,.19-.088.3-.2l3.2-5.7,2.8,4.9-6.8,11.7Zm-6.5,0h-6.6V89.4l9.8,5.7-3.2,5.6Zm-13.7,0h-6.8l-3.2-5.6,10-5.6v11.2Zm-7.7,0h-5.3l-6.8-11.9,2.6-4.7,3.6,5.7a.392.392,0,0,0,.344.211.359.359,0,0,0,.256-.109l10.3-6.2,2.7,1.8v3l-10.8,6.1a.651.651,0,0,1-.079.067.24.24,0,0,0-.12.235V95c0,.1,0,.1.1.2l3.2,5.5Zm-6.3,0H349.7L356,89.6l6.3,11.1Zm-20,0H336v-11l9.5,5.4-3.2,5.6Zm-27.3,0H302.5l6.3-10.9,6.2,10.9Zm-13.5,0H296l3.1-5.5c.091-.179.027-.37-.2-.6l-10.6-6.2V85.1h.1l3.1-1.4L301.7,90a.217.217,0,0,0,.15.075A.224.224,0,0,0,302,90c.1,0,.194-.1.3-.2l3.2-5.7,2.8,4.9-6.8,11.7Zm-6.5,0h-6.6V89.4l9.8,5.7-3.2,5.6Zm-13.7,0h-6.8l-3.2-5.6,10-5.6v11.2Zm-7.7,0h-5.3l-6.8-11.9,2.6-4.7,3.6,5.7a.4.4,0,0,0,.346.211.356.356,0,0,0,.256-.109l10.3-6.2,2.7,1.8v3l-10.8,6.1a.618.618,0,0,1-.081.067.239.239,0,0,0-.122.234V95c0,.1,0,.1.1.2l3.2,5.5Zm-6.3,0H254.7L261,89.6l6.3,11.1Zm-20,0H241v-11l9.5,5.4-3.2,5.6Zm-27.3,0H207.5l6.3-10.9,6.2,10.9Zm-13.5,0H201l3.1-5.5c.091-.179.027-.369-.2-.6l-10.6-6.2V85.1h.1l3.1-1.4L206.7,90a.217.217,0,0,0,.15.075A.219.219,0,0,0,207,90c.1,0,.2-.1.3-.2l3.2-5.7,2.8,4.9-6.8,11.7Zm-6.5,0h-6.6V89.4l9.8,5.7-3.2,5.6Zm-13.7,0h-6.8l-3.2-5.6,10-5.6v11.2Zm-7.7,0h-5.3l-6.8-11.9,2.6-4.7,3.6,5.7a.39.39,0,0,0,.343.211.352.352,0,0,0,.254-.109l10.3-6.2,2.7,1.8v3l-10.8,6.1a.656.656,0,0,1-.08.067.239.239,0,0,0-.121.235V95c0,.1,0,.1.1.2l3.2,5.5Zm-6.3,0H159.7L166,89.6l6.3,11.1Zm-20,0H146v-11l9.5,5.4-3.2,5.6Zm-27.3,0H112.5l6.3-10.9,6.2,10.9Zm-13.5,0H106l3.1-5.5c.091-.179.027-.369-.2-.6L98.3,88.4V85.1h.1l3.1-1.4L111.7,90a.187.187,0,0,0,.3,0c.1,0,.2-.1.3-.2l3.2-5.7,2.8,4.9-6.8,11.7Zm-6.5,0H98.4V89.4l9.8,5.7-3.2,5.6Zm-13.7,0H84.5l-3.2-5.6,10-5.6v11.2Zm-7.7,0H78.3l-.4-.7V89.98a.378.378,0,0,0,.144.029A.36.36,0,0,0,78.3,89.9l10.3-6.2,2.7,1.8v3L80.5,94.6a.6.6,0,0,1-.079.068.24.24,0,0,0-.12.234V95c0,.1,0,.1.1.2l3.2,5.5Zm360.2-.1h-5.5l3.1-5.5a.437.437,0,0,0,.015-.332.45.45,0,0,0-.213-.268L431,88.6V85.1l3-1.4L444.2,90a.218.218,0,0,0,.15.075A.215.215,0,0,0,444.5,90c.1,0,.2-.1.3-.2l3.1-5.7,2.6,4.6-6.7,11.9Zm-19.9,0h-6.4L414.3,95l9.6-5.4v11Zm-7.5,0h-5.6l-6.7-11.7,2.8-4.9,3.3,5.8c.105.11.2.2.3.2h.3L421,83.7l2.8,1.4v3.5l-10.3,5.9a.481.481,0,0,0-.2.6l3.1,5.5Zm-67.6,0h-5.5l3.1-5.5a.48.48,0,0,0-.2-.6L336,88.6V85.1l3-1.4L349.2,90a.223.223,0,0,0,.152.075A.215.215,0,0,0,349.5,90c.1,0,.193-.091.3-.2l3.1-5.7,2.6,4.6-6.7,11.9Zm-19.9,0h-6.4L319.3,95l9.6-5.4v11Zm-7.5,0h-5.6l-6.7-11.7,2.8-4.9,3.3,5.8c.112.114.206.2.3.2h.3L326,83.7l2.8,1.4v3.5l-10.3,5.9a.448.448,0,0,0-.214.266.438.438,0,0,0,.014.333l3.1,5.5Zm-67.6,0h-5.5l3.1-5.5a.436.436,0,0,0,.015-.332.45.45,0,0,0-.215-.268L241,88.6V85.1l3-1.4L254.2,90a.215.215,0,0,0,.15.075A.218.218,0,0,0,254.5,90c.1,0,.2-.1.3-.2l3.1-5.7,2.6,4.6-6.7,11.9Zm-19.9,0h-6.4L224.3,95l9.6-5.4v11Zm-7.5,0h-5.6l-6.7-11.7,2.8-4.9,3.3,5.8c.1.1.2.2.3.2h.3L231,83.7l2.8,1.4v3.5l-10.3,5.9a.48.48,0,0,0-.2.6l3.1,5.5Zm-67.6,0h-5.5l3.1-5.5a.481.481,0,0,0-.2-.6L146,88.6V85.1l3-1.4L159.2,90a.187.187,0,0,0,.3,0c.1,0,.2-.1.3-.2l3.1-5.7,2.6,4.6-6.7,11.9Zm-19.9,0h-6.4L129.3,95l9.6-5.4v11Zm-7.5,0h-5.6l-6.7-11.7,2.8-4.9,3.3,5.8.005.005c.1.1.195.2.295.2h.3L136,83.7l2.8,1.4v3.5l-10.3,5.9a.481.481,0,0,0-.2.6l3.1,5.5ZM481.9,90.506h0l-3.6-2.1V85.1h.1l3.1-1.4.4.248v6.558Zm-85-1.305h0l-9.5-5.8.4-.3h-.432l1.7-1.008c2.951-1.748,6.3-3.728,7.931-4.792l3.2,5.7v.2h-.6l.5.3-3.2,5.7Zm-95,0h0l-9.5-5.8.4-.3h-.431l1.655-.981.044-.026c2.953-1.748,6.3-3.729,7.934-4.793l3.2,5.7v.2h-.6l.5.3-3.2,5.7Zm-95,0h0l-9.5-5.8.4-.3h-.434l1.589-.941c3-1.774,6.39-3.782,8.046-4.859l3.2,5.7v.2h-.6l.5.3-3.2,5.7Zm-95,0h0l-9.5-5.8.4-.3h-.432l1.683-1,.02-.012.008,0c2.947-1.745,6.288-3.724,7.921-4.785l3.2,5.7v.2h-.6l.5.3-3.2,5.7Zm299,0h0l-3.3-6,3.3-5.9,9.4,5.7-.2.1h-.3l.136.081-.036.019h.068l.332.2-9.4,5.8Zm-95,0h0l-3.3-6,3.3-5.9,9.4,5.7-.2.1h-.3l.136.081-.037.019h.067l.333.2-9.4,5.8Zm-95,0h0l-3.3-6,3.3-5.9,9.4,5.7-.2.1h-.3l.136.081-.036.019h.066l.332.2-9.4,5.8Zm-95,0h0l-3.3-6,3.3-5.9,9.4,5.7-.2.1h-.3l.136.081-.036.019h.066l.334.2-9.4,5.8Zm318.2-.1h0l-9.3-5.8.166-.1h.337l-.159-.106L435.3,83H435l9.1-5.7,3.4,5.7-.051.1H447.4l-3.3,6Zm-95,0h0l-9.3-5.8.167-.1h.334l-.158-.106L340.3,83H340l9.1-5.7,3.4,5.7-.051.1H352.4l-3.3,6Zm-95,0h0l-9.3-5.8.168-.1h.334l-.159-.106L245.3,83H245l9.1-5.7,3.4,5.7-.05.1H257.4l-3.3,6Zm-95,0h0l-9.3-5.8.167-.1h.334l-.158-.106L150.3,83H150l9.1-5.7,3.4,5.7-.049.1H162.4l-3.3,6Zm265.6-.8V85a.522.522,0,0,0-.2-.4l-2.9-1.451,3-1.451a.523.523,0,0,0,.2-.4V78l2.6,1.5a.277.277,0,0,0,.2.077.284.284,0,0,0,.2-.077l2.5-1.4v3.1a.521.521,0,0,0,.2.4l2.8,1.4h-1.1l.7.3-2.6,1.2a.512.512,0,0,0-.2.4v3.3l-2.4-1.5a.279.279,0,0,0-.2-.075.289.289,0,0,0-.2.075l-2.6,1.6Zm-20.8,0v0L401,83.2l2.9-5.2,2.9,5v.2h.1l-3,5.1Zm-74.2,0V85a.517.517,0,0,0-.2-.4l-2.9-1.45,3-1.451.005-.005a.519.519,0,0,0,.192-.394V78l2.6,1.5a.3.3,0,0,0,.4,0l2.5-1.4v3.1a.52.52,0,0,0,.2.4l2.8,1.4h-1.1l.7.3-2.6,1.2a.527.527,0,0,0-.2.4v3.3l-2.4-1.5a.3.3,0,0,0-.4,0l-2.6,1.6Zm-20.8,0v0L306,83.2l2.9-5.2,2.9,5v.2h.1l-3,5.1Zm-74.2,0V85a.513.513,0,0,0-.2-.4l-2.9-1.45,3-1.451a.521.521,0,0,0,.2-.4V78l2.6,1.5a.286.286,0,0,0,.2.077.279.279,0,0,0,.2-.077l2.5-1.4v3.1a.521.521,0,0,0,.2.4l2.8,1.4h-1.1l.7.3-2.6,1.2a.517.517,0,0,0-.2.4v3.3l-2.4-1.5a.284.284,0,0,0-.2-.075.276.276,0,0,0-.2.075l-2.6,1.6Zm-20.8,0v0L211,83.2l2.9-5.2,2.9,5v.2h.1l-3,5.1Zm-74.2,0V85a.521.521,0,0,0-.2-.4l-2.9-1.45,3-1.451a.521.521,0,0,0,.2-.4V78l2.6,1.5a.3.3,0,0,0,.4,0l2.5-1.4v3.1a.518.518,0,0,0,.2.4l2.8,1.4h-1.1l.7.3-2.6,1.2a.513.513,0,0,0-.2.4v3.3l-2.4-1.5a.282.282,0,0,0-.2-.075.287.287,0,0,0-.2.075l-2.6,1.6Zm-20.8,0v0L116,83.2l2.9-5.2,2.9,5v.2h.1l-3,5.1Zm332-.3v0l-2.745-4.8h.143l2.8-4.9,2.6,4.7-.1.2h.041L450.9,88Zm-95,0v0l-2.742-4.8h.142l2.8-4.9,2.6,4.7-.1.2h.042L355.9,88Zm-95,0v0l-2.742-4.8h.142l2.8-4.9,2.6,4.7-.1.2h.042L260.9,88Zm-95,0v0l-2.742-4.8h.142l2.8-4.9,2.6,4.7-.1.2h.042L165.9,88ZM434,82.3h0l-3-1.5V77.5l10.2-6a.477.477,0,0,0,.2-.6l-3.2-5.7h5.6l6.7,12-2.7,4.7-3.3-5.6-.01-.01c-.1-.1-.191-.19-.29-.19a.367.367,0,0,0-.3.1L434,82.3Zm-13,0h0l-10.2-6.1a.216.216,0,0,0-.148-.075.222.222,0,0,0-.151.075c-.105,0-.209.106-.3.2L407,82l-2.8-4.9,6.7-11.8h5.6l-3.1,5.5a.62.62,0,0,0,.1.6l10.3,6v3.5L421,82.3Zm-82,0h0l-3-1.5V77.5l10.2-6a.479.479,0,0,0,.2-.6l-3.2-5.7h5.6l6.7,12-2.7,4.7-3.3-5.6c-.1-.1-.2-.2-.3-.2a.367.367,0,0,0-.3.1L339,82.3Zm-13,0h0l-10.2-6.1a.226.226,0,0,0-.151-.075.22.22,0,0,0-.148.075c-.1,0-.209.106-.3.2L312,82l-2.8-4.9,6.7-11.8h5.6l-3.1,5.5a.616.616,0,0,0,.1.6l10.3,6v3.5L326,82.3Zm-82,0h0l-3-1.5V77.5l10.2-6a.454.454,0,0,0,.215-.269.437.437,0,0,0-.016-.33l-3.2-5.7h5.6l6.7,12-2.7,4.7-3.3-5.6c-.094-.094-.2-.2-.3-.2a.37.37,0,0,0-.3.1L244,82.3Zm-13,0h0l-10.2-6.1a.228.228,0,0,0-.151-.075.219.219,0,0,0-.148.075c-.1,0-.2.1-.3.2L217,82l-2.8-4.9,6.7-11.8h5.6l-3.1,5.5a.6.6,0,0,0,.1.6l10.3,6v3.5L231,82.3Zm-82,0h0l-3-1.5V77.5l10.2-6a.48.48,0,0,0,.2-.6l-3.2-5.7h5.6l6.7,12-2.7,4.7-3.3-5.6-.01-.01c-.1-.1-.191-.19-.29-.19a.367.367,0,0,0-.3.1L149,82.3Zm-13,0h0l-10.2-6.1a.223.223,0,0,0-.149-.075.225.225,0,0,0-.151.075c-.1,0-.191.092-.29.19l-.01.01L122,82l-2.8-4.9,6.7-11.8h5.6l-3.1,5.5a.619.619,0,0,0,.1.6l10.3,6v3.5L136,82.3Zm250.4-.1h0l-3.1-1.6V77.5l10.6-6.2a.438.438,0,0,0,.209-.258.447.447,0,0,0-.012-.339l-3.2-5.6h5.5l6.8,11.8-2.8,4.9-3.1-5.5a.636.636,0,0,1-.063-.077A.24.24,0,0,0,397,76.1h-.4c-.342.206-.872.528-1.543.936l-.033.02c-2.219,1.35-5.934,3.609-8.623,5.146Zm-190,0h0l-3.1-1.6V77.5l10.6-6.2a.438.438,0,0,0,.212-.258.446.446,0,0,0-.012-.339l-3.2-5.6h5.5l6.8,11.8-2.8,4.9-3.1-5.5a.635.635,0,0,1-.065-.079A.238.238,0,0,0,207,76.1h-.4c-.356.214-.932.564-1.6.97-2.215,1.347-5.922,3.6-8.6,5.132Zm-95,0h0l-3.1-1.6V77.5l10.6-6.2a.438.438,0,0,0,.212-.258.446.446,0,0,0-.012-.339l-3.2-5.6h5.5l6.8,11.8-2.8,4.9-3.1-5.5a.63.63,0,0,1-.065-.078A.241.241,0,0,0,112,76.1h-.4c-.362.217-.927.561-1.643,1-2.2,1.341-5.895,3.585-8.556,5.106Zm380,0h0l-3.1-1.6V77.5l3.6-2.106v6.519l-.054.032-.446.256Zm-12.7,0h0l-10.3-6.1a.569.569,0,0,0-.249-.067.5.5,0,0,0-.35.166l-3.6,5.7-2.7-4.7,6.8-12h5.3l-3.2,5.6a.479.479,0,0,0,.2.6l10.8,6.2v3l-2.7,1.6Zm-95,0h0l-10.3-6.1a.569.569,0,0,0-.251-.067.485.485,0,0,0-.348.166l-3.6,5.7-2.7-4.7,6.8-12h5.3l-3.2,5.6a.482.482,0,0,0,.2.6l10.8,6.2v3l-2.7,1.6Zm-82.3,0h0l-3.1-1.6V77.5l10.6-6.2a.438.438,0,0,0,.212-.258.445.445,0,0,0-.012-.339l-3.2-5.6h5.5l6.8,11.8-2.8,4.9-3.1-5.5a.625.625,0,0,1-.066-.079A.237.237,0,0,0,302,76.1h-.4c-.373.223-.985.6-1.693,1.026l0,0c-2.193,1.333-5.864,3.564-8.5,5.073Zm-12.7,0h0l-10.3-6.1a.578.578,0,0,0-.251-.067.5.5,0,0,0-.35.166l-3.6,5.7-2.7-4.7,6.8-12h5.3l-3.2,5.6a.442.442,0,0,0-.015.334.451.451,0,0,0,.215.266l10.8,6.2v3l-2.7,1.6Zm-95,0h0l-10.3-6.1a.567.567,0,0,0-.248-.067.49.49,0,0,0-.351.166l-3.6,5.7-2.7-4.7,6.8-12h5.3l-3.2,5.6a.48.48,0,0,0,.2.6l10.8,6.2v3l-2.7,1.6Zm-95,0h0L78.4,76.1a.585.585,0,0,0-.251-.067.44.44,0,0,0-.25.082V65.907l.4-.707h5.3l-3.2,5.6a.479.479,0,0,0,.2.6l10.8,6.2v3l-2.7,1.6Zm338.8-3.6h0l-2.8-1.7V64.8a.434.434,0,0,0-.4-.4H418l2.7-4.8h13.4l2.7,4.8h-6.2a.433.433,0,0,0-.4.4V77l-2.7,1.6Zm-95,0h0l-2.8-1.7V64.8a.427.427,0,0,0-.4-.4H323l2.7-4.8h13.4l2.7,4.8h-6.2a.432.432,0,0,0-.4.4V77l-2.7,1.6Zm-95,0h0l-2.8-1.7V64.8a.433.433,0,0,0-.4-.4H228l2.7-4.8h13.4l2.7,4.8h-6.2a.434.434,0,0,0-.4.4V77l-2.7,1.6Zm-95,0h0l-2.8-1.7V64.8a.435.435,0,0,0-.4-.4H133l2.7-4.8h13.4l2.7,4.8h-6.2a.433.433,0,0,0-.4.4V77l-2.7,1.6Zm335.9-2V65.2h3.5v9.365L478.4,76.6Zm-95,0V65.2H390l3.2,5.7-9.8,5.7Zm-95,0V65.2H295l3.2,5.7-9.8,5.7Zm-95,0V65.2H200l3.2,5.7-9.8,5.7Zm-95,0V65.2H105l3.2,5.7-9.8,5.7Zm372.9,0h0l-10-5.7,3.2-5.7h6.8V76.6Zm-95,0h0l-10-5.7,3.2-5.7h6.8V76.6Zm-95,0h0l-10-5.7,3.2-5.7h6.8V76.6Zm-95,0h0l-10-5.7,3.2-5.7h6.8V76.6Zm-95,0h0l-10-5.7,3.2-5.7h6.8V76.6ZM431,76.5V65.2h6.2l3.2,5.8L431,76.5Zm-95,0V65.2h6.2l3.2,5.8L336,76.5Zm-95,0V65.2h6.2l3.2,5.8L241,76.5Zm-95,0V65.2h6.2l3.2,5.8L146,76.5Zm305-.1v0l-6.3-11.2h12.6L451,76.4Zm-95,0v0l-6.3-11.2h12.6L356,76.4Zm-95,0v0l-6.3-11.2h12.6L261,76.4Zm-95,0v0l-6.3-11.2h12.6L166,76.4Zm257.9,0h0l-9.5-5.6,3.2-5.6h6.3V76.4Zm-95,0h0l-9.5-5.6,3.2-5.6h6.3V76.4Zm-95,0h0l-9.5-5.6,3.2-5.6h6.3V76.4Zm-95,0h0l-9.5-5.6,3.2-5.6h6.3V76.4Zm264.9-.3v0l-6.3-10.9H410l-6.2,10.9Zm-95,0v0l-6.3-10.9H315l-6.2,10.9Zm-95,0v0l-6.3-10.9H220l-6.2,10.9Zm-95,0v0l-6.3-10.9H125l-6.2,10.9Zm339-11.7H444.3l-2.7-4.8h6.3a.431.431,0,0,0,.4-.4V47l2.4-1.5,2.8,1.6v12a.456.456,0,0,0,.4.5h6.6l-2.7,4.8Zm-14.5,0h-5.6L435,59.6h5.6l2.7,4.8Zm-26.2,0h-5.6l2.7-4.8h5.6l-2.7,4.8Zm-6.7,0H396.9l-2.8-4.8h6.3a.428.428,0,0,0,.4-.4V47.1h.1l2.6-1.6,3,1.8V59.2a.425.425,0,0,0,.4.4h6.2l-2.7,4.8Zm-14.4,0h-5.5l-2.7-4.8h5.4l2.8,4.8Zm-33.2,0H349.3l-2.7-4.8h6.3a.432.432,0,0,0,.4-.4V47l2.4-1.5,2.8,1.6v12a.457.457,0,0,0,.4.5h6.6l-2.7,4.8Zm-14.5,0h-5.6L340,59.6h5.6l2.7,4.8Zm-26.2,0h-5.6l2.7-4.8h5.6l-2.7,4.8Zm-6.7,0H301.9l-2.8-4.8h6.3a.427.427,0,0,0,.4-.4V47.1h.1l2.6-1.6,3,1.8V59.2a.428.428,0,0,0,.4.4h6.2l-2.7,4.8Zm-14.4,0h-5.5l-2.7-4.8h5.4l2.8,4.8Zm-33.2,0H254.3l-2.7-4.8h6.3a.432.432,0,0,0,.4-.4V47l2.4-1.5,2.8,1.6v12a.456.456,0,0,0,.4.5h6.6l-2.7,4.8Zm-14.5,0h-5.6L245,59.6h5.6l2.7,4.8Zm-26.2,0h-5.6l2.7-4.8h5.6l-2.7,4.8Zm-6.7,0H206.9l-2.8-4.8h6.3a.426.426,0,0,0,.4-.4V47.1h.1l2.6-1.6,3,1.8V59.2a.426.426,0,0,0,.4.4h6.2l-2.7,4.8Zm-14.4,0h-5.5l-2.7-4.8h5.4l2.8,4.8Zm-33.2,0H159.3l-2.7-4.8h6.3a.431.431,0,0,0,.4-.4V47l2.4-1.5,2.8,1.6v12a.456.456,0,0,0,.4.5h6.6l-2.7,4.8Zm-14.5,0h-5.6L150,59.6h5.6l2.7,4.8Zm-26.2,0h-5.6l2.7-4.8h5.6l-2.7,4.8Zm-6.7,0H111.9l-2.8-4.8h6.3a.428.428,0,0,0,.4-.4V47.1h.1l2.6-1.6,3,1.8V59.2a.431.431,0,0,0,.4.4h6.2l-2.7,4.8Zm-14.4,0h-5.5l-2.7-4.8h5.4l2.8,4.8Zm353-.1h-5.3l2.8-4.7h5.2L464,64.3Zm-95,0h-5.3l2.8-4.7h5.2L369,64.3Zm-95,0h-5.3l2.8-4.7h5.2L274,64.3Zm-95,0h-5.3l2.8-4.7h5.2L179,64.3Zm-95,0H78.7l2.8-4.7h5.2L84,64.3Zm-6.1-.08V59.6h2.6l-2.6,4.616ZM440.1,59h-5.6l-6.6-11.9,2.6-4.5,3.2,5.3a.556.556,0,0,1,.085.11c.033.052.057.09.118.09h.3l10.5-6,2.6,1.6v3l-10.2,6.2a.512.512,0,0,0-.2.4c0,.1,0,.1.1.2l3.1,5.5Zm-95,0h-5.6l-6.6-11.9,2.6-4.5,3.2,5.3a.558.558,0,0,1,.082.109c.033.053.056.091.118.091h.3l10.5-6,2.6,1.6v3l-10.2,6.2a.506.506,0,0,0-.2.4c0,.1,0,.1.1.2l3.1,5.5Zm-95,0h-5.6l-6.6-11.9,2.6-4.5,3.2,5.3a.558.558,0,0,1,.082.109c.033.053.056.091.118.091h.3l10.5-6,2.6,1.6v3l-10.2,6.2a.508.508,0,0,0-.2.4c0,.1,0,.1.1.2l3.1,5.5Zm-95,0h-5.6l-6.6-11.9,2.6-4.5,3.2,5.3a.555.555,0,0,1,.084.11c.033.052.056.09.118.09h.3l10.5-6,2.6,1.6v3l-10.2,6.2a.51.51,0,0,0-.2.4c0,.1,0,.1.1.2l3.1,5.5Zm312-.2h-5.3l3.1-5.5a.369.369,0,0,0,.188-.324.343.343,0,0,0-.188-.277l-10.6-6V43.6l2.6-1.6,10.4,6a.387.387,0,0,0,.176.041,1.009,1.009,0,0,0,.425-.141l3.4-5.7,2.8,4.3-7,12.3Zm-6.1,0h-6.6V47.7l9.8,5.6L461,58.8Zm-13.6,0h-6.3L438,53.3l9.4-5.7V58.8Zm-13.7,0H421.2l6.3-11.1,6.2,11.1Zm-20.1,0h-6.2v-11l9.4,5.5-3.2,5.5Zm-13.5,0h-6.4l-3.2-5.5,9.6-5.7V58.8Zm-7.2,0h-5.4l-6.8-12.2,2.4-4.3,3.1,5.6a.635.635,0,0,1,.062.076.241.241,0,0,0,.24.124h.3l10.7-6.3,2.7,1.5v3.3l-10.3,6.1a.392.392,0,0,0-.2.284.358.358,0,0,0,.1.316l3.1,5.5Zm-20.8,0h-5.3l3.1-5.5a.369.369,0,0,0,.188-.325.342.342,0,0,0-.187-.276l-10.6-6V43.6l2.6-1.6,10.4,6a.387.387,0,0,0,.176.041.993.993,0,0,0,.424-.141l3.4-5.7,2.8,4.3-7,12.3Zm-6.1,0h-6.6V47.7l9.8,5.6L366,58.8Zm-13.6,0h-6.3L343,53.3l9.4-5.7V58.8Zm-13.7,0H326.2l6.3-11.1,6.2,11.1Zm-20.1,0h-6.2v-11l9.4,5.5-3.2,5.5Zm-13.5,0h-6.4l-3.2-5.5,9.6-5.7V58.8Zm-7.2,0h-5.4l-6.8-12.2,2.4-4.3,3.1,5.6a.637.637,0,0,1,.064.078.241.241,0,0,0,.238.122h.3l10.7-6.3,2.7,1.5v3.3l-10.3,6.1a.39.39,0,0,0-.2.281.362.362,0,0,0,.1.319l3.1,5.5Zm-20.8,0h-5.3l3.1-5.5a.369.369,0,0,0,.189-.324.343.343,0,0,0-.189-.276l-10.6-6V43.6l2.6-1.6,10.4,6a.384.384,0,0,0,.176.041,1.009,1.009,0,0,0,.423-.141l3.4-5.7,2.8,4.3-7,12.3Zm-6.1,0h-6.6V47.7l9.8,5.6L271,58.8Zm-13.6,0h-6.3L248,53.3l9.4-5.7V58.8Zm-13.7,0H231.2l6.3-11.1,6.2,11.1Zm-20.1,0h-6.2v-11l9.4,5.5-3.2,5.5Zm-13.5,0h-6.4l-3.2-5.5,9.6-5.7V58.8Zm-7.2,0h-5.4l-6.8-12.2,2.4-4.3,3.1,5.6a.629.629,0,0,1,.064.078.239.239,0,0,0,.236.122h.3l10.7-6.3,2.7,1.5v3.3l-10.3,6.1a.393.393,0,0,0-.2.285.359.359,0,0,0,.1.316l3.1,5.5Zm-20.8,0h-5.3l3.1-5.5a.369.369,0,0,0,.189-.324.343.343,0,0,0-.189-.276l-10.6-6V43.6l2.6-1.6,10.4,6a.389.389,0,0,0,.177.041,1.012,1.012,0,0,0,.424-.14l3.4-5.7,2.8,4.3-7,12.3Zm-6.1,0h-6.6V47.7l9.8,5.6L176,58.8Zm-13.6,0h-6.3L153,53.3l9.4-5.7V58.8Zm-13.7,0H136.2l6.3-11.1,6.2,11.1Zm-20.1,0h-6.2v-11l9.4,5.5-3.2,5.5Zm-13.5,0h-6.4l-3.2-5.5,9.6-5.7V58.8Zm-7.2,0h-5.4L95.7,46.6l2.4-4.3,3.1,5.6a.626.626,0,0,1,.063.077.24.24,0,0,0,.238.122h.3l10.7-6.3,2.7,1.5v3.3l-10.3,6.1a.391.391,0,0,0-.2.283.36.36,0,0,0,.1.317l3.1,5.5Zm-20.8,0H81.8l3.1-5.5a.369.369,0,0,0,.187-.324A.343.343,0,0,0,84.9,52.7l-7-3.963V42.578L87.3,48a.39.39,0,0,0,.177.041A.984.984,0,0,0,87.9,47.9l3.4-5.7,2.8,4.3-7,12.3Zm-6.1,0H77.9V49.7l6.3,3.6L81,58.8Zm339.1-.1h-5.6l3.1-5.5a.194.194,0,0,0,.107-.181.385.385,0,0,0-.207-.319l-10.2-6V43.2l2.8-1.5,10.6,5.9a.4.4,0,0,0,.177.039.482.482,0,0,0,.424-.239l3-5.3,2.6,4.7-6.8,11.9Zm-95,0h-5.6l3.1-5.5a.2.2,0,0,0,.109-.182.383.383,0,0,0-.209-.318l-10.2-6V43.2l2.8-1.5,10.6,5.9a.389.389,0,0,0,.175.039.481.481,0,0,0,.424-.239l3-5.3,2.6,4.7-6.8,11.9Zm-95,0h-5.6l3.1-5.5a.194.194,0,0,0,.109-.182.384.384,0,0,0-.211-.318l-10.2-6V43.2l2.8-1.5,10.6,5.9a.391.391,0,0,0,.176.039.481.481,0,0,0,.424-.239l3-5.3,2.6,4.7-6.8,11.9Zm-95,0h-5.6l3.1-5.5a.194.194,0,0,0,.108-.181.384.384,0,0,0-.208-.319l-10.2-6V43.2l2.8-1.5,10.6,5.9a.4.4,0,0,0,.177.039.48.48,0,0,0,.424-.239l3-5.3,2.6,4.7-6.8,11.9Zm346.8-.977,0,0L475.7,46.6l2.4-4.3,3.1,5.6a.627.627,0,0,1,.064.078.239.239,0,0,0,.236.122h.3l.1-.059v9.681ZM481.7,47.1h0l-3.2-5.7,3.2-5.6.2.11V46.984l-.2.116Zm-95,0h0l-3.2-5.7,3.2-5.6,9.9,5.5-9.9,5.8Zm-95,0h0l-3.2-5.7,3.2-5.6,9.9,5.5-9.9,5.8Zm-95,0h0l-3.2-5.7,3.2-5.6,9.9,5.5-9.9,5.8Zm-95,0h0l-3.2-5.7,3.2-5.6,9.9,5.5-9.9,5.8Zm365.7,0h0l-9.7-5.6,9.4-5.7,3.7,5.7-3.4,5.6Zm-33.1,0h0l-3.2-5.7,3.2-5.7,9.7,5.8-9.7,5.6Zm-61.9,0h0l-9.7-5.6,9.4-5.7,3.7,5.7-3.4,5.6Zm-33.1,0h0l-3.2-5.7,3.2-5.7,9.7,5.8-9.7,5.6Zm-61.9,0h0l-9.7-5.6,9.4-5.7,3.7,5.7-3.4,5.6Zm-33.1,0h0l-3.2-5.7,3.2-5.7,9.7,5.8-9.7,5.6Zm-61.9,0h0l-9.7-5.6,9.4-5.7,3.7,5.7-3.4,5.6Zm-33.1,0h0l-3.2-5.7,3.2-5.7,9.7,5.8-9.7,5.6Zm-61.9,0h0l-9.5-5.485v-.236L87.1,35.8l3.7,5.7-3.4,5.6Zm333.5-.4h0l-9.8-5.5,9.8-5.5,3.1,5.5-3.1,5.5Zm-95,0h0l-9.8-5.5,9.8-5.5,3.1,5.5-3.1,5.5Zm-95,0h0l-9.8-5.5,9.8-5.5,3.1,5.5-3.1,5.5Zm-95,0h0l-9.8-5.5,9.8-5.5,3.1,5.5-3.1,5.5Zm270.6-.3h0l-2.8-1.6a.307.307,0,0,0-.4,0l-2.4,1.4V43a.515.515,0,0,0-.2-.4l-2.5-1.4,2.5-1.4a.512.512,0,0,0,.2-.4V36.6l2.4,1.4a.306.306,0,0,0,.4,0l2.8-1.6v3.1a.514.514,0,0,0,.188.393l.009.009,2.5,1.4-2.5,1.4a.516.516,0,0,0-.2.4v3.3Zm-95,0h0l-2.8-1.6a.279.279,0,0,0-.2-.075.288.288,0,0,0-.2.075l-2.4,1.4V43a.515.515,0,0,0-.2-.4L303.2,41.2l2.5-1.4a.514.514,0,0,0,.2-.4V36.6l2.4,1.4a.286.286,0,0,0,.2.075.281.281,0,0,0,.2-.075l2.8-1.6v3.1a.511.511,0,0,0,.19.392l.01.01,2.5,1.4-2.5,1.4a.516.516,0,0,0-.2.4v3.3Zm-95,0h0l-2.8-1.6a.3.3,0,0,0-.4,0l-2.4,1.4V43a.508.508,0,0,0-.2-.4l-2.5-1.4,2.5-1.4a.509.509,0,0,0,.2-.4V36.6l2.4,1.4a.278.278,0,0,0,.2.075.283.283,0,0,0,.2-.075l2.8-1.6v3.1a.513.513,0,0,0,.19.393l.009.009,2.5,1.4-2.5,1.4a.515.515,0,0,0-.2.4v3.3Zm-95,0h0l-2.8-1.6a.292.292,0,0,0-.2-.075.288.288,0,0,0-.2.075l-2.4,1.4V43a.515.515,0,0,0-.2-.4l-2.5-1.4,2.5-1.4a.514.514,0,0,0,.2-.4V36.6l2.4,1.4a.283.283,0,0,0,.2.075.286.286,0,0,0,.2-.075l2.8-1.6v3.1a.512.512,0,0,0,.192.395l.008.008,2.5,1.4-2.5,1.4a.511.511,0,0,0-.2.4v3.3Zm332-.1h0l-2.6-1.5a.288.288,0,0,0-.2-.075.284.284,0,0,0-.2.075l-2.2,1.3V43.4a.752.752,0,0,0-.2-.4l-2.4-1.4,2.4-1.4a.522.522,0,0,0,.2-.4V36.6l2.6,1.6a.274.274,0,0,0,.2.075.281.281,0,0,0,.2-.075l2.2-1.3v2.8a.754.754,0,0,0,.2.4l2.4,1.4L453.7,43a.525.525,0,0,0-.2.4v2.9Zm-95,0h0l-2.6-1.5a.293.293,0,0,0-.2-.075.288.288,0,0,0-.2.075l-2.2,1.3V43.4a.746.746,0,0,0-.2-.4l-2.4-1.4,2.4-1.4a.511.511,0,0,0,.2-.4V36.6l2.6,1.6a.3.3,0,0,0,.4,0l2.2-1.3v2.8a.752.752,0,0,0,.2.4l2.4,1.4L358.7,43a.524.524,0,0,0-.2.4v2.9Zm-95,0h0l-2.6-1.5a.29.29,0,0,0-.2-.075.3.3,0,0,0-.2.075l-2.2,1.3V43.4a.746.746,0,0,0-.2-.4l-2.4-1.4,2.4-1.4a.511.511,0,0,0,.2-.4V36.6l2.6,1.6a.3.3,0,0,0,.4,0l2.2-1.3v2.8a.75.75,0,0,0,.2.4l2.4,1.4L263.7,43a.522.522,0,0,0-.2.4v2.9Zm-95,0h0l-2.6-1.5a.282.282,0,0,0-.2-.075.29.29,0,0,0-.2.075l-2.2,1.3V43.4a.752.752,0,0,0-.2-.4l-2.4-1.4,2.4-1.4a.522.522,0,0,0,.2-.4V36.6l2.6,1.6a.3.3,0,0,0,.4,0l2.2-1.3v2.8a.75.75,0,0,0,.2.4l2.4,1.4L168.7,43a.522.522,0,0,0-.2.4v2.9Zm259-.4v0l-2.6-4.7,2.5-4.5,2.7,4.7-2.6,4.5Zm-190,0v0l-2.6-4.7,2.5-4.5,2.7,4.7-2.6,4.5Zm-95,0v0l-2.6-4.7,2.5-4.5,2.7,4.7-2.6,4.5Zm190,0v0l-2.6-4.7,2.5-4.5,2.7,4.7-2.6,4.5Zm112.4-4.8h0l-10.5-6.2a.216.216,0,0,0-.151-.076.208.208,0,0,0-.148.076c-.1,0-.2.1-.3.2l-3.2,5.6L427.9,36l6.139-10.9h5.489L437,29.5a.714.714,0,0,0,.3.6l10.2,6.1v3.4l-2.6,1.5Zm-95,0h0l-10.5-6.2a.223.223,0,0,0-.152-.076.22.22,0,0,0-.151.076c-.1,0-.193.1-.294.2L335.6,40.7,332.9,36l6.136-10.9h5.491L342,29.5a.716.716,0,0,0,.3.6l10.2,6.1v3.4l-2.6,1.5Zm-95,0h0l-10.5-6.2a.186.186,0,0,0-.3,0c-.1,0-.2.1-.3.2l-3.2,5.6L237.9,36l6.139-10.9h5.486L247,29.5a.714.714,0,0,0,.3.6l10.2,6.1v3.4l-2.6,1.5Zm-95,0h0l-10.5-6.2a.218.218,0,0,0-.15-.076.211.211,0,0,0-.149.076c-.1,0-.2.1-.3.2l-3.2,5.6L142.9,36l6.138-10.9h5.49L152,29.5a.712.712,0,0,0,.3.6l10.2,6.1v3.4l-2.6,1.5Zm297-.1h0l-2.6-1.5V36.4L464.9,30a.391.391,0,0,0,.2-.285.356.356,0,0,0-.1-.315l-2.468-4.3h5.309L474.1,35.8l-2.8,4.7L467.6,35a.392.392,0,0,0-.344-.21.351.351,0,0,0-.255.11L456.9,41Zm-95,0h0l-2.6-1.5V36.4L369.9,30a.391.391,0,0,0,.2-.283.358.358,0,0,0-.1-.316l-2.469-4.3h5.311L379.1,35.8l-2.8,4.7L372.6,35a.393.393,0,0,0-.345-.21.358.358,0,0,0-.257.11L361.9,41Zm-95,0h0l-2.6-1.5V36.4L274.9,30a.39.39,0,0,0,.2-.284.356.356,0,0,0-.1-.315l-2.469-4.3h5.313L284.1,35.8l-2.8,4.7L277.6,35a.389.389,0,0,0-.343-.21.356.356,0,0,0-.257.11L266.9,41Zm-95,0h0l-2.6-1.5V36.4L179.9,30a.39.39,0,0,0,.2-.284.356.356,0,0,0-.1-.315l-2.469-4.3h5.313L189.1,35.8l-2.8,4.7L182.6,35a.391.391,0,0,0-.344-.21.356.356,0,0,0-.257.11L171.9,41Zm238.3-.2h0l-2.8-1.5V36l10.1-5.8a.667.667,0,0,0,.2-.7l-2.524-4.4h5.588L426.9,36l-2.5,4.5-3-5.4a.48.48,0,0,0-.424-.241.394.394,0,0,0-.178.04l-10.6,5.9Zm-12.8,0h0l-10.7-6a.407.407,0,0,0-.174-.038A.479.479,0,0,0,386.1,35l-3.2,5.6-2.5-4.5,6.326-11h5.481L389.6,29.5a.478.478,0,0,0,.2.6l10.3,6v3.1l-2.7,1.6Zm-82.2,0h0l-2.8-1.5V36l10.1-5.8a.664.664,0,0,0,.2-.7l-2.524-4.4h5.585L331.9,36l-2.5,4.5-3-5.4a.479.479,0,0,0-.423-.241.386.386,0,0,0-.177.04l-10.6,5.9Zm-12.8,0h0l-10.7-6a.412.412,0,0,0-.175-.038A.485.485,0,0,0,291.1,35l-3.2,5.6-2.5-4.5,6.324-11h5.48l-2.6,4.4a.485.485,0,0,0,.2.6l10.3,6v3.1l-2.7,1.6Zm-82.2,0h0l-2.8-1.5V36l10.1-5.8a.659.659,0,0,0,.2-.7l-2.527-4.4h5.589L236.9,36l-2.5,4.5-3-5.4a.483.483,0,0,0-.424-.241.386.386,0,0,0-.176.04l-10.6,5.9Zm-12.8,0h0l-10.7-6a.426.426,0,0,0-.179-.038A.491.491,0,0,0,196.1,35l-3.2,5.6-2.5-4.5,6.322-11h5.483L199.6,29.5a.48.48,0,0,0,.2.6l10.3,6v3.1l-2.7,1.6Zm-82.2,0h0l-2.8-1.5V36l10.1-5.8a.665.665,0,0,0,.2-.7l-2.524-4.4h5.587L141.9,36l-2.5,4.5-3-5.4a.482.482,0,0,0-.424-.241.391.391,0,0,0-.178.04l-10.6,5.9Zm-12.8,0h0l-10.7-6a.41.41,0,0,0-.175-.038A.483.483,0,0,0,101.1,35l-3.2,5.6-2.5-4.5,6.326-11h5.481L104.6,29.5a.48.48,0,0,0,.2.6l10.3,6v3.1l-2.7,1.6Zm365.5-.2v0l-2.5-4.5,4.224-7.35a9.89,9.89,0,0,1,2.273,6.159l-.2-.111a.432.432,0,0,0-.179-.038A.484.484,0,0,0,481.1,35l-3.2,5.6ZM91.3,40.5h0L87.6,35a.392.392,0,0,0-.345-.21A.356.356,0,0,0,87,34.9l-9.1,5.5V35.1c0-.3.013-.6.04-.9L84.9,30a.391.391,0,0,0,.2-.284A.357.357,0,0,0,85,29.4l-1.8-3.131A10.018,10.018,0,0,1,87.843,25.1L94.1,35.8l-2.8,4.7Zm359.8-3.1h0l-2.8-1.7V25.1h5.2V36l-2.4,1.4Zm-95,0h0l-2.8-1.7V25.1h5.2V36l-2.4,1.4Zm-95,0h0l-2.8-1.7V25.1h5.2V36l-2.4,1.4Zm-95,0h0l-2.8-1.7V25.1h5.2V36l-2.4,1.4Zm237.5-.2h0L401,35.7V25.1h5.6V35.5l-3,1.7Zm-95,0h0L306,35.7V25.1h5.6V35.5l-3,1.7Zm-95,0h0L211,35.7V25.1h5.6V35.5l-3,1.7Zm-95,0h0L116,35.7V25.1h5.6V35.5l-3,1.7Zm335.7-1.7V25.1h7.264l2.536,4.5-9.8,5.9Zm-95,0V25.1h7.264l2.536,4.5-9.8,5.9Zm-95,0V25.1h7.264l2.536,4.5-9.8,5.9Zm-95,0V25.1h7.261l2.538,4.5-9.8,5.9Zm278.1-.3h0L438,29.6l2.536-4.5H447.4V35.2Zm-95,0h0L343,29.6l2.536-4.5H352.4V35.2Zm-95,0h0L248,29.6l2.534-4.5H257.4V35.2Zm-95,0h0L153,29.6l2.536-4.5H162.4V35.2Zm237.7-.1h0l-9.6-5.6,2.561-4.4H400.1v10Zm-95,0h0l-9.6-5.6,2.56-4.4h7.04v10Zm-95,0h0l-9.6-5.6,2.561-4.4H210.1v10Zm-95,0h0l-9.6-5.6,2.561-4.4H115.1v10Zm312.3,0h0l-5.635-10h11.361l-5.724,10Zm-95,0h0l-5.635-10h11.365l-5.728,10Zm-95,0h0l-5.633-10h11.363l-5.729,10Zm-95,0h0l-5.634-10h11.361l-5.724,10Zm265-.1V25.1h6.763l2.536,4.5L407.4,35Zm-95,0V25.1h6.766l2.533,4.5L312.4,35Zm-95,0V25.1h6.763l2.536,4.5L217.4,35Zm-95,0V25.1h6.764l2.536,4.5L122.4,35ZM78.076,33.225v0a10.046,10.046,0,0,1,4.39-6.519L84.1,29.6l-6.021,3.624Z" transform="translate(1134.1 690.9)" opacity="0.2" fill="url(#a)"/></g></svg>