<svg xmlns="http://www.w3.org/2000/svg" xmlns:xlink="http://www.w3.org/1999/xlink" width="438.121" height="116" viewBox="0 0 438.121 116"><defs><linearGradient id="a" x1="0.983" y1="0.615" x2="0" y2="0.667" gradientUnits="objectBoundingBox"><stop offset="0" stop-color="#fff" stop-opacity="0"/><stop offset="0.489" stop-color="#fff" stop-opacity="0.471"/><stop offset="1" stop-color="#fff" stop-opacity="0"/></linearGradient></defs><g transform="translate(-3.194)"><path d="M427.276,116h-1.34l5.547-10.7.272.5v-2.6l-.272.4-2.546-4.3,2.546-4.7.272.5V92.5l-.182.4-5.818-11h6v-.8H425.3l-2.546-4.8h6.091a.41.41,0,0,0,.364-.4v-12l2.273-1.4.272.2V61.6h-.182c-.091,0-.091,0-.182.1L429.3,63V60.3c0-.1-.094-.3-.182-.3l-2.272-1.7.546-.3h-2.455l.364.3-8.728,5.8L413.3,58.3l.091-.3h-.123l3.4-5.8,8.637,5.4-.455.3h2l-.182-.2,2.365-1.6a.542.542,0,0,0,.182-.4V52.9l2.091,1.3a.116.116,0,0,1,.091.05.115.115,0,0,0,.09.05h.182v-1l-.182.1-2.272-1.5V39.6a.41.41,0,0,0-.364-.4h-6.091l2.455-4.7h6.545v-.8h-6.181l5.91-11.4.272.5V20.2l-.272.4-2.546-4.3,2.546-4.7.272.5V9.5l-.182.4L426.337,0h.939a11.23,11.23,0,0,1,8.268,3.529l-3.7,7.071V12l2.364,4.7-2.364,4.6v1l6,11.7h-6v.8h6.274v4.8h-3.456a.409.409,0,0,0-.364.4V52.3l-2.455,1.6v.8l.273-.1,2.182-1.4v2.9a.542.542,0,0,0,.181.4l2.9,1.548-2.9,1.452a.543.543,0,0,0-.182.4v3l-2.091-1.3-.364-.1v.9L434.3,64V76.3a.409.409,0,0,0,.364.4h3.456v4.8h-6.274v.8h5.91l-5.91,11.3V95l2.364,4.7-2.364,4.6v1l3.685,7.185A11.234,11.234,0,0,1,427.276,116Zm-2.25,0H420.2l2.459-4.8a.373.373,0,0,0,.172-.326.343.343,0,0,0-.172-.273l-9.637-6v-3.1l2.365-1.6,9.455,6a.325.325,0,0,0,.16.041.853.853,0,0,0,.386-.142l3.092-5.7,2.545,4.3-6,11.6Zm-5.538,0h-6.371V105.6l8.91,5.6-2.539,4.8Zm-7.189,0h-4.727V104.9l2.182-1.5L412.3,105v11Zm-5.546,0h-6.087l-2.459-4.8,8.546-5.7V116Zm-7.1,0h-5.084l-5.547-11,2.364-4.5,2.909,5.3a.565.565,0,0,1,.075.109c.03.053.051.091.108.091h.273l9.546-6,2.364,1.6v3l-9.273,6.2a.537.537,0,0,0-.182.4c0,.1,0,.1.09.2l2.357,4.6Zm-5.714,0H383.3l5.367-10.4,5.28,10.4Zm-11.7,0h-5.1l2.511-4.9a.194.194,0,0,0,.1-.18.391.391,0,0,0-.19-.32l-9.274-6v-3.5l2.546-1.5,9.637,5.9a.333.333,0,0,0,.16.039.432.432,0,0,0,.385-.239l2.727-5.3,2.365,4.7L382.246,116Zm-5.851,0h-6.007V105.7l8.546,5.5L376.4,116Zm-6.825,0h-5.183V105h.091l2.364-1.6,2.728,1.8V116Zm-5.818,0h-6.189l-2.54-4.8,8.728-5.7V116Zm-6.905,0h-4.9l-5.828-11.5,2.182-4.3,2.818,5.6a.629.629,0,0,1,.059.079.213.213,0,0,0,.214.122h.273l9.728-6.3,2.454,1.5v3.3l-9.364,6.1a.39.39,0,0,0-.184.276.378.378,0,0,0,.094.323l2.458,4.8Zm-5.881,0h-11.4l5.546-10.7.273.5v-2.6l-.273.4-2.545-4.3,2.545-4.7.273.5V92.5l-.182.4-5.818-11h6v-.8h-6.454l-2.546-4.8h6.091a.41.41,0,0,0,.364-.4v-12l2.272-1.4.273.2V61.6H345.2c-.091,0-.091,0-.182.1L342.932,63V60.3c0-.1-.094-.3-.182-.3l-2.272-1.7.546-.3h-2.455l.364.3L330.2,64.1l-3.273-5.8.091-.3H326.9l3.4-5.8,8.637,5.4-.455.3h2l-.182-.2,2.365-1.6a.542.542,0,0,0,.182-.4V52.9l2.091,1.3a.116.116,0,0,1,.091.05.115.115,0,0,0,.09.05h.182v-1l-.182.1-2.272-1.5V39.6a.41.41,0,0,0-.364-.4h-6.091l2.455-4.7h6.545v-.8H339.2l5.909-11.4.273.5V20.2l-.273.4-2.545-4.3,2.545-4.7.273.5V9.5l-.182.4L339.968,0H351.02l-5.543,10.6V12l2.364,4.7-2.364,4.6v1l6,11.7h-6v.8h6.364l2.455,4.8h-6a.409.409,0,0,0-.364.4V52.3l-2.455,1.6v.8l.273-.1,2.182-1.4v2.9a.543.543,0,0,0,.181.4l2.9,1.548-2.9,1.452a.543.543,0,0,0-.182.4v3l-2.091-1.3-.364-.1v.9l2.455,1.6V76.3a.409.409,0,0,0,.364.4h6l-2.455,4.8h-6.364v.8h5.91l-5.91,11.3V95l2.364,4.7-2.364,4.6v1l5.487,10.7Zm-12.308,0h-4.822l2.459-4.8a.373.373,0,0,0,.172-.326.343.343,0,0,0-.172-.273l-9.637-6v-3.1l2.365-1.6,9.455,6a.325.325,0,0,0,.16.041.853.853,0,0,0,.386-.142l3.092-5.7,2.545,4.3-6,11.6Zm-5.538,0h-6.371V105.6l8.91,5.6L333.12,116Zm-7.189,0H321.2V104.9l2.182-1.5,2.545,1.6v11Zm-5.546,0H314.3l-2.459-4.8,8.546-5.7V116Zm-7.1,0H308.2l-5.547-11,2.364-4.5,2.909,5.3a.561.561,0,0,1,.075.109c.03.053.051.091.108.091h.273l9.546-6,2.364,1.6v3l-9.273,6.2a.537.537,0,0,0-.182.4c0,.1,0,.1.09.2l2.357,4.6Zm-5.713,0H296.926l5.367-10.4,5.28,10.4Zm-11.7,0h-5.1l2.511-4.9a.194.194,0,0,0,.1-.18.391.391,0,0,0-.19-.32l-9.274-6v-3.5l2.546-1.5,9.637,5.9a.333.333,0,0,0,.16.039.432.432,0,0,0,.385-.239l2.727-5.3,2.364,4.7L295.877,116Zm-5.851,0h-6.007V105.7l8.546,5.5-2.539,4.8Zm-6.825,0h-5.182V105h.091l2.364-1.6,2.728,1.8V116Zm-5.818,0h-6.19l-2.539-4.8,8.728-5.7V116Zm-6.9,0h-4.9l-5.828-11.5,2.181-4.3,2.819,5.6a.629.629,0,0,1,.059.079.213.213,0,0,0,.214.122h.273l9.728-6.3,2.454,1.5v3.3l-9.364,6.1a.39.39,0,0,0-.184.276.378.378,0,0,0,.094.323l2.458,4.8Zm-5.881,0H253.2l5.547-10.7.273.5v-2.6l-.273.4L256.2,99.3l2.546-4.7.273.5V92.5l-.182.4-5.818-11h6v-.8h-6.455l-2.546-4.8h6.091a.41.41,0,0,0,.364-.4v-12l2.273-1.4.273.2V61.6h-.182c-.09,0-.09,0-.182.1L256.562,63V60.3c0-.1-.094-.3-.182-.3l-2.272-1.7.546-.3H252.2l.364.3-8.728,5.8-3.272-5.8.09-.3h-.123l3.4-5.8,8.637,5.4-.455.3h2l-.182-.2,2.364-1.6a.542.542,0,0,0,.182-.4V52.9l2.091,1.3a.116.116,0,0,1,.091.05.116.116,0,0,0,.091.05h.182v-1l-.182.1-2.273-1.5V39.6a.41.41,0,0,0-.364-.4h-6.091l2.455-4.7h6.546v-.8h-6.182l5.91-11.4.273.5V20.2l-.273.4L256.2,16.3l2.546-4.7.273.5V9.5l-.182.4L253.6,0h11.053l-5.543,10.6V12l2.364,4.7-2.364,4.6v1l6,11.7h-6v.8h6.364l2.455,4.8h-6a.409.409,0,0,0-.363.4V52.3l-2.455,1.6v.8l.273-.1,2.182-1.4v2.9a.543.543,0,0,0,.181.4l2.9,1.548-2.9,1.452a.543.543,0,0,0-.182.4v3l-2.091-1.3-.364-.1v.9l2.455,1.6V76.3a.409.409,0,0,0,.363.4h6l-2.455,4.8h-6.364v.8h5.91l-5.91,11.3V95l2.364,4.7-2.364,4.6v1l5.487,10.7Zm-12.308,0h-4.822l2.46-4.8a.373.373,0,0,0,.171-.325.344.344,0,0,0-.171-.274l-9.637-6v-3.1l2.364-1.6,9.455,6a.325.325,0,0,0,.16.041.853.853,0,0,0,.386-.142l3.092-5.7,2.545,4.3-6,11.6Zm-5.538,0h-6.371V105.6l8.91,5.6-2.539,4.8Zm-7.189,0h-4.727V104.9l2.182-1.5,2.545,1.6v11Zm-5.546,0h-6.087l-2.459-4.8,8.546-5.7V116Zm-7.1,0h-5.084l-5.547-11,2.364-4.5,2.91,5.3a.562.562,0,0,1,.073.108c.03.054.051.092.108.092h.273l9.546-6,2.364,1.6v3l-9.273,6.2a.537.537,0,0,0-.182.4c0,.1,0,.1.09.2l2.357,4.6Zm-5.713,0H210.557l5.367-10.4L221.2,116Zm-11.7,0h-5.1l2.511-4.9a.194.194,0,0,0,.1-.18.391.391,0,0,0-.19-.32l-9.274-6v-3.5l2.546-1.5,9.637,5.9a.333.333,0,0,0,.16.039.432.432,0,0,0,.385-.239l2.728-5.3,2.364,4.7L209.507,116Zm-5.851,0h-6.007V105.7l8.546,5.5-2.539,4.8Zm-6.825,0h-5.183V105h.091l2.364-1.6,2.728,1.8V116Zm-5.818,0h-6.189l-2.54-4.8,8.728-5.7V116Zm-6.905,0h-4.9l-5.828-11.5,2.182-4.3,2.818,5.6a.623.623,0,0,1,.058.078.214.214,0,0,0,.214.123h.273l9.728-6.3,2.454,1.5v3.3l-9.364,6.1a.389.389,0,0,0-.184.276.379.379,0,0,0,.093.324l2.459,4.8Zm-5.881,0h-11.4l5.547-10.7.272.5v-2.6l-.272.4-2.546-4.3,2.546-4.7.272.5V92.5l-.182.4-5.818-11h6v-.8h-6.454l-2.546-4.8h6.091a.41.41,0,0,0,.364-.4v-12l2.273-1.4.272.2V61.6h-.182c-.091,0-.091,0-.182.1L170.193,63V60.3c0-.1-.094-.3-.182-.3l-2.272-1.7.546-.3h-2.455l.364.3-8.728,5.8-3.273-5.8.091-.3h-.123l3.4-5.8,8.637,5.4-.455.3h2l-.182-.2,2.365-1.6a.542.542,0,0,0,.182-.4V52.9l2.091,1.3a.116.116,0,0,1,.091.05.115.115,0,0,0,.09.05h.182v-1l-.182.1L170.1,51.9V39.6a.41.41,0,0,0-.364-.4h-6.091l2.455-4.7h6.545v-.8h-6.181l5.91-11.4.272.5V20.2l-.272.4-2.546-4.3,2.546-4.7.272.5V9.5l-.182.4L167.229,0h11.053l-5.543,10.6V12l2.364,4.7-2.364,4.6v1l6,11.7h-6v.8H179.1l2.455,4.8h-6a.409.409,0,0,0-.364.4V52.3l-2.455,1.6v.8l.273-.1,2.182-1.4v2.9a.543.543,0,0,0,.181.4l2.9,1.548-2.9,1.452a.543.543,0,0,0-.182.4v3L173.1,61.6l-.364-.1v.9l2.455,1.6V76.3a.409.409,0,0,0,.364.4h6L179.1,81.5h-6.364v.8h5.91l-5.91,11.3V95l2.364,4.7-2.364,4.6v1l5.487,10.7Zm-12.308,0H161.1l2.459-4.8a.373.373,0,0,0,.172-.326.343.343,0,0,0-.172-.273l-9.637-6v-3.1l2.365-1.6,9.455,6a.325.325,0,0,0,.16.041.853.853,0,0,0,.386-.142l3.092-5.7,2.545,4.3-6,11.6Zm-5.538,0H154.01V105.6l8.91,5.6-2.539,4.8Zm-7.189,0h-4.727V104.9l2.182-1.5,2.545,1.6v11Zm-5.546,0h-6.087l-2.459-4.8,8.546-5.7V116Zm-7.1,0h-5.084l-5.547-11,2.364-4.5,2.909,5.3a.562.562,0,0,1,.075.109c.03.053.051.091.108.091h.273l9.546-6,2.364,1.6v3l-9.273,6.2a.537.537,0,0,0-.182.4c0,.1,0,.1.09.2l2.357,4.6Zm-5.713,0H124.188l5.367-10.4,5.28,10.4Zm-11.7,0h-5.1l2.511-4.9a.194.194,0,0,0,.1-.18.391.391,0,0,0-.19-.32l-9.274-6v-3.5l2.546-1.5,9.637,5.9a.333.333,0,0,0,.16.039.432.432,0,0,0,.385-.239l2.727-5.3,2.365,4.7L123.138,116Zm-5.851,0H111.28V105.7l8.546,5.5-2.539,4.8Zm-6.825,0h-5.182V105h.091l2.364-1.6,2.728,1.8V116Zm-5.818,0H98.455l-2.54-4.8,8.728-5.7V116Zm-6.905,0h-4.9l-5.828-11.5,2.182-4.3,2.818,5.6a.629.629,0,0,1,.059.079.213.213,0,0,0,.214.122h.273l9.728-6.3,2.454,1.5v3.3l-9.364,6.1a.39.39,0,0,0-.184.276.377.377,0,0,0,.094.323l2.459,4.8Zm-5.881,0h-11.4l5.546-10.7.273.5v-2.6l-.273.4L83.46,99.3l2.545-4.7.273.5V92.5l-.181.4-5.818-11h6v-.8H79.824l-2.546-4.8h6.091a.41.41,0,0,0,.364-.4v-12l2.272-1.4.273.2V61.6H86.1c-.091,0-.091,0-.182.1L83.824,63V60.3c0-.1-.094-.3-.182-.3l-2.272-1.7.546-.3H79.46l.364.3L71.1,64.1l-3.273-5.8.091-.3h-.123l3.4-5.8,8.637,5.4-.455.3h2l-.182-.2,2.365-1.6a.542.542,0,0,0,.182-.4V52.9l2.091,1.3a.116.116,0,0,1,.091.05.115.115,0,0,0,.09.05h.182v-1l-.182.1-2.272-1.5V39.6a.41.41,0,0,0-.364-.4H77.278l2.455-4.7h6.545v-.8H80.1l5.909-11.4.273.5V20.2l-.273.4L83.46,16.3l2.545-4.7.273.5V9.5l-.181.4L80.86,0H91.913L86.369,10.6V12l2.364,4.7-2.364,4.6v1l6,11.7h-6v.8h6.364l2.455,4.8h-6a.409.409,0,0,0-.364.4V52.3l-2.455,1.6v.8l.273-.1,2.182-1.4v2.9a.543.543,0,0,0,.181.4l2.9,1.548-2.9,1.452a.543.543,0,0,0-.182.4v3l-2.091-1.3-.364-.1v.9L88.824,64V76.3a.409.409,0,0,0,.364.4h6l-2.455,4.8H86.369v.8h5.91l-5.91,11.3V95l2.364,4.7-2.364,4.6v1L91.856,116Zm-12.308,0H74.727l2.459-4.8a.373.373,0,0,0,.172-.326.343.343,0,0,0-.172-.273l-9.637-6v-3.1l2.365-1.6,9.455,6a.325.325,0,0,0,.16.041.853.853,0,0,0,.386-.142l3.092-5.7,2.545,4.3-6,11.6Zm-5.538,0H67.641V105.6l8.91,5.6L74.012,116Zm-7.189,0H62.1V104.9l2.182-1.5,2.545,1.6v11Zm-5.546,0H55.19l-2.459-4.8,8.546-5.7V116Zm-7.1,0H49.1l-5.547-11,2.364-4.5,2.909,5.3a.56.56,0,0,1,.075.109c.03.053.051.091.108.091h.273l9.546-6,2.364,1.6v3l-9.273,6.2a.537.537,0,0,0-.182.4c0,.1,0,.1.09.2l2.357,4.6Zm-5.713,0H37.818l5.367-10.4,5.28,10.4Zm-11.7,0h-5.1l2.511-4.9a.194.194,0,0,0,.1-.18.391.391,0,0,0-.19-.32l-9.274-6v-3.5l2.546-1.5L37,105.5a.333.333,0,0,0,.16.039.432.432,0,0,0,.385-.239l2.727-5.3,2.365,4.7L36.769,116Zm-5.851,0H24.911V105.7l8.546,5.5L30.918,116Zm-6.825,0H18.91V105H19l2.364-1.6,2.728,1.8V116Zm-5.818,0h-6.19l-2.539-4.8,8.728-5.7V116Zm-6.905,0h-.525a11.469,11.469,0,0,1-4.934-1.093L.637,104.5l2.181-4.3,2.819,5.6a.629.629,0,0,1,.059.079A.213.213,0,0,0,5.91,106h.273l9.728-6.3,2.454,1.5v3.3L9,110.6a.39.39,0,0,0-.184.276.377.377,0,0,0,.094.323l2.459,4.8Zm-6.841-1.87,0,0a10.384,10.384,0,0,1-3.289-3.487A9.4,9.4,0,0,1,0,106v-.7l4.527,8.823Zm431.625-2.385h0l-3.67-7.243,2.182-4.3,2.818,5.6a.629.629,0,0,1,.059.079.213.213,0,0,0,.214.122h.273l.092-.06V106a9.413,9.413,0,0,1-1.966,5.743ZM437.937,105h0l-2.909-5.7,2.909-5.6.183.112v11.07l-.182.118Zm-13,0h0l-8.818-5.6,8.546-5.7,3.364,5.7-3.09,5.6Zm-30.093,0h0l-2.909-5.7,2.909-5.7,8.82,5.8-8.819,5.6Zm-43.275,0h0l-2.909-5.7,2.909-5.6,9,5.5-9,5.8Zm-13,0h0l-8.818-5.6,8.546-5.7,3.363,5.7-3.09,5.6Zm-30.093,0h0l-2.909-5.7,2.909-5.7,8.819,5.8-8.818,5.6ZM265.2,105h0l-2.909-5.7,2.909-5.6,9,5.5-9,5.8Zm-13,0h0l-8.818-5.6,8.546-5.7,3.363,5.7L252.2,105Zm-30.092,0h0l-2.91-5.7,2.91-5.7,8.819,5.8-8.818,5.6Zm-43.276,0h0l-2.909-5.7,2.909-5.6,9,5.5-9,5.8Zm-13,0h0l-8.818-5.6,8.546-5.7,3.364,5.7-3.09,5.6Zm-30.093,0h0l-2.909-5.7,2.909-5.7,8.82,5.8-8.819,5.6ZM92.46,105h0l-2.909-5.7,2.909-5.6,9,5.5-9,5.8Zm-13,0h0l-8.818-5.6,8.546-5.7,3.363,5.7L79.46,105Zm-30.093,0h0l-2.909-5.7,2.909-5.7,8.819,5.8L49.367,105ZM6.091,105h0L3.182,99.3l2.909-5.6,9,5.5-9,5.8Zm376.57-.4h0l-8.909-5.5,8.91-5.5,2.818,5.5-2.817,5.5Zm-86.369,0h0l-8.909-5.5,8.91-5.5,2.818,5.5-2.817,5.5Zm-86.369,0h0l-8.909-5.5,8.91-5.5,2.819,5.5-2.818,5.5Zm-86.369,0h0l-8.909-5.5,8.91-5.5,2.818,5.5-2.817,5.5Zm-86.369,0h0l-8.909-5.5,8.91-5.5L40,99.1l-2.817,5.5Zm332.385-.3h0l-2.545-1.6a.244.244,0,0,0-.182-.075.247.247,0,0,0-.181.075l-2.182,1.4v-3.2a.538.538,0,0,0-.18-.4l-2.275-1.4,2.273-1.4a.543.543,0,0,0,.182-.4V94.5l2.182,1.4a.256.256,0,0,0,.363,0l2.546-1.6v3.1a.542.542,0,0,0,.179.4l2.276,1.4-2.273,1.4a.542.542,0,0,0-.182.4v3.3Zm-86.369,0h0l-2.545-1.6a.244.244,0,0,0-.182-.075.248.248,0,0,0-.181.075l-2.182,1.4v-3.2a.539.539,0,0,0-.18-.4l-2.275-1.4,2.273-1.4a.542.542,0,0,0,.182-.4V94.5l2.182,1.4a.256.256,0,0,0,.363,0l2.546-1.6v3.1a.542.542,0,0,0,.179.4l2.276,1.4-2.273,1.4a.543.543,0,0,0-.182.4v3.3Zm-86.369,0h0l-2.544-1.6a.245.245,0,0,0-.182-.075.248.248,0,0,0-.182.075l-2.182,1.4v-3.2a.539.539,0,0,0-.18-.4l-2.275-1.4,2.273-1.4a.542.542,0,0,0,.182-.4V94.5l2.182,1.4a.257.257,0,0,0,.364,0l2.545-1.6v3.1a.542.542,0,0,0,.179.4l2.276,1.4-2.273,1.4a.543.543,0,0,0-.182.4v3.3Zm-86.369,0h0l-2.545-1.6a.258.258,0,0,0-.363,0l-2.182,1.4v-3.2a.539.539,0,0,0-.18-.4l-2.275-1.4,2.273-1.4a.542.542,0,0,0,.182-.4V94.5l2.182,1.4a.256.256,0,0,0,.363,0l2.546-1.6v3.1a.542.542,0,0,0,.179.4l2.276,1.4-2.273,1.4a.542.542,0,0,0-.182.4v3.3Zm-86.369,0h0l-2.545-1.6a.248.248,0,0,0-.182-.075.244.244,0,0,0-.182.075L19,104.1v-3.2a.539.539,0,0,0-.18-.4l-2.275-1.4,2.273-1.4A.542.542,0,0,0,19,97.3V94.5l2.182,1.4a.256.256,0,0,0,.363,0l2.546-1.6v3.1a.541.541,0,0,0,.179.4l2.276,1.4-2.273,1.4a.542.542,0,0,0-.182.4v3.3ZM0,104.3H0V95l2.364,4.7Zm412.3-.1h0l-2.362-1.5a.259.259,0,0,0-.364,0l-2,1.3v-2.7a.786.786,0,0,0-.182-.4l-2.182-1.4,2.182-1.4a.543.543,0,0,0,.182-.4V94.5l2.364,1.6a.258.258,0,0,0,.364,0l2-1.3v2.8a.8.8,0,0,0,.181.4l2.182,1.4-2.182,1.5a.543.543,0,0,0-.181.4v2.9Zm-86.369,0h0l-2.362-1.5a.259.259,0,0,0-.364,0l-2,1.3v-2.7a.78.78,0,0,0-.182-.4l-2.181-1.4,2.181-1.4a.539.539,0,0,0,.182-.4V94.5l2.364,1.6a.258.258,0,0,0,.364,0l2-1.3v2.8a.8.8,0,0,0,.182.4l2.182,1.4-2.182,1.5a.542.542,0,0,0-.182.4v2.9Zm-86.369,0h0l-2.362-1.5a.259.259,0,0,0-.364,0l-2,1.3v-2.7a.786.786,0,0,0-.182-.4l-2.182-1.4,2.182-1.4a.543.543,0,0,0,.182-.4V94.5l2.364,1.6a.258.258,0,0,0,.364,0l2-1.3v2.8a.8.8,0,0,0,.182.4l2.181,1.4-2.181,1.5a.539.539,0,0,0-.182.4v2.9Zm-86.369,0h0l-2.362-1.5a.259.259,0,0,0-.364,0l-2,1.3v-2.7a.786.786,0,0,0-.182-.4L146.1,99.5l2.182-1.4a.543.543,0,0,0,.182-.4V94.5l2.364,1.6a.258.258,0,0,0,.364,0l2-1.3v2.8a.8.8,0,0,0,.182.4l2.182,1.4-2.182,1.5a.542.542,0,0,0-.182.4v2.9Zm-86.369,0h0l-2.362-1.5a.259.259,0,0,0-.364,0l-2,1.3v-2.7a.781.781,0,0,0-.182-.4l-2.181-1.4,2.181-1.4a.539.539,0,0,0,.182-.4V94.5l2.364,1.6a.258.258,0,0,0,.364,0l2-1.3v2.8A.8.8,0,0,0,67,98l2.182,1.4L67,100.9a.543.543,0,0,0-.182.4v2.9Zm321.84-.4v0L386.3,99.1l2.273-4.5,2.455,4.7-2.363,4.5Zm-86.369,0v0l-2.364-4.7,2.273-4.5,2.455,4.7-2.363,4.5Zm-86.369,0v0l-2.364-4.7,2.273-4.5,2.455,4.7-2.363,4.5Zm-86.369,0v0l-2.364-4.7,2.273-4.5,2.455,4.7-2.363,4.5Zm-86.369,0v0l-2.364-4.7,2.273-4.5,2.455,4.7-2.363,4.5ZM404.48,99h0l-9.545-6.2a.162.162,0,0,0-.273,0c-.09,0-.182.1-.27.2l-2.912,5.6-2.455-4.7L395.116,82h5L397.3,87.4a.743.743,0,0,0,.273.6l9.274,6.1v3.4L404.481,99Zm-86.369,0h0l-9.545-6.2a.162.162,0,0,0-.273,0c-.091,0-.182.1-.27.2l-2.912,5.6-2.455-4.7L308.747,82h5l-2.819,5.4a.743.743,0,0,0,.273.6l9.274,6.1v3.4L318.112,99Zm-86.369,0h0L222.2,92.8a.186.186,0,0,0-.136-.075.189.189,0,0,0-.136.075c-.091,0-.183.1-.273.2l-2.909,5.6-2.455-4.7L222.379,82h5l-2.819,5.4a.743.743,0,0,0,.273.6l9.274,6.1v3.4L231.742,99Zm-86.369,0h0l-9.545-6.2a.162.162,0,0,0-.273,0c-.091,0-.182.1-.27.2l-2.912,5.6-2.455-4.7L136.008,82h5l-2.819,5.4a.743.743,0,0,0,.273.6l9.274,6.1v3.4L145.373,99ZM59,99h0l-9.545-6.2a.162.162,0,0,0-.273,0c-.091,0-.182.1-.27.2L46,98.6l-2.455-4.7L49.639,82h5l-2.819,5.4a.743.743,0,0,0,.273.6l9.274,6.1v3.4L59,99Zm356.387-.1h0l-2.364-1.5V94.3l9.637-6.4a.392.392,0,0,0,.185-.277.379.379,0,0,0-.093-.323l-2.818-5.4h4.819l6.273,11.8-2.545,4.7-3.364-5.5a.352.352,0,0,0-.312-.209.312.312,0,0,0-.233.109l-9.181,6.1Zm-86.369,0h0l-2.364-1.5V94.3l9.637-6.4a.392.392,0,0,0,.185-.277.379.379,0,0,0-.093-.323l-2.818-5.4h4.819l6.273,11.8-2.545,4.7-3.364-5.5a.352.352,0,0,0-.312-.209.312.312,0,0,0-.233.109l-9.181,6.1Zm-86.369,0h0l-2.363-1.5V94.3l9.637-6.4a.392.392,0,0,0,.184-.278.378.378,0,0,0-.094-.322L247.2,81.9h4.818l6.273,11.8-2.545,4.7-3.364-5.5a.352.352,0,0,0-.312-.209.312.312,0,0,0-.233.109l-9.181,6.1Zm-86.369,0h0l-2.364-1.5V94.3l9.637-6.4a.392.392,0,0,0,.185-.277.379.379,0,0,0-.093-.323l-2.818-5.4h4.818l6.273,11.8-2.545,4.7-3.364-5.5a.352.352,0,0,0-.312-.209.312.312,0,0,0-.233.109l-9.181,6.1Zm-86.369,0h0l-2.364-1.5V94.3l9.637-6.4a.392.392,0,0,0,.185-.277.379.379,0,0,0-.093-.323L74.46,81.9h4.819l6.273,11.8-2.545,4.7-3.364-5.5a.352.352,0,0,0-.312-.209.312.312,0,0,0-.233.109l-9.181,6.1ZM361.3,98.7h0l-9.728-6a.331.331,0,0,0-.16-.04.432.432,0,0,0-.386.239l-2.909,5.6L345.841,94l6.273-12h5l-2.91,5.4a.51.51,0,0,0,.182.6l9.364,6v3.1L361.3,98.7Zm-86.369,0h0l-9.728-6a.331.331,0,0,0-.16-.04.432.432,0,0,0-.386.239l-2.909,5.6L259.472,94l6.273-12h5l-2.909,5.4a.51.51,0,0,0,.182.6l9.364,6v3.1l-2.454,1.6Zm-86.369,0h0l-9.728-6a.328.328,0,0,0-.161-.04.431.431,0,0,0-.385.239l-2.909,5.6L173.1,94l6.273-12h5l-2.91,5.4a.51.51,0,0,0,.182.6l9.364,6v3.1l-2.454,1.6Zm-86.369,0h0l-9.728-6a.328.328,0,0,0-.161-.04.431.431,0,0,0-.385.239l-2.909,5.6L86.733,94l6.273-12h5L95.1,87.4a.51.51,0,0,0,.182.6l9.364,6v3.1l-2.454,1.6Zm-86.369,0h0l-9.728-6a.327.327,0,0,0-.161-.04.431.431,0,0,0-.385.239L2.636,98.5.364,94,6.637,82h5L8.727,87.4a.51.51,0,0,0,.182.6l9.364,6v3.1L15.82,98.7Zm357.114,0h0l-2.545-1.5V93.9l9.183-5.8a.707.707,0,0,0,.182-.7L376.933,82h5.091l6.092,11.9-2.273,4.5L383.115,93a.43.43,0,0,0-.385-.239.335.335,0,0,0-.161.039l-9.637,5.9Zm-86.369,0h0l-2.545-1.5V93.9l9.183-5.8a.707.707,0,0,0,.182-.7L290.564,82h5.091l6.092,11.9-2.273,4.5L296.746,93a.43.43,0,0,0-.385-.239.336.336,0,0,0-.161.039l-9.636,5.9Zm-86.369,0h0l-2.545-1.5V93.9l9.183-5.8a.707.707,0,0,0,.182-.7L204.2,82h5.09l6.092,11.9L213.1,98.4,210.377,93a.43.43,0,0,0-.385-.239.335.335,0,0,0-.161.039l-9.637,5.9Zm-86.369,0h0l-2.545-1.5V93.9l9.183-5.8a.707.707,0,0,0,.182-.7L117.826,82h5.091l6.092,11.9-2.273,4.5L124.008,93a.43.43,0,0,0-.385-.239.335.335,0,0,0-.161.039l-9.636,5.9Zm-86.369,0h0l-2.545-1.5V93.9l9.183-5.8a.707.707,0,0,0,.182-.7L31.456,82h5.091L42.64,93.9l-2.273,4.5L37.639,93a.43.43,0,0,0-.385-.239.335.335,0,0,0-.161.039l-9.636,5.9Zm407.027-.2v0L432.21,94l5.91-11.307v10.12l-.183-.113a.33.33,0,0,0-.16-.04.432.432,0,0,0-.386.239l-2.908,5.6Zm-24.365-3.2h0l-2.545-1.7v-12a.41.41,0,0,0-.364-.4h-5.727l2.455-4.8h12.273l2.454,4.8h-6a.317.317,0,0,0-.273.1.393.393,0,0,0-.091.3V93.9l-2.182,1.4Zm-86.369,0h0L321.2,93.6v-12a.41.41,0,0,0-.364-.4h-5.727l2.454-4.8H329.84l2.454,4.8h-6a.317.317,0,0,0-.273.1.393.393,0,0,0-.091.3V93.9l-2.182,1.4Zm-86.369,0h0l-2.545-1.7v-12a.41.41,0,0,0-.364-.4h-5.727l2.455-4.8h12.273l2.455,4.8h-6a.317.317,0,0,0-.273.1.393.393,0,0,0-.091.3V93.9l-2.182,1.4Zm-86.369,0h0l-2.545-1.7v-12a.41.41,0,0,0-.364-.4h-5.727l2.455-4.8H157.1l2.454,4.8h-6a.317.317,0,0,0-.273.1.393.393,0,0,0-.091.3V93.9l-2.181,1.4Zm-86.369,0h0L62.1,93.6v-12a.41.41,0,0,0-.364-.4H56l2.454-4.8H70.732l2.454,4.8h-6a.317.317,0,0,0-.273.1.393.393,0,0,0-.091.3V93.9l-2.181,1.4Zm302.293-.2h0l-2.363-1.5v-12a.539.539,0,0,1-.091-.15.531.531,0,0,0-.091-.15.316.316,0,0,0-.273-.1h-5.727l2.545-4.8h12.273l2.455,4.8h-5.637a.409.409,0,0,0-.363.4V93.4l-2.727,1.7Zm-86.369,0h0L278.2,93.6v-12a.539.539,0,0,1-.091-.15.532.532,0,0,0-.091-.15.316.316,0,0,0-.273-.1h-5.727l2.545-4.8h12.273l2.455,4.8h-5.637a.409.409,0,0,0-.363.4V93.4l-2.727,1.7Zm-86.369,0h0l-2.363-1.5v-12a.538.538,0,0,1-.091-.15.531.531,0,0,0-.091-.15.316.316,0,0,0-.273-.1h-5.727l2.545-4.8h12.273l2.455,4.8h-5.637a.409.409,0,0,0-.363.4V93.4L194.2,95.1Zm-86.369,0h0l-2.363-1.5v-12a.539.539,0,0,1-.091-.15.531.531,0,0,0-.091-.15.316.316,0,0,0-.273-.1H99.279l2.545-4.8H114.1l2.455,4.8h-5.637a.409.409,0,0,0-.363.4V93.4l-2.727,1.7Zm-86.369,0h0l-2.363-1.5v-12A.539.539,0,0,1,19,81.45a.531.531,0,0,0-.091-.15.316.316,0,0,0-.273-.1H12.91l2.545-4.8H27.729l2.455,4.8H24.547a.409.409,0,0,0-.363.4V93.4l-2.727,1.7ZM0,93.6H0V82.3H5.91Zm413.024-.2V82h6.092l2.818,5.5-8.908,5.9Zm-86.369,0V82h6.092l2.818,5.5-8.908,5.9Zm-86.368,0V82h6.091l2.818,5.5-8.907,5.9Zm-86.37,0V82h6.092l2.818,5.5-8.908,5.9Zm-86.369,0V82h6.092l2.818,5.5-8.908,5.9Zm339.2-.3h0l-8.545-5.6,2.818-5.5h5.728V93.1Zm-86.369,0h0l-8.544-5.6,2.818-5.5h5.728V93.1Zm-86.369,0h0l-8.544-5.6,2.818-5.5h5.728V93.1Zm-86.369,0h0L139.1,87.5l2.818-5.5h5.728V93.1Zm-86.369,0h0l-8.544-5.6L55.549,82h5.728V93.1ZM388.571,93v0l-5.636-11H394.3l-5.726,11Zm-24.82,0h0l-8.727-5.6,2.91-5.5h5.818V93ZM302.2,93v0l-5.636-11h11.364L302.2,93Zm-24.82,0h0l-8.727-5.6,2.909-5.5h5.819V93Zm-61.55,0v0L210.2,82H221.56l-5.727,11Zm-24.82,0h0l-8.727-5.6,2.91-5.5h5.818V93Zm-61.55,0v0l-5.636-11H135.19l-5.726,11Zm-24.82,0h0l-8.727-5.6,2.91-5.5h5.818V93Zm-61.55,0v0L37.457,82H48.821L43.095,93Zm-24.82,0h0L9.546,87.4l2.909-5.5h5.819V93Zm352.114-.1V82h5.637l2.818,5.5-8.453,5.4Zm-86.369,0V82h5.637l2.818,5.5-8.453,5.4Zm-86.369,0V82h5.637l2.818,5.5-8.453,5.4Zm-86.369,0V82h5.637l2.818,5.5-8.453,5.4Zm-86.369,0V82h5.637l2.818,5.5-8.453,5.4ZM6.364,81.5H0V62.4L2.455,64V76.3a.409.409,0,0,0,.363.4h6L6.364,81.5Zm418.119-.3h-4.818l-2.546-4.8h4.819l2.545,4.8Zm-23.911,0h-5l2.455-4.8h5l-2.455,4.8Zm-5.818,0H382.48l-2.455-4.8h5.727a.41.41,0,0,0,.364-.4V64.1l2.546-1.7,2.454,1.7V76a.41.41,0,0,0,.364.4h5.728l-2.455,4.8Zm-13.183,0h-5.091l-2.455-4.8h5.091l2.454,4.8Zm-24,0h-4.91l2.455-4.8h5l-2.545,4.8Zm-19.456,0h-4.819l-2.546-4.8h4.819l2.545,4.8Zm-23.911,0h-5l2.455-4.8h5L314.2,81.2Zm-5.818,0H296.11l-2.455-4.8h5.727a.41.41,0,0,0,.364-.4V64.1l2.545-1.7,2.455,1.7V76a.41.41,0,0,0,.364.4h5.728l-2.455,4.8Zm-13.183,0H290.11l-2.455-4.8h5.091l2.454,4.8Zm-24,0h-4.91l2.455-4.8h5L271.2,81.2Zm-19.456,0h-4.819l-2.546-4.8H249.2l2.545,4.8Zm-23.911,0h-5l2.455-4.8h5l-2.455,4.8Zm-5.818,0H209.741l-2.455-4.8h5.728a.409.409,0,0,0,.363-.4V64.1l2.546-1.7,2.454,1.7V76a.41.41,0,0,0,.364.4h5.728l-2.455,4.8Zm-13.183,0H203.74l-2.455-4.8h5.091l2.454,4.8Zm-24,0h-4.91l2.455-4.8h5l-2.545,4.8Zm-19.456,0h-4.818l-2.546-4.8h4.818l2.545,4.8Zm-23.911,0h-5l2.455-4.8h5l-2.455,4.8Zm-5.818,0H123.372l-2.455-4.8h5.727a.41.41,0,0,0,.364-.4V64.1l2.546-1.7,2.454,1.7V76a.41.41,0,0,0,.364.4H138.1l-2.455,4.8Zm-13.183,0h-5.091l-2.455-4.8h5.091l2.454,4.8Zm-24,0h-4.91l2.455-4.8h5l-2.545,4.8Zm-19.456,0H74.187l-2.546-4.8h4.819L79,81.2Zm-23.911,0h-5l2.455-4.8h5l-2.455,4.8Zm-5.818,0H37l-2.455-4.8h5.727a.41.41,0,0,0,.364-.4V64.1l2.545-1.7,2.455,1.7V76a.41.41,0,0,0,.364.4h5.728l-2.455,4.8Zm-13.183,0H31l-2.455-4.8h5.091l2.454,4.8Zm-24,0H7.182l2.455-4.8h5l-2.545,4.8Zm426.029-5.6h-3.183V64.3l3.183,2.037V75.6Zm-9.638,0H422.3L419.391,70l9.092-5.6V75.6Zm-7,0h-4.818l-6.182-11.9,2.364-4.7,3.273,5.7a.353.353,0,0,0,.313.209.311.311,0,0,0,.233-.109l9.364-6.2,2.455,1.8v3l-9.819,6.1a.581.581,0,0,1-.071.064.245.245,0,0,0-.111.235v.1c0,.1,0,.1.091.2l2.908,5.5Zm-5.728,0H404.3l5.728-11.1,5.726,11.1Zm-18.183,0h-5.727v-11L400.48,70l-2.909,5.6Zm-24.82,0H361.388l5.727-10.9,5.636,10.9Zm-12.273,0h-5l2.818-5.5c.082-.179.023-.376-.182-.6l-9.637-6.2V60h.09l2.819-1.4,9.273,6.3a.162.162,0,0,0,.273,0c.092,0,.184-.1.273-.2l2.909-5.7,2.546,4.9-6.182,11.7Zm-5.91,0h-6V64.3l8.91,5.7-2.909,5.6Zm-12.455,0h-6.182L333.022,70l9.092-5.6V75.6Zm-7,0h-4.818l-6.182-11.9,2.364-4.7,3.273,5.7a.354.354,0,0,0,.313.209.31.31,0,0,0,.233-.109l9.364-6.2,2.455,1.8v3l-9.819,6.1a.581.581,0,0,1-.071.064.244.244,0,0,0-.111.235v.1c0,.1,0,.1.091.2l2.908,5.5Zm-5.728,0H317.93l5.728-11.1,5.726,11.1Zm-18.183,0h-5.727v-11l8.636,5.4L311.2,75.6Zm-24.82,0H275.018l5.727-10.9,5.636,10.9Zm-12.273,0h-5l2.818-5.5c.082-.179.022-.376-.182-.6l-9.637-6.2V60h.09l2.819-1.4,9.273,6.3a.162.162,0,0,0,.273,0c.092,0,.184-.1.273-.2l2.909-5.7,2.546,4.9-6.182,11.7Zm-5.91,0h-6V64.3l8.91,5.7L268.2,75.6Zm-12.455,0h-6.182L246.653,70l9.092-5.6V75.6Zm-7,0h-4.818l-6.182-11.9,2.364-4.7,3.273,5.7a.353.353,0,0,0,.313.209.31.31,0,0,0,.233-.109l9.364-6.2,2.455,1.8v3l-9.819,6.1a.58.58,0,0,1-.071.064.244.244,0,0,0-.111.236v.1c0,.1,0,.1.091.2l2.908,5.5Zm-5.728,0H231.56l5.728-11.1,5.726,11.1Zm-18.183,0h-5.727v-11l8.636,5.4-2.909,5.6Zm-24.82,0H188.649l5.727-10.9,5.636,10.9Zm-12.273,0h-5l2.818-5.5c.082-.179.023-.376-.182-.6l-9.637-6.2V60h.091l2.818-1.4,9.273,6.3a.162.162,0,0,0,.273,0c.092,0,.184-.1.273-.2l2.909-5.7,2.546,4.9L187.74,75.6Zm-5.91,0h-6V64.3l8.909,5.7-2.909,5.6Zm-12.455,0h-6.182L160.284,70l9.091-5.6V75.6Zm-7,0h-4.818l-6.182-11.9,2.364-4.7,3.273,5.7a.353.353,0,0,0,.313.209.311.311,0,0,0,.233-.109l9.364-6.2,2.455,1.8v3l-9.819,6.1a.579.579,0,0,1-.071.064.245.245,0,0,0-.111.235v.1c0,.1,0,.1.091.2l2.908,5.5Zm-5.728,0H145.191l5.728-11.1,5.726,11.1Zm-18.183,0h-5.727v-11l8.636,5.4-2.909,5.6Zm-24.82,0H102.28l5.727-10.9,5.636,10.9Zm-12.273,0h-5l2.818-5.5c.082-.179.022-.376-.182-.6L89.37,63.3V60h.09l2.819-1.4,9.273,6.3a.162.162,0,0,0,.273,0c.092,0,.184-.1.273-.2l2.909-5.7,2.546,4.9-6.182,11.7Zm-5.91,0h-6V64.3L98.37,70l-2.909,5.6Zm-12.455,0H76.823L73.914,70l9.092-5.6V75.6Zm-7,0H71.187L65,63.7,67.368,59l3.273,5.7a.354.354,0,0,0,.313.209.31.31,0,0,0,.233-.109l9.364-6.2,2.455,1.8v3l-9.82,6.1a.58.58,0,0,1-.071.064A.245.245,0,0,0,73,69.8v.1c0,.1,0,.1.091.2L76,75.6Zm-5.728,0H58.822L64.55,64.5l5.726,11.1Zm-18.183,0H46.367v-11L55,70l-2.909,5.6Zm-24.82,0H15.911l5.727-10.9,5.636,10.9ZM15,75.6H10l2.818-5.5c.082-.179.023-.376-.182-.6L3,63.3V60h.09L5.91,58.6l9.273,6.3a.162.162,0,0,0,.273,0c.092,0,.184-.1.273-.2L18.637,59l2.546,4.9L15,75.6Zm-5.91,0h-6V64.3L12,70,9.092,75.6Zm394.389-.1h-5L401.3,70a.5.5,0,0,0-.182-.6l-9.273-5.9V60l2.727-1.4,9.274,6.3a.19.19,0,0,0,.136.075.192.192,0,0,0,.137-.075c.09,0,.183-.1.272-.2l2.818-5.7,2.364,4.6-6.091,11.9Zm-18.092,0H379.57l-2.91-5.6,8.728-5.4v11Zm-6.819,0h-5.091l-6.091-11.7,2.546-4.9,3,5.8c.09.1.182.2.273.2h.273l9.274-6.3L385.3,60v3.5l-9.364,5.9a.5.5,0,0,0-.182.6l2.817,5.5Zm-61.458,0h-5l2.818-5.5a.5.5,0,0,0-.182-.6l-9.273-5.9V60l2.727-1.4,9.274,6.3a.19.19,0,0,0,.136.075.192.192,0,0,0,.137-.075c.091,0,.183-.1.273-.2l2.818-5.7,2.364,4.6-6.091,11.9Zm-18.092,0H293.2l-2.91-5.6,8.728-5.4v11Zm-6.819,0h-5.091l-6.091-11.7,2.546-4.9,3,5.8c.09.1.182.2.273.2h.273l9.274-6.3,2.545,1.4v3.5l-9.364,5.9a.5.5,0,0,0-.182.6l2.817,5.5Zm-61.458,0h-5L228.56,70a.5.5,0,0,0-.182-.6l-9.273-5.9V60l2.728-1.4,9.273,6.3a.162.162,0,0,0,.273,0c.091,0,.182-.1.27-.2L234.47,59l2.365,4.6-6.092,11.9Zm-18.092,0h-5.818l-2.909-5.6,8.727-5.4v11Zm-6.819,0H200.74l-6.091-11.7,2.546-4.9,3,5.8c.09.1.182.2.273.2h.273l9.274-6.3,2.545,1.4v3.5l-9.364,5.9a.5.5,0,0,0-.182.6l2.817,5.5Zm-61.458,0h-5l2.818-5.5a.5.5,0,0,0-.182-.6l-9.273-5.9V60l2.727-1.4,9.274,6.3a.19.19,0,0,0,.136.075.192.192,0,0,0,.137-.075c.091,0,.183-.1.273-.2L148.1,59l2.364,4.6-6.091,11.9Zm-18.092,0h-5.818l-2.91-5.6,8.728-5.4v11Zm-6.819,0h-5.091L108.28,63.8l2.546-4.9,3,5.8c.09.1.182.2.273.2h.273l9.274-6.3L126.19,60v3.5l-9.364,5.9a.5.5,0,0,0-.182.6l2.817,5.5ZM58,75.5H53L55.822,70a.5.5,0,0,0-.182-.6l-9.273-5.9V60l2.727-1.4,9.274,6.3a.19.19,0,0,0,.136.075.192.192,0,0,0,.137-.075c.091,0,.183-.1.273-.2L61.731,59l2.364,4.6L58,75.5Zm-18.092,0H34.094l-2.91-5.6,8.728-5.4v11Zm-6.819,0H28L21.91,63.8l2.546-4.9,3,5.8c.09.1.182.2.273.2H28l9.274-6.3L39.821,60v3.5l-9.364,5.9a.5.5,0,0,0-.182.6l2.817,5.5ZM438.121,65.406h0L434.847,63.3V60h.091l2.818-1.4.365.248v6.558ZM373.57,64.1h0l-3-6,3-5.9,8.546,5.7-.182.1h-.273l.124.082-.034.018h.061l.3.2-8.545,5.8Zm-12.728,0h0L352.2,58.3l.364-.3h-.392l1.418-.924.011-.007.008-.005c2.725-1.775,5.813-3.786,7.319-4.863l2.909,5.7v.2H363.3l.455.3-2.909,5.7Zm-73.642,0h0l-3-6,3-5.9,8.546,5.7-.182.1h-.273l.124.082-.033.018h.061l.3.2L287.2,64.1Zm-12.728,0h0l-8.636-5.8.363-.3h-.391l1.43-.932c2.727-1.776,5.817-3.789,7.326-4.868l2.909,5.7v.2h-.546l.455.3-2.909,5.7Zm-73.641,0h0l-3-6,3-5.9,8.546,5.7-.182.1h-.272l.124.082-.033.018h.061l.3.2-8.545,5.8Zm-12.728,0h0l-8.636-5.8.364-.3h-.393l1.413-.921.039-.025c2.719-1.771,5.8-3.778,7.3-4.853l2.909,5.7v.2h-.545l.454.3L188.1,64.1Zm-73.642,0h0l-3-6,3-5.9,8.546,5.7-.182.1h-.272l.124.082-.033.018h.061l.3.2-8.545,5.8Zm-12.728,0h0L93.1,58.3l.364-.3h-.393l1.41-.919.04-.026c2.719-1.771,5.8-3.779,7.306-4.854l2.909,5.7v.2h-.546l.455.3-2.909,5.7Zm-73.642,0h0l-3-6,3-5.9,8.546,5.7-.182.1h-.273l.124.082-.033.018h.061l.3.2-8.545,5.8Zm-12.728,0h0L6.728,58.3l.363-.3H6.7l1.41-.919.04-.026c2.719-1.771,5.8-3.779,7.306-4.854l2.909,5.7v.2h-.546l.455.3-2.909,5.7ZM403.753,64h0L395.3,58.2l.153-.1h.3l-.143-.105.143-.095h-.273l8.273-5.7,3.092,5.7-.045.1h-.046l-3,6Zm-86.369,0h0l-8.454-5.8.153-.1h.3l-.143-.105.143-.095h-.273l8.273-5.7,3.092,5.7-.045.1h-.046l-3,6Zm-86.369,0h0l-8.454-5.8.153-.1h.3l-.144-.105.144-.095h-.273l8.273-5.7,3.092,5.7-.045.1h-.046l-3,6Zm-86.369,0h0l-8.454-5.8.153-.1h.3l-.144-.105.144-.095h-.273l8.273-5.7,3.092,5.7-.045.1h-.046l-3,6ZM58.276,64h0l-8.454-5.8.153-.1h.3l-.144-.105.144-.095H50l8.273-5.7,3.092,5.7-.045.1h-.046l-3,6Zm327.84-.8V59.9a.539.539,0,0,0-.18-.4L383.3,58.05l2.726-1.45a.539.539,0,0,0,.182-.4V52.9l2.364,1.5a.258.258,0,0,0,.364,0l2.272-1.4v3.1a.543.543,0,0,0,.181.4l2.546,1.4h-1l.636.3-2.364,1.2a.537.537,0,0,0-.182.4v3.3l-2.182-1.5a.259.259,0,0,0-.364,0l-2.362,1.6Zm-18.91,0v0l-2.636-5.1,2.636-5.2,2.636,5v.2h.091l-2.727,5.1Zm-67.459,0V59.9a.539.539,0,0,0-.18-.4L296.93,58.05l2.726-1.45a.539.539,0,0,0,.182-.4V52.9l2.364,1.5a.257.257,0,0,0,.363,0l2.273-1.4v3.1a.543.543,0,0,0,.181.4l2.546,1.4h-1l.636.3-2.364,1.2a.537.537,0,0,0-.182.4v3.3l-2.182-1.5a.259.259,0,0,0-.364,0l-2.362,1.6Zm-18.91,0v0L278.2,58.1l2.636-5.2,2.636,5v.2h.091l-2.727,5.1Zm-67.459,0V59.9a.537.537,0,0,0-.181-.4l-2.636-1.45,2.726-1.45a.539.539,0,0,0,.182-.4V52.9l2.364,1.5a.258.258,0,0,0,.364,0l2.272-1.4v3.1a.543.543,0,0,0,.181.4l2.546,1.4h-1l.636.3-2.364,1.2a.537.537,0,0,0-.182.4v3.3l-2.182-1.5a.259.259,0,0,0-.364,0l-2.362,1.6Zm-18.91,0v0l-2.636-5.1,2.636-5.2,2.636,5v.2h.091l-2.727,5.1Zm-67.459,0V59.9a.539.539,0,0,0-.18-.4l-2.637-1.451,2.726-1.45a.539.539,0,0,0,.182-.4V52.9l2.364,1.5a.258.258,0,0,0,.364,0L132.1,53v3.1a.543.543,0,0,0,.181.4l2.546,1.4h-1l.636.3L132.1,59.4a.537.537,0,0,0-.182.4v3.3l-2.182-1.5a.259.259,0,0,0-.364,0l-2.362,1.6Zm-18.91,0v0l-2.636-5.1,2.636-5.2,2.636,5v.2h.091L108.1,63.2Zm-67.459,0V59.9a.539.539,0,0,0-.18-.4L37.822,58.05l2.726-1.45a.539.539,0,0,0,.182-.4V52.9l2.364,1.5a.257.257,0,0,0,.363,0L45.73,53v3.1a.543.543,0,0,0,.181.4l2.546,1.4h-1l.636.3L45.73,59.4a.537.537,0,0,0-.182.4v3.3l-2.182-1.5a.259.259,0,0,0-.364,0l-2.362,1.6Zm-18.91,0v0l-2.636-5.1,2.636-5.2,2.636,5v.2h.091L21.73,63.2ZM2.455,62.9h0L.364,61.6,0,61.5V54.7l.273-.1,2.182-1.4v2.9a.543.543,0,0,0,.181.4l2.9,1.548L2.636,59.5a.543.543,0,0,0-.182.4v3Zm407.481,0v0l-2.492-4.8h.129l2.545-4.9,2.364,4.7-.09.2h.039l-2.493,4.8Zm-86.369,0v0l-2.492-4.8h.129l2.545-4.9,2.364,4.7-.09.2h.039l-2.493,4.8Zm-86.369,0v0L234.7,58.1h.13l2.545-4.9,2.365,4.7-.091.2h.04L237.2,62.9Zm-86.369,0v0l-2.493-4.8h.13l2.545-4.9,2.364,4.7-.09.2h.039l-2.493,4.8Zm-86.369,0v0l-2.493-4.8h.13l2.545-4.9L67,57.9l-.09.2h.039L64.46,62.9Zm318.294-5.7h0l-9.273-6.1a.19.19,0,0,0-.135-.075.192.192,0,0,0-.137.075c-.091,0-.183.1-.273.2l-2.909,5.6L367.479,52l6.091-11.8h5.091l-2.818,5.5a.662.662,0,0,0,.09.6l9.364,6v3.5l-2.545,1.4Zm-86.369,0h0l-9.273-6.1a.162.162,0,0,0-.273,0c-.09,0-.183.1-.273.2l-2.909,5.6L281.109,52,287.2,40.2h5.091l-2.818,5.5a.662.662,0,0,0,.09.6l9.364,6v3.5l-2.545,1.4Zm-86.369,0h0l-9.273-6.1a.188.188,0,0,0-.136-.075.192.192,0,0,0-.136.075c-.091,0-.183.1-.273.2l-2.909,5.6L194.74,52l6.091-11.8h5.091L203.1,45.7a.662.662,0,0,0,.09.6l9.364,6v3.5l-2.545,1.4Zm-86.369,0h0l-9.273-6.1a.188.188,0,0,0-.136-.075.192.192,0,0,0-.136.075c-.09,0-.183.1-.273.2l-2.909,5.6L108.371,52l6.091-11.8h5.091l-2.818,5.5a.662.662,0,0,0,.09.6l9.364,6v3.5l-2.545,1.4Zm-86.369,0h0L28,51.1a.188.188,0,0,0-.136-.075.192.192,0,0,0-.136.075c-.091,0-.183.1-.273.2l-2.909,5.6L22,52l6.091-11.8h5.091l-2.818,5.5a.662.662,0,0,0,.09.6l9.364,6v3.5l-2.545,1.4Zm357.3,0h0l-2.727-1.5V52.4l9.273-6a.509.509,0,0,0,.182-.6l-2.909-5.7h5.091l6.091,12-2.454,4.7-3-5.6c-.09-.1-.183-.2-.273-.2a.317.317,0,0,0-.273.1l-9,6.1Zm-86.37,0h0l-2.726-1.5V52.4l9.273-6a.509.509,0,0,0,.182-.6l-2.909-5.7h5.091l6.091,12-2.454,4.7-3-5.6c-.09-.1-.182-.2-.273-.2a.316.316,0,0,0-.273.1l-9,6.1Zm-86.368,0h0l-2.727-1.5V52.4l9.273-6a.509.509,0,0,0,.182-.6l-2.909-5.7h5.091l6.091,12-2.454,4.7-3-5.6c-.09-.1-.182-.2-.273-.2a.317.317,0,0,0-.273.1l-9,6.1Zm-86.369,0h0l-2.727-1.5V52.4l9.273-6a.509.509,0,0,0,.182-.6l-2.909-5.7h5.091l6.091,12-2.454,4.7-3-5.6c-.09-.1-.182-.2-.273-.2a.317.317,0,0,0-.273.1l-9,6.1Zm-86.37,0h0l-2.726-1.5V52.4l9.273-6a.509.509,0,0,0,.182-.6l-2.909-5.7H58l6.091,12-2.454,4.7-3-5.6c-.09-.1-.182-.2-.273-.2a.316.316,0,0,0-.273.1l-9,6.1Zm377.024-.1h0L416.755,51a.473.473,0,0,0-.227-.067.428.428,0,0,0-.319.167l-3.273,5.7-2.455-4.7,6.182-12h4.818l-2.909,5.6a.509.509,0,0,0,.182.6l9.819,6.2v3l-2.454,1.6Zm-86.369,0h0L330.385,51a.473.473,0,0,0-.226-.067.428.428,0,0,0-.319.167l-3.273,5.7-2.455-4.7,6.182-12h4.819L332.2,45.7a.509.509,0,0,0,.182.6l9.819,6.2v3l-2.454,1.6Zm-86.368,0h0L244.016,51a.473.473,0,0,0-.227-.067.428.428,0,0,0-.319.167L240.2,56.8l-2.455-4.7,6.182-12h4.819l-2.909,5.6a.509.509,0,0,0,.182.6l9.819,6.2v3l-2.453,1.6Zm-86.37,0h0L157.647,51a.474.474,0,0,0-.227-.067.428.428,0,0,0-.319.167l-3.273,5.7-2.455-4.7,6.182-12h4.818l-2.909,5.6a.509.509,0,0,0,.182.6l9.819,6.2v3l-2.454,1.6Zm-86.369,0h0L71.277,51a.473.473,0,0,0-.226-.067.428.428,0,0,0-.319.167l-3.273,5.7L65,52.1l6.182-12h4.818L73.1,45.7a.509.509,0,0,0,.182.6L83.1,52.5v3l-2.454,1.6Zm357.023,0h0l-2.817-1.6V52.4l3.274-2.106v6.518l-.456.288Zm-86.369,0h0l-2.817-1.6V52.4l9.637-6.2a.509.509,0,0,0,.182-.6L355.387,40h5l6.182,11.8-2.545,4.9-2.819-5.5a.618.618,0,0,1-.058-.078.214.214,0,0,0-.215-.122h-.363c-.31.2-.788.524-1.393.929l-.044.029c-2.017,1.349-5.394,3.606-7.836,5.141Zm-86.369,0h0l-2.817-1.6V52.4l9.637-6.2a.509.509,0,0,0,.182-.6L269.017,40h5L280.2,51.8l-2.545,4.9-2.819-5.5a.627.627,0,0,1-.058-.078.214.214,0,0,0-.215-.122H274.2c-.31.2-.788.524-1.393.929l-.044.029c-2.02,1.35-5.4,3.607-7.836,5.141Zm-86.369,0h0l-2.818-1.6V52.4l9.637-6.2a.509.509,0,0,0,.182-.6L182.648,40h5l6.182,11.8-2.545,4.9-2.819-5.5a.616.616,0,0,1-.058-.078.214.214,0,0,0-.215-.122h-.363c-.314.207-.8.532-1.416.944l-.021.014c-2.019,1.35-5.4,3.607-7.836,5.141Zm-86.369,0h0L89.37,55.5V52.4l9.637-6.2a.509.509,0,0,0,.182-.6L96.279,40h5l6.182,11.8-2.545,4.9L102.1,51.2a.616.616,0,0,1-.058-.078.214.214,0,0,0-.215-.122h-.363c-.322.213-.839.558-1.437.958-2.021,1.351-5.4,3.608-7.836,5.141Zm-86.369,0h0L3,55.5V52.4l9.637-6.2a.509.509,0,0,0,.182-.6L9.91,40h5l6.182,11.8-2.545,4.9-2.819-5.5a.616.616,0,0,1-.058-.078A.214.214,0,0,0,15.455,51h-.363c-.322.213-.839.558-1.437.958-2.021,1.351-5.4,3.608-7.836,5.141ZM0,53.9V34.8H6.364l2.455,4.8h-6a.409.409,0,0,0-.363.4V52.3L0,53.9Zm388.662-.4h0l-2.546-1.7V39.7a.409.409,0,0,0-.364-.4h-5.727l2.455-4.8h12.182l2.455,4.8H391.48a.415.415,0,0,0-.364.4V51.9l-2.453,1.6Zm-86.369,0h0l-2.545-1.7V39.7a.409.409,0,0,0-.364-.4h-5.727l2.455-4.8h12.182l2.455,4.8h-5.637a.415.415,0,0,0-.364.4V51.9l-2.453,1.6Zm-86.369,0h0l-2.546-1.7V39.7a.409.409,0,0,0-.363-.4h-5.728l2.455-4.8h12.182l2.455,4.8h-5.637a.415.415,0,0,0-.364.4V51.9l-2.453,1.6Zm-86.369,0h0l-2.546-1.7V39.7a.409.409,0,0,0-.364-.4h-5.727l2.455-4.8h12.182l2.455,4.8h-5.637a.415.415,0,0,0-.364.4V51.9l-2.453,1.6Zm-86.369,0h0l-2.546-1.7V39.7a.409.409,0,0,0-.364-.4H34.548L37,34.5H49.185l2.455,4.8H46a.415.415,0,0,0-.364.4V51.9l-2.453,1.6Zm391.753-2V40.1h3.183v9.364L434.939,51.5Zm-6.455,0h0l-9.09-5.7,2.909-5.7h6.182V51.5Zm-79.914,0V40.1h6l2.909,5.7-8.908,5.7Zm-6.455,0h0l-9.09-5.7,2.909-5.7h6.182V51.5Zm-79.915,0V40.1h6l2.909,5.7L262.2,51.5Zm-6.454,0h0l-9.09-5.7,2.909-5.7h6.182V51.5Zm-79.914,0V40.1h6l2.909,5.7-8.908,5.7Zm-6.455,0h0l-9.09-5.7,2.909-5.7h6.182V51.5Zm-79.914,0V40.1h6l2.909,5.7-8.908,5.7Zm-6.455,0h0l-9.09-5.7,2.909-5.7h6.182V51.5Zm-79.915,0V40.1h6L12,45.8,3.092,51.5Zm388.753-.1V40.1h5.637l2.909,5.8-8.544,5.5Zm-86.369,0V40.1h5.637l2.909,5.8-8.544,5.5Zm-86.369,0V40.1h5.637l2.909,5.8-8.544,5.5Zm-86.369,0V40.1h5.637l2.909,5.8-8.544,5.5Zm-86.369,0V40.1H52l2.909,5.8-8.544,5.5Zm363.66-.1v0L404.3,40.1h11.455l-5.726,11.2Zm-24.638,0h0l-8.636-5.6,2.909-5.6h5.728V51.3Zm-61.731,0v0L317.93,40.1h11.455l-5.726,11.2Zm-24.638,0h0l-8.636-5.6,2.909-5.6h5.728V51.3Zm-61.731,0v0L231.56,40.1h11.455l-5.726,11.2Zm-24.638,0h0l-8.636-5.6,2.909-5.6h5.728V51.3Zm-61.731,0v0l-5.727-11.2h11.455L150.92,51.3Zm-24.638,0h0l-8.636-5.6,2.909-5.6h5.728V51.3Zm-61.731,0v0L58.822,40.1H70.277L64.551,51.3Zm-24.638,0h0l-8.636-5.6,2.909-5.6h5.728V51.3Zm327.2-.3v0l-5.726-10.9h11.364L367.116,51Zm-86.369,0v0l-5.726-10.9h11.364L280.746,51Zm-86.369,0v0l-5.726-10.9h11.364L194.377,51Zm-86.369,0v0L102.28,40.1h11.364L108.008,51ZM21.638,51v0L15.911,40.1H27.275L21.639,51ZM416.209,39.3H403.935l-2.454-4.8h5.727a.409.409,0,0,0,.364-.4V21.9l2.182-1.5L412.3,22V34c0,.309.189.5.364.5h6l-2.454,4.8Zm-13.183,0h-5.091l-2.455-4.8h5.091l2.454,4.8Zm-23.82,0h-5.091l2.455-4.8h5.091l-2.455,4.8Zm-6.091,0H360.842L358.3,34.5h5.728a.409.409,0,0,0,.363-.4V22h.091l2.364-1.6,2.728,1.8V34.1a.409.409,0,0,0,.364.4h5.637l-2.455,4.8Zm-13.092,0h-5l-2.454-4.8h4.909l2.545,4.8Zm-30.184,0H317.566l-2.454-4.8h5.727a.409.409,0,0,0,.364-.4V21.9l2.182-1.5L325.93,22V34c0,.309.189.5.364.5h6l-2.454,4.8Zm-13.183,0h-5.091l-2.455-4.8H314.2l2.454,4.8Zm-23.82,0h-5.091l2.455-4.8h5.091l-2.455,4.8Zm-6.091,0H274.473l-2.546-4.8h5.728a.409.409,0,0,0,.363-.4V22h.091l2.364-1.6,2.728,1.8V34.1a.409.409,0,0,0,.364.4H289.2l-2.454,4.8Zm-13.092,0h-5L266.2,34.5h4.91l2.545,4.8Zm-30.184,0H231.2l-2.455-4.8h5.727a.409.409,0,0,0,.364-.4V21.9l2.182-1.5,2.545,1.6V34c0,.309.189.5.364.5h6l-2.455,4.8Zm-13.183,0H225.2l-2.455-4.8h5.091l2.454,4.8Zm-23.82,0h-5.091l2.455-4.8h5.091l-2.455,4.8Zm-6.091,0H188.1l-2.546-4.8h5.728a.409.409,0,0,0,.363-.4V22h.091l2.364-1.6,2.728,1.8V34.1a.409.409,0,0,0,.364.4h5.637l-2.455,4.8Zm-13.092,0h-5l-2.454-4.8h4.909l2.545,4.8Zm-30.184,0H144.827l-2.454-4.8H148.1a.409.409,0,0,0,.364-.4V21.9l2.182-1.5,2.545,1.6V34c0,.309.189.5.364.5h6L157.1,39.3Zm-13.183,0h-5.091l-2.455-4.8h5.091l2.454,4.8Zm-23.82,0h-5.091l2.455-4.8h5.091L120.1,39.3Zm-6.091,0H101.734l-2.546-4.8h5.728a.409.409,0,0,0,.363-.4V22h.091l2.364-1.6,2.728,1.8V34.1a.409.409,0,0,0,.364.4h5.637l-2.455,4.8Zm-13.092,0h-5l-2.454-4.8H98.37l2.545,4.8Zm-30.184,0H58.458L56,34.5h5.727a.409.409,0,0,0,.364-.4V21.9l2.182-1.5L66.822,22V34c0,.309.189.5.364.5h6l-2.454,4.8Zm-13.183,0H52.458L50,34.5h5.091l2.454,4.8Zm-23.82,0H28.638l2.455-4.8h5.091L33.73,39.3Zm-6.091,0H15.365l-2.546-4.8h5.728a.409.409,0,0,0,.363-.4V22H19l2.364-1.6,2.728,1.8V34.1a.409.409,0,0,0,.364.4h5.636l-2.454,4.8Zm-13.092,0h-5L7.091,34.5H12l2.545,4.8Zm407.3-.1h-4.818l2.545-4.7H424.3l-2.455,4.7Zm-86.369,0h-4.818l2.545-4.7h4.727l-2.455,4.7Zm-86.368,0h-4.819l2.545-4.7h4.727l-2.454,4.7Zm-86.37,0H157.92l2.545-4.7h4.727l-2.455,4.7Zm-86.369,0H71.551L74.1,34.5h4.727l-2.455,4.7ZM6,34H0V22.3L6,34Zm394.116-.1h-5.091l-6-11.9,2.364-4.5,2.909,5.3a.554.554,0,0,1,.075.109c.03.053.051.091.108.091h.273l9.546-6,2.364,1.6v3l-9.273,6.2a.537.537,0,0,0-.182.4c0,.1,0,.1.09.2l2.818,5.5Zm-86.369,0h-5.091l-6-11.9,2.364-4.5,2.909,5.3a.552.552,0,0,1,.075.109c.03.053.051.091.108.091h.273l9.546-6,2.364,1.6v3l-9.273,6.2a.537.537,0,0,0-.182.4c0,.1,0,.1.09.2l2.818,5.5Zm-86.369,0h-5.091l-6-11.9,2.364-4.5,2.91,5.3a.555.555,0,0,1,.074.108c.03.053.051.092.108.092h.273l9.546-6,2.364,1.6v3l-9.273,6.2a.537.537,0,0,0-.182.4c0,.1,0,.1.09.2l2.818,5.5Zm-86.369,0h-5.091l-6-11.9,2.364-4.5,2.909,5.3a.555.555,0,0,1,.075.109c.03.053.051.091.108.091h.273l9.546-6,2.364,1.6v3l-9.273,6.2a.537.537,0,0,0-.182.4c0,.1,0,.1.09.2l2.818,5.5Zm-86.369,0H49.549l-6-11.9,2.364-4.5,2.909,5.3a.553.553,0,0,1,.075.109c.03.053.051.091.108.091h.273l9.546-6,2.364,1.6v3l-9.273,6.2a.537.537,0,0,0-.182.4c0,.1,0,.1.09.2l2.818,5.5Zm370.024-.2h-4.818l2.818-5.5a.373.373,0,0,0,.172-.326.343.343,0,0,0-.172-.273l-9.637-6V18.5l2.365-1.6,9.455,6a.325.325,0,0,0,.16.041.861.861,0,0,0,.385-.141l3.092-5.7,2.545,4.3-6.364,12.3Zm-5.546,0h-6V22.6l8.91,5.6-2.909,5.5Zm-12.365,0h-5.728l-2.818-5.5,8.546-5.7V33.7Zm-12.456,0H382.934l5.728-11.1L394.3,33.7Zm-18.273,0h-5.637v-11l8.546,5.5-2.909,5.5Zm-12.273,0h-5.818l-2.91-5.5,8.728-5.7V33.7Zm-6.546,0H352.3l-6.182-12.2,2.182-4.3,2.818,5.6a.628.628,0,0,1,.059.079.213.213,0,0,0,.214.121h.273l9.728-6.3,2.454,1.5v3.3l-9.364,6.1a.39.39,0,0,0-.184.276.378.378,0,0,0,.094.323l2.817,5.5Zm-18.91,0h-4.819l2.818-5.5a.373.373,0,0,0,.172-.326.343.343,0,0,0-.172-.273l-9.637-6V18.5l2.365-1.6,9.455,6a.325.325,0,0,0,.16.041.861.861,0,0,0,.385-.141l3.092-5.7,2.545,4.3L338.3,33.7Zm-5.546,0h-6V22.6l8.91,5.6-2.909,5.5Zm-12.365,0h-5.728l-2.818-5.5,8.546-5.7V33.7Zm-12.456,0H296.565l5.728-11.1,5.635,11.1Zm-18.273,0h-5.637v-11l8.546,5.5-2.909,5.5Zm-12.273,0h-5.819l-2.909-5.5,8.728-5.7V33.7Zm-6.546,0h-4.909l-6.182-12.2,2.181-4.3,2.819,5.6a.625.625,0,0,1,.059.079.213.213,0,0,0,.214.121h.273l9.728-6.3,2.454,1.5v3.3l-9.364,6.1a.39.39,0,0,0-.184.276.377.377,0,0,0,.094.323l2.817,5.5Zm-18.91,0h-4.819l2.819-5.5a.373.373,0,0,0,.171-.325.344.344,0,0,0-.171-.274l-9.637-6V18.5l2.364-1.6,9.455,6a.325.325,0,0,0,.16.041.86.86,0,0,0,.385-.141l3.092-5.7,2.545,4.3-6.364,12.3Zm-5.546,0h-6V22.6l8.91,5.6-2.909,5.5Zm-12.365,0h-5.728l-2.818-5.5,8.546-5.7V33.7Zm-12.455,0H210.2l5.728-11.1,5.636,11.1Zm-18.274,0h-5.637v-11l8.546,5.5-2.909,5.5Zm-12.273,0h-5.818l-2.91-5.5,8.728-5.7V33.7Zm-6.546,0h-4.909l-6.182-12.2,2.182-4.3,2.818,5.6a.621.621,0,0,1,.059.079.213.213,0,0,0,.214.121h.273l9.728-6.3,2.454,1.5v3.3l-9.364,6.1a.389.389,0,0,0-.184.276.379.379,0,0,0,.093.324l2.817,5.5Zm-18.91,0h-4.818l2.818-5.5a.373.373,0,0,0,.172-.326.343.343,0,0,0-.172-.273l-9.637-6V18.5l2.365-1.6,9.455,6a.326.326,0,0,0,.16.041.861.861,0,0,0,.385-.141l3.092-5.7,2.545,4.3-6.364,12.3Zm-5.546,0h-6V22.6l8.91,5.6-2.909,5.5Zm-12.365,0h-5.728L139.1,28.2l8.546-5.7V33.7Zm-12.456,0H123.826l5.728-11.1,5.635,11.1Zm-18.273,0H111.28v-11l8.546,5.5-2.909,5.5Zm-12.273,0H98.825l-2.91-5.5,8.728-5.7V33.7Zm-6.546,0H93.188L87.006,21.5l2.182-4.3,2.818,5.6a.627.627,0,0,1,.059.079.213.213,0,0,0,.214.121h.273l9.728-6.3,2.454,1.5v3.3l-9.364,6.1a.39.39,0,0,0-.184.276.377.377,0,0,0,.094.323L98.1,33.7Zm-18.91,0H74.369l2.818-5.5a.373.373,0,0,0,.172-.326.343.343,0,0,0-.172-.273l-9.637-6V18.5l2.365-1.6,9.455,6a.325.325,0,0,0,.16.041.861.861,0,0,0,.385-.141l3.092-5.7,2.545,4.3L79.187,33.7Zm-5.546,0h-6V22.6l8.91,5.6-2.909,5.5Zm-12.365,0H55.549l-2.818-5.5,8.546-5.7V33.7Zm-12.456,0H37.457l5.728-11.1L48.82,33.7Zm-18.273,0H24.911v-11l8.546,5.5-2.909,5.5Zm-12.273,0H12.455L9.546,28.2l8.728-5.7V33.7Zm-6.546,0H6.819L.637,21.5l2.181-4.3,2.819,5.6a.627.627,0,0,1,.059.079A.213.213,0,0,0,5.91,23h.273l9.728-6.3,2.454,1.5v3.3L9,27.6a.39.39,0,0,0-.184.276.377.377,0,0,0,.094.323l2.817,5.5Zm370.206-.1h-5.091l2.818-5.5a.194.194,0,0,0,.1-.18.391.391,0,0,0-.19-.32l-9.274-6V18.1l2.546-1.5,9.637,5.9a.333.333,0,0,0,.16.039.432.432,0,0,0,.385-.239l2.727-5.3,2.365,4.7-6.182,11.9Zm-86.369,0h-5.091l2.818-5.5a.194.194,0,0,0,.1-.18.391.391,0,0,0-.19-.32l-9.274-6V18.1l2.546-1.5,9.637,5.9a.333.333,0,0,0,.16.039.432.432,0,0,0,.385-.239l2.727-5.3,2.364,4.7-6.182,11.9Zm-86.369,0H204.1l2.818-5.5a.194.194,0,0,0,.1-.18.391.391,0,0,0-.19-.32l-9.274-6V18.1l2.546-1.5,9.637,5.9a.333.333,0,0,0,.16.039.432.432,0,0,0,.385-.239l2.728-5.3,2.364,4.7L209.2,33.6Zm-86.369,0h-5.091l2.818-5.5a.194.194,0,0,0,.1-.18.391.391,0,0,0-.19-.32l-9.274-6V18.1l2.546-1.5,9.637,5.9a.333.333,0,0,0,.16.039.432.432,0,0,0,.385-.239l2.727-5.3,2.365,4.7-6.182,11.9Zm-86.369,0H31.366l2.818-5.5a.194.194,0,0,0,.1-.18.391.391,0,0,0-.19-.32l-9.274-6V18.1l2.546-1.5L37,22.5a.333.333,0,0,0,.16.039.432.432,0,0,0,.385-.239L40.275,17l2.365,4.7L36.457,33.6Zm401.661-.979L432.483,21.5l2.182-4.3,2.818,5.6a.625.625,0,0,1,.059.079.213.213,0,0,0,.214.121h.273l.092-.06v9.681ZM437.937,22h0l-2.909-5.7,2.909-5.6.183.112V21.881l-.182.118Zm-13,0h0l-8.818-5.6,8.546-5.7,3.364,5.7-3.09,5.6Zm-30.093,0h0l-2.909-5.7,2.909-5.7,8.82,5.8L394.844,22Zm-43.275,0h0l-2.909-5.7,2.909-5.6,9,5.5-9,5.8Zm-13,0h0l-8.818-5.6,8.546-5.7,3.363,5.7-3.09,5.6Zm-30.093,0h0l-2.909-5.7,2.909-5.7,8.819,5.8L308.475,22ZM265.2,22h0l-2.909-5.7,2.909-5.6,9,5.5-9,5.8Zm-13,0h0l-8.818-5.6,8.546-5.7,3.363,5.7L252.2,22Zm-30.092,0h0l-2.91-5.7,2.91-5.7,8.819,5.8L222.107,22ZM178.83,22h0l-2.909-5.7,2.909-5.6,9,5.5-9,5.8Zm-13,0h0l-8.818-5.6,8.546-5.7,3.364,5.7L165.83,22Zm-30.093,0h0l-2.909-5.7,2.909-5.7,8.82,5.8L135.737,22ZM92.46,22h0l-2.909-5.7,2.909-5.6,9,5.5-9,5.8Zm-13,0h0l-8.818-5.6,8.546-5.7,3.363,5.7L79.46,22ZM49.367,22h0l-2.909-5.7,2.909-5.7,8.819,5.8L49.367,22ZM6.091,22h0L3.182,16.3l2.909-5.6,9,5.5-9,5.8Zm376.57-.4h0l-8.909-5.5,8.91-5.5,2.818,5.5-2.817,5.5Zm-86.369,0h0l-8.909-5.5,8.91-5.5,2.818,5.5-2.817,5.5Zm-86.369,0h0l-8.909-5.5,8.91-5.5,2.819,5.5-2.818,5.5Zm-86.369,0h0l-8.909-5.5,8.91-5.5,2.818,5.5-2.817,5.5Zm-86.369,0h0l-8.909-5.5,8.91-5.5L40,16.1l-2.817,5.5Zm332.385-.3h0l-2.545-1.6a.244.244,0,0,0-.182-.075.247.247,0,0,0-.181.075l-2.182,1.4V17.9a.542.542,0,0,0-.181-.4l-2.274-1.4,2.273-1.4a.542.542,0,0,0,.182-.4V11.5l2.182,1.4a.257.257,0,0,0,.363,0l2.546-1.6v3.1a.539.539,0,0,0,.18.4l2.274,1.4-2.273,1.4a.547.547,0,0,0-.182.4v3.3Zm-86.369,0h0l-2.545-1.6a.244.244,0,0,0-.182-.075.247.247,0,0,0-.181.075l-2.182,1.4V17.9a.543.543,0,0,0-.181-.4l-2.274-1.4,2.273-1.4a.542.542,0,0,0,.182-.4V11.5l2.182,1.4a.257.257,0,0,0,.363,0l2.546-1.6v3.1a.539.539,0,0,0,.18.4l2.275,1.4-2.273,1.4a.548.548,0,0,0-.182.4v3.3Zm-86.369,0h0l-2.544-1.6a.259.259,0,0,0-.364,0l-2.182,1.4V17.9a.543.543,0,0,0-.181-.4l-2.273-1.4,2.273-1.4a.542.542,0,0,0,.182-.4V11.5l2.182,1.4a.258.258,0,0,0,.364,0l2.545-1.6v3.1a.539.539,0,0,0,.18.4l2.275,1.4-2.273,1.4a.548.548,0,0,0-.182.4v3.3Zm-86.369,0h0l-2.545-1.6a.258.258,0,0,0-.363,0l-2.182,1.4V17.9a.542.542,0,0,0-.181-.4l-2.273-1.4,2.273-1.4a.542.542,0,0,0,.182-.4V11.5l2.182,1.4a.257.257,0,0,0,.363,0l2.546-1.6v3.1a.539.539,0,0,0,.18.4l2.275,1.4-2.273,1.4a.547.547,0,0,0-.182.4v3.3Zm-86.369,0h0l-2.545-1.6a.247.247,0,0,0-.182-.075.244.244,0,0,0-.182.075L19,21.1V17.9a.543.543,0,0,0-.181-.4l-2.274-1.4,2.273-1.4A.542.542,0,0,0,19,14.3V11.5l2.182,1.4a.257.257,0,0,0,.363,0l2.546-1.6v3.1a.539.539,0,0,0,.18.4l2.275,1.4-2.273,1.4a.548.548,0,0,0-.182.4v3.3ZM0,21.3H0V12l2.364,4.7Zm412.3-.1h0l-2.362-1.5a.259.259,0,0,0-.364,0l-2,1.3V18.3a.786.786,0,0,0-.182-.4l-2.182-1.4,2.182-1.4a.543.543,0,0,0,.182-.4V11.5l2.364,1.6a.257.257,0,0,0,.364,0l2-1.3v2.8a.794.794,0,0,0,.181.4l2.182,1.4-2.182,1.5a.543.543,0,0,0-.181.4v2.9Zm-86.369,0h0l-2.362-1.5a.259.259,0,0,0-.364,0l-2,1.3V18.3a.781.781,0,0,0-.182-.4l-2.181-1.4,2.181-1.4a.539.539,0,0,0,.182-.4V11.5l2.364,1.6a.257.257,0,0,0,.364,0l2-1.3v2.8a.794.794,0,0,0,.182.4l2.182,1.4-2.182,1.5a.542.542,0,0,0-.182.4v2.9Zm-86.369,0h0L237.2,19.7a.259.259,0,0,0-.364,0l-2,1.3V18.3a.786.786,0,0,0-.182-.4l-2.182-1.4,2.182-1.4a.543.543,0,0,0,.182-.4V11.5l2.364,1.6a.257.257,0,0,0,.364,0l2-1.3v2.8a.788.788,0,0,0,.182.4l2.181,1.4-2.181,1.5a.538.538,0,0,0-.182.4v2.9Zm-86.369,0h0l-2.362-1.5a.259.259,0,0,0-.364,0l-2,1.3V18.3a.786.786,0,0,0-.182-.4L146.1,16.5l2.182-1.4a.543.543,0,0,0,.182-.4V11.5l2.364,1.6a.257.257,0,0,0,.364,0l2-1.3v2.8a.794.794,0,0,0,.182.4l2.182,1.4-2.182,1.5a.542.542,0,0,0-.182.4v2.9Zm-86.369,0h0l-2.362-1.5a.259.259,0,0,0-.364,0l-2,1.3V18.3a.781.781,0,0,0-.182-.4l-2.181-1.4,2.181-1.4a.539.539,0,0,0,.182-.4V11.5l2.364,1.6a.257.257,0,0,0,.364,0l2-1.3v2.8A.793.793,0,0,0,67,15l2.182,1.4L67,17.9a.543.543,0,0,0-.182.4v2.9Zm321.84-.4v0L386.3,16.1l2.273-4.5,2.455,4.7-2.363,4.5Zm-86.369,0v0l-2.364-4.7,2.273-4.5,2.455,4.7-2.363,4.5Zm-86.369,0v0l-2.364-4.7,2.273-4.5,2.455,4.7-2.363,4.5Zm-86.369,0v0l-2.364-4.7,2.273-4.5,2.455,4.7-2.363,4.5Zm-86.369,0v0l-2.364-4.7,2.273-4.5,2.455,4.7-2.363,4.5ZM404.48,16h0l-9.545-6.2a.162.162,0,0,0-.273,0c-.09,0-.182.1-.27.2l-2.912,5.6-2.455-4.7L394.6,0H399.6l-2.3,4.4a.742.742,0,0,0,.273.6l9.274,6.1v3.4L404.481,16Zm-86.369,0h0l-9.545-6.2a.162.162,0,0,0-.273,0c-.091,0-.182.1-.27.2l-2.912,5.6-2.455-4.7L308.235,0h4.991l-2.3,4.4a.742.742,0,0,0,.273.6l9.274,6.1v3.4L318.112,16Zm-86.369,0h0L222.2,9.8a.186.186,0,0,0-.136-.075.188.188,0,0,0-.136.075c-.091,0-.183.1-.273.2l-2.909,5.6-2.455-4.7L221.867,0h4.99l-2.3,4.4a.742.742,0,0,0,.273.6l9.274,6.1v3.4L231.742,16Zm-86.369,0h0l-9.545-6.2a.162.162,0,0,0-.273,0c-.091,0-.182.1-.27.2l-2.912,5.6-2.455-4.7L135.5,0h4.991l-2.3,4.4a.742.742,0,0,0,.273.6l9.274,6.1v3.4L145.373,16ZM59,16h0L49.458,9.8a.162.162,0,0,0-.273,0c-.091,0-.182.1-.27.2L46,15.6l-2.455-4.7L49.127,0h4.991l-2.3,4.4a.742.742,0,0,0,.273.6l9.274,6.1v3.4L59,16Zm356.387-.1h0l-2.364-1.5V11.3l9.637-6.4a.389.389,0,0,0,.185-.276.379.379,0,0,0-.093-.324L420.511,0h4.829l5.688,10.7-2.545,4.7-3.364-5.5a.352.352,0,0,0-.312-.209.312.312,0,0,0-.233.109l-9.181,6.1Zm-86.369,0h0l-2.364-1.5V11.3l9.637-6.4a.389.389,0,0,0,.185-.276.378.378,0,0,0-.093-.324L334.141,0h4.829l5.688,10.7-2.545,4.7-3.364-5.5a.352.352,0,0,0-.312-.209.312.312,0,0,0-.233.109l-9.181,6.1Zm-86.369,0h0l-2.363-1.5V11.3l9.637-6.4a.39.39,0,0,0,.184-.277.377.377,0,0,0-.094-.323L247.772,0H252.6l5.688,10.7-2.545,4.7L252.38,9.9a.352.352,0,0,0-.312-.209.312.312,0,0,0-.233.109l-9.181,6.1Zm-86.369,0h0l-2.364-1.5V11.3l9.637-6.4a.389.389,0,0,0,.185-.276.378.378,0,0,0-.093-.324L161.4,0h4.829l5.688,10.7-2.545,4.7-3.364-5.5a.352.352,0,0,0-.312-.209.312.312,0,0,0-.233.109l-9.181,6.1Zm-86.369,0h0l-2.364-1.5V11.3l9.637-6.4a.389.389,0,0,0,.185-.276.378.378,0,0,0-.093-.324L75.034,0h4.829l5.688,10.7-2.545,4.7L79.641,9.9a.352.352,0,0,0-.312-.209A.312.312,0,0,0,79.1,9.8l-9.181,6.1ZM361.3,15.7h0l-9.728-6a.331.331,0,0,0-.16-.04.432.432,0,0,0-.386.239l-2.909,5.6L345.841,11l5.75-11h4.985L354.2,4.4a.5.5,0,0,0,.182.6l9.364,6v3.1L361.3,15.7Zm-86.369,0h0l-9.728-6a.331.331,0,0,0-.16-.04.432.432,0,0,0-.386.239l-2.909,5.6L259.472,11l5.75-11h4.984l-2.37,4.4a.5.5,0,0,0,.182.6l9.364,6v3.1l-2.454,1.6Zm-86.369,0h0l-9.728-6a.328.328,0,0,0-.161-.04.431.431,0,0,0-.385.239l-2.909,5.6L173.1,11l5.75-11h4.985l-2.371,4.4a.5.5,0,0,0,.182.6l9.364,6v3.1l-2.454,1.6Zm-86.369,0h0l-9.728-6a.328.328,0,0,0-.161-.04.431.431,0,0,0-.385.239l-2.909,5.6L86.733,11l5.75-11h4.985L95.1,4.4a.5.5,0,0,0,.182.6l9.364,6v3.1l-2.454,1.6Zm-86.369,0h0l-9.728-6a.328.328,0,0,0-.161-.04.431.431,0,0,0-.385.239L2.636,15.5.364,11,5.412,1.344A11.55,11.55,0,0,1,10.845,0H11.1L8.727,4.4A.5.5,0,0,0,8.91,5l9.364,6v3.1L15.82,15.7Zm357.114,0h0l-2.545-1.5V10.9l9.183-5.8a.709.709,0,0,0,.182-.7l-2.3-4.4h5.081l5.58,10.9-2.273,4.5L383.115,10a.43.43,0,0,0-.385-.239.335.335,0,0,0-.161.039l-9.637,5.9Zm-86.369,0h0l-2.545-1.5V10.9L293.2,5.1a.709.709,0,0,0,.182-.7l-2.3-4.4h5.081l5.58,10.9-2.273,4.5L296.746,10a.43.43,0,0,0-.385-.239.336.336,0,0,0-.161.039l-9.636,5.9Zm-86.369,0h0l-2.545-1.5V10.9l9.183-5.8a.709.709,0,0,0,.182-.7l-2.3-4.4H209.8l5.58,10.9L213.1,15.4,210.377,10a.43.43,0,0,0-.385-.239.335.335,0,0,0-.161.039l-9.637,5.9Zm-86.369,0h0l-2.545-1.5V10.9l9.183-5.8a.709.709,0,0,0,.182-.7l-2.3-4.4h5.081l5.58,10.9-2.273,4.5L124.008,10a.43.43,0,0,0-.385-.239.335.335,0,0,0-.161.039l-9.636,5.9Zm-86.369,0h0l-2.545-1.5V10.9l9.183-5.8a.709.709,0,0,0,.182-.7L31.978,0h5.081l5.58,10.9-2.273,4.5L37.639,10a.43.43,0,0,0-.385-.239.335.335,0,0,0-.161.039l-9.636,5.9Zm407.027-.2v0L432.21,11,435.9,3.938a9.438,9.438,0,0,1,2.217,5.874l-.181-.112a.331.331,0,0,0-.16-.04.432.432,0,0,0-.386.239l-2.908,5.6Zm-24.365-3.2h0l-2.545-1.7V0H412.3V10.9l-2.182,1.4Zm-86.369,0h0L321.2,10.6V0h4.727V10.9l-2.182,1.4Zm-86.369,0h0l-2.545-1.7V0h4.727V10.9l-2.182,1.4Zm-86.369,0h0l-2.545-1.7V0h4.727V10.9l-2.181,1.4Zm-86.369,0h0L62.1,10.6V0h4.727V10.9l-2.181,1.4Zm302.293-.2h0l-2.363-1.5V0h5.091V10.4l-2.727,1.7Zm-86.369,0h0L278.2,10.6V0h5.091V10.4l-2.727,1.7Zm-86.369,0h0l-2.363-1.5V0h5.091V10.4L194.2,12.1Zm-86.369,0h0l-2.363-1.5V0h5.091V10.4l-2.727,1.7Zm-86.369,0h0l-2.363-1.5V0h5.091V10.4l-2.727,1.7ZM0,10.6H0V10A9.812,9.812,0,0,1,4.585,1.834Zm413.024-.2V0h6.6l2.306,4.5-8.908,5.9Zm-86.369,0V0h6.6l2.306,4.5-8.908,5.9Zm-86.368,0V0h6.6L249.2,4.5l-8.907,5.9Zm-86.37,0V0h6.6l2.306,4.5-8.908,5.9Zm-86.369,0V0h6.6l2.306,4.5-8.908,5.9Zm339.2-.3h0l-8.545-5.6L400.513,0h6.24V10.1Zm-86.369,0h0l-8.544-5.6L314.144,0h6.24V10.1Zm-86.369,0h0l-8.544-5.6L227.775,0h6.24V10.1Zm-86.369,0h0L139.1,4.5,141.406,0h6.24V10.1Zm-86.369,0h0L52.731,4.5,55.037,0h6.24V10.1ZM388.571,10v0L383.446,0h10.331l-5.206,10Zm-24.82,0h0l-8.727-5.6L357.351,0h6.4V10ZM302.2,10v0L297.077,0h10.331L302.2,10Zm-24.82,0h0l-8.727-5.6L270.981,0h6.4V10Zm-61.55,0v0L210.708,0H221.04l-5.206,10Zm-24.82,0h0l-8.727-5.6L184.612,0h6.4V10Zm-61.55,0v0L124.339,0H134.67l-5.206,10Zm-24.82,0h0L95.915,4.4,98.243,0h6.4V10Zm-61.55,0v0L37.969,0H48.3L43.095,10Zm-24.82,0h0L9.546,4.4,11.873,0h6.4V10Zm352.114-.1V0h6.149l2.306,4.5-8.453,5.4Zm-86.369,0V0h6.149l2.306,4.5L284.02,9.9Zm-86.369,0V0H203.8L206.1,4.5l-8.453,5.4Zm-86.369,0V0h6.149l2.306,4.5-8.453,5.4Zm-86.369,0V0H31.06l2.306,4.5L24.912,9.9Z" transform="translate(3.194)" opacity="0.2" fill="url(#a)"/></g></svg>