<svg xmlns="http://www.w3.org/2000/svg" xmlns:xlink="http://www.w3.org/1999/xlink" width="224" height="59" viewBox="0 0 224 59"><defs><linearGradient id="a" x1="0.026" y1="0.5" x2="0.976" y2="0.464" gradientUnits="objectBoundingBox"><stop offset="0" stop-color="#a2a2a2"/><stop offset="1" stop-color="#fff" stop-opacity="0"/></linearGradient><clipPath id="b"><rect width="224" height="59" rx="4" transform="translate(455 458)" fill="url(#a)"/></clipPath></defs><g transform="translate(-455 -458)" clip-path="url(#b)"><g transform="translate(452.64 429.616)"><g transform="translate(0 0)"><path d="M202.271,127.532l.077-.155-2-3.607-2.147,3.762h-.691l.077-.155L194.981,123,188,127.377l.23.155H187l-2.455-1.229a.393.393,0,0,1-.153-.306v-2.379l-1.919,1.074a.233.233,0,0,1-.308,0l-1.994-1.15v2.531a.4.4,0,0,1-.153.308l-2.38,1.152h-1.227l.306-.155L169.506,123l-2.532,4.528h-.614v-.155l-2.226-3.835-2.225,3.99H161.3v-.155L158.84,123c-1.535,1-5.065,3.069-7.52,4.528h-.769l-2.532-1.229a.4.4,0,0,1-.153-.306V123.77l-1.841,1.074-.23.077v-.614l2.072-1.228v-9.438a.331.331,0,0,1,.308-.308h5.065l-2.074-3.682h-5.371v-.614h5.065l-5.065-8.978v-.768l2-3.53-2-3.607V91.083l4.987-8.672h-4.987V81.8h5.371l2.074-3.682h-5.065a.332.332,0,0,1-.308-.308V68.369l-2.072-1.228V66.45l.308.077,1.764,1v-2.3a.4.4,0,0,1,.153-.306l2.45-1.114-2.45-1.188a.405.405,0,0,1-.153-.308V60.083l-1.841,1.074-.23.076v-.614l2.072-1.227V49.953a.329.329,0,0,1,.308-.306h5.065l-2.074-3.684h-5.371v-.614h5.065l-5.065-8.978V35.6l2-3.531-2-3.605V27.394l4.987-8.672h-4.987v-.614h5.371l2.074-3.683h-5.065a.332.332,0,0,1-.308-.308V4.68l-2.072-1.227V2.761l.308.077,1.764,1v-2.3a.4.4,0,0,1,.153-.306L150.552.076h1.229l-.308.23,7.29,4.451L161.218.383l-.383-.23h1.074l2.225,3.913,2.3-3.913h.536l2.532,4.6L176.718.306l-.383-.23h1.3l2.3,1.152a.393.393,0,0,1,.153.306V4.066l2-1.227a.231.231,0,0,1,.306,0l1.841,1.152V1.458a.4.4,0,0,1,.155-.308l1.994-.92L185.85,0h2.378l-.383.23,7.136,4.449,2.532-4.6h.536l2.149,3.76,2.149-3.76h.767l-.076.23L205.8,4.757,213.167.306l-.306-.23h2.072l-.461.23,1.919,1.3c.076,0,.153.153.153.23V3.913l1.766-1c.076-.077.076-.077.153-.077h.153v.844l-.23-.153L216.466,4.6v9.208a.329.329,0,0,1-.306.306h-5.14l2.147,3.684h5.448v.614H213.55l4.912,8.44.153-.306v1.994l-.23-.383-2.148,3.607,2.148,3.3.23-.306v1.994l-.23-.383L213.4,45.119h5.218v.614h-5.524l-2.072,3.607h5.14a.329.329,0,0,1,.306.308v9.437l1.919,1.152.155-.077v.768h-.155c-.076,0-.076-.077-.153-.077l-1.766-1V62a.4.4,0,0,1-.153.308l-1.994,1.227.153.153h-1.688l.383-.229-7.289-4.145-2.866,4.451h.1l-.076.23,2.761,4.451L213.167,64l-.306-.23h2.072l-.461.23,1.919,1.3c.076,0,.153.153.153.23V67.6l1.766-1c.076-.077.076-.077.153-.077h.153v.844l-.23-.153-1.919,1.073V77.5a.33.33,0,0,1-.306.308h-5.14l2.147,3.682h5.448V82.1H213.55l4.912,8.441.153-.306v1.994l-.23-.383-2.148,3.607,2.148,3.3.23-.308v2l-.23-.383-4.988,8.747h5.218v.614h-5.524l-2.072,3.607h5.14a.329.329,0,0,1,.306.306v9.438l1.919,1.152.155-.077v.767h-.155c-.076,0-.076-.076-.153-.076l-1.766-1v2.147a.4.4,0,0,1-.153.308l-1.994,1.227.153.153h-1.688l.383-.23L205.877,123l-2.916,4.528Zm-9.361-9.438a.366.366,0,0,1-.153.459l-7.828,4.6v2.532l2.3,1.152,7.6-4.681a.279.279,0,0,1,.23-.077c.076,0,.153.077.23.155l2.532,4.3,2.072-3.605-5.142-9.21h-4.3Zm-23.481,4.066,7.827,4.681,2.149-1.074v-2.685l-7.9-4.6a.473.473,0,0,1-.076-.461L173.8,113.8h-4.3l-5.142,9.055,2.149,3.76,2.455-4.3c.077-.076.155-.153.23-.153a.167.167,0,0,1,.116-.058A.163.163,0,0,1,169.429,122.159Zm36.526-.077,7.9,4.681,2.072-1.228v-2.3l-8.286-4.757a.37.37,0,0,1-.155-.461l2.457-4.3h-4.068l-5.218,9.21,2.072,3.605,2.763-4.374a.376.376,0,0,1,.27-.127A.435.435,0,0,1,205.955,122.082Zm-49.341-4.143a.369.369,0,0,1-.153.461l-8.134,4.757v2.379l2.38,1.228c2.685-1.534,6.675-3.99,7.826-4.681h.308c.153,0,.153.077.23.155l2.378,4.221,2.149-3.76-5.218-9.055h-4.22Zm18.341-4.834h4.834a.331.331,0,0,1,.306.308V122.7l2.149,1.3,2.072-1.227v-9.361a.331.331,0,0,1,.308-.308h4.757l-2.072-3.682H177.026Zm33.225,4.989,7.673,4.374v-8.749h-5.218ZM148.4,122.467l7.52-4.374-2.457-4.375H148.4Zm36.524-.077,7.214-4.221-2.457-4.451h-4.757Zm15.347-.077,4.834-8.594h-9.669Zm-28.085-4.3,7.29,4.3v-8.594h-4.835Zm-8.134,4.066,4.757-8.364h-9.591Zm31.076-8.978h10.36l2.072-3.682H202.5a.35.35,0,0,1-.306-.383V99.831L200.046,98.6l-1.841,1.15v9.361a.331.331,0,0,1-.308.308h-4.834Zm-5.063,0h4.3l-2.072-3.682H188Zm-20.1,0h4.3l2.072-3.682h-4.3Zm-11.2,0h10.36l2.072-3.682h-4.757a.33.33,0,0,1-.308-.308V99.984l-2.3-1.381-1.994,1.228h-.077v9.284a.33.33,0,0,1-.308.308h-4.835Zm-4.91,0h4.219l-2.147-3.682h-4.143Zm52.332-.076h4.066l2.072-3.607h-3.99Zm-23.634-13.2,5.063,9.131h4.3l-2.38-4.221c-.076-.076-.076-.076-.076-.153a.393.393,0,0,1,.153-.306l7.826-4.759v-2.3l-1.994-1.227-8.058,4.6h-.229c-.077,0-.077-.076-.155-.153l-2.455-4.068Zm20.257-2.685v2.378l8.134,4.6a.255.255,0,0,1,0,.461l-2.379,4.221h4.068L218,99.37l-2.149-3.3-2.608,4.374a.51.51,0,0,1-.461.077l-7.98-4.6Zm.076,11.663h5.065l2.455-4.221-7.52-4.3ZM190.3,104.588l2.379,4.221h4.835v-8.594Zm-12.891,4.221H187l-4.757-8.517Zm-10.588,0h4.757l2.455-4.221-7.212-4.221Zm-12.968-4.221,2.455,4.221h4.91v-8.594Zm-7.52-5.141,5.218,9.361h4.143l-2.379-4.221a.29.29,0,0,1,.077-.461l7.9-4.68V96.915l-2.072-1.152-8.211,4.834h-.23c-.153,0-.153-.076-.23-.153l-2.378-4.3Zm20.41-2.61v2.685l7.828,4.6c.153.077.23.308.076.383l-2.378,4.221h4.3l5.218-9.131-1.994-3.607-2.3,4.068a.37.37,0,0,1-.461.153l-8.134-4.527Zm38.674-1.3,7.444,4.3,2.608-4.3-2.838-4.374Zm-20.41-.076,2.455,4.374,7.442-4.3-7.442-4.449Zm-36.526,0,2.457,4.374,7.6-4.451-7.6-4.221Zm21.179-.155,7.52,4.221,2.379-4.221-2.379-4.219Zm-5.678,2.763,2.149,1.228V96.76a.4.4,0,0,1,.153-.306l1.919-1.074L166.283,94.3a.4.4,0,0,1-.153-.306V91.619l-2.149,1.228a.231.231,0,0,1-.306,0l-1.841-1.075v2.149a.4.4,0,0,1-.155.308L159.76,95.3l1.919,1.074a.4.4,0,0,1,.155.308v2.455l1.841-1.075a.235.235,0,0,1,.306,0Zm36.218,0,2,1.152V96.99a.393.393,0,0,1,.153-.306l1.841-1.152-1.841-1.074a.568.568,0,0,1-.153-.306V92l-1.688,1a.233.233,0,0,1-.308,0L198.2,91.772v2.457a.4.4,0,0,1-.155.306l-1.841,1.074,1.841,1.075a.578.578,0,0,1,.155.306v2.072l1.688-1a.235.235,0,0,1,.306,0ZM180.249,95.3l1.994,3.607,1.994-3.452-2.072-3.607Zm7.289-4.833,8.056,4.757,2-1.152V91.467l-7.828-4.681a.549.549,0,0,1-.23-.461l2.38-4.143h-4.221l-5.14,9.131,2.072,3.607,2.455-4.3c.077-.077.153-.153.23-.153a.162.162,0,0,1,.114-.058A.167.167,0,0,1,187.539,90.469Zm23.481-4.221a.288.288,0,0,1-.077.459l-8.134,4.912V94l1.994,1.15,7.75-4.68a.289.289,0,0,1,.461.076l2.838,4.221L218,91.159,212.706,82.1H208.64Zm-36.3.076a.51.51,0,0,1-.153.538l-7.75,4.449v2.532L168.968,95l8.135-4.527a.367.367,0,0,1,.459.153l2.3,4.143,1.919-3.454-5.14-9.131h-4.3Zm-23.787,4.068,8.209,4.6,2.072-1.227V91.389l-7.9-4.6a.369.369,0,0,1-.153-.461l2.455-4.143H151.4L146.1,91.389l1.917,3.454,2.457-4.3a.368.368,0,0,1,.324-.183A.3.3,0,0,1,150.937,90.392Zm42.126-8.825H197.9a.331.331,0,0,1,.308.308v9.208l2.147,1.3,1.843-1.075V81.875a.271.271,0,0,1,.306-.308h5.065l-2.072-3.683h-10.36Zm-36.371,0h4.834a.281.281,0,0,1,.23.077c.077.076.077.153.153.23v9.208l2,1.15,2.3-1.305V81.875a.329.329,0,0,1,.306-.308h4.757L169.2,77.885H158.84Zm46.118,9.361,7.52-4.527-2.379-4.221h-5.14ZM190.3,86.4l7.214,4.3V82.181h-4.835Zm-8.134,4.221L187,82.181h-9.592Zm-28.313-4.3,7.365,4.3V82.1h-4.91Zm12.968,4.221,7.136-4.143-2.379-4.221h-4.757Zm41.589-8.978h4.068l-2.149-3.683h-4.067Zm-20.335,0H192.3l2.072-3.683h-4.22Zm-11.049,0h10.358l2.073-3.683h-4.834a.331.331,0,0,1-.308-.308V68.447l-2.072-1.305-2.149,1.305v9.131a.331.331,0,0,1-.306.308h-4.834Zm-5.065,0h4.3l-2.073-3.683h-4.3Zm-20.1,0H156l2.149-3.683h-4.22Zm56.322-8.594,2.455,4.3h5.218V68.677Zm-7.52-4.834,5.218,9.132h4.068l-2.457-4.221c-.076-.077-.076-.077-.076-.155V72.82c0-.153.076-.153.153-.23l8.287-4.681v-2.3l-2.072-1.381-7.9,4.757a.29.29,0,0,1-.46-.076l-2.763-4.375Zm-5.218,9.132h9.669l-4.834-8.519Zm-10.513,0h4.834l2.455-4.3-7.29-4.143Zm-25.705,0h9.591l-4.757-8.364Zm-10.9-9.439,8.134,4.757c.153.153.23.306.153.461l-2.378,4.221h4.221l5.218-8.979-2.149-3.76-2.455,4.375c-.077.076-.155.153-.23.153a.145.145,0,0,1-.23,0l-7.827-4.834L148.4,65.3h-.077Zm.077,9.439h5.063l2.457-4.3L148.4,68.6ZM184.929,65.3v2.685l7.828,4.527a.37.37,0,0,1,.153.461l-2.379,4.221h4.221l5.142-9.131-2-3.531-2.378,4.375c-.077.076-.155.153-.23.153a.145.145,0,0,1-.23,0l-7.828-4.834Zm-12.815,7.6,2.457,4.3h4.91V68.752Zm-7.826-4.68,5.14,8.978h4.3l-2.379-4.221a.37.37,0,0,1,.153-.461l7.9-4.527V65.3l-2.149-1.075-7.827,4.834h-.23c-.076,0-.153-.077-.23-.153l-2.531-4.451Zm5.218.23L176.718,64l-.255-.153h-.051l.028-.014-.105-.063h.23l.153-.077-7.212-4.374-2.532,4.528Zm-17.725-4.681-.308.23,7.29,4.451,2.455-4.374-.383-.23h.461v-.155l-2.455-4.374c-1.508.981-4.942,3-7.389,4.451Zm36.063.153,7.136,4.451,2.532-4.6h.039l.039-.077-2.61-4.374L188,63.688h.23l-.122.073.122.082h-.258Zm-7.9,1a.393.393,0,0,1,.153.306v2.532l2-1.228a.231.231,0,0,1,.306,0l1.841,1.15V65.147a.4.4,0,0,1,.155-.308l1.994-.921-.536-.23h.841l-2.146-1.073a.4.4,0,0,1-.153-.308V59.928L182.474,61a.233.233,0,0,1-.308,0l-1.994-1.15v2.532a.4.4,0,0,1-.153.306l-2.3,1.114Zm-15.808,2.838,2.3-3.913h-.077v-.155l-2.226-3.836-2.225,3.99Zm36.065-.23,2.105-3.682h-.033l.077-.155-2-3.605-2.147,3.76h-.111ZM192.909,54.4a.369.369,0,0,1-.153.461l-7.828,4.6V62l2.3,1.152,7.6-4.681a.283.283,0,0,1,.23-.076c.076,0,.153.076.23.153l2.532,4.3,2.072-3.605-5.142-9.208h-4.3ZM169.429,58.47l7.827,4.681,2.149-1.075V59.391l-7.9-4.6a.474.474,0,0,1-.076-.461l2.378-4.221h-4.3l-5.142,9.055,2.149,3.76,2.455-4.3c.077-.077.155-.155.23-.155a.168.168,0,0,1,.116-.057A.165.165,0,0,1,169.429,58.47Zm36.526-.076,7.9,4.68,2.072-1.227v-2.3l-8.286-4.757a.37.37,0,0,1-.155-.461l2.457-4.3h-4.068l-5.218,9.208,2.072,3.605,2.763-4.374a.375.375,0,0,1,.269-.127A.432.432,0,0,1,205.955,58.394Zm-49.341-4.143a.367.367,0,0,1-.153.459l-8.134,4.759v2.378l2.38,1.227c2.685-1.533,6.675-3.99,7.826-4.68h.308c.153,0,.153.076.23.153l2.378,4.221,2.149-3.76-5.218-9.055h-4.22Zm18.341-4.834h4.834a.329.329,0,0,1,.306.306v9.286l2.149,1.3,2.072-1.229V49.723a.329.329,0,0,1,.308-.306h4.757l-2.072-3.684H177.026ZM208.179,54.4l7.673,4.374V50.03h-5.218ZM148.4,58.778l7.52-4.374-2.457-4.374H148.4Zm36.524-.077,7.214-4.221-2.457-4.449h-4.757Zm15.347-.076,4.834-8.594h-9.669Zm-28.085-4.3,7.29,4.3V50.03h-4.835Zm-8.134,4.068,4.757-8.364h-9.591Zm31.076-8.978h10.36l2.072-3.684H202.5a.35.35,0,0,1-.306-.383V36.141l-2.149-1.227-1.841,1.15v9.363a.331.331,0,0,1-.308.306h-4.834Zm-5.063,0h4.3L192.3,45.732H188Zm-20.1,0h4.3l2.072-3.684h-4.3Zm-11.2,0h10.36l2.072-3.684h-4.757a.329.329,0,0,1-.308-.306V36.294l-2.3-1.38-1.994,1.227h-.077v9.285a.329.329,0,0,1-.308.306h-4.835Zm-4.91,0h4.219l-2.147-3.684h-4.143Zm52.332-.077h4.066l2.072-3.607h-3.99Zm-23.634-13.2,5.063,9.131h4.3l-2.38-4.219c-.076-.077-.076-.077-.076-.155a.393.393,0,0,1,.153-.306l7.826-4.759v-2.3L195.442,32.3l-8.058,4.6h-.229c-.077,0-.077-.076-.155-.153l-2.455-4.068Zm20.257-2.685v2.378l8.134,4.6a.255.255,0,0,1,0,.461l-2.379,4.221h4.068L218,35.68l-2.149-3.3-2.608,4.374a.51.51,0,0,1-.461.077l-7.98-4.6Zm.076,11.663h5.065L210.4,40.9l-7.52-4.3ZM190.3,40.9l2.379,4.221h4.835V36.524Zm-12.891,4.221H187L182.243,36.6Zm-10.588,0h4.757l2.455-4.221-7.212-4.221ZM153.853,40.9l2.455,4.221h4.91V36.524Zm-7.52-5.141,5.218,9.361h4.143L153.315,40.9a.29.29,0,0,1,.077-.461l7.9-4.68V33.225l-2.072-1.152-8.211,4.834h-.23c-.153,0-.153-.076-.23-.153l-2.378-4.3Zm20.41-2.61v2.685l7.828,4.6c.153.077.23.308.076.385l-2.378,4.219h4.3l5.218-9.131L179.789,32.3l-2.3,4.068a.37.37,0,0,1-.461.153L168.892,32Zm38.674-1.3,7.444,4.3,2.608-4.3-2.838-4.375Zm-20.41-.077,2.455,4.374,7.442-4.3-7.442-4.451Zm-36.526,0,2.457,4.374,7.6-4.451-7.6-4.221Zm21.179-.153,7.52,4.219,2.379-4.219-2.379-4.221Zm-5.678,2.761,2.149,1.229V33.072a.4.4,0,0,1,.153-.308L168.2,31.69l-1.919-1.074a.4.4,0,0,1-.153-.306V27.93l-2.149,1.227a.231.231,0,0,1-.306,0l-1.841-1.074v2.149a.4.4,0,0,1-.155.308l-1.919,1.075,1.919,1.073a.4.4,0,0,1,.155.308V35.45l1.841-1.075a.235.235,0,0,1,.306,0Zm36.218,0,2,1.152V33.3a.4.4,0,0,1,.153-.308l1.841-1.15-1.841-1.074a.579.579,0,0,1-.153-.308V28.313l-1.688,1a.238.238,0,0,1-.308,0L198.2,28.083V30.54a.4.4,0,0,1-.155.306l-1.841,1.075,1.841,1.074a.583.583,0,0,1,.155.308v2.072l1.688-1a.235.235,0,0,1,.306,0Zm-19.949-2.761,1.994,3.605,1.994-3.452-2.072-3.607Zm7.289-4.834,8.056,4.757,2-1.152V27.777L189.763,23.1a.546.546,0,0,1-.23-.461l2.38-4.143h-4.221l-5.14,9.132,2.072,3.605,2.455-4.3c.077-.077.153-.153.23-.153a.162.162,0,0,1,.114-.058A.167.167,0,0,1,187.539,26.78Zm23.481-4.221a.29.29,0,0,1-.077.461l-8.134,4.91V30.31l1.994,1.15,7.75-4.68a.289.289,0,0,1,.461.076l2.838,4.221L218,27.469l-5.295-9.053H208.64Zm-36.3.076a.509.509,0,0,1-.153.538l-7.75,4.451v2.532l2.147,1.15L177.1,26.78a.367.367,0,0,1,.459.153l2.3,4.143,1.919-3.452-5.14-9.132h-4.3ZM150.937,26.7l8.209,4.6,2.072-1.227V27.7l-7.9-4.6a.368.368,0,0,1-.153-.461l2.455-4.143H151.4L146.1,27.7l1.917,3.454,2.457-4.3a.369.369,0,0,1,.324-.183A.306.306,0,0,1,150.937,26.7Zm42.126-8.825H197.9a.331.331,0,0,1,.308.308v9.208l2.147,1.305,1.843-1.075V18.186a.271.271,0,0,1,.306-.308h5.065L205.494,14.2h-10.36Zm-36.371,0h4.834a.281.281,0,0,1,.23.077c.077.076.077.153.153.23v9.208l2,1.15,2.3-1.3V18.186a.329.329,0,0,1,.306-.308h4.757L169.2,14.2H158.84Zm46.118,9.363,7.52-4.528-2.379-4.221h-5.14ZM190.3,22.712l7.214,4.3V18.492h-4.835Zm-8.134,4.221L187,18.492h-9.592Zm-28.313-4.3,7.365,4.3V18.416h-4.91Zm12.968,4.221,7.136-4.143-2.379-4.221h-4.757Zm41.589-8.978h4.068L210.328,14.2h-4.067Zm-20.335,0H192.3l2.072-3.682h-4.22Zm-11.049,0h10.358l2.073-3.682h-4.834a.33.33,0,0,1-.308-.308V4.757l-2.072-1.3-2.149,1.3v9.131a.33.33,0,0,1-.306.308h-4.834Zm-5.065,0h4.3L174.186,14.2h-4.3Zm-20.1,0H156l2.149-3.682h-4.22Zm56.322-8.594,2.455,4.3h5.218V4.988Zm-7.52-4.834,5.218,9.132h4.068l-2.457-4.221c-.076-.077-.076-.077-.076-.153V9.131c0-.153.076-.153.153-.23l8.287-4.681v-2.3L213.781.536l-7.9,4.757a.289.289,0,0,1-.46-.076L202.654.844Zm-5.218,9.132h9.669l-4.834-8.519Zm-10.513,0h4.834l2.455-4.3-7.29-4.143Zm-25.705,0h9.591l-4.757-8.364Zm-10.9-9.438L156.461,8.9c.153.153.23.308.153.461l-2.378,4.221h4.221L163.675,4.6,161.525.844,159.07,5.218c-.077.076-.155.153-.23.153a.143.143,0,0,1-.23,0L150.782.536,148.4,1.611h-.077Zm.077,9.438h5.063l2.457-4.3L148.4,4.834ZM184.929,1.611V4.3l7.828,4.527a.369.369,0,0,1,.153.461L190.53,13.5h4.221l5.142-9.131-2-3.529-2.378,4.374c-.077.076-.155.153-.23.153a.143.143,0,0,1-.23,0L187.231.536Zm-12.815,7.6,2.457,4.3h4.91V5.063Zm-7.673-4.6,4.988,8.9h4.3l-2.379-4.221a.369.369,0,0,1,.153-.461L179.4,4.3V1.611L177.256.536l-7.827,4.834h-.23c-.076,0-.153-.077-.23-.153L166.59.844ZM129.373,127.532l.078-.155-1.994-3.607-2.149,3.762h-.691l.077-.155L122.084,123l-6.982,4.374.229.155H114.1l-2.455-1.229a.393.393,0,0,1-.153-.306v-2.379l-1.919,1.074a.233.233,0,0,1-.308,0l-1.994-1.15v2.531a.4.4,0,0,1-.153.308l-2.379,1.152h-1.227l.306-.155L96.609,123l-2.532,4.528h-.614v-.155l-2.225-3.835-2.226,3.99H88.4v-.155L85.943,123c-1.535,1-5.065,3.069-7.52,4.528h-.769L75.124,126.3a.4.4,0,0,1-.155-.306V123.77l-1.841,1.074-.23.077v-.614l2.072-1.228v-9.438a.332.332,0,0,1,.308-.308h5.064l-2.072-3.682H72.9v-.614h5.065L72.9,100.061v-.768l2-3.53-2-3.607V91.083l4.987-8.672H72.9V81.8H78.27l2.072-3.682H75.277a.333.333,0,0,1-.308-.308V68.369L72.9,67.142V66.45l.308.077,1.764,1v-2.3a.4.4,0,0,1,.155-.306L77.572,63.8l-2.449-1.188a.4.4,0,0,1-.155-.308V60.083l-1.841,1.074-.23.076v-.614l2.072-1.227V49.953a.331.331,0,0,1,.308-.306h5.064L78.27,45.963H72.9v-.614h5.065L72.9,36.371V35.6l2-3.531-2-3.605V27.394l4.987-8.672H72.9v-.614H78.27l2.072-3.683H75.277a.332.332,0,0,1-.308-.308V4.68L72.9,3.452V2.761l.308.077,1.764,1v-2.3a.4.4,0,0,1,.155-.306L77.655.076h1.229l-.308.23,7.289,4.451L88.322.383l-.385-.23h1.075l2.226,3.913L93.54.153h.536l2.532,4.6L103.821.306l-.384-.23h1.305l2.3,1.152a.393.393,0,0,1,.153.306V4.066l2-1.227a.231.231,0,0,1,.306,0l1.843,1.152V1.458a.4.4,0,0,1,.153-.308l1.994-.92L112.953,0h2.38l-.385.23,7.137,4.449,2.532-4.6h.538l2.147,3.76L129.45.076h.767l-.076.23L132.9,4.757,140.269.306l-.306-.23h2.072l-.461.23,1.919,1.3c.077,0,.153.153.153.23V3.913l1.766-1c.077-.077.077-.077.153-.077h.153v.844l-.229-.153L143.57,4.6v9.208a.331.331,0,0,1-.308.306h-5.14l2.147,3.684h5.448v.614h-5.063l4.91,8.44.153-.306v1.994l-.229-.383-2.149,3.607,2.149,3.3.229-.306v1.994l-.229-.383L140.5,45.119h5.218v.614h-5.524l-2.072,3.607h5.14a.331.331,0,0,1,.308.308v9.437l1.919,1.152.153-.077v.768h-.153c-.077,0-.077-.077-.155-.077l-1.764-1V62a.4.4,0,0,1-.155.308l-1.994,1.227.153.153h-1.688l.383-.229-7.289-4.145-2.866,4.451h.1l-.076.23,2.763,4.451L140.269,64l-.306-.23h2.072l-.461.23,1.919,1.3c.077,0,.153.153.153.23V67.6l1.766-1c.077-.077.077-.077.153-.077h.153v.844l-.229-.153-1.919,1.073V77.5a.331.331,0,0,1-.308.308h-5.14l2.147,3.682h5.448V82.1h-5.063l4.91,8.441.153-.306v1.994l-.229-.383-2.149,3.607,2.149,3.3.229-.308v2l-.229-.383-4.989,8.747h5.218v.614h-5.524l-2.072,3.607h5.14a.331.331,0,0,1,.308.306v9.438l1.919,1.152.153-.077v.767h-.153c-.077,0-.077-.076-.155-.076l-1.764-1v2.147a.4.4,0,0,1-.155.308l-1.994,1.227.153.153h-1.688l.383-.23L132.98,123l-2.916,4.528Zm-9.361-9.438a.367.367,0,0,1-.153.459l-7.827,4.6v2.532l2.3,1.152,7.6-4.681a.281.281,0,0,1,.23-.077c.076,0,.153.077.23.155l2.532,4.3L127,122.928l-5.142-9.21h-4.3Zm-23.481,4.066,7.828,4.681,2.149-1.074v-2.685l-7.9-4.6a.474.474,0,0,1-.076-.461L100.9,113.8h-4.3l-5.14,9.055,2.147,3.76,2.457-4.3c.076-.076.153-.153.229-.153a.167.167,0,0,1,.116-.058A.163.163,0,0,1,96.531,122.159Zm36.526-.077,7.9,4.681,2.072-1.228v-2.3l-8.287-4.757a.37.37,0,0,1-.155-.461l2.457-4.3H132.98l-5.218,9.21,2.072,3.605,2.763-4.374a.377.377,0,0,1,.27-.127A.429.429,0,0,1,133.057,122.082Zm-49.339-4.143a.37.37,0,0,1-.155.461l-8.134,4.757v2.379l2.379,1.228c2.686-1.534,6.676-3.99,7.826-4.681h.308c.153,0,.153.077.23.155l2.378,4.221L90.7,122.7l-5.218-9.055H81.261Zm18.339-4.834h4.834a.331.331,0,0,1,.306.308V122.7l2.149,1.3,2.072-1.227v-9.361a.331.331,0,0,1,.308-.308h4.757l-2.072-3.682H104.128Zm33.225,4.989,7.674,4.374v-8.749h-5.22Zm-59.775,4.374,7.52-4.374-2.455-4.375H75.507Zm36.524-.077,7.214-4.221-2.455-4.451h-4.759Zm15.347-.077,4.834-8.594h-9.669Zm-28.085-4.3,7.289,4.3v-8.594h-4.835Zm-8.134,4.066,4.757-8.364H86.326Zm31.076-8.978H132.6l2.072-3.682H129.6a.35.35,0,0,1-.306-.383V99.831L127.149,98.6l-1.841,1.15v9.361a.329.329,0,0,1-.308.308h-4.834Zm-5.063,0h4.3l-2.072-3.682h-4.3Zm-20.1,0h4.3l2.072-3.682h-4.3Zm-11.2,0h10.36l2.072-3.682H93.54a.33.33,0,0,1-.308-.308V99.984L90.93,98.6l-1.994,1.228h-.077v9.284a.33.33,0,0,1-.308.308H83.718Zm-4.91,0h4.221l-2.149-3.682H78.884Zm52.332-.076h4.066l2.074-3.607h-3.992Zm-23.634-13.2,5.063,9.131h4.3l-2.38-4.221c-.076-.076-.076-.076-.076-.153a.393.393,0,0,1,.153-.306l7.827-4.759v-2.3l-2-1.227-8.056,4.6h-.23c-.077,0-.077-.076-.155-.153l-2.455-4.068Zm20.257-2.685v2.378l8.134,4.6a.255.255,0,0,1,0,.461l-2.379,4.221h4.067L145.1,99.37l-2.147-3.3-2.61,4.374a.51.51,0,0,1-.461.077l-7.981-4.6Zm.076,11.663h5.065l2.457-4.221-7.522-4.3ZM117.4,104.588l2.378,4.221h4.835v-8.594Zm-12.892,4.221H114.1l-4.757-8.517Zm-10.589,0H98.68l2.455-4.221-7.212-4.221Zm-12.968-4.221,2.455,4.221h4.912v-8.594Zm-7.52-5.141,5.218,9.361H82.8l-2.379-4.221a.29.29,0,0,1,.077-.461l7.9-4.68V96.915l-2.072-1.152L78.115,100.6h-.23c-.153,0-.153-.076-.23-.153l-2.378-4.3Zm20.41-2.61v2.685l7.827,4.6c.153.077.23.308.076.383l-2.378,4.221h4.3l5.218-9.131-1.994-3.607-2.3,4.068a.369.369,0,0,1-.461.153l-8.134-4.527Zm38.673-1.3,7.444,4.3,2.608-4.3-2.838-4.374Zm-20.41-.076,2.455,4.374,7.444-4.3-7.444-4.449Zm-36.526,0,2.457,4.374,7.6-4.451-7.6-4.221ZM96.762,95.3l7.52,4.221,2.38-4.221-2.38-4.219Zm-5.679,2.763,2.149,1.228V96.76a.4.4,0,0,1,.153-.306L95.3,95.379,93.385,94.3A.4.4,0,0,1,93.232,94V91.619l-2.149,1.228a.231.231,0,0,1-.306,0l-1.841-1.075v2.149a.4.4,0,0,1-.155.308L86.862,95.3l1.919,1.074a.4.4,0,0,1,.155.308v2.455l1.841-1.075a.235.235,0,0,1,.306,0Zm36.218,0,2,1.152V96.99a.393.393,0,0,1,.153-.306l1.841-1.152-1.841-1.074a.566.566,0,0,1-.153-.306V92l-1.688,1a.233.233,0,0,1-.308,0l-1.994-1.228v2.457a.4.4,0,0,1-.153.306l-1.843,1.074,1.843,1.075a.586.586,0,0,1,.153.306v2.072l1.688-1a.235.235,0,0,1,.306,0ZM107.352,95.3l1.994,3.607,2-3.452-2.074-3.607Zm7.289-4.833,8.056,4.757,2-1.152V91.467l-7.827-4.681a.549.549,0,0,1-.23-.461l2.38-4.143h-4.221l-5.14,9.131,2.072,3.607,2.455-4.3c.077-.077.153-.153.23-.153a.143.143,0,0,1,.23,0Zm23.481-4.221a.288.288,0,0,1-.077.459l-8.134,4.912V94l1.994,1.15,7.75-4.68a.289.289,0,0,1,.461.076l2.84,4.221,2.147-3.607L139.81,82.1h-4.068Zm-36.3.076a.51.51,0,0,1-.153.538l-7.75,4.449v2.532L96.072,95l8.134-4.527a.367.367,0,0,1,.459.153l2.3,4.143,1.919-3.454-5.14-9.131h-4.3ZM78.039,90.392,86.249,95l2.073-1.227V91.389l-7.9-4.6a.369.369,0,0,1-.153-.461l2.455-4.143H78.5l-5.294,9.208,1.919,3.454,2.455-4.3a.368.368,0,0,1,.324-.183A.3.3,0,0,1,78.039,90.392Zm42.126-8.825H125a.329.329,0,0,1,.308.308v9.208l2.149,1.3,1.841-1.075V81.875a.271.271,0,0,1,.306-.308h5.065L132.6,77.885H122.238Zm-36.371,0h4.834a.281.281,0,0,1,.23.077c.077.076.077.153.153.23v9.208l2,1.15,2.3-1.305V81.875a.329.329,0,0,1,.306-.308h4.759L96.3,77.885H85.943Zm46.117,9.361,7.52-4.527-2.379-4.221h-5.14ZM117.4,86.4l7.212,4.3V82.181h-4.835Zm-8.135,4.221,4.834-8.441h-9.591Zm-28.313-4.3,7.367,4.3V82.1H83.41Zm12.968,4.221L101.06,86.4,98.68,82.181H93.923Zm41.589-8.978h4.068l-2.149-3.683h-4.067Zm-20.335,0H119.4l2.072-3.683h-4.221Zm-11.049,0h10.36l2.072-3.683h-4.834a.331.331,0,0,1-.308-.308V68.447l-2.072-1.305L107.2,68.447v9.131a.331.331,0,0,1-.306.308h-4.834Zm-5.065,0h4.3l-2.072-3.683h-4.3Zm-20.1,0H83.1l2.149-3.683H81.031Zm56.323-8.594,2.455,4.3h5.22V68.677Zm-7.52-4.834,5.218,9.132h4.068l-2.457-4.221c-.076-.077-.076-.077-.076-.155V72.82c0-.153.076-.153.153-.23l8.288-4.681v-2.3l-2.072-1.381-7.905,4.757a.29.29,0,0,1-.461-.076l-2.761-4.375Zm-5.218,9.132h9.669l-4.834-8.519Zm-10.513,0h4.834l2.455-4.3-7.289-4.143Zm-25.705,0h9.591l-4.757-8.364Zm-10.9-9.439,8.134,4.757c.155.153.23.306.155.461l-2.379,4.221h4.22l5.218-8.979-2.149-3.76-2.455,4.375c-.077.076-.153.153-.23.153a.145.145,0,0,1-.23,0l-7.828-4.834L75.507,65.3H75.43Zm.077,9.439h5.065l2.455-4.3L75.507,68.6ZM112.031,65.3v2.685l7.827,4.527a.37.37,0,0,1,.153.461l-2.379,4.221h4.22L127,68.063l-2-3.531-2.378,4.375c-.077.076-.155.153-.23.153a.145.145,0,0,1-.23,0l-7.827-4.834ZM99.217,72.9l2.457,4.3h4.91V68.752Zm-7.826-4.68,5.14,8.978h4.3L98.45,72.973a.372.372,0,0,1,.153-.461l7.9-4.527V65.3l-2.149-1.075L96.531,69.06H96.3c-.076,0-.153-.077-.229-.153L93.54,64.456Zm5.218.23L103.821,64l-.255-.153h-.051l.028-.014-.106-.063h.23l.153-.077-7.212-4.374-2.532,4.528ZM78.884,63.765l-.308.23,7.289,4.451,2.457-4.374-.385-.23H88.4v-.155l-2.455-4.374c-1.508.981-4.942,3-7.389,4.451Zm36.064.153,7.137,4.451,2.532-4.6h.039l.039-.077-2.61-4.374L115.1,63.688h.23l-.122.073.121.082h-.257Zm-7.9,1a.393.393,0,0,1,.153.306v2.532l2-1.228a.231.231,0,0,1,.306,0l1.843,1.15V65.147a.4.4,0,0,1,.153-.308l1.994-.921-.536-.23h.841l-2.146-1.073a.4.4,0,0,1-.153-.308V59.928L109.576,61a.234.234,0,0,1-.308,0l-1.994-1.15v2.532a.4.4,0,0,1-.153.306l-2.3,1.114ZM91.238,67.755l2.3-3.913h-.077v-.155l-2.225-3.836-2.226,3.99Zm36.064-.23,2.1-3.682h-.033l.078-.155-1.994-3.605-2.149,3.76H125.2ZM120.012,54.4a.369.369,0,0,1-.153.461l-7.827,4.6V62l2.3,1.152,7.6-4.681a.285.285,0,0,1,.23-.076c.076,0,.153.076.23.153l2.532,4.3L127,59.239l-5.142-9.208h-4.3ZM96.531,58.47l7.828,4.681,2.149-1.075V59.391l-7.9-4.6a.474.474,0,0,1-.076-.461l2.378-4.221h-4.3l-5.14,9.055,2.147,3.76,2.457-4.3c.076-.077.153-.155.229-.155a.169.169,0,0,1,.116-.057A.165.165,0,0,1,96.531,58.47Zm36.526-.076,7.9,4.68,2.072-1.227v-2.3l-8.287-4.757a.37.37,0,0,1-.155-.461l2.457-4.3H132.98l-5.218,9.208,2.072,3.605L132.6,58.47a.376.376,0,0,1,.269-.127A.424.424,0,0,1,133.057,58.394ZM83.718,54.251a.367.367,0,0,1-.155.459L75.43,59.469v2.378l2.379,1.227c2.686-1.533,6.676-3.99,7.826-4.68h.308c.153,0,.153.076.23.153l2.378,4.221,2.149-3.76-5.218-9.055H81.261Zm18.339-4.834h4.834a.329.329,0,0,1,.306.306v9.286l2.149,1.3,2.072-1.229V49.723a.329.329,0,0,1,.308-.306h4.757l-2.072-3.684H104.128ZM135.282,54.4l7.674,4.374V50.03h-5.22ZM75.507,58.778l7.52-4.374L80.572,50.03H75.507Zm36.524-.077,7.214-4.221L116.79,50.03h-4.759Zm15.347-.076,4.834-8.594h-9.669Zm-28.085-4.3,7.289,4.3V50.03h-4.835Zm-8.134,4.068,4.757-8.364H86.326Zm31.076-8.978H132.6l2.072-3.684H129.6a.35.35,0,0,1-.306-.383V36.141l-2.149-1.227-1.841,1.15v9.363a.329.329,0,0,1-.308.306h-4.834Zm-5.063,0h4.3L119.4,45.732h-4.3Zm-20.1,0h4.3l2.072-3.684h-4.3Zm-11.2,0h10.36L98.3,45.732H93.54a.329.329,0,0,1-.308-.306V36.294l-2.3-1.38-1.994,1.227h-.077v9.285a.329.329,0,0,1-.308.306H83.718Zm-4.91,0h4.221l-2.149-3.684H78.884Zm52.332-.077h4.066l2.074-3.607h-3.992Zm-23.634-13.2,5.063,9.131h4.3l-2.38-4.219c-.076-.077-.076-.077-.076-.155a.393.393,0,0,1,.153-.306l7.827-4.759v-2.3l-2-1.227-8.056,4.6h-.23c-.077,0-.077-.076-.155-.153l-2.455-4.068Zm20.257-2.685v2.378l8.134,4.6a.255.255,0,0,1,0,.461l-2.379,4.221h4.067L145.1,35.68l-2.147-3.3-2.61,4.374a.51.51,0,0,1-.461.077l-7.981-4.6Zm.076,11.663h5.065l2.457-4.221-7.522-4.3ZM117.4,40.9l2.378,4.221h4.835V36.524Zm-12.892,4.221H114.1L109.346,36.6Zm-10.589,0H98.68l2.455-4.221-7.212-4.221ZM80.955,40.9l2.455,4.221h4.912V36.524Zm-7.52-5.141,5.218,9.361H82.8L80.417,40.9a.29.29,0,0,1,.077-.461l7.9-4.68V33.225l-2.072-1.152-8.211,4.834h-.23c-.153,0-.153-.076-.23-.153l-2.378-4.3Zm20.41-2.61v2.685l7.827,4.6c.153.077.23.308.076.385l-2.378,4.219h4.3l5.218-9.131L106.891,32.3l-2.3,4.068a.37.37,0,0,1-.461.153L95.995,32Zm38.673-1.3,7.444,4.3,2.608-4.3-2.838-4.375Zm-20.41-.077,2.455,4.374,7.444-4.3-7.444-4.451Zm-36.526,0,2.457,4.374,7.6-4.451-7.6-4.221Zm21.179-.153,7.52,4.219,2.38-4.219-2.38-4.221Zm-5.679,2.761L93.232,35.6V33.072a.4.4,0,0,1,.153-.308L95.3,31.69l-1.919-1.074a.4.4,0,0,1-.153-.306V27.93l-2.149,1.227a.231.231,0,0,1-.306,0l-1.841-1.074v2.149a.4.4,0,0,1-.155.308l-1.919,1.075,1.919,1.073a.4.4,0,0,1,.155.308V35.45l1.841-1.075a.235.235,0,0,1,.306,0Zm36.218,0,2,1.152V33.3a.4.4,0,0,1,.153-.308l1.841-1.15L129.45,30.77a.577.577,0,0,1-.153-.308V28.313l-1.688,1a.237.237,0,0,1-.308,0l-1.994-1.229V30.54a.4.4,0,0,1-.153.306l-1.843,1.075,1.843,1.074a.591.591,0,0,1,.153.308v2.072l1.688-1a.235.235,0,0,1,.306,0Zm-19.95-2.761,1.994,3.605,2-3.452-2.074-3.607Zm7.289-4.834,8.056,4.757,2-1.152V27.777L116.866,23.1a.546.546,0,0,1-.23-.461l2.38-4.143h-4.221l-5.14,9.132,2.072,3.605,2.455-4.3c.077-.077.153-.153.23-.153a.143.143,0,0,1,.23,0Zm23.481-4.221a.29.29,0,0,1-.077.461l-8.134,4.91V30.31l1.994,1.15,7.75-4.68a.289.289,0,0,1,.461.076l2.84,4.221,2.147-3.607-5.293-9.053h-4.068Zm-36.3.076a.509.509,0,0,1-.153.538l-7.75,4.451v2.532l2.149,1.15,8.134-4.527a.367.367,0,0,1,.459.153l2.3,4.143,1.919-3.452-5.14-9.132h-4.3ZM78.039,26.7l8.209,4.6,2.073-1.227V27.7l-7.9-4.6a.368.368,0,0,1-.153-.461l2.455-4.143H78.5L73.205,27.7l1.919,3.454,2.455-4.3a.369.369,0,0,1,.324-.183A.305.305,0,0,1,78.039,26.7Zm42.126-8.825H125a.329.329,0,0,1,.308.308v9.208l2.149,1.305,1.841-1.075V18.186a.271.271,0,0,1,.306-.308h5.065L132.6,14.2H122.238Zm-36.371,0h4.834a.281.281,0,0,1,.23.077c.077.076.077.153.153.23v9.208l2,1.15,2.3-1.3V18.186a.329.329,0,0,1,.306-.308h4.759L96.3,14.2H85.943Zm46.117,9.363,7.52-4.528-2.379-4.221h-5.14ZM117.4,22.712l7.212,4.3V18.492h-4.835Zm-8.135,4.221,4.834-8.441h-9.591Zm-28.313-4.3,7.367,4.3V18.416H83.41Zm12.968,4.221,7.136-4.143L98.68,18.492H93.923Zm41.589-8.978h4.068L137.431,14.2h-4.067Zm-20.335,0H119.4L121.47,14.2h-4.221Zm-11.049,0h10.36L116.56,14.2h-4.834a.329.329,0,0,1-.308-.308V4.757l-2.072-1.3-2.149,1.3v9.131a.329.329,0,0,1-.306.308h-4.834Zm-5.065,0h4.3L101.29,14.2h-4.3Zm-20.1,0H83.1L85.252,14.2H81.031Zm56.323-8.594,2.455,4.3h5.22V4.988Zm-7.52-4.834,5.218,9.132h4.068l-2.457-4.221c-.076-.077-.076-.077-.076-.153V9.131c0-.153.076-.153.153-.23l8.288-4.681v-2.3L140.885.536,132.98,5.293a.289.289,0,0,1-.461-.076L129.758.844Zm-5.218,9.132h9.669l-4.834-8.519Zm-10.513,0h4.834l2.455-4.3-7.289-4.143Zm-25.705,0h9.591L91.161,5.218ZM75.43,4.143,83.563,8.9c.155.153.23.308.155.461l-2.379,4.221h4.22L90.777,4.6,88.628.844,86.173,5.218c-.077.076-.153.153-.23.153a.143.143,0,0,1-.23,0L77.885.536,75.507,1.611H75.43Zm.077,9.438h5.065l2.455-4.3-7.52-4.449ZM112.031,1.611V4.3l7.827,4.527a.369.369,0,0,1,.153.461L117.633,13.5h4.22L127,4.374,125,.844l-2.378,4.374c-.077.076-.155.153-.23.153a.143.143,0,0,1-.23,0L114.333.536Zm-12.815,7.6,2.457,4.3h4.91V5.063ZM91.544,4.6l4.987,8.9h4.3L98.45,9.284a.371.371,0,0,1,.153-.461l7.9-4.527V1.611L104.359.536,96.531,5.371H96.3c-.076,0-.153-.077-.229-.153L93.693.844ZM56.477,127.532l.076-.155-1.994-3.607-2.149,3.762h-.691l.077-.155L49.186,123,42.2,127.377l.23.155H41.207L38.751,126.3A.4.4,0,0,1,38.6,126v-2.379l-1.919,1.074a.23.23,0,0,1-.306,0l-2-1.15v2.531a.4.4,0,0,1-.153.308l-2.379,1.152H30.617l.308-.155L23.711,123l-2.532,4.528h-.614v-.155l-2.225-3.835-2.226,3.99H15.5v-.155L13.045,123c-1.535,1-5.065,3.069-7.52,4.528H4.759L2.226,126.3A.393.393,0,0,1,2.073,126V123.77L.23,124.845l-.23.077v-.614l2.073-1.228v-9.438a.331.331,0,0,1,.306-.308H7.444l-2.072-3.682H0v-.614H5.065L0,100.061v-.768l2-3.53L0,92.156V91.083l4.989-8.672H0V81.8H5.372l2.072-3.682H2.379a.331.331,0,0,1-.306-.308V68.369L0,67.142V66.45l.308.077,1.765,1v-2.3a.393.393,0,0,1,.153-.306L4.676,63.8l-2.45-1.188a.4.4,0,0,1-.153-.308V60.083L.23,61.157,0,61.233v-.614l2.073-1.227V49.953a.329.329,0,0,1,.306-.306H7.444L5.372,45.963H0v-.614H5.065L0,36.371V35.6l2-3.531L0,28.468V27.394l4.989-8.672H0v-.614H5.372l2.072-3.683H2.379a.331.331,0,0,1-.306-.308V4.68L0,3.452V2.761l.308.077,1.765,1v-2.3a.393.393,0,0,1,.153-.306L4.759.076H5.986l-.308.23,7.289,4.451L15.425.383l-.384-.23h1.073L18.34,4.066l2.3-3.913h.536l2.532,4.6L30.925.306l-.383-.23h1.3l2.3,1.152a.394.394,0,0,1,.155.306V4.066L36.3,2.838a.233.233,0,0,1,.308,0L38.445,3.99V1.458A.4.4,0,0,1,38.6,1.15l2-.92L40.055,0h2.38l-.384.23L49.186,4.68l2.532-4.6h.538l2.149,3.76L56.553.076h.769l-.077.23,2.763,4.451L67.373.306l-.308-.23h2.072l-.461.23,1.919,1.3c.077,0,.153.153.153.23V3.913l1.766-1c.077-.077.077-.077.153-.077h.155v.844l-.23-.153L70.673,4.6v9.208a.329.329,0,0,1-.308.306h-5.14L67.373,17.8h5.448v.614H67.757l4.91,8.44.155-.306v1.994l-.23-.383-2.149,3.607,2.149,3.3.23-.306v1.994l-.23-.383L67.6,45.119h5.219v.614H67.3l-2.072,3.607h5.14a.33.33,0,0,1,.308.308v9.437l1.919,1.152.153-.077v.768h-.153c-.077,0-.077-.077-.155-.077l-1.764-1V62a.4.4,0,0,1-.153.308l-2,1.227.153.153H66.989l.385-.229-7.291-4.145-2.866,4.451h.105l-.077.23,2.763,4.451L67.373,64l-.308-.23h2.072l-.461.23L70.6,65.3c.077,0,.153.153.153.23V67.6l1.766-1c.077-.077.077-.077.153-.077h.155v.844l-.23-.153-1.919,1.073V77.5a.33.33,0,0,1-.308.308h-5.14l2.149,3.682h5.448V82.1H67.757l4.91,8.441.155-.306v1.994l-.23-.383-2.149,3.607,2.149,3.3.23-.308v2l-.23-.383L67.6,108.808h5.219v.614H67.3l-2.072,3.607h5.14a.329.329,0,0,1,.308.306v9.438l1.919,1.152.153-.077v.767h-.153c-.077,0-.077-.076-.155-.076l-1.764-1v2.147a.4.4,0,0,1-.153.308l-2,1.227.153.153H66.989l.385-.23L60.082,123l-2.916,4.528Zm-9.363-9.438a.367.367,0,0,1-.153.459l-7.827,4.6v2.532l2.3,1.152,7.6-4.681a.281.281,0,0,1,.23-.077c.077,0,.153.077.23.155l2.532,4.3,2.072-3.605-5.14-9.21h-4.3Zm-23.479,4.066,7.826,4.681,2.149-1.074v-2.685l-7.9-4.6a.47.47,0,0,1-.077-.461l2.379-4.221h-4.3l-5.14,9.055,2.147,3.76,2.457-4.3c.076-.076.153-.153.23-.153a.164.164,0,0,1,.115-.058A.167.167,0,0,1,23.635,122.159Zm36.524-.077,7.9,4.681,2.072-1.228v-2.3l-8.287-4.757a.369.369,0,0,1-.153-.461l2.455-4.3H60.082l-5.218,9.21,2.072,3.605,2.763-4.374a.378.378,0,0,1,.271-.127A.429.429,0,0,1,60.16,122.082Zm-49.339-4.143a.369.369,0,0,1-.155.461l-8.134,4.757v2.379l2.379,1.228c2.685-1.534,6.676-3.99,7.827-4.681h.306c.153,0,.153.077.23.155l2.38,4.221L17.8,122.7l-5.218-9.055H8.364ZM29.159,113.1h4.835a.332.332,0,0,1,.308.308V122.7l2.147,1.3,2.072-1.227v-9.361a.332.332,0,0,1,.308-.308h4.757l-2.072-3.682H31.231Zm33.226,4.989,7.674,4.374v-8.749H64.841ZM2.61,122.467l7.52-4.374-2.455-4.375H2.61Zm36.524-.077,7.214-4.221-2.455-4.451H39.134Zm15.347-.077,4.835-8.594H49.647Zm-28.085-4.3,7.291,4.3v-8.594H28.853Zm-8.134,4.066,4.757-8.364H13.429ZM49.341,113.1H59.7l2.072-3.682H56.708a.35.35,0,0,1-.308-.383V99.831L54.251,98.6l-1.841,1.15v9.361a.329.329,0,0,1-.306.308H47.269Zm-5.065,0h4.3L46.5,109.422H42.2Zm-20.1,0h4.3l2.073-3.682h-4.3Zm-11.2,0h10.36l2.072-3.682H20.642a.331.331,0,0,1-.308-.308V99.984l-2.3-1.381-1.994,1.228h-.078v9.284a.329.329,0,0,1-.306.308H10.821Zm-4.91,0h4.221l-2.149-3.682H5.986Zm52.332-.076h4.067l2.072-3.607h-3.99Zm-23.634-13.2,5.065,9.131h4.3l-2.379-4.221c-.076-.076-.076-.076-.076-.153a.393.393,0,0,1,.153-.306l7.828-4.759v-2.3l-2-1.227-8.056,4.6h-.23c-.078,0-.078-.076-.153-.153l-2.456-4.068Zm20.257-2.685v2.378l8.134,4.6a.255.255,0,0,1,0,.461l-2.378,4.221h4.066l5.371-9.439-2.147-3.3-2.61,4.374a.508.508,0,0,1-.46.077l-7.979-4.6Zm.077,11.663h5.065l2.455-4.221-7.52-4.3Zm-12.584-4.221,2.378,4.221h4.835v-8.594Zm-12.892,4.221h9.593l-4.759-8.517Zm-10.588,0h4.757l2.456-4.221-7.214-4.221ZM8.058,104.588l2.455,4.221h4.912v-8.594ZM.538,99.447l5.218,9.361H9.9l-2.378-4.221a.289.289,0,0,1,.076-.461l7.9-4.68V96.915l-2.072-1.152L5.219,100.6h-.23c-.155,0-.155-.076-.23-.153l-2.38-4.3Zm20.41-2.61v2.685l7.827,4.6c.153.077.23.308.077.383l-2.379,4.221h4.3L35.99,99.6l-2-3.607-2.3,4.068a.369.369,0,0,1-.461.153L23.1,95.687Zm38.675-1.3,7.442,4.3,2.61-4.3-2.84-4.374Zm-20.412-.076,2.455,4.374,7.444-4.3-7.444-4.449Zm-36.524,0,2.455,4.374,7.6-4.451-7.6-4.221ZM23.864,95.3l7.521,4.221L33.763,95.3l-2.378-4.219Zm-5.677,2.763,2.147,1.228V96.76a.4.4,0,0,1,.155-.306l1.917-1.074L20.489,94.3A.394.394,0,0,1,20.335,94V91.619l-2.147,1.228a.233.233,0,0,1-.308,0l-1.841-1.075v2.149a.406.406,0,0,1-.153.308L13.967,95.3l1.918,1.074a.406.406,0,0,1,.153.308v2.455l1.841-1.075a.238.238,0,0,1,.308,0Zm36.218,0L56.4,99.217V96.99a.4.4,0,0,1,.153-.306l1.841-1.152-1.841-1.074a.58.58,0,0,1-.153-.306V92l-1.688,1a.231.231,0,0,1-.306,0l-2-1.228v2.457a.4.4,0,0,1-.153.306L50.415,95.61l1.841,1.075a.586.586,0,0,1,.153.306v2.072l1.688-1a.237.237,0,0,1,.308,0ZM34.454,95.3l1.994,3.607,2-3.452L36.373,91.85Zm7.289-4.833L49.8,95.226,51.8,94.075V91.467l-7.827-4.681a.548.548,0,0,1-.23-.461l2.379-4.143H41.9l-5.14,9.131,2.072,3.607,2.455-4.3c.078-.077.153-.153.23-.153a.143.143,0,0,1,.23,0Zm23.481-4.221a.288.288,0,0,1-.078.459l-8.134,4.912V94l2,1.15,7.75-4.68a.287.287,0,0,1,.459.076l2.84,4.221,2.147-3.607L66.913,82.1H62.845Zm-36.3.076a.51.51,0,0,1-.153.538l-7.75,4.449v2.532L23.175,95l8.134-4.527a.37.37,0,0,1,.461.153l2.3,4.143,1.919-3.454-5.142-9.131h-4.3ZM5.142,90.392,13.353,95l2.072-1.227V91.389l-7.9-4.6a.37.37,0,0,1-.155-.461l2.457-4.143H5.6l-5.3,9.208,1.919,3.454,2.455-4.3a.373.373,0,0,1,.325-.183A.3.3,0,0,1,5.142,90.392Zm42.127-8.825H52.1a.329.329,0,0,1,.306.308v9.208l2.149,1.3L56.4,91.312V81.875a.273.273,0,0,1,.308-.308h5.063L59.7,77.885H49.341Zm-36.373,0h4.834a.279.279,0,0,1,.23.077c.078.076.078.153.153.23v9.208l2,1.15,2.3-1.305V81.875a.329.329,0,0,1,.306-.308h4.759L23.4,77.885H13.045Zm46.117,9.361,7.52-4.527-2.378-4.221H57.014ZM44.507,86.4l7.212,4.3V82.181H46.884Zm-8.134,4.221,4.834-8.441H31.614Zm-28.315-4.3,7.367,4.3V82.1H10.513Zm12.968,4.221L28.162,86.4l-2.379-4.221H21.026Zm41.589-8.978h4.068l-2.149-3.683H60.468Zm-20.334,0H46.5l2.072-3.683H44.354Zm-11.049,0h10.36l2.072-3.683H38.828a.332.332,0,0,1-.308-.308V68.447l-2.072-1.305L34.3,68.447v9.131a.332.332,0,0,1-.308.308H29.159Zm-5.065,0h4.3l-2.072-3.683h-4.3Zm-20.1,0h4.145l2.147-3.683H8.135Zm56.323-8.594,2.456,4.3h5.218V68.677Zm-7.52-4.834,5.218,9.132H64.15l-2.455-4.221c-.077-.077-.077-.077-.077-.155V72.82c0-.153.077-.153.153-.23l8.288-4.681v-2.3l-2.072-1.381-7.9,4.757a.288.288,0,0,1-.459-.076l-2.763-4.375Zm-5.218,9.132h9.669l-4.835-8.519Zm-10.513,0h4.834l2.457-4.3L39.134,68.83Zm-25.705,0H23.02l-4.757-8.364Zm-10.9-9.439,8.134,4.757c.155.153.23.306.155.461L8.441,77.271h4.221l5.218-8.979-2.149-3.76-2.455,4.375c-.077.076-.153.153-.23.153a.145.145,0,0,1-.23,0L4.989,64.226,2.61,65.3H2.532Zm.077,9.439H7.674l2.455-4.3L2.61,68.6ZM39.134,65.3v2.685l7.827,4.527a.37.37,0,0,1,.153.461l-2.378,4.221h4.22l5.14-9.131L52.1,64.532l-2.379,4.375c-.078.076-.153.153-.23.153a.145.145,0,0,1-.23,0l-7.827-4.834ZM26.321,72.9l2.455,4.3h4.912V68.752Zm-7.828-4.68,5.142,8.978h4.3l-2.379-4.221a.371.371,0,0,1,.154-.461l7.9-4.527V65.3l-2.149-1.075L23.635,69.06H23.4c-.077,0-.155-.077-.23-.153l-2.532-4.451Zm5.218.23L30.925,64l-.255-.153h-.053l.029-.015-.1-.063h.229l.154-.077-7.214-4.374-2.532,4.528ZM5.986,63.765,5.679,64l7.289,4.451,2.457-4.374-.384-.23H15.5v-.155l-2.455-4.374c-1.508.981-4.941,3-7.389,4.451Zm36.065.153,7.135,4.451,2.532-4.6h.039l.039-.077-2.61-4.374L42.2,63.688h.23l-.122.073.122.082h-.258Zm-7.9,1a.394.394,0,0,1,.155.306v2.532L36.3,66.528a.233.233,0,0,1,.308,0l1.841,1.15V65.147a.4.4,0,0,1,.153-.308l2-.921-.538-.23H40.9l-2.147-1.073a.405.405,0,0,1-.153-.308V59.928L36.679,61a.231.231,0,0,1-.306,0l-2-1.15v2.532a.394.394,0,0,1-.153.306l-2.3,1.114ZM18.34,67.755l2.3-3.913h-.077v-.155L18.34,59.852l-2.226,3.99Zm36.065-.23,2.1-3.682h-.031l.076-.155-1.994-3.605-2.149,3.76H52.3ZM47.115,54.4a.369.369,0,0,1-.153.461l-7.827,4.6V62l2.3,1.152,7.6-4.681a.285.285,0,0,1,.23-.076c.077,0,.153.076.23.153l2.532,4.3L54.1,59.239l-5.14-9.208h-4.3ZM23.635,58.47l7.826,4.681,2.149-1.075V59.391l-7.9-4.6a.47.47,0,0,1-.077-.461l2.379-4.221h-4.3l-5.14,9.055,2.147,3.76,2.457-4.3c.076-.077.153-.155.23-.155a.165.165,0,0,1,.115-.057A.168.168,0,0,1,23.635,58.47Zm36.524-.076,7.9,4.68,2.072-1.227v-2.3l-8.287-4.757a.37.37,0,0,1-.153-.461l2.455-4.3H60.082l-5.218,9.208,2.072,3.605L59.7,58.47a.376.376,0,0,1,.269-.127A.425.425,0,0,1,60.16,58.394ZM10.821,54.251a.367.367,0,0,1-.155.459L2.532,59.469v2.378l2.379,1.227c2.685-1.533,6.676-3.99,7.827-4.68h.306c.153,0,.153.076.23.153l2.38,4.221,2.147-3.76-5.218-9.055H8.364Zm18.339-4.834h4.835a.331.331,0,0,1,.308.306v9.286l2.147,1.3,2.072-1.229V49.723a.331.331,0,0,1,.308-.306h4.757l-2.072-3.684H31.231ZM62.385,54.4l7.674,4.374V50.03H64.841ZM2.61,58.778l7.52-4.374L7.674,50.03H2.61ZM39.134,58.7l7.214-4.221L43.893,50.03H39.134Zm15.347-.076,4.835-8.594H49.647ZM26.4,54.327l7.291,4.3V50.03H28.853Zm-8.134,4.068L23.02,50.03H13.429Zm31.078-8.978H59.7l2.072-3.684H56.708a.35.35,0,0,1-.308-.383V36.141l-2.149-1.227-1.841,1.15v9.363a.329.329,0,0,1-.306.306H47.269Zm-5.065,0h4.3L46.5,45.732H42.2Zm-20.1,0h4.3l2.073-3.684h-4.3Zm-11.2,0h10.36L25.4,45.732H20.642a.331.331,0,0,1-.308-.306V36.294l-2.3-1.38-1.994,1.227h-.078v9.285a.329.329,0,0,1-.306.306H10.821Zm-4.91,0h4.221l-2.149-3.684H5.986Zm52.332-.077h4.067l2.072-3.607h-3.99Zm-23.634-13.2,5.065,9.131h4.3l-2.379-4.219c-.076-.077-.076-.077-.076-.155a.393.393,0,0,1,.153-.306l7.828-4.759v-2.3l-2-1.227-8.056,4.6h-.23c-.078,0-.078-.076-.153-.153l-2.456-4.068Zm20.257-2.685v2.378l8.134,4.6a.255.255,0,0,1,0,.461L62.77,45.119h4.066l5.371-9.438-2.147-3.3-2.61,4.374a.508.508,0,0,1-.46.077l-7.979-4.6Zm.077,11.663h5.065L64.611,40.9l-7.52-4.3ZM44.507,40.9l2.378,4.221h4.835V36.524ZM31.614,45.119h9.593L36.449,36.6Zm-10.588,0h4.757L28.239,40.9l-7.214-4.221ZM8.058,40.9l2.455,4.221h4.912V36.524ZM.538,35.758l5.218,9.361H9.9L7.521,40.9a.289.289,0,0,1,.076-.461l7.9-4.68V33.225l-2.072-1.152L5.219,36.908h-.23c-.155,0-.155-.076-.23-.153l-2.38-4.3Zm20.41-2.61v2.685l7.827,4.6c.153.077.23.308.077.385l-2.379,4.219h4.3l5.219-9.131-2-3.607-2.3,4.068a.369.369,0,0,1-.461.153L23.1,32Zm38.675-1.3,7.442,4.3,2.61-4.3-2.84-4.375Zm-20.412-.077,2.455,4.374,7.444-4.3-7.444-4.451Zm-36.524,0,2.455,4.374,7.6-4.451-7.6-4.221Zm21.177-.153,7.521,4.219,2.378-4.219-2.378-4.221Zm-5.677,2.761L20.335,35.6V33.072a.4.4,0,0,1,.155-.308l1.917-1.074-1.917-1.074a.4.4,0,0,1-.155-.306V27.93l-2.147,1.227a.233.233,0,0,1-.308,0l-1.841-1.074v2.149a.405.405,0,0,1-.153.308l-1.918,1.075,1.918,1.073a.406.406,0,0,1,.153.308V35.45l1.841-1.075a.238.238,0,0,1,.308,0Zm36.218,0L56.4,35.527V33.3a.4.4,0,0,1,.153-.308l1.841-1.15L56.553,30.77a.592.592,0,0,1-.153-.308V28.313l-1.688,1a.235.235,0,0,1-.306,0l-2-1.229V30.54a.4.4,0,0,1-.153.306L50.415,31.92l1.841,1.074a.591.591,0,0,1,.153.308v2.072l1.688-1a.237.237,0,0,1,.308,0ZM34.454,31.614l1.994,3.605,2-3.452L36.373,28.16Zm7.289-4.834L49.8,31.537,51.8,30.385V27.777L43.968,23.1a.546.546,0,0,1-.23-.461l2.379-4.143H41.9l-5.14,9.132,2.072,3.605,2.455-4.3c.078-.077.153-.153.23-.153a.143.143,0,0,1,.23,0Zm23.481-4.221a.29.29,0,0,1-.078.461l-8.134,4.91V30.31l2,1.15,7.75-4.68a.287.287,0,0,1,.459.076l2.84,4.221,2.147-3.607-5.293-9.053H62.845Zm-36.3.076a.509.509,0,0,1-.153.538l-7.75,4.451v2.532l2.149,1.15,8.134-4.527a.37.37,0,0,1,.461.153l2.3,4.143,1.919-3.452-5.142-9.132h-4.3ZM5.142,26.7l8.211,4.6,2.072-1.227V27.7l-7.9-4.6a.369.369,0,0,1-.155-.461l2.457-4.143H5.6L.308,27.7l1.919,3.454,2.455-4.3a.373.373,0,0,1,.325-.183A.3.3,0,0,1,5.142,26.7Zm42.127-8.825H52.1a.329.329,0,0,1,.306.308v9.208L54.559,28.7,56.4,27.624V18.186a.273.273,0,0,1,.308-.308h5.063L59.7,14.2H49.341Zm-36.373,0h4.834a.278.278,0,0,1,.23.077c.078.076.078.153.153.23v9.208l2,1.15,2.3-1.3V18.186a.329.329,0,0,1,.306-.308h4.759L23.4,14.2H13.045Zm46.117,9.363,7.52-4.528-2.378-4.221H57.014ZM44.507,22.712l7.212,4.3V18.492H46.884Zm-8.134,4.221,4.834-8.441H31.614Zm-28.315-4.3,7.367,4.3V18.416H10.513Zm12.968,4.221,7.136-4.143-2.379-4.221H21.026Zm41.589-8.978h4.068L64.533,14.2H60.468Zm-20.334,0H46.5L48.572,14.2H44.354Zm-11.049,0h10.36L43.662,14.2H38.828a.331.331,0,0,1-.308-.308V4.757l-2.072-1.3L34.3,4.757v9.131a.331.331,0,0,1-.308.308H29.159Zm-5.065,0h4.3L28.393,14.2h-4.3Zm-20.1,0h4.145L12.354,14.2H8.135ZM62.385,9.284l2.456,4.3h5.218V4.988Zm-7.52-4.834,5.218,9.132H64.15L61.695,9.361c-.077-.077-.077-.077-.077-.153V9.131c0-.153.077-.153.153-.23l8.288-4.681v-2.3L67.987.536l-7.9,4.757a.287.287,0,0,1-.459-.076L56.861.844Zm-5.218,9.132h9.669L54.481,5.063Zm-10.513,0h4.834l2.457-4.3L39.134,5.141Zm-25.705,0H23.02L18.263,5.218ZM2.532,4.143,10.666,8.9c.155.153.23.308.155.461L8.441,13.582h4.221L17.879,4.6,15.731.844,13.276,5.218c-.077.076-.153.153-.23.153a.143.143,0,0,1-.23,0L4.989.536,2.61,1.611H2.532Zm.077,9.438H7.674l2.455-4.3L2.61,4.834ZM39.134,1.611V4.3l7.827,4.527a.369.369,0,0,1,.153.461L44.737,13.5h4.22L54.1,4.374,52.1.844,49.724,5.218c-.078.076-.153.153-.23.153a.143.143,0,0,1-.23,0L41.436.536Zm-12.813,7.6,2.455,4.3h4.912V5.063ZM18.646,4.6l4.989,8.9h4.3L25.553,9.284a.37.37,0,0,1,.154-.461L33.61,4.3V1.611L31.461.536,23.635,5.371H23.4c-.077,0-.155-.077-.23-.153L20.8.844Z" transform="translate(0 0)" fill="url(#a)"/></g></g></g></svg>