<svg xmlns="http://www.w3.org/2000/svg" xmlns:xlink="http://www.w3.org/1999/xlink" width="275.149" height="275.149" viewBox="0 0 275.149 275.149">
  <defs>
    <linearGradient id="linear-gradient" x1="0.132" x2="0.917" y2="0.945" gradientUnits="objectBoundingBox">
      <stop offset="0" stop-color="#75a29e"/>
      <stop offset="1" stop-color="#194654"/>
    </linearGradient>
  </defs>
  <g id="Group_44146" data-name="Group 44146" transform="translate(-669 -533)">
    <g id="Group_44145" data-name="Group 44145" transform="translate(-11.926 1)">
      <g id="Group_44144" data-name="Group 44144" transform="translate(590.926 438.387)">
        <g id="qrcode" transform="translate(112.929 115.605)">
          
        </g>
        <g id="qr-code" transform="translate(90 93.613)">
          <path id="Path_57115" data-name="Path 57115" d="M454.012,52.248a3.677,3.677,0,0,1-3.677-3.677V11.032a3.681,3.681,0,0,0-3.677-3.677H409.118a3.677,3.677,0,0,1,0-7.355h37.539A11.045,11.045,0,0,1,457.69,11.032V48.571A3.677,3.677,0,0,1,454.012,52.248Z" transform="translate(-182.541)" fill="url(#linear-gradient)"/>
          <path id="Path_57116" data-name="Path 57116" d="M446.657,457.69H409.118a3.677,3.677,0,0,1,0-7.355h37.539a3.681,3.681,0,0,0,3.677-3.677V409.119a3.677,3.677,0,0,1,7.355,0v37.539A11.045,11.045,0,0,1,446.657,457.69Z" transform="translate(-182.541 -182.541)" fill="url(#linear-gradient)"/>
          <g id="Group_16787" data-name="Group 16787">
            <path id="Path_57139" data-name="Path 57139" d="M3.677,52.248A3.677,3.677,0,0,1,0,48.571V11.032A11.045,11.045,0,0,1,11.032,0H48.571a3.677,3.677,0,0,1,0,7.355H11.032a3.681,3.681,0,0,0-3.677,3.677V48.571A3.677,3.677,0,0,1,3.677,52.248Z" fill="url(#linear-gradient)"/>
            <path id="Path_57140" data-name="Path 57140" d="M48.571,457.69H11.032A11.045,11.045,0,0,1,0,446.658V409.119a3.677,3.677,0,0,1,7.355,0v37.539a3.681,3.681,0,0,0,3.677,3.677H48.571a3.677,3.677,0,1,1,0,7.355Z" transform="translate(0 -182.541)" fill="url(#linear-gradient)"/>
          </g>
        </g>
      </g>
    </g>
  </g>
</svg>
