<svg xmlns="http://www.w3.org/2000/svg" xmlns:xlink="http://www.w3.org/1999/xlink" width="275.149" height="275.149" viewBox="0 0 275.149 275.149">
  <defs>
    <linearGradient id="linear-gradient" x1="0.132" x2="0.917" y2="0.945" gradientUnits="objectBoundingBox">
      <stop offset="0" stop-color="#75a29e"/>
      <stop offset="1" stop-color="#194654"/>
    </linearGradient>
  </defs>
  <g id="Group_44146" data-name="Group 44146" transform="translate(-669 -533)">
    <g id="Group_44145" data-name="Group 44145" transform="translate(-11.926 1)">
      <g id="Group_44144" data-name="Group 44144" transform="translate(590.926 438.387)">
        <g id="qrcode" transform="translate(112.929 115.605)">
          <g id="elements" transform="translate(2.495 3.112)">
            <path id="Path_57035" data-name="Path 57035" d="M6,6h6.055v6.06H6Zm6.055,0H18.11v6.06H12.055ZM18.11,6h6.055v6.06H18.11Zm6.055,0H30.22v6.06H24.165ZM30.22,6h6.055v6.06H30.22Zm6.055,0H42.33v6.06H36.275ZM42.33,6h6.055v6.06H42.33ZM60.5,6H66.55v6.06H60.5Zm36.33,0h6.055v6.06H96.825Zm6.055,0h6.055v6.06H102.88Zm6.055,0h6.055v6.06h-6.055Zm6.055,0h6.055v6.06H114.99Zm6.055,0H127.1v6.06h-6.055Zm12.11,0h6.055v6.06h-6.055Zm12.11,0h6.055v6.06h-6.055Zm24.22,0h6.055v6.06h-6.055ZM187.65,6h6.055v6.06H187.65Zm6.055,0h6.055v6.06h-6.055Zm6.055,0h6.055v6.06H199.76Zm6.055,0h6.055v6.06h-6.055Zm6.055,0h6.055v6.06H211.87Zm6.055,0h6.055v6.06h-6.055Zm6.055,0h6.055v6.06H223.98ZM6,12.06h6.055v6.06H6Zm36.33,0h6.055v6.06H42.33Zm12.11,0H60.5v6.06H54.44Zm6.055,0H66.55v6.06H60.5Zm12.11,0H78.66v6.06H72.605Zm6.055,0h6.055v6.06H78.66Zm12.11,0h6.055v6.06H90.77Zm18.165,0h6.055v6.06h-6.055Zm24.22,0h6.055v6.06h-6.055Zm18.165,0h6.055v6.06H151.32Zm6.055,0h6.055v6.06h-6.055Zm6.055,0h6.055v6.06H163.43Zm6.055,0h6.055v6.06h-6.055Zm6.055,0H181.6v6.06H175.54Zm12.11,0h6.055v6.06H187.65Zm36.33,0h6.055v6.06H223.98ZM6,18.119h6.055v6.06H6Zm12.11,0h6.055v6.06H18.11Zm6.055,0H30.22v6.06H24.165Zm6.055,0h6.055v6.06H30.22Zm12.11,0h6.055v6.06H42.33Zm18.165,0H66.55v6.06H60.5Zm6.055,0h6.055v6.06H66.55Zm6.055,0H78.66v6.06H72.605Zm18.165,0h6.055v6.06H90.77Zm12.11,0h6.055v6.06H102.88Zm6.055,0h6.055v6.06h-6.055Zm6.055,0h6.055v6.06H114.99Zm12.11,0h6.055v6.06H127.1Zm6.055,0h6.055v6.06h-6.055Zm24.22,0h6.055v6.06h-6.055Zm12.11,0h6.055v6.06h-6.055Zm18.165,0h6.055v6.06H187.65Zm12.11,0h6.055v6.06H199.76Zm6.055,0h6.055v6.06h-6.055Zm6.055,0h6.055v6.06H211.87Zm12.11,0h6.055v6.06H223.98ZM6,24.179h6.055v6.06H6Zm12.11,0h6.055v6.06H18.11Zm6.055,0H30.22v6.06H24.165Zm6.055,0h6.055v6.06H30.22Zm12.11,0h6.055v6.06H42.33Zm12.11,0H60.5v6.06H54.44Zm6.055,0H66.55v6.06H60.5Zm12.11,0H78.66v6.06H72.605Zm12.11,0H90.77v6.06H84.715Zm6.055,0h6.055v6.06H90.77Zm30.275,0H127.1v6.06h-6.055Zm12.11,0h6.055v6.06h-6.055Zm6.055,0h6.055v6.06H139.21Zm6.055,0h6.055v6.06h-6.055Zm18.165,0h6.055v6.06H163.43Zm6.055,0h6.055v6.06h-6.055Zm6.055,0H181.6v6.06H175.54Zm12.11,0h6.055v6.06H187.65Zm12.11,0h6.055v6.06H199.76Zm6.055,0h6.055v6.06h-6.055Zm6.055,0h6.055v6.06H211.87Zm12.11,0h6.055v6.06H223.98ZM6,30.238h6.055V36.3H6Zm12.11,0h6.055V36.3H18.11Zm6.055,0H30.22V36.3H24.165Zm6.055,0h6.055V36.3H30.22Zm12.11,0h6.055V36.3H42.33Zm24.22,0h6.055V36.3H66.55Zm12.11,0h6.055V36.3H78.66Zm6.055,0H90.77V36.3H84.715Zm6.055,0h6.055V36.3H90.77Zm6.055,0h6.055V36.3H96.825Zm18.165,0h6.055V36.3H114.99Zm12.11,0h6.055V36.3H127.1Zm6.055,0h6.055V36.3h-6.055Zm6.055,0h6.055V36.3H139.21Zm24.22,0h6.055V36.3H163.43Zm6.055,0h6.055V36.3h-6.055Zm6.055,0H181.6V36.3H175.54Zm12.11,0h6.055V36.3H187.65Zm12.11,0h6.055V36.3H199.76Zm6.055,0h6.055V36.3h-6.055Zm6.055,0h6.055V36.3H211.87Zm12.11,0h6.055V36.3H223.98ZM6,36.3h6.055v6.06H6Zm36.33,0h6.055v6.06H42.33Zm12.11,0H60.5v6.06H54.44Zm12.11,0h6.055v6.06H66.55Zm18.165,0H90.77v6.06H84.715Zm6.055,0h6.055v6.06H90.77Zm12.11,0h6.055v6.06H102.88Zm18.165,0H127.1v6.06h-6.055Zm18.165,0h6.055v6.06H139.21Zm6.055,0h6.055v6.06h-6.055Zm6.055,0h6.055v6.06H151.32Zm12.11,0h6.055v6.06H163.43Zm6.055,0h6.055v6.06h-6.055Zm6.055,0H181.6v6.06H175.54Zm12.11,0h6.055v6.06H187.65Zm36.33,0h6.055v6.06H223.98ZM6,42.358h6.055v6.06H6Zm6.055,0H18.11v6.06H12.055Zm6.055,0h6.055v6.06H18.11Zm6.055,0H30.22v6.06H24.165Zm6.055,0h6.055v6.06H30.22Zm6.055,0H42.33v6.06H36.275Zm6.055,0h6.055v6.06H42.33Zm12.11,0H60.5v6.06H54.44Zm12.11,0h6.055v6.06H66.55Zm12.11,0h6.055v6.06H78.66Zm12.11,0h6.055v6.06H90.77Zm12.11,0h6.055v6.06H102.88Zm12.11,0h6.055v6.06H114.99Zm12.11,0h6.055v6.06H127.1Zm12.11,0h6.055v6.06H139.21Zm12.11,0h6.055v6.06H151.32Zm12.11,0h6.055v6.06H163.43Zm12.11,0H181.6v6.06H175.54Zm12.11,0h6.055v6.06H187.65Zm6.055,0h6.055v6.06h-6.055Zm6.055,0h6.055v6.06H199.76Zm6.055,0h6.055v6.06h-6.055Zm6.055,0h6.055v6.06H211.87Zm6.055,0h6.055v6.06h-6.055Zm6.055,0h6.055v6.06H223.98ZM78.66,48.417h6.055v6.06H78.66Zm6.055,0H90.77v6.06H84.715Zm12.11,0h6.055v6.06H96.825Zm6.055,0h6.055v6.06H102.88Zm18.165,0H127.1v6.06h-6.055Zm6.055,0h6.055v6.06H127.1Zm18.165,0h6.055v6.06h-6.055Zm18.165,0h6.055v6.06H163.43Zm6.055,0h6.055v6.06h-6.055Zm6.055,0H181.6v6.06H175.54ZM6,54.477h6.055v6.06H6Zm6.055,0H18.11v6.06H12.055Zm6.055,0h6.055v6.06H18.11Zm6.055,0H30.22v6.06H24.165Zm6.055,0h6.055v6.06H30.22Zm12.11,0h6.055v6.06H42.33Zm6.055,0H54.44v6.06H48.385Zm6.055,0H60.5v6.06H54.44Zm6.055,0H66.55v6.06H60.5Zm6.055,0h6.055v6.06H66.55Zm12.11,0h6.055v6.06H78.66Zm12.11,0h6.055v6.06H90.77Zm6.055,0h6.055v6.06H96.825Zm12.11,0h6.055v6.06h-6.055Zm6.055,0h6.055v6.06H114.99Zm12.11,0h6.055v6.06H127.1Zm6.055,0h6.055v6.06h-6.055Zm6.055,0h6.055v6.06H139.21Zm6.055,0h6.055v6.06h-6.055Zm6.055,0h6.055v6.06H151.32Zm12.11,0h6.055v6.06H163.43Zm6.055,0h6.055v6.06h-6.055Zm12.11,0h6.055v6.06H181.6Zm12.11,0h6.055v6.06h-6.055Zm12.11,0h6.055v6.06h-6.055Zm12.11,0h6.055v6.06h-6.055Zm-205.87,6.06H18.11V66.6H12.055Zm6.055,0h6.055V66.6H18.11Zm6.055,0H30.22V66.6H24.165Zm6.055,0h6.055V66.6H30.22Zm30.275,0H66.55V66.6H60.5Zm36.33,0h6.055V66.6H96.825Zm6.055,0h6.055V66.6H102.88Zm6.055,0h6.055V66.6h-6.055Zm24.22,0h6.055V66.6h-6.055Zm18.165,0h6.055V66.6H151.32Zm6.055,0h6.055V66.6h-6.055Zm12.11,0h6.055V66.6h-6.055Zm6.055,0H181.6V66.6H175.54Zm42.385,0h6.055V66.6h-6.055Zm6.055,0h6.055V66.6H223.98ZM18.11,66.6h6.055v6.06H18.11Zm12.11,0h6.055v6.06H30.22Zm6.055,0H42.33v6.06H36.275Zm6.055,0h6.055v6.06H42.33Zm12.11,0H60.5v6.06H54.44Zm12.11,0h6.055v6.06H66.55Zm6.055,0H78.66v6.06H72.605Zm6.055,0h6.055v6.06H78.66Zm12.11,0h6.055v6.06H90.77Zm18.165,0h6.055v6.06h-6.055Zm12.11,0H127.1v6.06h-6.055Zm6.055,0h6.055v6.06H127.1Zm6.055,0h6.055v6.06h-6.055Zm6.055,0h6.055v6.06H139.21Zm12.11,0h6.055v6.06H151.32Zm6.055,0h6.055v6.06h-6.055Zm6.055,0h6.055v6.06H163.43Zm18.165,0h6.055v6.06H181.6Zm6.055,0h6.055v6.06H187.65Zm24.22,0h6.055v6.06H211.87Zm12.11,0h6.055v6.06H223.98ZM30.22,72.656h6.055v6.06H30.22Zm6.055,0H42.33v6.06H36.275Zm12.11,0H54.44v6.06H48.385Zm12.11,0H66.55v6.06H60.5Zm6.055,0h6.055v6.06H66.55Zm6.055,0H78.66v6.06H72.605Zm18.165,0h6.055v6.06H90.77Zm12.11,0h6.055v6.06H102.88Zm6.055,0h6.055v6.06h-6.055Zm6.055,0h6.055v6.06H114.99Zm12.11,0h6.055v6.06H127.1Zm6.055,0h6.055v6.06h-6.055Zm6.055,0h6.055v6.06H139.21Zm18.165,0h6.055v6.06h-6.055Zm18.165,0H181.6v6.06H175.54Zm18.165,0h6.055v6.06h-6.055Zm6.055,0h6.055v6.06H199.76Zm6.055,0h6.055v6.06h-6.055Zm18.165,0h6.055v6.06H223.98ZM36.275,78.715H42.33v6.06H36.275Zm6.055,0h6.055v6.06H42.33Zm6.055,0H54.44v6.06H48.385Zm12.11,0H66.55v6.06H60.5Zm12.11,0H78.66v6.06H72.605Zm6.055,0h6.055v6.06H78.66Zm6.055,0H90.77v6.06H84.715Zm12.11,0h6.055v6.06H96.825Zm6.055,0h6.055v6.06H102.88Zm30.275,0h6.055v6.06h-6.055Zm6.055,0h6.055v6.06H139.21Zm6.055,0h6.055v6.06h-6.055Zm6.055,0h6.055v6.06H151.32Zm12.11,0h6.055v6.06H163.43Zm6.055,0h6.055v6.06h-6.055Zm12.11,0h6.055v6.06H181.6Zm24.22,0h6.055v6.06h-6.055ZM6,84.775h6.055v6.06H6Zm6.055,0H18.11v6.06H12.055Zm18.165,0h6.055v6.06H30.22Zm6.055,0H42.33v6.06H36.275Zm18.165,0H60.5v6.06H54.44Zm6.055,0H66.55v6.06H60.5Zm18.165,0h6.055v6.06H78.66Zm6.055,0H90.77v6.06H84.715Zm6.055,0h6.055v6.06H90.77Zm12.11,0h6.055v6.06H102.88Zm6.055,0h6.055v6.06h-6.055Zm18.165,0h6.055v6.06H127.1Zm6.055,0h6.055v6.06h-6.055Zm6.055,0h6.055v6.06H139.21Zm18.165,0h6.055v6.06h-6.055Zm18.165,0H181.6v6.06H175.54Zm6.055,0h6.055v6.06H181.6Zm6.055,0h6.055v6.06H187.65Zm6.055,0h6.055v6.06h-6.055Zm6.055,0h6.055v6.06H199.76Zm6.055,0h6.055v6.06h-6.055Zm12.11,0h6.055v6.06h-6.055ZM18.11,90.834h6.055v6.06H18.11Zm6.055,0H30.22v6.06H24.165Zm6.055,0h6.055v6.06H30.22Zm12.11,0h6.055v6.06H42.33Zm18.165,0H66.55v6.06H60.5Zm6.055,0h6.055v6.06H66.55Zm12.11,0h6.055v6.06H78.66Zm6.055,0H90.77v6.06H84.715Zm6.055,0h6.055v6.06H90.77Zm6.055,0h6.055v6.06H96.825Zm6.055,0h6.055v6.06H102.88Zm18.165,0H127.1v6.06h-6.055Zm18.165,0h6.055v6.06H139.21Zm6.055,0h6.055v6.06h-6.055Zm6.055,0h6.055v6.06H151.32Zm12.11,0h6.055v6.06H163.43Zm6.055,0h6.055v6.06h-6.055Zm12.11,0h6.055v6.06H181.6Zm18.165,0h6.055v6.06H199.76Zm6.055,0h6.055v6.06h-6.055Zm6.055,0h6.055v6.06H211.87ZM6,96.894h6.055v6.06H6Zm12.11,0h6.055v6.06H18.11Zm6.055,0H30.22v6.06H24.165Zm6.055,0h6.055v6.06H30.22Zm18.165,0H54.44v6.06H48.385Zm6.055,0H60.5v6.06H54.44Zm12.11,0h6.055v6.06H66.55Zm12.11,0h6.055v6.06H78.66Zm6.055,0H90.77v6.06H84.715Zm12.11,0h6.055v6.06H96.825Zm6.055,0h6.055v6.06H102.88Zm12.11,0h6.055v6.06H114.99Zm6.055,0H127.1v6.06h-6.055Zm6.055,0h6.055v6.06H127.1Zm18.165,0h6.055v6.06h-6.055Zm24.22,0h6.055v6.06h-6.055Zm6.055,0H181.6v6.06H175.54Zm12.11,0h6.055v6.06H187.65Zm6.055,0h6.055v6.06h-6.055Zm6.055,0h6.055v6.06H199.76Zm12.11,0h6.055v6.06H211.87Zm12.11,0h6.055v6.06H223.98Zm-211.925,6.06H18.11v6.06H12.055Zm12.11,0H30.22v6.06H24.165Zm18.165,0h6.055v6.06H42.33Zm6.055,0H54.44v6.06H48.385Zm12.11,0H66.55v6.06H60.5Zm6.055,0h6.055v6.06H66.55Zm12.11,0h6.055v6.06H78.66Zm12.11,0h6.055v6.06H90.77Zm6.055,0h6.055v6.06H96.825Zm12.11,0h6.055v6.06h-6.055Zm18.165,0h6.055v6.06H127.1Zm6.055,0h6.055v6.06h-6.055Zm6.055,0h6.055v6.06H139.21Zm24.22,0h6.055v6.06H163.43Zm12.11,0H181.6v6.06H175.54Zm6.055,0h6.055v6.06H181.6Zm6.055,0h6.055v6.06H187.65Zm12.11,0h6.055v6.06H199.76Zm6.055,0h6.055v6.06h-6.055Zm18.165,0h6.055v6.06H223.98ZM6,109.013h6.055v6.06H6Zm24.22,0h6.055v6.06H30.22Zm6.055,0H42.33v6.06H36.275Zm12.11,0H54.44v6.06H48.385Zm30.275,0h6.055v6.06H78.66Zm18.165,0h6.055v6.06H96.825Zm6.055,0h6.055v6.06H102.88Zm12.11,0h6.055v6.06H114.99Zm18.165,0h6.055v6.06h-6.055Zm12.11,0h6.055v6.06h-6.055Zm6.055,0h6.055v6.06H151.32Zm18.165,0h6.055v6.06h-6.055Zm6.055,0H181.6v6.06H175.54Zm36.33,0h6.055v6.06H211.87Zm12.11,0h6.055v6.06H223.98ZM6,115.073h6.055v6.06H6Zm6.055,0H18.11v6.06H12.055Zm6.055,0h6.055v6.06H18.11Zm24.22,0h6.055v6.06H42.33Zm6.055,0H54.44v6.06H48.385Zm12.11,0H66.55v6.06H60.5Zm12.11,0H78.66v6.06H72.605Zm18.165,0h6.055v6.06H90.77Zm18.165,0h6.055v6.06h-6.055Zm18.165,0h6.055v6.06H127.1Zm6.055,0h6.055v6.06h-6.055Zm6.055,0h6.055v6.06H139.21Zm12.11,0h6.055v6.06H151.32Zm6.055,0h6.055v6.06h-6.055Zm6.055,0h6.055v6.06H163.43Zm24.22,0h6.055v6.06H187.65Zm24.22,0h6.055v6.06H211.87Zm6.055,0h6.055v6.06h-6.055ZM6,121.132h6.055v6.06H6Zm12.11,0h6.055v6.06H18.11Zm6.055,0H30.22v6.06H24.165Zm6.055,0h6.055v6.06H30.22Zm60.55,0h6.055v6.06H90.77Zm12.11,0h6.055v6.06H102.88Zm6.055,0h6.055v6.06h-6.055Zm6.055,0h6.055v6.06H114.99Zm12.11,0h6.055v6.06H127.1Zm6.055,0h6.055v6.06h-6.055Zm6.055,0h6.055v6.06H139.21Zm18.165,0h6.055v6.06h-6.055Zm18.165,0H181.6v6.06H175.54Zm12.11,0h6.055v6.06H187.65Zm6.055,0h6.055v6.06h-6.055Zm6.055,0h6.055v6.06H199.76Zm18.165,0h6.055v6.06h-6.055ZM18.11,127.192h6.055v6.06H18.11Zm6.055,0H30.22v6.06H24.165Zm6.055,0h6.055v6.06H30.22Zm6.055,0H42.33v6.06H36.275Zm6.055,0h6.055v6.06H42.33Zm30.275,0H78.66v6.06H72.605Zm12.11,0H90.77v6.06H84.715Zm6.055,0h6.055v6.06H90.77Zm6.055,0h6.055v6.06H96.825Zm48.44,0h6.055v6.06h-6.055Zm6.055,0h6.055v6.06H151.32Zm12.11,0h6.055v6.06H163.43Zm18.165,0h6.055v6.06H181.6Zm6.055,0h6.055v6.06H187.65Zm24.22,0h6.055v6.06H211.87Zm6.055,0h6.055v6.06h-6.055Zm-205.87,6.06H18.11v6.06H12.055Zm6.055,0h6.055v6.06H18.11Zm6.055,0H30.22v6.06H24.165Zm12.11,0H42.33v6.06H36.275Zm18.165,0H60.5v6.06H54.44Zm30.275,0H90.77v6.06H84.715Zm6.055,0h6.055v6.06H90.77Zm6.055,0h6.055v6.06H96.825Zm18.165,0h6.055v6.06H114.99Zm12.11,0h6.055v6.06H127.1Zm12.11,0h6.055v6.06H139.21Zm18.165,0h6.055v6.06h-6.055Zm6.055,0h6.055v6.06H163.43Zm6.055,0h6.055v6.06h-6.055Zm6.055,0H181.6v6.06H175.54Zm6.055,0h6.055v6.06H181.6Zm6.055,0h6.055v6.06H187.65Zm6.055,0h6.055v6.06h-6.055Zm6.055,0h6.055v6.06H199.76Zm6.055,0h6.055v6.06h-6.055Zm12.11,0h6.055v6.06h-6.055Zm-193.76,6.06H30.22v6.06H24.165Zm18.165,0h6.055v6.06H42.33Zm30.275,0H78.66v6.06H72.605Zm6.055,0h6.055v6.06H78.66Zm18.165,0h6.055v6.06H96.825Zm6.055,0h6.055v6.06H102.88Zm18.165,0H127.1v6.06h-6.055Zm18.165,0h6.055v6.06H139.21Zm6.055,0h6.055v6.06h-6.055Zm6.055,0h6.055v6.06H151.32Zm12.11,0h6.055v6.06H163.43Zm12.11,0H181.6v6.06H175.54Zm6.055,0h6.055v6.06H181.6Zm6.055,0h6.055v6.06H187.65Zm12.11,0h6.055v6.06H199.76Zm6.055,0h6.055v6.06h-6.055Zm6.055,0h6.055v6.06H211.87Zm6.055,0h6.055v6.06h-6.055ZM18.11,145.371h6.055v6.06H18.11Zm18.165,0H42.33v6.06H36.275Zm36.33,0H78.66v6.06H72.605Zm18.165,0h6.055v6.06H90.77Zm6.055,0h6.055v6.06H96.825Zm12.11,0h6.055v6.06h-6.055Zm12.11,0H127.1v6.06h-6.055Zm6.055,0h6.055v6.06H127.1Zm18.165,0h6.055v6.06h-6.055Zm24.22,0h6.055v6.06h-6.055Zm6.055,0H181.6v6.06H175.54Zm18.165,0h6.055v6.06h-6.055Zm6.055,0h6.055v6.06H199.76Zm6.055,0h6.055v6.06h-6.055Zm12.11,0h6.055v6.06h-6.055Zm6.055,0h6.055v6.06H223.98ZM12.055,151.43H18.11v6.06H12.055Zm6.055,0h6.055v6.06H18.11Zm12.11,0h6.055v6.06H30.22Zm12.11,0h6.055v6.06H42.33Zm12.11,0H60.5v6.06H54.44Zm6.055,0H66.55v6.06H60.5Zm18.165,0h6.055v6.06H78.66Zm18.165,0h6.055v6.06H96.825Zm12.11,0h6.055v6.06h-6.055Zm6.055,0h6.055v6.06H114.99Zm18.165,0h6.055v6.06h-6.055Zm6.055,0h6.055v6.06H139.21Zm6.055,0h6.055v6.06h-6.055Zm6.055,0h6.055v6.06H151.32Zm6.055,0h6.055v6.06h-6.055Zm6.055,0h6.055v6.06H163.43Zm6.055,0h6.055v6.06h-6.055Zm12.11,0h6.055v6.06H181.6Zm12.11,0h6.055v6.06h-6.055Zm6.055,0h6.055v6.06H199.76Zm6.055,0h6.055v6.06h-6.055Zm6.055,0h6.055v6.06H211.87Zm6.055,0h6.055v6.06h-6.055ZM6,157.49h6.055v6.06H6Zm6.055,0H18.11v6.06H12.055Zm6.055,0h6.055v6.06H18.11Zm6.055,0H30.22v6.06H24.165Zm6.055,0h6.055v6.06H30.22Zm30.275,0H66.55v6.06H60.5Zm18.165,0h6.055v6.06H78.66Zm18.165,0h6.055v6.06H96.825Zm18.165,0h6.055v6.06H114.99Zm18.165,0h6.055v6.06h-6.055Zm12.11,0h6.055v6.06h-6.055Zm6.055,0h6.055v6.06H151.32Zm18.165,0h6.055v6.06h-6.055Zm6.055,0H181.6v6.06H175.54Zm12.11,0h6.055v6.06H187.65Zm6.055,0h6.055v6.06h-6.055Zm12.11,0h6.055v6.06h-6.055ZM6,163.549h6.055v6.06H6Zm12.11,0h6.055v6.06H18.11Zm24.22,0h6.055v6.06H42.33Zm6.055,0H54.44v6.06H48.385Zm6.055,0H60.5v6.06H54.44Zm6.055,0H66.55v6.06H60.5Zm12.11,0H78.66v6.06H72.605Zm12.11,0H90.77v6.06H84.715Zm6.055,0h6.055v6.06H90.77Zm12.11,0h6.055v6.06H102.88Zm12.11,0h6.055v6.06H114.99Zm12.11,0h6.055v6.06H127.1Zm6.055,0h6.055v6.06h-6.055Zm6.055,0h6.055v6.06H139.21Zm12.11,0h6.055v6.06H151.32Zm6.055,0h6.055v6.06h-6.055Zm6.055,0h6.055v6.06H163.43Zm18.165,0h6.055v6.06H181.6Zm12.11,0h6.055v6.06h-6.055Zm12.11,0h6.055v6.06h-6.055Zm6.055,0h6.055v6.06H211.87Zm12.11,0h6.055v6.06H223.98ZM6,169.609h6.055v6.06H6Zm30.275,0H42.33v6.06H36.275Zm24.22,0H66.55v6.06H60.5Zm24.22,0H90.77v6.06H84.715Zm12.11,0h6.055v6.06H96.825Zm6.055,0h6.055v6.06H102.88Zm6.055,0h6.055v6.06h-6.055Zm30.275,0h6.055v6.06H139.21Zm18.165,0h6.055v6.06h-6.055Zm18.165,0H181.6v6.06H175.54Zm12.11,0h6.055v6.06H187.65Zm6.055,0h6.055v6.06h-6.055Zm18.165,0h6.055v6.06H211.87Zm12.11,0h6.055v6.06H223.98ZM6,175.669h6.055v6.06H6Zm18.165,0H30.22v6.06H24.165Zm6.055,0h6.055v6.06H30.22Zm6.055,0H42.33v6.06H36.275Zm6.055,0h6.055v6.06H42.33Zm6.055,0H54.44v6.06H48.385Zm24.22,0H78.66v6.06H72.605Zm18.165,0h6.055v6.06H90.77Zm12.11,0h6.055v6.06H102.88Zm24.22,0h6.055v6.06H127.1Zm6.055,0h6.055v6.06h-6.055Zm12.11,0h6.055v6.06h-6.055Zm6.055,0h6.055v6.06H151.32Zm12.11,0h6.055v6.06H163.43Zm6.055,0h6.055v6.06h-6.055Zm6.055,0H181.6v6.06H175.54Zm6.055,0h6.055v6.06H181.6Zm6.055,0h6.055v6.06H187.65Zm6.055,0h6.055v6.06h-6.055Zm6.055,0h6.055v6.06H199.76Zm24.22,0h6.055v6.06H223.98Zm-169.54,6.06H60.5v6.06H54.44Zm6.055,0H66.55v6.06H60.5Zm6.055,0h6.055v6.06H66.55Zm18.165,0H90.77v6.06H84.715Zm6.055,0h6.055v6.06H90.77Zm6.055,0h6.055v6.06H96.825Zm6.055,0h6.055v6.06H102.88Zm18.165,0H127.1v6.06h-6.055Zm6.055,0h6.055v6.06H127.1Zm48.44,0H181.6v6.06H175.54Zm24.22,0h6.055v6.06H199.76Zm18.165,0h6.055v6.06h-6.055ZM6,187.788h6.055v6.06H6Zm6.055,0H18.11v6.06H12.055Zm6.055,0h6.055v6.06H18.11Zm6.055,0H30.22v6.06H24.165Zm6.055,0h6.055v6.06H30.22Zm6.055,0H42.33v6.06H36.275Zm6.055,0h6.055v6.06H42.33Zm12.11,0H60.5v6.06H54.44Zm18.165,0H78.66v6.06H72.605Zm6.055,0h6.055v6.06H78.66Zm12.11,0h6.055v6.06H90.77Zm24.22,0h6.055v6.06H114.99Zm12.11,0h6.055v6.06H127.1Zm12.11,0h6.055v6.06H139.21Zm6.055,0h6.055v6.06h-6.055Zm6.055,0h6.055v6.06H151.32Zm12.11,0h6.055v6.06H163.43Zm12.11,0H181.6v6.06H175.54Zm12.11,0h6.055v6.06H187.65Zm12.11,0h6.055v6.06H199.76Zm6.055,0h6.055v6.06h-6.055Zm6.055,0h6.055v6.06H211.87Zm6.055,0h6.055v6.06h-6.055ZM6,193.847h6.055v6.06H6Zm36.33,0h6.055v6.06H42.33Zm24.22,0h6.055v6.06H66.55Zm6.055,0H78.66v6.06H72.605Zm12.11,0H90.77v6.06H84.715Zm6.055,0h6.055v6.06H90.77Zm12.11,0h6.055v6.06H102.88Zm24.22,0h6.055v6.06H127.1Zm18.165,0h6.055v6.06h-6.055Zm18.165,0h6.055v6.06H163.43Zm6.055,0h6.055v6.06h-6.055Zm6.055,0H181.6v6.06H175.54Zm24.22,0h6.055v6.06H199.76Zm12.11,0h6.055v6.06H211.87ZM6,199.907h6.055v6.06H6Zm12.11,0h6.055v6.06H18.11Zm6.055,0H30.22v6.06H24.165Zm6.055,0h6.055v6.06H30.22Zm12.11,0h6.055v6.06H42.33Zm12.11,0H60.5v6.06H54.44Zm12.11,0h6.055v6.06H66.55Zm12.11,0h6.055v6.06H78.66Zm36.33,0h6.055v6.06H114.99Zm18.165,0h6.055v6.06h-6.055Zm6.055,0h6.055v6.06H139.21Zm12.11,0h6.055v6.06H151.32Zm6.055,0h6.055v6.06h-6.055Zm6.055,0h6.055v6.06H163.43Zm12.11,0H181.6v6.06H175.54Zm6.055,0h6.055v6.06H181.6Zm6.055,0h6.055v6.06H187.65Zm6.055,0h6.055v6.06h-6.055Zm6.055,0h6.055v6.06H199.76Zm18.165,0h6.055v6.06h-6.055Zm6.055,0h6.055v6.06H223.98ZM6,205.967h6.055v6.06H6Zm12.11,0h6.055v6.06H18.11Zm6.055,0H30.22v6.06H24.165Zm6.055,0h6.055v6.06H30.22Zm12.11,0h6.055v6.06H42.33Zm12.11,0H60.5v6.06H54.44Zm6.055,0H66.55v6.06H60.5Zm12.11,0H78.66v6.06H72.605Zm6.055,0h6.055v6.06H78.66Zm6.055,0H90.77v6.06H84.715Zm12.11,0h6.055v6.06H96.825Zm18.165,0h6.055v6.06H114.99Zm12.11,0h6.055v6.06H127.1Zm12.11,0h6.055v6.06H139.21Zm12.11,0h6.055v6.06H151.32Zm6.055,0h6.055v6.06h-6.055Zm6.055,0h6.055v6.06H163.43Zm18.165,0h6.055v6.06H181.6Zm6.055,0h6.055v6.06H187.65Zm36.33,0h6.055v6.06H223.98ZM6,212.026h6.055v6.06H6Zm12.11,0h6.055v6.06H18.11Zm6.055,0H30.22v6.06H24.165Zm6.055,0h6.055v6.06H30.22Zm12.11,0h6.055v6.06H42.33Zm12.11,0H60.5v6.06H54.44Zm6.055,0H66.55v6.06H60.5Zm12.11,0H78.66v6.06H72.605Zm12.11,0H90.77v6.06H84.715Zm6.055,0h6.055v6.06H90.77Zm12.11,0h6.055v6.06H102.88Zm6.055,0h6.055v6.06h-6.055Zm12.11,0H127.1v6.06h-6.055Zm12.11,0h6.055v6.06h-6.055Zm6.055,0h6.055v6.06H139.21Zm48.44,0h6.055v6.06H187.65Zm6.055,0h6.055v6.06h-6.055Zm6.055,0h6.055v6.06H199.76Zm24.22,0h6.055v6.06H223.98ZM6,218.086h6.055v6.06H6Zm36.33,0h6.055v6.06H42.33Zm12.11,0H60.5v6.06H54.44Zm6.055,0H66.55v6.06H60.5Zm6.055,0h6.055v6.06H66.55Zm18.165,0H90.77v6.06H84.715Zm12.11,0h6.055v6.06H96.825Zm6.055,0h6.055v6.06H102.88Zm6.055,0h6.055v6.06h-6.055Zm6.055,0h6.055v6.06H114.99Zm6.055,0H127.1v6.06h-6.055Zm6.055,0h6.055v6.06H127.1Zm6.055,0h6.055v6.06h-6.055Zm18.165,0h6.055v6.06H151.32Zm6.055,0h6.055v6.06h-6.055Zm6.055,0h6.055v6.06H163.43Zm6.055,0h6.055v6.06h-6.055Zm12.11,0h6.055v6.06H181.6Zm6.055,0h6.055v6.06H187.65Zm12.11,0h6.055v6.06H199.76ZM6,224.145h6.055v6.06H6Zm6.055,0H18.11v6.06H12.055Zm6.055,0h6.055v6.06H18.11Zm6.055,0H30.22v6.06H24.165Zm6.055,0h6.055v6.06H30.22Zm6.055,0H42.33v6.06H36.275Zm6.055,0h6.055v6.06H42.33Zm12.11,0H60.5v6.06H54.44Zm12.11,0h6.055v6.06H66.55Zm6.055,0H78.66v6.06H72.605Zm18.165,0h6.055v6.06H90.77Zm12.11,0h6.055v6.06H102.88Zm36.33,0h6.055v6.06H139.21Zm24.22,0h6.055v6.06H163.43Zm12.11,0H181.6v6.06H175.54Zm18.165,0h6.055v6.06h-6.055Zm6.055,0h6.055v6.06H199.76Zm6.055,0h6.055v6.06h-6.055Zm18.165,0h6.055v6.06H223.98Z" transform="translate(-6 -6)" fill="url(#linear-gradient)"/>
          </g>
        </g>
        <g id="qr-code" transform="translate(90 93.613)">
          <path id="Path_57115" data-name="Path 57115" d="M454.012,52.248a3.677,3.677,0,0,1-3.677-3.677V11.032a3.681,3.681,0,0,0-3.677-3.677H409.118a3.677,3.677,0,0,1,0-7.355h37.539A11.045,11.045,0,0,1,457.69,11.032V48.571A3.677,3.677,0,0,1,454.012,52.248Z" transform="translate(-182.541)" fill="url(#linear-gradient)"/>
          <path id="Path_57116" data-name="Path 57116" d="M446.657,457.69H409.118a3.677,3.677,0,0,1,0-7.355h37.539a3.681,3.681,0,0,0,3.677-3.677V409.119a3.677,3.677,0,0,1,7.355,0v37.539A11.045,11.045,0,0,1,446.657,457.69Z" transform="translate(-182.541 -182.541)" fill="url(#linear-gradient)"/>
          <g id="Group_16787" data-name="Group 16787">
            <path id="Path_57139" data-name="Path 57139" d="M3.677,52.248A3.677,3.677,0,0,1,0,48.571V11.032A11.045,11.045,0,0,1,11.032,0H48.571a3.677,3.677,0,0,1,0,7.355H11.032a3.681,3.681,0,0,0-3.677,3.677V48.571A3.677,3.677,0,0,1,3.677,52.248Z" fill="url(#linear-gradient)"/>
            <path id="Path_57140" data-name="Path 57140" d="M48.571,457.69H11.032A11.045,11.045,0,0,1,0,446.658V409.119a3.677,3.677,0,0,1,7.355,0v37.539a3.681,3.681,0,0,0,3.677,3.677H48.571a3.677,3.677,0,1,1,0,7.355Z" transform="translate(0 -182.541)" fill="url(#linear-gradient)"/>
          </g>
        </g>
      </g>
    </g>
  </g>
</svg>
