<svg xmlns="http://www.w3.org/2000/svg" xmlns:xlink="http://www.w3.org/1999/xlink" width="210" height="1082" viewBox="0 0 210 1082">
  <defs>
    <linearGradient id="linear-gradient" x1="0.937" y1="0.809" x2="0.511" y2="0.575" gradientUnits="objectBoundingBox">
      <stop offset="0" stop-color="#0d2640"/>
      <stop offset="0.557" stop-color="#f8fafb"/>
      <stop offset="1" stop-color="#fff"/>
    </linearGradient>
    <filter id="Path_78461" x="-5.541" y="-25.315" width="749.024" height="1176.599" filterUnits="userSpaceOnUse">
      <feOffset dy="6" input="SourceAlpha"/>
      <feGaussianBlur stdDeviation="10" result="blur"/>
      <feFlood flood-opacity="0.161"/>
      <feComposite operator="in" in2="blur"/>
      <feComposite in="SourceGraphic"/>
    </filter>
    <linearGradient id="linear-gradient-2" x1="0.809" y1="0.904" x2="0.117" y2="0.801" gradientUnits="objectBoundingBox">
      <stop offset="0" stop-color="#041e39"/>
      <stop offset="1" stop-color="#57687a"/>
    </linearGradient>
    <filter id="Path_78471" x="-40.722" y="-61.674" width="823.802" height="1199.43" filterUnits="userSpaceOnUse">
      <feOffset dy="8" input="SourceAlpha"/>
      <feGaussianBlur stdDeviation="15" result="blur-2"/>
      <feFlood flood-color="#ececec"/>
      <feComposite operator="in" in2="blur-2"/>
      <feComposite in="SourceGraphic"/>
    </filter>
    <clipPath id="clip-path">
      <rect id="Rectangle_5573" data-name="Rectangle 5573" width="210" height="1082" transform="translate(-69 -1374)" fill="#fff" stroke="#707070" stroke-width="1"/>
    </clipPath>
    <clipPath id="clip-path-2">
      <rect id="Rectangle_5297" data-name="Rectangle 5297" width="1082" height="451.65" transform="translate(4694 118) rotate(90)" fill="#fff" stroke="#707070" stroke-width="1"/>
    </clipPath>
    <linearGradient id="linear-gradient-3" x1="0.934" y1="0.954" x2="0.155" y2="0.812" xlink:href="#linear-gradient-2"/>
    <filter id="Path_78449" x="-40.721" y="-61.674" width="823.802" height="1199.43" filterUnits="userSpaceOnUse">
      <feOffset dy="8" input="SourceAlpha"/>
      <feGaussianBlur stdDeviation="15" result="blur-3"/>
      <feFlood flood-color="#ececec"/>
      <feComposite operator="in" in2="blur-3"/>
      <feComposite in="SourceGraphic"/>
    </filter>
    <filter id="Path_78450" x="-6.284" y="-21.464" width="896.229" height="1174.486" filterUnits="userSpaceOnUse">
      <feOffset dy="8" input="SourceAlpha"/>
      <feGaussianBlur stdDeviation="10" result="blur-4"/>
      <feFlood flood-opacity="0.161"/>
      <feComposite operator="in" in2="blur-4"/>
      <feComposite in="SourceGraphic"/>
    </filter>
    <clipPath id="clip-path-3">
      <g transform="matrix(1, 0, 0, 1, 0, 0)" filter="url(#Path_78461)">
        <path id="Path_78461-2" data-name="Path 78461" d="M155.059-7.65H961.491c85.65,0,155.083,67.6,155.083,150.988v470.74s-50.979,67.3-187.612,67.3c-129.489,0-250.557-116.141-421.619-97.988S337.134,554.467,245.83,554.467,105.418,653.374,54.547,628.81-.025,523.137-.025,523.137v-379.8C-.025,59.95,69.408-7.65,155.059-7.65Z" transform="translate(4991.83 116.71) rotate(90)" fill="url(#linear-gradient)"/>
      </g>
    </clipPath>
    <clipPath id="clip-path-4">
      <g transform="matrix(1, 0, 0, 1, 0, 0)" filter="url(#Path_78471)">
        <path id="Path_78471-2" data-name="Path 78471" d="M185.006,0H960.329a149.1,149.1,0,0,1,149.1,149.1V557.638s-23.893,113.894-95.268,160.949c-29.227,19.271-86.055,19.056-122.889,5.97C767.251,680.5,592.2,602.847,429.494,641.6s-171.949-58.666-267.677-24.093C81.178,638.17,31.432,593.092,11.6,513.195-24.732,366.883,35.905,149.1,35.905,149.1A149.1,149.1,0,0,1,185.006,0Z" transform="translate(5076.84 327.17) rotate(90)" opacity="0.58" fill="url(#linear-gradient-2)"/>
      </g>
    </clipPath>
    <filter id="Path_78451" x="13.297" y="-25.315" width="730.186" height="1146.071" filterUnits="userSpaceOnUse">
      <feOffset dy="6" input="SourceAlpha"/>
      <feGaussianBlur stdDeviation="10" result="blur-5"/>
      <feFlood flood-opacity="0.059"/>
      <feComposite operator="in" in2="blur-5"/>
      <feComposite in="SourceGraphic"/>
    </filter>
  </defs>
  <g id="Group_45384" data-name="Group 45384" transform="translate(69 1374)">
    <g id="Mask_Group_44548" data-name="Mask Group 44548" clip-path="url(#clip-path)">
      <g id="Group_45383" data-name="Group 45383" transform="translate(-1581 -1374)">
        <g id="Mask_Group_644" data-name="Mask Group 644" transform="translate(-2774 -118)" clip-path="url(#clip-path-2)">
          <g id="Group_44398" data-name="Group 44398">
            <g transform="matrix(1, 0, 0, 1, 4286, 118)" filter="url(#Path_78449)">
              <path id="Path_78449-2" data-name="Path 78449" d="M172.941-8.445H948.264a149.1,149.1,0,0,1,149.1,149.1V549.193s-23.893,113.894-95.268,160.949c-29.227,19.271-86.054,19.056-122.889,5.97-124.022-44.06-299.071-121.71-461.779-82.953s-171.949-58.666-267.677-24.093C69.112,629.725,19.367,584.647-.47,504.75-36.8,358.438,23.84,140.656,23.84,140.656A149.1,149.1,0,0,1,172.941-8.445Z" transform="translate(729.64 -12.61) rotate(90)" opacity="0.58" fill="url(#linear-gradient-3)"/>
            </g>
            <g transform="matrix(1, 0, 0, 1, 4286, 118)" filter="url(#Path_78450)">
              <path id="Path_78450-2" data-name="Path 78450" d="M151.735-14.093H959.683c85.482,0,154.779,69.126,154.779,154.4V779.514S1053.471,669.738,876.577,685.5c-103.173,9.2-213.751,128.765-414.8,80.011-233.307-72.136-233.133,75.32-350.88,54.6S.051,652.2.051,652.2v-511.9C.051,55.033,66.253-14.093,151.735-14.093Z" transform="translate(845.85 0.56) rotate(90)" fill="#fff" opacity="0.6"/>
            </g>
            <g id="Mask_Group_645" data-name="Mask Group 645" transform="translate(-52.764 -233.841)" opacity="0.29" clip-path="url(#clip-path-4)">
              <g id="Group_44399" data-name="Group 44399" transform="translate(4987.43 328.937) rotate(90)">
                <path id="Union_14" data-name="Union 14" d="M1076.393,644.388,1062.285,619.6h-28.978l9.914,17.159v.762c-.382.38-.382.762-.762.762l-9.532,5.718h-5.338L1008.9,633.329v11.059h-2.669V631.8l-8.77-4.956-9.914,17.539H984.5l-14.87-25.929-14.87,25.929h-3.049l-10.3-17.539-9.15,5.338v12.2H929.6V633.711l-18.684,10.676h-5.338l-9.532-5.721a.818.818,0,0,1-.762-.762V636.76l9.912-17.157H876.214l-14.108,24.784h-3.049L844.949,619.6H830.841v-2.669h12.581l-12.581-22.115v-5.338l14.87-25.929-14.87-25.926v-5.338l12.581-22.115H830.841V507.5h14.108l14.108-24.784-14.108-24.784H830.841v-2.669h12.581L830.841,433.15v-5.338l14.87-25.926-14.87-25.929v-5.338L843.422,348.5H830.841v-2.669h14.108l13.265-23.3-13.648-23.976H830.459v-2.669h12.583L830.459,273.77v-5.338l14.87-25.929-14.87-25.926v-5.338l12.583-22.115H830.459v-2.669h14.108l14.108-24.784-14.108-24.784H830.459v-2.669h12.583L830.459,112.1v-5.338l14.87-25.929-14.87-25.926V49.569l12.583-22.115H830.459V24.784h14.108L858.674,0h3.051l14.108,24.784h28.978L894.9,7.625V6.483c.383-.382.383-.762.762-.762L905.192,0h5.338l18.684,10.676V0h2.669V12.2l9.152,5.338L950.949,0H954l14.87,25.929L983.738,0h3.052l10.294,17.159,8.77-4.958V0h2.669V10.676L1027.206,0h5.338l9.152,5.721a.82.82,0,0,1,.762.762c.38.38,0,.762,0,1.142l-9.914,17.159h28.978L1075.63,0h3.052l14.488,24.784h14.108v1.907H1094.7l12.581,22.115v5.338l-14.87,25.926L1107.277,106v5.338L1094.7,133.454h12.581v3.431H1093.17l-14.108,24.784,14.108,24.784h14.108v2.669H1094.7l12.581,22.115v5.338l-14.87,25.926,14.87,25.929v5.338L1094.7,295.885h12.581v2.669H1093.17L1079.6,322.385l13.565,23.831h14.49v1.907h-12.583l12.583,22.115v5.336L1092.79,401.5l14.87,25.929v5.338l-12.583,22.115h12.583v2.669h-14.108l-14.108,24.782,14.108,24.784h14.108v3.052h-12.583l12.583,22.115v5.338l-14.87,25.926,14.87,25.929v5.338l-12.583,22.115h12.583V619.6h-14.108l-14.108,24.784Zm-68.25-14.49,21.351,12.2,9.914-5.718-9.914-17.539v.38h-21.351ZM897.949,636l9.912,5.721,20.973-12.583V618.459H907.861Zm179.588,4.958,12.583-22.115h-25.167ZM942.559,623.8l9.914,17.159,14.87-25.547-14.108-24.784h-28.6l-14.87,25.926h20.971a1.218,1.218,0,0,1,1.145,1.145v10.676l8.77-4.956a2.1,2.1,0,0,1,.921-.251A1.048,1.048,0,0,1,942.559,623.8Zm-81.978,17.159,12.963-22.115H848Zm109.811-26.309,14.873,25.926,9.912-17.157a1.675,1.675,0,0,1,1.907-.382l8.77,4.956V617.317c0-.765.762-1.145,1.145-1.527h20.971l-14.87-25.926H984.5Zm92.655,1.525h28.6l14.108-24.784-14.87-25.547L1080.969,583a1.674,1.674,0,0,1-1.907.382l-8.77-4.956V589.1a1.215,1.215,0,0,1-1.142,1.142h-20.973Zm-32.027,0H1060l-14.87-25.929H1016.15Zm-153.282,0h28.98l14.87-25.929H892.611Zm-45.755-24.784,14.108,24.784v-.382h28.6l14.87-25.926H868.589a1.218,1.218,0,0,1-1.145-1.145V578.042L858.674,583c-.762.382-1.525.382-1.907-.38l-9.914-17.159ZM969.25,612.358l12.581-22.115H956.285Zm31.265-49.186,14.108,24.784h28.98l-9.914-17.159v-1.142c.38-.382.38-.765.762-.765l9.532-5.718-9.532-5.721a.818.818,0,0,1-.762-.762v-1.142l9.914-17.159h-28.98Zm36.223,6.863,9.914,17.539h20.971V576.9l-20.971-12.581Zm-50.711,17.539h25.547l-12.966-22.115Zm-45.375-24.784,14.108,24.784h28.6l14.108-24.784-14.108-24.784h-28.6Zm-14.488,24.784h25.547l-12.966-22.115Zm-21.735-32.027v.762c-.38.38-.38.762-.762.762l-9.532,5.718,9.532,5.721a.818.818,0,0,1,.762.762c.382.382,0,.762,0,1.145l-9.914,17.157H923.5L937.6,562.789l-14.108-24.4H894.515ZM870.5,576.9v10.677h20.971l9.914-17.539-9.914-5.718ZM848.38,563.172l9.914,17.539,9.149-5.338v-24.4l-9.149-5.338Zm222.294-12.583v24.784l8.77,4.956,9.914-17.157-9.914-17.539Zm-21.735,12.583,18.684,11.056V552.5ZM870.113,573.848,888.8,562.789l-18.684-10.676Zm166.245-17.922,9.914,5.721,21.35-12.583V538.388h-20.971Zm-166.625-6.483,21.35,12.2L901,555.927,890.7,538.77H869.733Zm211.235-6.1,9.914,17.159,14.87-25.929-14.108-24.784v.382h-28.6l-14.87,25.929h20.973a1.216,1.216,0,0,1,1.142,1.142v10.677l8.77-4.956a2.108,2.108,0,0,1,.922-.251A1.045,1.045,0,0,1,1080.969,543.343ZM998.991,560.5l12.583-22.115H986.407Zm-59.863,0,12.963-22.115H926.545ZM831.983,534.574l15.252,25.547,9.914-17.157a1.678,1.678,0,0,1,1.907-.382l8.77,4.958V536.863a1.216,1.216,0,0,1,1.142-1.145h20.591l-14.87-25.929h-28.6Zm92.654,1.527h28.6l14.108-24.784-14.87-25.929-9.914,17.159a1.678,1.678,0,0,1-1.907.38l-8.77-4.956v10.677c0,.762-.762,1.142-1.524,1.525H909.768Zm91.512-.382h28.978L1060,509.789H1031.02Zm-45.757-24.784L984.5,535.718h28.6l14.87-25.929H1007a1.216,1.216,0,0,1-1.145-1.142V497.588l-8.77,4.958c-.762.38-1.525.38-1.907-.382l-9.912-17.159ZM955.9,535.718h25.547L968.868,513.6Zm-63.294,0h28.978l-14.87-25.929h-28.98ZM954,482.336l14.87,25.929,14.87-25.929-14.87-25.926Zm88.461-6.863v1.145c-.382.382-.382.762-.762.762l-9.532,5.721,9.532,5.718a.822.822,0,0,1,.762.762v.762l-9.914,17.159h28.978l14.108-24.784-14.108-24.784v.382h-28.978Zm-33.936,21.353V507.5h20.971l10.3-17.539-9.914-5.721Zm56.051,10.294h25.547l-12.963-22.115ZM897.949,489.581l10.294,17.539v-.38h20.971V496.064l-21.353-12.2Zm-35.843-7.245,14.108,24.784h28.978l-9.912-17.157v-1.145c.38-.38.38-.762.762-.762l9.532-5.721-9.532-5.718a.82.82,0,0,1-.762-.762v-1.145l9.912-17.157H876.214ZM847.618,507.12h25.164L860.2,485.005ZM986.79,482.336l10.294,17.542,8.77-4.958V469.755l-8.77-4.958Zm-54.907-12.2v24.4l9.152,5.338,10.294-17.542L941.035,464.8Zm76.64,23.26,18.684-10.676-18.684-11.056ZM910.53,482.718l18.684,10.676V471.662Zm97.613-13.725,21.351,12.2,9.914-5.721-9.914-17.539v.382h-21.351Zm-110.194,6.48,9.912,5.721,21.353-12.583V457.934H908.243Zm179.588,4.576,12.583-22.115h-25.167Zm-134.6-17.157,9.912,17.157,14.873-25.929-14.11-24.782h-28.6l-14.87,25.926h20.588a1.218,1.218,0,0,1,1.145,1.145h.382v11.056l8.77-4.956a2.1,2.1,0,0,1,.92-.251A1.049,1.049,0,0,1,942.942,462.892Zm-82.36,17.157,12.583-22.115H847.618ZM970.393,453.74l14.873,25.929,9.912-17.159a1.679,1.679,0,0,1,1.907-.382l8.77,4.958V456.41c0-.382.762-1.145,1.145-1.525h20.971l-14.87-25.929H984.5Zm92.655,1.524h28.6l14.108-24.784-14.87-25.547-9.914,17.159a1.677,1.677,0,0,1-1.907.38l-8.77-4.956v10.676a1.218,1.218,0,0,1-1.142,1.145h-20.973Zm-32.027,0H1060l-14.87-25.926H1016.15Zm-153.282,0h28.98l14.87-25.926H892.611Zm-45.755-24.784,14.108,24.784v-.38h28.6l14.87-25.929H868.589a1.218,1.218,0,0,1-1.145-1.145V417.135l-8.77,4.958c-.762.38-1.525.38-1.907-.382l-9.914-17.157ZM969.25,451.454l12.581-22.115H956.285Zm31.265-49.189,14.108,24.784h28.98l-9.914-17.157v-1.145c.38-.382.38-.762.762-.762l9.532-5.721-9.532-5.718a.82.82,0,0,1-.762-.762V394.64l9.914-17.159h-28.98Zm-59.863,0,14.108,24.784h28.6l14.108-24.784-14.108-24.784h-28.6Zm-36.223-7.245v1.145c-.38.382-.38.762-.762.762l-9.532,5.721,9.532,5.718a.82.82,0,0,1,.762.762v.765l-9.914,17.157H923.5L937.6,402.265l-14.108-24.4H894.515Zm-34.316,21.353v10.676h20.971l10.3-17.539-9.914-5.718Zm166.245-7.245,10.294,17.542h20.971V415.993l-21.35-12.583Zm-50.331,17.542h25.547l-12.966-22.115Zm-59.863,0h25.547l-12.966-22.115ZM848,402.647l10.294,17.539,9.152-5.338V390.064l-9.152-5.338Zm222.294-12.583v24.784l8.77,4.956,10.3-17.539-10.3-17.157Zm-21.353,12.2,18.684,10.676V391.209ZM870.113,412.941,888.8,401.885l-18.684-10.677Zm166.245-17.922,9.914,5.721,21.35-12.583V377.481h-20.971Zm-166.625-6.48,21.35,12.2L901,395.02,890.7,377.481H869.733Zm211.235-6.1,9.914,17.157,14.87-25.926-14.108-24.4h-28.6l-14.87,25.929h20.973a1.218,1.218,0,0,1,1.142,1.145v10.677l8.77-4.958a2.115,2.115,0,0,1,.92-.249A1.047,1.047,0,0,1,1080.969,382.439ZM998.991,399.6l12.583-22.115H986.407Zm-59.863,0,12.963-22.115H926.545ZM831.983,373.669l15.252,25.547,9.914-17.159a1.677,1.677,0,0,1,1.907-.38l8.77,4.956V375.956a1.216,1.216,0,0,1,1.142-1.145h20.591l-14.87-25.926h-28.6Zm92.654,1.525h28.6l14.108-24.784-14.87-25.929-9.914,17.159a1.679,1.679,0,0,1-1.907.382l-8.77-4.958V347.74c0,.762-.762,1.145-1.524,1.525H909.768Zm91.512-.382h28.978L1060,348.885H1031.02Zm-45.757-24.784L984.5,374.811h28.6l14.87-25.926H1007a1.218,1.218,0,0,1-1.145-1.145V337.064l-8.77,4.958c-.762.38-1.525.38-1.907-.382l-9.912-17.159Zm-14.108,24.784h25.547L968.868,352.7Zm-63.674,0h28.978l-14.87-25.926h-28.98Zm76.64-27.833,14.214-24.784L969.25,297.409l-14.214,24.784Zm94.941-.382h25.547l-12.583-22.115Zm-55.669-11.056V346.6h20.971l10.3-17.539-9.914-5.718Zm33.554-8.39a.82.82,0,0,1,.762.762c.382.382,0,.765,0,1.145l-9.912,17.159H1061.9l13.565-23.831L1061.9,298.554h-28.978l9.912,17.157v.762c-.38.382-.38.765-.762.765l-8.261,4.956Zm-144.128,1.527,10.294,17.539h20.971V335.157L908.53,323.338H907.2Zm-50.331,17.539h25.164L860.2,324.1Zm28.6-.382h28.978l-9.912-17.157v-1.145c.38-.382.38-.762.762-.762l7.435-4.462-7.817-4.69a.822.822,0,0,1-.762-.762v-1.145l9.914-17.157H875.834L862.567,321.86Zm120.87-7.245,8.77-4.956V310.755l-8.77-4.958-9.266,16.4Zm-64.819-17.539v12.2l9.15,5.338,9.255-16.373L941.035,305.8l-9.152,5.338v9.914Zm76.258,11.059,17.35-9.914-17.35-9.914v19.828Zm-78.927-.382v-8.387h-.382V312.662l-16.49,9.423Zm78.547-23.64,21.353,12.2,9.912-5.718-9.912-17.542v.382h-21.353Zm-110.194,6.483,9.912,5.718L928.834,307.7V297.027H907.861Zm179.588,4.573,12.583-22.115h-25.167ZM970.4,293.216l14.87,25.926,9.912-17.157a1.679,1.679,0,0,1,1.907-.382l8.77,4.958V295.885a1.7,1.7,0,0,1,1.145-1.527h20.971l-14.87-25.926H984.5Zm-27.836,8.77,9.914,17.157,14.87-25.547-14.108-24.784h-28.6l-14.87,25.929h20.973a1.218,1.218,0,0,1,1.142,1.145v10.676l8.77-4.958a2.111,2.111,0,0,1,.919-.249A1.05,1.05,0,0,1,942.559,301.985Zm-81.978,17.157,12.963-22.115H848Zm202.468-24.784h28.6l14.108-24.782-14.87-25.549-9.914,17.159a1.677,1.677,0,0,1-1.907.382l-8.77-4.958v10.676a1.216,1.216,0,0,1-1.142,1.145h-20.973Zm-32.029,0H1060l-14.87-25.926H1016.15Zm-153.28,0h28.978l14.87-25.926H892.611Zm-45.757-24.782,14.108,24.782v-.38h28.6l14.87-25.929H868.589a1.216,1.216,0,0,1-1.145-1.142V256.23l-8.77,4.956c-.762.382-1.525.382-1.907-.382l-9.912-17.157ZM969.25,290.547l12.583-22.115H956.287Zm31.265-48.806,14.108,24.784h28.98l-9.914-17.159v-1.142c.38-.382.38-.762.762-.762l9.532-5.721-9.532-5.718a.82.82,0,0,1-.762-.765v-1.142l9.914-17.159h-28.98Zm-59.863-.382,14.108,24.784h28.6l14.108-24.784-14.108-24.782h-28.6Zm-36.223-7.243v.762c-.38.38-.38.762-.762.762l-9.532,5.718,9.532,5.721a.82.82,0,0,1,.762.762c.382.382,0,.762,0,1.145l-9.912,17.157H923.5L937.6,241.358l-14.108-24.4H894.518ZM870.5,255.466v10.676h20.971L901.38,248.6l-9.914-5.718Zm166.243-7.243,9.914,17.539h20.971V255.086L1046.652,242.5Zm-50.711,17.539h25.547l-12.963-22.115Zm-59.863,0h25.547l-12.583-21.735Zm144.51-36.985v25.164l8.77,4.958,9.914-17.542-9.914-17.539ZM848.38,241.358l9.914,17.542,9.149-5.338v-24.4l-9.149-5.338Zm200.561,0,18.681,11.059V230.684ZM870.113,252.034,888.8,240.978,870.113,230.3Zm166.245-17.919,9.914,5.718,21.35-12.583V216.576h-20.971Zm-166.625-6.483,21.35,12.2L901,234.115,890.7,216.956H869.733Zm211.235-6.1,9.914,17.159,14.87-25.929-14.108-24.784v.382h-28.6l-14.872,25.926h20.973a1.218,1.218,0,0,1,1.142,1.145v10.676l8.77-4.958a2.122,2.122,0,0,1,.921-.249A1.046,1.046,0,0,1,1080.969,221.532Zm-81.978,17.159,12.583-22.115H986.407Zm-59.863,0,12.963-22.115H926.545ZM831.983,212.762l15.252,25.547,9.914-17.159a1.678,1.678,0,0,1,1.907-.38l8.77,4.956V215.049a1.216,1.216,0,0,1,1.142-1.142h20.591l-14.87-25.929h-28.6Zm92.654,1.525h28.6L967.344,189.5l-14.87-25.926-9.914,17.157a1.679,1.679,0,0,1-1.907.382l-8.77-4.958v10.676c0,.762-.762,1.145-1.524,1.527H909.768Zm91.512-.38h28.978L1060,187.978H1031.02ZM970.4,189.123,984.5,213.907h28.6l14.87-25.929H1007a1.218,1.218,0,0,1-1.145-1.145V175.777l-8.77,4.956c-.762.382-1.525.382-1.907-.38l-9.912-17.159ZM955.9,213.907h25.547l-12.583-22.115Zm-63.294,0h28.978l-14.87-25.929H877.741Zm61.387-53,14.87,25.926,14.87-25.926-14.87-25.929Zm110.576,24.784h25.547l-12.963-22.115Zm-22.115-32.029v1.145c-.382.38-.382.762-.762.762l-9.532,5.718,9.532,5.721a.82.82,0,0,1,.762.762v.762l-9.914,17.159h28.978l14.108-24.784-14.108-24.784v.38h-28.978Zm-33.936,21.353v10.676H1029.5l10.294-17.542-9.914-5.718ZM897.949,168.15l10.294,17.542v-.382h20.971V174.632l-21.353-12.2Zm-35.843-7.243,14.108,24.784h28.978l-9.912-17.159v-1.145c.38-.38.38-.762.762-.762l9.532-5.718-9.532-5.721a.818.818,0,0,1-.762-.762v-1.145l9.912-17.157H876.214Zm-14.488,24.784h25.164L860.2,163.576ZM931.883,148.7v24.4l9.152,5.338,10.294-17.539-10.294-17.539Zm54.907,11.821,10.294,17.539,8.77-4.956V147.941l-8.77-4.956Zm21.733,11.059,18.684-10.676-18.684-11.059ZM910.53,160.907l18.684,10.676V150.23Zm97.613-13.728,21.353,12.2,9.912-5.718-9.912-17.539v.38h-21.353Zm-110.194,6.483,9.912,5.718L929.214,146.8V136.123H908.243Zm44.993-12.2,9.912,17.157,14.873-25.926-14.108-24.784h-28.6l-14.87,25.926h20.591a1.218,1.218,0,0,1,1.142,1.145h.382v11.059l8.77-4.958a2.112,2.112,0,0,1,.919-.249A1.05,1.05,0,0,1,942.942,141.461Zm134.6,16.777,12.583-22.115h-25.167ZM970.4,132.309l14.87,25.929,9.912-17.159a1.678,1.678,0,0,1,1.907-.38l8.77,4.956V134.978a1.7,1.7,0,0,1,1.145-1.525h20.971l-14.87-25.929H984.5ZM860.581,158.238l12.583-22.115H847.618Zm202.468-24.784h28.6l14.108-24.4-14.87-25.926-9.914,17.157a1.677,1.677,0,0,1-1.907.382l-8.77-4.956V106.38a1.216,1.216,0,0,1-1.142,1.145h-20.973Zm-32.029,0H1060l-14.87-25.929H1016.15Zm-153.28,0h28.978l14.87-25.929H892.611Zm-45.757-24.784,14.108,24.784v-.382h28.6l14.87-25.926H868.589A1.218,1.218,0,0,1,867.444,106V95.324l-8.77,4.956c-.762.382-1.525.382-1.907-.38L846.856,82.74ZM969.25,129.64l12.583-22.115H956.287Zm31.265-48.806,14.108,24.784h28.98l-9.914-17.157V87.316c.38-.382.38-.762.762-.762l9.532-5.721-9.532-5.718a.82.82,0,0,1-.762-.762V73.208l9.914-17.159h-28.98Zm-14.488,24.4h25.547L998.611,83.123ZM940.652,80.453l14.108,24.784h28.6l14.108-24.784L983.358,55.669h-28.6Zm-14.488,24.784h25.547L938.746,83.123ZM904.429,73.208v1.145c-.38.38-.38.762-.762.762l-9.532,5.718,9.532,5.721a.818.818,0,0,1,.762.762v.762l-9.912,17.159H923.5L937.6,80.453,923.5,56.049H894.518Zm-34.7,21.353v10.676H890.7L901,87.7l-9.532-5.721Zm166.625-7.245,10.294,17.539h20.971V94.179L1046.273,81.6ZM848,80.833l10.3,17.542,9.149-5.338V68.252l-9.149-5.338Zm222.294-12.581V93.037l8.77,4.956,10.3-17.539-10.3-17.159Zm-21.351,12.2,18.681,10.676V69.395ZM870.113,91.13,888.8,80.071,870.113,69.395Zm166.245-17.922,9.914,5.721,21.35-12.583V55.669h-20.971ZM869.733,66.726l21.35,12.2L901,73.208,890.7,56.049H869.733Zm211.235-6.1,9.914,17.159,14.87-25.929-14.108-24.4h-28.6l-14.872,25.929h20.973a1.215,1.215,0,0,1,1.142,1.142V65.2l8.77-4.956a2.115,2.115,0,0,1,.923-.251A1.044,1.044,0,0,1,1080.969,60.625ZM998.991,77.784l12.583-22.115H986.407Zm-59.863,0,12.963-22.115H926.545ZM831.983,51.855,847.236,77.4l9.914-17.157a1.679,1.679,0,0,1,1.907-.382l8.77,4.958V54.145A1.216,1.216,0,0,1,868.969,53h20.591l-14.87-25.929h-28.6Zm184.167,1.527h28.978L1060,27.453H1031.02Zm-91.512,0h28.6L967.344,28.6,952.474,2.669l-9.914,17.159a1.678,1.678,0,0,1-1.907.38l-8.77-4.956V25.929a1.639,1.639,0,0,1-1.524,1.525H909.768ZM970.4,28.216,984.5,53h28.6l14.87-25.929H1007a1.216,1.216,0,0,1-1.145-1.142V15.252l-8.77,4.956c-.762.382-1.525.382-1.907-.38L985.265,2.669ZM956.287,53h25.547L968.868,30.885Zm-63.676,0h28.978l-14.87-25.929H877.741Zm171.581-28.216h25.547L1077.157,2.669Zm-55.669-11.059V24.784H1029.5L1039.79,7.245l-9.914-5.721ZM897.949,7.245l10.294,17.539h20.971V13.725l-21.353-12.2ZM847.618,24.784h25.164L860.2,2.669Zm-48.047,619.6L785.464,619.6H756.486l9.914,17.159v.762c-.382.38-.382.762-.762.762l-9.534,5.718h-5.338l-18.681-10.677v11.059h-2.669V631.8l-8.77-4.956-9.914,17.539h-3.052l-14.87-25.929-14.87,25.929h-3.052l-10.294-17.539-9.149,5.338v12.2h-2.669V633.711l-18.684,10.676h-5.338l-9.532-5.721a.82.82,0,0,1-.765-.762V636.76L628.37,619.6H599.392l-14.108,24.784h-3.052L568.125,619.6H554.017v-2.669H566.6l-12.583-22.115v-5.338l14.873-25.929-14.873-25.926v-5.338L566.6,510.172H554.017V507.5h14.108l14.108-24.784-14.108-24.784H554.017v-2.669H566.6L554.017,433.15v-5.338l14.873-25.926-14.873-25.929v-5.338L566.6,348.5H554.017v-2.669h14.108l13.266-23.306-13.646-23.973H539.53l-13.565,23.831,13.565,23.831h14.108v1.907H541.054l12.583,22.115v5.336L538.767,401.5l14.87,25.929v5.338l-12.583,22.115h12.583v2.669H539.53l-14.108,24.782L539.53,507.12h14.108v3.052H541.054l12.583,22.115v5.338l-14.87,25.926,14.87,25.929v5.338l-12.583,22.115h12.583V619.6H539.53l-14.108,24.784H522.37L508.262,619.6H479.285l9.914,17.159v.762c-.382.38-.382.762-.762.762l-9.532,5.718h-5.338l-18.684-10.677v11.059h-2.669V631.8l-8.77-4.956-9.914,17.539h-3.049l-14.873-25.929-14.87,25.929h-3.049l-10.3-17.539-9.15,5.338v12.2h-2.669V633.711L356.89,644.388h-5.338l-9.532-5.721a.818.818,0,0,1-.762-.762V636.76l9.912-17.157H322.191l-14.108,24.784h-3.049L290.927,619.6H276.819v-2.669H289.4l-12.581-22.115v-5.338l14.87-25.929-14.87-25.926v-5.338L289.4,510.172H276.819V507.5h14.108l14.108-24.784-14.108-24.784H277.2v-2.669h12.583L277.2,433.15v-5.338l14.87-25.926L277.2,375.956v-5.338L289.782,348.5H277.2v-2.669h14.108l13.266-23.306-13.646-23.973H276.819v-2.669H289.4L276.819,273.77v-5.338l14.87-25.929-14.87-25.926v-5.338L289.4,189.123H276.819v-2.669h14.108l14.108-24.784-14.108-24.784H276.819v-2.669H289.4L276.819,112.1v-5.338l14.87-25.929-14.87-25.926V49.569L289.4,27.453H276.819V24.784h14.108L305.034,0h3.049l14.108,24.784h28.978L341.258,7.625V6.483c.38-.382.38-.762.762-.762L351.552,0h5.338l18.3,10.676V0h2.669V12.2l9.152,5.338L396.927,0h3.049l15.253,25.929L430.1,0h3.051l9.912,17.159,8.77-4.958V0H454.5V10.676L473.184,0h5.338l9.532,5.721a.818.818,0,0,1,.762.762c.382.38,0,.762,0,1.142L478.9,24.784h28.978L521.99,0h3.049l14.49,24.784h28.216L581.853,0H584.9L599.01,24.784h28.98L618.076,7.625V6.483c.38-.382.38-.762.762-.762L628.37,0h5.338l18.684,10.676V0h2.669V12.2l9.152,5.338L674.125,0h3.051l14.87,25.929L706.917,0h3.052l10.294,17.159,8.77-4.958V0H731.7V10.676L750.385,0h5.338l9.15,5.721a.82.82,0,0,1,.765.762c.38.38,0,.762,0,1.142l-9.914,17.159H784.7L798.809,0h3.052l14.488,24.784h13.728v1.907H817.493l12.583,22.115v5.338l-14.87,25.926L830.076,106v5.338l-12.583,22.115h12.583v3.431H815.969l-14.108,24.784,14.108,24.784h14.108v2.669H817.493l12.583,22.115v5.338L815.206,242.5l14.87,25.929v5.338l-12.583,22.115h12.583v2.669H815.969l-13.375,23.5,13.755,24.165h13.728v1.907H817.493l12.583,22.115v5.336L815.206,401.5l14.87,25.929v5.338l-12.583,22.115h12.583v2.669H815.969l-14.108,24.782,14.108,24.784h14.108v3.052H817.493l12.583,22.115v5.338l-14.87,25.926,14.87,25.929v5.338l-12.583,22.115h12.583V619.6H815.969l-14.108,24.784Zm-68.25-14.49,21.35,12.2,9.914-5.718-9.914-17.539v.38h-21.35Zm-276.821,0,21.353,12.2,9.914-5.718-9.914-17.539v.38H454.5ZM621.125,636l9.914,5.721,20.971-12.583V618.459H631.039Zm-276.819,0,9.914,5.721,20.971-12.583V618.459H354.221Zm456.41,4.958L813.3,618.841H788.133ZM665.738,623.8l9.914,17.159,14.87-25.547-14.108-24.784h-28.6l-14.87,25.926h20.971a1.218,1.218,0,0,1,1.145,1.145v10.676l8.77-4.956a2.1,2.1,0,0,1,.921-.251A1.048,1.048,0,0,1,665.738,623.8Zm-82.36,17.159,12.966-22.115H570.794Zm-59.863,0L536.1,618.841H510.932ZM388.537,623.8l9.914,17.159,14.87-25.547-14.108-24.784h-28.6l-14.87,25.926h20.973a1.218,1.218,0,0,1,1.142,1.145v10.676l8.77-4.956a2.106,2.106,0,0,1,.922-.251A1.045,1.045,0,0,1,388.537,623.8Zm-81.978,17.159,12.963-22.115H293.976Zm387.012-26.309,14.87,25.926,9.914-17.157a1.674,1.674,0,0,1,1.907-.382l8.77,4.956V617.317c0-.765.382-1.145,1.145-1.527h20.971l-14.87-25.926h-28.6Zm-277.2,0,14.87,25.926,9.912-17.157a1.675,1.675,0,0,1,1.907-.382l8.77,4.956V617.317c0-.765.765-1.145,1.145-1.527h20.971l-14.87-25.926h-28.6Zm369.853,1.525h28.6l14.108-24.784-14.87-25.547L804.147,583a1.675,1.675,0,0,1-1.907.382l-8.769-4.956V589.1a1.216,1.216,0,0,1-1.145,1.142H771.356Zm-32.027,0h28.978l-14.87-25.929h-28.98Zm-153.662,0h28.978l14.87-25.929H615.407Zm-45.375-24.784,14.108,24.784v-.382h28.6l14.87-25.926H591.767a1.218,1.218,0,0,1-1.145-1.145V578.042L581.853,583c-.762.382-1.525.382-1.907-.38l-9.914-17.159Zm-45.755,24.784h28.6l14.108-24.784-14.87-25.547L527.329,583a1.675,1.675,0,0,1-1.907.382l-8.77-4.956V589.1a1.218,1.218,0,0,1-1.145,1.142H494.537Zm-32.029,0h28.98l-14.873-25.929H462.508Zm-153.659,0H352.7l14.87-25.929H338.588Zm-45.375-24.784,14.108,24.784v-.382h28.6l14.873-25.926H314.946a1.218,1.218,0,0,1-1.142-1.145V578.042L305.034,583c-.762.382-1.527.382-1.907-.38l-9.914-17.159Zm414.086,20.971,12.581-22.115H679.464Zm-277.2,0,12.583-22.115H402.265Zm308.466-49.186L737.8,587.956H766.78L756.868,570.8v-1.142c.38-.382.38-.765.762-.765l9.532-5.718-9.532-5.721a.818.818,0,0,1-.762-.762v-1.142l9.912-17.159H737.8Zm-277.2,0L460.6,587.956h28.98L479.667,570.8v-1.142c.38-.382.38-.765.762-.765l9.532-5.718-9.532-5.721a.818.818,0,0,1-.762-.762v-1.142l9.914-17.159H460.6Zm313.424,6.863,9.914,17.539H790.8V576.9l-20.971-12.581Zm-50.711,17.539h25.547l-12.966-22.115Zm-45.375-24.784,14.108,24.784h28.6l14.108-24.784-14.108-24.784h-28.6Zm-14.49,24.784h25.546l-12.963-22.115Zm-22.115-32.027v.762c-.38.38-.38.762-.762.762l-9.532,5.718,9.532,5.721a.818.818,0,0,1,.762.762c.382.382,0,.762,0,1.145l-9.912,17.157h28.978L660.4,562.789l-14.108-24.4H617.314ZM593.672,576.9v10.677h20.973l9.912-17.539-9.912-5.718ZM483.1,570.035l9.914,17.539h20.971V576.9l-20.971-12.581Zm-50.713,17.539h25.547l-12.963-22.115ZM386.63,562.789l14.108,24.784h28.6l14.108-24.784-14.108-24.784h-28.6Zm-14.488,24.784h25.547l-12.966-22.115Zm-21.735-32.027v.762c-.38.38-.38.762-.762.762l-9.532,5.718,9.532,5.721a.818.818,0,0,1,.762.762c.382.382,0,.762,0,1.145l-9.914,17.157h28.98l14.108-24.784-14.108-24.4h-28.98ZM316.473,576.9v10.677h20.971l9.914-17.539-9.914-5.718Zm255.086-13.725,9.912,17.539,9.152-5.338v-24.4l-9.152-5.338Zm-277.2,0,9.914,17.539,9.15-5.338v-24.4l-9.15-5.338Zm499.113-12.583v24.784l8.769,4.956,9.914-17.157-9.914-17.539Zm-276.819,0v24.784l8.77,4.956,9.914-17.157-9.914-17.539Zm255.466,12.583L790.8,574.228V552.5Zm-277.2,0L513.6,574.228V552.5Zm98.373,10.677,18.684-11.059-18.684-10.676Zm-277.2,0,18.684-11.059-18.684-10.676Zm443.446-17.922,9.912,5.721L790.8,549.064V538.388H769.831ZM592.91,549.444l21.353,12.2,9.914-5.721L613.883,538.77H592.91Zm-110.194,6.483,9.914,5.721,21.353-12.583V538.388H493.013Zm-166.625-6.483,21.353,12.2,9.914-5.721-10.3-17.157H316.091Zm488.057-6.1,9.914,17.159,14.87-25.929-14.108-24.784v.382h-28.6L771.356,536.1h20.971a1.216,1.216,0,0,1,1.145,1.142v10.677l8.769-4.956a2.106,2.106,0,0,1,.921-.251A1.048,1.048,0,0,1,804.147,543.343ZM722.169,560.5l12.963-22.115H709.586Zm-60.245,0,12.963-22.115H649.341ZM526.946,543.343l9.914,17.159,14.87-25.929-14.108-24.784v.382h-28.6L494.157,536.1h20.971a1.216,1.216,0,0,1,1.142,1.142v10.677l8.769-4.956a2.116,2.116,0,0,1,.923-.251A1.044,1.044,0,0,1,526.946,543.343ZM444.968,560.5l12.963-22.115H432.385Zm-59.863,0,12.583-22.115H372.522Zm170.056-25.929,15.253,25.547,9.914-17.157a1.677,1.677,0,0,1,1.907-.382l8.77,4.958V536.863a1.216,1.216,0,0,1,1.142-1.145h20.591l-14.87-25.929h-28.6Zm-277.2,0,15.252,25.547,9.914-17.157a1.679,1.679,0,0,1,1.907-.382l8.77,4.958V536.863a1.216,1.216,0,0,1,1.145-1.145h20.588l-14.87-25.929h-28.6ZM647.816,536.1h28.6l14.108-24.784-14.87-25.929-9.914,17.159a1.678,1.678,0,0,1-1.907.38l-8.77-4.956v10.677c0,.762-.762,1.142-1.525,1.525H632.946Zm-277.2,0h28.6l14.108-24.784-14.87-25.929-9.914,17.159a1.678,1.678,0,0,1-1.907.38l-8.77-4.956v10.677c0,.762-.38,1.142-1.525,1.525H355.745Zm368.711-.382h28.98l14.87-25.929H754.2Zm-45.755-24.784,14.108,24.784h28.6l14.87-25.929H730.177a1.216,1.216,0,0,1-1.145-1.142V497.588l-8.77,4.958c-.762.38-1.524.38-1.907-.382l-9.914-17.159Zm-14.488,24.784H704.63L692.047,513.6Zm-63.3,0h28.98l-14.873-25.929H600.917Zm-153.28,0h28.978l14.873-25.929h-28.98Zm-45.755-24.784,13.728,24.784h28.6l14.87-25.929H452.976a1.218,1.218,0,0,1-1.145-1.142h.382V497.588l-8.77,4.958c-.762.38-1.525.38-1.907-.382l-9.914-17.159Zm-14.488,24.784h25.547L415.228,513.6Zm-63.3,0h28.978l-14.87-25.929H324.1Zm338.208-53.382,14.87,25.929,14.87-25.929-14.87-25.926Zm-276.819,0,14.87,25.929,14.87-25.929-14.87-25.926Zm365.28-6.863v1.145c-.382.382-.382.762-.765.762l-9.532,5.721,9.532,5.718a.822.822,0,0,1,.765.762v.762L755.723,507.5H784.7l14.108-24.784L784.7,457.934v.382H755.723ZM731.7,496.826V507.5h20.971l10.3-17.539-9.914-5.721ZM488.816,475.473v1.145c-.38.382-.38.762-.762.762l-9.532,5.721,9.532,5.718a.82.82,0,0,1,.762.762v.762L478.9,507.5h28.978l14.108-24.784-14.108-24.784v.382H478.9Zm-33.934,21.353V507.5h20.971l10.294-17.539-9.912-5.721Zm332.87,10.294H813.3l-12.966-22.115ZM621.125,489.581l10.3,17.539v-.38h20.971V496.064l-21.353-12.2Zm-35.841-7.245,14.108,24.784H628.37l-9.914-17.157v-1.145c.382-.38.382-.762.765-.762l9.532-5.721-9.532-5.718a.822.822,0,0,1-.765-.762v-1.145l9.914-17.157H599.392Zm-14.49,24.784h25.167l-12.583-22.115Zm-60.243,0H536.1l-12.963-22.115ZM343.927,489.581l10.294,17.539v-.38h20.971V496.064l-21.353-12.2Zm-35.843-7.245,14.108,24.784h28.978l-9.912-17.157v-1.145c.38-.38.38-.762.762-.762l9.532-5.721-9.532-5.718a.82.82,0,0,1-.762-.762v-1.145l9.912-17.157H322.191ZM293.976,507.12h25.167l-12.583-22.115Zm415.993-24.784,10.294,17.542,8.77-4.958V469.755l-8.77-4.958Zm-54.907-12.2v24.4l9.152,5.338,10.294-17.542L664.214,464.8Zm-222.294,12.2,10.294,17.542,8.77-4.958V469.755l-8.77-4.958Zm-54.907-12.2v24.4l9.152,5.338,10.294-17.542L387.012,464.8ZM731.7,493.395l18.684-10.676L731.7,471.662Zm-97.993-10.676,18.684,10.676V471.662ZM454.5,493.395l18.684-10.676L454.5,471.662Zm-97.993-10.676,18.684,10.676V471.662Zm374.814-13.725,21.35,12.2,9.914-5.721-9.914-17.539v.382h-21.35Zm-110.2,6.48,9.914,5.721,21.353-12.583V457.934H631.422ZM454.5,468.993l21.353,12.2,9.914-5.721-9.914-17.539v.382H454.5Zm-110.194,6.48,9.914,5.721,21.353-12.583V457.934H354.6Zm456.41,4.576L813.3,457.934H788.133Zm-134.6-17.157,9.914,17.157L690.9,454.12l-14.108-24.782H648.2l-14.87,25.926h20.588a1.218,1.218,0,0,1,1.145,1.145h.382v11.056l8.77-4.956a2.1,2.1,0,0,1,.92-.251A1.044,1.044,0,0,1,666.118,462.892ZM583.76,480.049l12.581-22.115H570.794Zm-60.245,0L536.1,457.934H510.932Zm-134.6-17.157,9.912,17.157L413.7,454.12,399.6,429.338H371l-14.87,25.926h20.591a1.218,1.218,0,0,1,1.142,1.145h.382v11.056l8.77-4.956a2.1,2.1,0,0,1,.92-.251A1.048,1.048,0,0,1,388.919,462.892Zm-81.978,17.157,12.581-22.115H293.976Zm386.63-26.309,14.87,25.929,9.914-17.159a1.678,1.678,0,0,1,1.907-.382l8.77,4.958V456.41a2.041,2.041,0,0,1,1.145-1.525h20.971l-14.87-25.929h-28.6Zm-277.2,0,14.87,25.929,9.912-17.159a1.679,1.679,0,0,1,1.907-.382l8.77,4.958V456.41c0-.382.765-1.145,1.145-1.525h20.971l-14.87-25.929h-28.6Zm369.853,1.524h28.6l14.108-24.784-14.87-25.547-9.914,17.159a1.678,1.678,0,0,1-1.907.38l-8.769-4.956v10.676a1.218,1.218,0,0,1-1.145,1.145H771.356Zm-32.027,0h28.978l-14.87-25.926h-28.98Zm-153.282,0h28.978l14.873-25.926h-28.98Zm-45.755-24.784,14.108,24.784v-.38h28.216l14.87-25.929H591.767a1.218,1.218,0,0,1-1.145-1.145V417.135l-8.77,4.958c-.762.38-1.525.38-1.907-.382l-9.914-17.157Zm-45.755,24.784h28.6l14.108-24.784-14.87-25.547-9.914,17.159a1.678,1.678,0,0,1-1.907.38l-8.77-4.956v10.676a1.22,1.22,0,0,1-1.145,1.145H494.537Zm-32.029,0h28.98l-14.873-25.926H462.508Zm-153.659,0H352.7l14.87-25.926H338.588Zm-45.375-24.784,14.108,24.784v-.38h28.216l14.87-25.929H314.946a1.218,1.218,0,0,1-1.142-1.145V417.135l-8.77,4.958c-.762.38-1.527.38-1.907-.382l-9.914-17.157Zm413.7,20.973,12.583-22.115H679.084Zm-276.819,0,12.583-22.115H402.265Zm308.466-49.189L737.8,427.049H766.78l-9.912-17.157v-1.145c.38-.382.38-.762.762-.762l9.532-5.721-9.532-5.718a.82.82,0,0,1-.762-.762V394.64l9.912-17.159H737.8Zm-59.863,0,14.108,24.784h28.6l14.108-24.784-14.108-24.784h-28.6Zm-36.605-7.245v1.145c-.38.382-.38.762-.762.762l-9.532,5.721,9.532,5.718a.82.82,0,0,1,.762.762v.765l-9.912,17.157h28.978L660.4,402.265l-14.108-24.4H617.314Zm-33.934,21.353v10.676h20.971l10.294-17.539-9.912-5.718Zm-146.8-14.108L460.6,427.049h28.98l-9.914-17.157v-1.145c.38-.382.38-.762.762-.762l9.532-5.721-9.532-5.718a.82.82,0,0,1-.762-.762V394.64l9.914-17.159H460.6Zm-59.863,0,14.108,24.784h28.6l14.108-24.784-14.108-24.784h-28.6Zm-36.223-7.245v1.145c-.38.382-.38.762-.762.762l-9.532,5.721,9.532,5.718a.82.82,0,0,1,.762.762v.765l-9.914,17.157h28.98l14.108-24.784-14.108-24.4h-28.98Zm-34.316,21.353v10.676h20.971l10.3-17.539-9.914-5.718Zm443.446-7.245,10.294,17.542H790.8V415.993L769.449,403.41Zm-50.331,17.542h25.547l-12.966-22.115Zm-59.865,0h25.546l-12.963-22.115ZM482.716,409.128l10.3,17.542h20.971V415.993L492.63,403.41Zm-50.331,17.542h25.547l-12.963-22.115Zm-60.243,0h25.547l-12.966-22.115Zm199.034-24.022,10.294,17.539,9.152-5.338V390.064l-9.152-5.338Zm-276.819,0,10.294,17.539,9.152-5.338V390.064l-9.152-5.338Zm499.113-12.583v24.784l8.769,4.956,10.294-17.539L802.24,385.108Zm-277.2,0v24.784l8.769,4.956,10.3-17.539-10.3-17.157Zm255.848,12.2L790.8,412.941V391.209ZM593.292,412.941l18.684-11.056-18.684-10.677Zm-98.373-10.676L513.6,412.941V391.209ZM316.091,412.941l18.684-11.056-18.684-10.677ZM759.537,395.02l9.912,5.721L790.8,388.157V377.481H769.831Zm-166.628-6.48,21.353,12.2,9.914-5.721-10.294-17.539H592.91Zm-110.194,6.48,9.914,5.721,21.353-12.583V377.481H493.013Zm-166.625-6.48,21.353,12.2,9.914-5.721-10.3-17.539H316.091Zm488.057-6.1,9.914,17.157,14.87-25.926-14.108-24.4h-28.6l-14.87,25.929h20.971a1.218,1.218,0,0,1,1.145,1.145v10.677l8.769-4.958a2.113,2.113,0,0,1,.919-.249A1.05,1.05,0,0,1,804.147,382.439ZM722.169,399.6l12.963-22.115H709.586Zm-60.245,0,12.963-22.115H649.341Zm-134.6-17.157,9.914,17.157,14.87-25.926-14.108-24.4h-28.6l-14.87,25.929h20.971a1.218,1.218,0,0,1,1.145,1.145v10.677l8.77-4.958a2.113,2.113,0,0,1,.919-.249A1.05,1.05,0,0,1,527.329,382.439ZM444.968,399.6l12.963-22.115H432.385Zm-59.863,0,12.583-22.115H372.522Zm170.056-25.926,15.253,25.547,9.914-17.159a1.676,1.676,0,0,1,1.907-.38l8.77,4.956V375.956a1.216,1.216,0,0,1,1.142-1.145h20.591l-14.87-25.926h-28.6Zm-277.2,0,15.252,25.547,9.914-17.159a1.678,1.678,0,0,1,1.907-.38l8.77,4.956V375.956a1.216,1.216,0,0,1,1.145-1.145h20.588l-14.87-25.926h-28.6Zm369.855,1.525h28.6l14.108-24.784-14.87-25.929-9.914,17.159a1.679,1.679,0,0,1-1.907.382l-8.77-4.958V347.74c0,.762-.762,1.145-1.525,1.525H632.946Zm-277.2,0h28.6l14.108-24.784-14.87-25.929-9.914,17.159a1.678,1.678,0,0,1-1.907.382l-8.77-4.958V347.74c0,.762-.38,1.145-1.525,1.525H355.745Zm368.711-.382h28.98l14.87-25.926H754.2Zm-45.755-24.784,14.108,24.784h28.6l14.87-25.926H730.177a1.218,1.218,0,0,1-1.145-1.145V337.064l-8.77,4.958c-.762.38-1.524.38-1.907-.382l-9.914-17.159Zm-14.488,24.784H704.63L691.665,352.7Zm-63.3,0h28.98l-14.873-25.926H600.917Zm-153.28,0h28.978l14.873-25.926h-28.98Zm-45.755-24.784,14.108,24.784h28.6l14.87-25.926H453.358a1.218,1.218,0,0,1-1.145-1.145V337.064l-8.77,4.958c-.762.38-1.525.38-1.907-.382l-9.914-17.159Zm-14.488,24.784h25.547L414.846,352.7Zm-63.3,0h28.978l-14.87-25.926H324.1Zm353.461-27.833,14.214-24.784-14.214-24.784-14.216,24.784Zm-276.821,0,14.216-24.784-14.216-24.784-14.214,24.784ZM787.37,346.6h25.547l-12.583-22.115ZM731.7,335.539V346.6h20.971l10.3-17.539-9.914-5.718ZM510.552,346.6H536.1l-12.583-22.115Zm-55.669-11.056V346.6h20.971l10.294-17.539-9.912-5.718Zm310.373-8.39a.82.82,0,0,1,.762.762c.382.382,0,.765,0,1.145L756.1,346.216h28.98l13.565-23.831-13.565-23.831H756.1l9.914,17.157v.762c-.38.382-.38.765-.762.765l-8.261,4.956Zm-144.13,1.527,10.3,17.539h20.971V335.157l-20.684-11.819h-1.332Zm-50.331,17.539h25.167L583.378,324.1ZM488.437,327.15a.822.822,0,0,1,.762.762c.382.382,0,.765,0,1.145l-9.914,17.159h28.978l13.565-23.831-13.565-23.831H479.285l9.914,17.157v.762c-.382.382-.382.765-.762.765l-8.261,4.956Zm-144.51,1.527,10.294,17.539h20.971V335.157l-20.684-11.819h-1.332Zm-49.951,17.539h25.167L306.559,324.1Zm305.417-.382H628.37l-9.914-17.157v-1.145c.382-.382.382-.762.765-.762l7.433-4.461-7.816-4.691a.82.82,0,0,1-.762-.762v-1.145l9.914-17.157H599.01l-13.265,23.3Zm-276.819,0h28.978l-9.914-17.157v-1.145c.382-.382.382-.762.762-.762l7.436-4.461-7.816-4.691a.82.82,0,0,1-.762-.762v-1.145l9.912-17.157H322.191l-13.265,23.3Zm397.689-7.245,8.77-4.956V310.755l-8.77-4.958L711,322.194Zm-64.819-17.539v12.2l9.149,5.338,9.255-16.373L664.214,305.8l-9.152,5.338v9.914Zm-212,17.539,8.77-4.956V310.755l-8.77-4.958-9.267,16.4Zm-64.821-17.539v12.2l9.152,5.338,9.255-16.373L387.392,305.8l-9.15,5.338v9.914ZM731.7,332.108l17.35-9.914L731.7,312.28v19.828Zm-276.819,0,17.35-9.914-17.35-9.914v19.828Zm197.892-.382v-8.387h-.382V312.662l-16.49,9.423Zm-276.821,0v-8.387h-.38V312.662l-16.49,9.423Zm355.368-23.64,21.35,12.2,9.914-5.718-9.914-17.542v.382h-21.35Zm-110.2,6.483,9.914,5.718L652.01,307.7V297.027H631.039ZM454.5,308.086l21.353,12.2,9.914-5.718-9.914-17.542v.382H454.5Zm-110.194,6.483,9.914,5.718L375.191,307.7V297.027H354.221Zm456.41,4.573L813.3,297.027H788.133ZM693.571,293.216l14.87,25.926,9.914-17.157a1.678,1.678,0,0,1,1.907-.382l8.77,4.958V295.885c0-.762.382-1.527,1.145-1.527h20.971l-14.87-25.926h-28.6Zm-27.833,8.77,9.914,17.157,14.87-25.547-14.108-24.784h-28.6l-14.87,25.929h20.971a1.218,1.218,0,0,1,1.145,1.145v10.676l8.77-4.958a2.111,2.111,0,0,1,.919-.249A1.05,1.05,0,0,1,665.738,301.985Zm-82.36,17.157,12.966-22.115H570.794Zm-59.863,0L536.1,297.027H510.932ZM388.537,301.985l9.914,17.157,14.87-25.547-14.108-24.784h-28.6l-14.87,25.929h20.973a1.218,1.218,0,0,1,1.142,1.145v10.676l8.77-4.958a2.113,2.113,0,0,1,.92-.249A1.047,1.047,0,0,1,388.537,301.985Zm-81.978,17.157,12.963-22.115H293.976Zm110.194-26.309,14.87,25.929,9.914-17.159a1.678,1.678,0,0,1,1.907-.38l8.387,5.338V295.885a2.535,2.535,0,0,1,1.527-1.907h20.971l-14.87-25.929h-28.6Zm149.468,3.051L553.638,273.77l-12.583,22.115h25.167Zm220.005-1.527h28.6l14.108-24.782-14.87-25.549-9.914,17.159a1.679,1.679,0,0,1-1.907.382l-8.769-4.958v10.676a1.216,1.216,0,0,1-1.145,1.145H771.356Zm-32.027,0h28.978l-14.87-25.926h-28.98Zm-153.662,0h28.978l14.87-25.926H615.407Zm-45.375-24.782,14.108,24.782v-.38h28.6l14.87-25.929H591.767a1.216,1.216,0,0,1-1.145-1.142V256.23l-8.77,4.956c-.762.382-1.525.382-1.907-.382l-9.914-17.157Zm-45.755,24.782h28.6l14.108-24.782-14.87-25.549-9.914,17.159a1.679,1.679,0,0,1-1.907.382l-8.77-4.958v10.676a1.218,1.218,0,0,1-1.145,1.145H494.537Zm-32.029,0h28.98l-14.873-25.926H462.508Zm-153.659,0H352.7l14.87-25.926H338.588Zm-45.375-24.782,14.108,24.782v-.38h28.6l14.873-25.929H314.946a1.216,1.216,0,0,1-1.142-1.142V256.23l-8.77,4.956c-.762.382-1.527.382-1.907-.382l-9.914-17.157Zm414.086,20.971,12.581-22.115H679.464Zm-277.2,0,12.583-22.115H402.265Zm138.409-73.971L538.767,242.5l14.87,25.929,14.87-25.929ZM723.694,241.74,737.8,266.525H766.78l-9.912-17.159v-1.142c.38-.382.38-.762.762-.762l9.532-5.721-9.532-5.718a.82.82,0,0,1-.762-.765v-1.142l9.912-17.159H737.8Zm-277.2,0L460.6,266.525h28.98l-9.914-17.159v-1.142c.38-.382.38-.762.762-.762l9.532-5.721-9.532-5.718a.82.82,0,0,1-.762-.765v-1.142l9.914-17.159H460.6Zm217.338-.382,14.108,24.784h28.6l14.108-24.784-14.108-24.782h-28.6Zm-36.605-7.243v.762c-.38.38-.38.762-.762.762l-9.532,5.718,9.532,5.721a.82.82,0,0,1,.762.762c.382.382,0,.762,0,1.145l-9.912,17.157h28.978L660.4,241.358l-14.108-24.4H617.314Zm-33.554,21.35v10.676h20.973l9.912-17.539-9.912-5.718ZM386.63,241.358l14.108,24.784h28.6l14.108-24.784-14.108-24.782h-28.6Zm-36.223-7.243v.762c-.38.38-.38.762-.762.762l-9.532,5.718,9.532,5.721a.82.82,0,0,1,.762.762c.382.382,0,.762,0,1.145l-9.914,17.157h28.98l14.108-24.784-14.108-24.4h-28.98Zm-33.934,21.35v10.676h20.971l9.914-17.539-9.914-5.718Zm443.444-7.243,9.914,17.539H790.8V255.086L769.831,242.5Zm-50.711,17.539h25.547l-12.966-22.115Zm-59.865,0h25.546l-12.963-22.115ZM483.1,248.223l9.914,17.539h20.971V255.086L493.013,242.5Zm-50.713,17.539h25.547l-12.963-22.115Zm-60.243,0h25.547l-12.966-22.115Zm421.329-36.985v25.164l8.769,4.958,9.914-17.542-9.914-17.539ZM571.559,241.358l9.912,17.542,9.152-5.338v-24.4l-9.152-5.338Zm-54.907-12.581v25.164l8.77,4.958,9.914-17.542-9.914-17.539ZM294.358,241.358l9.914,17.542,9.15-5.338v-24.4l-9.15-5.338Zm477.76,0L790.8,252.417V230.684Zm-277.2,0L513.6,252.417V230.684Zm98.373,10.676,18.684-11.056L593.292,230.3Zm-277.2,0,18.684-11.056L316.091,230.3Zm443.446-17.919,9.912,5.718L790.8,227.25V216.576H769.831ZM592.91,227.632l21.353,12.2,9.914-5.718-10.294-17.159H592.91Zm-110.194,6.483,9.914,5.718,21.353-12.583V216.576H493.013Zm-166.625-6.483,21.353,12.2,9.914-5.718-10.3-17.159H316.091Zm488.057-6.1,9.914,17.159,14.87-25.929-14.108-24.784v.382h-28.6l-14.87,25.926h20.971a1.218,1.218,0,0,1,1.145,1.145v10.676l8.769-4.958a2.112,2.112,0,0,1,.919-.249A1.05,1.05,0,0,1,804.147,221.532Zm-81.978,17.159,12.963-22.115H709.586Zm-60.245,0,12.963-22.115H649.341ZM526.946,221.532l9.914,17.159,14.87-25.929-14.108-24.784v.382h-28.6l-14.87,25.926h20.971a1.218,1.218,0,0,1,1.142,1.145v10.676l8.769-4.958a2.123,2.123,0,0,1,.921-.249A1.046,1.046,0,0,1,526.946,221.532Zm-81.978,17.159,12.963-22.115H432.385Zm-59.863,0,12.583-22.115H372.522Zm170.056-25.929,15.253,25.547,9.914-17.159a1.676,1.676,0,0,1,1.907-.38l8.77,4.956V215.049a1.215,1.215,0,0,1,1.142-1.142h20.591l-14.87-25.929h-28.6Zm-277.2,0,15.252,25.547,9.914-17.159a1.678,1.678,0,0,1,1.907-.38l8.77,4.956V215.049a1.216,1.216,0,0,1,1.145-1.142h20.588l-14.87-25.929h-28.6Zm369.855,1.525h28.6L690.522,189.5l-14.87-25.926-9.914,17.157a1.679,1.679,0,0,1-1.907.382l-8.77-4.958v10.676c0,.762-.762,1.145-1.525,1.527H632.946Zm-277.2,0h28.6L413.321,189.5l-14.87-25.926-9.914,17.157a1.679,1.679,0,0,1-1.907.382l-8.77-4.958v10.676c0,.762-.38,1.145-1.525,1.527H355.745Zm368.711-.38h28.98l14.87-25.929H754.2Zm-45.755-24.784,14.108,24.784h28.6l14.87-25.929H730.177a1.218,1.218,0,0,1-1.145-1.145V175.777l-8.77,4.956c-.762.382-1.524.382-1.907-.38l-9.914-17.159Zm-14.488,24.784H704.63l-12.583-22.115Zm-63.3,0h28.98l-14.873-25.929H600.917Zm-153.28,0h28.978l14.873-25.929h-28.98Zm-46.135-24.784,14.108,24.784h28.6l14.87-25.929H452.976a1.22,1.22,0,0,1-1.145-1.145V175.777l-8.77,4.956c-.762.382-1.525.382-1.907-.38l-9.912-17.159Zm-14.108,24.784h25.547l-12.583-22.115Zm-63.3,0h28.978l-14.87-25.929H324.1Zm214.669-2.669,12.583-22.115H541.054Zm123.539-50.331,14.87,25.926,14.87-25.926-14.87-25.929Zm-276.819,0,14.87,25.926,14.87-25.926-14.87-25.929Zm167.387,25.547,14.108-24.784-14.108-24.784H539.53l-14.108,24.784,14.108,24.784h28.216Zm220.007-.762H813.3l-12.966-22.115Zm-22.115-32.029v1.145c-.382.38-.382.762-.765.762l-9.532,5.718,9.532,5.721a.82.82,0,0,1,.765.762v.762l-9.914,17.159H784.7l14.108-24.784L784.7,136.123v.38H755.723ZM731.7,175.015v10.676h20.971l10.3-17.542-9.914-5.718ZM621.125,168.15l10.3,17.542v-.382h20.971V174.632l-21.353-12.2Zm-35.841-7.243,14.108,24.784H628.37l-9.914-17.159v-1.145c.382-.38.382-.762.765-.762l9.532-5.718-9.532-5.721a.82.82,0,0,1-.765-.762v-1.145l9.914-17.157H599.392Zm-14.49,24.784h25.167l-12.583-22.115Zm-60.243,0H536.1l-12.963-22.115Zm-21.735-32.029v1.145c-.38.38-.38.762-.762.762l-9.532,5.718,9.532,5.721a.818.818,0,0,1,.762.762v.762L478.9,185.691h28.978l14.108-24.784-14.108-24.784v.38H478.9Zm-33.934,21.353v10.676h20.971l10.294-17.542-9.912-5.718ZM343.927,168.15l10.294,17.542v-.382h20.971V174.632l-21.353-12.2Zm-35.843-7.243,14.108,24.784h28.978l-9.912-17.159v-1.145c.38-.38.38-.762.762-.762l9.532-5.718-9.532-5.721a.818.818,0,0,1-.762-.762v-1.145l9.912-17.157H322.191Zm-14.108,24.784h25.167l-12.583-22.115ZM655.062,148.7v24.4l9.152,5.338,10.294-17.539-10.294-17.539Zm-277.2,0v24.4l9.152,5.338,10.294-17.539-10.294-17.539Zm332.108,11.821,10.294,17.539,8.77-4.956V147.941l-8.77-4.956Zm-277.2,0,10.294,17.539,8.77-4.956V147.941l-8.77-4.956ZM731.7,171.583l18.684-10.676L731.7,149.848Zm-97.993-10.676,18.684,10.676V150.23ZM454.5,171.583l18.684-10.676L454.5,149.848Zm-97.993-10.676,18.684,10.676V150.23Zm374.814-13.728,21.35,12.2,9.914-5.718-9.914-17.539v.38h-21.35Zm-110.2,6.483,9.914,5.718L652.392,146.8V136.123H631.422ZM454.5,147.179l21.353,12.2,9.914-5.718-9.914-17.539v.38H454.5Zm-110.194,6.483,9.914,5.718L375.574,146.8V136.123H354.6Zm321.811-12.2,9.914,17.157,14.87-25.926-14.108-24.784H648.2l-14.87,25.926h20.588a1.218,1.218,0,0,1,1.145,1.145h.382v11.059l8.77-4.958a2.111,2.111,0,0,1,.919-.249A1.046,1.046,0,0,1,666.118,141.461Zm-277.2,0,9.912,17.157L413.7,132.691,399.6,107.907H371l-14.87,25.926h20.591a1.218,1.218,0,0,1,1.142,1.145h.382v11.059l8.77-4.958a2.111,2.111,0,0,1,.919-.249A1.05,1.05,0,0,1,388.919,141.461Zm411.8,16.777L813.3,136.123H788.133ZM693.571,132.309l14.87,25.929,9.914-17.159a1.678,1.678,0,0,1,1.907-.38l8.77,4.956V134.978c0-.762.382-1.525,1.145-1.525h20.971l-14.87-25.929h-28.6ZM583.76,158.238l12.581-22.115H570.794Zm-60.245,0L536.1,136.123H510.932ZM416.373,132.309l14.87,25.929,9.912-17.159a1.678,1.678,0,0,1,1.907-.38l8.77,4.956V134.978a1.7,1.7,0,0,1,1.145-1.525h20.971l-14.87-25.929h-28.6ZM306.941,158.238l12.581-22.115H293.976Zm259.28-24.022L553.638,112.1v-.762l-12.583,22.115h12.583v.762Zm220.005-.382h28.6l14.108-24.784L814.062,83.5l-9.914,17.159a1.678,1.678,0,0,1-1.907.38l-8.769-4.956v10.676a1.216,1.216,0,0,1-1.145,1.145H771.356Zm-276.819,0h28.6l14.108-24.784L537.243,83.5l-9.914,17.159a1.678,1.678,0,0,1-1.907.38l-8.77-4.956v10.676a1.218,1.218,0,0,1-1.145,1.145H494.537Zm244.792-.38h28.978l-14.87-25.929h-28.98Zm-153.282,0h28.978l14.873-25.929h-28.98Zm-45.755-24.784,14.108,24.784v-.382h28.216l14.87-25.926H591.767A1.218,1.218,0,0,1,590.623,106V95.324l-8.77,4.956c-.762.382-1.525.382-1.907-.38L570.032,82.74Zm-77.784,24.784h28.98l-14.873-25.929H462.508Zm-153.659,0H352.7l14.87-25.929H338.588Zm-45.375-24.784,14.108,24.784v-.382h28.216l14.87-25.926H314.946A1.218,1.218,0,0,1,313.8,106V95.324l-8.77,4.956c-.762.382-1.527.382-1.907-.38L293.213,82.74Zm413.7,20.971,12.583-22.115H679.084Zm-276.819,0,12.583-22.115H402.265ZM538.767,80.071,553.638,106v.762l14.87-25.929-14.87-25.926v-.762Zm184.927.762L737.8,105.618H766.78l-9.912-17.157V87.316c.38-.382.38-.762.762-.762l9.532-5.721-9.532-5.718a.82.82,0,0,1-.762-.762V73.208l9.912-17.159H737.8Zm-277.2,0L460.6,105.618h28.98l-9.914-17.157V87.316c.38-.382.38-.762.762-.762l9.532-5.721-9.532-5.718a.82.82,0,0,1-.762-.762V73.208l9.914-17.159H460.6Zm262.713,24.4h25.547L721.787,83.123ZM663.831,80.453l14.108,24.784h28.6l14.108-24.784L706.537,55.669h-28.6Zm-14.49,24.784h25.546L661.924,83.123ZM627.226,73.208v1.145c-.38.38-.38.762-.762.762l-9.532,5.718,9.532,5.721a.818.818,0,0,1,.762.762v.762l-9.912,17.159h28.978L660.4,80.453l-14.108-24.4H617.314ZM593.292,94.561v10.676h20.971L624.557,87.7l-9.912-5.721ZM432.385,105.238h25.547L444.968,83.123ZM386.63,80.453l14.108,24.784h28.6l14.108-24.784L429.336,55.669h-28.6Zm-14.488,24.784h25.547L384.723,83.123ZM350.407,73.208v1.145c-.38.38-.38.762-.762.762l-9.532,5.718,9.532,5.721a.818.818,0,0,1,.762.762v.762l-9.914,17.159h28.98l14.108-24.784-14.108-24.4h-28.98ZM316.091,94.561v10.676h20.971l10.3-17.539-9.914-5.721Zm443.446-7.245,10.294,17.539H790.8V94.179L769.449,81.6Zm-276.821,0,10.3,17.539h20.971V94.179L492.63,81.6Zm88.461-6.483,10.294,17.542,9.152-5.338V68.252l-9.152-5.338Zm-276.819,0,10.294,17.542,9.152-5.338V68.252l-9.152-5.338ZM793.471,68.252V93.037l8.769,4.956,10.294-17.539L802.24,63.294Zm-277.2,0V93.037l8.769,4.956,10.3-17.539-10.3-17.159Zm255.848,12.2L790.8,91.13V69.395ZM593.292,91.13l18.684-11.059L593.292,69.395ZM494.919,80.453,513.6,91.13V69.395ZM316.091,91.13l18.684-11.059L316.091,69.395ZM759.537,73.208l9.912,5.721L790.8,66.346V55.669H769.831ZM592.91,66.726l21.353,12.2,9.914-5.721L613.883,56.049H592.91ZM482.716,73.208l9.914,5.721,21.353-12.583V55.669H493.013ZM316.091,66.726l21.353,12.2,9.914-5.721-10.3-17.159H316.091Zm488.057-6.1,9.914,17.159,14.87-25.929-14.108-24.4h-28.6l-14.87,25.929h20.971a1.216,1.216,0,0,1,1.145,1.142V65.2l8.769-4.956a2.106,2.106,0,0,1,.921-.251A1.048,1.048,0,0,1,804.147,60.625ZM722.169,77.784l12.963-22.115H709.586Zm-60.245,0,12.963-22.115H649.341ZM555.162,51.855l15.253,25.929,9.914-17.159a1.676,1.676,0,0,1,1.907-.38l8.77,4.956V54.525a1.215,1.215,0,0,1,1.142-1.142h20.591l-14.87-25.929h-28.6Zm-27.833,8.77,9.914,17.159,14.87-25.929-14.108-24.4h-28.6l-14.87,25.929h20.971a1.216,1.216,0,0,1,1.145,1.142V65.2l8.77-4.956a2.1,2.1,0,0,1,.921-.251A1.048,1.048,0,0,1,527.329,60.625Zm-82.36,17.159,12.963-22.115H432.385Zm-59.863,0,12.583-22.115H372.522ZM277.961,51.855,293.213,77.4l9.914-17.157a1.679,1.679,0,0,1,1.907-.382l8.77,4.958V54.145A1.216,1.216,0,0,1,314.949,53h20.588l-14.87-25.929h-28.6Zm461.365,1.527h28.98l14.87-25.929H754.2Zm-91.51,0h28.6L690.522,28.6,675.652,2.669l-9.914,17.159a1.678,1.678,0,0,1-1.907.38l-8.77-4.956V25.929a1.639,1.639,0,0,1-1.525,1.525H632.946Zm-185.309,0h28.978l14.873-25.929h-28.98Zm-91.892,0h28.6L413.321,28.6,398.451,2.669l-9.914,17.159a1.678,1.678,0,0,1-1.907.38l-8.77-4.956V25.929a1.4,1.4,0,0,1-1.525,1.525H355.745ZM693.571,28.216,707.679,53h28.6l14.87-25.929H730.177a1.216,1.216,0,0,1-1.145-1.142V15.252l-8.77,4.956c-.762.382-1.524.382-1.907-.38L708.441,2.669ZM679.084,53H704.63L691.665,30.885Zm-63.3,0h28.98L629.895,27.071H600.917ZM416.753,28.6,430.481,53h28.6l14.87-25.929H452.976a1.218,1.218,0,0,1-1.145-1.142V15.252l-8.387,4.956c-.762.382-1.525.382-1.907-.38L431.623,2.669ZM402.265,53h25.547L414.846,30.885Zm-63.3,0h28.978l-14.87-25.929H324.1Zm214.669-4.194v.762l12.583-22.115H553.638v-.762H541.054ZM787.37,24.784h25.547L800.334,2.669ZM731.7,13.725V24.784h20.971l10.3-17.539-9.914-5.721ZM621.125,7.245l10.3,17.539h20.971V13.725l-21.353-12.2ZM570.794,24.784h25.167L583.378,2.669Zm-60.243,0H536.1L523.515,2.669ZM454.883,13.725V24.784h20.971L486.147,7.245l-9.912-5.721ZM344.307,7.245l9.914,17.539h21.353V13.725l-21.353-12.2ZM293.976,24.784h25.167L306.559,2.669Zm-49.186,619.6L230.681,619.6H201.7l9.914,17.159v.762c-.382.38-.382.762-.762.762l-9.534,5.718h-5.338L177.3,633.329v11.059h-2.669V631.8l-8.77-4.956-9.914,17.539H152.9l-14.87-25.929-14.87,25.929H120.87l-10.3-17.539-9.15,5.338v12.2H98.755V633.711L80.071,644.388H74.733L65.2,638.667a.818.818,0,0,1-.762-.762V636.76L74.351,619.6H45.373L31.265,644.388H28.216L14.108,619.6H0v-2.669H12.581L0,594.819v-5.338l14.87-25.929L0,537.625v-5.338l12.581-22.115H0V507.5H14.108l14.108-24.784L14.108,457.934H0v-2.669H12.581L0,433.15v-5.338l14.87-25.926L0,375.956v-5.338L12.581,348.5H0v-2.669H14.108l13.456-23.64-13.456-23.64H0v-2.669H12.581L0,273.77v-5.338L14.87,242.5,0,216.576v-5.338l12.581-22.115H0v-2.669H14.108l14.108-24.784L14.108,136.885H0v-2.669H12.581L0,112.1v-5.338L14.87,80.833,0,54.907V49.569L12.581,27.453H0V24.784H14.108L28.216,0h3.049L44.993,24.784H73.971L64.056,7.625V6.483c.382-.382.382-.762.762-.762L74.351,0h5.338L98.373,10.676V0h2.669V12.2l9.152,5.338L120.108,0h3.049l14.87,25.929L152.9,0h3.051l10.294,17.159,8.77-4.958V0h2.669V10.676L196.365,0H201.7l9.532,5.721a.818.818,0,0,1,.762.762c.382.38,0,.762,0,1.142l-9.912,17.159h28.978L245.172,0h3.049l14.108,24.784h13.728v1.907H263.473l12.583,22.115v5.338l-14.87,25.926L276.057,106v5.338l-12.583,22.115h12.583v3.431H261.949l-14.108,24.784,14.108,24.784h14.108v2.669H263.473l12.583,22.115v5.338L261.186,242.5l14.87,25.929v5.338l-12.583,22.115h12.583v2.669H261.949l-13.375,23.5,13.755,24.165h13.728v1.907H263.473l12.583,22.115v5.336L261.186,401.5l14.87,25.929v5.338l-12.583,22.115h12.583v2.669H261.949l-14.108,24.782,14.108,24.784h14.108v3.052H263.473l12.583,22.115v5.338l-14.87,25.926,14.87,25.929v5.338l-12.583,22.115h12.583V619.6H261.949l-14.108,24.784ZM177.3,629.9l21.353,12.2,9.912-5.718-9.912-17.539v.38H177.3ZM67.108,636l9.912,5.721,20.973-12.583V618.459H77.02ZM246.7,640.956l12.583-22.115H234.113ZM111.718,623.8l9.914,17.159L136.5,615.41l-14.108-24.784H93.8l-14.87,25.926H99.9a1.218,1.218,0,0,1,1.145,1.145v10.676l8.77-4.956a2.1,2.1,0,0,1,.921-.251A1.048,1.048,0,0,1,111.718,623.8ZM29.74,640.956,42.7,618.841H17.157Zm109.811-26.309,14.873,25.926,9.912-17.157a1.675,1.675,0,0,1,1.907-.382l8.77,4.956V617.317c0-.765.762-1.145,1.145-1.527h20.971l-14.87-25.926h-28.6Zm92.654,1.525h28.6l14.108-24.784-14.87-25.547L250.128,583a1.674,1.674,0,0,1-1.907.382l-8.77-4.956V589.1a1.215,1.215,0,0,1-1.142,1.142H217.336Zm-32.027,0h28.978l-14.87-25.929H185.309Zm-153.28,0H75.877l14.87-25.929H61.77ZM1.142,591.388,15.25,616.172v-.382h28.6l14.87-25.926H37.748a1.218,1.218,0,0,1-1.145-1.145V578.042L27.833,583c-.762.382-1.525.382-1.907-.38l-9.914-17.159Zm137.267,20.971,12.583-22.115H125.444Zm31.265-49.186,14.108,24.784h28.98L202.848,570.8v-1.142c.38-.382.38-.765.762-.765l9.532-5.718-9.532-5.721a.818.818,0,0,1-.762-.762v-1.142l9.914-17.159h-28.98Zm36.605,6.863,9.914,17.539h20.971V576.9l-20.971-12.581Zm-51.093,17.539h25.547l-12.966-22.115Zm-45.375-24.784,14.108,24.784h28.6l14.108-24.784-14.108-24.784h-28.6ZM95.324,587.574H120.87L107.9,565.459ZM73.588,555.547v.762c-.38.38-.38.762-.762.762l-9.532,5.718,9.532,5.721a.818.818,0,0,1,.762.762c.382.382,0,.762,0,1.145l-9.914,17.157h28.98l14.108-24.784-14.108-24.4H63.674ZM39.654,576.9v10.677H60.625l9.914-17.539-9.914-5.718ZM17.539,563.172l9.914,17.539,9.15-5.338v-24.4l-9.15-5.338Zm222.294-12.583v24.784l8.77,4.956,9.914-17.157L248.6,545.633ZM218.1,563.172l18.684,11.056V552.5ZM39.272,573.848l18.684-11.059L39.272,552.113Zm166.245-17.922,9.912,5.721,21.353-12.583V538.388H215.811ZM39.272,549.064l21.353,12.583,9.914-5.721-10.3-17.539H39.272Zm210.855-5.721,9.914,17.159,14.87-25.929L260.8,509.789v.382h-28.6L217.336,536.1h20.973a1.216,1.216,0,0,1,1.142,1.142v10.677l8.77-4.956a2.107,2.107,0,0,1,.922-.251A1.045,1.045,0,0,1,250.128,543.343ZM168.15,560.5l12.963-22.115H155.566Zm-59.863,0,12.963-22.115H95.7ZM1.142,534.574,16.395,560.12l9.914-17.157a1.678,1.678,0,0,1,1.907-.382l8.77,4.958V536.863a1.216,1.216,0,0,1,1.142-1.145H58.718l-14.87-25.929H15.25ZM93.8,536.1h28.6L136.5,511.316l-14.87-25.929-9.914,17.159a1.678,1.678,0,0,1-1.907.38l-8.77-4.956v10.677c0,.762-.38,1.142-1.524,1.525H78.926Zm91.512-.382h28.978l14.87-25.929H200.179Zm-45.757-24.784,14.11,24.784h28.6l14.87-25.929H176.157a1.216,1.216,0,0,1-1.145-1.142V497.588l-8.77,4.958c-.762.38-1.525.38-1.907-.382l-9.912-17.159Zm-14.488,24.784H150.61L138.027,513.6Zm-63.294,0H90.748l-14.87-25.929H46.9Zm61.387-53.382,14.87,25.929,14.87-25.929-14.87-25.926Zm88.461-6.863v1.145c-.382.382-.382.762-.762.762l-9.534,5.721,9.534,5.718a.822.822,0,0,1,.762.762v.762L201.7,507.5h28.978l14.108-24.784-14.108-24.784v.382H201.7Zm-33.936,21.353V507.5h20.973l10.294-17.539-9.914-5.721Zm56.051,10.294H259.28l-12.966-22.115ZM67.108,489.581,77.4,507.12v-.38H98.373V496.064l-21.353-12.2Zm-35.843-7.245L45.373,507.12H74.351l-9.912-17.157v-1.145c.38-.38.38-.762.762-.762l9.532-5.721L65.2,476.618a.82.82,0,0,1-.762-.762v-1.145l9.912-17.157H45.373ZM16.777,507.12H41.941L29.358,485.005Zm139.172-24.784,10.294,17.542,8.77-4.958V469.755l-8.77-4.958Zm-54.907-12.2v24.4l9.152,5.338,10.294-17.542L110.194,464.8Zm76.64,23.26,18.684-10.676-18.684-11.056ZM79.689,482.718l18.684,10.676V471.662ZM177.3,468.993l21.353,12.2,9.912-5.721-9.912-17.539v.382H177.3Zm-110.194,6.48,9.912,5.721,21.353-12.583V457.934H77.4ZM246.7,480.049l12.583-22.115H234.113ZM112.1,462.892l9.912,17.157,14.873-25.929-14.108-24.782h-28.6l-14.87,25.926H99.9a1.218,1.218,0,0,1,1.145,1.145h.382v11.056l8.77-4.956a2.1,2.1,0,0,1,.92-.251A1.048,1.048,0,0,1,112.1,462.892ZM29.74,480.049l12.583-22.115H16.777ZM139.552,453.74l14.873,25.929,9.912-17.159a1.679,1.679,0,0,1,1.907-.382l8.77,4.958V456.41c0-.382.762-1.145,1.145-1.525h20.971l-14.87-25.929h-28.6Zm92.654,1.524h28.6l14.108-24.784-14.87-25.547-9.914,17.159a1.677,1.677,0,0,1-1.907.38l-8.77-4.956v10.676a1.218,1.218,0,0,1-1.142,1.145H217.336Zm-32.027,0h28.978l-14.87-25.926H185.309Zm-153.28,0H75.877l14.87-25.926H61.77ZM1.142,430.481,15.25,455.265v-.38H43.466l14.87-25.929H37.748a1.218,1.218,0,0,1-1.145-1.145V417.135l-8.77,4.958c-.762.38-1.525.38-1.907-.382l-9.914-17.157Zm137.267,20.973,12.583-22.115H125.444Zm31.265-49.189,14.108,24.784h28.98l-9.914-17.157v-1.145c.38-.382.38-.762.762-.762l9.532-5.721-9.532-5.718a.82.82,0,0,1-.762-.762V394.64l9.914-17.159h-28.98Zm-59.863,0,14.108,24.784h28.6l14.108-24.784-14.108-24.784h-28.6ZM73.588,395.02v1.145c-.38.382-.38.762-.762.762l-9.532,5.721,9.532,5.718a.82.82,0,0,1,.762.762v.765l-9.914,17.157h28.98l14.108-24.784-14.108-24.4H63.674ZM39.272,416.373v10.676H60.243l10.3-17.539-9.914-5.718ZM205.9,409.128l10.3,17.542h20.971V415.993L215.811,403.41Zm-50.711,17.542h25.547l-12.966-22.115Zm-59.863,0H120.87L107.9,404.554ZM17.539,402.647l10.294,17.539,9.152-5.338V390.064l-9.152-5.338Zm221.912-12.583v24.784l8.77,4.956,10.3-17.539-10.3-17.157Zm-21.353,12.2,18.684,10.676V391.209ZM39.272,412.941l18.684-11.056L39.272,391.209ZM205.517,395.02l9.912,5.721,21.353-12.583V377.481H215.811Zm-166.245-6.48,21.353,12.2,9.914-5.721-10.3-17.539H39.272Zm210.855-6.1,9.914,17.157,14.87-25.926-14.108-24.4h-28.6l-14.873,25.929h20.973a1.218,1.218,0,0,1,1.142,1.145v10.677l8.77-4.958a2.115,2.115,0,0,1,.92-.249A1.047,1.047,0,0,1,250.128,382.439ZM168.15,399.6l12.963-22.115H155.566Zm-59.863,0,12.963-22.115H95.7ZM1.142,373.669l15.252,25.547,9.914-17.159a1.677,1.677,0,0,1,1.907-.38l8.77,4.956V375.956a1.216,1.216,0,0,1,1.142-1.145H58.718l-14.87-25.926H15.25ZM93.8,375.194h28.6L136.5,350.409l-14.87-25.929-9.914,17.159a1.679,1.679,0,0,1-1.907.382l-8.77-4.958V347.74c0,.762-.38,1.145-1.524,1.525H78.926Zm91.512-.382h28.978l14.87-25.926H200.179Zm-45.757-24.784,14.11,24.784h28.6l14.87-25.926H176.157a1.218,1.218,0,0,1-1.145-1.145V337.064l-8.77,4.958c-.762.38-1.525.38-1.907-.382l-9.912-17.159Zm-14.108,24.784h25.549L138.027,352.7Zm-63.674,0H90.748l-14.87-25.926H46.9Zm76.64-27.833,14.022-24.451-14.4-25.118L124,321.86Zm95.324-.382H259.28L246.7,324.481Zm-56.051-11.056V346.6h20.973l10.294-17.539-9.914-5.718Zm33.554-8.39a.82.82,0,0,1,.762.762c.382.382,0,.765,0,1.145l-9.912,17.159h28.978l13.374-23.5-13.756-24.167H201.7l9.914,17.157v.762c-.382.382-.382.765-.762.765l-8.072,4.841ZM67.108,328.677,77.4,346.216H98.373V335.157L77.689,323.338H76.357ZM16.777,346.216H41.941L29.358,324.1Zm28.6-.382H74.351l-9.912-17.157v-1.145c.38-.382.38-.762.762-.762l7.625-4.576L65.2,317.618a.82.82,0,0,1-.762-.762v-1.145l9.912-17.157H45.373l-13.456,23.64Zm120.87-7.245,8.77-4.956V323.338h-.38V310.755l-8.77-4.958-9.077,16.061Zm-64.819-5.338,9.15,5.338,9.443-16.7L110.574,305.8l-9.15,5.338V333.25Zm76.257-11.819v10.676l17.159-9.8L177.3,312.28v9.152ZM98.755,331.726V312.662l-16.681,9.532Zm78.547-23.64,21.353,12.2,9.912-5.718-9.912-17.542v.382H177.3ZM67.108,314.569l9.912,5.718L97.993,307.7V297.027H77.02ZM246.7,319.142l12.583-22.115H234.113ZM139.552,293.216l14.873,25.926,9.912-17.157a1.679,1.679,0,0,1,1.907-.382l8.77,4.958V295.885a1.7,1.7,0,0,1,1.145-1.527h20.971l-14.87-25.926h-28.6Zm-27.833,8.77,9.914,17.157L136.5,293.6l-14.108-24.784H93.8L78.926,294.74H99.9a1.218,1.218,0,0,1,1.145,1.145v10.676l8.77-4.958a2.111,2.111,0,0,1,.919-.249A1.05,1.05,0,0,1,111.718,301.985ZM29.74,319.142,42.7,297.027H17.157Zm202.466-24.784h28.6l14.108-24.782-14.87-25.549-9.914,17.159a1.678,1.678,0,0,1-1.907.382l-8.77-4.958v10.676a1.216,1.216,0,0,1-1.142,1.145H217.336Zm-32.027,0h28.978l-14.87-25.926H185.309Zm-153.28,0H75.877l14.87-25.926H61.77ZM1.142,269.576,15.25,294.358v-.38h28.6l14.87-25.929H37.748a1.216,1.216,0,0,1-1.145-1.142V256.23l-8.77,4.956c-.762.382-1.525.382-1.907-.382l-9.914-17.157Zm137.267,20.971,12.583-22.115H125.444Zm31.265-48.806,14.108,24.784h28.98l-9.914-17.159v-1.142c.38-.382.38-.762.762-.762l9.532-5.721-9.532-5.718a.82.82,0,0,1-.762-.765v-1.142l9.914-17.159h-28.98Zm-59.863-.382,14.108,24.784h28.6l14.108-24.784-14.108-24.782h-28.6Zm-36.223-7.243v.762c-.38.38-.38.762-.762.762l-9.532,5.718,9.532,5.721a.82.82,0,0,1,.762.762c.382.382,0,.762,0,1.145l-9.914,17.157h28.98l14.108-24.784-14.108-24.4H63.674Zm-33.934,21.35v10.676H60.625L70.539,248.6l-9.914-5.718Zm166.625-7.243,9.914,17.539h20.971V255.086L216.194,242.5Zm-51.093,17.539h25.547l-12.966-22.115Zm-59.863,0H120.87L107.9,243.647Zm144.51-36.985v25.164l8.77,4.958,9.914-17.542L248.6,223.819ZM17.539,241.358,27.453,258.9l9.15-5.338v-24.4l-9.15-5.338Zm200.559,0,18.684,11.059V230.684ZM39.272,252.034l18.684-11.056L39.272,230.3Zm166.245-17.919,9.912,5.718,21.353-12.583V216.576H215.811ZM39.272,227.632l21.353,12.2,9.914-5.718-10.3-17.159H39.272Zm210.855-6.1,9.914,17.159,14.87-25.929L260.8,187.978v.382h-28.6l-14.873,25.926h20.973a1.218,1.218,0,0,1,1.142,1.145v10.676l8.77-4.958a2.114,2.114,0,0,1,.92-.249A1.047,1.047,0,0,1,250.128,221.532ZM168.15,238.691l12.963-22.115H155.566Zm-59.863,0,12.963-22.115H95.7ZM1.142,212.762l15.252,25.547,9.914-17.159a1.677,1.677,0,0,1,1.907-.38l8.77,4.956V215.049a1.216,1.216,0,0,1,1.142-1.142H58.718l-14.87-25.929H15.25ZM93.8,214.287h28.6L136.5,189.5l-14.87-25.926-9.914,17.157a1.679,1.679,0,0,1-1.907.382l-8.77-4.958v10.676c0,.762-.38,1.145-1.524,1.527H78.926Zm91.512-.38h28.978l14.87-25.929H200.179Zm-45.757-24.784,14.11,24.784h28.6l14.87-25.929H176.157a1.218,1.218,0,0,1-1.145-1.145V175.777l-8.77,4.956c-.762.382-1.525.382-1.907-.38l-9.912-17.159Zm-14.488,24.784H150.61l-12.583-22.115Zm-63.294,0H90.748l-14.87-25.929H46.9Zm61.387-53,14.87,25.926,14.87-25.926-14.87-25.929Zm110.576,24.784H259.28l-12.966-22.115Zm-22.115-32.029v1.145c-.382.38-.382.762-.762.762l-9.534,5.718,9.534,5.721a.82.82,0,0,1,.762.762v.762L201.7,185.691h28.978l14.108-24.784-14.108-24.784v.38H201.7Zm-33.936,21.353v10.676h20.973l10.294-17.542-9.914-5.718ZM67.108,168.15,77.4,185.691v-.382H98.373V174.632l-21.353-12.2Zm-35.843-7.243,14.108,24.784H74.351l-9.912-17.159v-1.145c.38-.38.38-.762.762-.762l9.532-5.718L65.2,155.186a.818.818,0,0,1-.762-.762v-1.145l9.912-17.157H45.373ZM16.777,185.691H41.941L29.358,163.576ZM101.042,148.7v24.4l9.152,5.338,10.294-17.539-10.294-17.539Zm54.907,11.821,10.294,17.539,8.77-4.956V147.941l-8.77-4.956Zm21.733,11.059,18.684-10.676-18.684-11.059ZM79.689,160.907l18.684,10.676V150.23ZM177.3,147.179l21.353,12.2,9.912-5.718-9.912-17.539v.38H177.3ZM67.108,153.662l9.912,5.718L98.373,146.8V136.123H77.4Zm44.993-12.2,9.912,17.157,14.873-25.926-14.108-24.784h-28.6l-14.87,25.926H99.9a1.218,1.218,0,0,1,1.145,1.145h.382v11.059l8.77-4.958a2.112,2.112,0,0,1,.919-.249A1.05,1.05,0,0,1,112.1,141.461Zm134.6,16.777,12.583-22.115H234.113ZM139.552,132.309l14.873,25.929,9.912-17.159a1.678,1.678,0,0,1,1.907-.38l8.77,4.956V134.978a1.7,1.7,0,0,1,1.145-1.525h20.971l-14.87-25.929h-28.6ZM29.74,158.238l12.583-22.115H16.777Zm202.466-24.4h28.6l14.108-24.784L260.042,83.5l-9.914,17.159a1.677,1.677,0,0,1-1.907.38l-8.77-4.956v10.676a1.216,1.216,0,0,1-1.142,1.145H217.336Zm-32.027-.38h28.978l-14.87-25.929H185.309Zm-153.28,0H75.877l14.87-25.929H61.77ZM1.142,108.669,15.25,133.454v-.382H43.466l14.87-25.926H37.748A1.218,1.218,0,0,1,36.6,106V95.324l-8.77,4.956c-.762.382-1.525.382-1.907-.38L16.012,82.74ZM138.409,129.64l12.583-22.115H125.444Zm31.265-48.806,14.108,24.784h28.98l-9.914-17.157V87.316c.38-.382.38-.762.762-.762l9.532-5.721-9.532-5.718a.82.82,0,0,1-.762-.762V73.208l9.914-17.159h-28.98Zm-14.488,24.4h25.547L167.767,83.123ZM109.811,80.453l14.108,24.784h28.6l14.108-24.784L152.517,55.669h-28.6ZM95.324,105.238H120.87L107.9,83.123ZM73.588,73.208v1.145c-.38.38-.38.762-.762.762l-9.532,5.718,9.532,5.721a.818.818,0,0,1,.762.762v.762l-9.914,17.159h28.98l14.108-24.784-14.108-24.4H63.674ZM39.272,94.561v10.676H60.243L70.539,87.7l-9.914-5.721ZM205.9,87.316l10.3,17.539h20.971V94.179L215.811,81.6ZM17.539,80.833,27.833,98.375l9.152-5.338V68.252l-9.152-5.338ZM239.451,68.252V93.037l8.77,4.956,10.3-17.539-10.3-17.159ZM218.1,80.453,236.782,91.13V69.395ZM39.272,91.13,57.956,80.071,39.272,69.395ZM205.517,73.208l9.912,5.721,21.353-12.583V55.669H215.811ZM39.272,66.726l21.353,12.2,9.914-5.721-10.3-17.159H39.272Zm210.855-6.1,9.914,17.159,14.87-25.929L260.8,27.453h-28.6L217.336,53.382h20.973a1.216,1.216,0,0,1,1.142,1.142V65.2l8.77-4.956a2.107,2.107,0,0,1,.922-.251A1.045,1.045,0,0,1,250.128,60.625ZM168.15,77.784l12.963-22.115H155.566Zm-59.863,0L121.25,55.669H95.7ZM1.142,51.855,16.395,77.4l9.914-17.157a1.678,1.678,0,0,1,1.907-.382l8.77,4.958V54.145A1.216,1.216,0,0,1,38.127,53H58.718L43.848,27.071H15.25Zm184.167,1.527h28.978l14.87-25.929H200.179Zm-91.512,0h28.6L136.5,28.6,121.632,2.669l-9.914,17.159a1.678,1.678,0,0,1-1.907.38l-8.77-4.956V25.929a1.4,1.4,0,0,1-1.524,1.525H78.926Zm45.755-25.167L153.662,53h28.6l14.87-25.929H176.157a1.216,1.216,0,0,1-1.145-1.142V15.252l-8.77,4.956c-.762.382-1.525.382-1.907-.38L154.424,2.669ZM125.444,53h25.549L138.027,30.885ZM61.77,53H90.748L75.877,27.453H46.9ZM233.733,24.784H259.28L246.7,2.669ZM177.681,13.725V24.784h20.973L208.949,7.245l-9.914-5.721ZM67.108,7.245,77.4,24.784H98.373V13.725L77.02,1.525ZM16.777,24.784H41.941L29.358,2.669Z" transform="translate(0 0)" fill="url(#linear-gradient)"/>
              </g>
            </g>
            <g transform="matrix(1, 0, 0, 1, 4286, 118)" filter="url(#Path_78451)">
              <path id="Path_78451-2" data-name="Path 78451" d="M150.819-7.65H935.2c83.308,0,150.843,65.751,150.843,146.86V597.08s-49.585,65.457-182.483,65.457c-125.949,0-243.707-112.966-410.092-95.309S327.917,539.1,239.109,539.1s-136.573,96.2-186.053,72.31S-.025,508.625-.025,508.625V139.21C-.025,58.1,67.51-7.65,150.819-7.65Z" transform="translate(705.83 -1.29) rotate(90)" fill="#fff"/>
            </g>
          </g>
        </g>
      </g>
    </g>
  </g>
</svg>
