<svg xmlns="http://www.w3.org/2000/svg" xmlns:xlink="http://www.w3.org/1999/xlink" width="283.857" height="248.764" viewBox="0 0 283.857 248.764">
  <defs>
    <linearGradient id="linear-gradient" y1="0.748" x2="0.9" y2="0.167" gradientUnits="objectBoundingBox">
      <stop offset="0" stop-color="#fff"/>
      <stop offset="0.473" stop-color="#fff" stop-opacity="0.18"/>
      <stop offset="1" stop-color="#75a29e" stop-opacity="0.502"/>
    </linearGradient>
  </defs>
  <path id="Path_78892" data-name="Path 78892" d="M413.269,401.237l.9,1.5v-6.58l-.6.6-4.784-7.777a1.553,1.553,0,0,0-1.2-.6h-8.372l3.887-6.88c0-.3.3-.3.3-.6v-.6h-2.99l.3.6-4.485,7.478H359.45a1.286,1.286,0,0,0-1.2,1.2v20.04L344.2,401.536V380h-2.392v20.34L307.724,380.9l1.495-.9h-7.774l1.2.9-12.857,8.375L275.731,380.9l1.495-.9h-7.774l1.2.6-32.889,19.143V380h-2.392v21.237l-14.352,8.375V389.571a1.286,1.286,0,0,0-1.2-1.2H183.94l-4.186-7.478.6-.9h-3.289v.6c0,.3,0,.3.3.6l3.887,6.88h-8.073c-.3,0-.9.3-.9.6l-5.083,7.478-.9-1.795v8.076l.9-1.2,17.342,28.715L167.2,440.72l-.9-.3v2.991l14.651,8.375L166.3,460.162v2.094l17.94,9.871L166.9,499.944l-.9-1.5v9.272l.9-2.094,3.588,7.777a1.553,1.553,0,0,0,1.2.6h9.867l-4.485,7.179a.91.91,0,0,0,0,1.2l4.784,7.777H171.98a1.553,1.553,0,0,0-1.2.6l-4.485,8.973v5.085l.9-1.5,17.342,28.117L166.6,581.3V583.4l15.249,8.973L166.6,601.044v4.188l.9-1.5,17.043,9.572L167.2,641.723l-.9-1.2v4.786l4.485,9.871a1.553,1.553,0,0,0,1.2.6h8.97l-3.887,6.88-.3,1.2h2.691l4.784-8.076h36.776a1.286,1.286,0,0,0,1.2-1.2V634.843l14.352,8.076v20.938h2.392V644.415l33.786,19.442h4.186l14.053-7.777,13.754,7.777h2.99l34.982-19.742v19.742H345.1V642.92l14.352-8.076v19.741a1.286,1.286,0,0,0,1.2,1.2h36.776l4.784,8.076H404.6l-.3-.9-4.186-7.179h8.671a1.553,1.553,0,0,0,1.2-.6l4.784-9.871v-2.991c-5.681-9.572-13.754-23.331-17.641-29.313l17.043-9.572h.6v-2.393l-15.548-8.674,14.95-8.674h.6V581.3l-17.641-9.871,17.043-28.116.6,1.2v-4.786l-4.485-9.272a1.553,1.553,0,0,0-1.2-.6h-9.867l4.485-7.777a.91.91,0,0,0,0-1.2l-4.186-7.478h9.269a1.553,1.553,0,0,0,1.2-.6l4.784-9.572v-4.786l-.6.9-17.043-27.219,17.043-10.17.6.3v-2.692l-14.651-8.375,14.053-7.777.6.3v-2.692l-17.641-11.366ZM394.133,470.93c-.3.3-.6.6-.6.9a1.1,1.1,0,0,0,.3.9l18.239,29.612-4.485,8.973h-9.867L379.782,480.8a1.438,1.438,0,0,0-1.794-.6l-17.043,9.572v-16.75l35.879-20.041,14.053,8.076Zm-.3,100.8a.561.561,0,0,0,0,.9c0,.3.3.6.6.9l16.744,9.572-14.651,8.375-35.281-20.041v-16.75l16.445,9.272a1.835,1.835,0,0,0,1.794-.3l17.94-30.809h10.465l4.186,8.375Zm.3,40.38c-.3.3-.6.3-.6.9v1.2c2.691,4.487,12.259,20.04,18.239,30.509l-4.784,9.273h-9.269l-18.538-31.706a1.438,1.438,0,0,0-1.794-.6l-16.744,9.572V614.8l35.281-20.34,14.651,8.375Zm-33.188-.6V574.124l32.59,18.545Zm16.744-50.55-16.744-9.572V532.547h33.487Zm-16.744,92.725V633.946l17.043-9.572,17.043,29.313Zm34.982-123.533H359.749a1.286,1.286,0,0,0-1.2,1.2v18.844L344.2,542.119V502.038l14.352-8.076v18.545a1.286,1.286,0,0,0,1.2,1.2h36.477l4.784,8.076ZM358.553,616v16.451L344.2,640.527V624.375Zm-122.887,8.076v16.152l-14.352-8.076V615.7Zm-63.387,29.612-4.186-9.272,18.837-30.509a.561.561,0,0,0,0-.9c0-.3-.3-.6-.6-.9l-17.043-9.572,14.651-8.375,34.982,20.34v16.451l-16.445-9.272c-.6-.3-1.2,0-1.794.6l-18.538,31.706h-9.867Zm14.053-80.162c.3-.3.6-.6.6-.9v-.9l-18.837-30.509,4.186-8.375h10.465l17.641,30.808a1.438,1.438,0,0,0,1.794.6l16.445-9.272v16.75l-34.982,20.041L168.99,583.4Zm15.847,50.849,16.744,9.572v19.741H185.136Zm16.744-50.251v37.389l-32.59-18.844Zm-33.188-41.577h32.889V551.69l-16.744,9.572Zm1.2-60.72a.561.561,0,0,0,0-.9c0-.3-.3-.6-.6-.9l-17.043-9.273,13.754-7.777,35.58,20.04v16.451L202.178,480.2a1.438,1.438,0,0,0-1.794.6L182.744,511.31H172.279l-4.186-8.973Zm-.6-40.38a1.127,1.127,0,0,0,.3-1.795l-18.538-30.809,5.382-8.076h8.97l18.239,32.3c.3.3.3.6.9.6h.3c.3,0,.3,0,.6-.3l16.445-9.572v15.853l-35.58,20.34-14.053-7.777Zm32.59,1.2v37.688l-33.188-18.844Zm-16.744,50.251,16.744,9.572V511.31H186.033Zm16.744-92.126v20.34l-16.744,9.572-16.744-29.911ZM184.538,513.7h35.58a1.286,1.286,0,0,0,1.2-1.2V493.663l14.352,8.076v40.38l-14.352,8.076V531.351a1.286,1.286,0,0,0-1.2-1.2h-35.58l-5.083-8.375Zm36.776-85.546V412.3l14.352-8.375v15.853ZM344.2,420.081V404.527l14.053,8.076v15.853Zm14.352,132.806v16.75L344.2,561.561v-16.75Zm-16.744,50.849v19.143l-16.445,9.572-17.043-28.715Zm-70.862,0L254.2,632.451l-16.445-9.572V603.736Zm-49.633-33.8v-16.75l14.352-8.076v16.75Zm0-78.966V474.519l14.352,8.076v16.451Zm16.744-49.353V421.577L254.5,412.3l17.641,29.313H238.058Zm103.751-20.041v19.741H308.621l16.744-29.313ZM323.57,409.911l-17.94,31.706h-9.269l-4.784-7.777,17.94-31.108a1.978,1.978,0,0,0-.3-1.795l-17.043-10.17,12.857-8.375,36.776,20.938v15.853l-16.445-9.272A.993.993,0,0,0,323.57,409.911Zm-29,33.5a1.553,1.553,0,0,0,1.2.6h8.671l-4.485,7.777a.91.91,0,0,0,0,1.2l3.887,6.58h-8.073a2.266,2.266,0,0,0-1.2.6l-4.186,7.179-4.186-7.179a1.553,1.553,0,0,0-1.2-.6h-9.568l4.784-7.777a.91.91,0,0,0,0-1.2l-3.887-6.581H284.7a2.266,2.266,0,0,0,1.2-.6l4.186-7.179Zm47.241,119.944V581.9H308.92l16.445-28.117ZM323.57,551.69l-17.94,30.51H295.166l-4.485-8.375,17.641-31.706a1.439,1.439,0,0,0-.6-1.795l-15.847-8.973,14.053-7.777,35.58,20.34v16.75l-16.445-9.272C324.766,550.793,323.869,551.092,323.57,551.69Zm-69.367-.6-16.146,9.273v-16.75l35.58-20.041,13.455,7.478-16.146,8.973a1.439,1.439,0,0,0-.6,1.795l17.641,31.706-4.485,8.375h-9.867L256.3,551.69A1.981,1.981,0,0,0,254.2,551.092ZM238.058,481.1V462.256h33.188L254.5,490.372ZM256,492.466l18.239-30.509H284.4l4.485,7.777L270.349,501.14a.561.561,0,0,0,0,.9c0,.3.3.6.6.9l16.744,9.572-14.053,8.076-35.58-20.04V484.091l16.146,9.272A2.131,2.131,0,0,0,256,492.466ZM289.784,514l13.455,7.777-14.053,7.777-13.455-7.478Zm15.847,27.518-16.445,29.313-16.445-29.313,16.445-9.273Zm1.2-40.081-17.043,9.572-17.043-9.572,17.342-29.014Zm2.392,1.795c.3-.3.6-.3.6-.6v-.9l-17.94-31.407,4.784-7.777h8.97l18.538,30.51a1.553,1.553,0,0,0,1.2.6c.3,0,.3,0,.6-.3l16.445-9.273v16.75l-35.58,19.741-13.455-7.777Zm32.591-40.978V481.1l-16.445,9.272-17.043-28.116ZM238.058,540.623V503.234l32.889,18.844Zm32.59,41.277h-32.59V563.356l16.445-9.273Zm4.784,19.442,4.186-7.179a.91.91,0,0,0,0-1.2l-4.784-8.375H284.1a1.553,1.553,0,0,0,1.2-.6l4.186-7.478,4.186,7.478a1.553,1.553,0,0,0,1.2.6h9.867l-4.784,8.375a.91.91,0,0,0,0,1.2l4.186,7.179h-9.568a1.553,1.553,0,0,0-1.2.6l-4.186,7.478L285,601.941a1.553,1.553,0,0,0-1.2-.6Zm66.377-98.109v37.389l-33.188-18.844Zm16.744-28.715v16.75L344.2,499.346V482.6ZM344.2,442.814V423.072l14.352,8.076v40.38L344.2,479.6V460.76a1.286,1.286,0,0,0-1.2-1.2H306.528l-4.485-7.179,4.784-8.375h35.879A1.368,1.368,0,0,0,344.2,442.814Zm-37.374-40.38-16.744,29.014L273.04,403.331l17.043-11.067Zm-36.178-.6a1.127,1.127,0,0,0-.3,1.795l18.239,30.21-4.485,7.777h-9.269L255.7,409.911a1.127,1.127,0,0,0-1.794-.3l-16.146,9.273V403.032l35.281-20.639,14.053,8.375Zm2.99,42.175,4.186,7.179-5.083,8.375H236.862a1.286,1.286,0,0,0-1.2,1.2V479.6l-14.352-8.076v-40.38l14.352-8.076v19.741a1.057,1.057,0,0,0,1.2,1.2h36.776ZM235.965,601.642a1.1,1.1,0,0,0-.3.9v18.844l-14.352-8.375v-40.38l14.352-8.076V583.1a1.286,1.286,0,0,0,1.2,1.2h35.281l5.083,8.973-4.485,7.777H236.862C236.563,601.343,236.264,601.343,235.965,601.642Zm2.093,23.929,16.146,9.572a1.438,1.438,0,0,0,1.794-.6l17.94-30.809h9.269l4.784,8.076-17.94,32.005a1.439,1.439,0,0,0,.6,1.795l16.744,9.572-13.455,7.478-35.879-20.639V625.571ZM289.485,614.2l17.342,29.612-17.043,9.572-16.744-9.572Zm19.734,31.108c.3-.3.6-.3.6-.9v-.9L290.98,611.513l4.485-8.076h9.867l18.239,30.808a1.127,1.127,0,0,0,1.794.3l16.445-9.273v16.152l-36.477,20.34-12.857-7.179Zm-2.392-43.969-4.784-7.777,5.382-8.973h35.58a1.286,1.286,0,0,0,1.2-1.2V564.851l14.352,8.076v40.38L344.2,621.683V602.839a1.286,1.286,0,0,0-1.2-1.2H306.827Zm71.161-180.664-17.043-9.572v-20.34H395.03Zm-17.043,49.653V432.644l33.487,18.844Zm33.786,40.978H360.945V492.765l17.342-9.572Zm2.093-61.318-35.879-20.34V413.8l16.744,9.572a1.438,1.438,0,0,0,1.794-.6l18.538-32.3h8.97l4.784,8.076-18.239,30.809a1.409,1.409,0,0,0,.3,1.795l17.043,10.768Z" transform="translate(663.857 -166) rotate(90)" fill="url(#linear-gradient)"/>
</svg>
