<svg id="Layer_1" data-name="Layer 1" xmlns="http://www.w3.org/2000/svg" width="74" height="41" viewBox="0 0 74 41">
  <path id="Path_94553" data-name="Path 94553" d="M84.58,42.857C78.026,39.727,69.343,38,60.132,38s-17.9,1.727-24.45,4.857C28.794,46.148,25,50.648,25,55.529S28.794,64.91,35.682,68.2c6.551,3.13,15.236,4.857,24.45,4.857S78.027,71.334,84.581,68.2c6.889-3.294,10.683-7.793,10.683-12.675S91.47,46.148,84.58,42.857ZM83.35,65.625C77.172,68.575,68.927,70.2,60.131,70.2S43.09,68.573,36.913,65.625c-5.756-2.75-9.058-6.43-9.058-10.1s3.3-7.346,9.058-10.1c6.177-2.95,14.423-4.575,23.218-4.575s17.04,1.627,23.218,4.575c5.757,2.75,9.06,6.43,9.06,10.1S89.107,62.875,83.35,65.625Z" transform="translate(-23.151 -35.189)"/>
  <path id="Path_94554" data-name="Path 94554" d="M218.848,149.187q0-.185-.022-.528t-.064-.757q-.044-.413-.093-.864t-.108-.849l-2.145.357q.157,1.285.222,1.97c.043.456.064.776.064.956a.341.341,0,0,1-.05.172.444.444,0,0,1-.2.157,1.761,1.761,0,0,1-.414.121,3.861,3.861,0,0,1-.692.05h-.357a1.532,1.532,0,0,1-.992-.25,1.168,1.168,0,0,1-.3-.921v-1.542H211.78q0,.913-.043,1.449a3.648,3.648,0,0,1-.136.814.6.6,0,0,1-.257.364.912.912,0,0,1-.422.086,1.8,1.8,0,0,1-.528-.079,1.13,1.13,0,0,1-.5-.349c.01-.124.017-.271.021-.444s.007-.348.007-.528v-1.028H208a10.2,10.2,0,0,1-.057,1.192,2.584,2.584,0,0,1-.186.74.8.8,0,0,1-.328.385,1.058,1.058,0,0,1-.5.107,1.936,1.936,0,0,1-.557-.086.818.818,0,0,1-.471-.414c.01-.124.016-.266.021-.428s.007-.331.007-.507v-.987H204a9.585,9.585,0,0,1-.064,1.228,1.663,1.663,0,0,1-.25.735.942.942,0,0,1-.5.364,2.779,2.779,0,0,1-.828.1h-.288a2.418,2.418,0,0,1-.585-.064,1.086,1.086,0,0,1-.45-.229,1.012,1.012,0,0,1-.3-.457,2.357,2.357,0,0,1-.1-.749V142.26l-2.213.214.214,10.281a.686.686,0,0,1-.2.444,1.833,1.833,0,0,1-.578.413,4.147,4.147,0,0,1-.935.307,6.1,6.1,0,0,1-1.285.121,4.01,4.01,0,0,1-1.035-.114,1.993,1.993,0,0,1-.686-.314,1.147,1.147,0,0,1-.379-.471,1.529,1.529,0,0,1-.114-.6q0-.185.014-.449a6.255,6.255,0,0,1,.074-.629q.056-.364.157-.856t.261-1.135l-1.713-.5a14.591,14.591,0,0,0-.757,2.549,9.828,9.828,0,0,0-.172,1.519,3.635,3.635,0,0,0,1.057,2.806,4.5,4.5,0,0,0,3.155.978,6.516,6.516,0,0,0,2.006-.3,5.264,5.264,0,0,0,1.635-.842,3.92,3.92,0,0,0,1.1-1.32,3.776,3.776,0,0,0,.4-1.749v-.357a1.344,1.344,0,0,0,.592.385,2.7,2.7,0,0,0,.833.116h.286a3.562,3.562,0,0,0,1.485-.264,2.293,2.293,0,0,0,.942-.807,2.663,2.663,0,0,0,.793.778,2.362,2.362,0,0,0,1.277.3,3.2,3.2,0,0,0,1.06-.181,1.965,1.965,0,0,0,.942-.821,1.978,1.978,0,0,0,.428.457,2.624,2.624,0,0,0,.518.307,2.677,2.677,0,0,0,.543.178,2.467,2.467,0,0,0,.514.057,1.933,1.933,0,0,0,1.114-.321,2.589,2.589,0,0,0,.74-.75,1.784,1.784,0,0,0,.457.557,2.121,2.121,0,0,0,.578.328,2.625,2.625,0,0,0,.628.148,5.666,5.666,0,0,0,.621.036h.285a4.894,4.894,0,0,0,1.371-.186,3.009,3.009,0,0,0,1.135-.606,2.885,2.885,0,0,0,.778-1.109A4.318,4.318,0,0,0,218.848,149.187Z" transform="translate(-177.142 -131.738)"/>
  <path id="Path_94555" data-name="Path 94555" d="M524.829,146.994l1.286-1.285v-.214l-1.286-1.285h-.214l-1.285,1.285v.214l1.285,1.285Z" transform="translate(-484.623 -133.544)"/>
  <path id="Path_94556" data-name="Path 94556" d="M580.563,152.7V142.28l-2.213.215.214,10.352Z" transform="translate(-535.574 -131.757)"/>
  <path id="Path_94557" data-name="Path 94557" d="M678.726,298.46l-1.214,1.214L676.3,298.46h-.214l-1.214,1.214v.214l1.214,1.214h.214l1.214-1.214,1.214,1.214h.214l1.214-1.214v-.214l-1.214-1.214Z" transform="translate(-624.955 -276.385)"/>
  <path id="Path_94558" data-name="Path 94558" d="M600.343,201.9h.286a4.9,4.9,0,0,0,1.37-.186,3.014,3.014,0,0,0,1.135-.606,2.894,2.894,0,0,0,.778-1.109,4.348,4.348,0,0,0,.286-1.671q0-.185-.021-.528t-.064-.757q-.044-.413-.092-.864t-.107-.849l-2.145.357q.157,1.285.222,1.97c.043.456.064.776.064.956a.349.349,0,0,1-.05.172.45.45,0,0,1-.2.157,1.764,1.764,0,0,1-.413.121,3.876,3.876,0,0,1-.693.05h-.356a3.181,3.181,0,0,1-.785-.079.908.908,0,0,1-.507-.356,2.627,2.627,0,0,1-.365-.8q-.156-.521-.342-1.405l-2.145.571q.328,1.728.486,2.863a13.438,13.438,0,0,1,.157,1.564,1.127,1.127,0,0,1-.178.45,1.752,1.752,0,0,1-.518.479,5.156,5.156,0,0,1-.971.478,11.226,11.226,0,0,1-1.553.45l.5,2.356a5.291,5.291,0,0,0,3.42-1.135,4.407,4.407,0,0,0,1.405-3.163,1.4,1.4,0,0,0,.592.4,2.464,2.464,0,0,0,.792.114Z" transform="translate(-549.715 -180.883)"/>
  <path id="Path_94559" data-name="Path 94559" d="M751.344,152.846l2-.143V142.28l-2.213.215Z" transform="translate(-695.575 -131.757)"/>
  <path id="Path_94560" data-name="Path 94560" d="M369.6,365.655l-1.778-2.415H366.27V369.4h1.544v-3.453l1.235,1.666h.88l1.123-1.666V369.4h1.684V363.24h-1.544Z" transform="translate(-339.18 -336.374)"/>
  <path id="Path_94561" data-name="Path 94561" d="M465.33,364.635h2.021V369.4h1.713v-4.763h2.012V363.24H465.33Z" transform="translate(-430.913 -336.374)"/>
  <path id="Path_94562" data-name="Path 94562" d="M558.965,366.637l-2.77-3.4H554.66V369.4H556.2v-3.519L559.1,369.4h1.413V363.24h-1.544Z" transform="translate(-513.636 -336.374)"/>
  <rect id="Rectangle_6136" data-name="Rectangle 6136" width="74" height="41" fill="none"/>
</svg>
